<svg width="44" height="44" viewBox="0 0 44 44" fill="none" xmlns="http://www.w3.org/2000/svg">
<rect width="44" height="44" rx="8" fill="#E4E8EF"/>
<path d="M31 33.4766V31.3672C31 30.0078 29.9688 28.9062 27.9062 28.0625C25.8438 27.1719 23.875 26.7266 22 26.7266C20.125 26.7266 18.1562 27.1719 16.0938 28.0625C14.0312 28.9062 13 30.0078 13 31.3672V33.4766H31ZM25.1641 16.8125C24.2734 15.9219 23.2188 15.4766 22 15.4766C20.7812 15.4766 19.7266 15.9219 18.8359 16.8125C17.9453 17.7031 17.5 18.7578 17.5 19.9766C17.5 21.1953 17.9453 22.25 18.8359 23.1406C19.7266 24.0312 20.7812 24.4766 22 24.4766C23.2188 24.4766 24.2734 24.0312 25.1641 23.1406C26.0547 22.25 26.5 21.1953 26.5 19.9766C26.5 18.7578 26.0547 17.7031 25.1641 16.8125ZM23.0547 9.92188C22.7734 9.64062 22.4219 9.5 22 9.5C21.5781 9.5 21.2266 9.64062 20.9453 9.92188C20.6641 10.2031 20.5234 10.5547 20.5234 10.9766C20.5234 11.3984 20.6641 11.7734 20.9453 12.1016C21.2266 12.3828 21.5781 12.5234 22 12.5234C22.4219 12.5234 22.7734 12.3828 23.0547 12.1016C23.3359 11.7734 23.4766 11.3984 23.4766 10.9766C23.4766 10.5547 23.3359 10.2031 23.0547 9.92188ZM32.4766 9.5C33.2734 9.5 33.9766 9.80469 34.5859 10.4141C35.1953 11.0234 35.5 11.7266 35.5 12.5234V33.4766C35.5 34.2734 35.1953 34.9766 34.5859 35.5859C33.9766 36.1953 33.2734 36.5 32.4766 36.5H11.5234C10.7266 36.5 10.0234 36.1953 9.41406 35.5859C8.80469 34.9766 8.5 34.2734 8.5 33.4766V12.5234C8.5 11.7266 8.80469 11.0234 9.41406 10.4141C10.0234 9.80469 10.7266 9.5 11.5234 9.5H17.7812C18.1094 8.60938 18.6484 7.88281 19.3984 7.32031C20.1484 6.75781 21.0156 6.47656 22 6.47656C22.9844 6.47656 23.8516 6.75781 24.6016 7.32031C25.3516 7.88281 25.8906 8.60938 26.2188 9.5H32.4766Z" fill="#95A6C4"/>
</svg>
