<svg width="240" height="147" viewBox="0 0 240 147" fill="none" xmlns="http://www.w3.org/2000/svg">
<path opacity="0.8" fill-rule="evenodd" clip-rule="evenodd" d="M48.1882 27.5401C50.6562 19.7736 52.9529 14.938 55.0747 13.0316C60.9505 7.75503 69.0746 10.6267 70.8018 11.038C76.8693 12.4869 74.8965 2.9528 80.1023 1.01486C83.5715 -0.276475 86.4248 1.30204 88.6638 5.7504C90.646 1.60032 93.6667 -0.300561 97.726 0.0384857C103.816 0.551687 105.947 21.026 114.315 16.5443C122.685 12.0607 132.946 11.0362 137.329 17.6985C138.276 19.1399 138.639 16.9037 145.082 9.26869C151.526 1.63182 157.951 -1.73271 171.132 2.7138C177.125 4.73326 182.053 10.208 185.923 19.1362C185.923 31.8792 195.341 39.4234 214.172 41.7634C242.423 45.2743 220.495 75.5087 185.923 84.3628C151.349 93.2188 71.751 97.9988 28.5562 75.6254C-0.240304 60.7129 6.30368 44.6833 48.1863 27.5401H48.1882Z" fill="url(#paint0_linear_5689_108473)"/>
<path d="M143.541 98.6711C142.757 100.777 141.103 102.377 138.945 103.107C135.918 104.117 132.808 104.875 129.669 105.409C129.361 105.465 129.052 105.521 128.744 105.549C128.239 105.633 127.735 105.689 127.231 105.746C126.614 105.83 125.969 105.886 125.325 105.942C123.559 106.082 121.822 106.167 120.056 106.167C118.262 106.167 116.469 106.082 114.703 105.914C113.947 105.858 113.218 105.774 112.489 105.661C112.069 105.605 111.648 105.549 111.256 105.493C110.948 105.437 110.639 105.409 110.331 105.352C107.22 104.847 104.138 104.089 101.139 103.079C98.8968 102.321 97.1873 100.72 96.4306 98.6711C95.6739 96.6499 95.9541 94.2918 97.1592 92.2705L100.326 86.9928C100.999 85.8418 101.615 83.624 101.615 82.2765V77.055C101.615 66.8645 109.883 58.583 120.056 58.583C130.201 58.583 138.469 66.8645 138.469 77.055V82.2765C138.469 83.624 139.085 85.8418 139.786 86.9928L142.953 92.2705C144.102 94.2356 144.326 96.5376 143.541 98.6711Z" fill="#4270DD"/>
<path d="M120 83.0346C118.823 83.0346 117.87 82.0801 117.87 80.9011V72.1985C117.87 71.0194 118.823 70.0649 120 70.0649C121.177 70.0649 122.13 71.0194 122.13 72.1985V80.9011C122.102 82.0801 121.149 83.0346 120 83.0346Z" fill="#BFD4FF"/>
<path d="M127.931 109.002C126.754 112.258 123.643 114.588 120 114.588C117.786 114.588 115.6 113.69 114.059 112.09C113.162 111.248 112.489 110.125 112.097 108.974C112.461 109.03 112.825 109.058 113.218 109.114C113.862 109.198 114.535 109.283 115.208 109.339C116.805 109.479 118.431 109.563 120.056 109.563C121.654 109.563 123.251 109.479 124.82 109.339C125.409 109.283 125.997 109.255 126.558 109.17C127.006 109.114 127.455 109.058 127.931 109.002Z" fill="#BFD4FF"/>
<path opacity="0.675" fill-rule="evenodd" clip-rule="evenodd" d="M206.967 143.122C167.802 152.9 34.1175 141.715 19.8886 136.607C12.9631 134.119 6.72062 129.441 1.16307 122.571C0.541057 121.803 0.150082 120.875 0.0353261 119.895C-0.0794301 118.915 0.0867164 117.923 0.514566 117.033C0.942416 116.143 1.61451 115.392 2.45317 114.866C3.29184 114.34 4.26285 114.061 5.254 114.062H238.861C243.709 126.916 233.078 136.602 206.967 143.122Z" fill="url(#paint1_linear_5689_108473)"/>
<rect x="91.7198" y="114.078" width="56.5605" height="21.4375" rx="8" fill="url(#paint2_linear_5689_108473)" fill-opacity="0.12"/>
<path d="M162.109 79.3815H168.86V81.6562H158.571V79.7884L165.009 71.2736H158.686V68.978H168.62V70.7832L162.109 79.3815Z" fill="#888888" fill-opacity="0.32"/>
<path d="M172.578 62.8888H181.58V65.9219H167.861V63.4314L176.446 52.0784H168.014V49.0175H181.26V51.4245L172.578 62.8888Z" fill="#888888" fill-opacity="0.32"/>
<path d="M195.908 53.7733H206.597V57.375H190.307V54.4176L200.501 40.9359H190.489V37.3011H206.217V40.1593L195.908 53.7733Z" fill="#888888" fill-opacity="0.32"/>
<defs>
<linearGradient id="paint0_linear_5689_108473" x1="124.108" y1="68.4577" x2="124.108" y2="-16.1806" gradientUnits="userSpaceOnUse">
<stop stop-color="#DEDEDE" stop-opacity="0"/>
<stop offset="1" stop-color="#A9A9A9" stop-opacity="0.3"/>
</linearGradient>
<linearGradient id="paint1_linear_5689_108473" x1="120" y1="147" x2="120" y2="107.581" gradientUnits="userSpaceOnUse">
<stop stop-color="white" stop-opacity="0"/>
<stop offset="1" stop-color="#919191" stop-opacity="0.15"/>
</linearGradient>
<linearGradient id="paint2_linear_5689_108473" x1="120.048" y1="82.6024" x2="120.048" y2="133.006" gradientUnits="userSpaceOnUse">
<stop stop-color="#D9DDEA" stop-opacity="0.72"/>
<stop offset="1" stop-color="white" stop-opacity="0"/>
</linearGradient>
</defs>
</svg>
