<svg width="432" height="147" viewBox="0 0 432 147" fill="none" xmlns="http://www.w3.org/2000/svg">
<path d="M268.671 67.2575C268.671 93.7643 247.183 115.252 220.676 115.252C194.17 115.252 172.682 93.7643 172.682 67.2575C172.682 40.7507 194.17 19.2627 220.676 19.2627C247.183 19.2627 268.671 40.7507 268.671 67.2575Z" fill="#467BCC" fill-opacity="0.08"/>
<g filter="url(#filter0_d_18507_116459)">
<path fill-rule="evenodd" clip-rule="evenodd" d="M186.576 44.7344C186.576 42.5252 188.367 40.7344 190.576 40.7344H250.779C252.988 40.7344 254.779 42.5252 254.779 44.7344V94.8333C254.779 97.0425 252.988 98.8333 250.779 98.8333H190.576C188.367 98.8333 186.576 97.0425 186.576 94.8333V44.7344ZM201 58.5C201 56.567 202.567 55 204.5 55H237.5C239.433 55 241 56.567 241 58.5C241 60.433 239.433 62 237.5 62H204.5C202.567 62 201 60.433 201 58.5ZM204 76C202.343 76 201 77.3431 201 79C201 80.6569 202.343 82 204 82H238C239.657 82 241 80.6569 241 79C241 77.3431 239.657 76 238 76H204Z" fill="url(#paint0_linear_18507_116459)"/>
</g>
<rect x="201" y="86" width="40" height="6" rx="3" fill="#DFE3E9"/>
<rect x="201" y="66" width="40" height="6" rx="3" fill="#DFE3E9"/>
<path d="M186.576 44.7344C186.576 42.5252 188.367 40.7344 190.576 40.7344H250.779C252.988 40.7344 254.779 42.5252 254.779 44.7344V48.3125H186.576V44.7344Z" fill="#AAB4C5"/>
<rect x="191.627" y="43.2603" width="2.52604" height="2.52604" rx="1.26302" fill="#798294"/>
<rect x="195.416" y="43.2603" width="2.52604" height="2.52604" rx="1.26302" fill="#9098A7"/>
<rect x="199.205" y="43.2603" width="2.52604" height="2.52604" rx="1.26302" fill="#CFD3D9"/>
<ellipse cx="170.157" cy="28.1042" rx="10.1042" ry="10.1042" fill="#467BCC" fill-opacity="0.08"/>
<circle cx="159.421" cy="46.4181" r="4.42057" fill="#467BCC" fill-opacity="0.08"/>
<defs>
<filter id="filter0_d_18507_116459" x="162.576" y="24.7344" width="132.203" height="122.099" filterUnits="userSpaceOnUse" color-interpolation-filters="sRGB">
<feFlood flood-opacity="0" result="BackgroundImageFix"/>
<feColorMatrix in="SourceAlpha" type="matrix" values="0 0 0 0 0 0 0 0 0 0 0 0 0 0 0 0 0 0 127 0" result="hardAlpha"/>
<feOffset dx="8" dy="16"/>
<feGaussianBlur stdDeviation="16"/>
<feComposite in2="hardAlpha" operator="out"/>
<feColorMatrix type="matrix" values="0 0 0 0 0.12549 0 0 0 0 0.172549 0 0 0 0 0.2 0 0 0 0.12 0"/>
<feBlend mode="normal" in2="BackgroundImageFix" result="effect1_dropShadow_18507_116459"/>
<feBlend mode="normal" in="SourceGraphic" in2="effect1_dropShadow_18507_116459" result="shape"/>
</filter>
<linearGradient id="paint0_linear_18507_116459" x1="208.048" y1="18.6315" x2="254.779" y2="107.043" gradientUnits="userSpaceOnUse">
<stop stop-color="#EFF2F7"/>
<stop offset="1" stop-color="white"/>
</linearGradient>
</defs>
</svg>
