<svg width="328" height="192" viewBox="0 0 328 192" fill="none" xmlns="http://www.w3.org/2000/svg">
<path opacity="0.8" fill-rule="evenodd" clip-rule="evenodd" d="M70.0456 35.9708C73.2745 25.8267 76.2794 19.5108 79.0554 17.0208C86.7429 10.129 97.372 13.8798 99.6317 14.417C107.57 16.3094 104.989 3.85672 111.8 1.32554C116.339 -0.361111 120.072 1.70062 123.001 7.51072C125.595 2.09022 129.547 -0.392569 134.858 0.0502671C142.825 0.720571 145.613 27.4625 156.561 21.6089C167.512 15.7528 180.936 14.4146 186.671 23.1165C187.91 24.9991 188.385 22.0783 196.816 12.106C205.246 2.13135 213.652 -2.26313 230.897 3.54456C238.738 6.18221 245.186 13.3329 250.248 24.9943C250.248 41.6381 262.57 51.4918 287.208 54.5481C324.17 59.1338 295.48 98.6236 250.248 110.188C205.014 121.755 100.874 127.998 44.3604 98.7761C6.68497 79.2985 15.2467 58.3618 70.0432 35.9708H70.0456Z" fill="url(#paint0_linear_19058_20706)"/>
<path d="M215.427 97.7252H222.178V100H211.89V98.1322L218.328 89.6174H212.004V87.3217H221.938V89.127L215.427 97.7252Z" fill="#888888" fill-opacity="0.32"/>
<path d="M229.903 73.967H238.905V77H225.186V74.5096L233.771 63.1565H225.339V60.0957H238.585V62.5026L229.903 73.967Z" fill="#888888" fill-opacity="0.32"/>
<path d="M261.01 60.3983H271.699V64H255.409V61.0426L265.603 47.5609H255.59V43.9261H271.319V46.7843L261.01 60.3983Z" fill="#888888" fill-opacity="0.32"/>
<path opacity="0.675" fill-rule="evenodd" clip-rule="evenodd" d="M277.782 186.934C226.541 199.706 51.6371 185.097 33.021 178.426C23.9601 175.176 15.7928 169.066 8.52169 160.093C7.70788 159.09 7.19636 157.878 7.04622 156.598C6.89608 155.318 7.11345 154.022 7.67322 152.86C8.23299 151.697 9.11231 150.716 10.2096 150.029C11.3068 149.342 12.5772 148.978 13.874 148.979H319.51C325.853 165.768 311.944 178.419 277.782 186.934Z" fill="url(#paint1_linear_19058_20706)"/>
<path d="M192.334 108.966H182.701C174.801 108.966 168.367 102.533 168.367 94.6327V84.9993C168.367 83.166 166.867 81.666 165.034 81.666H150.901C140.634 81.666 132.334 88.3327 132.334 100.233V129.766C132.334 141.666 140.634 148.333 150.901 148.333H177.101C187.367 148.333 195.667 141.666 195.667 129.766V112.299C195.667 110.466 194.167 108.966 192.334 108.966Z" fill="#5286F3"/>
<path d="M176.667 82.3663C175.3 80.9997 172.934 81.933 172.934 83.833V95.4663C172.934 100.333 177.067 104.366 182.1 104.366C185.267 104.4 189.667 104.4 193.434 104.4C195.334 104.4 196.334 102.166 195 100.833C190.2 95.9997 181.6 87.2997 176.667 82.3663Z" fill="#5286F3"/>
<rect x="141" y="119" width="46" height="4" rx="2" fill="#BFD4FF"/>
<rect x="154" y="128" width="33" height="4" rx="2" fill="#BFD4FF"/>
<g clip-path="url(#clip0_19058_20706)">
<path opacity="0.4" d="M150.999 106.334C155.602 106.334 159.333 102.603 159.333 98.0003C159.333 93.398 155.602 89.667 150.999 89.667C146.397 89.667 142.666 93.398 142.666 98.0003C142.666 102.603 146.397 106.334 150.999 106.334Z" fill="white"/>
<path d="M151.884 97.9998L153.801 96.0831C154.042 95.8415 154.042 95.4415 153.801 95.1998C153.559 94.9581 153.159 94.9581 152.917 95.1998L151.001 97.1165L149.084 95.1998C148.842 94.9581 148.442 94.9581 148.201 95.1998C147.959 95.4415 147.959 95.8415 148.201 96.0831L150.117 97.9998L148.201 99.9165C147.959 100.158 147.959 100.558 148.201 100.8C148.326 100.925 148.484 100.983 148.642 100.983C148.801 100.983 148.959 100.925 149.084 100.8L151.001 98.8831L152.917 100.8C153.042 100.925 153.201 100.983 153.359 100.983C153.517 100.983 153.676 100.925 153.801 100.8C154.042 100.558 154.042 100.158 153.801 99.9165L151.884 97.9998Z" fill="white"/>
</g>
<defs>
<linearGradient id="paint0_linear_19058_20706" x1="169.374" y1="89.4142" x2="169.374" y2="-21.1339" gradientUnits="userSpaceOnUse">
<stop stop-color="#DEDEDE" stop-opacity="0"/>
<stop offset="1" stop-color="#A9A9A9" stop-opacity="0.3"/>
</linearGradient>
<linearGradient id="paint1_linear_19058_20706" x1="164" y1="192" x2="164" y2="140.514" gradientUnits="userSpaceOnUse">
<stop stop-color="white" stop-opacity="0"/>
<stop offset="1" stop-color="#919191" stop-opacity="0.15"/>
</linearGradient>
<clipPath id="clip0_19058_20706">
<rect width="20" height="20" fill="white" transform="translate(141 88)"/>
</clipPath>
</defs>
</svg>
