<svg width="328" height="192" viewBox="0 0 328 192" fill="none" xmlns="http://www.w3.org/2000/svg">
<path opacity="0.8" fill-rule="evenodd" clip-rule="evenodd" d="M70.0456 35.9708C73.2745 25.8267 76.2794 19.5108 79.0554 17.0208C86.7429 10.129 97.372 13.8798 99.6317 14.417C107.57 16.3094 104.989 3.85672 111.8 1.32554C116.339 -0.361111 120.072 1.70062 123.001 7.51072C125.595 2.09022 129.547 -0.392569 134.858 0.0502671C142.825 0.720571 145.613 27.4625 156.561 21.6089C167.512 15.7528 180.936 14.4146 186.671 23.1165C187.91 24.9991 188.385 22.0783 196.816 12.106C205.246 2.13135 213.652 -2.26313 230.897 3.54456C238.738 6.18221 245.186 13.3329 250.248 24.9943C250.248 41.6381 262.57 51.4918 287.208 54.5481C324.17 59.1338 295.48 98.6236 250.248 110.188C205.014 121.755 100.874 127.998 44.3604 98.7761C6.68497 79.2985 15.2467 58.3618 70.0432 35.9708H70.0456Z" fill="url(#paint0_linear_29263_18257)"/>
<path opacity="0.675" fill-rule="evenodd" clip-rule="evenodd" d="M277.782 186.934C226.541 199.706 51.6371 185.097 33.021 178.426C23.9601 175.176 15.7928 169.066 8.52169 160.093C7.70788 159.09 7.19636 157.878 7.04622 156.598C6.89608 155.318 7.11345 154.022 7.67322 152.86C8.23299 151.697 9.11231 150.716 10.2096 150.029C11.3068 149.342 12.5772 148.978 13.874 148.979H319.51C325.853 165.768 311.944 178.419 277.782 186.934Z" fill="url(#paint1_linear_29263_18257)"/>
<rect x="91" y="149" width="156" height="37" rx="8" fill="url(#paint2_linear_29263_18257)" fill-opacity="0.24"/>
<path d="M239.427 72.7252H246.178V75H235.89V73.1322L242.328 64.6174H236.004V62.3217H245.938V64.127L239.427 72.7252Z" fill="#888888" fill-opacity="0.32"/>
<path d="M253.903 48.967H262.905V52H249.186V49.5096L257.771 38.1565H249.339V35.0957H262.585V37.5026L253.903 48.967Z" fill="#888888" fill-opacity="0.32"/>
<path d="M285.01 35.3983H295.699V39H279.409V36.0426L289.603 22.5609H279.59V18.9261H295.319V21.7843L285.01 35.3983Z" fill="#888888" fill-opacity="0.32"/>
<path d="M208.36 96.9882V125.336C208.36 138.398 197.759 148.999 184.697 148.999H143.335C130.273 148.999 119.672 138.398 119.672 125.336V97.3195C123.269 101.2 128.38 103.424 133.917 103.424C139.88 103.424 145.607 100.443 149.203 95.6631C152.421 100.443 157.911 103.424 164.016 103.424C170.074 103.424 175.469 100.585 178.734 95.8524C182.378 100.538 188.01 103.424 193.879 103.424C199.605 103.424 204.811 101.106 208.36 96.9882Z" fill="url(#paint3_linear_29263_18257)"/>
<path opacity="0.6" d="M213.046 82.2225L211.674 69.1134C209.686 54.821 203.202 49 189.336 49H171.163L174.665 84.4942C174.712 84.9674 174.76 85.488 174.76 86.3872C175.044 88.8481 175.801 91.1197 176.937 93.1547C180.344 99.4017 186.97 103.424 193.879 103.424C200.173 103.424 205.852 100.632 209.402 95.7103C212.241 91.9243 213.519 87.1444 213.046 82.2225Z" fill="url(#paint4_linear_29263_18257)"/>
<path opacity="0.6" d="M138.412 49C124.499 49 118.062 54.821 116.027 69.2553L114.749 82.2698C114.276 87.3337 115.649 92.2555 118.63 96.0889C122.227 100.774 127.764 103.424 133.916 103.424C140.826 103.424 147.451 99.4017 150.812 93.2494C152.042 91.1197 152.847 88.6588 153.083 86.1032L156.775 49.0473H138.412V49Z" fill="url(#paint5_linear_29263_18257)"/>
<path d="M160.941 121.929C154.931 122.545 150.388 127.656 150.388 133.714V149H177.6V135.37C177.647 125.479 171.826 120.794 160.941 121.929Z" fill="#93B2F5"/>
<path d="M178.166 49H149.77L146.268 83.8316C145.984 87.0497 146.458 90.0786 147.641 92.8234C150.386 99.2597 156.822 103.424 164.015 103.424C171.304 103.424 177.598 99.3544 180.437 92.8708C181.289 90.8358 181.81 88.4695 181.857 86.0559V85.1567L178.166 49Z" fill="#BFD4FF"/>
<defs>
<linearGradient id="paint0_linear_29263_18257" x1="169.374" y1="89.4142" x2="169.374" y2="-21.1339" gradientUnits="userSpaceOnUse">
<stop stop-color="#DEDEDE" stop-opacity="0"/>
<stop offset="1" stop-color="#A9A9A9" stop-opacity="0.3"/>
</linearGradient>
<linearGradient id="paint1_linear_29263_18257" x1="164" y1="192" x2="164" y2="140.514" gradientUnits="userSpaceOnUse">
<stop stop-color="white" stop-opacity="0"/>
<stop offset="1" stop-color="#919191" stop-opacity="0.15"/>
</linearGradient>
<linearGradient id="paint2_linear_29263_18257" x1="169.132" y1="94.6746" x2="169.132" y2="181.669" gradientUnits="userSpaceOnUse">
<stop stop-color="#D9DDEA" stop-opacity="0.72"/>
<stop offset="1" stop-color="white" stop-opacity="0"/>
</linearGradient>
<linearGradient id="paint3_linear_29263_18257" x1="164.016" y1="95.6631" x2="164.016" y2="148.999" gradientUnits="userSpaceOnUse">
<stop stop-color="#416FDC"/>
<stop offset="1" stop-color="#5389F5"/>
</linearGradient>
<linearGradient id="paint4_linear_29263_18257" x1="192.153" y1="49" x2="192.153" y2="103.424" gradientUnits="userSpaceOnUse">
<stop stop-color="#416FDC"/>
<stop offset="1" stop-color="#5389F5"/>
</linearGradient>
<linearGradient id="paint5_linear_29263_18257" x1="135.716" y1="49" x2="135.716" y2="103.424" gradientUnits="userSpaceOnUse">
<stop stop-color="#416FDC"/>
<stop offset="1" stop-color="#5389F5"/>
</linearGradient>
</defs>
</svg>
