<svg width="328" height="147" viewBox="0 0 328 147" fill="none" xmlns="http://www.w3.org/2000/svg">
<ellipse cx="168.676" cy="67.2575" rx="47.9948" ry="47.9948" fill="#467BCC" fill-opacity="0.08"/>
<g filter="url(#filter0_d_22612_130981)">
<path d="M198.779 40.7344C200.988 40.7344 202.779 42.5252 202.779 44.7344V94.833C202.779 97.0421 200.988 98.833 198.779 98.833H138.576C136.367 98.833 134.576 97.0421 134.576 94.833V44.7344C134.576 42.5252 136.367 40.7344 138.576 40.7344H198.779ZM147.837 78.625C146.093 78.6252 144.68 80.0386 144.68 81.7822C144.68 83.526 146.093 84.9403 147.837 84.9404H189.517C191.26 84.9404 192.675 83.5261 192.675 81.7822C192.675 80.0385 191.26 78.625 189.517 78.625H147.837ZM148.68 58.417C146.471 58.417 144.68 60.2079 144.68 62.417V69.5732C144.68 71.7822 146.471 73.5732 148.68 73.5732H188.675C190.884 73.5731 192.675 71.7821 192.675 69.5732V62.417C192.675 60.208 190.884 58.4172 188.675 58.417H148.68Z" fill="url(#paint0_linear_22612_130981)"/>
</g>
<path d="M134.576 44.7344C134.576 42.5252 136.367 40.7344 138.576 40.7344H198.779C200.988 40.7344 202.779 42.5252 202.779 44.7344V48.3125H134.576V44.7344Z" fill="#AAB4C5"/>
<rect x="139.627" y="43.2605" width="2.52604" height="2.52604" rx="1.26302" fill="#798294"/>
<rect x="143.416" y="43.2605" width="2.52604" height="2.52604" rx="1.26302" fill="#9098A7"/>
<rect x="147.205" y="43.2605" width="2.52604" height="2.52604" rx="1.26302" fill="#CFD3D9"/>
<ellipse cx="118.157" cy="28.1042" rx="10.1042" ry="10.1042" fill="#467BCC" fill-opacity="0.08"/>
<circle cx="107.421" cy="46.4179" r="4.42057" fill="#467BCC" fill-opacity="0.08"/>
<path d="M192.513 118.875H211.487C213.188 118.875 214.542 117.475 214.359 115.862C213.177 105.469 206.125 105.641 206.125 101C206.125 96.3594 213.267 96.6172 214.358 86.138C214.53 84.5241 213.188 83.125 211.487 83.125H192.513C190.812 83.125 189.474 84.5241 189.642 86.138C190.733 96.6172 197.875 96.2734 197.875 101C197.875 105.727 190.823 105.469 189.642 115.862C189.458 117.475 190.812 118.875 192.513 118.875Z" fill="#F7F9FC" stroke="#AAB4C5" stroke-width="3" stroke-linecap="round" stroke-linejoin="round"/>
<path d="M209.502 116.125H194.535C193.194 116.125 192.816 114.578 193.756 113.619C196.032 111.312 200.625 109.661 200.625 107.016V98.25C200.625 96.5441 197.359 95.2422 195.339 92.475C195.006 92.0187 195.039 91.375 195.887 91.375H208.152C208.875 91.375 209.032 92.0135 208.702 92.4707C206.711 95.2422 203.375 96.5355 203.375 98.25V107.016C203.375 109.639 208.163 111.055 210.284 113.622C211.14 114.656 210.841 116.125 209.502 116.125Z" fill="#BDC2C8"/>
<defs>
<filter id="filter0_d_22612_130981" x="110.576" y="24.7344" width="132.203" height="122.099" filterUnits="userSpaceOnUse" color-interpolation-filters="sRGB">
<feFlood flood-opacity="0" result="BackgroundImageFix"/>
<feColorMatrix in="SourceAlpha" type="matrix" values="0 0 0 0 0 0 0 0 0 0 0 0 0 0 0 0 0 0 127 0" result="hardAlpha"/>
<feOffset dx="8" dy="16"/>
<feGaussianBlur stdDeviation="16"/>
<feComposite in2="hardAlpha" operator="out"/>
<feColorMatrix type="matrix" values="0 0 0 0 0.12549 0 0 0 0 0.172549 0 0 0 0 0.2 0 0 0 0.12 0"/>
<feBlend mode="normal" in2="BackgroundImageFix" result="effect1_dropShadow_22612_130981"/>
<feBlend mode="normal" in="SourceGraphic" in2="effect1_dropShadow_22612_130981" result="shape"/>
</filter>
<linearGradient id="paint0_linear_22612_130981" x1="156.048" y1="18.6316" x2="202.779" y2="107.043" gradientUnits="userSpaceOnUse">
<stop stop-color="#EFF2F7"/>
<stop offset="1" stop-color="white"/>
</linearGradient>
</defs>
</svg>
