<svg width="314" height="192" viewBox="0 0 314 192" fill="none" xmlns="http://www.w3.org/2000/svg">
<path opacity="0.8" fill-rule="evenodd" clip-rule="evenodd" d="M63.0462 35.9708C66.2752 25.8267 69.28 19.5108 72.056 17.0208C79.7435 10.129 90.3726 13.8798 92.6324 14.417C100.571 16.3094 97.9896 3.85672 104.8 1.32554C109.339 -0.361111 113.072 1.70062 116.002 7.51072C118.595 2.09022 122.547 -0.392569 127.858 0.0502671C135.826 0.720571 138.614 27.4625 149.562 21.6089C160.513 15.7528 173.937 14.4146 179.672 23.1165C180.911 24.9991 181.386 22.0783 189.816 12.106C198.246 2.13135 206.652 -2.26313 223.898 3.54456C231.738 6.18221 238.187 13.3329 243.249 24.9943C243.249 41.6381 255.571 51.4918 280.209 54.5481C317.171 59.1338 288.481 98.6236 243.249 110.188C198.015 121.755 93.8743 127.998 37.3611 98.7761C-0.314385 79.2985 8.24733 58.3618 63.0438 35.9708H63.0462Z" fill="url(#paint0_linear_4400_261510)"/>
<path fill-rule="evenodd" clip-rule="evenodd" d="M114.478 35H190.522C191.71 35 192.849 35.4741 193.689 36.3179C194.528 37.1617 195 38.3062 195 39.4995V144.5C195 145.694 194.528 146.838 193.689 147.682C192.849 148.526 191.71 149 190.522 149H114.478C113.29 149 112.151 148.526 111.311 147.682C110.472 146.838 110 145.694 110 144.5V39.4995C110 38.3062 110.472 37.1617 111.311 36.3179C112.151 35.4741 113.29 35 114.478 35Z" fill="url(#paint1_linear_4400_261510)"/>
<path fill-rule="evenodd" clip-rule="evenodd" d="M124.25 46H180.75C181.347 46 181.919 46.2366 182.341 46.6578C182.762 47.079 182.999 47.6503 182.999 48.2459V76.2715C182.999 76.8671 182.762 77.4384 182.341 77.8596C181.919 78.2808 181.347 78.5174 180.75 78.5174H124.25C123.653 78.5174 123.081 78.2808 122.659 77.8596C122.238 77.4384 122.001 76.8671 122.001 76.2715V48.2459C122.001 47.6503 122.238 47.079 122.659 46.6578C123.081 46.2366 123.653 46 124.25 46ZM124.545 90.7093H180.455C181.13 90.7093 181.777 90.9769 182.254 91.4533C182.731 91.9297 182.999 92.5758 182.999 93.2494C182.999 93.9231 182.731 94.5692 182.254 95.0456C181.777 95.5219 181.13 95.7896 180.455 95.7896H124.545C123.87 95.7896 123.223 95.5219 122.746 95.0456C122.269 94.5692 122.001 93.9231 122.001 93.2494C122.001 92.5758 122.269 91.9297 122.746 91.4533C123.223 90.9769 123.87 90.7093 124.545 90.7093ZM124.545 103.919H180.455C181.13 103.919 181.778 104.186 182.255 104.663C182.732 105.139 183 105.785 183 106.459C183 107.133 182.732 107.779 182.255 108.256C181.778 108.732 181.13 109 180.455 109H124.545C123.87 109 123.222 108.732 122.745 108.256C122.268 107.779 122 107.133 122 106.459C122 105.785 122.268 105.139 122.745 104.663C123.222 104.186 123.87 103.919 124.545 103.919Z" fill="#A9A9A9" fill-opacity="0.32"/>
<circle cx="200.542" cy="107.542" r="25.7639" fill="#BFD4FF"/>
<path d="M170.146 107.542C170.146 124.297 183.786 137.937 200.542 137.937C217.297 137.937 230.937 124.297 230.937 107.542C230.937 90.7863 217.297 77.1458 200.542 77.1458C183.786 77.1458 170.146 90.7863 170.146 107.542ZM175.521 107.542C175.521 93.759 186.731 82.5208 200.542 82.5208C214.353 82.5208 225.562 93.759 225.562 107.542C225.562 121.324 214.353 132.562 200.542 132.562C186.731 132.562 175.521 121.324 175.521 107.542Z" fill="#5286F3" stroke="#5286F2"/>
<path d="M229.267 140.066C229.804 140.602 230.487 140.854 231.167 140.854C231.846 140.854 232.53 140.602 233.066 140.066C234.107 139.025 234.107 137.308 233.066 136.267L227.233 130.434C226.192 129.393 224.475 129.393 223.434 130.434C222.393 131.475 222.393 133.192 223.434 134.233L229.267 140.066Z" fill="#5286F3" stroke="#5286F2"/>
<path d="M192.278 100.625C192.274 100.726 192.291 100.828 192.327 100.922C192.363 101.017 192.418 101.104 192.489 101.176C192.56 101.249 192.645 101.306 192.739 101.345C192.833 101.384 192.934 101.403 193.035 101.401H195.627C196.06 101.401 196.406 101.046 196.462 100.615C196.745 98.5549 198.159 97.0535 200.678 97.0535C202.833 97.0535 204.805 98.1308 204.805 100.722C204.805 102.717 203.63 103.634 201.774 105.029C199.66 106.565 197.986 108.358 198.105 111.27L198.115 111.952C198.118 112.158 198.202 112.354 198.349 112.499C198.496 112.643 198.694 112.724 198.9 112.724H201.447C201.656 112.724 201.855 112.642 202.003 112.494C202.15 112.347 202.233 112.147 202.233 111.939V111.609C202.233 109.354 203.09 108.697 205.405 106.942C207.318 105.487 209.313 103.873 209.313 100.484C209.313 95.7373 205.305 93.4443 200.916 93.4443C196.937 93.4443 192.577 95.2976 192.278 100.625ZM197.169 118.727C197.169 120.401 198.504 121.639 200.342 121.639C202.255 121.639 203.571 120.401 203.571 118.727C203.571 116.993 202.251 115.774 200.338 115.774C198.504 115.774 197.169 116.993 197.169 118.727Z" fill="#5286F3"/>
<path opacity="0.675" fill-rule="evenodd" clip-rule="evenodd" d="M270.782 186.934C219.541 199.706 44.6371 185.097 26.021 178.426C16.9601 175.176 8.79282 169.066 1.52169 160.093C0.707883 159.09 0.196358 157.878 0.0462183 156.598C-0.103921 155.318 0.113454 154.022 0.673224 152.86C1.23299 151.697 2.11231 150.716 3.20957 150.029C4.30682 149.342 5.57723 148.978 6.87398 148.979H312.51C318.853 165.768 304.944 178.419 270.782 186.934Z" fill="url(#paint2_linear_4400_261510)"/>
<rect x="110" y="149" width="85" height="28" rx="8" fill="url(#paint3_linear_4400_261510)" fill-opacity="0.12"/>
<defs>
<linearGradient id="paint0_linear_4400_261510" x1="162.375" y1="89.4142" x2="162.375" y2="-21.1339" gradientUnits="userSpaceOnUse">
<stop stop-color="#DEDEDE" stop-opacity="0"/>
<stop offset="1" stop-color="#A9A9A9" stop-opacity="0.3"/>
</linearGradient>
<linearGradient id="paint1_linear_4400_261510" x1="149" y1="-129" x2="148" y2="157" gradientUnits="userSpaceOnUse">
<stop stop-color="#A9A9A9" stop-opacity="0.56"/>
<stop offset="1" stop-color="#F1F1F1" stop-opacity="0"/>
</linearGradient>
<linearGradient id="paint2_linear_4400_261510" x1="157" y1="192" x2="157" y2="140.514" gradientUnits="userSpaceOnUse">
<stop stop-color="white" stop-opacity="0"/>
<stop offset="1" stop-color="#919191" stop-opacity="0.15"/>
</linearGradient>
<linearGradient id="paint3_linear_4400_261510" x1="152.572" y1="107.889" x2="152.572" y2="173.722" gradientUnits="userSpaceOnUse">
<stop stop-color="#D9DDEA" stop-opacity="0.72"/>
<stop offset="1" stop-color="white" stop-opacity="0"/>
</linearGradient>
</defs>
</svg>
