<svg width="46" height="46" viewBox="0 0 46 46" fill="none" xmlns="http://www.w3.org/2000/svg">
<path fill-rule="evenodd" clip-rule="evenodd" d="M4.14282 0.142822C1.93368 0.142822 0.142822 1.93369 0.142822 4.14283V45.8571H0.448573C0.843775 45.1905 1.58247 44.7421 2.42853 44.7421C3.27459 44.7421 4.01329 45.1905 4.40849 45.8571H5.59142C5.98663 45.1905 6.72532 44.7421 7.57138 44.7421C8.41744 44.7421 9.15614 45.1905 9.55134 45.8571H10.7343C11.1295 45.1905 11.8682 44.7421 12.7142 44.7421C13.5603 44.7421 14.299 45.1905 14.6942 45.8571H15.8771C16.2723 45.1905 17.011 44.7421 17.8571 44.7421C18.7031 44.7421 19.4418 45.1905 19.837 45.8571H21.02C21.4152 45.1905 22.1539 44.7421 23 44.7421C23.846 44.7421 24.5847 45.1905 24.9799 45.8571H26.1628C26.5581 45.1905 27.2967 44.7421 28.1428 44.7421C28.9889 44.7421 29.7276 45.1905 30.1228 45.8571H31.3057C31.7009 45.1905 32.4396 44.7421 33.2857 44.7421C34.1317 44.7421 34.8704 45.1905 35.2656 45.8571H36.4486C36.8438 45.1905 37.5825 44.7421 38.4285 44.7421C39.2746 44.7421 40.0133 45.1905 40.4085 45.8571H41.5914C41.9866 45.1905 42.7253 44.7421 43.5714 44.7421C44.4174 44.7421 45.1561 45.1905 45.5513 45.8571H45.8571V4.14282C45.8571 1.93368 44.0662 0.142822 41.8571 0.142822H4.14282Z" fill="white"/>
<rect x="14.4285" y="12.7144" width="17.1429" height="3.42857" rx="1.71429" fill="#D2D5DE"/>
<rect x="7" y="20.7144" width="32" height="3.42857" rx="1.71429" fill="#D2D5DE" fill-opacity="0.6"/>
<rect x="7" y="28.7144" width="32" height="3.42857" rx="1.71429" fill="#D2D5DE" fill-opacity="0.6"/>
</svg>
