<svg width="104" height="104" viewBox="0 0 104 104" fill="none" xmlns="http://www.w3.org/2000/svg">
<path d="M89.0482 40.9066H84.2816C83.6316 40.9066 82.9816 41.0367 82.3749 41.21L60.7516 19.5867C62.8316 16.9 62.6582 13.0433 60.1882 10.6167L56.8082 7.23665C54.2516 4.67999 49.7449 4.67999 47.1449 7.23665L43.7649 10.6167C41.3382 13.0433 41.1649 16.9 43.2449 19.5867L21.6216 41.21C21.0149 41.0367 20.3649 40.9066 19.7149 40.9066H14.9482C11.1782 40.9066 8.10156 43.9833 8.10156 47.7533V52.52C8.10156 56.29 11.1782 59.3666 14.9482 59.3666H19.7149C23.4849 59.3666 26.5616 56.29 26.5616 52.52V47.7533C26.5616 47.1033 26.4316 46.4533 26.2582 45.8466L47.8816 24.2233C49.0516 25.1333 50.5249 25.61 51.9982 25.61C53.4716 25.61 54.9449 25.09 56.1582 24.18L77.7816 45.8033C77.6082 46.41 77.4782 47.06 77.4782 47.71V52.4766C77.4782 56.2466 80.5549 59.3233 84.3249 59.3233H89.0916C92.8616 59.3233 95.9382 56.2466 95.9382 52.4766V47.71C95.8516 43.94 92.8182 40.9066 89.0482 40.9066Z" fill="#CFD3D9"/>
<path d="M68.2499 71.7167L61.1432 78H42.6832L35.5766 71.7167C31.4599 68.3367 31.4599 65.7367 34.5799 61.75L47.1032 45.89C47.9699 44.8067 48.9666 44.07 50.0932 43.68C51.2632 43.29 52.5199 43.29 53.7332 43.68C54.8166 44.07 55.8132 44.8067 56.7232 45.89L69.2466 61.75C72.3666 65.6933 72.2366 68.1633 68.2499 71.7167Z" fill="#CFD3D9"/>
<path d="M57.5912 95.3333H46.3678C42.3812 95.3333 39.3912 92.0833 40.1712 88.6166L41.5145 82.5933C41.7745 81.38 42.8578 80.5566 44.0712 80.5566H59.8878C61.1012 80.5566 62.1412 81.38 62.4445 82.5933L63.7878 88.6166C64.6545 92.3 61.8378 95.3333 57.5912 95.3333Z" fill="#CFD3D9"/>
</svg>
