<svg width="96" height="96" viewBox="0 0 96 96" fill="none" xmlns="http://www.w3.org/2000/svg">
<path d="M84.6 24.68C82.96 23.8 79.52 22.88 74.84 26.16L68.96 30.32C68.52 17.88 63.12 13 50 13H26C12.32 13 7 18.32 7 32V64C7 73.2 12 83 26 83H50C63.12 83 68.52 78.12 68.96 65.68L74.84 69.84C77.32 71.6 79.48 72.16 81.2 72.16C82.68 72.16 83.84 71.72 84.6 71.32C86.24 70.48 89 68.2 89 62.48V33.52C89 27.8 86.24 25.52 84.6 24.68ZM44 45.52C39.88 45.52 36.48 42.16 36.48 38C36.48 33.84 39.88 30.48 44 30.48C48.12 30.48 51.52 33.84 51.52 38C51.52 42.16 48.12 45.52 44 45.52Z" fill="#CFD3D9"/>
</svg>
