<svg width="328" height="192" viewBox="0 0 328 192" fill="none" xmlns="http://www.w3.org/2000/svg">
<circle cx="170.797" cy="94.8465" r="49.5429" fill="#467BCC" fill-opacity="0.08"/>
<g filter="url(#filter0_d_5707_799)">
<path d="M188.894 73.2143C188.894 66.5312 195.02 64.8604 197.247 64.8604C201.146 64.8604 207.49 67.243 207.49 77.9361C207.49 91.3024 207.272 94.9346 198.918 94.9346H188.894V73.2143Z" fill="url(#paint0_linear_5707_799)" fill-opacity="0.7"/>
<path fill-rule="evenodd" clip-rule="evenodd" d="M188.893 128.35C188.893 130.021 185.552 133.363 182.21 130.021C179.983 127.236 175.527 125.009 170.515 130.021C170.256 130.28 169.995 130.561 169.728 130.848C167.536 133.205 164.958 135.978 160.49 130.021C156.699 124.967 153.565 127.009 150.733 128.854C150.072 129.285 149.427 129.705 148.794 130.021C146.567 131.135 142.111 132.026 142.111 126.68V74.8851C142.111 69.8727 145.787 64.8604 153.807 64.8604H197.247C201.026 64.8604 207.102 66.6701 207.472 76.9322C207.087 67.0926 201.023 64.8604 197.249 64.8604C195.021 64.8604 188.895 66.5312 188.895 73.2144V94.9345H188.893V128.35ZM158.818 81.5684C156.973 81.5684 155.476 83.0645 155.476 84.91C155.476 86.7555 156.973 88.2516 158.818 88.2516H175.526C177.371 88.2516 178.868 86.7555 178.868 84.91C178.868 83.0645 177.371 81.5684 175.526 81.5684H158.818ZM152.136 98.2764C152.136 96.4309 153.632 94.9348 155.478 94.9348H175.527C177.373 94.9348 178.869 96.4309 178.869 98.2764C178.869 100.122 177.373 101.618 175.527 101.618H155.478C153.632 101.618 152.136 100.122 152.136 98.2764ZM165.503 108.301C163.657 108.301 162.161 109.797 162.161 111.642C162.161 113.488 163.657 114.984 165.503 114.984H175.527C177.373 114.984 178.869 113.488 178.869 111.642C178.869 109.797 177.373 108.301 175.527 108.301H165.503Z" fill="url(#paint1_linear_5707_799)"/>
</g>
<circle cx="204.694" cy="128.745" r="18.0564" fill="url(#paint2_linear_5707_799)" stroke="#AAB4C5" stroke-width="3"/>
<rect x="202.86" y="119.577" width="3.85282" height="12.329" rx="1.92641" fill="#AAB4C5"/>
<rect x="202.86" y="133.448" width="3.85282" height="3.85282" rx="1.92641" fill="#AAB4C5"/>
<circle cx="118.647" cy="54.4301" r="10.4301" fill="#467BCC" fill-opacity="0.08"/>
<circle cx="107.563" cy="73.3346" r="4.56316" fill="#467BCC" fill-opacity="0.08"/>
<defs>
<filter id="filter0_d_5707_799" x="118.111" y="50.8604" width="129.379" height="132.733" filterUnits="userSpaceOnUse" color-interpolation-filters="sRGB">
<feFlood flood-opacity="0" result="BackgroundImageFix"/>
<feColorMatrix in="SourceAlpha" type="matrix" values="0 0 0 0 0 0 0 0 0 0 0 0 0 0 0 0 0 0 127 0" result="hardAlpha"/>
<feOffset dx="8" dy="18"/>
<feGaussianBlur stdDeviation="16"/>
<feComposite in2="hardAlpha" operator="out"/>
<feColorMatrix type="matrix" values="0 0 0 0 0.126667 0 0 0 0 0.1736 0 0 0 0 0.2 0 0 0 0.12 0"/>
<feBlend mode="normal" in2="BackgroundImageFix" result="effect1_dropShadow_5707_799"/>
<feBlend mode="normal" in="SourceGraphic" in2="effect1_dropShadow_5707_799" result="shape"/>
</filter>
<linearGradient id="paint0_linear_5707_799" x1="198.287" y1="83.0348" x2="192.669" y2="67.8342" gradientUnits="userSpaceOnUse">
<stop stop-color="white"/>
<stop offset="1" stop-color="white" stop-opacity="0"/>
</linearGradient>
<linearGradient id="paint1_linear_5707_799" x1="192.233" y1="133.593" x2="142.094" y2="61.2336" gradientUnits="userSpaceOnUse">
<stop stop-color="#EFF2F7"/>
<stop offset="1" stop-color="white"/>
</linearGradient>
<linearGradient id="paint2_linear_5707_799" x1="219.823" y1="139.814" x2="187.352" y2="116.568" gradientUnits="userSpaceOnUse">
<stop stop-color="#EEF1F6"/>
<stop offset="1" stop-color="#FAFBFE"/>
</linearGradient>
</defs>
</svg>
