<svg width="32" height="32" viewBox="0 0 32 32" fill="none" xmlns="http://www.w3.org/2000/svg">
<g clip-path="url(#clip0_2843_20164)">
<path fill-rule="evenodd" clip-rule="evenodd" d="M26.9999 22C28.3259 22 29.5977 22.5268 30.5354 23.4645C31.4731 24.4021 31.9999 25.6739 31.9999 27C31.9999 28.3261 31.4731 29.5979 30.5354 30.5355C29.5977 31.4732 28.3259 32 26.9999 32C25.6738 32 24.402 31.4732 23.4643 30.5355C22.5266 29.5979 21.9999 28.3261 21.9999 27C21.9999 25.6739 22.5266 24.4021 23.4643 23.4645C24.402 22.5268 25.6738 22 26.9999 22ZM22.7585 0.279335C22.7757 0.200189 22.8195 0.129316 22.8826 0.0784985C22.9456 0.0276808 23.0242 -1.9016e-05 23.1052 2.21249e-06H31.8665C31.8892 -4.31312e-05 31.9115 0.00568741 31.9313 0.0166521C31.9511 0.0276168 31.9679 0.043455 31.9799 0.0626701C31.9921 0.081769 31.9992 0.103669 32.0006 0.126299C32.002 0.14893 31.9976 0.171542 31.9879 0.192001L16.9499 31.8107C16.9228 31.8673 16.8802 31.9151 16.8271 31.9486C16.7741 31.982 16.7126 31.9999 16.6499 32H16.2799C16.2302 31.9999 16.1813 31.9887 16.1365 31.9672C16.0918 31.9458 16.0524 31.9146 16.0212 31.876C15.99 31.8374 15.9678 31.7922 15.9562 31.7439C15.9447 31.6956 15.9441 31.6453 15.9545 31.5967L22.7585 0.279335ZM17.7065 0.279335C17.7237 0.200301 17.7674 0.129515 17.8303 0.0787096C17.8932 0.0279044 17.9717 0.000133065 18.0525 2.21249e-06H20.7119C20.7649 0.000123301 20.8173 0.0121685 20.865 0.0352475C20.9128 0.0583264 20.9548 0.0918493 20.9879 0.133336C21.021 0.174651 21.0445 0.222851 21.0566 0.274411C21.0687 0.325971 21.0691 0.379586 21.0579 0.431335L14.2572 31.738C14.241 31.812 14.2001 31.8782 14.1412 31.9259C14.0823 31.9735 14.0089 31.9996 13.9332 32H11.2272C11.1776 31.9999 11.1286 31.9887 11.0838 31.9672C11.0391 31.9458 10.9997 31.9146 10.9685 31.876C10.9373 31.8374 10.9151 31.7922 10.9036 31.7439C10.892 31.6956 10.8915 31.6453 10.9019 31.5967L17.7065 0.279335ZM15.0439 0.200002C15.0729 0.139879 15.1184 0.0891989 15.175 0.0538098C15.2316 0.0184207 15.2971 -0.000233825 15.3639 2.21249e-06H15.6419C15.6949 0.000123301 15.7473 0.0121685 15.795 0.0352475C15.8428 0.0583264 15.8848 0.0918493 15.9179 0.133336C15.9511 0.174595 15.9747 0.22277 15.987 0.274332C15.9992 0.325895 15.9997 0.379537 15.9885 0.431335L9.18654 31.738C9.17033 31.812 9.12941 31.8782 9.07052 31.9259C9.01163 31.9735 8.93827 31.9996 8.86254 32H0.133204C0.110544 32 0.0882474 31.9943 0.0684176 31.9834C0.0485879 31.9724 0.0318796 31.9565 0.0198703 31.9373C0.00786085 31.9181 0.000946533 31.8962 -0.000219922 31.8735C-0.00138638 31.8509 0.00323351 31.8283 0.0132036 31.808L15.0439 0.200002ZM4.99987 2.21249e-06C6.32595 2.21249e-06 7.59772 0.526785 8.5354 1.46447C9.47308 2.40215 9.99987 3.67392 9.99987 5C9.99987 6.32608 9.47308 7.59785 8.5354 8.53554C7.59772 9.47322 6.32595 10 4.99987 10C3.67379 10 2.40202 9.47322 1.46434 8.53554C0.526654 7.59785 -0.000129734 6.32608 -0.000129734 5C-0.000129734 3.67392 0.526654 2.40215 1.46434 1.46447C2.40202 0.526785 3.67379 2.21249e-06 4.99987 2.21249e-06Z" fill="#662891"/>
</g>
<defs>
<clipPath id="clip0_2843_20164">
<rect width="32" height="32" fill="white"/>
</clipPath>
</defs>
</svg>
