<svg width="32" height="33" viewBox="0 0 32 33" fill="none" xmlns="http://www.w3.org/2000/svg">
<path fill-rule="evenodd" clip-rule="evenodd" d="M21.0127 23.0451C6.64139 35.2151 -7.62661 16.7344 4.67539 4.28444C-1.05328 17.7851 9.48405 28.0011 21.0127 23.0451ZM22.9941 10.8011C35.3694 25.0011 17.1801 39.6138 4.55672 27.4884C18.1154 33.0064 28.1294 22.2724 22.9941 10.8011ZM10.9334 8.87711C25.2274 -3.38556 39.6141 15.0011 27.3927 27.5344C33.0341 13.9938 22.4307 3.84511 10.9334 8.87711ZM8.54405 20.4011C-2.43261 5.08644 17.0567 -7.73222 28.4761 5.54044C15.5001 -1.24156 4.51672 8.49244 8.54405 20.4011Z" fill="#4C2A93"/>
<path fill-rule="evenodd" clip-rule="evenodd" d="M16 22.0011C17.1867 22.0011 18.3467 21.6492 19.3334 20.9899C20.3201 20.3306 21.0892 19.3936 21.5433 18.2972C21.9974 17.2008 22.1162 15.9944 21.8847 14.8306C21.6532 13.6667 21.0818 12.5976 20.2426 11.7585C19.4035 10.9193 18.3344 10.3479 17.1705 10.1164C16.0067 9.88488 14.8003 10.0037 13.7039 10.4578C12.6075 10.9119 11.6705 11.681 11.0112 12.6677C10.3519 13.6544 10 14.8144 10 16.0011C10.003 17.5915 10.6361 19.1159 11.7607 20.2404C12.8852 21.365 14.4096 21.9981 16 22.0011Z" fill="#F10B7C"/>
</svg>
