<svg width="32" height="32" viewBox="0 0 32 32" fill="none" xmlns="http://www.w3.org/2000/svg">
<path d="M16 4C18.3734 4 20.6935 4.70379 22.6668 6.02236C24.6402 7.34094 26.1783 9.21509 27.0866 11.4078C27.9948 13.6005 28.2324 16.0133 27.7694 18.3411C27.3064 20.6689 26.1635 22.8071 24.4853 24.4853C22.8071 26.1635 20.6689 27.3064 18.3411 27.7694C16.0133 28.2324 13.6005 27.9948 11.4078 27.0866C9.21509 26.1783 7.34094 24.6402 6.02236 22.6668C4.70379 20.6935 4 18.3734 4 16C4.00159 12.8179 5.26638 9.76657 7.51647 7.51647C9.76657 5.26638 12.8179 4.00159 16 4V4Z" fill="#EDC53A"/>
<path d="M16.2 32H0V0H32V32H23.2413L21.108 27.9187L14.2413 14.7813H21.2087L27.9187 27.62V4.082H4.082V27.9187H14.0667L16.2 32ZM22.442 32H17L8 14.7807H13.4427L22.44 32H22.442Z" fill="#2E3390"/>
</svg>
