<svg width="24" height="24" viewBox="0 0 24 24" fill="none" xmlns="http://www.w3.org/2000/svg">
<g clip-path="url(#clip0_22753_49942)">
<path opacity="0.89" fill-rule="evenodd" clip-rule="evenodd" d="M22.4253 9.88221C22.4283 9.85921 22.4253 9.83721 22.4143 9.81721C21.6393 8.87521 20.8643 7.93721 20.0913 7.00321C20.0323 6.93721 19.9743 6.87221 19.9173 6.80721C19.7793 6.62521 19.6333 6.45121 19.4813 6.28421C18.6973 5.33321 17.8833 4.41021 17.0383 3.51421C16.7013 3.15721 16.3893 2.79921 16.0303 2.46221C15.8043 2.23621 15.5633 2.02421 15.3293 1.80521C15.1073 1.59721 14.8933 1.36121 14.6293 1.20721C14.3973 1.07121 14.1403 0.980208 13.8763 0.933208C12.7833 0.740208 11.7163 1.44021 10.7993 1.94321C10.6183 2.03721 10.4443 2.13921 10.2763 2.24821C9.95029 2.42621 9.63029 2.61521 9.31629 2.81521C9.25029 2.84121 9.19229 2.87721 9.14229 2.92421C9.05829 2.97021 8.97829 3.02021 8.90229 3.07721C8.57329 3.27821 8.25329 3.48821 7.94229 3.71021C7.54329 3.99721 7.14329 4.28421 6.74229 4.57221C6.58529 4.69621 6.43329 4.82421 6.28429 4.95421C6.09529 5.09921 5.91429 5.25221 5.73929 5.41221C5.62329 5.49921 5.51429 5.59421 5.41229 5.69621C5.37629 5.71821 5.34729 5.74721 5.32529 5.78321C5.10729 5.97221 4.89629 6.16821 4.69229 6.37221C4.53029 6.54621 4.35929 6.71321 4.17929 6.87421C4.03529 7.04921 3.88629 7.21621 3.73229 7.37621C3.55329 7.56721 3.37829 7.76421 3.20929 7.96521C3.02729 8.16221 2.85229 8.36521 2.68629 8.57621C2.57729 8.70521 2.46829 8.83621 2.35929 8.96921C2.32329 9.01221 2.28729 9.05521 2.25029 9.10021C1.90529 9.50321 1.58529 9.92521 1.29029 10.3652C1.06429 10.7032 0.915292 11.1072 0.901292 11.5222C0.886292 11.9832 1.06029 12.3572 1.29029 12.7432C1.58629 13.3132 1.89829 13.8732 2.22829 14.4222C2.26429 14.4872 2.30829 14.5452 2.35929 14.5962C2.42929 14.7362 2.50529 14.8742 2.58829 15.0102C2.62129 15.0482 2.65429 15.0842 2.68629 15.1192C2.84329 15.4002 3.01829 15.6692 3.20929 15.9262C3.31629 16.1062 3.43329 16.2812 3.55829 16.4492C3.58029 16.4852 3.60929 16.5142 3.64529 16.5362C3.65829 16.5982 3.68729 16.6492 3.73229 16.6892C4.03629 17.1442 4.35629 17.5882 4.69229 18.0192C4.88729 18.3082 5.09829 18.5852 5.32529 18.8482C5.34329 18.8992 5.37229 18.9432 5.41229 18.9792C5.51329 19.1242 5.62229 19.2622 5.73929 19.3932C5.90529 19.6392 6.08729 19.8712 6.28429 20.0912C6.82729 20.7852 7.37929 21.4682 7.94229 22.1412C7.99129 22.2162 8.04629 22.2892 8.10629 22.3592C8.51429 22.8392 9.10829 23.1322 9.74629 23.0462C10.1493 22.9922 10.5603 22.7832 10.8223 22.4682C12.0923 21.2842 13.3773 20.1222 14.6833 18.9782C14.8903 18.8102 15.0943 18.6402 15.2943 18.4652C15.3303 18.4402 15.3523 18.4082 15.3593 18.3672C15.3973 18.3552 15.4343 18.3362 15.4683 18.3122C15.5463 18.2312 15.6263 18.1542 15.7083 18.0832C15.7673 18.0322 15.8253 17.9812 15.8823 17.9302C16.2833 17.6172 16.6683 17.2902 17.0383 16.9492C17.8473 16.2932 18.6543 15.6382 19.4593 14.9862C19.6123 14.8702 19.7643 14.7532 19.9173 14.6372C19.9693 14.5792 20.0273 14.5282 20.0913 14.4842C20.8483 13.8832 21.6193 13.2982 22.4033 12.7282C22.4193 12.7132 22.4273 12.6952 22.4253 12.6732C22.7343 12.4402 22.9423 12.1352 23.0473 11.7572C23.1683 11.0192 22.9613 10.3942 22.4253 9.88121V9.88221ZM16.1433 3.27321C16.1213 3.26621 16.1073 3.25121 16.0993 3.22921C16.1283 3.22921 16.1433 3.24421 16.1433 3.27321ZM18.1713 12.9792C18.1713 12.9942 18.1643 13.0012 18.1493 13.0012C18.1493 12.9862 18.1563 12.9792 18.1713 12.9792C18.3053 12.7492 18.3783 12.4982 18.3893 12.2272C18.3763 12.0542 18.3513 11.8832 18.3133 11.7142C18.2063 11.4692 18.0933 11.2292 17.9753 10.9942C17.8023 10.6122 17.6313 10.2272 17.4623 9.83821C17.1423 9.14121 16.8123 8.45021 16.4703 7.76621C16.4343 7.67921 16.3973 7.59221 16.3613 7.50421C16.2583 7.29821 16.1563 7.09521 16.0563 6.89321C16.0343 6.82021 16.0123 6.74821 15.9913 6.67521C15.9383 6.62021 15.9023 6.55521 15.8823 6.47921C15.9463 6.52821 15.9833 6.59321 15.9913 6.67521C16.2243 7.08221 16.4563 7.48921 16.6893 7.89621C16.7873 8.09321 16.8963 8.28221 17.0163 8.46321C17.0313 8.53621 17.0673 8.59421 17.1253 8.63721C17.1293 8.68221 17.1403 8.72621 17.1583 8.76821C17.6383 9.61121 18.1183 10.4552 18.5983 11.2982C18.6693 11.4462 18.7273 11.5982 18.7723 11.7562C18.8573 12.3052 18.6573 12.7122 18.1723 12.9772L18.1713 12.9792ZM18.2363 14.5932C18.2363 14.6082 18.2293 14.6152 18.2143 14.6152C18.2143 14.6002 18.2213 14.5932 18.2363 14.5932V14.5712C18.2943 14.5782 18.2943 14.5862 18.2363 14.5932ZM18.1493 14.6582C18.1423 14.6872 18.1343 14.6872 18.1273 14.6582H18.1493ZM18.0843 14.7132C18.0633 14.7452 18.0343 14.7632 17.9973 14.7682C18.0133 14.7262 18.0433 14.7072 18.0843 14.7132ZM15.8593 4.53821C15.8773 4.54521 15.8853 4.56021 15.8813 4.58221C15.8633 4.57521 15.8553 4.56021 15.8593 4.53821ZM16.0333 8.00621C16.1153 8.22221 16.2093 8.43321 16.3173 8.63921C16.3443 8.74321 16.3873 8.83721 16.4483 8.92321C16.8713 9.90121 17.3183 10.8682 17.7893 11.8242C17.9643 12.3852 17.7933 12.8002 17.2763 13.0672C17.2763 13.0822 17.2693 13.0892 17.2543 13.0892C17.2543 13.1042 17.2473 13.1112 17.2323 13.1112C17.2323 13.0962 17.2393 13.0892 17.2543 13.0892C17.2543 13.0742 17.2613 13.0672 17.2763 13.0672C17.4283 12.6672 17.4463 12.2602 17.3313 11.8462C17.2333 11.6132 17.1423 11.3812 17.0583 11.1482C16.6503 9.98821 16.2503 8.82521 15.8583 7.65821C15.9283 7.76921 15.9863 7.88521 16.0323 8.00721L16.0333 8.00621ZM15.8153 3.67721C15.7723 3.68821 15.7503 3.67021 15.7503 3.62221C15.7753 3.63621 15.7963 3.65421 15.8153 3.67721ZM15.6413 8.57421C15.6613 8.59721 15.6693 8.62621 15.6633 8.66121C15.6433 8.63821 15.6353 8.60921 15.6413 8.57421C15.6213 8.55921 15.6143 8.53721 15.6193 8.50921C15.6393 8.52421 15.6463 8.54621 15.6413 8.57421ZM14.2783 4.69221C14.0293 4.64221 13.7783 4.63521 13.5263 4.67021C13.3233 4.71121 13.1263 4.76921 12.9373 4.84421H12.8723C12.8133 4.85421 12.7543 4.86921 12.6983 4.88821C12.5873 4.92021 12.4783 4.95621 12.3713 4.99721C12.0563 5.07521 11.7433 5.16321 11.4333 5.25921C11.3703 5.27321 11.3123 5.29521 11.2593 5.32421C11.0383 5.37321 10.8203 5.42821 10.6053 5.48821C10.8703 5.37721 11.1323 5.26421 11.3903 5.15021C11.4613 5.12921 11.5263 5.10021 11.5863 5.06321C11.9503 4.93221 12.3143 4.80121 12.6773 4.67021C12.8043 4.63521 12.9273 4.59121 13.0483 4.53921C13.1253 4.53121 13.1983 4.50921 13.2663 4.47421C13.2903 4.47321 13.3123 4.46521 13.3313 4.45221C13.5383 4.38621 13.7493 4.37121 13.9643 4.40821C14.0933 4.46421 14.2063 4.54421 14.3023 4.64821C14.3153 4.66921 14.3083 4.68421 14.2803 4.69221H14.2783ZM13.9623 4.01621C13.7493 4.00621 13.5383 4.02121 13.3293 4.06021C13.3033 4.07621 13.2743 4.08321 13.2423 4.08221C13.1753 4.11121 13.1103 4.14121 13.0463 4.16921C12.9113 4.20021 12.7803 4.24321 12.6533 4.30021C12.2883 4.42721 11.9243 4.55721 11.5623 4.69321C11.4933 4.71721 11.4273 4.74621 11.3663 4.78021C11.0643 4.89321 10.7663 5.01721 10.4723 5.15121C10.3743 5.18221 10.2803 5.21821 10.1883 5.26021C10.1543 5.28421 10.1183 5.29521 10.0793 5.29321C10.1173 5.26721 10.1533 5.24221 10.1883 5.21721C10.3063 5.18421 10.4153 5.13321 10.5153 5.06421C10.8493 4.90421 11.1833 4.74421 11.5183 4.58421C11.5963 4.55621 11.6693 4.51921 11.7363 4.47521C12.1533 4.29721 12.5683 4.11621 12.9793 3.93021C13.1303 3.87521 13.2833 3.82421 13.4373 3.77721C13.5033 3.77321 13.5683 3.76521 13.6333 3.75521H13.7423C13.9553 3.78521 14.1233 3.88721 14.2443 4.06021C14.1533 4.02621 14.0583 4.01121 13.9603 4.01621H13.9623ZM10.4723 5.54321C10.4493 5.52821 10.4563 5.52021 10.4943 5.52121C10.5173 5.53621 10.5103 5.54421 10.4723 5.54321ZM14.1803 2.90421C14.1733 2.93321 14.1653 2.93321 14.1583 2.90421H14.1803ZM14.1253 3.44921C14.0013 3.40721 13.8743 3.38521 13.7433 3.38421H13.6343C13.5653 3.39521 13.5003 3.40921 13.4383 3.42821C13.2683 3.45521 13.1083 3.50621 12.9583 3.58121C12.5463 3.74921 12.1393 3.92421 11.7373 4.10421C11.6593 4.13921 11.5793 4.16821 11.4973 4.19121C11.1643 4.34321 10.8293 4.49621 10.4943 4.64921C10.3823 4.69421 10.2733 4.74521 10.1673 4.80221C9.95229 4.90621 9.74129 5.01521 9.53429 5.12921C9.49829 5.13221 9.46929 5.14721 9.44729 5.17321C9.39929 5.17521 9.35529 5.19021 9.31629 5.21721C9.29429 5.22421 9.28029 5.23921 9.27229 5.26121C9.20429 5.28421 9.13929 5.31321 9.07629 5.34821C9.06929 5.34421 9.06129 5.34121 9.05429 5.33721C9.08929 5.31621 9.11829 5.29121 9.14129 5.26121C9.20629 5.23221 9.27229 5.20321 9.33729 5.17421C9.36729 5.15221 9.39629 5.13021 9.42429 5.10921C9.66429 4.97821 9.90429 4.84721 10.1443 4.71621C10.2783 4.66721 10.4023 4.60221 10.5153 4.52021C10.8953 4.33021 11.2733 4.14121 11.6493 3.95321C11.7333 3.92221 11.8133 3.88521 11.8893 3.84421C12.3453 3.64121 12.8033 3.44521 13.2633 3.25521C13.4313 3.22621 13.5983 3.21821 13.7653 3.23321C13.8563 3.22121 13.9363 3.24321 14.0053 3.29821C14.0373 3.33221 14.0733 3.36121 14.1143 3.38521C14.1243 3.40621 14.1383 3.42421 14.1583 3.44021C14.1473 3.44421 14.1363 3.44721 14.1253 3.45121V3.44921ZM14.0053 2.86021C13.9323 2.85721 13.8593 2.85021 13.7873 2.83821C13.6023 2.83221 13.4213 2.84621 13.2423 2.88221C13.0713 2.92621 12.9043 2.98021 12.7403 3.04621C12.4533 3.17921 12.1693 3.31421 11.8893 3.44921C11.7983 3.48921 11.7113 3.53221 11.6273 3.58021C11.2433 3.75821 10.8653 3.94721 10.4933 4.14721C10.3663 4.20721 10.2423 4.27221 10.1223 4.34321C9.88229 4.45621 9.65029 4.57921 9.42429 4.71421C9.38329 4.73121 9.34729 4.75221 9.31529 4.77921C9.25129 4.82021 9.18529 4.85621 9.11929 4.88821C8.90529 5.00421 8.69429 5.12421 8.48629 5.24821C8.46729 5.26321 8.45229 5.28221 8.44229 5.30321C8.23429 5.40621 8.03429 5.52221 7.84229 5.65221C7.80429 5.65021 7.80129 5.63921 7.83129 5.61921C8.00129 5.51721 8.16129 5.40421 8.31129 5.28121C8.57229 5.12121 8.83429 4.96121 9.09629 4.80121C9.15829 4.75221 9.22429 4.70821 9.29229 4.67021C9.34429 4.65121 9.38829 4.62221 9.42329 4.58321C9.68029 4.44321 9.93529 4.29821 10.1863 4.14721C10.3243 4.07821 10.4553 3.99821 10.5793 3.90721C10.9323 3.71821 11.2883 3.53221 11.6483 3.35121C11.7113 3.31621 11.7703 3.27621 11.8223 3.23121C11.9253 3.20521 12.0193 3.16121 12.1063 3.10021C12.4173 2.94121 12.7373 2.79921 13.0663 2.67521C13.2433 2.61621 13.4253 2.59121 13.6113 2.59921C13.7503 2.63021 13.8803 2.68421 14.0043 2.76321C14.0523 2.80721 14.0963 2.85521 14.1353 2.90521C14.0903 2.89521 14.0463 2.88021 14.0043 2.86121L14.0053 2.86021ZM9.01029 5.36821C8.98829 5.39421 8.95929 5.40821 8.92329 5.41221C8.91329 5.44321 8.89129 5.45721 8.85829 5.45621C8.86829 5.42521 8.89029 5.41121 8.92329 5.41221C8.94029 5.37721 8.96929 5.36221 9.01029 5.36821ZM8.57429 5.60821C8.57429 5.62321 8.56729 5.63021 8.55229 5.63021C8.55229 5.61521 8.55929 5.60821 8.57429 5.60821ZM7.41829 5.49921C7.38229 5.53921 7.33829 5.56821 7.28729 5.58621C7.27529 5.62821 7.24629 5.65021 7.20029 5.65121C7.22029 5.61921 7.25029 5.59721 7.28729 5.58621C7.31529 5.53521 7.35929 5.50621 7.41829 5.49921C7.45029 5.45621 7.48629 5.41621 7.52729 5.37921C7.74629 5.24021 7.95729 5.09121 8.16029 4.93221C8.44329 4.75121 8.71929 4.56221 8.98929 4.36521C9.07529 4.32321 9.15529 4.27221 9.22929 4.21221C9.27629 4.20721 9.31329 4.18521 9.33829 4.14721C9.62929 3.97221 9.92029 3.79821 10.2103 3.62421C10.3543 3.55221 10.4923 3.47221 10.6243 3.38421C11.0793 3.13121 11.5373 2.88421 11.9983 2.64221C12.1053 2.59921 12.2063 2.54821 12.3033 2.48921C12.4553 2.43521 12.6013 2.36621 12.7393 2.28221C12.9063 2.23121 13.0733 2.18021 13.2413 2.12921C13.4763 2.07421 13.7013 2.09921 13.9173 2.20521C13.9913 2.24621 14.0563 2.30121 14.1133 2.36921C13.9583 2.32621 13.7983 2.30021 13.6333 2.29321C13.3973 2.30021 13.1643 2.33321 12.9353 2.39121C12.6443 2.49121 12.3673 2.61921 12.1063 2.77321C12.0033 2.82421 11.9013 2.87521 11.8013 2.92621C11.3803 3.12221 10.9733 3.34021 10.5803 3.58021C10.4743 3.63821 10.3653 3.69321 10.2533 3.74421C10.2183 3.76521 10.1893 3.79021 10.1663 3.82021C9.89629 3.94121 9.64229 4.08721 9.40329 4.25621C9.35229 4.27421 9.30829 4.30321 9.27229 4.34321C9.19729 4.36221 9.13129 4.39921 9.07629 4.45221C8.80629 4.60121 8.54429 4.76121 8.29129 4.93221C8.00029 5.12121 7.70929 5.31021 7.41929 5.49921H7.41829ZM7.74529 5.70621C7.72929 5.72921 7.70729 5.74021 7.68029 5.73921C7.69129 5.70421 7.71329 5.69421 7.74529 5.70621ZM7.15629 5.23721C7.16329 5.20321 7.18529 5.18921 7.22129 5.19321C7.20429 5.21321 7.18229 5.22721 7.15629 5.23721ZM7.30929 5.12821C7.34229 5.06621 7.39229 5.03021 7.46229 5.01921C7.41729 5.06421 7.36629 5.10021 7.30929 5.12821ZM7.48329 4.99721C7.53329 4.94321 7.59129 4.89921 7.65729 4.86621C7.69329 4.82621 7.73729 4.79721 7.78829 4.77921C7.80529 4.74121 7.83429 4.71921 7.87529 4.71421C7.88529 4.68321 7.90729 4.66921 7.94029 4.67021C7.97729 4.61921 8.02129 4.57521 8.07129 4.53921C8.34229 4.34921 8.61929 4.16321 8.90029 3.98321C8.92629 3.96021 8.94829 3.93521 8.96529 3.90721C9.06329 3.88221 9.14329 3.83121 9.20529 3.75421C9.25929 3.73021 9.31029 3.70121 9.35829 3.66721C9.66129 3.47621 9.95929 3.28021 10.2523 3.07821C10.4203 2.99421 10.5803 2.90021 10.7323 2.79421C11.2263 2.53321 11.7203 2.27121 12.2153 2.00921C12.3223 1.95921 12.4313 1.91621 12.5423 1.87821C12.8363 1.74921 13.1453 1.66921 13.4693 1.63821C13.6453 1.66721 13.8163 1.71421 13.9823 1.78021C14.0013 1.79521 14.0163 1.81421 14.0263 1.83521C14.0483 1.83121 14.0623 1.83921 14.0703 1.85721C14.0483 1.86121 14.0343 1.85321 14.0263 1.83521H13.9393C13.8183 1.80521 13.6953 1.79121 13.5683 1.79121C13.1083 1.81421 12.6793 1.93721 12.2813 2.16221C12.1673 2.19021 12.0653 2.24121 11.9763 2.31521C11.5123 2.53221 11.0613 2.77221 10.6243 3.03521C10.4683 3.09721 10.3223 3.17721 10.1883 3.27521C9.89029 3.43921 9.59929 3.61321 9.31629 3.79821C9.27429 3.81121 9.23729 3.83321 9.20729 3.86321C9.12229 3.90521 9.04229 3.95621 8.96729 4.01621C8.68329 4.18721 8.40729 4.36921 8.13829 4.56121C8.07529 4.60321 8.01029 4.63921 7.94229 4.67021C7.93229 4.70121 7.91029 4.71521 7.87729 4.71421C7.86029 4.75221 7.83129 4.77421 7.79029 4.77921C7.76229 4.83021 7.71829 4.85921 7.65929 4.86621C7.61729 4.93121 7.55829 4.97421 7.48529 4.99721H7.48329ZM5.84729 5.80421C5.84729 5.81921 5.84029 5.82621 5.82529 5.82621C5.82529 5.81121 5.83229 5.80421 5.84729 5.80421ZM5.78229 5.84821C5.77529 5.87721 5.76729 5.87721 5.76029 5.84821H5.78229ZM5.73829 5.89221C5.72329 5.91421 5.70929 5.93621 5.69429 5.95721H5.67229C5.67229 5.91321 5.69429 5.89221 5.73729 5.89221H5.73829ZM5.38929 6.19721C5.38929 6.18221 5.39629 6.17521 5.41129 6.17521C5.41129 6.19021 5.40429 6.19721 5.38929 6.19721C5.38929 6.21221 5.38229 6.21921 5.36729 6.21921C5.36729 6.20421 5.37429 6.19721 5.38929 6.19721ZM5.31329 8.46521C5.40129 8.27321 5.52129 8.10621 5.67329 7.96321C5.69529 7.95621 5.70929 7.94121 5.71729 7.91921H5.73929C5.71429 7.95921 5.70029 8.00221 5.69529 8.05021C5.66529 8.11121 5.64329 8.17621 5.63029 8.24621V8.92221C5.64329 9.15921 5.66529 9.39121 5.69529 9.62021C5.72829 10.0272 5.76529 10.4352 5.80429 10.8412C5.85729 11.2412 5.90829 11.6412 5.95729 12.0412C5.93929 12.0082 5.92529 11.9712 5.91329 11.9322C5.86429 11.6712 5.79929 11.4172 5.71729 11.1692C5.70629 11.0882 5.69129 11.0082 5.67329 10.9292C5.51129 10.2142 5.37229 9.49421 5.25929 8.77021C5.26329 8.66621 5.28129 8.56421 5.31429 8.46521H5.31329ZM4.88829 8.53021C4.88829 8.51521 4.89529 8.50821 4.91029 8.50821C4.91029 8.52321 4.90329 8.53021 4.88829 8.53021C4.88129 8.58821 4.87329 8.64621 4.86629 8.70421C4.83829 8.84221 4.83829 8.98021 4.86629 9.11821C4.93729 9.49721 5.00929 9.87521 5.08429 10.2522C5.23229 11.0602 5.41429 11.8592 5.62929 12.6512C5.64229 12.7082 5.64929 12.7662 5.65129 12.8252C5.66929 12.8322 5.67729 12.8472 5.67329 12.8692V12.8912C5.69329 12.9142 5.70129 12.9432 5.69529 12.9782C5.71529 12.9932 5.72229 13.0152 5.71729 13.0432C5.69729 13.0282 5.69029 13.0062 5.69529 12.9782C5.67529 12.9552 5.66729 12.9262 5.67329 12.8912H5.65129V12.8262C5.54229 12.5352 5.43329 12.2442 5.32429 11.9542C5.24429 11.7192 5.16429 11.4872 5.08429 11.2562C5.07029 11.1932 5.04829 11.1352 5.01929 11.0822C4.92929 10.7412 4.82729 10.4032 4.71429 10.0682C4.72129 10.0612 4.72929 10.0532 4.73629 10.0462C4.65729 9.81221 4.59929 9.57221 4.56229 9.32621C4.58529 9.02221 4.69429 8.75721 4.88929 8.53021H4.88829ZM4.21229 8.79221C4.21229 8.80721 4.20529 8.81421 4.19029 8.81421C4.19029 8.79921 4.19729 8.79221 4.21229 8.79221ZM4.19029 8.83621C4.17329 8.89321 4.16629 8.95121 4.16829 9.01021C4.11129 9.21421 4.11129 9.41721 4.16829 9.62121C4.16429 9.67221 4.16829 9.72321 4.17929 9.77421C4.25529 10.0072 4.32429 10.2402 4.38629 10.4722C4.56029 11.1312 4.76329 11.7782 4.99729 12.4132C5.00729 12.4722 5.02229 12.5312 5.04129 12.5872C5.11829 12.7992 5.19829 13.0102 5.28129 13.2202C5.39029 13.5262 5.49929 13.8312 5.60829 14.1362C5.66629 14.2962 5.72429 14.4562 5.78229 14.6162C5.80229 14.6312 5.80929 14.6532 5.80429 14.6812C5.78429 14.6662 5.77729 14.6442 5.78229 14.6162C5.66729 14.3942 5.55829 14.1692 5.45529 13.9402C5.45029 13.8932 5.42829 13.8562 5.39029 13.8312C5.38029 13.7672 5.35829 13.7092 5.32529 13.6572C5.24629 13.4562 5.15929 13.2602 5.06329 13.0682C4.94829 12.7722 4.82429 12.4812 4.69229 12.1962C4.62429 11.9912 4.55129 11.7882 4.47429 11.5852C4.44529 11.5202 4.41629 11.4542 4.38729 11.3892C4.18229 10.8772 3.98929 10.3612 3.80929 9.84021C3.77229 9.44121 3.90029 9.10721 4.19129 8.83721L4.19029 8.83621ZM3.49229 9.16321C3.49229 9.14821 3.49929 9.14121 3.51429 9.14121C3.51429 9.15621 3.50729 9.16321 3.49229 9.16321V9.20721C3.41429 9.36321 3.37829 9.53021 3.38329 9.70921C3.37529 9.86821 3.41229 10.0132 3.49229 10.1452C3.52029 10.3182 3.57929 10.4782 3.66629 10.6252C3.66329 10.6622 3.66629 10.6982 3.67729 10.7342C3.88929 11.3002 4.11029 11.8602 4.34229 12.4132C4.35429 12.4872 4.38329 12.5532 4.42929 12.6092C4.49829 12.8192 4.57829 13.0222 4.66929 13.2202C4.77729 13.5072 4.89329 13.7912 5.01829 14.0712C5.10929 14.2712 5.20329 14.4672 5.30229 14.6602C5.31029 14.7132 5.32529 14.7642 5.34629 14.8132C5.36829 14.8572 5.39029 14.9002 5.41129 14.9442C5.55429 15.2302 5.68529 15.5212 5.80429 15.8162C5.82229 15.8232 5.83029 15.8382 5.82629 15.8602C5.84429 15.8672 5.85229 15.8822 5.84829 15.9042C5.86629 15.9112 5.87429 15.9262 5.87029 15.9482C5.88829 15.9552 5.89629 15.9702 5.89229 15.9922C5.87429 15.9852 5.86629 15.9702 5.87029 15.9482C5.85229 15.9412 5.84429 15.9262 5.84829 15.9042C5.83029 15.8972 5.82229 15.8822 5.82629 15.8602C5.80829 15.8532 5.80029 15.8382 5.80429 15.8162H5.78229C5.53229 15.3532 5.27829 14.8952 5.01929 14.4422C5.01429 14.3822 4.99329 14.3312 4.95429 14.2892C4.94129 14.2272 4.91229 14.1762 4.86729 14.1362C4.78529 13.9512 4.69829 13.7692 4.60529 13.5912C4.46129 13.3102 4.32329 13.0272 4.19129 12.7402C4.10429 12.5512 4.01629 12.3622 3.92929 12.1732C3.91229 12.1322 3.89129 12.0962 3.86429 12.0642C3.65229 11.5762 3.43729 11.0892 3.22129 10.6032C3.15529 10.4542 3.11629 10.2972 3.10129 10.1342C3.12529 9.76421 3.25629 9.44021 3.49429 9.16321H3.49229ZM5.79329 16.8402C5.77029 16.8242 5.75929 16.8022 5.76029 16.7752C5.79529 16.7862 5.80529 16.8082 5.79329 16.8402ZM2.44529 10.4932C2.50629 10.1592 2.64529 9.86121 2.85929 9.59921C2.84029 9.69521 2.81829 9.78921 2.79429 9.88321C2.70929 10.1162 2.70929 10.3492 2.79429 10.5812C2.85829 10.8112 2.94629 11.0292 3.05629 11.2352C3.21229 11.6052 3.36829 11.9762 3.52529 12.3472C3.61829 12.5582 3.72329 12.7622 3.84129 12.9582C3.83629 13.0102 3.85029 13.0542 3.88529 13.0892C3.95629 13.2902 4.05129 13.4792 4.16929 13.6562C4.28429 13.9592 4.42229 14.2492 4.58329 14.5282C4.65429 14.7062 4.74129 14.8732 4.84529 15.0302C4.85129 15.1012 4.88029 15.1592 4.93229 15.2042C4.95429 15.2492 4.97629 15.2932 4.99729 15.3352C5.21729 15.7672 5.44229 16.1962 5.67329 16.6222C5.69129 16.6292 5.69929 16.6442 5.69529 16.6662C5.67729 16.6592 5.66929 16.6442 5.67329 16.6222C5.56629 16.4732 5.46429 16.3202 5.36829 16.1642C5.10029 15.6932 4.82429 15.2282 4.53929 14.7682C4.52829 14.7172 4.50629 14.6742 4.47429 14.6372C4.45529 14.5852 4.42629 14.5412 4.38729 14.5062C4.30129 14.3132 4.20029 14.1312 4.08229 13.9612C3.94429 13.7002 3.80629 13.4382 3.66829 13.1762C3.56429 12.9752 3.45529 12.7792 3.34129 12.5872C3.32429 12.5462 3.30329 12.5102 3.27629 12.4782C3.04129 12.0222 2.80429 11.5642 2.56729 11.1042C2.52829 10.9992 2.48929 10.8972 2.44729 10.7992V10.4942L2.44529 10.4932ZM2.18329 10.1442C2.18329 10.1592 2.17629 10.1662 2.16129 10.1662C2.16129 10.1512 2.16829 10.1442 2.18329 10.1442ZM5.43329 18.2362C5.40929 18.1952 5.38029 18.1582 5.34629 18.1272C5.16529 17.8842 4.98729 17.6362 4.81229 17.3852C4.78329 17.3482 4.75129 17.3192 4.71429 17.2982C4.69929 17.2422 4.67429 17.1912 4.63829 17.1452C4.33829 16.7402 4.04329 16.3332 3.75529 15.9242C3.72629 15.8802 3.69729 15.8362 3.66829 15.7932C3.65429 15.7442 3.62529 15.7072 3.58129 15.6842C3.47329 15.5032 3.35629 15.3292 3.23229 15.1612C3.06529 14.8782 2.89129 14.6022 2.70929 14.3322C2.60829 14.1522 2.49929 13.9772 2.38229 13.8092C2.36329 13.7392 2.32629 13.6812 2.27329 13.6352C1.94729 13.0632 1.62729 12.4892 1.31329 11.9122C1.19729 11.5992 1.19729 11.2872 1.31329 10.9742C1.36929 10.8612 1.42429 10.7452 1.47729 10.6252C1.54129 10.5182 1.61029 10.4162 1.68429 10.3202C1.68029 10.2982 1.68829 10.2842 1.70629 10.2762C1.71029 10.2982 1.70229 10.3122 1.68429 10.3202C1.62729 10.4562 1.57629 10.5942 1.53129 10.7342C1.44429 11.0322 1.44429 11.3302 1.53129 11.6282C1.54529 11.7112 1.57129 11.7912 1.60729 11.8682C1.69729 12.0262 1.78029 12.1862 1.85829 12.3482C2.15029 12.8962 2.44829 13.4412 2.75229 13.9842C2.78229 14.0212 2.81129 14.0572 2.83929 14.0932C2.93829 14.2892 3.04729 14.4782 3.16629 14.6602C3.31629 14.9482 3.48329 15.2242 3.66829 15.4892C3.77729 15.6652 3.88629 15.8392 3.99529 16.0122C4.00829 16.0542 4.03029 16.0912 4.06029 16.1212C4.08129 16.1642 4.11129 16.2012 4.14729 16.2302C4.42329 16.6962 4.72229 17.1472 5.04129 17.5822C5.17729 17.7882 5.31929 17.9922 5.46629 18.1932C5.47729 18.2142 5.48029 18.2352 5.47729 18.2582C5.46229 18.2512 5.44829 18.2432 5.43329 18.2362ZM5.49829 18.2802C5.53929 18.3122 5.57629 18.3482 5.60729 18.3892C5.60829 18.4132 5.61629 18.4352 5.62929 18.4542C5.56229 18.4152 5.51829 18.3572 5.49829 18.2802ZM5.69429 18.5642C5.67629 18.5572 5.66829 18.5422 5.67229 18.5202H5.69429V18.5642ZM5.75929 18.6512V18.6292C5.77429 18.6292 5.78129 18.6362 5.78129 18.6512H5.75929ZM5.95529 18.0402C5.91729 18.0232 5.89529 17.9942 5.89029 17.9532C5.85629 17.9462 5.84229 17.9242 5.84629 17.8882C5.81029 17.8382 5.76729 17.7942 5.71529 17.7572C5.69729 17.7062 5.66829 17.6622 5.62829 17.6262C5.44329 17.3472 5.25429 17.0712 5.06129 16.7972C4.76329 16.3462 4.46529 15.8952 4.16729 15.4452C4.15929 15.3862 4.13029 15.3432 4.08029 15.3142C4.06729 15.2722 4.04529 15.2352 4.01529 15.2052C3.91429 15.0252 3.80529 14.8512 3.68829 14.6822C3.52029 14.4052 3.35329 14.1292 3.18629 13.8532C3.09029 13.6682 2.98829 13.4872 2.88129 13.3082C2.86729 13.2592 2.83829 13.2222 2.79429 13.1992C2.49029 12.6432 2.19229 12.0832 1.90029 11.5202C1.84329 11.2802 1.84329 11.0402 1.90029 10.8002C1.97429 10.6242 2.04629 10.4492 2.11829 10.2772C2.11429 10.2552 2.12229 10.2412 2.14029 10.2332C2.13629 10.2112 2.14429 10.1972 2.16229 10.1892C2.16629 10.2112 2.15829 10.2252 2.14029 10.2332C2.14429 10.2552 2.13629 10.2692 2.11829 10.2772C2.11829 10.3222 2.11029 10.3662 2.09629 10.4082C2.03929 10.6192 2.03929 10.8302 2.09629 11.0412C2.18729 11.2842 2.29629 11.5172 2.42329 11.7392C2.67729 12.3052 2.95329 12.8582 3.25229 13.3972C3.26529 13.4392 3.28729 13.4762 3.31729 13.5062C3.33229 13.5752 3.35729 13.6412 3.39329 13.7022C3.46829 13.8292 3.54429 13.9532 3.62229 14.0732C3.64029 14.1232 3.65829 14.1742 3.67729 14.2262C3.79929 14.4482 3.92629 14.6662 4.05929 14.8802C4.15029 15.0622 4.25229 15.2362 4.36429 15.4032C4.37229 15.4622 4.40129 15.5052 4.45129 15.5342C4.46229 15.5852 4.48429 15.6282 4.51629 15.6652C4.77429 16.1342 5.05129 16.5922 5.34529 17.0392C5.51829 17.3192 5.68529 17.6022 5.84729 17.8902C5.86229 17.8972 5.87629 17.9052 5.89129 17.9122V17.9562C5.92029 17.9712 5.94229 17.9922 5.95629 18.0212V18.0432L5.95529 18.0402ZM5.93329 16.0552C5.91529 16.0482 5.90729 16.0332 5.91129 16.0112C5.92929 16.0182 5.93729 16.0332 5.93329 16.0552C5.95129 16.0622 5.95929 16.0772 5.95529 16.0992C5.93729 16.0922 5.92929 16.0772 5.93329 16.0552ZM5.95529 12.0642C5.97329 12.0712 5.98129 12.0862 5.97729 12.1082C5.95929 12.1012 5.95129 12.0862 5.95529 12.0642ZM5.99929 5.69521H5.97729C5.97729 5.68021 5.98429 5.67321 5.99929 5.67321C5.99729 5.65121 6.00429 5.63321 6.02129 5.61821C6.07029 5.58021 6.12129 5.54721 6.17429 5.52021C6.21829 5.46921 6.26129 5.41821 6.30529 5.36721C6.84929 4.92821 7.40129 4.49921 7.96329 4.08021C8.28429 3.85421 8.60429 3.62921 8.92329 3.40421C9.01529 3.36321 9.09529 3.30421 9.16329 3.23021C9.24229 3.22721 9.30129 3.19021 9.33729 3.12121C9.65729 2.92521 9.97629 2.72921 10.2973 2.53221C10.4793 2.44121 10.6543 2.33921 10.8203 2.22721C11.3333 1.92721 11.8563 1.65121 12.3903 1.39821C12.5063 1.36221 12.6223 1.32521 12.7393 1.28921C13.0413 1.22921 13.3463 1.21121 13.6553 1.23421C13.8233 1.24221 13.9763 1.29221 14.1133 1.38721C13.8243 1.35521 13.5333 1.34821 13.2413 1.36521C12.9893 1.38321 12.7493 1.44421 12.5213 1.55021C12.4023 1.58421 12.2933 1.63521 12.1943 1.70321C11.6893 1.92121 11.2023 2.16821 10.7333 2.44521C10.5643 2.52921 10.4043 2.62421 10.2533 2.72921C9.94229 2.90921 9.63729 3.09821 9.33729 3.29621C9.28129 3.32721 9.23129 3.36421 9.18429 3.40521C9.10829 3.46121 9.02829 3.51221 8.94429 3.55821C8.64229 3.75621 8.34429 3.96021 8.05029 4.16921C7.69829 4.40821 7.34929 4.65121 7.00329 4.90021C6.82329 5.03721 6.64929 5.17921 6.48029 5.32521C6.37829 5.39021 6.27629 5.45621 6.17529 5.52121C6.13029 5.58821 6.07229 5.63821 6.00129 5.67421V5.69621L5.99929 5.69521ZM7.04629 5.32421C7.06329 5.28621 7.09229 5.26421 7.13329 5.25921C7.11629 5.29721 7.08729 5.31921 7.04629 5.32421ZM7.11129 5.71721C7.10129 5.74821 7.07929 5.76221 7.04629 5.76121C7.05629 5.73021 7.07829 5.71621 7.11129 5.71721ZM7.00229 5.82621H6.98029C6.98729 5.79721 6.99529 5.79721 7.00229 5.82621ZM6.83829 5.49921C6.85829 5.44721 6.89829 5.41021 6.95829 5.39021C6.92929 5.43721 6.88929 5.47421 6.83829 5.49921ZM6.91429 5.84821C6.91429 5.86321 6.90729 5.87021 6.89229 5.87021C6.89229 5.88521 6.88529 5.89221 6.87029 5.89221C6.87029 5.90721 6.86329 5.91421 6.84829 5.91421C6.84829 5.89921 6.85529 5.89221 6.87029 5.89221C6.87029 5.87721 6.87729 5.87021 6.89229 5.87021C6.89229 5.85521 6.89929 5.84821 6.91429 5.84821ZM6.78329 5.53221C6.76229 5.56421 6.73329 5.58221 6.69629 5.58721V5.60921H6.67429C6.67429 5.62421 6.66729 5.63121 6.65229 5.63121C6.65229 5.64621 6.64529 5.65321 6.63029 5.65321C6.63029 5.66821 6.62329 5.67521 6.60829 5.67521C6.60829 5.66021 6.61529 5.65321 6.63029 5.65321C6.63029 5.63821 6.63729 5.63121 6.65229 5.63121C6.65229 5.61621 6.65929 5.60921 6.67429 5.60921C6.67429 5.59421 6.68129 5.58721 6.69629 5.58721C6.71229 5.54521 6.74229 5.52621 6.78329 5.53221ZM6.58729 5.67421C6.58729 5.68921 6.58029 5.69621 6.56529 5.69621C6.56529 5.68121 6.57229 5.67421 6.58729 5.67421ZM6.23829 5.97921H6.21629C6.22329 5.95021 6.23129 5.95021 6.23829 5.97921ZM6.15129 6.02321C6.15129 6.03821 6.14429 6.04521 6.12929 6.04521C6.12929 6.06021 6.12229 6.06721 6.10729 6.06721C6.10729 6.08221 6.10029 6.08921 6.08529 6.08921C6.08529 6.10421 6.07829 6.11121 6.06329 6.11121C6.06329 6.12621 6.05629 6.13321 6.04129 6.13321C6.04129 6.11821 6.04829 6.11121 6.06329 6.11121C6.06329 6.09621 6.07029 6.08921 6.08529 6.08921C6.08529 6.07421 6.09229 6.06721 6.10729 6.06721C6.10729 6.05221 6.11429 6.04521 6.12929 6.04521C6.12929 6.03021 6.13629 6.02321 6.15129 6.02321ZM6.04229 18.1722H6.02029C6.02729 18.1432 6.03529 18.1432 6.04229 18.1722C6.06029 18.1792 6.06829 18.1942 6.06429 18.2162C6.04629 18.2092 6.03829 18.1942 6.04229 18.1722ZM7.00229 15.2492C6.98629 15.2232 6.97929 15.1942 6.98029 15.1622C6.89129 14.8782 6.83329 14.5872 6.80629 14.2902C6.70529 13.8132 6.61729 13.3332 6.54429 12.8502C6.50429 12.4812 6.44629 12.1172 6.37029 11.7592C6.37129 11.6592 6.35729 11.5652 6.32629 11.4752C6.21329 10.4922 6.11929 9.50721 6.04229 8.52021C6.07329 8.24321 6.16829 7.99221 6.32629 7.76821C6.34829 7.76121 6.36229 7.74621 6.37029 7.72421C6.42829 7.68021 6.47929 7.62921 6.52329 7.57121C6.61729 7.52121 6.70429 7.46321 6.78529 7.39721C6.83829 7.36321 6.89629 7.34221 6.95929 7.33221C6.97429 7.33221 6.98129 7.32521 6.98129 7.31021C7.00929 7.31521 7.03129 7.30821 7.04629 7.28821C7.20229 7.22621 7.35529 7.16121 7.50429 7.09221C7.60629 7.05521 7.70829 7.01921 7.80929 6.98321C7.82429 6.97621 7.83829 6.96821 7.85329 6.96121C7.91829 6.94321 7.97629 6.91421 8.02729 6.87421C8.11529 6.86221 8.19529 6.83321 8.26729 6.78721C8.55029 6.68921 8.82729 6.58021 9.09629 6.46021C9.25129 6.40121 9.40329 6.34321 9.55429 6.28621C9.58229 6.29121 9.60429 6.28421 9.61929 6.26421C9.64329 6.26321 9.66529 6.25521 9.68429 6.24221C9.71729 6.23121 9.74629 6.21721 9.77129 6.19821C9.92329 6.16421 10.0683 6.11421 10.2073 6.04521C10.3073 6.03221 10.4013 6.00321 10.4913 5.95821C10.7493 5.87921 11.0033 5.79221 11.2543 5.69621C11.3163 5.69521 11.3743 5.68021 11.4283 5.65221C11.7453 5.56421 12.0573 5.47021 12.3663 5.36821C12.4853 5.36021 12.6013 5.33821 12.7153 5.30321C12.7753 5.28121 12.8333 5.25921 12.8893 5.23821C12.9173 5.24321 12.9393 5.23621 12.9543 5.21621C13.1473 5.18621 13.3363 5.14221 13.5213 5.08521C13.6723 5.04921 13.8243 5.03821 13.9793 5.05221C14.1863 5.08421 14.3423 5.19021 14.4483 5.36821C14.5283 5.75221 14.6043 6.13821 14.6773 6.52421C14.6953 6.65321 14.7243 6.77621 14.7643 6.89521C14.8013 7.11721 14.8443 7.33521 14.8953 7.54921C14.9083 7.67921 14.9373 7.80221 14.9823 7.92021C14.9953 8.04421 15.0133 8.16821 15.0373 8.29121C15.2383 9.18721 15.4383 10.0782 15.6373 10.9632C15.7723 11.4892 15.8883 12.0202 15.9863 12.5552C15.9763 12.7722 15.9153 12.9722 15.8013 13.1552C15.5783 13.3882 15.3063 13.5262 14.9833 13.5692C14.9503 13.5802 14.9213 13.5942 14.8963 13.6132C14.8463 13.6152 14.8033 13.6302 14.7653 13.6572H14.7213C14.4313 13.7332 14.1403 13.8102 13.8493 13.8862C13.7353 13.9202 13.6263 13.9602 13.5223 14.0062C13.3243 14.0312 13.1353 14.0822 12.9553 14.1592C12.9233 14.1582 12.8943 14.1652 12.8683 14.1812H12.7813C12.7663 14.1812 12.7593 14.1882 12.7593 14.2032C12.7313 14.1982 12.7093 14.2052 12.6943 14.2252C12.5763 14.2402 12.4673 14.2772 12.3673 14.3342C12.2943 14.3432 12.2213 14.3532 12.1493 14.3672C11.9083 14.4512 11.6683 14.5272 11.4293 14.5962C11.3573 14.6052 11.2923 14.6272 11.2333 14.6612C10.9743 14.7262 10.7203 14.7982 10.4703 14.8792C10.3813 14.9042 10.2943 14.9332 10.2083 14.9662C10.0463 14.9962 9.89329 15.0472 9.75029 15.1192C9.71829 15.1182 9.68929 15.1252 9.66329 15.1412C9.62829 15.1532 9.59129 15.1602 9.55429 15.1632C9.39229 15.2172 9.23229 15.2752 9.07429 15.3372C8.80329 15.4182 8.53429 15.5052 8.26729 15.5992C8.17929 15.6282 8.09229 15.6572 8.00529 15.6862C7.94129 15.7002 7.87529 15.7082 7.80929 15.7082C7.70829 15.7322 7.60729 15.7322 7.50429 15.7082C7.30129 15.6582 7.14929 15.5422 7.04629 15.3592C7.02529 15.3252 7.01129 15.2892 7.00229 15.2502V15.2492ZM14.5703 14.9442C14.5703 14.9592 14.5633 14.9662 14.5483 14.9662C14.5483 14.9512 14.5553 14.9442 14.5703 14.9442ZM14.5053 14.9882C14.4983 15.0172 14.4903 15.0172 14.4833 14.9882H14.5053ZM14.3743 15.0532C14.3193 15.1062 14.2543 15.1422 14.1783 15.1622C14.2333 15.1092 14.2983 15.0732 14.3743 15.0532ZM11.9753 14.9662C11.9373 14.9972 11.8943 15.0082 11.8443 14.9992C11.8843 14.9742 11.9283 14.9632 11.9753 14.9662ZM7.15529 16.1442C7.27029 16.1782 7.38629 16.2072 7.50429 16.2312H7.80929C7.87629 16.2222 7.94229 16.2072 8.00529 16.1872C8.09929 16.1922 8.18729 16.1702 8.26729 16.1222C8.53929 16.0312 8.80829 15.9372 9.07429 15.8382C9.23729 15.7962 9.39729 15.7452 9.55429 15.6852C9.60429 15.6832 9.64729 15.6682 9.68529 15.6412C9.71329 15.6462 9.73529 15.6392 9.75029 15.6192C9.90329 15.5752 10.0563 15.5322 10.2083 15.4882C10.3083 15.4612 10.4033 15.4252 10.4923 15.3792C10.7493 15.3152 11.0043 15.2422 11.2553 15.1612C11.3213 15.1562 11.3793 15.1342 11.4293 15.0962C11.5593 15.0592 11.6893 15.0332 11.8223 15.0202C11.7293 15.0632 11.6423 15.1102 11.5603 15.1622C11.4853 15.1622 11.4203 15.1842 11.3643 15.2272C11.0633 15.3452 10.7653 15.4692 10.4703 15.5982C10.3743 15.6422 10.2793 15.6862 10.1863 15.7292C9.98629 15.7952 9.79729 15.8832 9.61929 15.9912H9.55429C9.49929 16.0152 9.44829 16.0442 9.40129 16.0782C9.21529 16.1482 9.03329 16.2282 8.85629 16.3182C8.63329 16.4252 8.40729 16.5312 8.18029 16.6342C8.09329 16.6562 8.00629 16.6752 7.91829 16.6892C7.81429 16.6852 7.71229 16.6702 7.61329 16.6452C7.54329 16.6392 7.48529 16.6102 7.43929 16.5582C7.39929 16.5252 7.35929 16.4882 7.31929 16.4492C7.24729 16.3562 7.19329 16.2552 7.15529 16.1442ZM7.41729 17.1042C7.47329 17.1472 7.53929 17.1692 7.61329 17.1692C7.71429 17.1852 7.81629 17.1922 7.91829 17.1912C8.04329 17.1912 8.16629 17.1812 8.28929 17.1582C8.49129 17.0772 8.68829 16.9862 8.87829 16.8852C9.06429 16.8102 9.24629 16.7302 9.42329 16.6452C9.47629 16.6272 9.52729 16.6062 9.57629 16.5802C9.59829 16.5652 9.62029 16.5512 9.64129 16.5362C9.83629 16.4682 10.0253 16.3882 10.2083 16.2962C10.3033 16.2522 10.3983 16.2092 10.4923 16.1652C10.7923 16.0482 11.0913 15.9242 11.3863 15.7942C11.4543 15.7712 11.5193 15.7422 11.5823 15.7072C11.9523 15.5652 12.3163 15.4132 12.6733 15.2492C12.7673 15.2172 12.8613 15.1872 12.9573 15.1622C12.9863 15.1402 13.0153 15.1182 13.0443 15.0972C13.0683 15.0962 13.0903 15.0882 13.1093 15.0752H13.1533C13.1533 15.0602 13.1603 15.0532 13.1753 15.0532H13.1973C13.1973 15.0382 13.2043 15.0312 13.2193 15.0312C13.2193 15.0462 13.2123 15.0532 13.1973 15.0532C13.1903 15.0712 13.1753 15.0792 13.1533 15.0752C13.0973 15.1212 13.0313 15.1502 12.9573 15.1622V15.1842C12.5463 15.3862 12.1393 15.5972 11.7363 15.8172C11.6523 15.8432 11.5723 15.8792 11.4963 15.9262C11.1553 16.0972 10.8203 16.2782 10.4933 16.4712C10.3813 16.5232 10.2723 16.5812 10.1663 16.6452C9.95129 16.7562 9.74029 16.8732 9.53329 16.9942C9.49129 17.0072 9.45429 17.0292 9.42429 17.0592C9.36929 17.0832 9.31829 17.1122 9.27129 17.1462C9.05029 17.2462 8.83929 17.3622 8.63829 17.4952C8.47629 17.5992 8.29829 17.6422 8.10429 17.6262C7.91529 17.6532 7.75129 17.6022 7.61329 17.4732C7.49229 17.3742 7.40529 17.2502 7.35129 17.1022H7.41629L7.41729 17.1042ZM7.48229 18.0422C7.51729 18.0542 7.55429 18.0612 7.59129 18.0642C7.64029 18.1062 7.69829 18.1322 7.76529 18.1402C7.87429 18.1442 7.98329 18.1472 8.09229 18.1512C8.29029 18.1672 8.47929 18.1382 8.65929 18.0642C8.75429 18.0262 8.84829 17.9862 8.94329 17.9442C9.04829 17.8652 9.15729 17.7962 9.27029 17.7372C9.32329 17.6982 9.38129 17.6692 9.44429 17.6502C9.47729 17.6232 9.51329 17.6012 9.55329 17.5852C9.76829 17.4672 9.97929 17.3432 10.1863 17.2142C10.3043 17.1732 10.4133 17.1152 10.5133 17.0402C10.8553 16.8692 11.1903 16.6872 11.5163 16.4952C11.6003 16.4572 11.6803 16.4132 11.7563 16.3642C12.1633 16.1532 12.5703 15.9422 12.9773 15.7312C13.1323 15.6652 13.2843 15.5922 13.4353 15.5132C13.4593 15.5122 13.4813 15.5042 13.5003 15.4912C13.5223 15.4842 13.5363 15.4692 13.5443 15.4472C13.5833 15.4382 13.6193 15.4242 13.6533 15.4032C13.6823 15.3882 13.7113 15.3742 13.7403 15.3592C13.8603 15.2952 13.9833 15.2372 14.1113 15.1852C14.1323 15.1952 14.1323 15.2102 14.1113 15.2292C14.0643 15.2342 14.0273 15.2562 14.0023 15.2942C13.9133 15.3212 13.8333 15.3652 13.7623 15.4252C13.5823 15.5182 13.4073 15.6202 13.2393 15.7302C12.7823 15.9992 12.3313 16.2752 11.8873 16.5592C11.8003 16.6102 11.7133 16.6612 11.6253 16.7122C11.2413 16.9512 10.8633 17.1982 10.4913 17.4542C10.3643 17.5212 10.2403 17.5942 10.1203 17.6722C9.88729 17.8252 9.65429 17.9782 9.42229 18.1302C9.38229 18.1462 9.34629 18.1682 9.31329 18.1952C9.25729 18.2552 9.19129 18.2982 9.11729 18.3262C8.90629 18.4722 8.68029 18.5882 8.44129 18.6752C8.26829 18.6882 8.10029 18.6552 7.93929 18.5772C7.72729 18.4472 7.57429 18.2682 7.48129 18.0432L7.48229 18.0422ZM7.71129 19.0022C7.93829 19.1232 8.18229 19.1822 8.44229 19.1762C8.70129 19.1412 8.93429 19.0462 9.14029 18.8922C9.20829 18.8612 9.27429 18.8252 9.33629 18.7832C9.36629 18.7612 9.39529 18.7392 9.42329 18.7182C9.66129 18.5612 9.90129 18.4092 10.1433 18.2602C10.2693 18.1842 10.3923 18.1042 10.5143 18.0202C10.8933 17.7802 11.2713 17.5402 11.6483 17.3002C11.7363 17.2482 11.8233 17.1972 11.9103 17.1472C12.3553 16.8632 12.8053 16.5862 13.2623 16.3182C13.4423 16.2262 13.6163 16.1242 13.7853 16.0132C13.8593 15.9622 13.9313 15.9112 14.0033 15.8602C14.0593 15.8602 14.1033 15.8392 14.1343 15.7952C14.4103 15.6432 14.6863 15.4902 14.9633 15.3372C15.2013 15.2002 15.4413 15.0692 15.6833 14.9442C15.7033 14.8952 15.7393 14.8742 15.7923 14.8792C15.7613 14.9092 15.7253 14.9312 15.6833 14.9442C15.6043 14.9932 15.5323 15.0512 15.4653 15.1182C15.1483 15.2972 14.8433 15.4932 14.5493 15.7072C14.4983 15.7252 14.4543 15.7542 14.4183 15.7942C14.3273 15.8292 14.2473 15.8802 14.1783 15.9472C13.9893 16.0702 13.8003 16.1942 13.6113 16.3182C13.0973 16.6512 12.5953 17.0002 12.1063 17.3652C11.9963 17.4272 11.8953 17.5002 11.8013 17.5832C11.3783 17.8522 10.9713 18.1432 10.5803 18.4552C10.4463 18.5532 10.3083 18.6482 10.1663 18.7392C9.89829 18.9132 9.64429 19.1022 9.40329 19.3062C9.34729 19.3262 9.30329 19.3622 9.27229 19.4152C9.19529 19.4422 9.12929 19.4852 9.07629 19.5462C8.82529 19.6132 8.57129 19.6282 8.31329 19.5902C8.05329 19.4632 7.84929 19.2742 7.70229 19.0232C7.70629 19.0162 7.70929 19.0082 7.71329 19.0012L7.71129 19.0022ZM7.78729 19.9072C7.91029 19.9582 8.03429 20.0162 8.15829 20.0812C8.20729 20.1022 8.25829 20.1132 8.31129 20.1142C8.41329 20.1292 8.51829 20.1362 8.62729 20.1362C8.77929 20.1402 8.92829 20.1262 9.07429 20.0922C9.15429 20.0672 9.22629 20.0302 9.29229 19.9832C9.34029 19.9692 9.38429 19.9482 9.42329 19.9182C9.67329 19.7312 9.92729 19.5492 10.1863 19.3732C10.3253 19.2712 10.4633 19.1692 10.6003 19.0682C11.0133 18.7862 11.4203 18.4952 11.8213 18.1962C11.9223 18.1392 12.0163 18.0742 12.1053 18.0002C12.6193 17.6612 13.1283 17.3122 13.6323 16.9532C13.8153 16.8142 14.0043 16.6832 14.1993 16.5602C14.2913 16.5182 14.3713 16.4592 14.4393 16.3862C14.4893 16.3762 14.5323 16.3542 14.5703 16.3212C14.8763 16.1172 15.1823 15.9142 15.4863 15.7102C15.9383 15.4252 16.3883 15.1422 16.8383 14.8592C16.8733 14.8192 16.9173 14.7902 16.9693 14.7722C16.9893 14.7232 17.0253 14.7022 17.0783 14.7072C17.0473 14.7372 17.0113 14.7592 16.9693 14.7722C16.9423 14.8222 16.8983 14.8512 16.8383 14.8592C16.7973 14.9162 16.7463 14.9632 16.6853 15.0012C16.4353 15.1602 16.1953 15.3312 15.9653 15.5142C15.6253 15.7312 15.2983 15.9642 14.9843 16.2122C14.9293 16.2432 14.8783 16.2792 14.8313 16.3212C14.7363 16.3942 14.6413 16.4672 14.5473 16.5392C14.3333 16.6862 14.1223 16.8392 13.9143 16.9972C13.3643 17.4142 12.8183 17.8352 12.2783 18.2622C12.1703 18.3262 12.0683 18.3992 11.9733 18.4802C11.5143 18.8452 11.0563 19.2092 10.5993 19.5712C10.4553 19.6722 10.3163 19.7812 10.1853 19.8982C9.96729 20.0582 9.75629 20.2292 9.55229 20.4112C9.46929 20.4462 9.38929 20.4862 9.31229 20.5312C9.27629 20.5462 9.23929 20.5602 9.20329 20.5752C9.12629 20.5812 9.05329 20.5952 8.98529 20.6192C8.66829 20.6372 8.39229 20.5422 8.15629 20.3352C8.02329 20.2052 7.89929 20.0632 7.78529 19.9102L7.78729 19.9072ZM8.07129 20.9432C8.06129 20.9222 8.04729 20.9042 8.02729 20.8882C8.03429 20.8842 8.04229 20.8812 8.04929 20.8772C8.07829 20.8992 8.10829 20.9212 8.13629 20.9422C8.26129 21.0072 8.39229 21.0612 8.52929 21.1062C8.68129 21.1312 8.83329 21.1422 8.98729 21.1392C9.06729 21.1342 9.14729 21.1272 9.22729 21.1172C9.26429 21.1142 9.30129 21.1072 9.33629 21.0952C9.66129 20.9762 9.95129 20.8022 10.2083 20.5722C10.3543 20.4632 10.4923 20.3462 10.6223 20.2232C11.0733 19.8622 11.5313 19.5062 11.9963 19.1542C12.0983 19.0732 12.2003 18.9932 12.3013 18.9142C12.8503 18.5052 13.3953 18.0912 13.9373 17.6712C14.1143 17.5492 14.2893 17.4212 14.4603 17.2892C14.5013 17.2522 14.5373 17.2122 14.5693 17.1692C14.5923 17.1722 14.6143 17.1692 14.6343 17.1582C14.6923 17.0932 14.7573 17.0382 14.8303 16.9942C14.8943 16.9592 14.9533 16.9152 15.0043 16.8632C15.3313 16.6302 15.6583 16.3982 15.9853 16.1652C16.5973 15.7272 17.2153 15.2982 17.8393 14.8782C17.8493 14.8472 17.8713 14.8332 17.9043 14.8342C17.9143 14.8032 17.9363 14.7892 17.9693 14.7902C17.9593 14.8212 17.9373 14.8352 17.9043 14.8342C17.8943 14.8652 17.8723 14.8792 17.8393 14.8782C17.4923 15.1772 17.1293 15.4572 16.7483 15.7182C16.6573 15.7912 16.5693 15.8682 16.4863 15.9472C16.1173 16.2002 15.7683 16.4762 15.4393 16.7762C15.3763 16.7962 15.3253 16.8332 15.2863 16.8852C15.1643 16.9572 15.0553 17.0442 14.9593 17.1472C14.7413 17.3292 14.5233 17.5112 14.3053 17.6922C14.1653 17.7922 14.0263 17.8982 13.8913 18.0082C13.8643 18.0332 13.8423 18.0622 13.8263 18.0952C13.3743 18.4472 12.9383 18.8152 12.5173 19.1962C12.3953 19.2682 12.2863 19.3552 12.1903 19.4582C11.6983 19.8672 11.2113 20.2822 10.7293 20.7012C10.5563 20.8342 10.3893 20.9732 10.2273 21.1152C9.97529 21.3542 9.67729 21.5072 9.33329 21.5732C9.28329 21.5842 9.23229 21.5912 9.18029 21.5952C9.10629 21.5952 9.03429 21.5892 8.96229 21.5732C8.90429 21.5642 8.84629 21.5532 8.78829 21.5402C8.49729 21.4022 8.25729 21.2022 8.06829 20.9402L8.07129 20.9432ZM17.0133 16.3192C16.6213 16.6422 16.2363 16.9692 15.8573 17.3002C15.7983 17.3512 15.7403 17.4022 15.6833 17.4532C15.5673 17.5402 15.4583 17.6352 15.3563 17.7372C15.1193 17.9272 14.8863 18.1232 14.6583 18.3262C14.0123 18.8872 13.3653 19.4542 12.7173 20.0272C12.5993 20.1172 12.4903 20.2192 12.3903 20.3322C11.8533 20.8112 11.3223 21.2982 10.7983 21.7932C10.6383 21.9612 10.4633 22.1132 10.2753 22.2512C10.0023 22.4702 9.68929 22.5652 9.33729 22.5352C9.27929 22.5202 9.22129 22.5062 9.16329 22.4912C9.08629 22.4492 9.00629 22.4122 8.92329 22.3822C8.77829 22.2802 8.64029 22.1672 8.50929 22.0442C8.46929 22.0122 8.45129 21.9722 8.45429 21.9242C8.61429 22.0152 8.78529 22.0732 8.96729 22.0982H9.36029C9.69129 22.0462 9.98929 21.9232 10.2543 21.7272C10.4283 21.5962 10.5953 21.4582 10.7563 21.3132C11.2363 20.8912 11.7233 20.4772 12.2173 20.0702C12.3313 19.9852 12.4403 19.8902 12.5443 19.7862C13.1413 19.2982 13.7373 18.8102 14.3323 18.3252C14.5513 18.1432 14.7693 17.9612 14.9863 17.7802C15.1053 17.7092 15.2153 17.6222 15.3133 17.5182C15.3693 17.4792 15.4203 17.4362 15.4663 17.3872C15.8033 17.1272 16.1373 16.8622 16.4693 16.5912C16.4983 16.5732 16.5123 16.5482 16.5133 16.5152C16.5713 16.5052 16.6213 16.4802 16.6663 16.4392C16.6813 16.4172 16.6953 16.3952 16.7103 16.3742C17.4123 15.8452 18.1093 15.3112 18.8043 14.7712C18.9463 14.6822 19.0843 14.5872 19.2183 14.4872C19.2633 14.4422 19.3143 14.4052 19.3713 14.3782C19.3903 14.3652 19.4123 14.3572 19.4363 14.3562C18.6353 15.0152 17.8283 15.6692 17.0153 16.3192H17.0133ZM19.1293 12.8072C19.1983 12.6762 19.2533 12.5382 19.2933 12.3932C19.3523 11.9892 19.2933 11.6042 19.1193 11.2372C19.0283 11.0992 18.9483 10.9532 18.8793 10.8012C18.8643 10.7822 18.8453 10.7672 18.8243 10.7572C18.2803 9.72821 17.7203 8.71021 17.1453 7.70321C17.1093 7.64521 17.0723 7.58721 17.0363 7.52921C16.9323 7.32821 16.8233 7.13221 16.7093 6.94021C16.5143 6.56421 16.3073 6.19421 16.0873 5.82821C16.0693 5.79221 16.0513 5.75521 16.0323 5.71921C16.0403 5.69321 16.0503 5.69321 16.0653 5.71921C16.5023 6.40621 16.9423 7.09021 17.3853 7.76921C17.4863 7.94221 17.5953 8.10921 17.7123 8.27121C17.7583 8.35521 17.8083 8.43521 17.8653 8.51121C18.4153 9.40021 18.9713 10.2872 19.5343 11.1722C19.6083 11.3202 19.6703 11.4732 19.7193 11.6302C19.7483 11.7832 19.7483 11.9352 19.7193 12.0882C19.6903 12.1862 19.6503 12.2812 19.5993 12.3722C19.4803 12.5602 19.3243 12.7052 19.1303 12.8082L19.1293 12.8072ZM19.7183 14.1372C19.7183 14.1522 19.7113 14.1592 19.6963 14.1592C19.6893 14.1772 19.6743 14.1852 19.6523 14.1812C19.6523 14.1962 19.6453 14.2032 19.6303 14.2032C19.6303 14.2182 19.6233 14.2252 19.6083 14.2252C19.6083 14.2102 19.6153 14.2032 19.6303 14.2032C19.6303 14.1882 19.6373 14.1812 19.6523 14.1812C19.6593 14.1632 19.6743 14.1552 19.6963 14.1592C19.6963 14.1442 19.7033 14.1372 19.7183 14.1372C19.7253 14.1192 19.7403 14.1112 19.7623 14.1152C19.7553 14.1332 19.7403 14.1412 19.7183 14.1372ZM19.8053 14.0722C19.8053 14.0572 19.8123 14.0502 19.8273 14.0502C19.8273 14.0652 19.8203 14.0722 19.8053 14.0722ZM20.6343 12.0652C20.4903 12.3612 20.2723 12.5872 19.9803 12.7412C19.9803 12.7562 19.9733 12.7632 19.9583 12.7632C19.9583 12.7782 19.9513 12.7852 19.9363 12.7852C19.9363 12.7702 19.9433 12.7632 19.9583 12.7632C19.9583 12.7482 19.9653 12.7412 19.9803 12.7412C20.2993 12.2682 20.3473 11.7662 20.1223 11.2362C20.0183 11.0202 19.8983 10.8162 19.7623 10.6252C19.1483 9.62921 18.5223 8.64021 17.8863 7.65921C17.8463 7.57821 17.7953 7.50521 17.7333 7.44121C17.6403 7.25421 17.5313 7.08021 17.4063 6.91821C16.9413 6.19921 16.4763 5.47921 16.0103 4.75921C15.9793 4.74921 15.9653 4.72721 15.9663 4.69421C15.9513 4.69421 15.9443 4.68721 15.9443 4.67221H15.9663V4.69421C15.9973 4.70421 16.0113 4.72621 16.0103 4.75921C16.7053 5.63921 17.3703 6.54121 18.0063 7.46421C18.0363 7.49821 18.0693 7.52721 18.1043 7.55121C18.2033 7.73021 18.3203 7.89821 18.4533 8.05321C18.4873 8.13821 18.5383 8.21121 18.6063 8.27121C19.1993 9.14421 19.7993 10.0172 20.4053 10.8882C20.4993 11.0222 20.5683 11.1672 20.6123 11.3242C20.7193 11.5682 20.7263 11.8152 20.6343 12.0662V12.0652ZM21.5723 12.0212C21.4863 12.1452 21.3913 12.2652 21.2883 12.3812C21.1823 12.4742 21.0653 12.5502 20.9393 12.6102C21.2543 12.1252 21.3093 11.6092 21.1033 11.0612C20.9973 10.8502 20.8813 10.6462 20.7543 10.4502C20.7243 10.4162 20.6913 10.3872 20.6563 10.3632C20.6313 10.3132 20.6063 10.2622 20.5803 10.2102C20.2543 9.75521 19.9353 9.29721 19.6203 8.83621C19.2943 8.38021 18.9633 7.92921 18.6283 7.48421C18.5883 7.40421 18.5373 7.33221 18.4753 7.26621C18.3663 7.09921 18.2503 6.93921 18.1263 6.78621C17.4393 5.82221 16.7263 4.87721 15.9893 3.95121C15.9763 3.93221 15.9683 3.91021 15.9673 3.88621C15.9143 3.85521 15.8783 3.81221 15.8583 3.75521C15.9113 3.78621 15.9473 3.82921 15.9673 3.88621C16.1413 4.08221 16.3163 4.27921 16.4903 4.47521C17.2543 5.42121 18.0173 6.36621 18.7803 7.31021C18.9023 7.50421 19.0403 7.68521 19.1943 7.85521C19.2373 7.92721 19.2883 7.99321 19.3473 8.05121C19.9583 8.86521 20.5793 9.67221 21.2123 10.4722C21.3413 10.6362 21.4543 10.8102 21.5503 10.9952C21.6863 11.3342 21.6933 11.6752 21.5723 12.0202V12.0212ZM22.5433 11.7162C22.4953 11.8122 22.4483 11.9062 22.4013 12.0002C22.3333 12.0722 22.2673 12.1482 22.2053 12.2292C22.1403 12.2722 22.0823 12.3232 22.0313 12.3822C22.0043 12.3992 21.9753 12.4102 21.9443 12.4152C21.9443 12.4302 21.9373 12.4372 21.9223 12.4372C21.9223 12.4222 21.9293 12.4152 21.9443 12.4152C21.9913 12.3222 22.0383 12.2272 22.0863 12.1312C22.2853 11.3822 22.1223 10.7272 21.5953 10.1682C20.8623 9.20221 20.1203 8.24221 19.3703 7.28921C19.3293 7.22321 19.2793 7.16521 19.2173 7.11521C19.0873 6.92721 18.9493 6.74521 18.8033 6.57021C18.1523 5.72621 17.4873 4.89021 16.8073 4.06221C16.7213 3.95021 16.6233 3.84921 16.5133 3.75721C16.4143 3.61021 16.3013 3.47221 16.1753 3.34321C16.1603 3.32821 16.1603 3.31421 16.1753 3.29921C16.4603 3.59521 16.7403 3.89321 17.0153 4.19321C17.8543 5.10421 18.6683 6.03521 19.4583 6.98521C19.5963 7.16721 19.7423 7.34121 19.8943 7.50821C19.9423 7.59021 20.0003 7.66321 20.0683 7.72621C20.7813 8.61021 21.4983 9.49021 22.2163 10.3652C22.2783 10.4612 22.3403 10.5552 22.4013 10.6492C22.5793 10.9872 22.6263 11.3442 22.5433 11.7182V11.7162Z" fill="url(#paint0_linear_22753_49942)"/>
</g>
<defs>
<linearGradient id="paint0_linear_22753_49942" x1="23.1863" y1="10.3602" x2="2.12629" y2="13.2762" gradientUnits="userSpaceOnUse">
<stop stop-color="#107A74"/>
<stop offset="0.96" stop-color="#41B567"/>
</linearGradient>
<clipPath id="clip0_22753_49942">
<rect width="24" height="24" fill="white"/>
</clipPath>
</defs>
</svg>
