<svg width="32" height="32" viewBox="0 0 32 32" fill="none" xmlns="http://www.w3.org/2000/svg">
<g clip-path="url(#clip0_2843_19474)">
<path fill-rule="evenodd" clip-rule="evenodd" d="M17.2934 32H14.7067V30.0387H13.5287V27.618L8.31406 27.6127L8.32006 21.444H7.09139L7.08739 20.9013H5.57006V20.072H4.61806V18.836H5.57006V17.7493H7.05139L6.62472 17.092H4.15139C3.80739 17.092 3.58272 17.5187 3.58272 17.5187L3.15872 17.3853C3.19782 17.2101 3.25271 17.0387 3.32272 16.8733C3.38939 16.6847 3.54072 16.3147 3.54072 16.3147L3.56072 16.2647C3.59472 16.1833 3.62739 16.1027 3.66806 16.024C3.86811 15.5441 4.22325 15.1451 4.67672 14.8907C4.73734 14.8612 4.79993 14.8361 4.86406 14.8153C4.97934 14.7787 5.09867 14.7563 5.21939 14.7487C5.25606 14.7487 5.29272 14.7487 5.32939 14.7487L5.33939 14.724L5.35472 14.688C5.39886 14.5891 5.45531 14.4961 5.52272 14.4113C5.5665 14.3591 5.61468 14.3107 5.66672 14.2667C5.87646 14.078 6.13173 13.9473 6.40739 13.8873L6.39472 11.5707L7.64339 11.5747L7.64006 9.93333L8.86206 9.926L8.86672 8.832L9.61139 8.82867L8.74739 7.33333H7.58739L9.52072 5.39533L12.8481 5.39933V1.73267H14.7334V0H17.2667V1.73333H19.1494V5.4L22.4767 5.396L24.4127 7.33333H23.2527L22.3861 8.83L23.1307 8.83333L23.1354 9.92733L24.3574 9.93467L24.3521 11.5733L25.6014 11.5693L25.5887 13.886C25.8659 13.9457 26.1227 14.0769 26.3334 14.2667C26.3866 14.3127 26.4357 14.3633 26.4801 14.418C26.5475 14.5028 26.6039 14.5957 26.6481 14.6947L26.6634 14.7307L26.6727 14.7553C26.7094 14.7553 26.7461 14.7553 26.7827 14.7553C26.9034 14.763 27.0228 14.7854 27.1381 14.822C27.2022 14.8427 27.2648 14.8679 27.3254 14.8973C27.7789 15.1517 28.134 15.5507 28.3341 16.0307C28.3721 16.11 28.4074 16.1907 28.4414 16.2713L28.4614 16.3213C28.4614 16.3213 28.6127 16.692 28.6794 16.88C28.7494 17.0454 28.8043 17.2167 28.8434 17.392L28.4194 17.5253C28.4194 17.5253 28.1947 17.0987 27.8507 17.0987H25.3774L24.9507 17.756H26.4321V18.8427H27.3847V20.0667H26.4281V20.896H24.9154L24.9114 21.4387H23.6834L23.6894 27.6073L18.4747 27.6127V30.0333H17.2934V32Z" fill="url(#paint0_linear_2843_19474)"/>
<path fill-rule="evenodd" clip-rule="evenodd" d="M16.75 31.4667H15.25V29.5053H14.074V27.6127H15.2527V28.698H16.748V27.6127H17.9267V29.5053H16.75V31.4667ZM23.13 27.0793H8.8707V21.146H23.1294L23.13 27.0793ZM20.7814 26.3667C20.7875 26.3996 20.785 26.4336 20.774 26.4653C20.7602 26.5066 20.7426 26.5466 20.7214 26.5847C20.6964 26.6305 20.6634 26.6716 20.624 26.706C20.6083 26.7251 20.5863 26.738 20.562 26.7427C20.5369 26.7342 20.5141 26.7201 20.4954 26.7013C20.4674 26.6782 20.438 26.6544 20.4074 26.63C20.384 26.6123 20.3617 26.5931 20.3407 26.5727C20.3257 26.5615 20.3154 26.5451 20.312 26.5267C20.3307 26.4873 20.3454 26.4567 20.3547 26.4353C20.3867 26.3678 20.4105 26.3189 20.426 26.2887C20.4545 26.2442 20.4831 26.1969 20.512 26.1467L20.5407 26.1053C20.5495 26.1138 20.5591 26.1214 20.5694 26.128L20.6074 26.1507C20.6556 26.186 20.7003 26.2259 20.7407 26.27C20.763 26.2978 20.7777 26.3309 20.7834 26.366L20.7814 26.3667ZM17.2107 25.7053C17.4258 25.7059 17.6404 25.6852 17.8514 25.6433C18.0383 25.6069 18.2223 25.557 18.402 25.494C18.5646 25.4355 18.7184 25.3552 18.8594 25.2553C18.9926 25.1634 19.1128 25.054 19.2167 24.93C19.2451 24.8931 19.2896 24.8351 19.35 24.756C19.3787 24.716 19.3994 24.6893 19.412 24.6733C19.4247 24.6573 19.428 24.6607 19.4314 24.664C19.4352 24.6692 19.4368 24.6756 19.436 24.682L19.4314 24.7327C19.4283 24.7602 19.4211 24.8191 19.41 24.9093C19.3997 24.9885 19.3941 25.0682 19.3934 25.148C19.3894 25.267 19.4096 25.3856 19.4527 25.4967C19.4695 25.5396 19.4996 25.5761 19.5385 25.6008C19.5775 25.6255 19.6233 25.6372 19.6694 25.634C19.736 25.634 19.8011 25.5844 19.8647 25.4853C19.9401 25.3553 19.9933 25.2136 20.022 25.066L20.034 25.0067C20.0381 24.9885 20.0405 24.9699 20.0414 24.9513C20.0414 24.9207 20.0334 24.9053 20.0174 24.9053C20.0014 24.9053 19.994 24.9193 19.9867 24.9467C19.9794 24.974 19.9714 24.9987 19.9654 25.02C19.9307 25.1147 19.8909 25.162 19.846 25.162C19.7937 25.1634 19.7421 25.149 19.698 25.1207C19.6603 25.0892 19.631 25.0488 19.6127 25.0032C19.5945 24.9576 19.5878 24.9081 19.5934 24.8593V24.7927V24.788C19.5934 24.7329 19.5983 24.6511 19.608 24.5427C19.6187 24.4222 19.6329 24.3022 19.6507 24.1827L19.7507 23.7013C19.7551 23.6778 19.7598 23.6542 19.7647 23.6307L19.876 23.5553L20.3214 23.218C20.4489 23.1358 20.576 23.0527 20.7027 22.9687C20.8125 22.8958 20.9205 22.8207 21.0267 22.7433C21.1983 22.618 21.3269 22.5224 21.4127 22.4567C21.5269 22.3678 21.608 22.3038 21.656 22.2647C21.704 22.2255 21.7509 22.1827 21.7967 22.136C21.854 22.0813 21.9089 22.0247 21.9614 21.966C22.0084 21.9118 22.0514 21.8544 22.09 21.794C22.1287 21.7415 22.1593 21.6836 22.1807 21.622C22.1871 21.6108 22.1903 21.5982 22.19 21.5853C22.19 21.5907 22.0709 21.6915 21.8327 21.888C21.7087 21.9929 21.5831 22.0964 21.456 22.1987C21.3196 22.3071 21.1798 22.4122 21.0367 22.514C20.834 22.6553 20.6307 22.7958 20.4267 22.9353C20.2299 23.0749 20.0413 23.2258 19.862 23.3873C19.8194 23.424 19.7824 23.4667 19.752 23.514C19.7462 23.5219 19.7409 23.5301 19.736 23.5387C19.7143 23.5753 19.6947 23.6131 19.6774 23.652L19.656 23.694C19.6156 23.7694 19.5807 23.8476 19.5514 23.928L19.4847 24.1893C19.4514 24.3104 19.3982 24.425 19.3274 24.5287C19.2291 24.6589 19.1041 24.7667 18.9607 24.8447C18.5682 25.0615 18.1312 25.1853 17.6834 25.2067C17.5754 25.216 17.4309 25.2207 17.25 25.2207C17.0323 25.2505 16.8111 25.2018 16.626 25.0833C16.5867 25.0396 16.5632 24.984 16.5594 24.9253C16.5547 24.8653 16.5474 24.836 16.538 24.836C16.5127 24.836 16.4929 24.888 16.4787 24.992C16.4647 25.0923 16.4576 25.1934 16.4574 25.2947C16.4502 25.3872 16.4764 25.4792 16.5314 25.554C16.6086 25.6236 16.7064 25.6662 16.81 25.6753C16.9203 25.6926 17.0318 25.7004 17.1434 25.6987L17.2107 25.7053ZM12.3147 24.4667C12.3116 24.5283 12.3036 24.5896 12.2907 24.65C12.2747 24.7353 12.2587 24.8102 12.2427 24.8747L12.1854 25.0993C12.1534 25.1847 12.128 25.2473 12.1094 25.2873C12.0859 25.3361 12.0596 25.3835 12.0307 25.4293C12.0109 25.4614 11.9859 25.49 11.9567 25.514C11.9161 25.5429 11.8731 25.5681 11.828 25.5893L11.6567 25.656C11.62 25.6674 11.5826 25.6765 11.5447 25.6833C11.5079 25.6923 11.4705 25.6986 11.4327 25.702C11.4167 25.702 11.4074 25.6967 11.404 25.686C11.4027 25.6793 11.4029 25.6723 11.4045 25.6656C11.4061 25.659 11.4091 25.6527 11.4134 25.6473C11.4466 25.6028 11.4872 25.5642 11.5334 25.5333C11.5987 25.4844 11.6631 25.4371 11.7267 25.3913C11.7996 25.3269 11.8536 25.2764 11.8887 25.24C11.9433 25.183 11.9912 25.1199 12.0314 25.052C12.0476 25.0219 12.0612 24.9904 12.072 24.958C12.0894 24.9109 12.1171 24.8338 12.1554 24.7267L12.2127 24.5613C12.2189 24.5369 12.2285 24.5071 12.2414 24.472C12.254 24.4373 12.27 24.4193 12.2894 24.4193C12.3013 24.4323 12.3096 24.4481 12.3134 24.4653L12.3147 24.4667ZM15.8007 24.986V24.99C15.8674 24.9247 15.9069 24.8847 15.9194 24.87C15.969 24.8137 16.0093 24.7498 16.0387 24.6807C16.0772 24.5844 16.1052 24.4843 16.122 24.382C16.142 24.2874 16.1538 24.1913 16.1574 24.0947C16.1574 24.0147 16.1574 23.9307 16.1574 23.8427C16.1574 23.7547 16.1629 23.6658 16.174 23.576C16.174 23.4927 16.1787 23.4427 16.1787 23.42C16.1787 23.416 16.1787 23.412 16.1787 23.4087C16.1887 23.4033 16.2014 23.3953 16.216 23.386L16.3567 23.29L16.6974 23.0593C16.8307 22.9735 16.9623 22.8869 17.092 22.7993C17.2058 22.7233 17.3169 22.6447 17.4254 22.5633C17.6031 22.43 17.7365 22.3295 17.8254 22.262C17.9445 22.17 18.0289 22.1033 18.0787 22.062C18.1285 22.0207 18.1778 21.9749 18.2267 21.9247C18.2871 21.8664 18.3451 21.806 18.4007 21.7433C18.451 21.6846 18.4971 21.6225 18.5387 21.5573C18.5807 21.4999 18.6143 21.4368 18.6387 21.37C18.6458 21.3576 18.6497 21.3436 18.65 21.3293C18.65 21.3355 18.5254 21.4424 18.276 21.65C18.1463 21.7611 18.0151 21.8709 17.8827 21.9793C17.7405 22.094 17.5949 22.2051 17.446 22.3127C17.2358 22.4607 17.0249 22.6075 16.8134 22.7533C16.6508 22.8613 16.4949 22.979 16.3467 23.106C16.3018 23.1448 16.2625 23.1897 16.23 23.2393C16.1981 23.289 16.1698 23.3409 16.1454 23.3947L16.1374 23.4133V23.4173L15.976 23.7913C15.9609 23.8289 15.9528 23.8689 15.952 23.9093C15.9489 23.9613 15.9474 24.0215 15.9474 24.09L15.952 24.3887C15.9565 24.486 15.9403 24.5833 15.9047 24.674C15.8899 24.7049 15.8715 24.734 15.85 24.7607C15.835 24.7808 15.8165 24.7982 15.7954 24.812L15.7667 24.8253C15.7441 24.8279 15.7212 24.8249 15.7 24.8167C15.684 24.8407 15.668 24.8627 15.652 24.8833C15.6267 24.9167 15.5918 24.9416 15.552 24.9547C15.5428 24.9597 15.5323 24.9615 15.5219 24.96C15.5116 24.9584 15.502 24.9535 15.4947 24.946C15.4727 24.9667 15.452 24.988 15.4327 25.0087C15.4028 25.0405 15.3617 25.0596 15.318 25.062C15.275 25.0622 15.232 25.0591 15.1894 25.0527C15.1191 25.1002 15.0507 25.1478 14.984 25.1953C14.9272 25.2318 14.8608 25.2504 14.7934 25.2487C14.7377 25.2535 14.6817 25.2432 14.6314 25.219C14.5811 25.1947 14.5382 25.1573 14.5074 25.1107C14.4694 25.0411 14.4514 24.9625 14.4554 24.8833C14.4554 24.8473 14.4554 24.79 14.4647 24.7093C14.4727 24.6138 14.4838 24.5187 14.498 24.424L14.5794 23.88L14.5987 23.764C14.6043 23.7407 14.6059 23.7165 14.6034 23.6927L14.584 23.7013C14.5556 23.7578 14.5176 23.8409 14.47 23.9507C14.4225 24.0604 14.3971 24.1213 14.394 24.1333C14.3718 24.2791 14.3431 24.4893 14.308 24.764C14.2729 25.0387 14.2554 25.1942 14.2554 25.2307C14.2561 25.2717 14.2592 25.3127 14.2647 25.3533C14.268 25.3921 14.2758 25.4304 14.288 25.4673C14.3043 25.5348 14.3428 25.5948 14.3973 25.6376C14.4519 25.6804 14.5193 25.7036 14.5887 25.7033C14.6535 25.7002 14.7165 25.6806 14.7716 25.6463C14.8266 25.612 14.872 25.5641 14.9034 25.5073C14.9923 25.3767 15.0638 25.3113 15.118 25.3113L15.1847 25.318C15.2028 25.3204 15.2212 25.3204 15.2394 25.318C15.2737 25.3048 15.3052 25.2851 15.332 25.26C15.3592 25.2359 15.3879 25.2136 15.418 25.1933C15.4385 25.1819 15.4613 25.175 15.4847 25.1733C15.505 25.1719 15.5246 25.1658 15.542 25.1553C15.5674 25.1313 15.5887 25.1127 15.6087 25.0993C15.6249 25.0867 15.6426 25.0762 15.6614 25.068C15.6787 25.0607 15.7147 25.0433 15.7687 25.0167L15.7974 24.994L15.8007 24.986ZM11.8574 23.19C11.859 23.185 11.8595 23.1796 11.8587 23.1744C11.8578 23.1692 11.8558 23.1643 11.8527 23.16C11.8436 23.149 11.8323 23.1401 11.8194 23.134C11.7605 23.1468 11.7042 23.1693 11.6527 23.2007C11.5914 23.2318 11.5324 23.2672 11.476 23.3067C11.4156 23.3484 11.3663 23.3851 11.328 23.4167C11.2416 23.4932 11.1603 23.5754 11.0847 23.6627C10.9834 23.7764 10.8984 23.9036 10.832 24.0407C10.7797 24.1388 10.7488 24.247 10.7414 24.358C10.7387 24.4042 10.7521 24.4499 10.7794 24.4873C10.8089 24.5219 10.8464 24.5487 10.8887 24.5653C10.9101 24.5752 10.9324 24.5831 10.9554 24.5887C10.9745 24.5931 11.0063 24.6018 11.0507 24.6147C11.0951 24.6276 11.1174 24.6469 11.1174 24.6727C11.1143 24.7252 11.0971 24.7759 11.0674 24.8193C11.0264 24.8834 10.9775 24.942 10.922 24.994C10.8524 25.0599 10.7719 25.1131 10.684 25.1513C10.5601 25.2084 10.4252 25.238 10.2887 25.238C10.1534 25.2463 10.0189 25.2108 9.90537 25.1367C9.86242 25.1054 9.82781 25.064 9.80456 25.0163C9.78132 24.9685 9.77015 24.9158 9.77204 24.8627C9.78803 24.6915 9.83478 24.5246 9.91004 24.37L9.96737 24.2493C10.0056 24.1689 10.0343 24.1113 10.0534 24.0767C10.088 24.01 10.1114 23.9633 10.12 23.936C10.1287 23.9087 10.146 23.8733 10.1654 23.83C10.1724 23.8152 10.1756 23.799 10.1747 23.7827C10.1747 23.7567 10.1634 23.744 10.1414 23.744C10.132 23.744 10.12 23.7553 10.1054 23.7787C10.0907 23.802 10.0774 23.8247 10.0647 23.8453L9.95537 24.0573L9.81737 24.3293C9.75978 24.4423 9.71032 24.5593 9.66937 24.6793C9.64456 24.752 9.62539 24.8264 9.61204 24.902C9.5991 24.9769 9.59263 25.0527 9.5927 25.1287C9.59342 25.1937 9.60307 25.2583 9.62137 25.3207C9.64172 25.3906 9.67571 25.4559 9.72137 25.5127C9.77539 25.5761 9.84384 25.6257 9.92098 25.6573C9.99812 25.6888 10.0817 25.7014 10.1647 25.694C10.3269 25.6973 10.4868 25.6556 10.6267 25.5733C10.6974 25.5323 10.763 25.4831 10.822 25.4267C10.8787 25.3731 10.9313 25.3154 10.9794 25.254C11.0735 25.1202 11.1459 24.9723 11.194 24.816C11.2439 24.6719 11.2713 24.5211 11.2754 24.3687C11.2802 24.3331 11.2758 24.2969 11.2624 24.2636C11.2491 24.2303 11.2274 24.2011 11.1994 24.1787C11.1841 24.1675 11.1672 24.1588 11.1494 24.1527L11.09 24.1313L11.004 24.092C10.9846 24.0723 10.9728 24.0463 10.9707 24.0187C10.9829 23.976 11.0059 23.9372 11.0374 23.906C11.0945 23.8371 11.1592 23.7747 11.23 23.72C11.2887 23.6678 11.3544 23.6243 11.4254 23.5907C11.4729 23.5662 11.5248 23.5514 11.578 23.5473C11.5891 23.5479 11.5997 23.5516 11.6087 23.558L11.6447 23.582C11.664 23.582 11.686 23.5647 11.7114 23.53C11.718 23.5213 11.736 23.4873 11.766 23.4287C11.7906 23.3838 11.8128 23.3378 11.8327 23.2907C11.8454 23.2579 11.855 23.2239 11.8614 23.1893L11.8574 23.19ZM13.8474 25.042L13.7807 25.2113C13.7524 25.272 13.718 25.3296 13.678 25.3833C13.6513 25.4233 13.6185 25.4589 13.5807 25.4887C13.5355 25.5143 13.4876 25.5351 13.438 25.5507L13.338 25.5873C13.2869 25.6033 13.236 25.6202 13.1854 25.638C13.1359 25.6546 13.0847 25.6654 13.0327 25.67L13.0134 25.6607C13.0134 25.6393 13.0705 25.5935 13.1847 25.5233L13.3707 25.3953C13.4023 25.374 13.4371 25.348 13.4754 25.3173C13.5197 25.2813 13.5614 25.2421 13.6 25.2C13.6394 25.1597 13.6695 25.1112 13.688 25.058C13.6885 25.0487 13.6901 25.0396 13.6927 25.0307L13.5687 25.04C13.5161 25.0419 13.4648 25.023 13.426 24.9873C13.4087 24.9736 13.3952 24.9557 13.3868 24.9353C13.3784 24.9148 13.3753 24.8926 13.378 24.8707C13.3827 24.8407 13.3907 24.8114 13.402 24.7833C13.4147 24.75 13.4434 24.6887 13.488 24.6C13.5127 24.5488 13.5414 24.4998 13.574 24.4533C13.6154 24.398 13.6554 24.3707 13.6934 24.3707C13.7251 24.3709 13.7565 24.3779 13.7853 24.3914C13.814 24.4049 13.8395 24.4244 13.86 24.4487C13.9074 24.4996 13.933 24.5671 13.9314 24.6367C13.9314 24.6735 13.9283 24.7103 13.922 24.7467L13.9054 24.8427C13.9007 24.87 13.8934 24.9033 13.884 24.9413C13.876 24.9752 13.8649 25.0082 13.8507 25.04L13.8474 25.042ZM13.1294 24.4307C13.1262 24.4923 13.1182 24.5536 13.1054 24.614C13.0894 24.6993 13.0734 24.7742 13.0574 24.8387L13 25.0667C12.968 25.1524 12.9427 25.2151 12.924 25.2547C12.9005 25.3035 12.8743 25.3509 12.8454 25.3967C12.8254 25.4287 12.8004 25.4573 12.7714 25.4813C12.7308 25.5102 12.6877 25.5354 12.6427 25.5567L12.4714 25.6233C12.4346 25.6347 12.3972 25.6438 12.3594 25.6507C12.3226 25.6597 12.2851 25.6659 12.2474 25.6693C12.2314 25.6693 12.222 25.664 12.2187 25.6533C12.2174 25.6466 12.2176 25.6397 12.2192 25.633C12.2208 25.6263 12.2238 25.6201 12.228 25.6147C12.2615 25.5697 12.3026 25.5309 12.3494 25.5C12.4147 25.4511 12.4791 25.4038 12.5427 25.358C12.6156 25.294 12.6696 25.2435 12.7047 25.2067C12.7593 25.1497 12.8072 25.0866 12.8474 25.0187C12.8636 24.9885 12.8772 24.9571 12.888 24.9247C12.9054 24.8771 12.9331 24.8 12.9714 24.6933L13.0287 24.528C13.0354 24.5033 13.0447 24.474 13.0574 24.4387C13.07 24.4033 13.086 24.386 13.1054 24.386C13.1171 24.3986 13.1253 24.414 13.1294 24.4307ZM20.5094 24.7933C20.5094 24.7567 20.5094 24.6973 20.5187 24.6147C20.5267 24.5164 20.5378 24.4187 20.552 24.3213L20.6334 23.762L20.6527 23.6427C20.6584 23.6187 20.66 23.5939 20.6574 23.5693L20.638 23.5787C20.6096 23.6369 20.5714 23.7224 20.5234 23.8353C20.4754 23.9482 20.45 24.0109 20.4474 24.0233C20.4251 24.1731 20.3965 24.3893 20.3614 24.672C20.3263 24.9547 20.3087 25.1138 20.3087 25.1493C20.3047 25.2684 20.3249 25.387 20.368 25.498C20.3848 25.541 20.4149 25.5775 20.4539 25.6022C20.4928 25.6269 20.5387 25.6385 20.5847 25.6353C20.6514 25.6353 20.7165 25.5858 20.78 25.4867C20.8555 25.3566 20.9087 25.2149 20.9374 25.0673L20.9494 25.008C20.9534 24.9898 20.9559 24.9713 20.9567 24.9527C20.9567 24.922 20.9487 24.9067 20.9327 24.9067C20.9167 24.9067 20.91 24.9207 20.902 24.948L20.8807 25.0213C20.8456 25.116 20.8058 25.1633 20.7614 25.1633C20.709 25.1648 20.6574 25.1504 20.6134 25.122C20.5756 25.0905 20.5463 25.0501 20.5281 25.0045C20.5098 24.9589 20.5031 24.9095 20.5087 24.8607V24.794L20.5094 24.7933ZM12.5334 23.4287C12.5395 23.4616 12.537 23.4956 12.526 23.5273C12.5121 23.5686 12.4945 23.6086 12.4734 23.6467C12.4484 23.6926 12.4154 23.7336 12.376 23.768C12.3603 23.7871 12.3384 23.8001 12.314 23.8047C12.2889 23.7963 12.2661 23.7821 12.2474 23.7633C12.218 23.7389 12.1878 23.7151 12.1567 23.692C12.1333 23.6743 12.111 23.6552 12.09 23.6347C12.075 23.6235 12.0648 23.6071 12.0614 23.5887C12.0805 23.5491 12.0947 23.5187 12.104 23.4973C12.136 23.4307 12.1594 23.3813 12.1754 23.3507C12.204 23.3047 12.2327 23.2573 12.2614 23.2087L12.29 23.1673C12.2989 23.176 12.3084 23.1838 12.3187 23.1907L12.3567 23.2133C12.405 23.2486 12.4497 23.2885 12.49 23.3327C12.5125 23.3604 12.5275 23.3935 12.5334 23.4287ZM15.0314 22.8193C15.0256 22.7842 15.0109 22.7511 14.9887 22.7233C14.9483 22.6792 14.9037 22.6392 14.8554 22.604L14.8174 22.5813C14.8071 22.5747 14.7975 22.5671 14.7887 22.5587L14.76 22.6C14.7316 22.6489 14.7029 22.6962 14.674 22.742C14.658 22.7727 14.6343 22.8215 14.6027 22.8887C14.5934 22.91 14.5787 22.9407 14.56 22.98C14.5635 22.9984 14.5737 23.0148 14.5887 23.026C14.6097 23.0465 14.632 23.0656 14.6554 23.0833C14.686 23.106 14.7163 23.1295 14.746 23.154C14.7647 23.1729 14.7875 23.187 14.8127 23.1953C14.8371 23.1908 14.859 23.1778 14.8747 23.1587C14.9143 23.1243 14.9475 23.0832 14.9727 23.0373C14.9939 22.9992 15.0115 22.9593 15.0254 22.918C15.0363 22.8863 15.0389 22.8523 15.0327 22.8193H15.0314ZM15.522 22.792C15.5282 22.825 15.5256 22.859 15.5147 22.8907C15.5008 22.932 15.4832 22.9719 15.462 23.01C15.4371 23.0559 15.4041 23.097 15.3647 23.1313C15.349 23.1505 15.3271 23.1635 15.3027 23.168C15.2776 23.1596 15.2548 23.1454 15.236 23.1267C15.2067 23.1022 15.1765 23.0784 15.1454 23.0553C15.122 23.0376 15.0997 23.0185 15.0787 22.998C15.0637 22.9868 15.0535 22.9704 15.05 22.952C15.0694 22.9127 15.0834 22.8813 15.0927 22.8607C15.1158 22.8113 15.1396 22.7624 15.164 22.714C15.1885 22.6655 15.2171 22.6182 15.25 22.572L15.2787 22.5307C15.2874 22.5392 15.2971 22.5468 15.3074 22.5533L15.3454 22.5767C15.3937 22.6119 15.4383 22.6519 15.4787 22.696C15.5014 22.7237 15.5165 22.7567 15.5227 22.792H15.522ZM19.9 22.758C19.9061 22.791 19.9036 22.8249 19.8927 22.8567C19.8789 22.898 19.8612 22.9379 19.84 22.976C19.815 23.0219 19.782 23.0629 19.7427 23.0973C19.727 23.1165 19.705 23.1294 19.6807 23.134C19.6556 23.1256 19.6327 23.1114 19.614 23.0927C19.5847 23.0682 19.5545 23.0444 19.5234 23.0213C19.4999 23.0037 19.4776 22.9846 19.4567 22.964C19.4417 22.9528 19.4314 22.9364 19.428 22.918C19.4471 22.8784 19.4614 22.848 19.4707 22.8267C19.5027 22.76 19.526 22.7107 19.542 22.68C19.5707 22.634 19.5994 22.5867 19.628 22.538L19.6567 22.4967C19.6655 22.5053 19.6751 22.5131 19.6854 22.52L19.7234 22.5427C19.7717 22.5778 19.8164 22.6178 19.8567 22.662C19.8795 22.6896 19.8947 22.7227 19.9007 22.758H19.9ZM15.274 22.2247C15.2681 22.1895 15.2532 22.1564 15.2307 22.1287C15.1905 22.0844 15.1458 22.0444 15.0974 22.0093L15.0594 21.9867C15.0491 21.9801 15.0395 21.9725 15.0307 21.964L15.002 22.0053C14.9734 22.054 14.9447 22.1013 14.916 22.1473C14.9 22.178 14.876 22.2267 14.8447 22.294C14.8354 22.3153 14.8207 22.346 14.8014 22.3853C14.8048 22.4037 14.815 22.4202 14.83 22.4313C14.8494 22.45 14.872 22.4693 14.8967 22.4913L14.9874 22.5627C15.0063 22.5805 15.0291 22.5937 15.054 22.6013C15.0784 22.5968 15.1003 22.5838 15.116 22.5647C15.1554 22.5303 15.1884 22.4892 15.2134 22.4433C15.2345 22.4052 15.2521 22.3653 15.266 22.324C15.2769 22.2923 15.2795 22.2583 15.2734 22.2253L15.274 22.2247ZM13.0294 5.89933L13.8767 7.36599V14.32L15.7334 15.6707V20.6153H13.5714V16.0607L11.438 13.9273V8.78666L10.1914 6.62733H9.0527L9.78604 5.89399L13.0294 5.89933ZM11.174 14.418L13.0407 16.2847V20.618H11.2874L8.64804 16.5593H4.03137C4.39937 15.6013 5.00471 15.026 5.76471 15.4093C5.77271 14.8 5.99271 14.4207 7.0207 14.4207L11.174 14.418ZM8.35804 17.09L10.6507 20.6153H9.56004L7.27271 17.09H8.35804ZM18.4287 20.6153H16.2667V15.6707L18.1234 14.3207V7.36666L18.9707 5.89999H22.212L22.9454 6.63333H21.8067L20.56 8.79266V13.9333L18.4267 16.0667L18.4287 20.6153ZM23.352 16.5567L20.7127 20.6153H18.962V16.282L20.8287 14.4153H24.98C26.008 14.4153 26.2287 14.7947 26.236 15.404C26.998 15.0187 27.6034 15.596 27.9694 16.554L23.352 16.5567ZM21.352 20.6153L23.6447 17.09H24.7307L22.44 20.6153H21.352ZM8.30537 19.6613H7.02271V19.0547H7.91137L8.30537 19.6613ZM24.978 19.6613H23.6947L24.0887 19.0547H24.9774L24.978 19.6613ZM16.7194 2.26666H18.6L18.606 5.46666L17.59 7.22666V14.0513L16.2667 15.0113V13.4287L16.7414 13.0833V3.22399H15.2587V13.0827L15.7334 13.428V15.0107L14.41 14.048V7.22399L13.394 5.46666L13.4 2.26666H15.2807V0.533325H16.72L16.7194 2.26666ZM9.2947 13.8847H9.82804V12.2947H9.2947V13.8847ZM10.3747 13.8847H10.908V8.93333L9.8867 7.16399H9.28204L10.3747 9.05666V13.8847ZM22.1747 13.8847H22.708V12.2947H22.1747V13.8847ZM21.628 13.8847H21.0947V8.93333L22.116 7.16399H22.7207L21.628 9.05666V13.8847Z" fill="#1F261A"/>
</g>
<defs>
<linearGradient id="paint0_linear_2843_19474" x1="5.3676" y1="16.032" x2="26.5831" y2="16.032" gradientUnits="userSpaceOnUse">
<stop stop-color="#ECE482"/>
<stop offset="1" stop-color="#D8AC4E"/>
</linearGradient>
<clipPath id="clip0_2843_19474">
<rect width="32" height="32" fill="white"/>
</clipPath>
</defs>
</svg>
