<svg width="32" height="32" viewBox="0 0 32 32" fill="none" xmlns="http://www.w3.org/2000/svg">
<g clip-path="url(#clip0_2843_19527)">
<path d="M0 25.0233L11.9807 15.646L0 21.6727V17.2273L17.2667 10.4667C17.6158 11.8332 18.4422 13.0297 19.5967 13.84L8.90133 32H4.39333L13.9873 18.086L0 32V25.0233ZM31.9673 31.9267L24.7593 14.6273C26.2517 14.1505 27.4938 13.1007 28.2127 11.7087L32 13.972V16.0927L29.5787 14.8893L32 18.1293V20.884L28.1333 17.2947L32 23.966V32L31.9673 31.9267ZM25.3333 32L22.9067 20.3693L22.7493 32H19.1453L19.982 20.6L16.7413 32H12.3747L19.9333 14.0553C21.2481 14.848 22.82 15.0969 24.3153 14.7493L28.8667 32H25.3333ZM0 10.6427L11.2307 9.13333L0 8.41333V5.04333L12.0153 6.604L0 3.14333V0H3.82867L17.748 6.30333C17.1433 7.47227 16.9462 8.80965 17.188 10.1033L0 14.724V10.6427ZM28.4 11.3153C29.0061 9.88286 29.0223 8.26909 28.4453 6.82467L32 5.966V7.51733L29.8793 8.092L32 8.498V10.0547L30.3247 10.1213L32 10.7413V12.8293L28.4 11.3153ZM25.1907 3.55667L27.14 0H29.306L27.016 3.73333L30.4613 0H32V1.64933L28.15 4.74133L32 2.81667V5.13867L28.3107 6.52067C27.6806 5.17536 26.5665 4.11701 25.1907 3.55667ZM7.46667 0H12.7667L16.196 2.43267L13.9713 0H16.662L18.0093 1.674L17.2627 0H19.2993L20.6993 3.58133C19.5396 4.06959 18.5656 4.91469 17.9187 5.994L7.46667 0ZM20.1633 0H21.8813L22.2813 1.47667L22.3333 0H23.9113L23.8 1.89933L24.386 0H26.2367L24.9127 3.45267C23.6447 3.01284 22.2648 3.01778 21 3.46667L20.1633 0Z" fill="#F29200"/>
</g>
<defs>
<clipPath id="clip0_2843_19527">
<rect width="32" height="32" fill="white"/>
</clipPath>
</defs>
</svg>
