<svg width="32" height="32" viewBox="0 0 32 32" fill="none" xmlns="http://www.w3.org/2000/svg">
<g clip-path="url(#clip0_2843_19970)">
<path d="M32.0001 4.484C29.4381 5.41053 27.1579 6.98146 25.3795 9.04533C21.5008 13.168 18.8195 18.912 17.2921 26.2013C17.2615 26.3487 16.9415 26.1153 16.9021 26.262C13.6028 24.8193 11.1855 20.252 9.99413 15.3287C9.62365 13.6442 9.11847 11.9922 8.48346 10.3887C11.1408 9.65533 13.9581 11.3273 16.9681 15.902C17.6975 13.3767 22.6668 6 22.6668 6L22.7195 5.80467C21.0667 4.3372 19.0823 3.29296 16.9368 2.76166C14.7914 2.23036 12.549 2.22788 10.4024 2.75445C8.2558 3.28101 6.26912 4.32087 4.61308 5.78468C2.95703 7.24849 1.68114 9.09249 0.895029 11.1582C0.108917 13.2239 -0.163912 15.4497 0.0999851 17.6441C0.363882 19.8385 1.15661 21.9361 2.41007 23.7566C3.66352 25.577 5.34022 27.0659 7.2961 28.0954C9.25197 29.1248 11.4285 29.664 13.6388 29.6667C22.8321 29.6667 26.2088 22.9587 28.5681 15.7087C29.7121 11.9673 30.6368 7.95133 32.0001 4.484Z" fill="#209B1C"/>
</g>
<defs>
<clipPath id="clip0_2843_19970">
<rect width="32" height="32" fill="white"/>
</clipPath>
</defs>
</svg>
