<svg width="32" height="32" viewBox="0 0 32 32" fill="none" xmlns="http://www.w3.org/2000/svg">
<g clip-path="url(#clip0_2843_20002)">
<path d="M12.4547 28.4667L21.3093 19.5653C23.9093 16.948 28.3487 18.032 30.0293 21.8493C28.2687 21.6913 26.552 21.418 25.0927 22.9053L15.9853 32L12.4547 28.4667ZM9.08467 25.1253L0 16.008L3.53333 12.4747L12.4233 21.3413C15.0373 23.9473 13.9567 28.388 10.142 30.0713C10.2967 28.3047 10.57 26.586 9.08467 25.1253ZM19.58 10.6547C16.966 8.04867 18.0467 3.60733 21.8607 1.92133C21.704 3.68467 21.4307 5.40333 22.9153 6.864L32 15.9847L28.47 19.518L19.58 10.6547ZM1.99267 10.1507C3.75533 10.308 5.47133 10.5813 6.93 9.09467L16.0373 0L19.5707 3.53333L10.7133 12.4347C10.2667 12.8901 9.73343 13.2514 9.14489 13.4974C8.55636 13.7433 7.92452 13.8689 7.28667 13.8667C6.13868 13.8284 5.02671 13.4565 4.08657 12.7966C3.14644 12.1367 2.41884 11.2173 1.99267 10.1507Z" fill="#029A4C"/>
<path d="M11 16C11 15.0111 11.2932 14.0444 11.8427 13.2222C12.3921 12.3999 13.173 11.759 14.0866 11.3806C15.0002 11.0022 16.0055 10.9031 16.9755 11.0961C17.9454 11.289 18.8363 11.7652 19.5355 12.4645C20.2348 13.1637 20.711 14.0546 20.9039 15.0246C21.0969 15.9945 20.9978 16.9998 20.6194 17.9134C20.241 18.827 19.6001 19.6079 18.7779 20.1573C17.9556 20.7068 16.9889 21 16 21C14.6739 21 13.4021 20.4732 12.4645 19.5355C11.5268 18.5979 11 17.3261 11 16" fill="#EB8C30"/>
</g>
<defs>
<clipPath id="clip0_2843_20002">
<rect width="32" height="32" fill="white"/>
</clipPath>
</defs>
</svg>
