<svg width="32" height="32" viewBox="0 0 32 32" fill="none" xmlns="http://www.w3.org/2000/svg">
<g clip-path="url(#clip0_2843_20486)">
<path d="M20.4247 32H11.954C11.8673 32.0005 11.7814 31.9837 11.7013 31.9506C11.6212 31.9175 11.5484 31.8688 11.4873 31.8073C11.3642 31.6833 11.2951 31.5155 11.2953 31.3407V30.562C11.2953 30.4757 11.3122 30.3902 11.3451 30.3105C11.3781 30.2308 11.4265 30.1583 11.4874 30.0972C11.5484 30.0362 11.6208 29.9878 11.7006 29.9547C11.7803 29.9217 11.8657 29.9047 11.952 29.9047H20.4247C20.511 29.9047 20.5964 29.9217 20.6761 29.9547C20.7558 29.9878 20.8283 30.0362 20.8892 30.0972C20.9502 30.1583 20.9986 30.2308 21.0315 30.3105C21.0645 30.3902 21.0814 30.4757 21.0813 30.562V31.3433C21.0814 31.4296 21.0645 31.5151 21.0315 31.5948C20.9986 31.6746 20.9502 31.7471 20.8892 31.8081C20.8283 31.8691 20.7558 31.9176 20.6761 31.9506C20.5964 31.9837 20.511 32.0007 20.4247 32.0007V32ZM20.902 29.02C19.6942 26.1024 18.2157 23.3044 16.486 20.6627L16.4893 20.658C16.8127 20.298 19.73 17.0947 22.504 15.536C24.8833 14.2 28.106 14 29.816 14C30.6393 14 31.1633 14.0453 31.1673 14.0453C30.3386 14.3245 29.5402 14.687 28.7847 15.1273C27.098 16.0696 25.6436 17.3773 24.528 18.9547C23.9007 19.874 22.936 21.6927 21.9027 25.1373C21.262 27.2747 20.9027 29.004 20.9027 29.0173L20.902 29.02ZM19.6953 28.9467H11.318C10.5485 27.8459 10.0059 26.6028 9.72201 25.29C9.09468 22.1967 8.29001 20.0033 7.32934 18.772C5.13734 15.9647 0.87601 14.184 0.833344 14.166C0.833344 14.166 0.838677 14.166 0.847344 14.166C1.46612 14.0839 2.08983 14.0447 2.71401 14.0487C5.38068 14.0487 10.3647 14.6967 13.8067 19.036C16.19 22.04 19.658 28.8807 19.692 28.9487L19.6953 28.9467Z" fill="#002263"/>
<path d="M16 18C15.1912 18.013 14.3968 17.785 13.7179 17.3451C13.0391 16.9052 12.5065 16.2732 12.188 15.5296C11.8694 14.7861 11.7793 13.9646 11.9292 13.1696C12.079 12.3747 12.4619 11.6424 13.0293 11.0658C13.5966 10.4892 14.3227 10.0944 15.1151 9.93179C15.9075 9.76915 16.7304 9.84596 17.479 10.1524C18.2276 10.4589 18.8681 10.9812 19.3189 11.6529C19.7697 12.3245 20.0105 13.1151 20.0106 13.924C20.0181 14.996 19.6 16.0272 18.8481 16.7913C18.0963 17.5555 17.072 17.9902 16 18ZM10.6 12.8854C8.78331 12.8854 5.49797 12.8187 3.89997 12.3867C3.47107 12.2667 3.1068 11.9824 2.88625 11.5955C2.6657 11.2085 2.60667 10.7502 2.72197 10.32C2.81434 9.96244 3.02254 9.64552 3.31406 9.41877C3.60558 9.19202 3.96399 9.06822 4.33331 9.0667C4.47924 9.06616 4.62457 9.08544 4.76531 9.12403C5.91442 9.49641 7.02455 9.9798 8.07997 10.5674C9.27997 11.194 10.466 11.8787 11.2486 12.3434C11.1926 12.52 11.1454 12.6993 11.1073 12.8807H11.034L10.6 12.8854ZM21.4506 12.8854H21.384H20.8926C20.8564 12.7036 20.8092 12.5241 20.7513 12.348C22.106 11.5414 25.4486 9.61469 27.234 9.12869C27.3747 9.08821 27.5203 9.06735 27.6666 9.0667H27.6833C28.0884 9.0759 28.4767 9.23033 28.7774 9.50186C29.0782 9.77339 29.2714 10.1439 29.3218 10.546C29.3722 10.948 29.2765 11.3548 29.0521 11.6922C28.8277 12.0296 28.4896 12.2751 28.0993 12.384C26.512 12.8187 23.2533 12.8847 21.452 12.8847L21.4506 12.8854ZM11.6933 11.3434C9.83464 10.7174 6.49731 9.51936 5.03264 8.52803C4.66488 8.27569 4.41075 7.88918 4.32487 7.45152C4.23898 7.01386 4.32818 6.55997 4.57331 6.18736C4.69304 6.00344 4.84821 5.84522 5.02977 5.72194C5.21133 5.59866 5.41564 5.51278 5.63075 5.46934C5.84587 5.42589 6.06748 5.42575 6.28266 5.4689C6.49783 5.51206 6.70225 5.59766 6.88397 5.7207C8.35064 6.71469 10.7193 9.37869 11.9993 10.878C11.8888 11.0265 11.7868 11.1812 11.694 11.3414L11.6933 11.3434ZM20.2813 11.2994C20.1866 11.1407 20.0836 10.9871 19.9726 10.8394C21.002 9.62736 23.56 6.70003 25.0793 5.66603C25.3526 5.47952 25.6758 5.37984 26.0066 5.38003C26.2812 5.38027 26.5514 5.44861 26.793 5.57892C27.0347 5.70923 27.2403 5.89744 27.3913 6.12669C27.6364 6.49909 27.7256 6.95271 27.64 7.3902C27.5544 7.82768 27.3007 8.21417 26.9333 8.46669C25.4666 9.46269 22.1333 10.6667 20.278 11.298L20.2813 11.2994ZM12.7493 10.0667C11.4966 9.09803 8.46664 6.69069 7.35331 5.21536C7.08551 4.85856 6.96831 4.41096 7.0269 3.9687C7.08548 3.52644 7.31518 3.1248 7.66664 2.85003C7.84014 2.71608 8.03856 2.61799 8.25034 2.56149C8.46212 2.50499 8.68303 2.49119 8.9002 2.52091C9.11737 2.55063 9.32645 2.62328 9.51526 2.7346C9.70407 2.84593 9.86884 2.99372 9.99997 3.16936C11.0666 4.5827 12.4526 7.8827 13.1846 9.72403C13.0327 9.82971 12.8865 9.94342 12.7466 10.0647L12.7493 10.0667ZM19.2233 10.0427C19.0843 9.92436 18.9395 9.81311 18.7893 9.70936C19.5226 7.86336 20.9173 4.55669 21.984 3.1407C22.1152 2.96513 22.2801 2.81745 22.4689 2.70625C22.6578 2.59506 22.867 2.52258 23.0841 2.49305C23.3013 2.46351 23.5222 2.4775 23.7339 2.53422C23.9457 2.59093 24.144 2.68922 24.3173 2.82336C24.6689 3.09803 24.8987 3.49969 24.9573 3.942C25.0159 4.38431 24.8986 4.83195 24.6306 5.18869C23.564 6.60869 20.7833 8.83936 19.222 10.0427H19.2233ZM17.86 9.20736C17.6878 9.13744 17.512 9.0769 17.3333 9.02603C17.4213 7.43269 17.6906 3.53936 18.2726 1.78803C18.3815 1.45476 18.5926 1.1643 18.876 0.957951C19.1594 0.751606 19.5007 0.63989 19.8513 0.638696C20.0327 0.638327 20.213 0.668065 20.3846 0.726696C20.8052 0.874348 21.1507 1.1817 21.3464 1.58222C21.542 1.98274 21.5721 2.4442 21.43 2.8667C20.8693 4.5547 18.9533 7.56469 17.8606 9.20869L17.86 9.20736ZM14.14 9.20736C13.0446 7.56003 11.1266 4.54603 10.568 2.8667C10.4268 2.44419 10.4575 1.9831 10.6535 1.58305C10.8494 1.18299 11.1949 0.876107 11.6153 0.728696C11.787 0.669932 11.9672 0.640191 12.1486 0.640696C12.4994 0.64161 12.841 0.753197 13.1247 0.959561C13.4084 1.16593 13.6198 1.45655 13.7286 1.79003C14.2866 3.4767 14.5553 7.04803 14.6666 9.02669C14.488 9.07691 14.3124 9.13723 14.1406 9.20736H14.14ZM15.7213 8.85136C15.2 6.9387 14.3333 3.4667 14.3333 1.68803C14.3333 1.246 14.5089 0.822078 14.8215 0.509518C15.134 0.196957 15.5579 0.0213623 16 0.0213623C16.442 0.0213623 16.8659 0.196957 17.1785 0.509518C17.491 0.822078 17.6666 1.246 17.6666 1.68803C17.6666 3.4687 16.8 6.94003 16.2793 8.85069C16.1906 8.84603 16.0973 8.84336 16.0006 8.84336C15.904 8.84336 15.8106 8.84336 15.722 8.85136H15.7213Z" fill="#0BBBB9"/>
</g>
<defs>
<clipPath id="clip0_2843_20486">
<rect width="32" height="32" fill="white"/>
</clipPath>
</defs>
</svg>
