<svg width="32" height="32" viewBox="0 0 32 32" fill="none" xmlns="http://www.w3.org/2000/svg">
<g clip-path="url(#clip0_2843_19842)">
<path fill-rule="evenodd" clip-rule="evenodd" d="M2 32H30V31.7047H2V32ZM2 31.5733H30V30.8707H2V31.5733ZM18.714 7.7L16.714 20.3667C16.714 20.3667 16.574 22.6 17.7293 23.8667C18.2855 24.353 18.9206 24.7408 19.6073 25.0133C19.9249 25.1725 20.2049 25.3975 20.4286 25.6734C20.6523 25.9493 20.8146 26.2697 20.9047 26.6133C21.0593 27.704 19.9047 27.85 19.2907 27.6173C18.7211 27.3819 18.1062 27.276 17.4907 27.3073C17.0571 27.27 16.6265 27.4062 16.2933 27.686C15.96 27.9659 15.7515 28.3665 15.7133 28.8C15.7311 29.1868 15.8584 29.5606 16.0802 29.878C16.3021 30.1953 16.6095 30.4431 16.9667 30.5927C16.9667 30.5927 15.748 30.5993 14.8027 30.608C9.24 30.6613 7.33333 26.8453 6.624 22.442L4.24533 7.7H18.714ZM28.274 30.5813H18.5487C18.5487 30.5813 16.474 30.5413 16.4993 29.0607C16.52 27.8607 17.84 27.474 19.3867 27.994C20.0203 28.1205 20.6618 28.2042 21.3067 28.2447C22.1453 28.354 23.1467 28.2053 24.4087 28.76C24.6058 28.7813 24.8045 28.7833 25.002 28.766C25.2447 28.7733 25.5307 28.8387 25.5953 28.8167C25.9593 28.692 26.1453 28.4987 26.5013 28.506C26.5703 28.5173 26.6362 28.5426 26.695 28.5803C26.7538 28.6181 26.8043 28.6674 26.8433 28.7253C26.919 28.6389 27.0255 28.5855 27.14 28.5767C27.442 28.5767 27.56 29.0227 27.748 29.3027C27.9831 29.3919 28.1939 29.5352 28.3632 29.7212C28.5326 29.9071 28.6557 30.1303 28.7227 30.3727C28.7393 30.4393 28.568 30.5307 28.5153 30.4873C28.0806 29.963 27.6193 29.4612 27.1333 28.984C27.0667 28.984 27.236 29.332 27.2707 29.4507C27.004 29.2813 26.5327 28.6227 26.3427 28.8153C26.1087 29.0533 26.9253 29.6273 26.584 29.744C26.3993 29.8067 26.0013 29.4327 25.5207 29.2773C25.1207 29.15 24.314 29.224 24.2013 29.1547C23.2853 28.5907 20.9907 28.6707 19.302 28.5413C19.0147 28.5193 18.676 28.3487 18.2587 28.3127C17.6973 28.264 17.116 28.4633 17.1253 29.12C17.157 29.4041 17.2982 29.6648 17.5189 29.8465C17.7395 30.0282 18.0224 30.1168 18.3073 30.0933C20.4733 30.16 24.1347 30.0633 24.1347 30.0633L23.668 29.7227C23.668 29.7227 19.496 29.696 18.5487 29.656C18.4722 29.6495 18.3979 29.6275 18.3303 29.5912C18.2627 29.5549 18.2033 29.5051 18.1557 29.445C18.1081 29.3848 18.0733 29.3155 18.0535 29.2414C18.0337 29.1673 18.0294 29.0899 18.0407 29.014C18.146 28.6933 18.6507 28.784 18.6507 28.784C18.6507 28.784 19.192 28.8507 19.47 28.8653C20.9359 28.9283 22.3937 29.117 23.8273 29.4293C24.1447 29.5233 24.7087 29.486 25.0973 29.5567C25.6678 29.6343 26.2027 29.8782 26.6353 30.258H27.056C27.0236 30.1044 27.0207 29.946 27.0473 29.7913C27.1033 29.704 27.1953 29.7293 27.2953 29.766C27.3953 29.8027 27.4953 29.9393 27.5773 29.962C27.6593 29.9847 27.6867 29.874 27.7773 29.892C27.9633 29.9293 28.1107 30.1767 28.216 30.3447C28.2492 30.4195 28.2689 30.4996 28.274 30.5813ZM14.044 28.3333C14.0125 28.409 13.9971 28.4904 13.9989 28.5724C14.0007 28.6544 14.0195 28.7351 14.0543 28.8093C14.0891 28.8836 14.139 28.9497 14.2008 29.0036C14.2626 29.0574 14.335 29.0978 14.4133 29.122L12.5333 29.672C12.474 29.6894 12.4118 29.6949 12.3503 29.6882C12.2888 29.6815 12.2293 29.6627 12.175 29.633C12.1208 29.6033 12.0729 29.5632 12.0342 29.515C11.9955 29.4668 11.9666 29.4114 11.9493 29.352C11.9351 29.3028 11.9307 29.2513 11.9363 29.2004C11.942 29.1494 11.9577 29.1002 11.9825 29.0553C12.0073 29.0105 12.0406 28.971 12.0807 28.9391C12.1208 28.9071 12.1668 28.8834 12.216 28.8693L14.044 28.3333ZM15.6913 27.8667C15.6493 28.2147 15.592 28.5193 15.5433 28.8L14.7787 29.0233C14.554 28.9793 14.3207 28.8707 14.2867 28.6127C14.2821 28.5319 14.2997 28.4514 14.3377 28.3799C14.3757 28.3084 14.4325 28.2488 14.502 28.2073L15.6913 27.8667ZM14.0553 27.2667C13.8107 27.6 13.928 27.9067 14.3407 28.08L12.468 28.6267C12.4086 28.644 12.3464 28.6495 12.285 28.6428C12.2235 28.6362 12.1639 28.6174 12.1097 28.5877C12.0554 28.558 12.0076 28.5179 11.9689 28.4696C11.9302 28.4214 11.9013 28.366 11.884 28.3067C11.8697 28.2575 11.8653 28.2059 11.871 28.155C11.8767 28.1041 11.8924 28.0548 11.9172 28.01C11.9419 27.9651 11.9753 27.9256 12.0154 27.8937C12.0554 27.8618 12.1014 27.8381 12.1507 27.824L14.0553 27.2667ZM21.122 15.286C19.8734 16.0134 18.8463 17.0668 18.1507 18.3333C18.11 18.414 18.0173 18.592 17.944 18.7287C17.7643 19.0828 17.6084 19.4485 17.4773 19.8233C17.3621 20.182 17.273 20.5485 17.2107 20.92C17.0942 21.3529 17.0767 21.8064 17.1596 22.247C17.2425 22.6875 17.4235 23.1037 17.6893 23.4647C18.0607 23.8847 18.362 24.0587 19.668 24.6113C19.8653 24.6966 20.0578 24.7925 20.2447 24.8987C20.7356 25.1559 21.1138 25.5861 21.3062 26.1059C21.4985 26.6258 21.4913 27.1985 21.286 27.7133C21.2193 27.884 21.184 27.8913 22.0633 27.9647C22.7584 27.989 23.4469 28.1076 24.11 28.3173C23.9953 26.864 23.71 22.944 23.6107 22.04C23.5973 21.9173 23.5333 21.9013 23.466 21.9C23.1783 21.9137 22.8908 21.8683 22.6213 21.7667C22.7182 21.6438 22.8377 21.5406 22.9733 21.4627L22.538 21.4447C21.8987 21.3813 21.7493 21.09 22.342 20.786C22.342 20.786 21.5167 20.8853 21.518 20.1813C21.518 20.048 21.5367 19.9967 21.656 20.0273C21.7753 20.058 22.03 20.0513 22.0287 20.02C22.0287 19.946 21.8733 19.91 21.794 19.8787C21.7147 19.8465 21.6442 19.796 21.5881 19.7313C21.532 19.6667 21.492 19.5897 21.4713 19.5067C21.4173 19.3447 21.4847 19.3067 21.7233 19.1973C22.042 19.0533 22.0527 18.922 21.7747 18.922C21.196 18.922 21.2047 18.0247 21.7413 17.558C22.008 17.3247 22.0273 17.2453 21.8433 17.1853C21.6585 17.0952 21.5017 16.9566 21.3897 16.7842C21.2776 16.6118 21.2146 16.4121 21.2073 16.2067C21.2353 15.5853 22.6473 15.2593 22.874 15.828C22.9347 15.978 23.2 16.0073 23.1933 15.8193C23.19 15.7233 23.368 15.5527 23.574 15.4687C23.6647 15.43 23.4227 15.2687 23.2467 15.1847C22.8007 15.0288 22.3215 14.9931 21.8573 15.0813C21.6029 15.1112 21.3547 15.181 21.122 15.288V15.286ZM15.746 26.7753C15.7527 27.078 15.7411 27.3807 15.7113 27.682L14.744 27.9647C14.2353 27.9053 14.058 27.5587 14.3393 27.186L15.746 26.7753ZM16.0667 27.6833C16.1435 26.1841 15.906 24.6854 15.3693 23.2833C14.4553 21.35 12.3733 19.2833 11.178 17.9193C10.9998 17.6816 10.9049 17.3918 10.908 17.0947C11.0173 15.8167 12.83 16.1127 12.83 16.1127C12.8525 16.3183 12.8942 16.5215 12.9547 16.7193C13.5547 18.2153 15.4027 20.074 16.278 21.8013C17.0264 23.5268 17.6414 25.3071 18.1173 27.1267C17.1113 27.0047 16.4193 27.1827 16.0667 27.6833ZM13.8847 26.2513C13.8512 26.3256 13.8334 26.4059 13.8324 26.4874C13.8314 26.5688 13.8472 26.6496 13.8788 26.7247C13.9104 26.7997 13.9571 26.8675 14.016 26.9237C14.075 26.9799 14.1449 27.0233 14.2213 27.0513L12.3547 27.5967C12.2953 27.614 12.2331 27.6195 12.1716 27.6128C12.1101 27.6062 12.0506 27.5874 11.9964 27.5577C11.9421 27.528 11.8943 27.4879 11.8555 27.4396C11.8168 27.3914 11.788 27.336 11.7707 27.2767C11.7564 27.2275 11.752 27.1759 11.7577 27.125C11.7634 27.0741 11.779 27.0248 11.8038 26.98C11.8286 26.9351 11.862 26.8956 11.902 26.8637C11.9421 26.8318 11.9881 26.8081 12.0373 26.794L13.8847 26.2513ZM15.656 25.7333C15.6994 26.0223 15.7277 26.3134 15.7407 26.6053L14.722 26.9027C14.6292 26.9079 14.5363 26.8923 14.4504 26.8568C14.3644 26.8214 14.2875 26.7671 14.2253 26.698C14.1649 26.6088 14.1406 26.4999 14.1574 26.3934C14.1743 26.287 14.2309 26.1909 14.316 26.1247L15.656 25.7333ZM13.6627 25.2547C13.6164 25.3263 13.5883 25.4081 13.5807 25.4931C13.573 25.578 13.5862 25.6636 13.619 25.7423C13.6518 25.821 13.7033 25.8906 13.769 25.945C13.8346 25.9994 13.9125 26.0371 13.996 26.0547L12.084 26.6127C11.9642 26.6475 11.8354 26.6334 11.726 26.5733C11.6717 26.5437 11.6239 26.5036 11.5851 26.4555C11.5463 26.4073 11.5174 26.352 11.5 26.2927C11.4857 26.2435 11.4813 26.1919 11.487 26.141C11.4927 26.0901 11.5084 26.0408 11.5332 25.996C11.5579 25.9511 11.5913 25.9116 11.6314 25.8797C11.6714 25.8478 11.7174 25.8241 11.7667 25.81L13.6627 25.2547ZM15.4547 24.7313C15.53 25.0307 15.588 25.312 15.632 25.576L14.3967 25.9367C13.9027 25.894 13.7907 25.5953 13.956 25.1687L15.4547 24.7313ZM13.3213 24.2913C13.1727 24.8493 13.4353 24.978 13.7367 25.0667L11.7833 25.6367C11.724 25.654 11.6618 25.6595 11.6003 25.6528C11.5388 25.6462 11.4793 25.6274 11.425 25.5977C11.3708 25.568 11.3229 25.5279 11.2842 25.4796C11.2455 25.4314 11.2166 25.376 11.1993 25.3167C11.1851 25.2675 11.1807 25.2159 11.1863 25.165C11.192 25.1141 11.2077 25.0648 11.2325 25.02C11.2573 24.9751 11.2906 24.9356 11.3307 24.9037C11.3708 24.8718 11.4168 24.8481 11.466 24.834L13.3213 24.2913ZM15.1687 23.752C15.2653 24.0413 15.3473 24.3153 15.416 24.576L14.016 24.9853C13.9179 24.9581 13.8278 24.9074 13.7535 24.8378C13.6792 24.7681 13.6229 24.6815 13.5893 24.5853C13.5697 24.5153 13.5691 24.4412 13.5878 24.3709C13.6064 24.3005 13.6435 24.2365 13.6953 24.1853L15.1687 23.752ZM12.9173 23.3773C12.8753 23.4493 12.8518 23.5305 12.8487 23.6138C12.8456 23.6971 12.8631 23.7798 12.8996 23.8547C12.9361 23.9296 12.9905 23.9943 13.0581 24.0432C13.1256 24.092 13.2041 24.1234 13.2867 24.1347L11.3533 24.6993C11.2944 24.7166 11.2326 24.7221 11.1715 24.7155C11.1104 24.7089 11.0512 24.6902 10.9973 24.6607C10.9433 24.6312 10.8957 24.5914 10.8571 24.5434C10.8186 24.4955 10.7899 24.4404 10.7727 24.3813C10.7584 24.3322 10.754 24.2808 10.7597 24.23C10.7654 24.1792 10.7811 24.13 10.806 24.0853C10.8308 24.0406 10.8643 24.0012 10.9045 23.9695C10.9446 23.9378 10.9907 23.9144 11.04 23.9007L12.9173 23.3773ZM14.766 22.8107C14.9043 23.0638 15.0218 23.3278 15.1173 23.6L13.6227 24.036C13.5066 24.0339 13.3948 23.9915 13.3065 23.9161C13.2182 23.8407 13.1589 23.737 13.1387 23.6227C13.1324 23.5587 13.1404 23.4941 13.162 23.4336C13.1837 23.3731 13.2185 23.3181 13.264 23.2727L14.766 22.8107ZM12.3707 22.494C12.3383 22.5675 12.3234 22.6475 12.3269 22.7277C12.3304 22.808 12.3524 22.8863 12.3911 22.9567C12.4297 23.0271 12.4841 23.0876 12.5499 23.1336C12.6157 23.1796 12.6913 23.2099 12.7707 23.222L10.8253 23.79C10.711 23.8234 10.5882 23.8104 10.4834 23.7537C10.3787 23.697 10.3006 23.6013 10.266 23.4873C10.2516 23.4401 10.2468 23.3905 10.2519 23.3414C10.2569 23.2923 10.2717 23.2447 10.2953 23.2013C10.319 23.158 10.351 23.1198 10.3896 23.089C10.4282 23.0583 10.4725 23.0355 10.52 23.022L12.3707 22.494ZM14.1987 21.9193C14.3728 22.1596 14.5339 22.4091 14.6813 22.6667L13.118 23.1233C13.0341 23.1216 12.952 23.0993 12.8787 23.0584C12.8055 23.0175 12.7434 22.9592 12.698 22.8887C12.6526 22.8182 12.6252 22.7376 12.6182 22.654C12.6112 22.5704 12.6249 22.4864 12.658 22.4093L14.1987 21.9193ZM11.6053 21.656C11.7193 22.0833 11.8527 22.3013 12.0247 22.376L10.206 22.9093C10.1498 22.9257 10.0908 22.9309 10.0326 22.9245C9.97439 22.9181 9.91799 22.9002 9.86667 22.872C9.81531 22.8438 9.77003 22.8057 9.73342 22.7599C9.69682 22.7142 9.6696 22.6616 9.65333 22.6053C9.63996 22.5596 9.63573 22.5117 9.64088 22.4644C9.64603 22.417 9.66045 22.3711 9.68333 22.3293C9.70613 22.2876 9.73694 22.2507 9.77401 22.2208C9.81107 22.191 9.85366 22.1687 9.89933 22.1553L11.6053 21.656ZM13.5387 21.0913C13.7293 21.314 13.9147 21.5413 14.0893 21.7733L12.4433 22.254C12.3631 22.2433 12.2866 22.2133 12.2206 22.1665C12.1545 22.1197 12.1009 22.0575 12.0643 21.9853C12.0276 21.9131 12.0092 21.833 12.0104 21.7521C12.0116 21.6712 12.0325 21.5917 12.0713 21.5207L13.5387 21.0913ZM10.8347 20.8313C10.8666 20.8458 10.897 20.8634 10.9253 20.884C11.1113 21.028 10.8653 21.29 11.41 21.5147L9.47667 22.0787C9.42002 22.0952 9.36067 22.1004 9.30201 22.0941C9.24334 22.0877 9.18651 22.0698 9.13476 22.0414C9.083 22.0131 9.03734 21.9748 9.00038 21.9288C8.96342 21.8828 8.93588 21.83 8.91933 21.7733C8.89213 21.6798 8.90316 21.5794 8.95 21.494C8.97318 21.4517 9.00449 21.4143 9.04212 21.3841C9.07976 21.3539 9.12299 21.3315 9.16933 21.318L10.8347 20.8313ZM22.194 18.6807C22.316 18.6573 22.3167 18.8407 22.2067 19.1207C22.0887 19.4227 21.6927 19.454 21.73 19.5127C21.8933 19.7793 22.4127 19.674 22.5527 19.7193C22.654 19.752 22.498 20.1067 22.1667 20.324C21.924 20.4833 22.0047 20.558 22.324 20.5807C22.4707 20.5913 22.6767 20.4473 22.8727 20.4473C22.9393 20.4473 22.9267 20.818 22.7267 20.9687C22.26 21.3227 22.6393 21.308 23.2253 21.1427C23.5527 21.0507 23.492 21.1527 23.3687 21.3913C23.2927 21.536 23.1387 21.6107 23.1847 21.658C23.352 21.7123 23.5325 21.7099 23.6984 21.6512C23.8642 21.5925 24.0061 21.4808 24.102 21.3333C24.1687 21.2473 24.188 21.1227 24.006 20.9867C23.405 20.5145 23.0061 19.8314 22.89 19.076C22.808 18.512 22.7905 17.9406 22.838 17.3727C22.8747 17.2113 22.8327 17.216 22.428 17.4207C21.4513 17.9153 21.2847 18.8567 22.194 18.682V18.6807ZM24.8573 19.3333C23.5073 19.3453 23.1513 20.2413 24.1907 20.8733C24.354 20.9727 24.3187 21.0027 24.3187 21.14C24.3273 21.228 24.3677 21.3098 24.4322 21.3703C24.4967 21.4307 24.581 21.4657 24.6693 21.4687C25.0253 21.5 25.22 21.37 25.286 20.9267C25.3274 20.6913 25.4368 20.4732 25.6007 20.2993C25.7053 20.158 25.7533 20.0667 25.7253 20.056C25.6733 20.0367 25.536 20.0687 25.428 20.252C25.3471 20.3765 25.2369 20.4794 25.1071 20.5515C24.9773 20.6235 24.8318 20.6627 24.6833 20.6656C24.5348 20.6684 24.3879 20.6348 24.2554 20.5677C24.1229 20.5006 24.0089 20.402 23.9233 20.2807C23.778 19.9713 24.0367 19.5473 24.9707 19.5473C25.6287 19.5473 25.6527 19.5713 25.7133 19.7933C25.762 19.9707 25.8753 19.8987 26.1133 19.5387C26.506 18.9453 26.4547 18.8427 26.0533 19.0613C25.6865 19.2581 25.2732 19.3521 24.8573 19.3333ZM12.7907 20.2667C12.9953 20.4853 13.2013 20.7093 13.4027 20.9393L11.81 21.406C11.6464 21.3646 11.502 21.2681 11.4013 21.1327C11.3542 21.06 11.3334 20.9734 11.3424 20.8873C11.3513 20.8011 11.3896 20.7207 11.4507 20.6593L12.7907 20.2667ZM10.3333 19.9333C10.228 20.328 10.3427 20.504 10.7293 20.6293L8.78933 21.1953C8.73309 21.2117 8.67418 21.2168 8.61595 21.2104C8.55773 21.204 8.50134 21.1862 8.45 21.158C8.39857 21.1298 8.35319 21.0917 8.31647 21.046C8.27976 21.0002 8.25241 20.9477 8.236 20.8913C8.2224 20.8448 8.21823 20.796 8.22372 20.7478C8.22921 20.6996 8.24427 20.653 8.268 20.6107C8.29167 20.5683 8.32356 20.5311 8.36179 20.5012C8.40003 20.4713 8.44384 20.4494 8.49067 20.4367L10.3333 19.9333ZM11.9927 19.422C12.1927 19.6347 12.402 19.8533 12.614 20.0787L11.0667 20.5333C10.9851 20.5304 10.9059 20.5052 10.8375 20.4606C10.7691 20.416 10.7142 20.3536 10.6786 20.2801C10.6431 20.2066 10.6282 20.1248 10.6356 20.0436C10.643 19.9623 10.6724 19.8845 10.7207 19.8187L11.9927 19.422ZM9.562 19.1027C9.53267 19.5447 9.82267 19.6887 10.1227 19.7427L8.13333 20.3227C8.00665 20.3597 7.87053 20.3461 7.75372 20.2846C7.63691 20.2232 7.54856 20.1187 7.50733 19.9933L7.476 19.898C7.46344 19.8597 7.45903 19.8193 7.46305 19.7792C7.46707 19.7391 7.47943 19.7003 7.49933 19.6653C7.51913 19.6303 7.54603 19.5999 7.57829 19.5759C7.61054 19.5519 7.64746 19.5349 7.68667 19.526L9.562 19.1027ZM24.546 19.9027C24.6814 19.8873 24.8186 19.9036 24.9466 19.9505C25.0746 19.9974 25.1899 20.0734 25.2833 20.1727C25.3067 20.1967 25.3347 20.116 25.35 20.0787C25.39 19.994 25.468 19.9053 25.3867 19.8473C25.076 19.7201 24.7301 19.7081 24.4113 19.8133C24.2 19.8753 24.296 19.9013 24.5467 19.9L24.546 19.9027ZM11.2533 18.5933C11.426 18.8027 11.62 19.02 11.828 19.244L10.4527 19.644C10.3641 19.6494 10.2754 19.6341 10.1937 19.5994C10.112 19.5648 10.0395 19.5116 9.98179 19.4442C9.9241 19.3767 9.88283 19.2968 9.86124 19.2107C9.83964 19.1246 9.83831 19.0347 9.85733 18.948L10.0453 18.832L11.2533 18.5933ZM9 18.2133C9.02994 18.3439 9.08838 18.4662 9.17113 18.5716C9.25388 18.6769 9.3589 18.7627 9.47867 18.8227L7.39533 19.3427C7.31747 19.3622 7.23544 19.3565 7.16097 19.3266C7.08649 19.2967 7.02339 19.2439 6.98067 19.176L6.79333 18.878C6.76575 18.8342 6.7498 18.7841 6.747 18.7324C6.7442 18.6807 6.75464 18.6292 6.77733 18.5827C6.80001 18.5361 6.8342 18.4961 6.87667 18.4665C6.91914 18.4368 6.96848 18.4186 7.02 18.4133L9 18.2133ZM24.528 18.7167C24.4411 18.8669 24.3303 19.002 24.2 19.1167C24.7064 19.1685 25.2178 19.1 25.6927 18.9167C25.8597 18.8244 26.0534 18.7922 26.2413 18.8253C26.3367 18.85 26.32 18.71 26.2333 18.4553C26.056 17.9353 25.748 17.7787 25.3207 17.9267C24.9702 18.0863 24.6889 18.3667 24.528 18.7167ZM24.4873 17.6273C24.3555 17.7573 24.2166 17.8799 24.0713 17.9947C23.574 18.3413 23.3513 18.6847 23.5433 18.8747C23.8707 19.198 24.48 18.6547 24.4893 18.004C24.4933 17.73 24.7287 17.4647 25.38 17.3873C25.554 17.3667 25.602 17.2993 25.4107 17.3027C25.274 17.3009 25.1374 17.3066 25.0013 17.32C24.8074 17.3789 24.6309 17.4844 24.4873 17.6273ZM10.6927 17.784C10.8144 18.0083 10.9558 18.2214 11.1153 18.4207L9.774 18.7493C9.49667 18.616 9.10733 18.1773 9.43467 17.8907L10.6927 17.784ZM25.186 17.6507C25.3927 17.6092 25.606 17.6139 25.8107 17.6647C25.9849 17.7264 26.1399 17.8328 26.2601 17.9732C26.3804 18.1136 26.4617 18.283 26.496 18.4647C26.5027 18.61 26.5913 18.6773 26.6333 18.512C26.7123 18.3002 26.7634 18.079 26.7853 17.854C26.7853 17.804 26.78 17.7167 26.7373 17.6893C26.6315 17.6727 26.5245 17.6642 26.4173 17.664C26.2843 17.6428 26.1544 17.6052 26.0307 17.552C25.7446 17.4576 25.4363 17.4539 25.148 17.5413C25.0933 17.5547 25.0067 17.672 25.186 17.6487V17.6507ZM8.92533 18.084L6.83933 18.142C6.74764 18.1446 6.65809 18.114 6.58717 18.0558C6.51625 17.9976 6.46872 17.9158 6.45333 17.8253L6.41667 17.61C6.40223 17.5254 6.4076 17.4387 6.43235 17.3566C6.4571 17.2744 6.50057 17.1992 6.55933 17.1367C6.61843 17.0738 6.69138 17.0255 6.7724 16.9958C6.85341 16.966 6.94025 16.9556 7.026 16.9653C7.66333 17.032 8.18667 17.0947 8.506 17.13C8.54063 17.4839 8.68757 17.8175 8.92533 18.082V18.084ZM23.3333 17.8513C23.44 17.9388 23.5763 17.9815 23.7138 17.9706C23.8513 17.9596 23.9792 17.8959 24.0707 17.7927C24.1988 17.5811 24.3813 17.4077 24.5991 17.2904C24.8169 17.1732 25.0622 17.1164 25.3093 17.126C25.48 17.126 25.402 17.048 25.2473 16.902C25.1745 16.8222 25.0828 16.7621 24.9806 16.7271C24.8784 16.6922 24.7691 16.6835 24.6627 16.702C24.4727 16.7127 24.4067 16.702 24.4067 16.6433C24.4067 16.4107 24.0033 16.2673 23.726 16.4387C23.2407 16.7453 23.024 17.544 23.3333 17.8513ZM25.0073 16.9673C25.0233 16.9927 24.5967 17.1133 24.424 17.234C24.3664 17.2836 24.3061 17.3299 24.2433 17.3727C24.1109 17.3835 23.9792 17.3445 23.874 17.2633C23.7687 17.142 23.8287 16.8633 24.024 16.8633C24.1427 16.8633 24.074 16.9627 24.03 17.074C24.0053 17.136 24.0153 17.216 24.0547 17.228C24.414 17.3373 24.3053 16.77 24.0907 16.7333C23.9333 16.7067 23.624 16.8233 23.6087 17.0667C23.5987 17.1304 23.6071 17.1956 23.633 17.2547C23.6588 17.3137 23.7011 17.3642 23.7547 17.4C23.8706 17.4677 24.0081 17.488 24.1387 17.4567C24.0789 17.5385 24.0025 17.6068 23.9145 17.6571C23.8265 17.7075 23.7289 17.7386 23.628 17.7487C23.378 17.7353 23.3467 17.282 23.508 16.962C23.6027 16.7727 23.8347 16.562 24.0173 16.568C24.2667 16.58 24.24 16.7447 24.3507 16.8593C24.4213 16.9333 24.916 16.8253 25.0087 16.9673H25.0073ZM10.678 17.5853L9.14467 17.652C8.96053 17.4178 8.84215 17.1387 8.80172 16.8436C8.7613 16.5484 8.80028 16.2478 8.91467 15.9727C9.36449 16.4393 9.97033 16.7241 10.6167 16.7727C10.5929 16.8882 10.5788 17.0055 10.5747 17.1233C10.5578 17.2848 10.5943 17.4473 10.6787 17.586L10.678 17.5853ZM23.098 16.252C22.9707 16.37 22.9267 16.3633 22.7827 16.148C22.7278 16.0538 22.6503 15.9747 22.5572 15.918C22.4641 15.8613 22.3582 15.8288 22.2493 15.8233C22.0916 15.8369 21.9384 15.8833 21.7997 15.9597C21.661 16.036 21.5398 16.1406 21.444 16.2667C21.4187 16.3173 21.4933 16.3333 21.5173 16.4267C21.5643 16.6155 21.6648 16.7868 21.8067 16.9199C21.9486 17.053 22.1259 17.1424 22.3173 17.1773C22.4821 17.1929 22.6477 17.1589 22.7931 17.0798C22.9384 17.0007 23.0569 16.8801 23.1333 16.7333C23.2739 16.455 23.5004 16.2294 23.7793 16.09C23.943 16.0427 24.1171 16.0462 24.2787 16.1002C24.4403 16.1541 24.5816 16.2559 24.684 16.392C24.7517 16.4358 24.8307 16.4589 24.9113 16.4587C25.0661 16.5055 25.2029 16.5985 25.3033 16.7253C25.5127 16.9773 25.6073 16.9873 25.5573 16.8233C25.3841 16.5439 25.1395 16.3159 24.8487 16.1627C24.6307 16.0913 24.39 15.7067 24.0253 15.6293C23.866 15.596 23.732 15.7027 23.5993 15.8173C23.4273 15.9707 23.1487 16.2053 23.0993 16.2507L23.098 16.252ZM8.48933 16.924C8.16667 16.868 7.26667 16.7113 6.62667 16.608C6.56668 16.5983 6.50918 16.5769 6.45747 16.545C6.40576 16.5131 6.36086 16.4713 6.32533 16.422C6.28978 16.3727 6.26429 16.3169 6.25033 16.2578C6.23638 16.1986 6.23422 16.1373 6.244 16.0773L6.29667 15.754C6.30709 15.6908 6.33178 15.6308 6.36886 15.5786C6.40594 15.5264 6.45444 15.4833 6.51067 15.4527C6.56691 15.422 6.62941 15.4045 6.69341 15.4017C6.75741 15.3988 6.82122 15.4105 6.88 15.436C7.45333 15.684 8.178 16.0087 8.49067 16.1487C8.47183 16.4068 8.47139 16.6659 8.48933 16.924ZM10.656 16.622C10.0674 16.5488 9.51673 16.2922 9.082 15.8887C8.742 15.4887 9.50333 14.4887 9.86133 14.7613C10.034 15.3433 10.4218 15.8377 10.946 16.144C10.8105 16.2763 10.7108 16.4408 10.656 16.622ZM11.0507 16.0533C10.6567 15.7228 10.3551 15.2958 10.1753 14.814C10.1405 14.7088 10.1405 14.5952 10.1753 14.49C10.4573 14.0293 11.1753 14.09 11.4267 14.124C11.4485 14.1283 11.4682 14.1402 11.482 14.1577C11.4958 14.1752 11.5029 14.1971 11.502 14.2193C11.4446 14.6464 11.5009 15.081 11.6653 15.4793C11.674 15.5013 11.71 15.8073 11.662 15.8127C11.4422 15.8441 11.2329 15.9265 11.0507 16.0533ZM8.528 15.9413L6.84867 15.0587C6.78784 15.0267 6.73392 14.983 6.69 14.9302C6.64607 14.8773 6.61299 14.8163 6.59267 14.7507C6.57216 14.6848 6.5649 14.6156 6.57131 14.5469C6.57772 14.4783 6.59767 14.4116 6.63 14.3507L6.652 14.3093C6.69327 14.2315 6.75146 14.1639 6.8223 14.1115C6.89314 14.0591 6.97482 14.0233 7.06133 14.0067C7.1479 13.99 7.2371 13.993 7.32236 14.0154C7.40763 14.0377 7.48678 14.079 7.554 14.136L8.82067 15.208C8.69078 15.4382 8.59256 15.6849 8.52867 15.9413H8.528ZM11.9827 15.782C11.7678 15.2996 11.6841 14.7691 11.74 14.244C11.7388 14.2162 11.7477 14.1889 11.7651 14.1672C11.7825 14.1455 11.8073 14.1308 11.8347 14.126C12.2677 14.1282 12.6832 14.2972 12.9947 14.598C13.0134 14.6201 13.0263 14.6467 13.032 14.6751C13.0377 14.7036 13.0361 14.733 13.0273 14.7607C12.813 15.063 12.7103 15.4303 12.7367 15.8C12.4858 15.7808 12.2341 15.7748 11.9827 15.782ZM8.916 15.0607C8.45284 14.6915 8.00997 14.2976 7.58933 13.8807C7.55547 13.7296 7.56065 13.5724 7.60439 13.4239C7.64812 13.2754 7.72898 13.1404 7.83931 13.0318C7.94965 12.9232 8.08584 12.8445 8.23503 12.8031C8.38421 12.7618 8.54148 12.7591 8.692 12.7953C8.82533 12.99 9.31267 14.0213 9.492 14.408C9.26651 14.5939 9.07169 14.8142 8.91467 15.0607H8.916ZM12.7433 14C13.0053 13.6867 13.61 12.9747 13.8607 12.738C14.044 12.5667 14.3707 12.4813 14.5273 12.6047C14.7194 12.7506 14.8684 12.9457 14.9587 13.1693C14.9982 13.2833 14.9969 13.4075 14.9549 13.5206C14.913 13.6337 14.833 13.7287 14.7287 13.7893C14.4667 13.9587 13.656 14.4033 13.3153 14.5893C13.1801 14.3458 12.9827 14.1424 12.7433 14ZM9.66333 14.2793C9.46333 13.8793 8.942 12.852 8.82133 12.5613C8.79678 12.5121 8.78581 12.4573 8.78956 12.4024C8.79331 12.3476 8.81165 12.2947 8.84267 12.2493C9.19269 11.9169 9.6573 11.7322 10.14 11.7333C10.1687 11.7315 10.1975 11.7359 10.2244 11.7462C10.2512 11.7565 10.2756 11.7725 10.2957 11.7931C10.3158 11.8136 10.3313 11.8383 10.341 11.8654C10.3507 11.8925 10.3545 11.9213 10.352 11.95C10.3687 12.3833 10.3993 13.496 10.41 13.8833C10.1448 13.9799 9.89452 14.1134 9.66667 14.28L9.66333 14.2793ZM11.696 13.7633C11.8593 13.3307 12.2087 12.404 12.3227 12.12C12.356 12.0373 12.4213 11.816 12.5393 11.752C12.7501 11.6707 12.9802 11.6535 13.2007 11.7027C13.4155 11.7614 13.6021 11.8956 13.726 12.0807C13.7577 12.1528 13.7696 12.2322 13.7603 12.3105C13.7511 12.3888 13.721 12.4632 13.6733 12.526C13.5033 12.7887 12.8787 13.5793 12.6007 13.926C12.3126 13.8142 12.0057 13.7589 11.6967 13.7633H11.696ZM10.5867 13.83C10.5793 13.3873 10.5633 12.1393 10.6113 11.7913C10.6228 11.71 10.6577 11.6338 10.7118 11.572C10.766 11.5102 10.8369 11.4655 10.916 11.4433C11.2364 11.3809 11.5661 11.3839 11.8853 11.452C11.9711 11.4736 12.0467 11.5241 12.0994 11.5951C12.1521 11.666 12.1787 11.753 12.1747 11.8413C11.9945 12.4939 11.7755 13.135 11.5187 13.7613C11.284 13.7613 11.0227 13.78 10.7293 13.808C10.6814 13.813 10.6337 13.8208 10.5867 13.8313V13.83ZM18.742 7.51933H4.21667L4.18467 7.31933H18.774L18.742 7.51933ZM18.8333 6.94133H4.12333L4.05667 6.518C4.10656 6.50635 4.15575 6.49189 4.204 6.47467C4.36296 6.41757 4.50958 6.33068 4.636 6.21867C4.75502 6.11183 4.85768 5.98806 4.94067 5.85133C5.00289 5.74985 5.05727 5.64376 5.10333 5.534C5.11333 5.51067 5.122 5.48733 5.13067 5.464V5.05467C5.11815 5.05797 5.10589 5.0622 5.094 5.06733C5.02471 5.10043 4.96925 5.15682 4.93733 5.22667C4.91467 5.27133 4.89933 5.31867 4.88133 5.36533C4.87267 5.38667 4.864 5.408 4.85533 5.432C4.83333 5.482 4.81067 5.53133 4.78867 5.58067C4.72861 5.7003 4.65429 5.81223 4.56733 5.914C4.42437 6.07874 4.23537 6.19692 4.02467 6.25333H4.01667L3.16267 0.991333H19.7747L18.9387 6.282C18.8849 6.27501 18.8317 6.26454 18.7793 6.25067C18.5686 6.19426 18.3796 6.07607 18.2367 5.91133C18.1497 5.80955 18.0754 5.69762 18.0153 5.578C17.9907 5.52933 17.968 5.47933 17.9487 5.42933C17.94 5.408 17.9307 5.38667 17.9227 5.36267C17.9047 5.31667 17.8893 5.26867 17.8667 5.224C17.8348 5.15416 17.7793 5.09776 17.71 5.06467C17.6981 5.05954 17.6859 5.0553 17.6733 5.052V5.46133C17.682 5.48467 17.6907 5.50867 17.7007 5.53133C17.7465 5.64108 17.8007 5.74716 17.8627 5.84867C17.9457 5.98537 18.0483 6.10914 18.1673 6.216C18.294 6.32808 18.4408 6.41496 18.6 6.472C18.6972 6.50618 18.7978 6.53009 18.9 6.54333L18.8333 6.94133ZM9.84333 6.29333C9.84333 6.29333 9.962 6.29333 9.996 6.29333C10.0802 6.28856 10.1637 6.27538 10.2453 6.254C10.456 6.19759 10.645 6.07941 10.788 5.91467C10.8749 5.81288 10.9493 5.70096 11.0093 5.58133C11.034 5.53267 11.056 5.48267 11.076 5.43267C11.0847 5.41133 11.0933 5.39 11.102 5.366C11.12 5.32 11.1353 5.272 11.158 5.22733C11.19 5.15752 11.2454 5.10114 11.3147 5.068C11.3268 5.06284 11.3393 5.05861 11.352 5.05533V5.46467C11.3433 5.488 11.3347 5.512 11.3247 5.53467C11.2786 5.64443 11.2242 5.75052 11.162 5.852C11.079 5.98872 10.9764 6.11249 10.8573 6.21933C10.7307 6.33144 10.5839 6.41833 10.4247 6.47533C10.2908 6.5216 10.1513 6.54963 10.01 6.55867C9.968 6.55867 9.832 6.56267 9.832 6.56267C9.788 6.56267 9.71067 6.56267 9.67133 6.55867C9.52977 6.54969 9.39007 6.52166 9.256 6.47533C9.09703 6.41825 8.95041 6.33136 8.824 6.21933C8.70498 6.11249 8.60233 5.98872 8.51933 5.852C8.45819 5.74999 8.40493 5.64345 8.36 5.53333C8.35 5.51 8.34133 5.48667 8.33267 5.46333V5.054C8.34541 5.05727 8.35789 5.06151 8.37 5.06667C8.43926 5.0998 8.4947 5.15619 8.52667 5.226C8.54933 5.27067 8.56467 5.318 8.58267 5.36467C8.59133 5.386 8.6 5.40733 8.60867 5.43133C8.63067 5.48133 8.65333 5.53067 8.67533 5.58C8.73541 5.69962 8.80973 5.81154 8.89667 5.91333C9.03963 6.07807 9.22863 6.19626 9.43933 6.25267C9.52093 6.27405 9.60445 6.28722 9.68867 6.292C9.72667 6.29267 9.80667 6.29133 9.84333 6.29333ZM16.0687 6.56333C16.0687 6.56333 15.9387 6.56333 15.8993 6.55933C15.7578 6.55035 15.6181 6.52232 15.484 6.476C15.3248 6.41898 15.178 6.33209 15.0513 6.22C14.9323 6.11316 14.8297 5.98939 14.7467 5.85267C14.6844 5.75119 14.6301 5.6451 14.584 5.53533C14.574 5.512 14.5653 5.48867 14.5567 5.46533V5.056C14.5692 5.0593 14.5814 5.06354 14.5933 5.06867C14.6626 5.10176 14.7181 5.15816 14.75 5.228C14.7727 5.27267 14.788 5.32 14.806 5.36667C14.8147 5.388 14.8233 5.40933 14.832 5.43333C14.854 5.48333 14.8767 5.53267 14.8987 5.582C14.9587 5.70164 15.033 5.81356 15.12 5.91533C15.263 6.08007 15.452 6.19826 15.6627 6.25467C15.7443 6.27605 15.8278 6.28922 15.912 6.294C15.948 6.294 16.0287 6.294 16.0647 6.294C16.0647 6.294 16.1833 6.294 16.2173 6.294C16.3015 6.28922 16.3851 6.27605 16.4667 6.25467C16.6774 6.19826 16.8664 6.08007 17.0093 5.91533C17.0963 5.81355 17.1706 5.70162 17.2307 5.582C17.2553 5.53333 17.278 5.48333 17.2973 5.43333C17.306 5.412 17.3153 5.39067 17.3233 5.36667C17.3413 5.32067 17.3567 5.27267 17.3793 5.228C17.4113 5.15816 17.4667 5.10176 17.536 5.06867C17.5479 5.06354 17.5601 5.0593 17.5727 5.056V5.46533C17.564 5.48867 17.5547 5.51267 17.5453 5.53533C17.4993 5.6451 17.4449 5.75118 17.3827 5.85267C17.2997 5.98937 17.197 6.11314 17.078 6.22C16.9514 6.33208 16.8045 6.41896 16.6453 6.476C16.5115 6.52228 16.372 6.55031 16.2307 6.55933C16.1953 6.56133 16.11 6.564 16.0667 6.56333H16.0687ZM12.9633 6.29267C13.002 6.29267 13.0747 6.29267 13.1087 6.29267C13.1929 6.28789 13.2764 6.27471 13.358 6.25333C13.5687 6.19692 13.7577 6.07874 13.9007 5.914C13.9876 5.81221 14.0619 5.70029 14.122 5.58067C14.1467 5.532 14.1693 5.482 14.1887 5.432C14.1973 5.41067 14.2067 5.38933 14.2147 5.36533C14.2327 5.31933 14.248 5.27133 14.2707 5.22667C14.3026 5.15686 14.3581 5.10047 14.4273 5.06733C14.4394 5.06218 14.4519 5.05794 14.4647 5.05467V5.464C14.456 5.48733 14.4467 5.51133 14.4373 5.534C14.3913 5.64377 14.3369 5.74986 14.2747 5.85133C14.1917 5.98806 14.089 6.11183 13.97 6.21867C13.8434 6.33074 13.6965 6.41763 13.5373 6.47467C13.4035 6.52094 13.264 6.54897 13.1227 6.558C13.0807 6.558 12.9953 6.56267 12.9533 6.562C12.9113 6.56133 12.826 6.562 12.784 6.558C12.6424 6.54903 12.5027 6.52099 12.3687 6.47467C12.2095 6.41766 12.0626 6.33077 11.936 6.21867C11.817 6.11183 11.7143 5.98806 11.6313 5.85133C11.5691 5.74985 11.5147 5.64376 11.4687 5.534C11.4587 5.51067 11.45 5.48733 11.4413 5.464V5.05467C11.4541 5.05793 11.4666 5.06216 11.4787 5.06733C11.548 5.10043 11.6034 5.15682 11.6353 5.22667C11.658 5.27133 11.6733 5.31867 11.6913 5.36533C11.7 5.38667 11.7087 5.408 11.7173 5.432C11.7393 5.482 11.762 5.53133 11.784 5.58067C11.8441 5.7003 11.9184 5.81223 12.0053 5.914C12.1483 6.07874 12.3373 6.19692 12.548 6.25333C12.6296 6.27471 12.7131 6.28789 12.7973 6.29267C12.8387 6.29267 12.9627 6.29333 12.9627 6.29333L12.9633 6.29267ZM6.578 6.29267C6.614 6.29267 6.84933 6.29267 6.88333 6.29267C6.96755 6.28789 7.05107 6.27471 7.13267 6.25333C7.34337 6.19692 7.53237 6.07874 7.67533 5.914C7.76229 5.81223 7.83661 5.7003 7.89667 5.58067C7.92133 5.532 7.944 5.482 7.96333 5.432C7.972 5.41067 7.98133 5.38933 7.98933 5.36533C8.00733 5.31933 8.02267 5.27133 8.04533 5.22667C8.07725 5.15682 8.13271 5.10043 8.202 5.06733C8.2141 5.06216 8.22658 5.05793 8.23933 5.05467V5.464C8.23067 5.48733 8.222 5.51133 8.212 5.534C8.16594 5.64376 8.11156 5.74985 8.04933 5.85133C7.96634 5.98806 7.86369 6.11183 7.74467 6.21867C7.61825 6.33068 7.47163 6.41757 7.31267 6.47467C7.17881 6.52094 7.03934 6.54897 6.898 6.558C6.856 6.558 6.59867 6.558 6.55933 6.558C6.418 6.54897 6.27852 6.52094 6.14467 6.47467C5.98547 6.41763 5.83863 6.33074 5.712 6.21867C5.59298 6.11183 5.49032 5.98806 5.40733 5.85133C5.3451 5.74986 5.29071 5.64377 5.24467 5.534C5.23467 5.51067 5.226 5.48733 5.21733 5.464V5.05467C5.23007 5.05796 5.24255 5.0622 5.25467 5.06733C5.32393 5.10047 5.37937 5.15686 5.41133 5.22667C5.434 5.27133 5.44933 5.31867 5.46733 5.36533C5.476 5.38667 5.48467 5.408 5.49333 5.432C5.51533 5.482 5.538 5.53133 5.56 5.58067C5.62008 5.70029 5.6944 5.81221 5.78133 5.914C5.9243 6.07874 6.1133 6.19692 6.324 6.25333C6.40718 6.27435 6.49229 6.28686 6.578 6.29067V6.29267ZM5.08667 4.93333L4.98067 5.02667C4.97831 5.0276 4.97569 5.0276 4.97333 5.02667C4.95839 5.02516 4.94397 5.02029 4.93116 5.01245C4.91835 5.0046 4.90747 4.99396 4.89933 4.98133C4.89722 4.97881 4.89606 4.97563 4.89606 4.97233C4.89606 4.96904 4.89722 4.96585 4.89933 4.96333L5.14533 4.74667C5.15252 4.74034 5.16176 4.73685 5.17133 4.73685C5.18091 4.73685 5.19015 4.74034 5.19733 4.74667L5.44333 4.96333C5.44596 4.96543 5.44774 4.96841 5.44835 4.97171C5.44896 4.97502 5.44836 4.97843 5.44667 4.98133C5.43853 4.99396 5.42765 5.0046 5.41484 5.01245C5.40203 5.02029 5.38761 5.02516 5.37267 5.02667C5.37031 5.0276 5.36769 5.0276 5.36533 5.02667L5.18933 4.86667C5.18524 4.86319 5.18004 4.86128 5.17467 4.86128C5.16929 4.86128 5.1641 4.86319 5.16 4.86667L5.08667 4.93333ZM8.19933 4.93333L8.09267 5.02667C8.09031 5.0276 8.08769 5.0276 8.08533 5.02667C8.07039 5.02516 8.05597 5.02029 8.04316 5.01245C8.03035 5.0046 8.01947 4.99396 8.01133 4.98133C8.00964 4.97843 8.00904 4.97502 8.00965 4.97171C8.01026 4.96841 8.01204 4.96543 8.01467 4.96333L8.26067 4.74667C8.26785 4.74034 8.27709 4.73685 8.28667 4.73685C8.29624 4.73685 8.30548 4.74034 8.31267 4.74667L8.55867 4.96333C8.56129 4.96543 8.56307 4.96841 8.56368 4.97171C8.5643 4.97502 8.5637 4.97843 8.562 4.98133C8.55386 4.99396 8.54298 5.0046 8.53017 5.01245C8.51736 5.02029 8.50295 5.02516 8.488 5.02667C8.48564 5.0276 8.48302 5.0276 8.48067 5.02667L8.302 4.86667C8.2979 4.86319 8.29271 4.86128 8.28733 4.86128C8.28196 4.86128 8.27676 4.86319 8.27267 4.86667L8.19933 4.93333ZM11.312 4.93333L11.206 5.02667C11.2036 5.0276 11.201 5.0276 11.1987 5.02667C11.1837 5.02516 11.1693 5.02029 11.1565 5.01245C11.1437 5.0046 11.1328 4.99396 11.1247 4.98133C11.123 4.97843 11.1224 4.97502 11.123 4.97171C11.1236 4.96841 11.1254 4.96543 11.128 4.96333L11.374 4.74667C11.3812 4.74034 11.3904 4.73685 11.4 4.73685C11.4096 4.73685 11.4188 4.74034 11.426 4.74667L11.672 4.96333C11.6746 4.96543 11.6764 4.96841 11.677 4.97171C11.6776 4.97502 11.677 4.97843 11.6753 4.98133C11.6672 4.99396 11.6563 5.0046 11.6435 5.01245C11.6307 5.02029 11.6163 5.02516 11.6013 5.02667C11.599 5.0276 11.5964 5.0276 11.594 5.02667L11.4153 4.87C11.4112 4.86652 11.406 4.86462 11.4007 4.86462C11.3953 4.86462 11.3901 4.86652 11.386 4.87L11.312 4.93333ZM14.4247 4.93333L14.318 5.02667C14.3156 5.0276 14.313 5.0276 14.3107 5.02667C14.2957 5.02516 14.2813 5.02029 14.2685 5.01245C14.2557 5.0046 14.2448 4.99396 14.2367 4.98133C14.235 4.97843 14.2344 4.97502 14.235 4.97171C14.2356 4.96841 14.2374 4.96543 14.24 4.96333L14.486 4.74667C14.4932 4.74034 14.5024 4.73685 14.512 4.73685C14.5216 4.73685 14.5308 4.74034 14.538 4.74667L14.784 4.96333C14.7861 4.96585 14.7873 4.96904 14.7873 4.97233C14.7873 4.97563 14.7861 4.97881 14.784 4.98133C14.7759 4.99396 14.765 5.0046 14.7522 5.01245C14.7394 5.02029 14.7249 5.02516 14.71 5.02667C14.7076 5.0276 14.705 5.0276 14.7027 5.02667L14.5267 4.86667C14.5226 4.86319 14.5174 4.86128 14.512 4.86128C14.5066 4.86128 14.5014 4.86319 14.4973 4.86667L14.4247 4.93333ZM17.5373 4.93333L17.4307 5.02667C17.4283 5.0276 17.4257 5.0276 17.4233 5.02667C17.4084 5.02516 17.394 5.02029 17.3812 5.01245C17.3683 5.0046 17.3575 4.99396 17.3493 4.98133C17.3476 4.97843 17.347 4.97502 17.3477 4.97171C17.3483 4.96841 17.35 4.96543 17.3527 4.96333L17.5987 4.74667C17.6059 4.74034 17.6151 4.73685 17.6247 4.73685C17.6342 4.73685 17.6435 4.74034 17.6507 4.74667L17.8967 4.96333C17.8988 4.96585 17.8999 4.96904 17.8999 4.97233C17.8999 4.97563 17.8988 4.97881 17.8967 4.98133C17.8885 4.99396 17.8777 5.0046 17.8648 5.01245C17.852 5.02029 17.8376 5.02516 17.8227 5.02667C17.8203 5.0276 17.8177 5.0276 17.8153 5.02667L17.6367 4.87C17.6325 4.86634 17.6272 4.86433 17.6217 4.86433C17.6161 4.86433 17.6108 4.86634 17.6067 4.87L17.5373 4.93333ZM17.6247 3.47333L18.0647 3.06533C18.0647 3.06533 18.598 2.53933 18.7367 2.41533C18.7817 2.37402 18.8402 2.35034 18.9013 2.34867C18.6323 2.834 18.4536 3.36415 18.374 3.91333C18.3758 4.09786 18.3398 4.28079 18.2681 4.45084C18.1964 4.62088 18.0907 4.77443 17.9573 4.902L17.624 4.60933L17.2907 4.902C17.1573 4.77443 17.0516 4.62088 16.9799 4.45084C16.9082 4.28079 16.8722 4.09786 16.874 3.91333C16.7944 3.36415 16.6157 2.834 16.3467 2.34867C16.4078 2.35034 16.4663 2.37402 16.5113 2.41533C16.6527 2.53933 17.1833 3.06533 17.1833 3.06533L17.6247 3.47333ZM5.17467 3.47333L5.61467 3.06533C5.61467 3.06533 6.148 2.53933 6.28667 2.41533C6.33174 2.37402 6.39021 2.35034 6.45133 2.34867C6.18229 2.834 6.00361 3.36415 5.924 3.91333C5.92581 4.09786 5.88976 4.28079 5.8181 4.45084C5.74643 4.62088 5.64067 4.77443 5.50733 4.902L5.174 4.60933L4.84067 4.902C4.70733 4.77443 4.60157 4.62088 4.5299 4.45084C4.45824 4.28079 4.42219 4.09786 4.424 3.91333C4.34439 3.36415 4.16571 2.834 3.89667 2.34867C3.95779 2.35034 4.01626 2.37402 4.06133 2.41533C4.202 2.53933 4.73333 3.06533 4.73333 3.06533L5.17467 3.47333ZM8.28733 3.47333L8.72733 3.06533C8.72733 3.06533 9.26067 2.53933 9.39933 2.41533C9.44441 2.37402 9.50288 2.35034 9.564 2.34867C9.29495 2.834 9.11628 3.36415 9.03667 3.91333C9.03847 4.09786 9.00243 4.28079 8.93077 4.45084C8.8591 4.62088 8.75333 4.77443 8.62 4.902L8.28667 4.60933L7.95333 4.902C7.82 4.77443 7.71423 4.62088 7.64257 4.45084C7.5709 4.28079 7.53486 4.09786 7.53667 3.91333C7.45706 3.36415 7.27838 2.834 7.00933 2.34867C7.07047 2.35028 7.12896 2.37396 7.174 2.41533C7.31533 2.53933 7.846 3.06533 7.846 3.06533L8.28733 3.47333ZM11.4 3.47333L11.84 3.06533C11.84 3.06533 12.3733 2.53933 12.512 2.41533C12.5571 2.37402 12.6155 2.35034 12.6767 2.34867C12.4076 2.83401 12.229 3.36416 12.1493 3.91333C12.1511 4.09786 12.1151 4.28079 12.0434 4.45084C11.9718 4.62088 11.866 4.77443 11.7327 4.902L11.3993 4.60933L11.066 4.902C10.9327 4.77443 10.8269 4.62088 10.7552 4.45084C10.6836 4.28079 10.6475 4.09786 10.6493 3.91333C10.5697 3.36415 10.391 2.834 10.122 2.34867C10.1831 2.35034 10.2416 2.37402 10.2867 2.41533C10.428 2.53933 10.9587 3.06533 10.9587 3.06533L11.4 3.47333ZM14.5127 3.47333L14.9527 3.06533C14.9527 3.06533 15.486 2.53933 15.6247 2.41533C15.6697 2.37402 15.7282 2.35034 15.7893 2.34867C15.5203 2.834 15.3416 3.36415 15.262 3.91333C15.2638 4.09786 15.2278 4.28079 15.1561 4.45084C15.0844 4.62088 14.9787 4.77443 14.8453 4.902L14.512 4.60933L14.1787 4.902C14.0453 4.77443 13.9396 4.62088 13.8679 4.45084C13.7962 4.28079 13.7602 4.09786 13.762 3.91333C13.6824 3.36416 13.5037 2.83401 13.2347 2.34867C13.2958 2.35034 13.3543 2.37402 13.3993 2.41533C13.5407 2.53933 14.0713 3.06533 14.0713 3.06533L14.5127 3.47333ZM11.0287 2.99133L10.3827 2.39133C10.3644 2.37439 10.35 2.35371 10.3405 2.3307C10.3309 2.30769 10.3264 2.2829 10.3273 2.258C10.3279 2.23338 10.3338 2.20917 10.3445 2.18698C10.3552 2.1648 10.3705 2.14514 10.3893 2.12933C10.4083 2.11346 10.4304 2.1018 10.4542 2.09513C10.478 2.08847 10.5029 2.08694 10.5273 2.09067C10.5517 2.09442 10.575 2.10331 10.5957 2.11676C10.6164 2.13021 10.634 2.1479 10.6473 2.16867L11.092 2.85733C11.0621 2.89716 11.0404 2.94246 11.028 2.99067L11.0287 2.99133ZM17.254 2.99133L16.608 2.39133C16.5897 2.37439 16.5753 2.35371 16.5658 2.3307C16.5562 2.30769 16.5518 2.2829 16.5527 2.258C16.5533 2.23338 16.5591 2.20917 16.5698 2.18698C16.5805 2.1648 16.5958 2.14514 16.6147 2.12933C16.6336 2.11346 16.6557 2.1018 16.6795 2.09513C16.7033 2.08847 16.7282 2.08694 16.7527 2.09067C16.7771 2.09442 16.8004 2.10331 16.8211 2.11676C16.8417 2.13021 16.8593 2.1479 16.8727 2.16867L17.3173 2.85733C17.2873 2.89714 17.2653 2.94243 17.2527 2.99067L17.254 2.99133ZM7.91667 2.99133L7.27067 2.39133C7.25237 2.37442 7.23795 2.35374 7.2284 2.33073C7.21885 2.30771 7.21439 2.2829 7.21533 2.258C7.21593 2.23338 7.22177 2.20917 7.23246 2.18698C7.24316 2.1648 7.25845 2.14514 7.27733 2.12933C7.29627 2.11346 7.31837 2.1018 7.34217 2.09513C7.36596 2.08847 7.3909 2.08694 7.41533 2.09067C7.43972 2.09442 7.46304 2.10331 7.48372 2.11676C7.50441 2.13021 7.52201 2.1479 7.53533 2.16867L7.98 2.85733C7.94993 2.89712 7.92796 2.94242 7.91533 2.99067L7.91667 2.99133ZM14.142 2.99133L13.496 2.39133C13.4777 2.37439 13.4633 2.35371 13.4538 2.3307C13.4442 2.30769 13.4398 2.2829 13.4407 2.258C13.4413 2.23338 13.4471 2.20917 13.4578 2.18698C13.4685 2.1648 13.4838 2.14514 13.5027 2.12933C13.5216 2.11346 13.5437 2.1018 13.5675 2.09513C13.5913 2.08847 13.6162 2.08694 13.6407 2.09067C13.6651 2.09442 13.6884 2.10331 13.7091 2.11676C13.7297 2.13021 13.7473 2.1479 13.7607 2.16867L14.2053 2.85733C14.1753 2.89712 14.1533 2.94242 14.1407 2.99067L14.142 2.99133ZM4.80467 2.99133L4.15867 2.39133C4.1404 2.37439 4.12601 2.35371 4.11646 2.3307C4.10691 2.30769 4.10243 2.2829 4.10333 2.258C4.10393 2.23338 4.10977 2.20917 4.12047 2.18698C4.13116 2.1648 4.14645 2.14514 4.16533 2.12933C4.18427 2.11346 4.20637 2.1018 4.23017 2.09513C4.25396 2.08847 4.2789 2.08694 4.30333 2.09067C4.32772 2.09442 4.35104 2.10331 4.37172 2.11676C4.39241 2.13021 4.41001 2.1479 4.42333 2.16867L4.86667 2.858C4.836 2.89744 4.81335 2.94252 4.8 2.99067L4.80467 2.99133ZM5.48467 2.858L5.92933 2.17C5.9427 2.14933 5.96031 2.13174 5.981 2.11841C6.00169 2.10507 6.02499 2.0963 6.04933 2.09267C6.07366 2.089 6.09848 2.09055 6.12216 2.09721C6.14584 2.10388 6.16783 2.11551 6.18667 2.13133C6.2056 2.14725 6.22092 2.16701 6.23161 2.18932C6.2423 2.21162 6.24812 2.23594 6.24867 2.26067C6.24944 2.28561 6.24484 2.31042 6.23518 2.33343C6.22551 2.35643 6.21102 2.37709 6.19267 2.394L5.54667 2.994C5.53465 2.94464 5.51289 2.89817 5.48267 2.85733L5.48467 2.858ZM17.9347 2.858L18.3793 2.17C18.3927 2.14933 18.4103 2.13174 18.431 2.11841C18.4517 2.10507 18.475 2.0963 18.4993 2.09267C18.5237 2.089 18.5485 2.09055 18.5722 2.09721C18.5958 2.10388 18.6178 2.11551 18.6367 2.13133C18.6556 2.14725 18.6709 2.16701 18.6816 2.18932C18.6923 2.21162 18.6981 2.23594 18.6987 2.26067C18.6994 2.28561 18.6948 2.31042 18.6852 2.33343C18.6755 2.35643 18.661 2.37709 18.6427 2.394L17.9967 2.994C17.9849 2.94469 17.9633 2.89822 17.9333 2.85733L17.9347 2.858ZM14.822 2.858L15.2667 2.17C15.28 2.14933 15.2976 2.13174 15.3183 2.11841C15.339 2.10507 15.3623 2.0963 15.3867 2.09267C15.411 2.089 15.4358 2.09055 15.4595 2.09721C15.4832 2.10388 15.5052 2.11551 15.524 2.13133C15.5429 2.14725 15.5583 2.16701 15.5689 2.18932C15.5796 2.21162 15.5855 2.23594 15.586 2.26067C15.5868 2.28561 15.5822 2.31042 15.5725 2.33343C15.5628 2.35643 15.5483 2.37709 15.53 2.394L14.884 2.994C14.872 2.94464 14.8502 2.89817 14.82 2.85733L14.822 2.858ZM11.7093 2.858L12.154 2.17C12.1674 2.14933 12.185 2.13174 12.2057 2.11841C12.2264 2.10507 12.2497 2.0963 12.274 2.09267C12.2983 2.089 12.3232 2.09055 12.3468 2.09721C12.3705 2.10388 12.3925 2.11551 12.4113 2.13133C12.4303 2.14725 12.4456 2.16701 12.4563 2.18932C12.467 2.21162 12.4728 2.23594 12.4733 2.26067C12.4741 2.28561 12.4695 2.31042 12.4598 2.33343C12.4502 2.35643 12.4357 2.37709 12.4173 2.394L11.7713 2.994C11.7593 2.94464 11.7376 2.89817 11.7073 2.85733L11.7093 2.858ZM8.59667 2.858L9.04133 2.17C9.0547 2.14933 9.07231 2.13174 9.093 2.11841C9.11369 2.10507 9.13699 2.0963 9.16133 2.09267C9.18566 2.089 9.21048 2.09055 9.23416 2.09721C9.25784 2.10388 9.27983 2.11551 9.29867 2.13133C9.3176 2.14725 9.33292 2.16701 9.34361 2.18932C9.3543 2.21162 9.36012 2.23594 9.36067 2.26067C9.36144 2.28561 9.35684 2.31042 9.34718 2.33343C9.33751 2.35643 9.32302 2.37709 9.30467 2.394L8.65867 2.994C8.64665 2.94464 8.62489 2.89817 8.59467 2.85733L8.59667 2.858ZM14.2447 2.81267L13.88 2.10067C13.8687 2.07877 13.8622 2.05472 13.861 2.03012C13.8597 2.00552 13.8637 1.98094 13.8727 1.958C13.8816 1.93504 13.8953 1.91425 13.9129 1.897C13.9305 1.87976 13.9515 1.86646 13.9747 1.858C13.9978 1.84956 14.0226 1.84615 14.0471 1.84799C14.0717 1.84983 14.0957 1.85688 14.1173 1.86867C14.139 1.88061 14.1578 1.897 14.1726 1.91677C14.1875 1.93654 14.1979 1.95922 14.2033 1.98333L14.3733 2.72867C14.3248 2.74737 14.2806 2.77572 14.2433 2.812L14.2447 2.81267ZM11.132 2.81267L10.7673 2.10067C10.756 2.07877 10.7496 2.05472 10.7483 2.03012C10.747 2.00552 10.751 1.98094 10.76 1.958C10.7689 1.93504 10.7826 1.91425 10.8002 1.897C10.8178 1.87976 10.8389 1.86646 10.862 1.858C10.8852 1.84956 10.9099 1.84615 10.9345 1.84799C10.9591 1.84983 10.983 1.85688 11.0047 1.86867C11.0263 1.88058 11.0452 1.89696 11.06 1.91673C11.0749 1.9365 11.0853 1.95921 11.0907 1.98333L11.2607 2.72867C11.2131 2.74769 11.1698 2.77602 11.1333 2.812L11.132 2.81267ZM8.01933 2.81267L7.65333 2.1C7.64204 2.07811 7.63555 2.05406 7.63429 2.02946C7.63302 2.00486 7.63701 1.98027 7.646 1.95733C7.65492 1.93438 7.66863 1.91358 7.68622 1.89634C7.70381 1.87909 7.72487 1.8658 7.748 1.85733C7.77118 1.8489 7.79588 1.84549 7.82048 1.84733C7.84508 1.84916 7.869 1.85621 7.89067 1.868C7.91245 1.87984 7.93145 1.89619 7.94639 1.91597C7.96134 1.93574 7.97189 1.95848 7.97733 1.98267L8.14733 2.728C8.09898 2.74695 8.05498 2.77553 8.018 2.812L8.01933 2.81267ZM17.3573 2.81267L16.9927 2.10067C16.9814 2.07877 16.9749 2.05472 16.9736 2.03012C16.9724 2.00552 16.9763 1.98094 16.9853 1.958C16.9943 1.93504 17.008 1.91425 17.0256 1.897C17.0431 1.87976 17.0642 1.86646 17.0873 1.858C17.1105 1.84956 17.1352 1.84615 17.1598 1.84799C17.1844 1.84983 17.2083 1.85688 17.23 1.86867C17.2517 1.88058 17.2705 1.89696 17.2854 1.91673C17.3002 1.9365 17.3106 1.95921 17.316 1.98333L17.486 2.72867C17.4375 2.74734 17.3932 2.77569 17.356 2.812L17.3573 2.81267ZM4.90733 2.81267L4.54067 2.1C4.52938 2.07811 4.52288 2.05406 4.52162 2.02946C4.52035 2.00486 4.52435 1.98027 4.53333 1.95733C4.54225 1.93438 4.55597 1.91358 4.57355 1.89634C4.59114 1.87909 4.6122 1.8658 4.63533 1.85733C4.65851 1.8489 4.68322 1.84549 4.70781 1.84733C4.73241 1.84916 4.75633 1.85621 4.778 1.868C4.79966 1.87991 4.81853 1.89629 4.83336 1.91607C4.84818 1.93584 4.85863 1.95854 4.864 1.98267L5.034 2.728C4.98588 2.74703 4.94211 2.7756 4.90533 2.812L4.90733 2.81267ZM8.42667 2.728C8.488 2.46133 8.55467 2.166 8.59667 1.98267C8.60208 1.95865 8.61255 1.93606 8.62738 1.9164C8.64221 1.89674 8.66106 1.88047 8.68267 1.86867C8.70423 1.85694 8.72804 1.84992 8.75252 1.84808C8.777 1.84624 8.80159 1.84962 8.82467 1.858C8.8479 1.86642 8.86907 1.8797 8.88677 1.89694C8.90448 1.91418 8.9183 1.935 8.92733 1.958C8.93638 1.98104 8.9404 2.00574 8.93913 2.03046C8.93787 2.05518 8.93135 2.07934 8.92 2.10133L8.55533 2.81267C8.51826 2.77567 8.47402 2.74663 8.42533 2.72733L8.42667 2.728ZM17.764 2.728L17.9347 1.98267C17.9401 1.95865 17.9506 1.93606 17.9654 1.9164C17.9802 1.89674 17.9991 1.88047 18.0207 1.86867C18.0422 1.85694 18.066 1.84992 18.0905 1.84808C18.115 1.84624 18.1396 1.84962 18.1627 1.858C18.1859 1.86642 18.2071 1.8797 18.2248 1.89694C18.2425 1.91418 18.2563 1.935 18.2653 1.958C18.2744 1.98104 18.2784 2.00574 18.2771 2.03046C18.2759 2.05518 18.2693 2.07934 18.258 2.10133L17.8933 2.81267C17.8561 2.77559 17.8116 2.74655 17.7627 2.72733L17.764 2.728ZM5.314 2.728L5.484 1.98267C5.48942 1.95865 5.49989 1.93606 5.51471 1.9164C5.52954 1.89674 5.54839 1.88047 5.57 1.86867C5.59156 1.85694 5.61537 1.84992 5.63985 1.84808C5.66433 1.84624 5.68893 1.84962 5.712 1.858C5.73523 1.86642 5.7564 1.8797 5.77411 1.89694C5.79181 1.91418 5.80564 1.935 5.81467 1.958C5.82371 1.98104 5.82773 2.00574 5.82647 2.03046C5.8252 2.05518 5.81868 2.07934 5.80733 2.10133L5.44267 2.81267C5.40559 2.77567 5.36136 2.74663 5.31267 2.72733L5.314 2.728ZM11.5393 2.728C11.6 2.46133 11.6673 2.166 11.7093 1.98267C11.7147 1.95865 11.7252 1.93606 11.74 1.9164C11.7549 1.89674 11.7737 1.88047 11.7953 1.86867C11.8169 1.85694 11.8407 1.84992 11.8652 1.84808C11.8897 1.84624 11.9143 1.84962 11.9373 1.858C11.9606 1.86642 11.9817 1.8797 11.9994 1.89694C12.0171 1.91418 12.031 1.935 12.04 1.958C12.049 1.98104 12.0531 2.00574 12.0518 2.03046C12.0505 2.05518 12.044 2.07934 12.0327 2.10133L11.6667 2.81133C11.6297 2.77487 11.5857 2.7463 11.5373 2.72733L11.5393 2.728ZM14.652 2.728L14.822 1.98267C14.8274 1.95865 14.8379 1.93606 14.8527 1.9164C14.8675 1.89674 14.8864 1.88047 14.908 1.86867C14.9296 1.85694 14.9534 1.84992 14.9779 1.84808C15.0023 1.84624 15.0269 1.84962 15.05 1.858C15.0732 1.86642 15.0944 1.8797 15.1121 1.89694C15.1298 1.91418 15.1436 1.935 15.1527 1.958C15.1617 1.98104 15.1657 2.00574 15.1645 2.03046C15.1632 2.05518 15.1567 2.07934 15.1453 2.10133L14.7807 2.81267C14.7434 2.77558 14.6989 2.74653 14.65 2.72733L14.652 2.728ZM17.556 2.70867C17.5187 2.37533 17.4753 1.988 17.4513 1.766C17.449 1.74199 17.4516 1.71776 17.4591 1.69481C17.4666 1.67187 17.4787 1.65072 17.4947 1.63267C17.5114 1.6139 17.5319 1.59895 17.555 1.58883C17.578 1.57871 17.6029 1.57365 17.628 1.574C17.6531 1.57369 17.678 1.57877 17.701 1.58889C17.724 1.59901 17.7446 1.61394 17.7613 1.63267C17.7778 1.65121 17.7902 1.67303 17.7977 1.6967C17.8052 1.72037 17.8075 1.74535 17.8047 1.77L17.6993 2.71267C17.6773 2.70872 17.655 2.70671 17.6327 2.70667C17.6065 2.70442 17.5801 2.70487 17.554 2.708L17.556 2.70867ZM14.4433 2.70867C14.406 2.37533 14.3627 1.988 14.3387 1.766C14.3363 1.74199 14.339 1.71776 14.3464 1.69481C14.3539 1.67187 14.366 1.65072 14.382 1.63267C14.3987 1.6139 14.4193 1.59895 14.4423 1.58883C14.4653 1.57871 14.4902 1.57365 14.5153 1.574C14.5405 1.57369 14.5654 1.57877 14.5884 1.58889C14.6114 1.59901 14.6319 1.61394 14.6487 1.63267C14.6652 1.65121 14.6776 1.67303 14.685 1.6967C14.6925 1.72037 14.6949 1.74535 14.692 1.77L14.5867 2.71267C14.5647 2.70872 14.5424 2.70671 14.52 2.70667C14.4938 2.70442 14.4674 2.70486 14.4413 2.708L14.4433 2.70867ZM8.218 2.70867C8.18067 2.37533 8.13733 1.988 8.11267 1.766C8.11033 1.74199 8.11297 1.71776 8.12043 1.69481C8.12788 1.67187 8.13999 1.65072 8.156 1.63267C8.17272 1.6139 8.19328 1.59895 8.21629 1.58883C8.23929 1.57871 8.2642 1.57365 8.28933 1.574C8.31446 1.57369 8.33936 1.57877 8.36235 1.58889C8.38535 1.59901 8.40592 1.61394 8.42267 1.63267C8.43916 1.65121 8.45155 1.67303 8.45902 1.6967C8.46649 1.72037 8.46887 1.74535 8.466 1.77L8.36067 2.71267C8.33866 2.70872 8.31636 2.70671 8.294 2.70667C8.26824 2.7045 8.24233 2.70495 8.21667 2.708L8.218 2.70867ZM5.10533 2.70867C5.068 2.37533 5.02467 1.988 5.00067 1.766C4.99833 1.74199 5.00097 1.71776 5.00843 1.69481C5.01588 1.67187 5.02799 1.65072 5.044 1.63267C5.06072 1.6139 5.08128 1.59895 5.10429 1.58883C5.12729 1.57871 5.1522 1.57365 5.17733 1.574C5.20246 1.57369 5.22736 1.57877 5.25035 1.58889C5.27335 1.59901 5.29392 1.61394 5.31067 1.63267C5.32716 1.65121 5.33955 1.67303 5.34702 1.6967C5.35449 1.72037 5.35687 1.74535 5.354 1.77L5.24867 2.71267C5.22666 2.70872 5.20436 2.70671 5.182 2.70667C5.15602 2.70447 5.12989 2.70491 5.104 2.708L5.10533 2.70867ZM11.3307 2.70867C11.2933 2.37533 11.25 1.988 11.226 1.766C11.2237 1.74199 11.2264 1.71777 11.2338 1.69483C11.2413 1.6719 11.2534 1.65074 11.2693 1.63267C11.2861 1.6139 11.3066 1.59895 11.3296 1.58883C11.3526 1.57871 11.3775 1.57365 11.4027 1.574C11.4278 1.57369 11.4527 1.57877 11.4757 1.58889C11.4987 1.59901 11.5193 1.61394 11.536 1.63267C11.5525 1.65121 11.5649 1.67303 11.5724 1.6967C11.5798 1.72037 11.5822 1.74535 11.5793 1.77L11.4667 2.708C11.4447 2.70405 11.4224 2.70205 11.4 2.702C11.3761 2.70178 11.3522 2.70378 11.3287 2.708L11.3307 2.70867ZM19.834 0.613332H3.102L3 0H19.9333L19.834 0.613332Z" fill="#FECC09"/>
</g>
<defs>
<clipPath id="clip0_2843_19842">
<rect width="32" height="32" fill="white"/>
</clipPath>
</defs>
</svg>
