<svg width="32" height="32" viewBox="0 0 32 32" fill="none" xmlns="http://www.w3.org/2000/svg">
<g clip-path="url(#clip0_2843_19654)">
<path d="M12.0007 26C12.0007 25.2089 12.2353 24.4355 12.6749 23.7777C13.1144 23.1199 13.7392 22.6073 14.4701 22.3045C15.201 22.0018 16.0051 21.9225 16.781 22.0768C17.5569 22.2312 18.2697 22.6121 18.8292 23.1716C19.3886 23.731 19.7695 24.4436 19.9239 25.2196C20.0782 25.9955 19.9991 26.7999 19.6963 27.5308C19.3936 28.2617 18.8808 28.8863 18.223 29.3259C17.5652 29.7654 16.7918 30 16.0007 30C14.9398 30 13.9224 29.5786 13.1723 28.8285C12.4221 28.0783 12.0007 27.0609 12.0007 26ZM3.08795 20.9787C1.16401 18.9598 0.0638682 16.295 0.0033103 13.5068C-0.0572476 10.7187 0.926334 8.00855 2.7608 5.90805H11.6185C8.44654 7.28272 6.26991 10.1026 6.26991 13.3553C6.30126 14.6774 6.66105 15.9709 7.31646 17.1195C7.97187 18.2681 8.90256 19.2358 10.0248 19.9354H21.976C23.0984 19.236 24.0292 18.2684 24.6846 17.1198C25.3401 15.9712 25.6998 14.6774 25.7308 13.3553C25.7308 10.1033 23.5539 7.28338 20.3812 5.90805H29.24C31.0744 8.00855 32.058 10.7187 31.9974 13.5068C31.9369 16.295 30.8368 18.9598 28.9128 20.9787H3.08795ZM7.98215 17.0713C11.3902 15.7733 13.7693 12.8453 13.7693 9.44662C13.7693 6.19462 11.5926 3.37469 8.41998 1.99936H17.2787C19.1126 4.10042 20.0956 6.81079 20.0349 9.59897C19.9742 12.3872 18.8741 15.052 16.9506 17.0713H7.98215Z" fill="#173576"/>
</g>
<defs>
<clipPath id="clip0_2843_19654">
<rect width="32" height="32" fill="white"/>
</clipPath>
</defs>
</svg>
