<svg width="32" height="32" viewBox="0 0 32 32" fill="none" xmlns="http://www.w3.org/2000/svg">
<g clip-path="url(#clip0_2843_19681)">
<path d="M9.32134 32C5.742 32 2.03134 30.6 0.333336 26.584V-1.53165e-05H10.7933V27.5653C12.0207 30.4127 14.6933 30.0493 17.906 28.2553C17.4087 30.1333 13.4527 32 9.32333 32H9.32134ZM21.2067 32V4.43465C19.98 1.58798 17.3067 1.95065 14.094 3.74465C15.0227 0.238652 28.0093 -3.22735 31.6667 5.41532V32H21.2067ZM10.8733 16C10.8665 14.9854 11.161 13.9916 11.7196 13.1446C12.2783 12.2976 13.0758 11.6355 14.0111 11.2423C14.9465 10.8491 15.9775 10.7425 16.9735 10.936C17.9695 11.1295 18.8857 11.6143 19.6058 12.3291C20.3259 13.0439 20.8176 13.9564 21.0185 14.9509C21.2193 15.9455 21.1204 16.9773 20.7342 17.9155C20.348 18.8538 19.6919 19.6562 18.849 20.2211C18.0062 20.786 17.0146 21.088 16 21.0887C14.6466 21.0906 13.3476 20.5562 12.3873 19.6025C11.4271 18.6487 10.8839 17.3534 10.8767 16H10.8733Z" fill="#2D2A68"/>
</g>
<defs>
<clipPath id="clip0_2843_19681">
<rect width="32" height="32" fill="white"/>
</clipPath>
</defs>
</svg>
