<svg width="32" height="32" viewBox="0 0 32 32" fill="none" xmlns="http://www.w3.org/2000/svg">
<g clip-path="url(#clip0_2843_20322)">
<path d="M4.06667 32L4 26.8167C5.3475 26.7122 6.6888 26.5391 8.01867 26.298C10.6659 25.867 13.24 25.0689 15.6667 23.9267C15.7087 23.9054 19.8667 21.7667 19.8667 20.2987C19.8854 20.1282 19.8479 19.9563 19.7598 19.8092C19.6716 19.6621 19.5378 19.5479 19.3787 19.484C18.4341 19.1003 17.4197 18.9187 16.4007 18.9507C16.1887 18.9507 16.044 18.9567 16.0053 18.9587L15.9607 23.6734C15.7087 23.6847 15.4613 23.6894 15.2273 23.6894C13.4982 23.7446 11.7808 23.3855 10.2187 22.642C9.48796 22.2862 8.85555 21.7567 8.37674 21.1C7.89793 20.4433 7.58729 19.6792 7.472 18.8747C7.33583 17.9591 7.40311 17.0247 7.66905 16.138C7.935 15.2514 8.39306 14.4342 9.01067 13.7447C10.2393 12.3441 11.7244 11.1914 13.386 10.3487C17.7685 7.98898 22.5663 6.49961 27.5147 5.96269L27.936 5.90469L28.0027 11.0874C26.655 11.19 25.3136 11.3631 23.984 11.606C21.3358 12.0371 18.7607 12.8357 16.3333 13.9787C16.2913 14 12.1333 16.1254 12.1333 17.606C12.1147 17.7765 12.1524 17.9484 12.2407 18.0955C12.3289 18.2426 12.4628 18.3568 12.622 18.4207C13.5659 18.8043 14.5796 18.9859 15.598 18.954C15.8113 18.954 15.956 18.9474 15.998 18.946L16.0427 14.2314C16.2947 14.22 16.542 14.2154 16.776 14.2154C18.5056 14.1599 20.2234 14.519 21.786 15.2627C22.5165 15.6184 23.1488 16.1475 23.6277 16.8039C24.1066 17.4602 24.4175 18.2238 24.5333 19.028C24.6693 19.9437 24.6018 20.8782 24.3357 21.7648C24.0695 22.6515 23.6112 23.4686 22.9933 24.158C21.7644 25.5583 20.2794 26.711 18.618 27.554C14.2324 29.9166 9.43057 31.4072 4.478 31.9434L4.06667 32ZM9.73333 10.9787C9.1418 10.985 8.56174 10.8154 8.06681 10.4914C7.57189 10.1673 7.18445 9.70352 6.9537 9.15881C6.72295 8.61411 6.65932 8.01311 6.77087 7.43216C6.88242 6.85121 7.16413 6.31652 7.58022 5.89602C7.9963 5.47552 8.52798 5.18818 9.10772 5.0705C9.68746 4.95282 10.2891 5.01011 10.8362 5.23509C11.3833 5.46008 11.8512 5.8426 12.1805 6.33407C12.5097 6.82555 12.6854 7.40379 12.6853 7.99536C12.6885 8.78294 12.3789 9.53958 11.8245 10.099C11.2701 10.6584 10.5163 10.9748 9.72867 10.9787H9.73333ZM16.03 7.92536C15.4384 7.93196 14.8583 7.76259 14.3632 7.43875C13.8681 7.1149 13.4805 6.65121 13.2495 6.10657C13.0185 5.56193 12.9547 4.96093 13.066 4.37991C13.1773 3.79889 13.4589 3.26408 13.8748 2.84342C14.2908 2.42276 14.8224 2.13523 15.4021 2.01737C15.9819 1.8995 16.5836 1.95661 17.1308 2.18145C17.678 2.40629 18.146 2.78871 18.4754 3.28012C18.8047 3.77153 18.9806 4.34976 18.9807 4.94136C18.9839 5.72878 18.6744 6.48528 18.1203 7.04476C17.5662 7.60423 16.8127 7.92095 16.0253 7.92536H16.03ZM22.896 5.96736C22.3046 5.97343 21.7246 5.80361 21.2299 5.47944C20.7352 5.15527 20.3479 4.69138 20.1174 4.14669C19.8868 3.602 19.8233 3.00108 19.935 2.42023C20.0466 1.83939 20.3284 1.30483 20.7445 0.884433C21.1605 0.46404 21.6922 0.17678 22.2718 0.0591346C22.8515 -0.0585111 23.453 -0.001236 24.0001 0.223687C24.5471 0.448609 25.015 0.831032 25.3442 1.32239C25.6735 1.81375 25.8493 2.39188 25.8493 2.98336C25.8529 3.77054 25.5438 4.52694 24.9901 5.08644C24.4364 5.64594 23.6832 5.96277 22.896 5.96736Z" fill="#D8262C"/>
</g>
<defs>
<clipPath id="clip0_2843_20322">
<rect width="32" height="32" fill="white"/>
</clipPath>
</defs>
</svg>
