<svg width="32" height="32" viewBox="0 0 32 32" fill="none" xmlns="http://www.w3.org/2000/svg">
<g clip-path="url(#clip0_2843_19937)">
<path d="M9.46133 28.02L8.57666 27.4867L22.232 19.524V12.6347L17.3333 9.788L25.0333 5.16333L30 8.11933V24.0393L16.308 32L9.46133 28.02ZM2.66666 23.8813V7.96L16.3593 0L23.2053 3.98067L24.09 4.514L10.434 12.4767V19.3653L15.3333 22.212L7.63333 26.836L2.66666 23.8813Z" fill="#277EB5"/>
<path d="M16.3333 20.6667C17.2563 20.6667 18.1586 20.393 18.926 19.8802C19.6934 19.3674 20.2916 18.6386 20.6448 17.7859C20.998 16.9331 21.0904 15.9948 20.9103 15.0896C20.7303 14.1843 20.2858 13.3528 19.6332 12.7002C18.9805 12.0475 18.149 11.6031 17.2438 11.423C16.3385 11.2429 15.4002 11.3354 14.5475 11.6886C13.6948 12.0418 12.9659 12.6399 12.4531 13.4073C11.9404 14.1748 11.6667 15.077 11.6667 16C11.6691 17.2369 12.1616 18.4225 13.0362 19.2971C13.9109 20.1717 15.0964 20.6642 16.3333 20.6667Z" fill="#DBAF2E"/>
</g>
<defs>
<clipPath id="clip0_2843_19937">
<rect width="32" height="32" fill="white"/>
</clipPath>
</defs>
</svg>
