<svg width="32" height="32" viewBox="0 0 32 32" fill="none" xmlns="http://www.w3.org/2000/svg">
<g clip-path="url(#clip0_2843_19756)">
<rect x="5.33334" y="28.6667" width="22" height="3.33333" fill="white"/>
<circle cx="16" cy="16" r="16" fill="white"/>
<path fill-rule="evenodd" clip-rule="evenodd" d="M27.8093 32H4.80867V28.3827L5.25867 27.8547C4.05536 26.764 3.02412 25.4974 2.2 24.098L8.148 27.504H8.80533L1.616 23.0113C1.38578 22.5402 1.17844 22.0569 0.994 21.5613L9.53733 27.504H9.98933L0.647333 20.516C0.474978 19.9302 0.336526 19.335 0.232667 18.7333L10.6573 27.504H11.1293L0.05 17.276C0.0166667 16.8551 0 16.4298 0 16C0 15.9058 0 15.8116 0 15.7173L11.58 27.504H11.908L0.0706667 14.4873C0.125612 13.8982 0.213304 13.3127 0.333333 12.7333L12.3447 27.504H12.644L0.658667 11.446C0.807111 10.9456 0.978889 10.4567 1.174 9.97933L12.9733 27.504H13.2527L1.76067 8.7C2.01815 8.19938 2.30187 7.7127 2.61067 7.242L13.5687 27.504H13.824L11.0107 21.6907L10.9213 21.6467C10.7737 21.572 10.6373 21.4771 10.516 21.3647C10.4043 21.2547 10.3091 21.1292 10.2333 20.992C10.1347 20.818 10.0593 20.632 9.97267 20.452C9.94533 20.3987 9.918 20.3467 9.888 20.2947C9.87328 20.2677 9.85412 20.2433 9.83133 20.2227C9.79267 20.1913 9.75133 20.1633 9.712 20.132C9.67306 20.1011 9.6393 20.0642 9.612 20.0227C9.59285 19.9874 9.57721 19.9503 9.56533 19.912C9.53876 19.898 9.5159 19.8779 9.49867 19.8533C9.48126 19.8277 9.47134 19.7977 9.47 19.7667C9.47046 19.7493 9.47202 19.7319 9.47467 19.7147C9.47467 19.708 9.47467 19.7013 9.47467 19.6947C9.47515 19.6743 9.47944 19.6541 9.48733 19.6353C9.49333 19.594 9.49933 19.5533 9.50733 19.512C9.51404 19.4737 9.52639 19.4366 9.544 19.402C9.60752 19.3069 9.6991 19.234 9.806 19.1933L8.08133 15.6293L8.02533 15.6113C7.84121 15.5629 7.67529 15.4616 7.548 15.32C7.51668 15.283 7.48942 15.2428 7.46667 15.2C7.44255 15.1478 7.42465 15.093 7.41333 15.0367C7.40068 14.9707 7.39376 14.9038 7.39267 14.8367C7.39267 14.77 7.39267 14.7033 7.38667 14.6367C7.38662 14.6333 7.38545 14.63 7.38333 14.6273C7.372 14.612 7.35933 14.5973 7.34667 14.5827C7.29133 14.5213 7.23333 14.4627 7.17867 14.4007C7.13367 14.3493 7.0937 14.2937 7.05933 14.2347C7.00601 14.1424 6.97881 14.0373 6.98067 13.9307C6.98309 13.8833 6.99161 13.8365 7.006 13.7913C7.03133 13.7207 7.05733 13.6507 7.08267 13.5807L3.45333 6.07533C3.78089 5.662 4.128 5.26555 4.49467 4.886L5.53333 7.33733C5.53368 7.25978 5.54059 7.18239 5.554 7.106C5.57972 6.98353 5.63599 6.86956 5.71758 6.77468C5.79917 6.6798 5.90343 6.6071 6.02067 6.56333C6.10961 6.52657 6.20708 6.51549 6.302 6.53133C6.36808 6.54704 6.43191 6.571 6.492 6.60267C6.5477 6.6308 6.60119 6.66311 6.652 6.69933L5.6 3.84333C5.97733 3.52022 6.36956 3.21467 6.77667 2.92667L8.18533 7.36733C8.23067 7.328 8.27467 7.28733 8.31867 7.24667C8.47267 7.1 8.62 6.948 8.77333 6.8C8.87688 6.69453 8.99415 6.60349 9.122 6.52933L7.946 2.17333C8.42653 1.89253 8.92143 1.63707 9.42867 1.408L10.8127 7.852L10.8453 7.81933C10.8825 7.78041 10.9164 7.73849 10.9467 7.694C10.9733 7.65637 10.9956 7.6159 11.0133 7.57333C11.0452 7.47673 11.0582 7.37485 11.0513 7.27333C11.046 7.15267 11.0313 7.03333 11.0233 6.91267C11.0121 6.80347 11.0257 6.69314 11.0633 6.59C11.1032 6.51972 11.1577 6.45882 11.2231 6.41143C11.2886 6.36405 11.3635 6.33127 11.4427 6.31533C11.4727 6.306 11.5033 6.29867 11.534 6.292C11.582 6.28133 11.63 6.27333 11.6787 6.26667H11.69L10.786 0.870667C11.2478 0.711111 11.7189 0.572666 12.1993 0.455332L12.8953 6.22867L13.1513 6.21867C13.3267 6.21333 13.5013 6.20867 13.6767 6.206C13.7987 6.206 13.922 6.206 14.044 6.206L14.1107 6.20067L13.6667 0.169334C14.1787 0.0942233 14.698 0.0439999 15.2247 0.0186666L15.4067 7.56C15.4209 7.57453 15.4341 7.59013 15.446 7.60667C15.4751 7.65141 15.4976 7.70014 15.5127 7.75133C15.5516 7.87484 15.5752 8.00271 15.5827 8.132C15.5873 8.188 15.59 8.244 15.592 8.3C15.5953 8.38933 15.5973 8.47867 15.6027 8.56667C15.6067 8.62267 15.6113 8.67867 15.6173 8.73533C15.6333 8.882 15.65 9.02867 15.664 9.17533C15.6671 9.21089 15.67 9.24644 15.6727 9.282H15.676C15.7047 9.26933 15.732 9.256 15.7587 9.24067C15.8696 9.17184 15.974 9.09307 16.0707 9.00533C16.1607 8.92733 16.2493 8.848 16.3373 8.77067C16.386 8.73067 16.386 8.73067 16.4353 8.69133C16.4847 8.652 16.5387 8.61533 16.5927 8.58067L16.6593 5.94867L16.81 0.0199992C17.3238 0.045777 17.8307 0.0953322 18.3307 0.168666L17.7307 8.31267C17.9741 8.2858 18.2193 8.27777 18.464 8.28867C18.5929 8.29476 18.7209 8.31374 18.846 8.34534L19.8 0.455332C20.28 0.572666 20.7511 0.711111 21.2133 0.870667L19.848 9.036C19.9538 9.02889 20.0593 9.02289 20.1647 9.018C20.2607 9.014 20.302 9.012 20.398 9.01C20.5273 9.01 20.658 9.01 20.7873 9.016C20.836 9.01933 20.8847 9.024 20.9333 9.032L22.5707 1.40933C23.0779 1.63843 23.5728 1.89389 24.0533 2.17467L22.0233 9.69467L22.0713 9.71667C22.1473 9.75304 22.2212 9.79354 22.2927 9.838C22.5098 9.96755 22.6894 10.1513 22.814 10.3713C22.8238 10.39 22.8333 10.4089 22.8427 10.428L25.2227 2.924C25.6293 3.21156 26.0216 3.51711 26.3993 3.84067L22.6133 14.094C22.651 14.161 22.6737 14.2354 22.68 14.312C22.6819 14.3617 22.6788 14.4116 22.6707 14.4607C22.666 14.4987 22.662 14.5373 22.658 14.5753C22.6513 14.6587 22.6513 14.6587 22.6467 14.742C22.633 15.2217 22.6553 15.7017 22.7133 16.178L27.5053 4.886C27.8716 5.26467 28.2187 5.66111 28.5467 6.07533L23.524 16.454C23.6745 16.513 23.8046 16.6147 23.898 16.7467C23.9314 16.7963 23.9581 16.8501 23.9773 16.9067C23.9985 16.9683 24.0098 17.0329 24.0107 17.098C24.01 17.1322 24.0065 17.1664 24 17.2L29.3867 7.24C29.6954 7.71072 29.9792 8.19739 30.2367 8.698L23.6073 19.552C23.6547 19.5907 23.7047 19.626 23.7553 19.66C23.8727 19.736 23.994 19.8053 24.1113 19.8807L24.144 19.9027L30.826 9.97733C31.0207 10.456 31.1924 10.9449 31.3413 11.444L24.6187 20.4533C24.6313 20.4892 24.642 20.5257 24.6507 20.5627C24.6784 20.7153 24.6951 20.8697 24.7007 21.0247C24.752 21.0493 24.8073 21.068 24.86 21.0913H24.8673L31.6667 12.7333C31.7881 13.3133 31.8771 13.8995 31.9333 14.4893L23.7473 23.4827C23.7473 23.5102 23.7473 23.5378 23.7473 23.5653C23.7473 23.644 23.7473 23.7227 23.7527 23.8013H23.774L23.9073 23.792C23.974 23.792 23.974 23.792 24.0407 23.792H24.0667L32 15.7173V15.788C32 15.8587 32 15.9293 32 16C32 16.4293 31.9831 16.8547 31.9493 17.276L24.5827 24.076C24.5827 24.096 24.5767 24.1153 24.5733 24.134C24.5673 24.1867 24.566 24.3067 24.564 24.3593C24.56 24.466 24.5567 24.5727 24.5527 24.6793C24.5513 24.7251 24.5418 24.7702 24.5247 24.8127C24.5212 24.8208 24.5169 24.8286 24.512 24.836L31.7673 18.7333L31.7473 18.8473C31.6461 19.4112 31.5143 19.9691 31.3527 20.5187L22.0107 27.504H22.4627L31.0053 21.5607L30.9707 21.6533C30.7956 22.1164 30.5998 22.5689 30.3833 23.0107L23.194 27.504H23.8513L29.8 24.098L29.7673 24.1533C29.0292 25.3954 28.1271 26.5323 27.0853 27.5333L27.8093 28.3827V32ZM5.20867 31.6H27.4087V28.7827H5.20867V31.6ZM20.6407 30.7173C20.6292 30.8417 20.5908 30.9621 20.528 31.07C20.4713 31.1904 20.3961 31.3013 20.3053 31.3987C20.2361 31.3941 20.1682 31.3767 20.1053 31.3473C20.04 31.3238 19.9794 31.2885 19.9267 31.2433C20.05 31.1877 20.1665 31.1182 20.274 31.036C20.368 30.9751 20.4419 30.888 20.4867 30.7853C20.4472 30.6873 20.3771 30.6047 20.2867 30.55L20.4353 30.2627C20.4971 30.3211 20.5453 30.3923 20.5767 30.4713C20.6147 30.5481 20.6365 30.6318 20.6407 30.7173ZM27.0347 31.11L26.8613 31.2733L26.6913 31.1033L26.8673 30.942L27.0347 31.11ZM22.1013 31.0947L21.928 31.258L21.758 31.088L21.9333 30.9267L22.1013 31.0947ZM8.288 29.4H8.52133V30.4C8.52402 30.5011 8.51553 30.6021 8.496 30.7013C8.47763 30.7857 8.43472 30.8627 8.37267 30.9227C8.30781 30.98 8.22317 31.0099 8.13667 31.006C8.08452 31.0085 8.03261 30.9975 7.98591 30.9742C7.93921 30.9508 7.8993 30.9159 7.87 30.8727C7.8008 30.757 7.76825 30.6232 7.77667 30.4887L8 30.4593C7.9983 30.5246 8.00823 30.5896 8.02933 30.6513C8.03717 30.6759 8.05252 30.6973 8.07322 30.7126C8.09392 30.7279 8.11892 30.7363 8.14467 30.7367C8.16701 30.7384 8.18938 30.7336 8.20903 30.7228C8.22869 30.712 8.24478 30.6958 8.25533 30.676C8.2833 30.5949 8.29441 30.5089 8.288 30.4233V29.4ZM9.81667 30.9793H9.562L9.46067 30.6207H8.994L8.898 30.9793H8.64933L9.10467 29.4H9.35267L9.81667 30.9793ZM7.64867 29.6667H7.02267V30.0167H7.60533V30.2833H7.02267V30.7133H7.67067V30.98H6.78867V29.4H7.64867V29.6667ZM10.176 30.9787H9.942V29.4H10.4353C10.5274 29.3945 10.6195 29.409 10.7053 29.4427C10.7657 29.4765 10.8127 29.5299 10.8387 29.594C10.8736 29.6722 10.8909 29.7571 10.8893 29.8427C10.8934 29.9459 10.8668 30.048 10.8127 30.136C10.7865 30.1747 10.7526 30.2077 10.7132 30.2328C10.6737 30.2579 10.6295 30.2747 10.5833 30.282C10.6316 30.3199 10.6739 30.3648 10.7087 30.4153C10.7596 30.4973 10.8042 30.5832 10.842 30.672L10.9833 30.98H10.7033L10.5333 30.638C10.4966 30.5584 10.4555 30.4809 10.41 30.406C10.3927 30.378 10.3683 30.355 10.3393 30.3393C10.3017 30.3252 10.2615 30.3191 10.2213 30.3213H10.174L10.176 30.9787ZM12.1573 30.9787H11.9027L11.8 30.6227H11.3333L11.2373 30.9813H10.9887L11.446 29.4H11.694L12.1573 30.9787ZM13 29.6667H12.6567V30.9787H12.4227V29.6667H12.0787V29.4H13V29.6667ZM14 30.9813H13.6V29.4H14.0667C14.1355 29.398 14.2043 29.4031 14.272 29.4153C14.3176 29.4265 14.3595 29.4495 14.3933 29.482C14.4322 29.5197 14.4626 29.5651 14.4827 29.6153C14.507 29.6738 14.519 29.7367 14.518 29.8C14.5188 29.8702 14.5038 29.9397 14.474 30.0033C14.4487 30.0603 14.4072 30.1085 14.3547 30.142C14.4243 30.169 14.4822 30.2198 14.518 30.2853C14.5572 30.3584 14.5768 30.4404 14.5747 30.5233C14.5747 30.5947 14.5623 30.6656 14.538 30.7327C14.5176 30.794 14.4831 30.8497 14.4373 30.8953C14.3941 30.9362 14.339 30.9624 14.28 30.97C14.2413 30.9762 14.148 30.98 14 30.9813ZM15.8207 30.9813H15.566L15.4647 30.6227H14.998L14.902 30.9813H14.6533L15.1067 29.4H15.3547L15.8207 30.9813ZM16.1647 30.9813H15.9473V29.4H16.1753L16.65 30.4547V29.4H16.8667V30.9793H16.6313L16.1647 29.9493V30.9813ZM17.3527 30.9813H17.1187V29.4H17.3527V30.1013L17.826 29.4H18.1407L17.704 30.0153L18.1647 30.9793H17.8613L17.5427 30.238L17.3527 30.5047V30.9813ZM6.63733 29.6667H6.294V30.9787H6.06V29.6667H5.71533V29.4H6.63733V29.6667ZM25.5113 30.7647H25.4447C25.3617 30.7634 25.2818 30.7337 25.218 30.6807C25.161 30.631 25.1098 30.5751 25.0653 30.514C25.0217 30.4538 24.9716 30.3986 24.916 30.3493C24.9204 30.376 24.9227 30.403 24.9227 30.43C24.9224 30.469 24.9183 30.5078 24.9107 30.546C24.8346 30.6456 24.7236 30.7125 24.6 30.7333C24.4775 30.7571 24.3528 30.7676 24.228 30.7647C24.0821 30.773 23.9357 30.7577 23.7947 30.7193C23.7409 30.6972 23.6959 30.6581 23.6664 30.6081C23.637 30.558 23.6246 30.4997 23.6313 30.442C23.6362 30.2986 23.6825 30.1597 23.7647 30.042C23.7782 30.0384 23.7926 30.04 23.805 30.0465C23.8173 30.0531 23.8268 30.0641 23.8313 30.0773C23.792 30.1368 23.7703 30.2061 23.7687 30.2773C23.7678 30.3203 23.7832 30.362 23.8117 30.3942C23.8403 30.4263 23.8799 30.4465 23.9227 30.4507C24.0424 30.4694 24.1636 30.4765 24.2847 30.472C24.4085 30.4747 24.5324 30.4682 24.6553 30.4527C24.7194 30.4444 24.7808 30.4216 24.8347 30.386C24.7288 30.228 24.5771 30.1061 24.4 30.0367C24.4022 29.9137 24.4138 29.7912 24.4347 29.67C24.713 29.5078 25.0142 29.3882 25.328 29.3153L25.1987 29.5927C25.0659 29.6278 24.9358 29.6723 24.8093 29.726C24.7155 29.7624 24.6236 29.8036 24.534 29.8493C24.6737 29.9075 24.8042 29.9856 24.9213 30.0813C24.992 30.1389 25.0588 30.201 25.1213 30.2673C25.1698 30.3199 25.2222 30.3687 25.278 30.4133C25.3272 30.4511 25.3873 30.4719 25.4493 30.4727H25.5587C25.7142 30.4727 25.792 30.4504 25.792 30.406C25.7676 30.3271 25.7261 30.2545 25.6707 30.1933L25.836 29.9673C25.9136 30.0646 25.9568 30.1849 25.9587 30.3093C25.9486 30.419 25.9132 30.5249 25.8553 30.6187C25.8136 30.6685 25.7607 30.7077 25.7009 30.7331C25.6411 30.7584 25.5761 30.7693 25.5113 30.7647ZM26.6013 30.7647H26.5347C26.4776 30.7704 26.4202 30.7568 26.3718 30.7259C26.3235 30.6951 26.2869 30.6488 26.268 30.5947C26.2286 30.4267 26.2098 30.2545 26.212 30.082C26.2076 29.9487 26.2022 29.8576 26.196 29.8087C26.187 29.717 26.1645 29.6271 26.1293 29.542L26.3293 29.3353C26.3684 29.4101 26.3895 29.493 26.3907 29.5773C26.3933 29.6169 26.3949 29.7004 26.3953 29.828V30.1453C26.3926 30.2148 26.3996 30.2844 26.416 30.352C26.4229 30.3853 26.4413 30.4152 26.468 30.4363C26.4947 30.4573 26.528 30.4684 26.562 30.4673H26.6547C26.8102 30.4673 26.888 30.4451 26.888 30.4007C26.8636 30.3218 26.8221 30.2492 26.7667 30.188L26.932 29.962C27.0096 30.0593 27.0528 30.1796 27.0547 30.304C27.0446 30.4137 27.0092 30.5196 26.9513 30.6133C26.9094 30.6652 26.8556 30.706 26.7944 30.7324C26.7332 30.7588 26.6664 30.7698 26.6 30.7647H26.6013ZM19.846 30.258C19.8366 30.3219 19.8159 30.3835 19.7847 30.44C19.7617 30.4997 19.7277 30.5547 19.6847 30.602C19.5914 30.6485 19.4916 30.6804 19.3887 30.6967C19.2093 30.7393 19.0257 30.7616 18.8413 30.7633C18.6743 30.7823 18.5065 30.7344 18.3747 30.63C18.3164 30.5611 18.2874 30.472 18.294 30.382C18.2943 30.232 18.3388 30.0855 18.422 29.9607H18.434C18.4475 29.9593 18.4612 29.962 18.4731 29.9686C18.485 29.9751 18.4946 29.9852 18.5007 29.9973C18.4641 30.0715 18.4415 30.1517 18.434 30.234C18.434 30.3927 18.6047 30.4718 18.946 30.4713C19.1935 30.4816 19.4407 30.444 19.674 30.3607C19.6447 30.284 19.605 30.2118 19.556 30.146L19.7193 29.9247C19.7589 29.9783 19.7891 30.0383 19.8087 30.102C19.8289 30.1518 19.8415 30.2044 19.846 30.258ZM21.364 30.7647H21.2167C21.1596 30.7704 21.1022 30.7568 21.0538 30.7259C21.0055 30.6951 20.9689 30.6488 20.95 30.5947C20.9105 30.4267 20.8917 30.2545 20.894 30.082C20.8896 29.9487 20.8842 29.8576 20.878 29.8087C20.869 29.717 20.8465 29.6271 20.8113 29.542L21.0113 29.3353C21.0504 29.4101 21.0714 29.493 21.0727 29.5773C21.0753 29.6169 21.0769 29.7004 21.0773 29.828V30.1453C21.0746 30.2148 21.0816 30.2844 21.098 30.352C21.1049 30.3853 21.1233 30.4152 21.15 30.4363C21.1767 30.4573 21.21 30.4684 21.244 30.4673H21.418C21.515 30.47 21.6119 30.4581 21.7053 30.432C21.8038 30.3952 21.8998 30.352 21.9927 30.3027C21.8433 30.236 21.6885 30.182 21.53 30.1413C21.5159 30.1408 21.5019 30.1432 21.4888 30.1483C21.4758 30.1535 21.4639 30.1613 21.454 30.1713C21.4258 30.2055 21.402 30.2431 21.3833 30.2833C21.3735 30.2879 21.3628 30.2904 21.352 30.2907C21.3424 30.2906 21.3331 30.2879 21.325 30.2828C21.3169 30.2777 21.3103 30.2705 21.306 30.262C21.336 30.1729 21.3707 30.0854 21.41 30C21.458 29.9111 21.5042 29.8667 21.5487 29.8667C21.6511 29.893 21.7501 29.9308 21.844 29.9793C21.9585 30.0392 22.083 30.0773 22.2113 30.092C22.3446 30.0862 22.477 30.069 22.6073 30.0407L22.4933 30.3007C22.3996 30.3109 22.3222 30.3224 22.2613 30.3353C22.2846 30.3801 22.3208 30.4168 22.3653 30.4406C22.4098 30.4644 22.4605 30.4742 22.5107 30.4687H22.7387C22.8942 30.4687 22.972 30.4464 22.972 30.402C22.9476 30.3231 22.9061 30.2505 22.8507 30.1893L23.016 29.9633C23.0936 30.0606 23.1368 30.1809 23.1387 30.3053C23.1286 30.415 23.0932 30.5209 23.0353 30.6147C22.9946 30.6649 22.9425 30.7048 22.8835 30.7311C22.8244 30.7574 22.7599 30.7693 22.6953 30.766H22.606C22.5529 30.7686 22.4998 30.7604 22.4501 30.7417C22.4003 30.723 22.3549 30.6943 22.3167 30.6573C22.2468 30.5765 22.1957 30.4811 22.1673 30.378C21.938 30.5402 21.8016 30.6333 21.758 30.6573C21.6382 30.7266 21.5024 30.7636 21.364 30.7647ZM14.026 30.2933H13.8367V30.7153H14.0533C14.1071 30.7175 14.1609 30.7142 14.214 30.7053C14.2496 30.6962 14.2803 30.6735 14.2993 30.642C14.3229 30.6016 14.3342 30.5553 14.332 30.5087C14.3332 30.467 14.3246 30.4256 14.3067 30.388C14.2911 30.3564 14.2652 30.331 14.2333 30.316C14.1661 30.2963 14.0959 30.2886 14.026 30.2933ZM15.3873 30.36L15.2273 29.774L15.0707 30.36H15.3873ZM9.38733 30.36L9.22733 29.774L9.07067 30.36H9.38733ZM11.728 30.36L11.568 29.774L11.4113 30.36H11.728ZM10.3593 29.6667H10.1767V30.0667H10.35C10.4208 30.0715 10.4919 30.0649 10.5607 30.0473C10.59 30.0336 10.6136 30.01 10.6273 29.9807C10.6445 29.9435 10.6527 29.9029 10.6513 29.862C10.6534 29.817 10.6425 29.7724 10.62 29.7333C10.6104 29.7174 10.5977 29.7037 10.5825 29.6931C10.5674 29.6824 10.5502 29.675 10.532 29.6713C10.4746 29.6663 10.4169 29.6648 10.3593 29.6667ZM13.972 29.6667H13.8387V30.032H13.992C14.0487 30.0334 14.1055 30.0316 14.162 30.0267C14.1808 30.0241 14.1989 30.0178 14.2152 30.0081C14.2314 29.9983 14.2455 29.9854 14.2567 29.97C14.2812 29.9337 14.2933 29.8904 14.2913 29.8467C14.2932 29.8048 14.2827 29.7633 14.2613 29.7273C14.2515 29.7123 14.2386 29.6996 14.2234 29.69C14.2082 29.6804 14.1911 29.6743 14.1733 29.672C14.1493 29.6684 14.0822 29.6667 13.972 29.6667ZM19.0507 29.8127L18.8913 29.9633L18.7333 29.8033L18.8953 29.658L19.0507 29.8127ZM19.444 29.792L19.2847 29.9413L19.1287 29.784L19.292 29.638L19.444 29.792ZM25.9707 29.6447L25.7973 29.808L25.6273 29.638L25.8033 29.4767L25.9707 29.6447ZM23.2913 29.6533L23.1433 29.802L22.9927 29.6687L22.8553 29.8073L22.696 29.6667L22.844 29.5153L22.9947 29.6487L23.132 29.508L23.2913 29.6533ZM14.3393 27.504L13.5053 25.246H13.486L13.426 25.2347C13.3977 25.2283 13.3712 25.2156 13.3487 25.1973C13.3229 25.1751 13.3045 25.1455 13.2959 25.1125C13.2873 25.0795 13.289 25.0447 13.3007 25.0127C13.3115 24.9859 13.3284 24.9619 13.35 24.9427L13.382 24.916L13.1073 24.172C13.0805 24.1895 13.0519 24.204 13.022 24.2153C12.9823 24.2305 12.9412 24.2418 12.8993 24.2493C12.878 24.2533 12.8567 24.256 12.8327 24.2587C12.7923 24.2624 12.7517 24.2624 12.7113 24.2587L14.0893 27.5067L14.3393 27.504ZM14.5733 27.504H14.7853L14.1947 25.316C14.0867 25.3107 13.9793 25.3033 13.872 25.2933L14.5733 27.504ZM15.034 27.504H15.246L14.8827 25.3333H14.7847H14.5673L15.034 27.504ZM15.4573 27.504H15.6693L15.5113 25.3333H15.476H15.196L15.4573 27.504ZM16.1133 27.504L16.1693 25.312C16.0911 25.3507 16.001 25.3583 15.9173 25.3333C15.898 25.3333 15.8787 25.3333 15.8593 25.3333H15.8373L15.89 27.506L16.1133 27.504ZM16.5413 27.504L16.904 24.4967C16.898 24.512 16.892 24.528 16.886 24.5433C16.8715 24.5769 16.8544 24.6092 16.8347 24.64C16.7608 24.7403 16.6707 24.8275 16.568 24.898L16.5153 24.9347L16.3267 27.5033L16.5413 27.504ZM16.9647 27.504L17.7773 23.72C17.7587 23.7607 17.74 23.8013 17.7207 23.842C17.7013 23.8827 17.6973 23.8893 17.672 23.9353C17.638 24.0114 17.5894 24.08 17.5289 24.1372C17.4684 24.1944 17.3972 24.239 17.3193 24.2687L17.2933 24.2747L16.7527 27.5013L16.9647 27.504ZM17.2127 27.504H17.4247L18.3527 24.5787C18.3377 24.5678 18.3243 24.5551 18.3127 24.5407C18.2905 24.5109 18.2742 24.4772 18.2647 24.4413C18.2438 24.3608 18.2406 24.2766 18.2553 24.1947C18.2553 24.1753 18.2627 24.15 18.2667 24.128C18.2753 24.0847 18.2847 24.0413 18.2927 23.9947C18.306 23.9047 18.3167 23.814 18.326 23.724C18.3381 23.6113 18.3443 23.498 18.3447 23.3847C18.3447 23.3607 18.3447 23.3367 18.3447 23.312L17.2127 27.504ZM17.6593 27.504H17.9067L18.984 24.9647C18.9655 24.9614 18.9474 24.9562 18.93 24.9493C18.8931 24.9347 18.86 24.912 18.833 24.883C18.806 24.8539 18.7859 24.8192 18.774 24.7813C18.7641 24.7439 18.7594 24.7053 18.76 24.6667V24.6547L18.7153 24.65L17.6593 27.504ZM18.1747 27.504H18.43L19.7013 25.154C19.615 25.1523 19.5289 25.1436 19.444 25.128C19.4079 25.1219 19.3722 25.1132 19.3373 25.102L18.1747 27.504ZM19.0253 27.504L20.6213 25.1333C20.478 25.1333 20.3347 25.1333 20.1913 25.1393L18.7473 27.504H19.0253ZM19.6533 27.504L21.614 25.092H21.6027C21.4467 25.1013 21.2907 25.11 21.136 25.1173L19.356 27.504H19.6533ZM20.4153 27.504L22.8667 25.0087L22.5887 25.0267L22.322 25.0447L20.0847 27.5047L20.4153 27.504ZM21.3407 27.504L24.4407 24.8953C24.3917 24.9172 24.339 24.9297 24.2853 24.932H24.2493C24.226 24.932 24.2027 24.932 24.1793 24.932C24.146 24.932 24.116 24.928 24.082 24.9253C24.048 24.9227 24 24.918 23.9593 24.9173C23.8927 24.9173 23.826 24.9247 23.7593 24.9293L23.6487 24.9387L20.87 27.504H21.3407ZM13.1333 23.7473H13.1453C13.1635 23.7464 13.1818 23.7464 13.2 23.7473L13.2233 23.7513L13.2453 23.756L13.2667 23.7613H13.2747H13.2827H13.2927H13.3007H13.3073H13.316L13.326 23.7647L13.3393 23.77L13.3507 23.7747L13.362 23.7793L13.3753 23.7853L13.3847 23.7893L13.4 23.7967C13.4548 23.8238 13.5076 23.8548 13.558 23.8893C13.6517 23.9478 13.736 24.0202 13.808 24.104C13.8776 24.1928 13.9247 24.2972 13.9454 24.4081C13.9661 24.5191 13.9596 24.6334 13.9267 24.7413C13.908 24.8115 13.8771 24.8779 13.8353 24.9373C13.924 24.9467 14.012 24.9533 14.102 24.9587H14.114L14.1913 24.9627H14.2127L14.2927 24.966H14.324H14.3907H14.4233H14.49H14.562H14.8287H15.158H15.4793H15.5747H15.6733H15.8667C15.8992 24.9653 15.9317 24.9666 15.964 24.97H15.976C15.9827 24.9487 15.99 24.928 15.9987 24.9067C16.0171 24.8677 16.0434 24.8329 16.076 24.8047C16.112 24.7771 16.1487 24.7504 16.186 24.7247L16.2813 24.658L16.3287 24.6253L16.3753 24.592C16.4027 24.5713 16.4293 24.55 16.456 24.5253L16.4827 24.5007L16.496 24.488L16.5093 24.4753L16.522 24.462L16.528 24.4553L16.5347 24.448L16.54 24.4413L16.546 24.434L16.5547 24.4227L16.5593 24.4153C16.5756 24.3885 16.5886 24.3599 16.598 24.33C16.6107 24.294 16.6233 24.258 16.6373 24.2227C16.6513 24.1873 16.6507 24.1913 16.6653 24.1607C16.6863 24.1195 16.7128 24.0814 16.744 24.0473C16.8053 23.9853 16.8842 23.9436 16.97 23.928H16.9847H17.002C17.076 23.918 17.1507 23.928 17.2247 23.9173C17.2352 23.9162 17.2454 23.913 17.2547 23.908L17.2667 23.9333L17.278 23.9233L17.2813 23.92L17.292 23.9093L17.302 23.8987L17.3113 23.8873L17.3207 23.8753V23.8713L17.3293 23.8593L17.3373 23.8473L17.35 23.8273L17.3593 23.812L17.3687 23.796L17.3747 23.7847L17.4013 23.7347C17.4513 23.6353 17.4953 23.5347 17.5447 23.4327C17.5733 23.378 17.6053 23.3253 17.634 23.2707C17.6687 23.204 17.7007 23.1373 17.7373 23.0753C17.7573 23.0407 17.778 23.0087 17.804 22.974C17.8289 22.9387 17.856 22.9051 17.8853 22.8733C17.9109 22.8462 17.9383 22.8208 17.9673 22.7973L17.9907 22.7793L18 22.772L18.0133 22.7627L18.0207 22.758L18.038 22.7467L18.0613 22.732C18.1123 22.6906 18.1722 22.6617 18.2363 22.6473C18.3004 22.633 18.3669 22.6337 18.4307 22.6493C18.4595 22.6615 18.4861 22.6784 18.5093 22.6993C18.5332 22.7204 18.554 22.7446 18.5713 22.7713C18.5975 22.8125 18.6171 22.8575 18.6293 22.9047C18.6497 22.9922 18.6617 23.0815 18.6653 23.1713C18.6733 23.2627 18.6773 23.354 18.6767 23.4453C18.6767 23.5247 18.6713 23.604 18.6647 23.6833V23.6887C18.6647 23.7064 18.6631 23.724 18.66 23.7413C18.66 23.7627 18.6553 23.7847 18.6533 23.808V23.8127V23.8287L18.65 23.86V23.876V23.886V23.8993V23.9173L18.646 23.946V23.9587V23.966V23.974L18.6387 24.0307C18.6287 24.1033 18.61 24.1747 18.598 24.2473C18.598 24.2673 18.5933 24.2873 18.5927 24.308V24.3113C18.642 24.316 18.692 24.3167 18.742 24.32H18.768H18.786H18.808H18.8193H18.8293H18.8447C18.8685 24.3243 18.8919 24.3305 18.9147 24.3387C18.9548 24.3525 18.9912 24.3753 19.0211 24.4053C19.051 24.4354 19.0737 24.4719 19.0873 24.512C19.0985 24.5499 19.1041 24.5892 19.104 24.6287H19.1793C19.2464 24.6317 19.311 24.655 19.3647 24.6953C19.3808 24.7079 19.3962 24.7215 19.4107 24.736C19.4244 24.7516 19.4396 24.7659 19.456 24.7787H19.4667H19.4773L19.498 24.7833L19.5427 24.7913C19.6632 24.808 19.7851 24.8133 19.9067 24.8073H19.9347H19.976L20.1447 24.7993H20.188H20.2307C20.3587 24.7993 20.4867 24.7993 20.6147 24.7953L20.8813 24.7873L20.9793 24.7833H21.0087L21.1333 24.778L21.248 24.7727H21.274L21.396 24.766H21.4213L21.9033 24.736L22.2647 24.712L22.5787 24.6907L22.65 24.686L22.9633 24.6667C23.054 24.66 23.1453 24.6513 23.236 24.6427L23.5093 24.616H23.5407L23.58 24.6127H23.606L23.646 24.6093L23.7327 24.602C23.7993 24.5971 23.866 24.5929 23.9327 24.5893H24.004H24.028C24.0947 24.5933 24.1547 24.6 24.218 24.602C24.218 24.4793 24.2273 24.356 24.232 24.2333L24.2373 24.116L24.1427 24.122H24.1113H23.9747H23.9413H23.9333H23.9127L23.8553 24.126H23.8473H23.8153H23.778H23.7427C23.6367 24.136 23.5307 24.1487 23.424 24.1587L23.2907 24.1687C23.2347 24.1687 23.1793 24.1727 23.1233 24.172H23.0947H23.07C23.0073 24.1651 22.9461 24.1482 22.8887 24.122C22.822 24.092 22.7593 24.0553 22.6887 24.0233C22.6706 24.0164 22.6521 24.0106 22.6333 24.006H22.6167H22.6113H22.6H22.5933H22.5833H22.5767H22.5667H22.554H22.5327H22.5227H22.4987C22.454 24.002 22.41 23.9993 22.3653 23.9947C22.3207 23.99 22.328 23.9893 22.2907 23.9827C22.2502 23.974 22.2105 23.962 22.172 23.9467C22.1317 23.9293 22.0925 23.9095 22.0547 23.8873L22.0227 23.8687L22.0013 23.8553L21.9927 23.85H21.9887L21.9807 23.8447L21.9713 23.8387L21.9587 23.8307L21.938 23.8173L21.9333 23.8L21.9273 23.796L21.8767 23.7627L21.8493 23.7447L21.8327 23.734L21.824 23.7287L21.7933 23.7093C21.7626 23.6915 21.7311 23.6752 21.6987 23.6607L21.684 23.6547H21.68H21.672L21.6567 23.65H21.6507C21.6052 23.6374 21.5588 23.628 21.512 23.622C21.4593 23.614 21.4067 23.608 21.354 23.6027C21.2873 23.596 21.2207 23.5913 21.154 23.5887H21.1487H21.1107H20.9333H20.9073H20.894H20.868H20.856H20.818L20.7747 23.5927H20.762L20.7293 23.5967H20.7173L20.6747 23.6027L20.608 23.612C20.5493 23.6207 20.4913 23.63 20.4327 23.6373L20.328 23.648C20.2266 23.6568 20.1245 23.6554 20.0233 23.644C19.9451 23.6373 19.8691 23.6146 19.8 23.5773L19.7887 23.5707H19.784L19.778 23.5667L19.7673 23.5593L19.7333 23.5333L19.7253 23.5273L19.718 23.5213L19.7133 23.5173L19.702 23.508L19.6927 23.5H19.6887H19.6853L19.6813 23.4967L19.6733 23.4893L19.6607 23.478L19.6413 23.4607C19.6193 23.4413 19.5973 23.422 19.5747 23.404C19.486 23.3373 19.3907 23.2753 19.3007 23.2087L19.272 23.1853L19.264 23.1787L19.2567 23.1727L19.2373 23.156L19.2233 23.1433L19.2187 23.1387L19.21 23.1307L19.206 23.1267L19.202 23.1227L19.196 23.1167L19.19 23.1107L19.186 23.1067L19.182 23.1027L19.1733 23.0933L19.1687 23.0887L19.1507 23.0687L19.134 23.0493L19.13 23.0447L19.1227 23.0353L19.1193 23.0307V23.0267L19.1147 23.0207L19.1093 23.0127L19.106 23.008V23.0047L19.0973 22.992V22.988L19.0833 22.9667V22.962L19.0753 22.9493V22.9453V22.94L19.0707 22.932L19.0673 22.9253V22.9207V22.9167V22.912L19 22.86V22.8547L18.9907 22.836V22.832L18.982 22.8133V22.8073L18.9773 22.7973V22.7927V22.788V22.7827V22.7767V22.7687V22.7627V22.7593V22.756L18.9733 22.744V22.7367C18.9647 22.7113 18.9567 22.6853 18.95 22.6593C18.918 22.5353 18.9073 22.4073 18.8873 22.2813C18.882 22.2527 18.876 22.2247 18.8687 22.1967C18.8589 22.1565 18.8412 22.1186 18.8167 22.0853C18.7925 22.0577 18.7615 22.037 18.7267 22.0253L18.7107 22.02L18.662 22H18.644L18.6233 21.996C18.5958 21.991 18.568 21.9881 18.54 21.9873H18.5233H18.49C18.3774 22.0014 18.2687 22.0374 18.17 22.0933L18.1227 22.1187C18.0193 22.1753 17.9187 22.2367 17.8153 22.2927C17.7488 22.3272 17.6805 22.3581 17.6107 22.3853L17.602 22.3887L17.5853 22.3953H17.5807H17.576H17.5673L17.5567 22.3993H17.5473H17.54H17.534H17.528L17.5133 22.404H17.504L17.472 22.4147H17.4633L17.4447 22.4207H17.44H17.4353H17.4267L17.4153 22.424H17.4067H17.3993H17.3927H17.386L17.3727 22.428H17.3627H17.3587L17.3333 22.4347H17.328H17.3167L17.2993 22.4393H17.294H17.2827H17.2727H17.2693L17.214 22.452L17.1853 22.4587L17.156 22.4647H17.148C17.0007 22.4953 16.8513 22.5173 16.7027 22.5367L16.6607 22.542L16.5113 22.56L16.4447 22.5673H16.434H16.416H16.41H16.3987H16.3833H16.3647H16.3507H16.2527C16.1551 22.5691 16.0583 22.5509 15.968 22.514C15.9012 22.4844 15.839 22.4453 15.7833 22.398L15.7753 22.3913L15.7667 22.384L15.728 22.3487L15.7213 22.3427L15.7127 22.334L15.7087 22.3293L15.6967 22.3167L15.6873 22.3067L15.6833 22.3027L15.658 22.276L15.654 22.272L15.6413 22.258L15.636 22.252L15.6293 22.2447L15.6053 22.2173L15.562 22.168L15.5387 22.1413L15.5247 22.126L15.518 22.1187L15.4927 22.0907C15.4713 22.0687 15.4493 22.0473 15.426 22.024L15.412 22.0127L15.4073 22.0087L15.398 22.0013L15.392 21.9967L15.3833 21.9907L15.3333 22.0333L15.3253 22.028L15.3173 22.0233L15.31 22.0187L15.3013 22.0133L15.2947 22.0093L15.2853 22.004L15.282 22L15.2707 21.994C15.1349 21.9324 14.991 21.8907 14.8433 21.87L14.7767 21.8573L14.7467 21.8513H14.7373L14.6507 21.8347C14.5947 21.8227 14.5393 21.81 14.484 21.7947L14.4547 21.786H14.4473L14.4333 21.7813H14.4273H14.4227H14.416H14.4067L14.3973 21.778H14.3907H14.386H14.38L14.3667 21.7733H14.3593H14.354L14.332 21.7647H14.3287H14.324L14.3033 21.756L14.294 21.752L14.2833 21.7473C14.1889 21.7059 14.0982 21.6566 14.012 21.6C13.91 21.5318 13.812 21.4577 13.7187 21.378L13.714 21.374L13.6927 21.356L13.6847 21.3487L13.6807 21.3453L13.6587 21.3267L13.65 21.3193L13.646 21.316L13.5947 21.2713L13.578 21.2573L13.5113 21.1967L13.4387 21.134L13.3787 21.084L13.3573 21.066L13.3193 21.0347L13.2467 20.9753L13.1927 20.9307L13.1607 20.904L13.0887 20.8447L13.0773 20.8353L13.0693 20.8287L13.05 20.8127L13.03 20.796L13.0207 20.7887L13.0073 20.778L12.9887 20.7627L12.9713 20.748L12.946 20.7267C12.836 20.6313 12.7273 20.5347 12.624 20.4313C12.5598 20.371 12.5009 20.3052 12.448 20.2347C12.3643 20.1092 12.3021 19.9706 12.264 19.8247C12.2118 19.6329 12.1777 19.4367 12.162 19.2387C12.156 19.172 12.156 19.1013 12.1507 19.0333C12.1482 19.0047 12.1442 18.9762 12.1387 18.948C12.1344 18.9199 12.1224 18.8936 12.104 18.872C12.0968 18.8662 12.0884 18.8621 12.0793 18.86C12.0508 18.8565 12.0219 18.8581 11.994 18.8647C11.9513 18.872 11.9087 18.8807 11.866 18.8873L11.8193 18.892H11.784C11.7522 18.8921 11.7205 18.8892 11.6893 18.8833C11.6477 18.8733 11.6067 18.8606 11.5667 18.8453C11.4597 18.8152 11.3641 18.7539 11.292 18.6693C11.2552 18.61 11.2248 18.547 11.2013 18.4813L11.1973 18.4733C11.1799 18.4657 11.1615 18.4603 11.1427 18.4573H11.1187H11.1087H11.1H11.0927L11.0833 18.4607H11.0767L11.07 18.464L11.062 18.4687L11.0493 18.4773L11 18.4667C10.9873 18.4767 10.9753 18.4873 10.964 18.498C10.914 18.548 10.8693 18.602 10.8207 18.6533C10.754 18.72 10.68 18.7867 10.614 18.86C10.5987 18.8773 10.5833 18.8953 10.5693 18.9133C10.5467 18.9453 10.5253 18.98 10.5027 19.0113L10.492 19.028L10.48 19.0467L10.4607 19.0773L10.4507 19.0933L10.4447 19.1027V19.1073L10.4333 19.1247L10.426 19.136L10.418 19.148L10.4053 19.166C10.3867 19.1913 10.368 19.216 10.3487 19.24C10.3233 19.2706 10.295 19.2985 10.264 19.3233C10.212 19.3602 10.1561 19.3913 10.0973 19.416L10.0133 19.454L9.99667 19.4613L9.95533 19.4807H9.952L9.90467 19.504C9.88469 19.5148 9.86553 19.5271 9.84733 19.5407L9.838 19.5493C9.83267 19.5727 9.82933 19.5953 9.82533 19.616L9.822 19.6407C9.83405 19.6612 9.84496 19.6823 9.85467 19.704C9.872 19.746 9.88467 19.79 9.90267 19.832C9.91507 19.8461 9.92892 19.8588 9.944 19.87C9.98 19.8973 10.0167 19.9233 10.052 19.952C10.0747 19.972 10.074 19.9713 10.096 19.9927C10.1113 20.009 10.1258 20.0262 10.1393 20.044C10.1613 20.0773 10.1813 20.1107 10.2013 20.1453C10.2993 20.322 10.3773 20.5087 10.468 20.69C10.494 20.7407 10.52 20.7913 10.5487 20.8407C10.6043 20.9355 10.6715 21.0231 10.7487 21.1013L10.7647 21.1167L10.7693 21.1207L10.7853 21.1347C10.9098 21.2401 11.0494 21.3264 11.1993 21.3907L11.2567 21.4167L11.2747 21.4247L11.308 21.4393L11.3913 21.4753L11.49 21.5173L11.5807 21.5567L11.6953 21.608C11.7398 21.6284 11.7824 21.6507 11.8233 21.6747C11.8898 21.7083 11.9535 21.7471 12.014 21.7907C12.1374 21.8896 12.2472 22.0044 12.3407 22.132C12.3571 22.1533 12.3736 22.1756 12.39 22.1987L12.3993 22.212L12.4053 22.2207L12.4127 22.2307L12.4213 22.2427L12.428 22.252L12.4367 22.2647L12.4567 22.2947L12.4693 22.314L12.4793 22.33L12.4967 22.3593L12.5067 22.3773L12.5187 22.3987L12.526 22.412L12.5347 22.4293L12.542 22.444L12.5513 22.464C12.5916 22.5515 12.622 22.6432 12.642 22.7373L12.6487 22.7707L12.654 22.798V22.8087V22.828V22.844V22.858V22.8793V22.888L12.6667 22.9333L12.6707 22.9673V22.996C12.6807 23.1067 12.6847 23.218 12.6873 23.3293C12.6873 23.4293 12.6967 23.5293 12.7 23.63C12.7 23.704 12.7 23.7787 12.7 23.8527C12.7011 23.875 12.7038 23.8973 12.708 23.9193C12.765 23.93 12.8239 23.9257 12.8787 23.9067L12.896 23.9007H12.9007C12.9051 23.8893 12.9102 23.8781 12.916 23.8673C12.9268 23.8484 12.9402 23.8311 12.956 23.816L12.9673 23.8067L12.9767 23.7993L12.986 23.7927L12.9967 23.786L13.0073 23.78L13.018 23.7747L13.0293 23.77L13.0407 23.7653L13.052 23.7613L13.0633 23.758H13.0753H13.0907H13.102H13.1133L13.1333 23.7473ZM13.5827 24.374L13.6273 24.5147C13.6222 24.465 13.6065 24.4171 13.5813 24.374H13.5827ZM10.2753 8.48333C10.2279 8.46453 10.1785 8.45133 10.128 8.444L10.0953 8.43933H10.0847H10.062H10.0493H10.0287H10.0153H9.994H9.8H9.78333H9.766H9.75267L9.67267 8.44667L9.64267 8.45L9.558 8.46133L9.52933 8.466C9.54 8.38267 9.55 8.29933 9.55933 8.21533L9.56467 8.16267L9.57 8.10733L9.57667 8.03667L9.58067 7.98867V7.96133L9.58667 7.88467C9.59133 7.80933 9.596 7.734 9.59867 7.65867C9.59867 7.608 9.59867 7.55667 9.602 7.506C9.60533 7.45533 9.602 7.40667 9.602 7.35733C9.602 7.308 9.598 7.27133 9.594 7.21667C9.58991 7.11187 9.56851 7.00848 9.53067 6.91067C9.52216 6.88488 9.50781 6.86141 9.48872 6.8421C9.46964 6.82279 9.44635 6.80815 9.42067 6.79933C9.40428 6.79735 9.38772 6.79735 9.37133 6.79933H9.36H9.356H9.34867H9.344H9.33733H9.33267H9.326H9.32133H9.31467H9.31067H9.30333H9.29933L9.29 6.804L9.272 6.81333L9.25667 6.822L9.24333 6.83L9.23667 6.834L9.21933 6.846L9.19933 6.86067C9.13278 6.91125 9.06933 6.96579 9.00933 7.024C8.876 7.152 8.74733 7.284 8.61533 7.41267C8.55333 7.472 8.49067 7.53 8.426 7.58667C8.37267 7.63378 8.31756 7.67822 8.26067 7.72C8.21667 7.75333 8.17067 7.78667 8.12733 7.816C8.09333 7.838 8.06067 7.85933 8.02267 7.87867C7.91122 7.94278 7.78936 7.98679 7.66267 8.00867C7.63837 8.01237 7.61389 8.01482 7.58933 8.016H7.56467C7.53192 8.0162 7.49926 8.01262 7.46733 8.00533C7.41394 7.99232 7.36334 7.96973 7.318 7.93867C7.21894 7.86533 7.13362 7.77505 7.066 7.672L7.03533 7.62867V7.624L7.02867 7.61467C6.962 7.51867 6.89533 7.42 6.82867 7.324C6.79133 7.27333 6.754 7.224 6.714 7.17467C6.62268 7.06093 6.51128 6.9649 6.38533 6.89133C6.35746 6.87596 6.32875 6.86216 6.29933 6.85C6.28431 6.84279 6.26839 6.83763 6.252 6.83467C6.21777 6.8326 6.18353 6.83853 6.152 6.852C6.08374 6.87769 6.02316 6.92037 5.976 6.976C5.93949 7.01868 5.91305 7.06904 5.89867 7.12333C5.89101 7.15598 5.88611 7.1892 5.884 7.22267C5.87867 7.284 5.87733 7.346 5.878 7.408C5.88262 7.60924 5.90268 7.80983 5.938 8.008C5.96333 8.15933 5.99533 8.30933 6.034 8.458L6.03733 8.47067L6.05333 8.52933V8.53733L6.07 8.596V8.604L6.08467 8.65267L6.08933 8.66733L6.10733 8.72333C6.14485 8.83926 6.18937 8.95281 6.24067 9.06333L6.258 9.1L6.264 9.112L6.27667 9.13667L6.292 9.16467V9.16933L6.30933 9.19933L6.31933 9.21667L6.32333 9.22267C6.332 9.23667 6.34067 9.25 6.35 9.264L6.36267 9.28267L6.374 9.29867L6.38533 9.314L6.39667 9.32867L6.418 9.354L6.43667 9.558L6.44267 9.62V9.654L6.452 9.74933C6.46785 10.0064 6.52949 10.2586 6.634 10.494C6.66371 10.5497 6.69782 10.603 6.736 10.6533C6.78733 10.72 6.84 10.7907 6.89467 10.8573L6.96133 10.9407L6.97533 10.9573L7.01067 11L7.08333 11.0873L7.11867 11.13L7.13333 11.1473L7.17 11.1913L7.19467 11.2207L7.26133 11.3027C7.32578 11.3836 7.38867 11.4651 7.45 11.5473C7.49133 11.604 7.53133 11.6607 7.57067 11.7187C7.61204 11.7742 7.64547 11.8352 7.67 11.9C7.69412 11.9814 7.70669 12.0658 7.70733 12.1507C7.70968 12.2502 7.705 12.3498 7.69333 12.4487V12.4547L7.688 12.498C7.64371 12.821 7.57053 13.1394 7.46933 13.4493C7.44 13.5422 7.40889 13.6344 7.376 13.726C7.35444 13.7771 7.33575 13.8294 7.32 13.8827C7.3184 13.8919 7.31728 13.9013 7.31667 13.9107C7.32562 14.0021 7.36673 14.0874 7.43267 14.1513C7.49933 14.224 7.566 14.2927 7.62867 14.3667C7.65176 14.3938 7.67188 14.4233 7.68867 14.4547C7.71166 14.5084 7.72389 14.5662 7.72467 14.6247C7.72467 14.6973 7.72467 14.77 7.73 14.8427V14.866V14.8707V14.8927C7.73418 14.9312 7.74314 14.969 7.75667 15.0053C7.77542 15.0527 7.80539 15.0948 7.844 15.128C7.85834 15.1405 7.87348 15.1521 7.88933 15.1627L7.90667 15.174L7.92467 15.1847L7.94267 15.1947L7.95867 15.2033H7.96333L7.98333 15.2127H7.99L8.01333 15.2227L8.038 15.2327H8.04467L8.05667 15.2373L8.08133 15.2467H8.09067L8.12267 15.2573C8.16133 15.27 8.17933 15.2753 8.218 15.2873C8.36333 15.3293 8.51067 15.366 8.656 15.408L8.706 15.4233L8.75 15.4367L8.76133 15.44L8.77533 15.4447L8.79733 15.4513L8.814 15.4567L8.82667 15.4613L8.844 15.4673L8.85533 15.4713L8.866 15.4753L8.87733 15.4793L8.89 15.484L8.904 15.4893L8.918 15.494L8.92733 15.4973L8.93667 15.5007L8.95333 15.5073L8.97 15.514L8.984 15.52C9.01333 15.5316 9.04245 15.5438 9.07133 15.5567C9.16011 15.5962 9.2457 15.6426 9.32733 15.6953C9.37349 15.7254 9.418 15.7579 9.46067 15.7927C9.49601 15.8196 9.52822 15.8505 9.55667 15.8847C9.63777 16.0097 9.677 16.1572 9.66867 16.306C9.66867 16.34 9.66867 16.3727 9.66867 16.4087C9.66867 16.4627 9.66533 16.5073 9.66333 16.564C9.66333 16.6393 9.66333 16.6393 9.65867 16.7147C9.65867 16.7613 9.65867 16.808 9.65867 16.8547C9.65752 16.9052 9.66636 16.9555 9.68466 17.0026C9.70296 17.0497 9.73038 17.0928 9.76533 17.1293C9.79562 17.1499 9.8275 17.1679 9.86067 17.1833C9.87164 17.1911 9.8821 17.1996 9.892 17.2087C9.94808 17.2702 9.98955 17.3436 10.0133 17.4233C10.0401 17.5044 10.0602 17.5876 10.0733 17.672C10.1041 17.867 10.121 18.0639 10.124 18.2613V18.3193V18.5793V18.6173V18.6393C10.124 18.6627 10.124 18.686 10.124 18.706V18.7687L10.2087 18.8273L10.248 18.7647L10.288 18.7027L10.3033 18.682L10.3187 18.662L10.332 18.6453L10.3513 18.622C10.4313 18.532 10.5213 18.4533 10.6033 18.366C10.638 18.3273 10.67 18.2887 10.7073 18.2507C10.7398 18.217 10.7746 18.1856 10.8113 18.1567C10.8354 18.1383 10.8608 18.1218 10.8873 18.1073L10.8987 18.1013L10.91 18.096L10.922 18.0907L10.9333 18.086L10.9453 18.0813L10.9567 18.0767L10.9733 18.0707H10.9813H10.992L11.0087 18.0667H11.018H11.028H11.0447H11.056H11.0653H11.082H11.1267C11.1413 18.0667 11.1562 18.068 11.1713 18.0707C11.2124 18.0763 11.2526 18.0865 11.2913 18.1013C11.3336 18.1161 11.3728 18.1387 11.4067 18.168C11.4512 18.2127 11.4854 18.2666 11.5067 18.326C11.5176 18.3568 11.5305 18.3869 11.5453 18.416C11.5532 18.4243 11.5622 18.4315 11.572 18.4373C11.6011 18.4535 11.6317 18.4669 11.6633 18.4773L11.698 18.49L11.7113 18.4947L11.728 18.5L11.7473 18.5047C11.7598 18.5058 11.7722 18.5058 11.7847 18.5047C11.844 18.498 11.902 18.4847 11.9607 18.4753C11.9887 18.4753 12.0147 18.47 12.0427 18.4693C12.0832 18.4694 12.1235 18.4748 12.1627 18.4853C12.1888 18.4929 12.214 18.5031 12.238 18.516C12.2648 18.5304 12.2899 18.5478 12.3127 18.568C12.4025 18.6594 12.4565 18.7801 12.4647 18.908C12.4727 18.99 12.4733 19.072 12.48 19.154C12.4949 19.3413 12.5282 19.5266 12.5793 19.7073C12.6106 19.8216 12.6633 19.9288 12.7347 20.0233C12.7533 20.0447 12.7733 20.0653 12.7933 20.086L12.846 20.1393L12.892 20.184L12.9387 20.228L12.9573 20.2453L12.986 20.2713L13.006 20.2893L13.034 20.314L13.0547 20.332L13.0827 20.3567L13.1027 20.374L13.1313 20.3993L13.15 20.4153L13.1807 20.4413L13.1973 20.4553L13.226 20.4793L13.266 20.5127L13.3327 20.5687L13.3493 20.5827C13.4453 20.662 13.5427 20.7413 13.6387 20.8213C13.7447 20.912 13.8493 21.0047 13.9567 21.0947C14.0384 21.1625 14.1239 21.2257 14.2127 21.284L14.2467 21.3053L14.2813 21.326L14.316 21.346L14.3333 21.3553L14.3513 21.3647L14.3693 21.3733L14.3873 21.382L14.4053 21.3907L14.424 21.3987L14.4427 21.4067L14.4613 21.414L14.48 21.4213L14.4987 21.428L14.53 21.4387L14.5613 21.4487L14.574 21.4527L14.5927 21.458L14.6067 21.462L14.6247 21.4667L14.6393 21.4707L14.6567 21.4747L14.6727 21.4787L14.688 21.482L14.706 21.486L14.74 21.4933C14.84 21.514 14.94 21.53 15.0407 21.5507C15.0853 21.5607 15.1293 21.5713 15.174 21.5833C15.2033 21.592 15.2327 21.6007 15.2613 21.6107L15.276 21.6153L15.3013 21.624L15.326 21.6333L15.3507 21.6433L15.368 21.6507L15.388 21.6593L15.3993 21.6647L15.408 21.6687L15.4233 21.676H15.428L15.4473 21.686L15.4687 21.698L15.486 21.708L15.4933 21.7127L15.5047 21.72L15.5153 21.7267L15.5227 21.732L15.5373 21.742H15.5413L15.5593 21.7553L15.5733 21.766L15.5853 21.776L15.6073 21.7947L15.614 21.8L15.622 21.8073L15.6333 21.818L15.64 21.824L15.6473 21.8307L15.6573 21.84L15.666 21.848L15.672 21.8547L15.68 21.8627L15.69 21.8733L15.702 21.886L15.714 21.8987L15.724 21.9093L15.7453 21.9333L15.7607 21.9507C15.8127 22.0087 15.8627 22.0687 15.916 22.1253C15.9373 22.1467 15.9587 22.1667 15.9827 22.186C16.0196 22.2182 16.0618 22.2439 16.1073 22.262C16.1521 22.2762 16.199 22.283 16.246 22.282H16.2787H16.3053H16.332H16.3587H16.3853H16.412L16.4653 22.2753L16.612 22.2573L16.6667 22.2613L16.7167 22.2547C16.858 22.2353 16.9993 22.2113 17.1387 22.18L17.1873 22.1687L17.2187 22.1607L17.2433 22.1547L17.2727 22.1467L17.302 22.1387L17.3313 22.13L17.36 22.1213L17.39 22.112L17.42 22.102L17.4333 22.0973L17.45 22.0913L17.4633 22.0867L17.48 22.0807L17.4927 22.076L17.522 22.064L17.5513 22.052L17.5687 22.0447L17.58 22.0393L17.6087 22.026L17.6373 22.012C17.7673 21.9453 17.8907 21.866 18.02 21.798C18.0884 21.7626 18.1593 21.7321 18.232 21.7067L18.2467 21.702L18.27 21.6947L18.2933 21.688L18.3173 21.682L18.3413 21.676L18.3667 21.6707L18.39 21.666H18.41H18.43H18.4507H18.4627H18.4667H18.4853H18.532H18.5927H18.6107L18.658 21.6713H18.676L18.6967 21.6753L18.7173 21.68L18.734 21.684L18.7813 21.698C18.8661 21.7241 18.9435 21.7698 19.0073 21.8313C19.0404 21.8645 19.0689 21.9019 19.092 21.9427C19.1206 21.9917 19.1429 22.0441 19.1587 22.0987L19.162 22.1107L19.166 22.1267L19.1713 22.15L19.178 22.1813L19.1833 22.2073V22.218V22.2347L19.1873 22.258L19.192 22.2907L19.1993 22.344V22.3667L19.2067 22.418L19.2107 22.446V22.4647V22.4747L19.216 22.5073C19.2227 22.5387 19.23 22.5693 19.2387 22.6L19.244 22.6167L19.25 22.6327L19.2567 22.6487L19.2633 22.6647L19.2707 22.6807L19.278 22.696L19.286 22.7113L19.2947 22.7267L19.3033 22.7413L19.3127 22.756L19.322 22.7707L19.332 22.7847L19.342 22.7987L19.3527 22.812L19.364 22.8253L19.376 22.8387C19.4088 22.873 19.4442 22.9046 19.482 22.9333C19.5667 22.996 19.6553 23.054 19.7407 23.116L19.7647 23.1353L19.788 23.1553L19.8 23.1653L19.8527 23.2113L19.86 23.2173L19.8833 23.2373L19.9067 23.2567L19.93 23.2753C19.9469 23.2879 19.9653 23.2984 19.9847 23.3067C20.0079 23.3134 20.0318 23.3179 20.056 23.32H20.0733H20.0907H20.108H20.1253H20.202C20.3765 23.3083 20.5503 23.2876 20.7227 23.258C20.7767 23.2527 20.7767 23.2527 20.8307 23.2487H20.8873H20.898H20.9527H21.086H21.142H21.1493L21.2673 23.2547H21.272L21.3327 23.2593L21.4347 23.2693C21.5564 23.2781 21.6765 23.3025 21.792 23.342L21.8133 23.3507H21.8193L21.8467 23.3627L21.8573 23.368L21.8647 23.3713L21.8733 23.3753L21.89 23.384L21.8993 23.3893L21.9147 23.398L21.9253 23.404L21.9393 23.412L21.9513 23.4193L21.964 23.4267L21.9773 23.4347L21.9887 23.4413L22.0127 23.4567L22.0387 23.4733L22.0533 23.4827L22.1033 23.516L22.1547 23.5493L22.1787 23.5647L22.2033 23.58L22.2273 23.5933L22.2527 23.6067L22.298 23.6287C22.3324 23.6413 22.3682 23.6499 22.4047 23.654C22.4793 23.662 22.554 23.666 22.6287 23.6753C22.6708 23.6814 22.7124 23.6903 22.7533 23.702L22.7687 23.7067H22.7767L22.7913 23.712L22.812 23.72C22.8827 23.7493 22.9453 23.7867 23.0167 23.822C23.032 23.8287 23.0467 23.834 23.0627 23.8393C23.0714 23.8417 23.0803 23.8435 23.0893 23.8447C23.1087 23.8447 23.1287 23.8447 23.148 23.8447H23.2067C23.2733 23.8447 23.34 23.8367 23.4067 23.8307C23.3863 23.5218 23.4069 23.2115 23.468 22.908L23.4753 22.8707L23.4827 22.8373L23.4907 22.802L23.4947 22.786C23.5071 22.7327 23.5209 22.6798 23.536 22.6273C23.5586 22.5441 23.5887 22.4631 23.626 22.3853C23.7162 22.2217 23.8284 22.0712 23.9593 21.938C24 21.8933 24.0413 21.8487 24.082 21.8047C24.1 21.7847 24.116 21.764 24.1353 21.746C24.1444 21.7386 24.1543 21.7321 24.1647 21.7267C24.2264 21.705 24.2933 21.7034 24.356 21.722H24.3607C24.4333 21.7387 24.504 21.7613 24.5767 21.778C24.6025 21.7839 24.6288 21.7873 24.6553 21.788H24.664C24.6815 21.7873 24.6987 21.7825 24.714 21.774C24.7384 21.7584 24.7591 21.7377 24.7747 21.7133C24.8126 21.6583 24.8307 21.592 24.826 21.5253C24.8245 21.496 24.8146 21.4678 24.7973 21.444C24.7863 21.4314 24.7729 21.421 24.758 21.4133C24.718 21.3933 24.676 21.3773 24.6347 21.3607L24.5493 21.3247C24.5224 21.3118 24.4962 21.2975 24.4707 21.282C24.4448 21.2651 24.4222 21.2436 24.404 21.2187C24.3789 21.1762 24.3638 21.1285 24.36 21.0793C24.35 20.996 24.3473 20.9127 24.3413 20.8293V20.808V20.782L24.3373 20.746C24.3277 20.6622 24.3052 20.5803 24.2707 20.5033L24.2633 20.4893V20.4847L24.258 20.4753V20.47L24.2533 20.4613V20.456L24.248 20.448V20.4427L24.242 20.434V20.4293L24.2347 20.4187L24.2253 20.406V20.402L24.2187 20.3933L24.2147 20.3887L24.2087 20.3813L24.2047 20.3767L24.1987 20.3693L24.194 20.3647L24.19 20.3607L24.172 20.342L24.1533 20.3233L24.134 20.3053L24.122 20.2953L24.108 20.2833L24.0973 20.2747L24.0833 20.2633L24.072 20.254L24.0587 20.244L24.0467 20.2347L24.0347 20.226C24.0147 20.2113 23.994 20.1973 23.9733 20.1833L23.968 20.1793L23.912 20.1433C23.804 20.0767 23.694 20.01 23.5873 19.9433C23.5307 19.9053 23.4753 19.866 23.4227 19.8233L23.418 19.8193L23.4067 19.81L23.3993 19.804L23.3953 19.8007H23.3913L23.3847 19.7953L23.3733 19.7853L23.368 19.7807L23.344 19.7587L23.324 19.74L23.3193 19.7353L23.3093 19.7253L23.3033 19.7193L23.2993 19.7153L23.2953 19.7113L23.2893 19.7053L23.2793 19.6947L23.2747 19.6893L23.2527 19.6653C23.1804 19.5833 23.1195 19.4921 23.0713 19.394L23.058 19.366L23.0467 19.3387V19.3353L23.036 19.3087V19.3053V19.3L23 19.2667L22.996 19.2547V19.25V19.2447L22.9927 19.2333V19.224V19.2193V19.212L22.9893 19.2V19.1933V19.1887V19.1787V19.166V19.1593L22.986 19.1453V19.1313L22.982 19.112C22.9409 18.8365 22.9495 18.5558 23.0073 18.2833C23.0187 18.2127 23.0247 18.184 23.0387 18.1027C23.0427 18.082 23.048 18.062 23.054 18.042C23.0964 17.9271 23.1615 17.8219 23.2453 17.7327C23.3333 17.6327 23.4307 17.542 23.5213 17.4453C23.5487 17.4147 23.5487 17.4147 23.5753 17.384C23.6212 17.3399 23.6559 17.2855 23.6765 17.2254C23.6972 17.1652 23.7032 17.101 23.694 17.038C23.6862 17.0086 23.6745 16.9803 23.6593 16.954C23.6402 16.9218 23.6164 16.8926 23.5887 16.8673C23.5468 16.8301 23.4996 16.7993 23.4487 16.776L23.424 16.7647L23.4047 16.7567L23.386 16.7493H23.3813L23.364 16.7433H23.3573L23.3413 16.738H23.3333L23.318 16.7333H23.3087L23.294 16.7293H23.284L23.27 16.7253H23.2587H23.246H23.2367L23.222 16.722H23.2107H23.1967H23.1853H23.1713H23.16H23.146H23.1353H23.1207H23.11H23.0947H23.0847H23.0773L23.0067 16.6667H22.974H22.9633H22.9413H22.9287H22.9087H22.8947H22.8753H22.5687H22.5433H22.5387H22.51H22.488H22.4533H22.4407C22.4002 16.3956 22.3684 16.1233 22.3453 15.85C22.3213 15.57 22.3053 15.2893 22.3053 15.0087C22.3053 14.9642 22.3053 14.9213 22.3053 14.88V14.836V14.778V14.7367V14.6893V14.6627V14.642V14.6007C22.3053 14.5827 22.3053 14.5653 22.3093 14.5473C22.3133 14.5047 22.318 14.462 22.3233 14.4193C22.3233 14.396 22.33 14.3733 22.3313 14.3527C22.331 14.3395 22.3296 14.3263 22.3273 14.3133C22.2834 14.2058 22.2009 14.1186 22.096 14.0687L22.0373 14.0313C21.9987 14.0067 21.9593 13.982 21.9213 13.956C21.894 13.9367 21.8947 13.9367 21.868 13.9167L21.8507 13.902H21.8473L21.8393 13.8953L21.8353 13.8913H21.832L21.8267 13.886L21.814 13.8733L21.7973 13.8553V13.852C21.7837 13.8333 21.7729 13.8126 21.7653 13.7907C21.7512 13.7365 21.7536 13.6795 21.772 13.6267C21.8139 13.4981 21.8779 13.3778 21.9613 13.2713C21.9953 13.2233 22.028 13.1773 22.0673 13.1313C22.1067 13.0853 22.142 13.038 22.1827 12.9887C22.2493 12.9087 22.316 12.8287 22.3773 12.7467C22.414 12.6987 22.45 12.65 22.4847 12.6007C22.5712 12.4836 22.6374 12.3529 22.6807 12.214C22.7194 12.0649 22.7418 11.912 22.7473 11.758V11.7073V11.5333V11.5013V11.482V11.4467V11.4313L22.7433 11.3813V11.3673L22.7393 11.3307V11.31L22.736 11.28V11.2573L22.732 11.23L22.7287 11.206L22.7247 11.18L22.7207 11.1553L22.716 11.1307L22.7113 11.1053L22.7067 11.0827C22.7018 11.0582 22.6967 11.034 22.6913 11.01C22.6833 10.9731 22.6744 10.9364 22.6647 10.9C22.6313 10.7519 22.5729 10.6105 22.492 10.482C22.3867 10.3347 22.2501 10.2124 22.092 10.124C22.046 10.0973 21.9993 10.0727 21.9513 10.05C21.9254 10.0368 21.8987 10.0253 21.8713 10.0153C21.8306 10.0025 21.7889 9.99312 21.7467 9.98733C21.64 9.97333 21.532 9.968 21.4247 9.956C21.3447 9.95529 21.2675 9.92703 21.206 9.876C21.1802 9.84259 21.161 9.80459 21.1493 9.764C21.1293 9.69733 21.1127 9.63067 21.0927 9.564C21.0792 9.51693 21.0548 9.47374 21.0213 9.438L21.014 9.43133L21.0087 9.42733H21.004H21.0007H20.996H20.9927H20.9873H20.984H20.9787H20.9753H20.9693H20.96H20.9533H20.9393H20.928H20.92H20.9087H20.9007H20.8827C20.8083 9.41861 20.7335 9.41394 20.6587 9.41333C20.42 9.40867 20.1813 9.42067 19.9427 9.43667L19.8293 9.44467L19.704 9.454L19.6587 9.458C19.6447 9.43467 19.63 9.412 19.6153 9.39133C19.5867 9.35 19.5567 9.31067 19.5253 9.27067C19.41 9.12896 19.2754 9.00418 19.1253 8.9C19.0613 8.85406 18.9929 8.81433 18.9213 8.78133L18.904 8.774H18.8987L18.8867 8.76933H18.8807L18.868 8.76467H18.8633L18.8467 8.75933H18.8433C18.7851 8.74166 18.7256 8.72851 18.6653 8.72C18.5421 8.70264 18.4178 8.69484 18.2933 8.69667C18.1071 8.69878 17.9211 8.71035 17.736 8.73133H17.712L17.6367 8.74L17.536 8.752C17.4427 8.76333 17.35 8.776 17.2567 8.78667C17.218 8.79067 17.18 8.794 17.142 8.79933C17.1173 8.804 17.0933 8.80933 17.0693 8.816C16.9093 8.87104 16.7614 8.95663 16.634 9.068C16.5007 9.178 16.3673 9.298 16.234 9.41067C16.1893 9.44733 16.1893 9.44733 16.144 9.48267C16.03 9.57324 15.9021 9.64483 15.7653 9.69467L15.7407 9.702L15.7167 9.708V9.714C15.7139 9.81126 15.7025 9.90808 15.6827 10.0033C15.6778 10.0438 15.6729 10.0844 15.668 10.1253C15.66 10.1853 15.652 10.2453 15.6413 10.3047C15.634 10.3447 15.626 10.384 15.6167 10.424C15.6083 10.4594 15.598 10.4943 15.586 10.5287C15.5694 10.5776 15.5459 10.6239 15.516 10.666L15.5107 10.6727L15.5067 10.678L15.502 10.684L15.4987 10.6873L15.494 10.6927L15.49 10.6967L15.4853 10.7013L15.4733 10.7113L15.4613 10.7207L15.4 10.6667H15.3953L15.388 10.6707C15.3669 10.6813 15.3445 10.6891 15.3213 10.694C15.3071 10.6973 15.2926 10.6993 15.278 10.7H15.2693C15.2407 10.7002 15.213 10.6906 15.1907 10.6727C15.1641 10.65 15.1415 10.6229 15.124 10.5927C15.1153 10.5793 15.1073 10.5653 15.0993 10.5513C15.0325 10.5788 14.9636 10.6011 14.8933 10.618C14.7256 10.6534 14.5547 10.6717 14.3833 10.6727C14.2627 10.6727 14.142 10.6727 14.0213 10.6727C13.918 10.6727 13.814 10.6727 13.7107 10.6727C13.628 10.6687 13.5467 10.6613 13.4647 10.6513C13.4047 10.6433 13.344 10.634 13.284 10.624H13.258C13.2307 10.624 13.2027 10.6273 13.1753 10.628H13.14C13.03 10.6315 12.9205 10.6107 12.8193 10.5673L12.7753 10.5453C12.7393 10.5413 12.704 10.5387 12.668 10.5373C12.5847 10.5373 12.5007 10.5407 12.4173 10.5413C12.3807 10.5413 12.3447 10.5413 12.308 10.5353C12.262 10.5308 12.217 10.5191 12.1747 10.5007C12.1385 10.4831 12.1048 10.4607 12.0747 10.434C12.0318 10.3957 11.9917 10.3545 11.9547 10.3107C11.8713 10.214 11.7927 10.1107 11.708 10.018C11.6827 9.99067 11.6573 9.964 11.6307 9.938C11.5557 9.85532 11.4548 9.80055 11.3447 9.78267H11.3333L11.258 9.76L11.2007 9.76467H11.1927H11.16H11.0933H11.0713C11.0419 9.76456 11.0125 9.76278 10.9833 9.75933C10.9359 9.75439 10.8896 9.74201 10.846 9.72267C10.7858 9.69351 10.7357 9.64709 10.702 9.58933L10.4807 9.52267C10.442 9.43133 10.3967 9.34333 10.3573 9.256C10.3421 9.2196 10.3288 9.18244 10.3173 9.14467C10.2971 9.06933 10.2819 8.99271 10.272 8.91533C10.2451 8.77248 10.2462 8.62576 10.2753 8.48333ZM11.778 22.0507L12.36 23.4227C12.36 23.3938 12.36 23.3649 12.36 23.336C12.36 23.2647 12.3553 23.1933 12.352 23.122C12.348 23.0647 12.3433 23.008 12.3367 22.9513C12.3246 22.8469 12.2988 22.7444 12.26 22.6467C12.2037 22.5263 12.1313 22.4141 12.0447 22.3133C11.9717 22.2146 11.8843 22.1273 11.7853 22.0547L11.778 22.0507ZM11.3907 12.076C11.8371 12.2502 12.2267 12.5443 12.5164 12.9259C12.8062 13.3076 12.9848 13.7619 13.0327 14.2387C13.1828 14.2467 13.3265 14.302 13.4433 14.3967C13.3663 14.5554 13.3043 14.721 13.258 14.8913H12.7413C12.6298 15.3804 12.6298 15.8883 12.7413 16.3773H13.258C13.3214 16.6116 13.4146 16.8368 13.5353 17.0473L13.17 17.4127C13.4369 17.8387 13.7965 18.1989 14.222 18.4667L14.5873 18.1013C14.7979 18.222 15.0231 18.3153 15.2573 18.3787V18.8953C15.7464 19.0068 16.2543 19.0068 16.7433 18.8953V18.3787C16.9776 18.3153 17.2028 18.222 17.4133 18.1013L18.2353 18.9233C17.5763 19.3719 16.7972 19.6108 16 19.6087C14.9462 19.6081 13.9357 19.1893 13.1905 18.4441C12.4454 17.699 12.0265 16.6885 12.026 15.6347C12.026 15.3307 12.0533 15.0147 12.068 14.682C12.085 14.3016 11.9609 13.9284 11.7193 13.634C11.4314 13.3475 11.1176 13.0882 10.782 12.8593L11.3907 12.076ZM20.6093 19.1933C20.1629 19.0192 19.7733 18.725 19.4836 18.3434C19.1938 17.9617 19.0152 17.5075 18.9673 17.0307C18.8172 17.0225 18.6735 16.9673 18.5567 16.8727C18.6337 16.7139 18.6957 16.5483 18.742 16.378H19.2587C19.3702 15.8889 19.3702 15.3811 19.2587 14.892H18.742C18.6786 14.6577 18.5854 14.4326 18.4647 14.222L18.83 13.8567C18.5631 13.432 18.204 13.0729 17.7793 12.806L17.414 13.1713C17.2034 13.0506 16.9783 12.9574 16.744 12.894V12.3773C16.2549 12.2658 15.7471 12.2658 15.258 12.3773V12.894C15.0237 12.9574 14.7986 13.0506 14.588 13.1713L13.766 12.3493C14.4242 11.8999 15.2029 11.6598 16 11.6607C17.0538 11.6612 18.0643 12.0801 18.8095 12.8252C19.5546 13.5704 19.9735 14.5809 19.974 15.6347C19.974 15.938 19.9467 16.2547 19.9327 16.5873C19.9156 16.9677 20.0398 17.341 20.2813 17.6353C20.5693 17.9218 20.8831 18.1811 21.2187 18.41L20.6093 19.1933ZM23.762 17.6467C23.676 17.7427 23.5807 17.8313 23.4953 17.9227C23.4713 17.9493 23.448 17.976 23.4287 18.004C23.3953 18.0439 23.3685 18.0889 23.3493 18.1373C23.338 18.1833 23.3291 18.2298 23.3227 18.2767C23.3153 18.318 23.3113 18.3433 23.3047 18.3873C23.298 18.4313 23.29 18.4847 23.284 18.5347L23.762 17.6467ZM16.5413 12.9133C16.1839 12.8422 15.8161 12.8422 15.4587 12.9133L15.472 13.336C15.2156 13.395 14.9709 13.4964 14.748 13.636L14.4587 13.3273C14.1555 13.5299 13.8952 13.7902 13.6927 14.0933L14.0013 14.3827C13.8617 14.6056 13.7603 14.8503 13.7013 15.1067L13.2787 15.0933C13.2076 15.4507 13.2076 15.8186 13.2787 16.176L13.7013 16.1627C13.7598 16.4192 13.8607 16.6641 14 16.8873L13.6913 17.1767C13.8939 17.4798 14.1542 17.7401 14.4573 17.9427L14.7467 17.634C14.9696 17.7737 15.2143 17.875 15.4707 17.934L15.4573 18.3567C15.8147 18.4277 16.1826 18.4277 16.54 18.3567L16.5267 17.934C16.783 17.875 17.0277 17.7737 17.2507 17.634L17.54 17.9427C17.8431 17.7401 18.1034 17.4798 18.306 17.1767L18 16.8873C18.1397 16.6644 18.2411 16.4197 18.3 16.1633L18.7227 16.1767C18.7937 15.8193 18.7937 15.4514 18.7227 15.094L18.3 15.1073C18.2411 14.8507 18.1397 14.6058 18 14.3827L18.3087 14.0933C18.1061 13.7902 17.8458 13.5299 17.5427 13.3273L17.2533 13.636C17.0302 13.4953 16.785 13.393 16.528 13.3333L16.5413 12.9133ZM15.8793 14.1227V13.872H16.12V14.122C16.2783 14.0889 16.4199 14.0011 16.52 13.874C16.5097 13.9879 16.4664 14.0964 16.3953 14.186C16.3243 14.2757 16.2286 14.3426 16.12 14.3787V14.8933C16.3997 14.857 16.6545 14.7136 16.8307 14.4933C16.8149 14.6868 16.7373 14.87 16.6093 15.0159C16.4813 15.1618 16.3098 15.2626 16.12 15.3033V15.77C16.4586 15.738 16.7717 15.576 16.9933 15.318C16.9688 15.5447 16.8698 15.7569 16.7117 15.9214C16.5537 16.0858 16.3456 16.1932 16.12 16.2267V16.792C16.3354 16.7744 16.5451 16.714 16.7368 16.6141C16.9284 16.5143 17.0982 16.3771 17.236 16.2107C17.2099 16.5236 17.0695 16.816 16.8415 17.0319C16.6135 17.2479 16.3139 17.3723 16 17.3813C15.6853 17.3745 15.3844 17.2503 15.1565 17.0331C14.9286 16.8159 14.79 16.5214 14.768 16.2073C14.9036 16.3756 15.0722 16.5142 15.2634 16.6146C15.4547 16.7151 15.6646 16.7752 15.88 16.7913V16.226C15.653 16.1945 15.4433 16.0873 15.2848 15.9218C15.1264 15.7563 15.0283 15.5421 15.0067 15.314C15.115 15.4437 15.248 15.5506 15.3979 15.6287C15.5478 15.7067 15.7116 15.7543 15.88 15.7687V15.302C15.689 15.2628 15.5161 15.1622 15.3878 15.0154C15.2594 14.8686 15.1827 14.6838 15.1693 14.4893C15.2552 14.6004 15.3622 14.6934 15.4842 14.7628C15.6061 14.8323 15.7407 14.8769 15.88 14.894V14.3793C15.7706 14.344 15.6742 14.277 15.603 14.1868C15.5318 14.0966 15.489 13.9872 15.48 13.8727C15.5788 14.0014 15.7209 14.09 15.88 14.122L15.8793 14.1227ZM9.24467 16.082L9.334 16.2927C9.33244 16.2643 9.3291 16.236 9.324 16.208C9.3201 16.18 9.31081 16.1531 9.29667 16.1287C9.28187 16.1106 9.26459 16.0946 9.24533 16.0813L9.24467 16.082ZM12.3367 10.2073L12.3673 10.2107C12.4567 10.2153 12.5453 10.2107 12.634 10.2107C12.678 10.2107 12.6773 10.2107 12.7213 10.2107C12.9607 10.232 13.196 10.2773 13.4333 10.3133C13.4967 10.322 13.5593 10.3293 13.6227 10.3353C13.6733 10.3393 13.724 10.3413 13.7747 10.342C13.9747 10.342 14.1693 10.346 14.3667 10.342C14.5008 10.341 14.6346 10.3285 14.7667 10.3047C14.8489 10.2889 14.929 10.2637 15.0053 10.2293C15.0894 10.1948 15.1644 10.1414 15.2247 10.0733C15.2655 10.0181 15.2946 9.95498 15.31 9.888C15.3353 9.78301 15.3476 9.67532 15.3467 9.56734C15.3467 9.50867 15.3467 9.45 15.3427 9.39133C15.3387 9.33267 15.3347 9.268 15.3293 9.20667C15.3113 9.02067 15.288 8.83467 15.2713 8.648C15.2607 8.50133 15.2593 8.35467 15.2513 8.208C15.248 8.15867 15.2433 8.11 15.238 8.06067C15.23 7.99168 15.2154 7.9236 15.1947 7.85733C15.1892 7.83358 15.1795 7.811 15.166 7.79067C15.1548 7.7801 15.1425 7.77071 15.1293 7.76267L15.0833 7.73667C15.0053 7.698 14.926 7.66267 14.8487 7.62267C14.75 7.57184 14.66 7.50569 14.582 7.42667C14.5139 7.34965 14.4559 7.2643 14.4093 7.17267C14.3524 7.07085 14.3051 6.96394 14.268 6.85333C14.236 6.75243 14.2106 6.64954 14.192 6.54533V6.52333H14.1567H14.134H14.128H14.1127H14.1067H14.094H14.0873H14.0607C13.994 6.52333 13.9227 6.52333 13.8533 6.52333C13.702 6.52333 13.6593 6.52333 13.508 6.528H13.4513H13.288H13.2213H13.2147H13.1667H13.0533H13.0113H13H12.9333L12.6 6.542C12.4 6.54733 12.194 6.542 11.9907 6.542C11.9087 6.542 11.826 6.54867 11.744 6.55867L11.6927 6.56533H11.6853H11.6H11.5953H11.5867H11.5813H11.574H11.568H11.564H11.556H11.552L11.5387 6.56933C11.4944 6.58171 11.4518 6.59963 11.412 6.62267C11.3969 6.62977 11.3835 6.64 11.3727 6.65267C11.3664 6.66543 11.3623 6.67919 11.3607 6.69333C11.3549 6.74963 11.3549 6.80637 11.3607 6.86267V6.87533C11.3607 6.91733 11.368 6.95933 11.3713 7.00133C11.3747 7.04333 11.38 7.09933 11.3833 7.14867C11.3833 7.16244 11.3833 7.17644 11.3833 7.19067C11.3942 7.34952 11.3701 7.50882 11.3127 7.65733C11.2829 7.72614 11.2455 7.79142 11.2013 7.852C11.1505 7.92016 11.0939 7.98373 11.032 8.042L11.0233 8.05L11.018 8.05533L11.0027 8.06933L10.9947 8.07667L10.9847 8.086L10.9767 8.09333L10.9673 8.10133L10.958 8.10933L10.95 8.116L10.9387 8.12533L10.934 8.12933L10.9007 8.15733C10.848 8.202 10.7953 8.246 10.7453 8.29067C10.6917 8.33732 10.648 8.39421 10.6167 8.458C10.59 8.54292 10.5841 8.63298 10.5993 8.72067C10.6047 8.772 10.6127 8.82333 10.622 8.874C10.6285 8.91637 10.6378 8.95824 10.65 8.99933C10.6691 9.05152 10.6914 9.1025 10.7167 9.152L10.73 9.18L11.3967 9.38H11.376C11.408 9.38 11.408 9.38 11.4427 9.38667C11.4773 9.39333 11.4727 9.392 11.5033 9.39933C11.5493 9.41234 11.5939 9.42952 11.6367 9.45067C11.7756 9.52716 11.8983 9.62996 11.998 9.75333L12.0147 9.77267L12.0307 9.792L12.0467 9.81067L12.062 9.82933L12.0753 9.84534L12.128 9.912L12.156 9.946L12.1807 9.97533L12.196 9.99333L12.2127 10.0127L12.228 10.03L12.242 10.046C12.264 10.07 12.286 10.0927 12.3087 10.1127C12.3163 10.1209 12.3253 10.1277 12.3353 10.1327L12.3367 10.2073ZM15.2247 0.0186666C15.482 0.0057777 15.7404 0 16 0C16.2724 0 16.5433 0.00666585 16.8127 0.0199992L15.2247 0.0186666Z" fill="#2E4A98"/>
</g>
<defs>
<clipPath id="clip0_2843_19756">
<rect width="32" height="32" fill="white"/>
</clipPath>
</defs>
</svg>
