<svg width="32" height="32" viewBox="0 0 32 32" fill="none" xmlns="http://www.w3.org/2000/svg">
<g clip-path="url(#clip0_2843_19790)">
<path d="M20.8454 16.6667C20.8463 15.3796 20.3377 14.1445 19.4309 13.2312C18.524 12.318 17.2924 11.8008 16.0054 11.7927C15.3673 11.7893 14.7347 11.912 14.1441 12.1536C13.5535 12.3953 13.0164 12.7511 12.5636 13.2008C12.1107 13.6504 11.7511 14.1851 11.5054 14.774C11.2596 15.3629 11.1325 15.9945 11.1314 16.6327C11.1361 17.918 11.6464 19.1499 12.5521 20.062C13.4578 20.9741 14.6861 21.493 15.9714 21.5067C16.6111 21.5157 17.2461 21.3969 17.8393 21.1572C18.4325 20.9176 18.9718 20.562 19.4258 20.1112C19.8797 19.6604 20.2391 19.1236 20.4829 18.5321C20.7267 17.9406 20.8499 17.3064 20.8454 16.6667Z" fill="#CCCCCC"/>
<path fill-rule="evenodd" clip-rule="evenodd" d="M14.6941 22.8867C13.6724 22.6608 12.7173 22.2004 11.9041 21.542C11.7354 21.408 11.5249 21.3379 11.3097 21.344C11.0944 21.3501 10.8882 21.432 10.7274 21.5753L5.8874 26.046C5.79166 26.141 5.72991 26.2649 5.71171 26.3986C5.69351 26.5322 5.71988 26.6682 5.78674 26.7853L7.56807 30.1467C7.86797 30.6901 8.33125 31.1254 8.89229 31.3909C9.45333 31.6564 10.0837 31.7386 10.6941 31.626L14.4587 30.954C14.59 30.9196 14.7081 30.8469 14.7978 30.7452C14.8876 30.6434 14.945 30.5172 14.9627 30.3827L15.4334 23.862C15.4508 23.6371 15.3851 23.4137 15.2489 23.234C15.1127 23.0542 14.9153 22.9307 14.6941 22.8867ZM21.3161 21.5087C21.1488 21.3653 20.9372 21.2837 20.717 21.2776C20.4967 21.2716 20.281 21.3414 20.1061 21.4753C19.3159 22.1561 18.3688 22.6297 17.3501 22.8533C17.129 22.8973 16.9317 23.0208 16.7955 23.2004C16.6592 23.38 16.5935 23.6032 16.6107 23.828L17.1487 30.3487C17.1693 30.484 17.2327 30.6092 17.3295 30.7059C17.4262 30.8027 17.5514 30.866 17.6867 30.8867L21.4514 31.5253C22.0645 31.6324 22.6957 31.54 23.2524 31.2617C23.8091 30.9834 24.2618 30.534 24.5441 29.9793L26.2921 26.618C26.3586 26.4948 26.3847 26.3539 26.3666 26.2151C26.3485 26.0763 26.2872 25.9467 26.1914 25.8447L21.3161 21.5087ZM10.3247 19.4913C9.86714 18.6197 9.62505 17.6511 9.61874 16.6667V16.5333C9.63449 16.3073 9.56314 16.0839 9.41933 15.9088C9.27552 15.7338 9.07016 15.6204 8.8454 15.592L2.39207 14.584C2.26138 14.5781 2.13174 14.6099 2.01855 14.6754C1.90535 14.741 1.81333 14.8377 1.7534 14.954L0.240736 18.416C-0.00735021 18.9906 -0.0661326 19.6293 0.0728968 20.2396C0.211926 20.8499 0.541554 21.4001 1.01407 21.8107L3.8374 24.298C3.93859 24.397 4.07105 24.4578 4.21211 24.47C4.35318 24.4822 4.49409 24.4449 4.61074 24.3647L9.98874 20.698C10.1746 20.5658 10.3094 20.3739 10.3705 20.1542C10.4317 19.9345 10.4155 19.7005 10.3247 19.4913ZM31.7334 18.3487L30.2234 14.8867C30.181 14.7573 30.0925 14.648 29.9747 14.5798C29.8569 14.5116 29.7181 14.4891 29.5847 14.5167L23.1334 15.5587C22.9086 15.5871 22.7033 15.7004 22.5595 15.8755C22.4157 16.0505 22.3443 16.274 22.3601 16.5V16.7C22.365 17.6813 22.1346 18.6495 21.6881 19.5233C21.5904 19.7178 21.5669 19.9412 21.6222 20.1516C21.6774 20.3621 21.8075 20.5452 21.9881 20.6667L27.4001 24.3333C27.5167 24.4137 27.6576 24.451 27.7987 24.4389C27.9398 24.4267 28.0723 24.3658 28.1734 24.2667L30.9967 21.746C31.4704 21.3355 31.7982 20.7826 31.931 20.17C32.0638 19.5575 31.9945 18.9184 31.7334 18.3487ZM2.82874 12.7687L9.08074 14.584C9.29155 14.6458 9.51727 14.6327 9.7195 14.5469C9.92174 14.4611 10.088 14.3079 10.1901 14.1133C10.6117 13.1469 11.2708 12.3028 12.1061 11.6593C12.2726 11.5181 12.3839 11.3227 12.4205 11.1074C12.4571 10.8922 12.4166 10.6709 12.3061 10.4827L9.0134 4.83599C8.93743 4.72433 8.82888 4.63882 8.70254 4.5911C8.5762 4.54338 8.43822 4.53577 8.3074 4.56932L4.64074 5.61132C4.05444 5.7932 3.53922 6.1529 3.16643 6.64059C2.79364 7.12829 2.58174 7.71984 2.56007 8.33332L2.42674 12.1333C2.41825 12.2681 2.45255 12.4021 2.52474 12.5162C2.59694 12.6302 2.70333 12.7186 2.82874 12.7687ZM19.8367 11.626C20.6727 12.2547 21.3326 13.0881 21.7527 14.046C21.8596 14.2455 22.0302 14.4034 22.2373 14.4948C22.4443 14.5861 22.676 14.6055 22.8954 14.55L29.1141 12.6667C29.245 12.62 29.3579 12.5331 29.4363 12.4184C29.5148 12.3036 29.5548 12.1669 29.5507 12.028L29.4174 8.22798C29.3853 7.61146 29.1605 7.02057 28.7746 6.53865C28.3887 6.05674 27.8613 5.70813 27.2667 5.54198L23.6001 4.53332C23.4695 4.49365 23.3294 4.4983 23.2017 4.54653C23.074 4.59477 22.9658 4.68388 22.8941 4.79999L19.6001 10.4833C19.515 10.6747 19.4922 10.8879 19.5348 11.0929C19.5773 11.2979 19.6832 11.4843 19.8374 11.626H19.8367ZM13.4167 9.94532C13.4931 10.148 13.6419 10.3152 13.8343 10.4146C14.0268 10.514 14.2493 10.5385 14.4587 10.4833C14.9675 10.3777 15.4852 10.3214 16.0047 10.3153C16.5268 10.3113 17.0469 10.3786 17.5507 10.5153C17.7688 10.5681 17.9987 10.5391 18.1969 10.4338C18.395 10.3285 18.5477 10.1543 18.6261 9.94398L21.0461 3.85999C21.0883 3.73267 21.0882 3.59511 21.0458 3.46785C21.0034 3.3406 20.9209 3.23049 20.8107 3.15398L17.7521 0.901985C17.2534 0.525746 16.6457 0.32222 16.0211 0.32222C15.3964 0.32222 14.7887 0.525746 14.2901 0.901985L11.2314 3.12065C11.1164 3.20088 11.031 3.31679 10.9884 3.45043C10.9459 3.58408 10.9486 3.72802 10.9961 3.85999L13.4167 9.94532Z" fill="#50B4D0"/>
</g>
<defs>
<clipPath id="clip0_2843_19790">
<rect width="32" height="32" fill="white"/>
</clipPath>
</defs>
</svg>
