<svg width="128" height="128" viewBox="0 0 128 128" fill="none" xmlns="http://www.w3.org/2000/svg">
<path d="M64.0013 10.6667C50.028 10.6667 38.668 22.0267 38.668 36C38.668 49.7067 49.388 60.8 63.3613 61.28C63.788 61.2267 64.2146 61.2267 64.5346 61.28C64.6413 61.28 64.6946 61.28 64.8013 61.28C64.8546 61.28 64.8546 61.28 64.908 61.28C78.5613 60.8 89.2813 49.7067 89.3346 36C89.3346 22.0267 77.9746 10.6667 64.0013 10.6667Z" fill="#CFD3D9"/>
<path d="M91.0931 75.4667C76.2131 65.5467 51.9465 65.5467 36.9598 75.4667C30.1865 80 26.4531 86.1333 26.4531 92.6933C26.4531 99.2533 30.1865 105.333 36.9065 109.813C44.3731 114.827 54.1865 117.333 63.9998 117.333C73.8131 117.333 83.6265 114.827 91.0931 109.813C97.8131 105.28 101.546 99.2 101.546 92.5867C101.493 86.0267 97.8131 79.9467 91.0931 75.4667Z" fill="#CFD3D9"/>
</svg>
