<svg width="328" height="192" viewBox="0 0 328 192" fill="none" xmlns="http://www.w3.org/2000/svg">
<path opacity="0.8" fill-rule="evenodd" clip-rule="evenodd" d="M70.0456 35.9708C73.2745 25.8267 76.2794 19.5108 79.0554 17.0208C86.7429 10.129 97.372 13.8798 99.6317 14.417C107.57 16.3094 104.989 3.85672 111.8 1.32554C116.339 -0.361111 120.072 1.70062 123.001 7.51072C125.595 2.09022 129.547 -0.392569 134.858 0.0502671C142.825 0.720571 145.613 27.4625 156.561 21.6089C167.512 15.7528 180.936 14.4146 186.671 23.1165C187.91 24.9991 188.385 22.0783 196.816 12.106C205.246 2.13135 213.652 -2.26313 230.897 3.54456C238.738 6.18221 245.186 13.3329 250.248 24.9943C250.248 41.6381 262.57 51.4918 287.208 54.5481C324.17 59.1338 295.48 98.6236 250.248 110.188C205.014 121.755 100.874 127.998 44.3604 98.7761C6.68497 79.2985 15.2467 58.3618 70.0432 35.9708H70.0456Z" fill="url(#paint0_linear_2209_39922)"/>
<path d="M203.998 120.498L186.355 100.534C185.937 100.058 185.419 99.6742 184.834 99.4094C184.25 99.1447 183.613 99.005 182.968 99H145.03C143.729 99 142.492 99.5779 141.644 100.534L124 120.498V131.457H203.998V120.498Z" fill="url(#paint1_linear_2209_39922)"/>
<path d="M198.999 131.86L183.557 114.472C183.183 114.062 182.723 113.734 182.207 113.51C181.691 113.287 181.132 113.174 180.567 113.179H147.433C146.295 113.179 145.184 113.635 144.443 114.472L129 131.86V141.41H198.999V131.86Z" fill="url(#paint2_linear_2209_39922)"/>
<path d="M203.998 144.016C203.998 145.538 203.29 146.906 202.173 147.823L201.946 148.001C201.061 148.651 199.979 149.002 198.868 149H129.132C128.502 149 127.899 148.889 127.342 148.686L127.066 148.579C126.153 148.186 125.378 147.546 124.834 146.736C124.29 145.926 124 144.981 124 144.014V120.617H143.41C145.554 120.617 147.281 122.324 147.281 124.395V124.422C147.281 126.494 149.028 128.166 151.172 128.166H176.826C177.856 128.165 178.844 127.769 179.574 127.064C180.303 126.36 180.714 125.405 180.717 124.408C180.717 122.328 182.446 120.617 184.589 120.617H204L203.998 144.016Z" fill="#5287F4"/>
<path opacity="0.675" fill-rule="evenodd" clip-rule="evenodd" d="M277.782 186.934C226.541 199.706 51.6371 185.097 33.021 178.426C23.9601 175.176 15.7928 169.066 8.52169 160.093C7.70788 159.09 7.19636 157.878 7.04622 156.598C6.89608 155.318 7.11345 154.022 7.67322 152.86C8.23299 151.697 9.11231 150.716 10.2096 150.029C11.3068 149.342 12.5772 148.978 13.874 148.979H319.51C325.853 165.768 311.944 178.419 277.782 186.934Z" fill="url(#paint3_linear_2209_39922)"/>
<rect x="124" y="149" width="80" height="28" rx="8" fill="url(#paint4_linear_2209_39922)" fill-opacity="0.12"/>
<defs>
<linearGradient id="paint0_linear_2209_39922" x1="169.374" y1="89.4142" x2="169.374" y2="-21.1339" gradientUnits="userSpaceOnUse">
<stop stop-color="#DEDEDE" stop-opacity="0"/>
<stop offset="1" stop-color="#A9A9A9" stop-opacity="0.3"/>
</linearGradient>
<linearGradient id="paint1_linear_2209_39922" x1="163.999" y1="99" x2="163.999" y2="113.589" gradientUnits="userSpaceOnUse">
<stop stop-color="#5389F5"/>
<stop offset="1" stop-color="#416FDC"/>
</linearGradient>
<linearGradient id="paint2_linear_2209_39922" x1="173.341" y1="141.41" x2="173.341" y2="111.678" gradientUnits="userSpaceOnUse">
<stop stop-color="#DCE9FF"/>
<stop offset="1" stop-color="#B6CFFF"/>
</linearGradient>
<linearGradient id="paint3_linear_2209_39922" x1="164" y1="192" x2="164" y2="140.514" gradientUnits="userSpaceOnUse">
<stop stop-color="white" stop-opacity="0"/>
<stop offset="1" stop-color="#919191" stop-opacity="0.15"/>
</linearGradient>
<linearGradient id="paint4_linear_2209_39922" x1="164.068" y1="107.889" x2="164.068" y2="173.722" gradientUnits="userSpaceOnUse">
<stop stop-color="#D9DDEA" stop-opacity="0.72"/>
<stop offset="1" stop-color="white" stop-opacity="0"/>
</linearGradient>
</defs>
</svg>
