<svg width="20" height="12" viewBox="0 0 20 12" fill="none" xmlns="http://www.w3.org/2000/svg">
<path d="M14.6025 8.41908C14.1425 8.41916 13.7696 8.04634 13.7695 7.58634C13.7694 7.12634 14.1422 6.75341 14.6022 6.7533C15.0622 6.75322 15.4352 7.12603 15.4353 7.58603C15.4348 8.04576 15.0623 8.41838 14.6025 8.41908ZM5.39746 8.41908C4.93746 8.41916 4.56453 8.04634 4.56441 7.58634C4.56434 7.12634 4.93715 6.75341 5.39715 6.7533C5.85715 6.75322 6.23008 7.12603 6.2302 7.58603C6.22973 8.0458 5.85723 8.41845 5.39746 8.41908ZM14.9012 3.40252L16.5655 0.519859C16.6115 0.440341 16.624 0.345817 16.6003 0.257082C16.5766 0.168347 16.5186 0.0926685 16.4391 0.0466954C16.3595 0.000723572 16.265 -0.0117771 16.1763 0.0119432C16.0875 0.0356636 16.0119 0.093662 15.9659 0.17318L14.2805 3.09224C12.9917 2.50404 11.5443 2.1765 9.99984 2.1765C8.45539 2.1765 7.00812 2.50451 5.71934 3.09224L4.0341 0.17318C4.01137 0.133793 3.98111 0.0992705 3.94503 0.0715821C3.90896 0.0438938 3.86778 0.0235823 3.82386 0.0118079C3.77994 3.34962e-05 3.73412 -0.00297341 3.68904 0.00295902C3.64395 0.00889144 3.60048 0.0236468 3.56109 0.0463828C3.52171 0.0691129 3.48718 0.0993787 3.4595 0.135452C3.43181 0.171525 3.4115 0.2127 3.39972 0.256624C3.38795 0.300547 3.38494 0.34636 3.39087 0.391446C3.39681 0.436532 3.41156 0.480008 3.4343 0.519391L5.09879 3.40252C2.24078 4.95701 0.285938 7.85033 0 11.2688H20C19.7138 7.85033 17.7591 4.95701 14.9012 3.40252Z" fill="#232730" fill-opacity="0.6"/>
</svg>
