<svg width="16" height="16" viewBox="0 0 16 16" fill="none" xmlns="http://www.w3.org/2000/svg">
<path d="M10.5005 1.33301C9.7897 1.38217 8.95887 1.83717 8.4747 2.42967C8.03304 2.96716 7.66971 3.76549 7.81138 4.54132C8.58804 4.56549 9.39053 4.09966 9.85553 3.49716C10.2905 2.93633 10.6197 2.143 10.5005 1.33301Z" fill="#232730" fill-opacity="0.6"/>
<path d="M13.3096 5.80562C12.6271 4.94979 11.6679 4.45312 10.7621 4.45312C9.56628 4.45312 9.06045 5.02562 8.22962 5.02562C7.37296 5.02562 6.72213 4.45479 5.68797 4.45479C4.67215 4.45479 3.59049 5.07562 2.90466 6.13728C1.9405 7.63227 2.1055 10.4431 3.66799 12.8372C4.22715 13.6939 4.97381 14.6572 5.95047 14.6656C6.81963 14.6739 7.06463 14.1081 8.24212 14.1022C9.41961 14.0956 9.64294 14.6731 10.5104 14.6639C11.4879 14.6564 12.2754 13.5889 12.8346 12.7322C13.2354 12.1181 13.3846 11.8089 13.6954 11.1156C11.4346 10.2548 11.0721 7.03977 13.3096 5.80562Z" fill="#232730" fill-opacity="0.6"/>
</svg>
