<svg width="24" height="24" viewBox="0 0 24 24" fill="none" xmlns="http://www.w3.org/2000/svg">
<path d="M6.6163 16.1201L5.71522 15.1502L5.75017 16.4736C5.82913 19.4628 8.67292 21.7504 12 21.7504C15.3271 21.7504 18.1709 19.4628 18.2498 16.4736L18.285 15.1425L17.3824 16.1215C16.1902 17.4146 14.2709 18.2504 12 18.2504C9.73025 18.2504 7.81966 17.4153 6.6163 16.1201ZM12 22.2504C8.21578 22.2504 5.25 19.5475 5.25 16.3504V12.6504C5.25 12.5165 5.36614 12.4004 5.5 12.4004C5.63386 12.4004 5.75 12.5165 5.75 12.6504C5.75 15.6446 8.55343 17.7504 12 17.7504C15.4466 17.7504 18.25 15.6446 18.25 12.6504C18.25 12.5165 18.3661 12.4004 18.5 12.4004C18.6339 12.4004 18.75 12.5165 18.75 12.6504V16.3504C18.75 19.5475 15.7842 22.2504 12 22.2504Z" fill="#2C92F2" stroke="#2C92F2"/>
<path d="M12 13.75C9.24 13.75 6.75999 12.51 5.54999 10.51C5.02999 9.66 4.75 8.67 4.75 7.65C4.75 5.93 5.52 4.31 6.91 3.09C8.27 1.9 10.08 1.25 12 1.25C13.92 1.25 15.72 1.9 17.09 3.08C18.48 4.31 19.25 5.93 19.25 7.65C19.25 8.67 18.97 9.65 18.45 10.51C17.24 12.51 14.76 13.75 12 13.75ZM12 2.75C10.44 2.75 8.98001 3.27 7.89001 4.23C6.83001 5.15 6.25 6.37 6.25 7.65C6.25 8.4 6.44999 9.1 6.82999 9.73C7.77999 11.29 9.76 12.25 12 12.25C14.24 12.25 16.22 11.28 17.17 9.73C17.56 9.1 17.75 8.4 17.75 7.65C17.75 6.37 17.17 5.15 16.1 4.21C15.01 3.27 13.56 2.75 12 2.75Z" fill="#2C92F2"/>
<path d="M12 18.75C7.87 18.75 4.75 16.13 4.75 12.65V7.65C4.75 4.12 8 1.25 12 1.25C13.92 1.25 15.72 1.9 17.09 3.08C18.48 4.31 19.25 5.93 19.25 7.65V12.65C19.25 16.13 16.13 18.75 12 18.75ZM12 2.75C8.83 2.75 6.25 4.95 6.25 7.65V12.65C6.25 15.27 8.72 17.25 12 17.25C15.28 17.25 17.75 15.27 17.75 12.65V7.65C17.75 6.37 17.17 5.15 16.1 4.21C15.01 3.27 13.56 2.75 12 2.75Z" fill="#2C92F2"/>
</svg>
