<svg width="32" height="32" viewBox="0 0 32 32" fill="none" xmlns="http://www.w3.org/2000/svg">
<g clip-path="url(#clip0_2843_19416)">
<path d="M4.45267 2.45162e-06H27.5473C28.7263 0.00647972 29.8551 0.477678 30.6887 1.31132C31.5223 2.14495 31.9935 3.27375 32 4.45267V27.5473C31.9935 28.7263 31.5223 29.8551 30.6887 30.6887C29.8551 31.5223 28.7263 31.9935 27.5473 32H4.45267C3.27375 31.9935 2.14495 31.5223 1.31132 30.6887C0.477679 29.8551 0.00648046 28.7263 3.20067e-06 27.5473V4.45334C-0.000698514 3.86837 0.113989 3.28902 0.3375 2.74844C0.561011 2.20787 0.888954 1.71669 1.30255 1.30302C1.71615 0.889363 2.20728 0.561346 2.74783 0.337755C3.28837 0.114163 3.86771 -0.000611688 4.45267 2.45162e-06Z" fill="url(#paint0_radial_2843_19416)"/>
<path d="M30.6667 14.6667V27.2787C30.6689 28.1752 30.3169 29.0364 29.6873 29.6747C29.3772 29.9889 29.0078 30.2384 28.6005 30.4087C28.1932 30.579 27.7561 30.6667 27.3147 30.6667H4.68465C4.2433 30.6666 3.80635 30.5789 3.39916 30.4086C2.99198 30.2383 2.62267 29.9888 2.31266 29.6747C1.68324 29.0365 1.33127 28.1757 1.33332 27.2794V22.018C2.56932 8.54069 15.31 22.1867 21.2293 22.1867C25.9333 22.1614 28.7407 18.5107 30.6667 14.6667Z" fill="url(#paint1_linear_2843_19416)"/>
<path d="M4.70601 1.33331H27.3173C27.7582 1.33366 28.1946 1.42095 28.6016 1.59019C29.0086 1.75942 29.3783 2.00728 29.6894 2.31957C30.0005 2.63185 30.247 3.00244 30.4146 3.4101C30.5823 3.81777 30.668 4.25451 30.6667 4.69531V9.75065C29.6213 23.7233 16.7247 9.77398 10.7633 9.77398C6.08401 9.77465 3.28134 13.518 1.33334 17.3333V4.69531C1.348 3.80639 1.70837 2.95814 2.33801 2.33049C2.96766 1.70284 3.81704 1.34515 4.70601 1.33331" fill="url(#paint2_linear_2843_19416)"/>
</g>
<defs>
<radialGradient id="paint0_radial_2843_19416" cx="0" cy="0" r="1" gradientUnits="userSpaceOnUse" gradientTransform="translate(16 16) scale(16)">
<stop stop-color="#F4B31B"/>
<stop offset="1" stop-color="#CC932B"/>
</radialGradient>
<linearGradient id="paint1_linear_2843_19416" x1="16" y1="30.6507" x2="16" y2="14.6507" gradientUnits="userSpaceOnUse">
<stop stop-color="#6E2616"/>
<stop offset="1" stop-color="#9B4722"/>
</linearGradient>
<linearGradient id="paint2_linear_2843_19416" x1="16.0294" y1="1.33331" x2="16.0294" y2="17.3333" gradientUnits="userSpaceOnUse">
<stop stop-color="#6E2616"/>
<stop offset="1" stop-color="#9B4722"/>
</linearGradient>
<clipPath id="clip0_2843_19416">
<rect width="32" height="32" fill="white"/>
</clipPath>
</defs>
</svg>
