<svg width="32" height="32" viewBox="0 0 32 32" fill="none" xmlns="http://www.w3.org/2000/svg">
<g clip-path="url(#clip0_2843_19444)">
<path d="M25.9687 24C22.3687 23.9813 18.9614 21.4053 16.3814 19.1333L17.858 17.6573L17.9067 17.6993C19.6194 19.166 22.1734 21.3553 24.302 21.7606C24.4587 21.7746 24.6167 21.784 24.7734 21.784C24.7835 21.7825 24.7939 21.7825 24.804 21.784H24.8107C25.4877 21.7718 26.1328 21.4939 26.6068 21.0103C27.0808 20.5267 27.3456 19.8762 27.3442 19.1991C27.3428 18.5219 27.0753 17.8725 26.5993 17.3909C26.1233 16.9092 25.4771 16.634 24.8 16.6246V12.01C23.5068 12.0549 22.2539 12.4715 21.1914 13.21C20.6278 13.5741 20.0889 13.975 19.578 14.41C17.0447 16.5386 14.9674 19.156 12.4 21.2526C11.9847 21.592 11.5634 21.9106 11.1334 22.2033C10.818 22.418 10.498 22.62 10.1734 22.8033C8.90939 23.557 7.47131 23.9693 6.00002 24C5.20743 24.0083 4.42104 23.8594 3.68636 23.5619C2.95169 23.2644 2.2833 22.8241 1.71987 22.2666C1.15644 21.7091 0.709162 21.0454 0.403903 20.3139C0.0986435 19.5824 -0.0585327 18.7976 -0.0585327 18.005C-0.0585327 17.2123 0.0986435 16.4276 0.403903 15.6961C0.709162 14.9646 1.15644 14.3009 1.71987 13.7433C2.2833 13.1858 2.95169 12.7456 3.68636 12.448C4.42104 12.1505 5.20743 12.0016 6.00002 12.01C7.58552 12.0405 9.14041 12.4521 10.5334 13.21C11.1791 13.5491 11.8026 13.9289 12.4 14.3473L12.488 14.4093C12.542 14.4473 12.6167 14.4866 12.6987 14.5426L13.128 14.834L13.136 14.84L12 16.4773C10.2987 15.2413 8.18202 14.104 6.02202 14.104C5.33309 14.0981 4.6552 14.2771 4.05897 14.6223C3.46274 14.9675 2.96997 15.4663 2.63202 16.0666C2.28548 16.6618 2.1029 17.3383 2.1029 18.027C2.1029 18.7157 2.28548 19.3921 2.63202 19.9873C2.98436 20.5517 3.47768 21.0145 4.06337 21.3301C4.64906 21.6458 5.30689 21.8033 5.97202 21.7873C11.06 21.7873 13.9554 15.4346 16.4034 12.0153C16.6576 11.6598 16.9242 11.3164 17.2034 10.9853C17.5737 10.5405 17.9746 10.1221 18.4034 9.73331C20.1325 8.14452 22.4083 7.28474 24.756 7.33331H24.8V12.01H26.0314C27.6214 12.01 29.1464 12.6416 30.2707 13.766C31.395 14.8903 32.0267 16.4152 32.0267 18.0053C32.0267 19.5954 31.395 21.1203 30.2707 22.2447C29.1464 23.369 27.6214 24.0006 26.0314 24.0006L25.9687 24Z" fill="#008BA0"/>
</g>
<defs>
<clipPath id="clip0_2843_19444">
<rect width="32" height="32" fill="white"/>
</clipPath>
</defs>
</svg>
