<svg width="32" height="32" viewBox="0 0 32 32" fill="none" xmlns="http://www.w3.org/2000/svg">
<g clip-path="url(#clip0_2843_20194)">
<path fill-rule="evenodd" clip-rule="evenodd" d="M2.87333 20.9773L8 29.8566H11.8227L6.716 21.0533L7.69 19.366L13.7473 29.8566H24L25.914 26.542L15.7227 26.546L9.63333 16L11.85 12.16H7.96333L2.87333 20.9773ZM26.8733 24.8793L32 16L30.0887 12.6893L25.018 21.5133H23.0667L29.1267 11.0226L24 2.14331H20.1727L25.272 10.9673L19.1833 21.5133H14.7493L16.6927 24.8793H26.8733ZM17.24 7.12064L16.2667 5.43331L6.08933 5.45398L8 2.14331H18.2527L23.3433 10.96L21.4 14.326L19.1833 10.486H7.006L1.914 19.3146L0 16L5.12667 7.12064H17.24Z" fill="#B01116"/>
<path fill-rule="evenodd" clip-rule="evenodd" d="M16 12.1733C17.0305 12.1739 18.0186 12.5835 18.7473 13.3121C19.4759 14.0408 19.8855 15.0289 19.886 16.0593C19.8855 17.0898 19.4759 18.0779 18.7473 18.8066C18.0186 19.5352 17.0305 19.9448 16 19.9453C14.9696 19.9448 13.9815 19.5352 13.2528 18.8066C12.5242 18.0779 12.1146 17.0898 12.114 16.0593C12.1146 15.0289 12.5242 14.0408 13.2528 13.3121C13.9815 12.5835 14.9696 12.1739 16 12.1733Z" fill="#00A1BE"/>
</g>
<defs>
<clipPath id="clip0_2843_20194">
<rect width="32" height="32" fill="white"/>
</clipPath>
</defs>
</svg>
