<svg width="32" height="32" viewBox="0 0 32 32" fill="none" xmlns="http://www.w3.org/2000/svg">
<g clip-path="url(#clip0_2843_20422)">
<path d="M14.8527 30.758C14.8584 30.5194 14.9343 30.2877 15.071 30.092C15.2077 29.8963 15.399 29.7452 15.6211 29.6577C15.8432 29.5703 16.0862 29.5502 16.3196 29.6002C16.5531 29.6501 16.7666 29.7678 16.9334 29.9385C17.1003 30.1093 17.2131 30.3254 17.2577 30.5599C17.3023 30.7944 17.2768 31.0369 17.1842 31.2569C17.0917 31.477 16.9364 31.6648 16.7376 31.797C16.5388 31.9292 16.3055 31.9998 16.0668 32C15.7412 31.9958 15.4307 31.8627 15.2031 31.6299C14.9755 31.3971 14.8495 31.0835 14.8527 30.758ZM20.8854 28.3067C20.8912 28.068 20.9672 27.8364 21.104 27.6408C21.2408 27.4451 21.4322 27.2942 21.6544 27.2068C21.8765 27.1195 22.1195 27.0996 22.3529 27.1497C22.5863 27.1997 22.7998 27.3176 22.9665 27.4884C23.1333 27.6592 23.246 27.8753 23.2905 28.1099C23.335 28.3444 23.3093 28.5868 23.2166 28.8068C23.124 29.0268 22.9685 29.2146 22.7697 29.3467C22.5708 29.4788 22.3375 29.5493 22.0987 29.5493C21.7731 29.5449 21.4625 29.4116 21.235 29.1785C21.0076 28.9454 20.8819 28.6317 20.8854 28.306V28.3067ZM8.85208 28.3067C8.85772 28.0681 8.93362 27.8364 9.07026 27.6407C9.20691 27.445 9.39824 27.294 9.62031 27.2065C9.84237 27.119 10.0853 27.0989 10.3187 27.1488C10.5521 27.1987 10.7656 27.3163 10.9325 27.487C11.0994 27.6576 11.2123 27.8737 11.257 28.1082C11.3016 28.3426 11.2762 28.585 11.1838 28.8051C11.0914 29.0252 10.9361 29.2131 10.7374 29.3454C10.5387 29.4776 10.3054 29.5483 10.0668 29.5487C9.74105 29.5444 9.43031 29.4113 9.20262 29.1783C8.97493 28.9454 8.84888 28.6317 8.85208 28.306V28.3067ZM13.6721 24.6133C13.6835 24.1554 13.8297 23.711 14.0925 23.3357C14.3552 22.9605 14.7228 22.671 15.1492 22.5037C15.5756 22.3363 16.042 22.2984 16.4898 22.3948C16.9377 22.4911 17.3471 22.7174 17.667 23.0453C17.9869 23.3733 18.2029 23.7882 18.2881 24.2384C18.3733 24.6885 18.3238 25.1537 18.1459 25.5758C17.9679 25.9979 17.6694 26.3582 17.2878 26.6115C16.9061 26.8649 16.4582 27 16.0001 27C15.3751 26.9912 14.7791 26.735 14.3427 26.2875C13.9063 25.84 13.6651 25.2377 13.6721 24.6127V24.6133ZM20.9514 19.644C20.9623 19.1859 21.1081 18.7412 21.3706 18.3655C21.633 17.9899 22.0005 17.7001 22.4269 17.5323C22.8534 17.3646 23.3198 17.3264 23.7678 17.4225C24.2159 17.5186 24.6256 17.7447 24.9457 18.0726C25.2658 18.4005 25.4821 18.8156 25.5674 19.2658C25.6527 19.716 25.6033 20.1814 25.4253 20.6037C25.2473 21.026 24.9487 21.3864 24.5669 21.6397C24.1851 21.8931 23.737 22.0281 23.2787 22.028C22.6543 22.0192 22.0587 21.7633 21.6225 21.3164C21.1863 20.8694 20.945 20.2678 20.9514 19.6433V19.644ZM6.49208 19.644C6.48585 19.0194 6.72732 18.4178 7.16363 17.9709C7.59994 17.524 8.19555 17.2681 8.82008 17.2593C9.4426 17.2741 10.0347 17.5317 10.4697 17.9772C10.9048 18.4227 11.1484 19.0206 11.1484 19.6433C11.1484 20.266 10.9048 20.864 10.4697 21.3095C10.0347 21.755 9.4426 22.0126 8.82008 22.0273C8.19567 22.0185 7.60016 21.7628 7.16387 21.316C6.72757 20.8692 6.48603 20.2678 6.49208 19.6433V19.644ZM12.4594 15.9507C12.4762 15.2475 12.7001 14.5649 13.1029 13.9884C13.5058 13.4119 14.0698 12.967 14.7244 12.7095C15.3789 12.452 16.0948 12.3933 16.7826 12.5408C17.4703 12.6883 18.0992 13.0353 18.5906 13.5386C19.082 14.0418 19.414 14.6788 19.5451 15.3698C19.6762 16.0608 19.6005 16.7752 19.3275 17.4234C19.0545 18.0716 18.5964 18.6249 18.0104 19.014C17.4245 19.403 16.7368 19.6106 16.0334 19.6107C15.0745 19.5975 14.1599 19.2048 13.4899 18.5187C12.8199 17.8326 12.4491 16.9089 12.4588 15.95L12.4594 15.9507ZM20.8527 11.1153C20.8695 10.4122 21.0934 9.72961 21.4963 9.15307C21.8992 8.57654 22.4632 8.13167 23.1177 7.87417C23.7722 7.61667 24.4882 7.55799 25.1759 7.70545C25.8636 7.85292 26.4925 8.2 26.9839 8.70322C27.4753 9.20644 27.8074 9.84345 27.9384 10.5345C28.0695 11.2255 27.9938 11.9399 27.7208 12.5881C27.4478 13.2363 26.9897 13.7896 26.4038 14.1786C25.8178 14.5677 25.1301 14.7753 24.4267 14.7753C23.4679 14.7622 22.5533 14.3695 21.8833 13.6834C21.2133 12.9973 20.8425 12.0736 20.8521 11.1147L20.8527 11.1153ZM4.00008 11.0473C3.99064 10.0887 4.36133 9.16544 5.03103 8.4795C5.70072 7.79357 6.61487 7.40086 7.57342 7.38733C8.52701 7.41308 9.4329 7.80997 10.0983 8.49355C10.7636 9.17713 11.1359 10.0934 11.1359 11.0473C11.1359 12.0013 10.7636 12.9175 10.0983 13.6011C9.4329 14.2847 8.52701 14.6816 7.57342 14.7073C6.61487 14.6938 5.70072 14.3011 5.03103 13.6152C4.36133 12.9292 3.99064 12.0059 4.00008 11.0473ZM11.2134 4.93333C11.2013 3.64093 11.7015 2.39634 12.6047 1.47182C13.5079 0.547294 14.7404 0.0180997 16.0328 0C17.3251 0.0180997 18.5576 0.547294 19.4608 1.47182C20.364 2.39634 20.8642 3.64093 20.8521 4.93333C20.8642 6.22573 20.364 7.47033 19.4608 8.39485C18.5576 9.31937 17.3251 9.84857 16.0328 9.86667C14.7404 9.84857 13.5079 9.31937 12.6047 8.39485C11.7015 7.47033 11.2013 6.22573 11.2134 4.93333Z" fill="#324C88"/>
</g>
<defs>
<clipPath id="clip0_2843_20422">
<rect width="32" height="32" fill="white"/>
</clipPath>
</defs>
</svg>
