<svg width="32" height="32" viewBox="0 0 32 32" fill="none" xmlns="http://www.w3.org/2000/svg">
<g clip-path="url(#clip0_2843_20059)">
<path fill-rule="evenodd" clip-rule="evenodd" d="M24.7828 25.384C23.3736 26.7395 21.6511 27.7255 19.7686 28.254C17.8861 28.7825 15.9021 28.8372 13.9934 28.4132C12.0846 27.9892 10.3104 27.0996 8.82877 25.8237C7.34712 24.5479 6.20407 22.9253 5.50143 21.1007C5.48425 21.0567 5.45667 21.0177 5.42105 20.9867C5.38544 20.9558 5.34285 20.934 5.29696 20.9232C5.25106 20.9124 5.20322 20.9129 5.15755 20.9246C5.11188 20.9364 5.06975 20.959 5.03476 20.9907L0.0947631 25.498C0.066215 25.5241 0.0431656 25.5556 0.02697 25.5907C0.0107744 25.6258 0.00175942 25.6637 0.000455067 25.7024C-0.000849286 25.741 0.00558332 25.7795 0.0193747 25.8156C0.0331661 25.8517 0.0540379 25.8847 0.0807631 25.9127C1.73309 27.6573 3.74027 29.0275 5.96699 29.9307C8.1937 30.834 10.5882 31.2493 12.989 31.1487C15.3899 31.0481 17.7412 30.434 19.8846 29.3477C22.0279 28.2613 23.9135 26.7281 25.4141 24.8513C25.4212 24.8425 25.4244 24.8312 25.4232 24.8199C25.4219 24.8087 25.4163 24.7984 25.4074 24.7913C25.3986 24.7843 25.3873 24.781 25.3761 24.7822C25.3648 24.7835 25.3545 24.7891 25.3474 24.798C25.1679 24.9958 24.9797 25.1911 24.7828 25.384ZM18.4988 9.72199C20.3771 10.2649 22.0919 11.2639 23.4906 12.6301C24.8892 13.9963 25.9282 15.6873 26.515 17.5524C27.1018 19.4174 27.2181 21.3987 26.8537 23.3196C26.4892 25.2405 25.6552 27.0415 24.4261 28.562C24.3963 28.5988 24.376 28.6423 24.3668 28.6887C24.3576 28.7351 24.36 28.7831 24.3736 28.8284C24.3872 28.8738 24.4116 28.9151 24.4448 28.9488C24.478 28.9826 24.519 29.0077 24.5641 29.022L30.9374 31.0447C30.9743 31.0562 31.0131 31.0602 31.0515 31.0567C31.0899 31.0531 31.1273 31.0419 31.1614 31.0238C31.1955 31.0057 31.2257 30.981 31.2502 30.9512C31.2746 30.9214 31.293 30.887 31.3041 30.85C31.9882 28.5467 32.1707 26.1235 31.8392 23.7437C31.5078 21.3639 30.6701 19.0828 29.3827 17.0541C28.0953 15.0254 26.388 13.2962 24.3758 11.983C22.3637 10.6698 20.0935 9.80309 17.7181 9.44132C17.7122 9.44036 17.7062 9.44069 17.7004 9.44228C17.6946 9.44388 17.6893 9.44671 17.6847 9.45058C17.6801 9.45444 17.6765 9.45926 17.674 9.46468C17.6714 9.4701 17.6701 9.47601 17.6701 9.48199C17.6701 9.49154 17.6734 9.5008 17.6793 9.5083C17.6852 9.51579 17.6935 9.52108 17.7028 9.52332C17.9699 9.57932 18.2352 9.64554 18.4988 9.72199ZM8.0781 22.996C7.60928 21.0982 7.61706 19.1139 8.10075 17.2198C8.58443 15.3258 9.529 13.5807 10.8503 12.1401C12.1717 10.6994 13.8288 9.60787 15.6741 8.96266C17.5194 8.31744 19.4956 8.13858 21.4268 8.44199C21.441 8.44304 21.4552 8.44304 21.4694 8.44199C21.513 8.4419 21.556 8.43211 21.5954 8.41335C21.6347 8.39458 21.6694 8.3673 21.6969 8.33348C21.7244 8.29966 21.7441 8.26015 21.7544 8.21781C21.7648 8.17546 21.7656 8.13135 21.7568 8.08865L20.3221 1.56199C20.3136 1.52426 20.2977 1.48859 20.2754 1.45705C20.253 1.42551 20.2246 1.39873 20.1918 1.37827C20.1589 1.3578 20.1224 1.34405 20.0842 1.33783C20.0461 1.3316 20.007 1.33301 19.9694 1.34199C17.6326 1.90051 15.4427 2.95352 13.5474 4.43004C11.652 5.90656 10.0952 7.77227 8.9819 9.9014C7.86863 12.0305 7.22476 14.3736 7.09369 16.7726C6.96262 19.1717 7.3474 21.5709 8.2221 23.8087C8.22595 23.8181 8.23304 23.8258 8.24209 23.8304C8.25113 23.8351 8.26154 23.8363 8.27143 23.834C8.28013 23.8317 8.28783 23.8266 8.29336 23.8195C8.2989 23.8124 8.30197 23.8037 8.3021 23.7947C8.30292 23.79 8.30292 23.7853 8.3021 23.7807C8.2181 23.524 8.14343 23.26 8.0781 22.996Z" fill="#832D6A"/>
<path d="M21.208 7.72066L19.948 1.99132C19.9436 1.96944 19.9347 1.94871 19.9218 1.93046C19.909 1.91221 19.8924 1.89683 19.8733 1.88532C19.8544 1.87326 19.8332 1.86536 19.811 1.86214C19.7888 1.85892 19.7662 1.86046 19.7447 1.86666C16.3158 2.76789 13.2717 4.75656 11.0688 7.53437C8.86588 10.3122 7.62303 13.7294 7.52665 17.2733C7.52642 17.2836 7.53005 17.2937 7.53684 17.3014C7.54362 17.3092 7.55307 17.3142 7.56332 17.3153C7.57345 17.3169 7.58381 17.3145 7.59224 17.3087C7.60068 17.3029 7.60655 17.294 7.60865 17.284C8.32141 14.3573 10.0778 11.7913 12.5482 10.0677C15.0186 8.34411 18.0331 7.58137 21.026 7.92266H21.0453C21.07 7.92256 21.0943 7.917 21.1166 7.90636C21.1388 7.89573 21.1584 7.88029 21.174 7.86115C21.1895 7.84202 21.2007 7.81967 21.2065 7.79572C21.2124 7.77177 21.2129 7.74682 21.208 7.72266V7.72066Z" fill="url(#paint0_radial_2843_20059)"/>
<path d="M25.1613 28.7313L30.7527 30.5053C30.7688 30.5105 30.7857 30.5132 30.8027 30.5133C30.8391 30.5132 30.8746 30.5012 30.9037 30.4792C30.9327 30.4572 30.9539 30.4264 30.964 30.3913C31.8958 26.9725 31.6948 23.3438 30.3913 20.0487C29.0878 16.7536 26.7519 13.9695 23.7333 12.1133C23.7245 12.109 23.7143 12.1078 23.7047 12.1101C23.6951 12.1124 23.6866 12.118 23.6806 12.1258C23.6746 12.1337 23.6715 12.1434 23.6719 12.1533C23.6723 12.1632 23.6761 12.1726 23.6827 12.18C25.8608 14.2608 27.2049 17.0649 27.4627 20.0662C27.7204 23.0674 26.8742 26.0596 25.0827 28.4813C25.0668 28.5022 25.0562 28.5266 25.0519 28.5524C25.0476 28.5782 25.0496 28.6047 25.0578 28.6296C25.066 28.6545 25.0801 28.677 25.099 28.6952C25.1178 28.7134 25.1408 28.7267 25.166 28.734L25.1613 28.7313Z" fill="url(#paint1_radial_2843_20059)"/>
<path d="M4.99054 21.6467L0.657211 25.598C0.640108 25.6127 0.626331 25.6309 0.616792 25.6514C0.607252 25.6718 0.602169 25.6941 0.601877 25.7167C0.601493 25.7391 0.605536 25.7613 0.613773 25.7821C0.62201 25.8029 0.63428 25.8219 0.649877 25.838C3.14537 28.3562 6.38986 29.9978 9.89699 30.5165C13.4041 31.0353 16.9849 30.4033 20.1025 28.7153C20.1114 28.7103 20.1181 28.7023 20.1214 28.6928C20.1248 28.6832 20.1246 28.6727 20.1208 28.6633C20.1171 28.6539 20.1101 28.6462 20.1011 28.6415C20.0921 28.6368 20.0817 28.6356 20.0719 28.638C17.181 29.4846 14.0805 29.2471 11.3522 27.9701C8.62399 26.693 6.45556 24.4643 5.25388 21.702C5.24378 21.6775 5.22778 21.656 5.2073 21.6392C5.18683 21.6225 5.16251 21.6111 5.13654 21.606C5.11076 21.5997 5.08381 21.6002 5.05825 21.6073C5.03269 21.6144 5.00938 21.628 4.99054 21.6467Z" fill="url(#paint2_radial_2843_20059)"/>
<path fill-rule="evenodd" clip-rule="evenodd" d="M16.1759 13.58C17.32 13.3937 18.4936 13.5507 19.5485 14.0313C20.6033 14.5119 21.492 15.2944 22.1022 16.28C22.7124 17.2656 23.0167 18.4099 22.9766 19.5684C22.9366 20.7269 22.5539 21.8474 21.8771 22.7885C21.2003 23.7296 20.2597 24.4488 19.1742 24.8554C18.0886 25.262 16.9069 25.3376 15.7784 25.0727C14.65 24.8077 13.6253 24.2142 12.8341 23.3671C12.0429 22.52 11.5206 21.4573 11.3332 20.3133C11.083 18.7783 11.4526 17.2068 12.3607 15.9442C13.2688 14.6816 14.641 13.8312 16.1759 13.58Z" fill="#FAA61A"/>
<path fill-rule="evenodd" clip-rule="evenodd" d="M22.1959 17.4887C21.6974 16.1427 20.685 15.0497 19.3811 14.4496C18.0772 13.8496 16.5884 13.7917 15.2419 14.2887C13.8959 14.7872 12.8028 15.7996 12.2028 17.1035C11.6028 18.4074 11.5449 19.8961 12.0419 21.2427C12.5404 22.5887 13.5528 23.6817 14.8567 24.2817C16.1606 24.8817 17.6493 24.9396 18.9959 24.4427C20.3418 23.9442 21.4349 22.9318 22.0349 21.6279C22.6349 20.324 22.6928 18.8352 22.1959 17.4887Z" fill="url(#paint3_radial_2843_20059)"/>
</g>
<defs>
<radialGradient id="paint0_radial_2843_20059" cx="0" cy="0" r="1" gradientUnits="userSpaceOnUse" gradientTransform="translate(14.361 -1.24891) rotate(-32.1883) scale(8.38156 9.04318)">
<stop stop-color="#EC008C" stop-opacity="0.408"/>
<stop offset="1" stop-color="#621A4F"/>
</radialGradient>
<radialGradient id="paint1_radial_2843_20059" cx="0" cy="0" r="1" gradientUnits="userSpaceOnUse" gradientTransform="translate(18.8797 -12.7979) rotate(-102.572) scale(3.79521 19.9469)">
<stop stop-color="#EC008C" stop-opacity="0.408"/>
<stop offset="1" stop-color="#621A4F"/>
</radialGradient>
<radialGradient id="paint2_radial_2843_20059" cx="0" cy="0" r="1" gradientUnits="userSpaceOnUse" gradientTransform="translate(-1.74567 30.1435) rotate(44.4543) scale(11.0973 6.82742)">
<stop stop-color="#EC008C" stop-opacity="0.408"/>
<stop offset="1" stop-color="#621A4F"/>
</radialGradient>
<radialGradient id="paint3_radial_2843_20059" cx="0" cy="0" r="1" gradientUnits="userSpaceOnUse" gradientTransform="translate(14.651 16.5298) rotate(180) scale(7.93395)">
<stop stop-color="#FFE293"/>
<stop offset="1" stop-color="#FAA61A"/>
</radialGradient>
<clipPath id="clip0_2843_20059">
<rect width="32" height="32" fill="white"/>
</clipPath>
</defs>
</svg>
