<svg width="32" height="32" viewBox="0 0 32 32" fill="none" xmlns="http://www.w3.org/2000/svg">
<g clip-path="url(#clip0_2843_19873)">
<path d="M16 32C15.793 32.0007 15.588 31.9602 15.3967 31.8811C15.2055 31.8019 15.0319 31.6855 14.886 31.5387L11.994 28.6467H15C15.3077 28.6475 15.6125 28.5873 15.8967 28.4695C16.181 28.3518 16.439 28.1788 16.656 27.9607L23.9793 20.6347L24.012 24.64L17.114 31.5387C16.9681 31.6855 16.7945 31.8019 16.6033 31.8811C16.4121 31.9603 16.207 32.0007 16 32ZM27.7747 27.7753H22.108L24.2333 25.65C24.451 25.4339 24.6238 25.1768 24.7416 24.8936C24.8595 24.6105 24.9201 24.3067 24.92 24V13.6347L27.7753 16.4447V27.778L27.7747 27.7753ZM15.5553 27.7753H4.22201V22.1087L6.34801 24.234C6.78692 24.6712 7.38051 24.9177 8.00001 24.92H18.3653L15.556 27.7753H15.5553ZM7.36001 24.012L0.461339 17.114C0.166902 16.8179 0.00113086 16.4176 5.86795e-06 16C-0.000560802 15.793 0.0399206 15.588 0.119108 15.3968C0.198295 15.2056 0.314616 15.032 0.461339 14.886L3.35334 11.994V15C3.35286 15.3072 3.41324 15.6115 3.53098 15.8953C3.64872 16.179 3.8215 16.4367 4.03934 16.6533L11.366 23.9793L7.36001 24.012ZM16 23.3453C14.5476 23.3453 13.1277 22.9146 11.92 22.1077C10.7124 21.3008 9.77105 20.1539 9.21516 18.8121C8.65927 17.4702 8.51376 15.9936 8.79702 14.5691C9.08028 13.1445 9.7796 11.8359 10.8065 10.8088C11.8335 9.78168 13.1419 9.08213 14.5664 8.79861C15.991 8.51509 17.4675 8.66033 18.8095 9.21598C20.1515 9.77162 21.2985 10.7127 22.1057 11.9203C22.9128 13.1278 23.3437 14.5476 23.344 16C23.3417 17.947 22.5672 19.8137 21.1905 21.1905C19.8137 22.5672 17.9471 23.3417 16 23.344V23.3453ZM28.6467 20.006V17C28.6475 16.6924 28.5872 16.3878 28.4695 16.1036C28.3517 15.8195 28.1788 15.5615 27.9607 15.3447L20.6347 8.02L24.64 7.98733L31.5387 14.886C31.685 15.0323 31.801 15.206 31.8802 15.3971C31.9594 15.5882 32.0001 15.7931 32.0001 16C32.0001 16.2069 31.9594 16.4118 31.8802 16.6029C31.801 16.794 31.685 16.9677 31.5387 17.114L28.72 19.9333L28.6473 20.006H28.6467ZM7.08067 18.3653L4.22467 15.5553V4.222H9.89134L7.76467 6.35067C7.54743 6.56682 7.37515 6.82386 7.25775 7.10694C7.14035 7.39002 7.08017 7.69354 7.08067 8V18.3653ZM8.02001 11.3653L7.98734 7.36067L14.886 0.461332C15.032 0.314608 15.2056 0.198287 15.3968 0.1191C15.588 0.039913 15.793 -0.000568432 16 -1.76145e-06C16.4174 0.00129855 16.8174 0.167056 17.1133 0.461332L20.006 3.35333H17C16.6928 3.35282 16.3885 3.41318 16.1047 3.53092C15.8209 3.64866 15.5633 3.82146 15.3467 4.03933L8.02134 11.3647L8.02001 11.3653ZM27.7747 9.89L25.6507 7.76533C25.4343 7.5479 25.1771 7.37546 24.8938 7.25795C24.6105 7.14044 24.3067 7.08018 24 7.08067H13.6347L16.4447 4.22466H27.778V9.89133L27.7747 9.89Z" fill="#00194A"/>
</g>
<defs>
<clipPath id="clip0_2843_19873">
<rect width="32" height="32" fill="white"/>
</clipPath>
</defs>
</svg>
