<svg width="32" height="32" viewBox="0 0 32 32" fill="none" xmlns="http://www.w3.org/2000/svg">
<g clip-path="url(#clip0_2843_20096)">
<path d="M13.176 26C12.7654 25.9989 12.3591 25.9169 11.9802 25.7587C11.6014 25.6005 11.2574 25.3692 10.968 25.078C10.591 24.7393 10.3337 24.2877 10.2347 23.7907C10.1847 23.2988 10.3049 22.8046 10.5753 22.3907C10.8213 21.9209 11.1096 21.4746 11.4367 21.0573C11.4878 21.031 11.5445 21.0172 11.602 21.0173C11.7973 21.0412 11.9804 21.125 12.126 21.2573C12.9953 21.89 14.0038 22.3048 15.0667 22.4667C15.4987 22.5333 15.6753 22.6613 15.676 22.898C15.5399 23.5724 15.3659 24.2386 15.1547 24.8933C14.9677 25.2498 14.6811 25.5442 14.3298 25.7407C13.9785 25.9372 13.5776 26.0273 13.176 26ZM18.812 26C18.524 26.0092 18.237 25.9609 17.9679 25.8579C17.6988 25.7548 17.4529 25.5992 17.2447 25.4C16.888 25.0467 16.8167 24.886 16.5533 23.8427C16.3813 23.1627 16.304 22.8287 16.4147 22.6627C16.4993 22.536 16.6953 22.5007 17.008 22.4547C18.0821 22.2829 19.0982 21.8522 19.9687 21.2C20.084 21.0937 20.2306 21.0275 20.3867 21.0113C20.534 21.0113 20.6593 21.1047 20.7913 21.3153C21.5913 22.582 21.7853 23.0167 21.784 23.5213C21.7714 23.8703 21.6785 24.2117 21.5126 24.519C21.3467 24.8263 21.1122 25.0913 20.8273 25.2933C20.251 25.7431 19.543 25.9914 18.812 26ZM23.6407 21.8C23.0079 21.7342 22.4037 21.5024 21.8893 21.128C21.2893 20.7707 21.0433 20.6073 21.006 20.424C20.9773 20.2847 21.082 20.128 21.2447 19.9053C21.901 19.0167 22.3261 17.979 22.482 16.8853C22.5273 16.5653 22.596 16.4433 22.7753 16.366C22.8166 16.3464 22.8594 16.3301 22.9033 16.3173C23.0073 16.3173 24.7553 16.784 24.914 16.8553C25.1983 16.9931 25.4432 17.2004 25.6261 17.4579C25.8091 17.7154 25.9241 18.0149 25.9607 18.3287C26.0376 18.8278 25.9938 19.3382 25.8331 19.8169C25.6723 20.2957 25.3992 20.7291 25.0367 21.0807C24.8642 21.2882 24.6517 21.4588 24.4119 21.5824C24.172 21.706 23.9097 21.78 23.6407 21.8ZM8.49333 21.7827C7.98804 21.734 7.50754 21.5405 7.1095 21.2255C6.71145 20.9105 6.41278 20.4873 6.24933 20.0067C6.03045 19.5568 5.94937 19.0523 6.01627 18.5565C6.08316 18.0607 6.29506 17.5958 6.62533 17.22C6.972 16.872 7.08733 16.82 8.16733 16.5427C8.47804 16.4467 8.79805 16.3839 9.122 16.3553C9.42933 16.3553 9.484 16.5253 9.53533 16.9127C9.69444 17.987 10.113 19.0064 10.7547 19.8827C11.0213 20.2367 11.0587 20.4307 10.9093 20.6227C10.339 21.0181 9.73923 21.3693 9.11533 21.6733C8.91584 21.7453 8.70541 21.7823 8.49333 21.7827ZM9.12466 15.634C8.78283 15.6027 8.44521 15.5357 8.11733 15.434C6.922 15.1333 6.53666 14.8947 6.244 14.2747C6.08833 13.9003 6.01171 13.4977 6.01894 13.0923C6.02617 12.6869 6.11709 12.2873 6.286 11.9187C6.42581 11.5515 6.64102 11.2177 6.91775 10.9388C7.19448 10.6599 7.52659 10.442 7.89266 10.2993C8.07628 10.2301 8.27046 10.1931 8.46666 10.19C9.08374 10.2691 9.66853 10.5114 10.1607 10.892C10.732 11.2333 10.968 11.3907 11.0047 11.572C11.0333 11.7173 10.9253 11.878 10.7567 12.1053C10.1142 12.976 9.69526 13.991 9.53666 15.0613C9.48266 15.4667 9.42933 15.6333 9.124 15.6333L9.12466 15.634ZM22.8867 15.634C22.59 15.634 22.5367 15.4747 22.4793 15.084C22.3207 14.0037 21.8985 12.9791 21.25 12.1007C21.066 11.852 20.9833 11.71 21.01 11.5773C21.0467 11.3933 21.2953 11.2273 21.8547 10.8933C22.2321 10.6189 22.6503 10.4054 23.094 10.2607C23.2364 10.2253 23.3826 10.2074 23.5293 10.2073C23.8715 10.2228 24.2058 10.3146 24.5078 10.4761C24.8098 10.6376 25.0719 10.8647 25.2747 11.1407C25.5752 11.5142 25.7889 11.9499 25.9003 12.4161C26.0117 12.8824 26.0179 13.3677 25.9187 13.8367C25.7187 14.734 25.2647 15.094 23.888 15.4367C23.5616 15.5353 23.2262 15.601 22.8867 15.6327V15.634ZM11.6347 11C11.4453 11 11.282 10.782 10.9167 10.1687C10.25 9.04934 10.2173 8.96467 10.2453 8.35867C10.2516 8.1099 10.3085 7.86502 10.4126 7.63898C10.5166 7.41294 10.6657 7.21049 10.8507 7.04401C11.3157 6.48744 11.9734 6.12657 12.6927 6.03334C12.8531 6.01212 13.0148 6.00099 13.1767 6.00001C13.4708 5.98728 13.7644 6.03477 14.0396 6.13954C14.3147 6.24432 14.5655 6.40419 14.7767 6.60934C15.1407 6.97867 15.1987 7.10934 15.4607 8.16467C15.6367 8.87201 15.7033 9.16467 15.594 9.32667C15.51 9.45267 15.3213 9.48867 14.9667 9.54534C14.0508 9.69462 13.1766 10.0354 12.4013 10.5453L12.086 10.7613H12.0827L11.946 10.8667C11.8566 10.9391 11.7488 10.9853 11.6347 11ZM20.3953 10.98C20.2362 10.9664 20.0856 10.9024 19.9653 10.7973C19.1082 10.1477 18.105 9.71808 17.0433 9.54601C16.6993 9.49067 16.5007 9.45334 16.414 9.32067C16.302 9.14867 16.3793 8.82401 16.5653 8.10467C16.946 6.63001 17.36 6.16601 18.4107 6.03534C18.562 6.01689 18.7142 6.00754 18.8667 6.00734C19.3949 6.00025 19.9157 6.13199 20.377 6.38938C20.8383 6.64677 21.224 7.02078 21.4953 7.47401C22.0287 8.30134 21.8467 9.10334 20.7427 10.7733C20.7077 10.8349 20.6572 10.8864 20.5963 10.9226C20.5354 10.9588 20.4662 10.9786 20.3953 10.98Z" fill="#FF7F31"/>
<path d="M7.92333 25.0048C10.1327 27.0152 13.0125 28.1294 15.9997 28.1294C18.9868 28.1294 21.8666 27.0152 24.076 25.0048C23.7957 26.9469 22.825 28.723 21.3417 30.0076C19.8584 31.2922 17.9619 31.9992 15.9997 31.9992C14.0374 31.9992 12.1409 31.2922 10.6576 30.0076C9.17433 28.723 8.20361 26.9469 7.92333 25.0048ZM28.0593 16.0008C28.064 13.0226 26.9724 10.1469 24.9927 7.9221C26.9372 8.19987 28.7162 9.16973 30.0032 10.6536C31.2902 12.1375 31.9988 14.0359 31.9988 16.0001C31.9988 17.9644 31.2902 19.8627 30.0032 21.3466C28.7162 22.8305 26.9372 23.8003 24.9927 24.0781C26.9723 21.8537 28.0639 18.9785 28.0593 16.0008ZM0 16.0008C0.00129429 14.0367 0.710447 12.1389 1.99746 10.6552C3.28447 9.17154 5.06311 8.20145 7.00733 7.92277C5.03183 10.1499 3.94092 13.0237 3.94092 16.0008C3.94092 18.9778 5.03183 21.8516 7.00733 24.0788C5.06306 23.8002 3.28434 22.8302 1.9973 21.3465C0.710259 19.8628 0.00115539 17.9649 0 16.0008H0ZM16.0307 22.0008C14.7822 22.0008 13.5629 21.6229 12.5333 20.9168C11.4408 20.1563 10.6394 19.0469 10.2607 17.7708C9.9959 16.9027 9.93088 15.9859 10.0705 15.0891C10.21 14.1923 10.5506 13.3387 11.0667 12.5921C11.5605 11.8586 12.2137 11.2462 12.9774 10.8007C13.7412 10.3552 14.5958 10.0882 15.4773 10.0194C15.63 10.0074 15.792 10.0014 15.9613 10.0014C17.0383 9.99697 18.0965 10.283 19.0245 10.8294C19.9525 11.3757 20.7161 12.1623 21.2347 13.1061C21.7613 14.0413 22.0245 15.1018 21.9961 16.1747C21.9677 17.2477 21.6488 18.2928 21.0733 19.1988C20.5284 20.0914 19.7542 20.8216 18.8313 21.3134C17.967 21.7648 17.0064 22.0006 16.0313 22.0008H16.0307ZM14.372 19.1921C14.3627 19.2074 14.3807 19.2588 14.4267 19.3394C14.7246 19.8429 15.089 20.3039 15.51 20.7101C15.5122 20.7107 15.5145 20.7107 15.5167 20.7101C15.5503 20.2141 15.5534 19.7165 15.526 19.2201C15.2792 19.1692 15.027 19.15 14.7753 19.1628C14.6404 19.1496 14.5042 19.1595 14.3727 19.1921H14.372ZM18.4487 19.3561C18.2663 19.7221 18.054 20.0724 17.814 20.4034C17.6953 20.5688 17.6373 20.6581 17.6527 20.6881C17.6562 20.6952 17.6647 20.6988 17.678 20.6988C17.8323 20.6577 17.9805 20.5963 18.1187 20.5161C18.7617 20.2057 19.337 19.7711 19.8113 19.2374C19.8138 19.2315 19.8151 19.2252 19.8151 19.2188C19.8151 19.2124 19.8138 19.206 19.8113 19.2001C19.5978 19.1617 19.3804 19.15 19.164 19.1654H18.5333L18.4487 19.3561ZM12.1953 19.2114C12.7221 19.8148 13.3723 20.2979 14.102 20.6281C14.1087 20.6281 14.1127 20.6281 14.1147 20.6221C14.128 20.5981 14.0673 20.4954 13.834 20.1454C13.6687 19.8928 13.4787 19.5774 13.4113 19.4414L13.278 19.1654H12.7333C12.302 19.1661 12.1953 19.1748 12.1953 19.2114ZM16.4747 19.8461C16.4747 20.3601 16.4833 20.5094 16.512 20.5094H16.516C16.8775 20.1182 17.1908 19.6851 17.4493 19.2194C17.4522 19.2117 17.4522 19.2032 17.4493 19.1954C17.2855 19.1686 17.1192 19.1592 16.9533 19.1674H16.4747V19.8461ZM13.5413 16.4734C13.5656 16.9782 13.6552 17.4777 13.808 17.9594L13.8927 18.2368L14.712 18.2274L15.5313 18.2181L15.5407 17.4041C15.5453 16.9634 15.5407 16.5641 15.5313 16.5154L15.5127 16.4408H14.5333C14.2016 16.4276 13.8694 16.4387 13.5393 16.4741L13.5413 16.4734ZM19.2513 16.4661C19.2325 16.5452 19.2198 16.6257 19.2133 16.7068C19.1666 17.1282 19.0936 17.5464 18.9947 17.9588C18.9607 18.0768 18.928 18.1968 18.928 18.2101C19.1861 18.2352 19.4455 18.2437 19.7047 18.2354H20.4813L20.6 17.9508C20.7929 17.4827 20.9143 16.9883 20.96 16.4841C20.606 16.4436 20.2495 16.4287 19.8933 16.4394C19.6785 16.4309 19.4633 16.4403 19.25 16.4674L19.2513 16.4661ZM16.4987 16.4628C16.4867 16.4754 16.4767 16.8788 16.4767 17.3608V18.2354H17.9273L18.0327 17.8721C18.1545 17.4816 18.2354 17.0794 18.274 16.6721L18.2833 16.4561L17.4 16.4501H17.076C16.883 16.4436 16.6898 16.4478 16.4973 16.4628H16.4987ZM11.0593 16.4628C11.0601 16.9947 11.1833 17.5194 11.4193 17.9961L11.53 18.2374H12.212C12.4396 18.2456 12.6676 18.2372 12.894 18.2121C12.894 18.1948 12.8353 17.9574 12.816 17.8788L12.8107 17.8581L12.7993 17.8114V17.8021C12.7023 17.3984 12.6326 16.9885 12.5907 16.5754L12.5813 16.4588L11.8327 16.4501H11.55C11.3857 16.4435 11.2211 16.4477 11.0573 16.4628H11.0593ZM13.9653 13.6441C13.722 14.2387 13.5787 14.8694 13.5413 15.5108C13.798 15.5483 14.0576 15.5611 14.3167 15.5488C14.7213 15.5647 15.1266 15.5455 15.528 15.4914C15.5387 15.4621 15.5487 15.0361 15.5487 14.5808C15.5487 14.1254 15.5393 13.6994 15.528 13.6694C15.1992 13.6171 14.866 13.5979 14.5333 13.6121C14.3427 13.6009 14.1515 13.6116 13.9633 13.6441H13.9653ZM11.472 13.8748C11.2256 14.3794 11.0808 14.9276 11.046 15.4881C11.0613 15.5288 11.1127 15.5394 11.416 15.5394C11.5007 15.5394 11.6107 15.5394 11.7607 15.5394H11.822L12.576 15.5308L12.6153 15.1814C12.6577 14.7802 12.7358 14.3835 12.8487 13.9961C12.8871 13.8889 12.9096 13.7766 12.9153 13.6628C12.9007 13.6261 12.77 13.6174 12.2487 13.6174H11.6L11.472 13.8748ZM16.4913 13.6588C16.482 13.6854 16.4787 14.1408 16.484 14.6148L16.4927 15.5281L17.3813 15.5368C17.5773 15.5368 17.7147 15.5368 17.822 15.5368C18.2087 15.5368 18.276 15.5241 18.2887 15.4941C18.2428 14.8973 18.1154 14.3096 17.91 13.7474L17.8533 13.6314L17.1807 13.6221C17.1013 13.6221 17.014 13.6221 16.878 13.6221C16.6 13.6234 16.5 13.6328 16.49 13.6594L16.4913 13.6588ZM18.908 13.7081C18.9193 13.7641 18.9687 13.9661 19.0113 14.1321C19.1065 14.5262 19.1766 14.9259 19.2213 15.3288L19.246 15.5288H20.9707L20.96 15.3954C20.8941 14.8726 20.7494 14.3628 20.5307 13.8834L20.408 13.6348L18.8907 13.6168L18.908 13.7081ZM14.48 12.5748C14.4433 12.6414 14.4293 12.6788 14.4373 12.6914C14.5723 12.7283 14.7128 12.7402 14.852 12.7268C15.0781 12.7389 15.3048 12.7189 15.5253 12.6674C15.536 12.6381 15.546 12.3048 15.546 11.9554C15.5556 11.7285 15.5451 11.5012 15.5147 11.2761H15.5093C15.1116 11.6626 14.7652 12.0986 14.4787 12.5734L14.48 12.5748ZM17.6527 11.3001C17.636 11.3334 17.7153 11.4468 17.86 11.6528L17.8713 11.6688C18.016 11.8754 18.2167 12.1948 18.3187 12.3808L18.506 12.7214H19.0973C19.3027 12.7386 19.5095 12.7262 19.7113 12.6848C19.7136 12.6798 19.7147 12.6745 19.7147 12.6691C19.7147 12.6637 19.7136 12.6584 19.7113 12.6534C19.2712 12.1633 18.7403 11.763 18.148 11.4748L18.1273 11.4654C17.9844 11.3887 17.8329 11.3291 17.676 11.2881C17.6713 11.2875 17.6666 11.2882 17.6622 11.2901C17.6579 11.292 17.6541 11.295 17.6513 11.2988L17.6527 11.3001ZM13.6993 11.5554C13.1633 11.8382 12.6824 12.2148 12.2793 12.6674C12.2776 12.6714 12.2767 12.6757 12.2767 12.6801C12.2767 12.6845 12.2776 12.6888 12.2793 12.6928C12.4544 12.7218 12.6321 12.7319 12.8093 12.7228H13.3213L13.442 12.4814C13.6307 12.1379 13.8416 11.8069 14.0733 11.4908C14.0966 11.4649 14.1121 11.433 14.118 11.3988C14.118 11.3828 14.118 11.3661 14.0973 11.3661C13.9572 11.4126 13.8231 11.4757 13.698 11.5541L13.6993 11.5554ZM16.508 11.4974C16.4753 11.5301 16.4773 11.6848 16.4827 12.0221V12.0821L16.4913 12.7048L16.92 12.7141H17.044C17.1556 12.7211 17.2676 12.7137 17.3773 12.6921C17.201 12.3318 16.9789 11.9957 16.7167 11.6921L16.696 11.6661C16.6067 11.5568 16.5527 11.4914 16.5207 11.4914C16.5156 11.4912 16.5106 11.4929 16.5067 11.4961L16.508 11.4974ZM16 3.8721C13.0123 3.86972 10.1315 4.9842 7.92333 6.99677C8.20361 5.05465 9.17433 3.27857 10.6576 1.99397C12.1409 0.709372 14.0374 0.00228882 15.9997 0.00228882C17.9619 0.00228882 19.8584 0.709372 21.3417 1.99397C22.825 3.27857 23.7957 5.05465 24.076 6.99677C21.868 4.98436 18.9875 3.86989 16 3.8721Z" fill="#37389A"/>
</g>
<defs>
<clipPath id="clip0_2843_20096">
<rect width="32" height="32" fill="white"/>
</clipPath>
</defs>
</svg>
