<svg width="32" height="32" viewBox="0 0 32 32" fill="none" xmlns="http://www.w3.org/2000/svg">
<g clip-path="url(#clip0_2843_19611)">
<path d="M9.97471 32C9.5309 31.9993 9.09472 31.8845 8.70804 31.6667L8.66471 31.6413L6.91871 30.6413L0.873374 27.1687C0.699667 27.0831 0.55363 26.9502 0.452041 26.7853C0.363865 26.6095 0.322969 26.4138 0.333374 26.2173V17.1573C0.349766 16.7259 0.475911 16.3058 0.699886 15.9367C0.92386 15.5676 1.23826 15.2617 1.61337 15.048L2.77271 14.3813L4.98271 13.1147L5.08337 13.0567V13.1733L5.07671 24.2033C5.078 24.289 5.10093 24.3729 5.14337 24.4473C5.17233 24.4984 5.21358 24.5415 5.26337 24.5727C5.31396 24.6028 5.37183 24.6185 5.43071 24.618H5.43404C5.52495 24.6133 5.6132 24.5858 5.69071 24.538L11.1907 21.3787L11.2414 21.35L11.2774 21.396V21.3993L11.316 21.45L11.3554 21.5007L11.36 21.5073L11.3994 21.5567L11.4387 21.6047L11.4487 21.6173L11.4907 21.6673L11.5314 21.7147L11.5754 21.764L11.6187 21.8127L11.626 21.8207L11.6694 21.8673L11.714 21.914V21.9173C11.9137 22.1265 12.1287 22.3204 12.3574 22.4973C12.402 22.532 12.4474 22.564 12.4907 22.5987L12.5154 22.6167C12.552 22.6433 12.5894 22.67 12.6267 22.6953L12.6807 22.732L12.734 22.7673L12.7414 22.7727L12.7894 22.804L12.8387 22.8347L12.86 22.8487L12.908 22.878L12.956 22.9067L12.972 22.9167L13.0427 22.9573L13.0567 22.9653L13.0714 22.9733L13.0867 22.982L13.138 23.0113L13.1914 23.0393L13.1987 23.0433L13.2534 23.072L13.3087 23.1L13.3154 23.1033C13.4827 23.188 13.6547 23.2647 13.8274 23.332C13.8654 23.3467 13.8987 23.36 13.9294 23.3707C13.96 23.3813 13.982 23.3907 14.012 23.4013L14.0314 23.408H14.0394L14.0974 23.428L14.156 23.448H14.1647L14.2174 23.4647L14.2707 23.4807L14.2974 23.4893L14.3494 23.5047L14.402 23.5193L14.422 23.5247L14.4734 23.5387L14.526 23.5527L14.5574 23.5607L14.6034 23.572L14.6487 23.5833L14.6947 23.5933L14.7367 23.6027L14.778 23.612L14.8334 23.6227L14.8734 23.6307L14.9127 23.6387L14.956 23.6467L15.0027 23.6553L15.0487 23.6633L15.084 23.6687L15.1334 23.6767L15.182 23.684L15.2107 23.6873C15.324 23.7027 15.44 23.7147 15.5567 23.7233L15.6234 23.7287L15.69 23.7327H15.71H15.7527H15.7947H15.8534H15.92H16.1287H16.1667H16.2054H16.268H16.3387L16.4054 23.728L16.4787 23.7227L16.5454 23.7173L16.6154 23.7107L16.668 23.7047H16.6814L16.7574 23.6953L16.824 23.686L16.8907 23.6767L16.9654 23.664H16.9754L17.0287 23.6547C17.0674 23.6487 17.1027 23.642 17.14 23.634L17.1654 23.6293L17.2267 23.6167L17.2934 23.6027L17.36 23.588L17.4047 23.5773L17.448 23.5673L17.494 23.5553L17.5147 23.55L17.5814 23.532L17.6407 23.516L17.7207 23.4927L17.776 23.476L17.8107 23.4647L17.8534 23.4513L17.9147 23.4307L17.99 23.404L18.0487 23.3827L18.1227 23.3553L18.1847 23.3313L18.2594 23.302L18.318 23.2773L18.3894 23.2467L18.452 23.2187L18.5227 23.186L18.5834 23.1573L18.6407 23.1293L18.6507 23.1247L18.658 23.1213L18.6674 23.1167L18.7127 23.0947L18.7874 23.056L18.7994 23.0493L18.8434 23.0267L18.91 22.9913L18.9767 22.9553L19.0434 22.9167L19.11 22.8773L19.1767 22.838L19.2434 22.7967H19.2467L19.3067 22.7573L19.3694 22.7147L19.432 22.672L19.4907 22.6307C19.5834 22.564 19.6594 22.5053 19.73 22.4487L19.7874 22.4033L19.8434 22.3573L19.8987 22.3107L19.9534 22.2627C20.0034 22.2193 20.054 22.1733 20.108 22.1213L20.1374 22.0933L20.1667 22.064L20.2187 22.0127L20.2694 21.962L20.2934 21.9373L20.3407 21.8873L20.3547 21.8727L20.3687 21.858L20.42 21.802L20.4667 21.75L20.5147 21.6947L20.56 21.6413L20.604 21.5893L20.6474 21.5353L20.654 21.5273L20.6954 21.4747L20.7374 21.42L20.7734 21.3713L20.8254 21.4013L24.874 23.726L24.9747 23.784L24.874 23.842L12.4127 30.9927L11.2534 31.6593C10.8642 31.8825 10.4234 31.9999 9.97471 32ZM22.0227 32C21.5742 31.9995 21.1335 31.8816 20.7447 31.658L19.5854 30.9913L17.3754 29.7247L17.274 29.6667L17.3754 29.6093L26.9834 24.098C27.0574 24.0552 27.1195 23.9944 27.164 23.9213C27.1942 23.8711 27.2112 23.8139 27.2134 23.7553C27.2146 23.6957 27.1986 23.6369 27.1674 23.586C27.1175 23.5092 27.0486 23.4465 26.9674 23.404L21.4667 20.2413L21.4154 20.212L21.438 20.158V20.154L21.4634 20.0953L21.4874 20.036V20.028L21.51 19.9693L21.532 19.912L21.538 19.8967L21.56 19.836L21.5814 19.7767L21.6034 19.71L21.624 19.648L21.6274 19.638L21.6467 19.5773L21.6647 19.516V19.512C21.7498 19.2354 21.8144 18.9528 21.858 18.6667C21.866 18.6087 21.8727 18.5533 21.8787 18.5007C21.8847 18.448 21.89 18.39 21.8947 18.3353L21.9 18.2687L21.9034 18.202V18.2V18.1433V18.086V18.06V18.0033V17.948V17.9287C21.9034 17.9047 21.9034 17.8773 21.9034 17.8473V17.7967V17.738V17.678V17.6667V17.6053V17.5433V17.536C21.8934 17.3507 21.8747 17.1633 21.8467 16.9807C21.8414 16.9407 21.8354 16.9053 21.83 16.8733C21.8247 16.8413 21.818 16.8067 21.8107 16.7673V16.7587L21.7987 16.6987L21.786 16.6387V16.6293L21.774 16.5753L21.7614 16.5207L21.7547 16.494L21.7427 16.442L21.7294 16.3887L21.724 16.3687L21.71 16.318L21.696 16.2653L21.6867 16.2347L21.6734 16.1887L21.6594 16.144L21.646 16.0993L21.6327 16.0587L21.6194 16.018L21.602 15.9653L21.5887 15.926L21.5754 15.888L21.5607 15.8473L21.5447 15.8027L21.5334 15.76L21.5207 15.7273L21.5027 15.6813L21.4847 15.636L21.4734 15.6093C21.4274 15.4987 21.3814 15.3947 21.332 15.2927L21.3014 15.2313L21.272 15.1707L21.2627 15.1527L21.2434 15.1153L21.2234 15.078L21.1954 15.0267L21.1647 14.9707L21.1594 14.9613L21.1294 14.9093C21.1147 14.8827 21.104 14.8653 21.094 14.8487V14.844L21.0627 14.7913L21.0427 14.7593L21.022 14.7267L20.9887 14.674L20.9507 14.6147L20.912 14.558L20.8707 14.498L20.8347 14.446L20.7927 14.3887L20.7614 14.3467L20.7534 14.336L20.7074 14.2747L20.668 14.2233L20.626 14.1707L20.578 14.112L20.5714 14.104L20.5334 14.06L20.4594 13.974L20.442 13.9547L20.4007 13.908L20.3574 13.8607L20.3127 13.8133L20.2814 13.7807L20.2507 13.748L20.2174 13.7147L20.202 13.7L20.154 13.652L20.1094 13.6093L20.0494 13.5513L20.0067 13.5127C19.99 13.4967 19.9727 13.4813 19.9467 13.4587L19.8987 13.4153L19.8374 13.364L19.7894 13.324L19.7287 13.274L19.6767 13.2327L19.614 13.184L19.5634 13.1447L19.5007 13.0987L19.4447 13.0587L19.378 13.014L19.3234 12.9767L19.2707 12.942L19.262 12.936L19.2547 12.9313L19.2454 12.9253L19.2027 12.898L19.1327 12.8533L19.12 12.846L19.0787 12.82L19.016 12.782L18.9534 12.7447L18.8867 12.7073L18.82 12.6667L18.7534 12.6313L18.6867 12.5967H18.6834L18.6167 12.564L18.55 12.5313L18.4834 12.4993L18.4167 12.4693C18.3234 12.4273 18.232 12.3893 18.1387 12.3533L18.072 12.3267L18.0054 12.302H18.002L17.9354 12.2773L17.8687 12.254C17.802 12.2307 17.7354 12.21 17.6687 12.1913L17.6294 12.1807L17.59 12.17L17.516 12.1493L17.446 12.1313L17.4207 12.1253L17.364 12.1113L17.3447 12.1067L17.3254 12.1027L17.3054 12.0987L17.2314 12.0827L17.1647 12.068L17.0934 12.054L17.0234 12.0413L16.9527 12.0293L16.886 12.0193H16.876L16.8094 12.01L16.7427 12.0007H16.7387L16.678 11.994V7.16467L16.7794 7.22267L29.226 14.38L30.386 15.0467C30.7711 15.2686 31.0917 15.5871 31.3163 15.9706C31.5408 16.3542 31.6616 16.7896 31.6667 17.234V26.234C31.6792 26.4268 31.6366 26.6191 31.544 26.7887C31.4346 26.9526 31.2846 27.0856 31.1087 27.1747L23.2214 31.708C22.851 31.9001 22.4399 32.0002 22.0227 32ZM6.35804 22.6313V6.86667C6.35891 6.42181 6.47585 5.98487 6.6973 5.59904C6.91874 5.2132 7.23703 4.89183 7.62071 4.66667L7.66671 4.64734L9.41271 3.64734L15.4567 0.171338C15.6156 0.0669741 15.8 0.00796511 15.99 0.000671387H16C16.1971 0.0131355 16.3876 0.0760366 16.5534 0.183338L24.4407 4.71667C24.808 4.94402 25.1111 5.26152 25.3211 5.63899C25.5311 6.01646 25.6411 6.44137 25.6407 6.87334V10.86L25.54 10.8027L15.9334 5.276C15.8589 5.23378 15.775 5.21086 15.6894 5.20934C15.6302 5.20886 15.5719 5.22282 15.5194 5.25C15.467 5.2789 15.424 5.32215 15.3954 5.37467C15.354 5.45517 15.3338 5.54488 15.3367 5.63534V12.012L15.2787 12.02H15.274L15.2074 12.0287L15.1407 12.0373H15.132L15.0694 12.0467L15.008 12.056H14.9914L14.9247 12.0667L14.862 12.078H14.8587L14.792 12.09L14.7254 12.104H14.7147L14.6527 12.118L14.5894 12.1333H14.5847C14.3028 12.2013 14.0265 12.2905 13.758 12.4L13.6034 12.4667C13.5587 12.4867 13.5094 12.5087 13.4514 12.5333L13.392 12.5613L13.3347 12.5893L13.326 12.5927L13.2754 12.6187L13.224 12.646L13.2174 12.6667L13.1674 12.6933L13.118 12.72L13.1014 12.7293L13.0307 12.77L13.016 12.778L13 12.7833L12.9847 12.7927L12.934 12.8227L12.8827 12.8547L12.8754 12.8587L12.8234 12.8913L12.7714 12.9247L12.7654 12.9287C12.6114 13.028 12.458 13.1373 12.31 13.2547L12.278 13.2807L12.2607 13.2947L12.2247 13.3233C12.1994 13.344 12.1714 13.368 12.1414 13.3933L12.1334 13.4L12.0867 13.44L12.0414 13.4807L12.034 13.4867L11.9934 13.524L11.952 13.562L11.9314 13.5813L11.892 13.6187L11.8527 13.6567L11.838 13.6713L11.7994 13.7087L11.7614 13.7473L11.7387 13.7707L11.706 13.8047L11.6734 13.8387L11.6407 13.8727L11.6127 13.904L11.584 13.9353L11.5467 13.9773L11.5194 14.008L11.4927 14.0387L11.4667 14.0667L11.436 14.1027L11.406 14.1387L11.384 14.166L11.3527 14.2053L11.322 14.2433L11.304 14.2667C11.2267 14.3667 11.1594 14.4587 11.0994 14.5467L11.0607 14.6033L11.0227 14.6593L11.012 14.6767L10.9894 14.712L10.9667 14.7473L10.936 14.7967L10.9027 14.852L10.8974 14.8613L10.8667 14.9127L10.8554 14.932L10.8447 14.9507L10.8314 14.974V14.9787L10.8014 15.032L10.7834 15.0653L10.7647 15.098L10.736 15.154L10.7034 15.2167L10.6727 15.2787L10.64 15.3453L10.6127 15.4033L10.5834 15.47L10.5627 15.518L10.5267 15.6007L10.502 15.6607L10.4767 15.7233C10.4714 15.738 10.4667 15.75 10.462 15.76C10.4574 15.77 10.4527 15.784 10.4487 15.794V15.8033L10.4294 15.854C10.4187 15.8827 10.4094 15.9087 10.4007 15.9347L10.3914 15.9613L10.3827 15.9853L10.3627 16.0447L10.3434 16.106L10.324 16.168L10.3107 16.212L10.298 16.2547L10.2854 16.2993L10.2794 16.3207L10.262 16.3873L10.2474 16.4467L10.2274 16.5273L10.2147 16.584C10.2094 16.6047 10.2047 16.6273 10.1974 16.6627L10.184 16.7253L10.1694 16.804L10.1587 16.8653L10.1454 16.9427L10.1354 17.0093L10.1247 17.0873L10.116 17.154L10.1067 17.2307L10.0994 17.2973L10.0927 17.3753L10.0874 17.442L10.0827 17.516V17.5247V17.5353V17.586V17.6687V17.6827V17.732V17.8047V17.9533V18.0293V18.1047L10.086 18.1807V18.184L10.09 18.2553L10.0947 18.3307L10.1014 18.406L10.108 18.4767C10.1187 18.5827 10.132 18.6827 10.1467 18.774L10.1574 18.846L10.1707 18.9167V18.92L10.1834 18.992L10.198 19.0633C10.212 19.13 10.2267 19.1967 10.2434 19.2673L10.2534 19.3067L10.2634 19.346L10.2827 19.42L10.302 19.4867L10.3174 19.5367L10.332 19.586L10.3374 19.6053L10.3334 19.62L10.3567 19.692L10.3787 19.7587L10.4027 19.8253L10.426 19.892L10.45 19.9587L10.4747 20.0253L10.4787 20.0347L10.5034 20.0973L10.5307 20.16V20.1633L10.5554 20.2187L10.5027 20.2493L6.45804 22.574L6.35871 22.6307L6.35804 22.6313Z" fill="#BA0B22"/>
<path d="M11.3333 17.8107C11.3333 18.7337 11.607 19.6359 12.1198 20.4034C12.6326 21.1708 13.3614 21.7689 14.2141 22.1221C15.0668 22.4754 16.0052 22.5678 16.9104 22.3877C17.8156 22.2076 18.6472 21.7632 19.2998 21.1105C19.9525 20.4579 20.3969 19.6264 20.577 18.7211C20.757 17.8159 20.6646 16.8776 20.3114 16.0249C19.9582 15.1721 19.3601 14.4433 18.5926 13.9305C17.8252 13.4177 16.923 13.144 16 13.144C14.7623 13.144 13.5753 13.6357 12.7001 14.5109C11.825 15.386 11.3333 16.573 11.3333 17.8107V17.8107Z" fill="#FFC730"/>
</g>
<defs>
<clipPath id="clip0_2843_19611">
<rect width="32" height="32" fill="white"/>
</clipPath>
</defs>
</svg>
