<svg width="32" height="32" viewBox="0 0 32 32" fill="none" xmlns="http://www.w3.org/2000/svg">
<g clip-path="url(#clip0_2843_20231)">
<path fill-rule="evenodd" clip-rule="evenodd" d="M29.8952 32H16.5059V18.906C16.6853 16.7953 17.0026 14.852 17.7813 13.4647C18.2439 13.7247 19.0699 14.8727 19.3146 17.0953C19.9013 15.8371 20.8273 14.7675 21.9886 14.0067C22.0786 16.4133 21.9353 17.3293 21.2606 19.0067C20.9254 19.7266 20.4317 20.3615 19.8165 20.8637C19.2012 21.3659 18.4804 21.7224 17.7079 21.9067V30.796H28.6912C28.6912 23.5593 28.8246 16.3213 28.6912 9.086C28.689 9.01356 28.6848 8.94111 28.6786 8.86867C28.6467 8.51931 28.5615 8.1769 28.4259 7.85333C28.0843 7.0532 27.4514 6.41284 26.6553 6.062C26.8784 5.71949 27.1199 5.38924 27.3786 5.07267C27.8112 5.29275 28.2065 5.57959 28.5499 5.92267C29.0361 6.40894 29.4073 6.99775 29.6366 7.646C29.8076 8.13734 29.8955 8.65376 29.8966 9.174L29.8952 32ZM15.4953 32H2.10458V9.174C2.10571 8.65376 2.19358 8.13734 2.36458 7.646C2.59383 6.99775 2.96511 6.40894 3.45125 5.92267C3.79465 5.57959 4.18993 5.29275 4.62258 5.07267C4.88149 5.38922 5.12317 5.71948 5.34658 6.062C4.55022 6.4127 3.91699 7.05308 3.57525 7.85333C3.43989 8.17626 3.35468 8.51799 3.32258 8.86667C3.31681 8.93911 3.31258 9.01156 3.30992 9.084C3.17192 16.3193 3.30992 23.5573 3.30992 30.794H14.2899V21.9047C13.5174 21.7204 12.7966 21.3639 12.1814 20.8617C11.5661 20.3595 11.0725 19.7246 10.7373 19.0047C10.0626 17.3293 9.91925 16.4133 10.0093 14.0047C11.1705 14.7655 12.0966 15.8351 12.6833 17.0933C12.9299 14.8713 13.7559 13.7227 14.2166 13.4627C14.9953 14.85 15.3126 16.796 15.4919 18.904L15.4953 32ZM21.0599 0.819336C21.0488 0.928669 21.0337 1.03778 21.0146 1.14667C20.9879 1.29911 20.9537 1.44978 20.9119 1.59867C20.5154 2.80477 19.8344 3.89776 18.9266 4.78534C18.7673 4.95534 18.6053 5.12267 18.4413 5.288C18.2773 5.45334 18.1306 5.598 17.9746 5.75467C18.2295 6.50253 18.5225 7.23683 18.8526 7.95467C18.9859 8.24711 19.1261 8.536 19.2733 8.82133C19.6873 8.18154 20.1436 7.57018 20.6393 6.99134C21.0171 6.54991 21.4176 6.12845 21.8393 5.72867C21.5326 5.11493 21.3238 4.45696 21.2206 3.77867C21.0618 2.80076 21.008 1.80869 21.0599 0.819336ZM10.9406 0.819336C10.9517 0.928669 10.9668 1.03778 10.9859 1.14667C11.0126 1.29911 11.0468 1.44978 11.0886 1.59867C11.4851 2.80477 12.1661 3.89776 13.0739 4.78534C13.2333 4.95534 13.3953 5.12267 13.5593 5.288C13.7233 5.45334 13.8699 5.598 14.0259 5.75467C13.7711 6.50253 13.478 7.23683 13.1479 7.95467C13.0146 8.24711 12.8744 8.536 12.7273 8.82133C12.3133 8.18154 11.8569 7.57018 11.3613 6.99134C10.9834 6.54991 10.5829 6.12845 10.1613 5.72867C10.4679 5.11493 10.6767 4.45696 10.7799 3.77867C10.9385 2.80073 10.9921 1.80866 10.9399 0.819336H10.9406Z" fill="#B17D53"/>
<path fill-rule="evenodd" clip-rule="evenodd" d="M28.6546 3.03664C26.54 4.56064 24.066 7.89131 23.7746 11.3966C23.5373 14.2513 23.0493 15.4986 22.6853 16.0333C22.85 14.93 22.8437 13.808 22.6666 12.7066C22.0395 13.0078 21.4682 13.4136 20.9773 13.9066C20.9006 13.6566 20.274 12.3733 18.2093 12.9426C18.3086 12.6233 18.418 12.3066 18.5426 11.9946C18.8352 11.248 19.1865 10.5257 19.5933 9.83464L19.6013 9.82131C20.0389 9.0787 20.5352 8.37223 21.0853 7.70864C21.5522 7.14368 22.0576 6.61173 22.598 6.11664C22.6144 6.1041 22.6298 6.09028 22.644 6.07531C23.0378 5.71772 23.4509 5.38189 23.8813 5.06931C25.0808 4.1709 26.4495 3.52438 27.9053 3.16864C28.15 3.11397 28.4 3.06997 28.6546 3.03664ZM3.34597 3.03664C5.46064 4.56064 7.93464 7.89131 8.22597 11.3966C8.46331 14.2513 8.95131 15.4986 9.31531 16.0333C9.15042 14.9301 9.15649 13.808 9.33331 12.7066C9.96047 13.0078 10.5318 13.4136 11.0226 13.9066C11.0993 13.6566 11.726 12.3733 13.7906 12.9426C13.6913 12.6233 13.582 12.3066 13.4573 11.9946C13.1647 11.248 12.8134 10.5257 12.4066 9.83464L12.3986 9.82131C11.961 9.0787 11.4648 8.37223 10.9146 7.70864C10.4478 7.14367 9.94237 6.61173 9.40197 6.11664C9.38557 6.1041 9.37019 6.09028 9.35597 6.07531C8.96213 5.71772 8.54907 5.38189 8.11864 5.06931C6.91919 4.1709 5.55041 3.52438 4.09464 3.16864C3.84997 3.11397 3.59997 3.06997 3.34531 3.03664H3.34597ZM17.2793 13.2573C16.9214 12.9496 16.464 12.7822 15.992 12.786C15.5257 12.7848 15.0746 12.9522 14.722 13.2573C14.3849 11.9827 13.8776 10.7592 13.214 9.61998C13.7161 8.62038 14.1645 7.5947 14.5573 6.54731C15.152 4.69331 15.67 2.42131 16.0006 1.19597C16.318 2.42464 16.8373 4.77531 17.444 6.54731C17.6813 7.24064 18.5066 9.08931 18.7873 9.61998C18.1234 10.7592 17.616 11.9826 17.2786 13.2573H17.2793ZM21.9546 2.15131C22.1146 0.884641 23.5486 0.787973 24.4333 1.08464C25.704 1.50997 26.1426 2.69731 25.122 3.35664C24.6293 3.67464 24.1 3.93464 23.6213 4.26864C23.2191 4.54953 22.8313 4.84953 22.458 5.16864L22.452 5.15531C22.0822 4.19858 21.9127 3.17616 21.954 2.15131H21.9546ZM10.0473 2.15131C9.88731 0.884641 8.45331 0.787973 7.56864 1.08464C6.29797 1.50997 5.85931 2.69731 6.87997 3.35664C7.37264 3.67464 7.90197 3.93464 8.38064 4.26864C8.78286 4.54953 9.17064 4.84953 9.54397 5.16864L9.54997 5.15531C9.91903 4.19844 10.0878 3.17603 10.046 2.15131H10.0473ZM16.9733 1.55864C16.9596 1.34268 16.9939 1.12636 17.0736 0.925193C17.1534 0.724028 17.2767 0.543005 17.4346 0.395105C17.5926 0.247205 17.7813 0.136094 17.9873 0.0697391C18.1933 0.00338414 18.4114 -0.0165721 18.626 0.0113056C19.1193 0.0833056 20.4586 0.425307 20.082 1.57397C19.9304 2.02123 19.7215 2.44699 19.4606 2.84064C18.9964 3.52013 18.4643 4.1507 17.8726 4.72264L17.7026 4.89264C17.4798 4.14017 17.2949 3.37699 17.1486 2.60597C17.082 2.25797 17.0231 1.90909 16.972 1.55931L16.9733 1.55864ZM15.0293 1.55864C15.043 1.34268 15.0088 1.12636 14.929 0.925193C14.8492 0.724028 14.726 0.543005 14.568 0.395105C14.41 0.247205 14.2213 0.136094 14.0153 0.0697391C13.8093 0.00338414 13.5912 -0.0165721 13.3766 0.0113056C12.8833 0.0833056 11.544 0.425307 11.9206 1.57397C12.0722 2.02123 12.2811 2.44699 12.542 2.84064C13.0062 3.52013 13.5383 4.1507 14.13 4.72264L14.3 4.89264C14.5228 4.14017 14.7077 3.37699 14.854 2.60597C14.9189 2.25797 14.9769 1.90909 15.028 1.55931L15.0293 1.55864Z" fill="black"/>
</g>
<defs>
<clipPath id="clip0_2843_20231">
<rect width="32" height="32" fill="white"/>
</clipPath>
</defs>
</svg>
