<svg width="32" height="32" viewBox="0 0 32 32" fill="none" xmlns="http://www.w3.org/2000/svg">
<g clip-path="url(#clip0_2843_20259)">
<path d="M18.0159 0C21.3648 0.412792 24.4984 1.8705 26.9715 4.16599C29.4447 6.46148 31.1314 9.47799 31.7922 12.7869C32.453 16.0958 32.0542 19.5288 30.6524 22.5981C29.2506 25.6674 26.9172 28.2169 23.9837 29.8842C21.0502 31.5516 17.6658 32.2521 14.3114 31.8861C10.9571 31.5201 7.80341 30.1063 5.29848 27.8456C2.79355 25.5849 1.0648 22.5922 0.35787 19.2928C-0.349061 15.9935 0.00178798 12.5552 1.36056 9.46667L2.18723 10.5333L2.23523 10.5927C2.34188 10.7165 2.45681 10.833 2.57923 10.9413C2.74329 11.0807 2.92649 11.1959 3.12323 11.2833C3.23843 11.3323 3.3581 11.37 3.48056 11.396C3.97516 11.4821 4.47819 11.5096 4.97923 11.478C5.29923 11.4633 5.52723 11.4453 5.52723 11.4453C6.18053 11.3642 6.84362 11.4595 7.4477 11.7211C8.05178 11.9828 8.57483 12.4013 8.96256 12.9333C9.46123 13.522 14.3399 20.0487 14.3399 20.0487L16.7659 17.61C16.7659 17.61 14.7292 15.0027 13.8252 13.834C13.1622 12.9061 12.4306 12.0292 11.6366 11.2107C10.6612 10.3853 8.50323 10.2873 8.0099 10.202C6.92924 10.0514 5.91738 9.58423 5.1019 8.85933C4.9483 8.70254 4.8032 8.53764 4.66723 8.36533L3.10856 6.44067C3.50777 5.89618 3.94061 5.37716 4.40456 4.88667L6.0879 7.06667C6.34464 7.41658 6.62507 7.74847 6.92723 8.06C7.48991 8.58519 8.20272 8.92131 8.9659 9.02133C11.4559 9.47133 12.8152 9.59 13.6046 10.508C14.5519 11.6087 14.7346 11.8607 15.5259 12.8853C15.8172 13.2627 18.1059 16.2673 18.1059 16.2673L20.4566 13.902C20.4566 13.902 18.9519 11.9553 18.0772 10.8013C17.6153 10.1379 17.0767 9.53124 16.4726 8.994C15.4426 8.25333 14.5259 8.36333 13.5912 8.26067C12.7276 8.23657 11.8769 8.0455 11.0859 7.698C11.0859 7.698 10.6699 7.60533 9.81056 6.494C8.95123 5.38267 8.71056 5.06667 8.71056 5.06667L6.86723 2.76C7.41134 2.37825 7.97866 2.03069 8.5659 1.71933L10.3826 4.08533L11.2899 5.27267C12.5972 6.94867 13.4426 6.968 14.3139 7.07267C15.6959 7.23733 16.9979 7.14933 18.1232 8.00133C18.6862 8.46831 19.1782 9.0147 19.5839 9.62333C20.2912 10.538 21.8166 12.53 21.8166 12.53L24.1692 10.164C24.1692 10.164 22.8146 8.406 22.2886 7.73867C22.0256 7.4289 21.7156 7.16232 21.3699 6.94867C20.6679 6.49 19.9699 6.34867 18.1699 6.082C16.3699 5.81533 15.7886 5.50267 14.9392 4.57C14.5332 4.124 14.3086 3.80733 14.0352 3.454L11.6812 0.466667C12.4224 0.256199 13.178 0.100228 13.9419 0L15.5452 2.22267C16.127 3.13773 16.953 3.87201 17.9299 4.34267C19.5739 5.076 20.8159 4.90533 21.9419 5.19733C22.1623 5.25505 22.3779 5.32994 22.5866 5.42133C22.9041 5.57312 23.1829 5.79517 23.4019 6.07067C23.7739 6.492 24.0999 6.90333 24.1746 7L25.5699 8.74667L27.8952 6.41C27.8952 6.41 27.3579 5.72667 26.9339 5.186C26.7761 4.95036 26.572 4.74938 26.3339 4.59533C26.1205 4.46395 25.8873 4.36804 25.6432 4.31133C25.1179 4.2053 24.5838 4.14839 24.0479 4.14133C21.9512 4.05733 21.1772 3.89 19.8432 2.286L18.8519 1.08133L18.0159 0Z" fill="#14763E"/>
</g>
<defs>
<clipPath id="clip0_2843_20259">
<rect width="32" height="32" fill="white"/>
</clipPath>
</defs>
</svg>
