<svg width="32" height="32" viewBox="0 0 32 32" fill="none" xmlns="http://www.w3.org/2000/svg">
<g clip-path="url(#clip0_2843_20389)">
<path d="M12.7867 32L7.33335 27.0547H25.14V14.228C24.6847 12.7718 23.7594 11.5076 22.5089 10.6333C21.2585 9.75912 19.7534 9.3242 18.2294 9.39667C12.5707 9.39667 11.626 13.5967 11.626 13.5967C11.626 13.5967 10.3734 6.66667 20.6427 6.66667C30.912 6.66667 31.3334 14.1333 31.3334 14.1333V29.7953C31.3334 29.7953 31.0147 32 29.4434 32H12.7867ZM0.666687 17.8753V2.20467C0.666687 2.20467 0.985354 0 2.55669 0H19.2134L24.6667 4.946H6.86069V17.772C7.31587 19.2284 8.24113 20.4927 9.49161 21.3671C10.7421 22.2414 12.2472 22.6764 13.7714 22.604C19.4294 22.604 20.3714 18.4007 20.3714 18.4007C20.3714 18.4007 21.6274 25.3333 11.3574 25.3333C1.08735 25.3333 0.666687 17.8753 0.666687 17.8753Z" fill="#007D3D"/>
<path d="M16.27 10.026C17.443 10.0231 18.5906 10.3683 19.5674 11.0179C20.5442 11.6675 21.3062 12.5923 21.7572 13.6753C22.2081 14.7582 22.3276 15.9506 22.1005 17.1015C21.8734 18.2524 21.31 19.31 20.4815 20.1405C19.6531 20.9711 18.5968 21.5371 17.4465 21.767C16.2962 21.9969 15.1035 21.8804 14.0195 21.4322C12.9354 20.9839 12.0087 20.2241 11.3567 19.249C10.7047 18.2738 10.3566 17.1271 10.3566 15.954C10.3557 15.1765 10.5079 14.4064 10.8045 13.6877C11.1012 12.969 11.5365 12.3158 12.0856 11.7653C12.6347 11.2149 13.2868 10.7779 14.0048 10.4795C14.7227 10.1811 15.4925 10.027 16.27 10.026Z" fill="#FFF400"/>
</g>
<defs>
<clipPath id="clip0_2843_20389">
<rect width="32" height="32" fill="white"/>
</clipPath>
</defs>
</svg>
