<svg width="32" height="32" viewBox="0 0 32 32" fill="none" xmlns="http://www.w3.org/2000/svg">
<g clip-path="url(#clip0_2843_20027)">
<path d="M9.72687 31.8313C8.75841 31.8297 7.80682 31.5777 6.96445 31.0999C6.12208 30.622 5.41753 29.9346 4.91917 29.1042C4.56002 28.5723 4.24776 28.0102 3.98589 27.4243C3.28505 27.2391 2.63049 26.9099 2.06395 26.4577C1.49741 26.0055 1.03133 25.4402 0.695433 24.7978C-0.923799 22.02 0.663435 19.2881 1.71337 17.4802C0.0688052 20.8987 0.568107 22.5893 1.01008 23.2919C1.23077 23.6282 1.53655 23.9001 1.89636 24.0799C2.25616 24.2598 2.65717 24.3412 3.05862 24.3158C3.9079 24.3158 5.69979 23.9938 8.15697 21.8366L16.4371 13.5465C17.2106 12.7603 18.2591 12.3051 19.3616 12.2766C19.4941 12.2765 19.6266 12.284 19.7582 12.2992C20.8742 12.468 21.9401 12.8775 22.882 13.4992C23.1134 13.643 23.3529 13.7732 23.5993 13.8891C23.699 13.9326 23.8066 13.9553 23.9153 13.9558C23.9975 13.9599 24.0794 13.9438 24.1539 13.909C24.2283 13.8741 24.2932 13.8215 24.3426 13.7558C24.3778 13.7007 24.3985 13.6375 24.4027 13.5722C24.4069 13.507 24.3945 13.4417 24.3666 13.3825C24.0571 12.7928 23.6389 12.267 23.134 11.8326C21.0962 9.79139 18.5803 7.39687 18.555 7.37287C17.1451 6.01629 16.5004 4.72037 16.5838 3.41179C16.6651 2.57917 17.0328 1.80055 17.6241 1.20876C18.2154 0.616962 18.9937 0.248653 19.8262 0.166656C19.1529 0.966607 19.0636 1.76656 19.5769 2.41385L26.7965 9.64406C27.1907 10.1426 27.4707 10.7215 27.6167 11.3401C27.7628 11.9586 27.7713 12.6016 27.6418 13.2238C27.5157 13.7165 27.256 14.1649 26.8914 14.5194C26.5267 14.8739 26.0713 15.1209 25.5752 15.233C25.3928 15.2884 25.2032 15.3165 25.0126 15.3164C24.7867 15.3142 24.5622 15.2798 24.346 15.2144C23.7336 15.023 23.0974 14.9189 22.4561 14.9051C22.0489 14.8879 21.6425 14.9526 21.2608 15.0954C20.8792 15.2382 20.5301 15.4561 20.2342 15.7364C19.0343 16.9189 16.3011 19.6641 14.1079 21.8693C12.3407 23.6465 10.8141 25.1811 10.5462 25.4371C10.0176 25.9273 9.42434 26.3427 8.78293 26.6717C7.77423 27.2042 6.66106 27.5091 5.5218 27.5649C5.6295 28 5.88772 28.3829 6.25071 28.6459C6.6137 28.9088 7.05803 29.0348 7.50501 29.0015C8.90492 29.0015 10.7941 28.0462 12.692 26.3804L12.8787 26.1937L20.9722 18.0875C21.8473 17.2616 23.0122 16.8131 24.2153 16.8389H24.2933C25.038 16.8221 25.769 17.0404 26.3825 17.4629C26.7814 17.7099 27.125 18.0366 27.3919 18.4224C27.6588 18.8083 27.8433 19.2451 27.9337 19.7054C27.542 19.4436 27.087 19.2919 26.6165 19.2661C26.2574 19.3033 25.9093 19.4117 25.5927 19.5851C25.2761 19.7586 24.9972 19.9935 24.7726 20.2761C23.1434 21.876 19.0436 25.999 16.7444 28.3122C16.743 28.4016 16.7621 28.4902 16.8002 28.5711C16.8384 28.652 16.8945 28.7231 16.9644 28.7789C17.2743 28.9812 17.6392 29.0825 18.009 29.0688C18.4821 29.0906 18.9452 28.9276 19.3003 28.6142L25.6525 22.2546C26.0548 21.8386 26.5367 21.5078 27.0694 21.282C27.6022 21.0561 28.175 20.9398 28.7537 20.94H28.8203C29.4616 20.9074 30.0917 21.117 30.5856 21.5273C30.9804 21.8243 31.3098 22.1995 31.5532 22.6295C31.7966 23.0595 31.9488 23.5351 32.0001 24.0265C31.6901 23.7723 31.3083 23.6212 30.9082 23.5945C30.3288 23.6747 29.8041 23.9792 29.447 24.4425C28.447 25.4257 26.3892 27.483 23.328 30.5588C22.4672 31.3297 21.3504 31.7529 20.1949 31.746C19.6469 31.7453 19.1031 31.6508 18.587 31.4667C17.4637 31.0667 16.6791 29.9228 16.1598 29.1642L16.0551 29.0115C15.9611 29.3495 12.9487 31.8313 9.72687 31.8313ZM5.29581 19.0721C4.9032 19.072 4.51582 18.9821 4.16324 18.8093C3.81067 18.6366 3.50222 18.3856 3.26144 18.0755C3.02065 17.7654 2.85391 17.4044 2.77392 17.02C2.69394 16.6356 2.70284 16.238 2.79993 15.8576C2.89703 15.4772 3.07976 15.124 3.33417 14.825C3.58858 14.5259 3.90795 14.289 4.2679 14.1322C4.62785 13.9754 5.01886 13.9029 5.41109 13.9203C5.80332 13.9377 6.18639 14.0445 6.53107 14.2324C6.23477 13.6891 6.14431 13.057 6.27628 12.4524C6.40826 11.8477 6.75382 11.3108 7.24959 10.9403C7.74536 10.5698 8.35809 10.3904 8.9754 10.4351C9.59272 10.4798 10.1732 10.7456 10.6104 11.1836C11.0477 11.6217 11.3123 12.2027 11.3558 12.8201C11.3993 13.4375 11.2187 14.0499 10.8472 14.545C10.4757 15.04 9.93821 15.3845 9.33326 15.5153C8.72831 15.6461 8.09649 15.5544 7.55367 15.257C7.76809 15.6494 7.87681 16.0907 7.86916 16.5377C7.86151 16.9848 7.73776 17.4221 7.51005 17.8069C7.28234 18.1917 6.95849 18.5106 6.5703 18.7324C6.18211 18.9542 5.74291 19.0713 5.29581 19.0721Z" fill="#00BBE6"/>
</g>
<defs>
<clipPath id="clip0_2843_20027">
<rect width="32" height="31.998" fill="white"/>
</clipPath>
</defs>
</svg>
