<svg width="32" height="32" viewBox="0 0 32 32" fill="none" xmlns="http://www.w3.org/2000/svg">
<g clip-path="url(#clip0_2843_19581)">
<path d="M10.958 5.55866C12.3892 3.57584 14.0464 1.76634 15.896 0.166656C17.1211 1.57595 17.9607 3.27821 18.3333 5.10799C19.7875 4.29337 21.3182 3.62349 22.9033 3.10799C23.9807 2.74599 25.0933 2.43332 26.2133 2.15866C26.1149 4.7592 25.5386 7.31941 24.5133 9.71132C27.1033 9.8325 29.6454 10.453 32 11.5387C30.2318 13.9056 28.1427 16.0147 25.7927 17.8053C27.3409 19.1704 28.5266 20.8979 29.244 22.8333C26.9118 23.8759 24.4545 24.6124 21.9333 25.0247C22.1633 26.6481 21.9954 28.3032 21.444 29.8473C20.644 29.7807 19.8487 29.6887 19.086 29.5647C17.9835 29.4002 16.9007 29.1232 15.8547 28.738C15.2675 29.9175 14.4297 30.9546 13.4 31.7767C12.1667 31.0496 11.0464 30.146 10.0747 29.0947C9.17148 29.6996 8.15387 30.113 7.08467 30.3093C6.44248 29.3317 5.95035 28.2634 5.62467 27.14C5.03022 27.2075 4.42912 27.1889 3.84 27.0847C3.48246 27.0257 3.12855 26.9464 2.78 26.8473C2.61719 25.8048 2.61337 24.7436 2.76867 23.7C1.88844 23.3243 1.08415 22.7911 0.395333 22.1267C0.643429 21.1255 1.05157 20.171 1.604 19.3C0.925515 18.4489 0.384309 17.497 0 16.4787C0.642441 15.6196 1.43745 14.886 2.34533 14.3147L2.338 14.2867C2.04895 12.9475 1.93688 11.5763 2.00467 10.208C2.40457 10.0126 2.81651 9.84295 3.238 9.69999C3.9233 9.45787 4.64452 9.33301 5.37133 9.33066C5.75596 7.51395 6.35388 5.74905 7.15267 4.07266C8.53287 4.20546 9.84876 4.72028 10.9527 5.55932L10.958 5.55866Z" fill="#7DCDF1"/>
<path d="M13.1374 9.61467C14.0167 8.57494 14.9807 7.60986 16.0194 6.72934C16.738 6.11761 17.5125 5.57477 18.3327 5.108C18.4742 5.87974 18.5038 6.66782 18.4207 7.448C18.2816 8.73842 18.0042 10.0102 17.5934 11.2413C18.9128 10.6911 20.2808 10.2653 21.6794 9.96934C22.611 9.77508 23.562 9.6894 24.5134 9.714C24.1087 10.61 23.608 11.4594 23.0201 12.2473C22.1349 13.431 21.1449 14.5326 20.0621 15.5387C21.3231 15.7362 22.5566 16.0808 23.7374 16.5653C24.4813 16.8738 25.1742 17.293 25.7927 17.8087C25.001 18.3849 24.1553 18.883 23.2674 19.296C22.013 19.8746 20.7099 20.3413 19.3734 20.6907C20.1234 21.4369 20.7674 22.2826 21.2874 23.204C21.603 23.7701 21.8207 24.3854 21.9314 25.024C21.1365 25.1349 20.3323 25.1642 19.5314 25.1113C18.4078 25.0344 17.2942 24.8496 16.2061 24.5593C16.3535 25.4349 16.38 26.3266 16.2847 27.2093C16.2227 27.7384 16.0766 28.2542 15.8521 28.7373C15.2779 28.5213 14.7291 28.2432 14.2154 27.908C13.4655 27.4137 12.7701 26.8414 12.1407 26.2007L12.1361 26.1967L12.1407 26.2013C11.8568 26.9052 11.4816 27.5686 11.0247 28.1747C10.7554 28.5281 10.4337 28.8384 10.0707 29.0947C9.74574 28.7264 9.46515 28.3211 9.23473 27.8873C8.88216 27.2194 8.60276 26.5153 8.4014 25.7873C7.89162 26.208 7.32853 26.5595 6.72673 26.8327C6.37562 26.9901 6.00275 27.0938 5.62073 27.14C5.51172 26.7278 5.45175 26.3042 5.44207 25.878C5.42982 25.1959 5.49107 24.5144 5.62473 23.8453C5.03051 23.9604 4.42363 23.9958 3.82007 23.9507C3.45817 23.9207 3.10273 23.8371 2.7654 23.7027C2.83388 23.3098 2.94822 22.9263 3.10607 22.56C3.36983 21.966 3.70065 21.4042 4.09207 20.8853C3.51422 20.686 2.96455 20.4129 2.45673 20.0727C2.13924 19.8547 1.85245 19.595 1.60406 19.3007C1.82365 18.9719 2.08519 18.6731 2.38206 18.412C2.87121 17.9901 3.41171 17.6317 3.99073 17.3453C3.53826 16.814 3.14836 16.2324 2.82873 15.612C2.61823 15.1978 2.45627 14.7607 2.34606 14.3093C2.70011 14.1024 3.08396 13.9513 3.48406 13.8613C4.14283 13.719 4.81892 13.674 5.49073 13.728C5.31232 12.8712 5.2181 11.9991 5.2094 11.124C5.20439 10.5216 5.25933 9.92019 5.3734 9.32867C5.83028 9.33286 6.2824 9.42193 6.70673 9.59134C7.41941 9.88313 8.08104 10.2866 8.66673 10.7867C8.95331 9.69769 9.33063 8.63464 9.79473 7.60867C10.1215 6.89249 10.5108 6.2065 10.9581 5.55867C11.4014 5.91976 11.7737 6.36013 12.0561 6.85734C12.5414 7.72243 12.9053 8.65026 13.1374 9.61467Z" fill="#00AAE7"/>
<path d="M10.6614 13.466C10.6461 13.5007 10.6767 13.5013 10.6614 13.466C11.3019 12.0728 12.1347 10.7764 13.1354 9.61465C13.4634 10.9671 13.5353 12.3691 13.3474 13.748C13.3418 13.7522 13.3371 13.7575 13.3335 13.7635C13.3299 13.7695 13.3276 13.7762 13.3266 13.7831C13.3256 13.79 13.326 13.7971 13.3277 13.8039C13.3295 13.8107 13.3325 13.8171 13.3367 13.8227L13.3474 13.748C14.6313 12.7085 16.0611 11.8632 17.5907 11.2393C17.0828 12.7959 16.3351 14.2638 15.3747 15.59C15.6447 15.5367 15.9201 15.4927 16.2047 15.4567C17.4873 15.3062 18.7844 15.3338 20.0594 15.5387C18.8371 16.6946 17.4508 17.6637 15.9454 18.4147C17.2307 18.9327 18.3971 19.7071 19.3734 20.6907C18.1639 21.0126 16.9195 21.1847 15.6681 21.2033C15.4014 21.2033 15.1461 21.1953 14.8974 21.178C15.5676 22.2001 16.014 23.3524 16.2074 24.5593C14.9734 24.2419 13.8039 23.7122 12.7514 22.994C12.7657 24.0939 12.558 25.1855 12.1407 26.2033C11.3645 25.4264 10.735 24.5155 10.2827 23.5147C10.2947 23.4927 10.2667 23.478 10.2827 23.5147C9.81126 24.3875 9.17349 25.1595 8.40539 25.7873C8.13476 24.8232 8.03658 23.8189 8.11539 22.8207C7.36457 23.3273 6.51852 23.6759 5.62872 23.8453C5.81063 22.9124 6.15666 22.0193 6.65072 21.2073C6.67939 21.2073 6.67139 21.174 6.65072 21.2073C6.48139 21.2227 6.31272 21.2307 6.14206 21.2307C5.4456 21.2307 4.75405 21.1142 4.09606 20.886C4.64617 20.1424 5.33146 19.5091 6.11606 19.0193C5.30116 18.6128 4.57793 18.0441 3.99072 17.348C4.65586 17.0166 5.37173 16.7987 6.10872 16.7033C6.28539 16.6807 6.46339 16.668 6.64206 16.6627C6.66139 16.6933 6.67939 16.6627 6.64206 16.6627C6.08573 15.7621 5.6968 14.7683 5.49406 13.7293C6.46248 13.8046 7.39934 14.108 8.22806 14.6147C8.22806 14.6487 8.25739 14.6333 8.22806 14.6147C8.17774 13.3236 8.32545 12.0324 8.66606 10.786C9.52432 11.5155 10.2063 12.43 10.6607 13.4607L10.6614 13.466Z" fill="#006FBA"/>
<path d="M13.3494 13.7327V13.748C12.5161 14.4208 11.7996 15.2265 11.2287 16.1327C11.2282 15.2139 11.035 14.3054 10.6614 13.466C10.249 14.3591 9.99389 15.3167 9.90739 16.2967C9.48958 15.611 8.91377 15.0351 8.22805 14.6173C8.25887 15.4722 8.45848 16.3126 8.81539 17.09C8.13443 16.7773 7.38859 16.632 6.64005 16.666C6.63139 16.6527 6.61405 16.654 6.59005 16.666H6.64005C7.03709 17.3094 7.57279 17.856 8.20805 18.266C7.46428 18.3647 6.75052 18.6226 6.11539 19.022C6.76055 19.3429 7.47083 19.5112 8.19139 19.514C7.57139 19.9721 7.04727 20.5474 6.64872 21.2073C7.38605 21.1439 8.10122 20.9231 8.74605 20.56C8.39269 21.2661 8.17857 22.0336 8.11539 22.8207C8.76772 22.3842 9.32585 21.8213 9.75672 21.1653C9.77258 21.9759 9.95171 22.7749 10.2834 23.5147C10.6805 22.7868 10.9259 21.986 11.0047 21.1607C11.454 21.8864 12.0492 22.5107 12.7527 22.994C12.7466 22.1287 12.5519 21.275 12.1821 20.4927C13.0321 20.9001 13.9551 21.1334 14.8967 21.1787C14.3983 20.414 13.735 19.7707 12.9554 19.296C13.9967 19.1836 15.0094 18.8853 15.9454 18.4153C15.0249 18.0426 14.0375 17.8636 13.0447 17.8893C13.9473 17.261 14.7363 16.4837 15.3781 15.5907C14.3256 15.7842 13.3162 16.1642 12.3974 16.7127C12.8899 15.7901 13.2117 14.7863 13.3474 13.7493C13.3514 13.746 13.3521 13.7413 13.3494 13.7327Z" fill="white"/>
</g>
<defs>
<clipPath id="clip0_2843_19581">
<rect width="32" height="32" fill="white"/>
</clipPath>
</defs>
</svg>
