<svg width="32" height="32" viewBox="0 0 32 32" fill="none" xmlns="http://www.w3.org/2000/svg">
<g clip-path="url(#clip0_2843_19718)">
<path d="M14.3727 27.9747C14.372 27.1777 14.6078 26.3984 15.0501 25.7354C15.4924 25.0724 16.1215 24.5556 16.8576 24.2502C17.5938 23.9448 18.404 23.8646 19.1858 24.0198C19.9675 24.1749 20.6856 24.5585 21.2493 25.1219C21.813 25.6853 22.197 26.4033 22.3525 27.185C22.5081 27.9666 22.4283 28.7769 22.1233 29.5132C21.8183 30.2495 21.3017 30.8788 20.6389 31.3215C19.9762 31.7641 19.197 32.0003 18.4 32C17.3328 31.9981 16.3099 31.5734 15.5551 30.819C14.8003 30.0646 14.3752 29.0418 14.3727 27.9747ZM9.66669 10.9147C16.3167 10.7 22.2054 6.52867 27.6407 0L27.6667 10.7067C21.6667 17.8667 15.6667 20.1567 9.66669 20.27V10.9147Z" fill="#1F1F48"/>
<path d="M22.3166 11.7293V21.0847C15.6726 21.2993 9.78931 25.4713 4.35865 31.9993L4.33331 21.2927C10.328 14.136 16.3226 11.8427 22.3166 11.7293Z" fill="#AFB2AE"/>
</g>
<defs>
<clipPath id="clip0_2843_19718">
<rect width="32" height="32" fill="white"/>
</clipPath>
</defs>
</svg>
