<svg width="32" height="36" viewBox="0 0 32 36" fill="none" xmlns="http://www.w3.org/2000/svg">
<path d="M12.7306 0.377044C13.8618 0.120333 15.025 0.00802221 16.1842 0C17.1388 0.0441222 18.0975 0.128355 19.0361 0.328911C19.8102 0.501388 20.5884 0.677877 21.3385 0.938599C22.0284 1.16723 22.6862 1.47208 23.34 1.78494C24.3749 2.33045 25.3456 2.99229 26.2561 3.73033C27.2508 4.54057 28.1333 5.47917 28.8834 6.51805C29.3085 7.10768 29.7297 7.70132 30.0666 8.34711C30.7405 9.5705 31.2299 10.8942 31.5347 12.2579C31.8516 13.5214 32 14.825 32 16.1287C31.9479 17.2117 31.8195 18.2906 31.5548 19.3416C31.29 20.5529 30.8849 21.7362 30.3274 22.8473C29.7658 23.9744 29.0438 25.0133 28.2496 25.9839C28.4582 26.1404 28.6908 26.2727 28.8553 26.4773C29.12 26.8183 29.3888 27.1793 29.473 27.6125C29.5011 27.793 29.6014 27.9775 29.5452 28.162C29.4931 28.3505 29.477 28.5511 29.3807 28.7235C28.6467 30.0793 28.037 31.4992 27.3712 32.8911C27.1145 33.4486 26.8016 33.9821 26.4085 34.4554C26.2441 34.6439 26.0315 34.7763 25.8269 34.9167C25.1049 35.2897 24.3107 35.4782 23.5205 35.6387C23.1074 35.7029 22.6782 35.7831 22.261 35.6748C21.7837 35.5544 21.2703 35.4903 20.8571 35.2015C20.6446 35.045 20.4079 34.9046 20.2475 34.688C20.1031 34.4915 19.9466 34.299 19.8544 34.0743C19.4131 33.9059 18.9679 33.7535 18.5106 33.6411C17.1188 33.3443 15.6628 33.3483 14.2669 33.6411C13.7134 33.7815 13.1719 33.966 12.6424 34.1826C12.5261 34.3832 12.3857 34.5717 12.2453 34.7602C12.0648 35.0009 11.8081 35.1614 11.5674 35.3338C11.3548 35.4822 11.1061 35.5705 10.8534 35.6226C10.4122 35.7189 9.96699 35.8633 9.50972 35.7871C8.89201 35.7069 8.28233 35.5585 7.68467 35.382C7.39186 35.2737 7.07097 35.2055 6.81827 35.0049C6.59365 34.8445 6.37304 34.672 6.1765 34.4755C5.83555 34.0824 5.62697 33.605 5.36625 33.1598C4.60815 31.8041 3.85005 30.4483 3.09196 29.0926C3.00772 28.9201 2.99168 28.7235 2.93953 28.539C2.89541 28.3906 2.94354 28.2382 2.97563 28.0938C3.03179 27.8652 3.0719 27.6285 3.17218 27.4079C3.27647 27.1552 3.45295 26.9466 3.60939 26.73C3.72972 26.5656 3.89418 26.4492 4.05863 26.3329C3.63345 25.8556 3.24438 25.3502 2.87536 24.8287C1.72818 23.2363 0.909913 21.4113 0.480725 19.498C0.248081 18.5634 0.0876367 17.6088 0.0395034 16.6461C-0.052752 15.8278 0.0354924 15.0096 0.111703 14.1953C0.199948 13.349 0.396492 12.5227 0.601058 11.6964C0.962058 10.3085 1.52762 8.97285 2.2777 7.74946C2.95157 6.67448 3.71769 5.65165 4.61618 4.74915C5.40235 3.94693 6.29683 3.26103 7.22741 2.63129C8.42673 1.82906 9.75039 1.20734 11.1302 0.782166C11.6557 0.621721 12.1932 0.501388 12.7306 0.377044ZM14.7442 0.701944C13.6412 0.790188 12.5542 1.01882 11.4912 1.32768C10.1074 1.74082 8.78773 2.35452 7.58439 3.14872C6.57761 3.81456 5.63098 4.58068 4.8047 5.46313C3.97841 6.34156 3.25641 7.32027 2.64672 8.35915C1.92071 9.61462 1.38724 10.9784 1.06635 12.3903C0.893869 13.1003 0.769525 13.8263 0.709359 14.5523C0.653203 15.2342 0.589024 15.9241 0.673258 16.61C0.729413 17.7852 0.954035 18.9525 1.27492 20.0836C1.97286 22.5304 3.34867 24.7565 5.14163 26.5535C4.87289 26.6017 4.60815 26.6859 4.39556 26.8624C3.9022 27.2154 3.62142 27.805 3.55724 28.3986C3.57329 28.5791 3.62142 28.7596 3.7217 28.9161C4.58409 30.4603 5.45048 32.0006 6.30886 33.5449C6.42518 33.7655 6.55755 33.9821 6.75008 34.1425C6.93861 34.303 7.12312 34.4714 7.34373 34.5838C8.08177 34.8806 8.85591 35.0771 9.6461 35.1654C10.0392 35.1934 10.4202 35.0892 10.7973 34.9929C11.3949 34.8044 11.8763 34.3311 12.133 33.7655C12.1571 33.6692 12.2654 33.6532 12.3456 33.6131C13.0957 33.3122 13.8698 33.0555 14.668 32.9232C16.0238 32.6905 17.4236 32.7346 18.7633 33.0555C19.3129 33.1959 19.8504 33.3764 20.3718 33.593C20.5082 34.1546 20.9654 34.5838 21.4829 34.8124C21.7556 34.9287 22.0484 34.9849 22.3372 35.049C22.6942 35.1333 23.0592 35.0691 23.4122 35.017C24.1222 34.8926 24.8201 34.6961 25.4699 34.3872C25.7066 34.2629 25.9151 34.0864 26.0716 33.8698C26.3604 33.4967 26.581 33.0796 26.7856 32.6544C27.4073 31.3628 27.9769 30.0472 28.6387 28.7757C28.755 28.539 28.9235 28.3144 28.9355 28.0376C28.9114 27.8451 28.8513 27.6566 28.767 27.4801C28.5585 27.0429 28.2255 26.6458 27.7763 26.4492C27.5597 26.373 27.3311 26.3249 27.1024 26.3048C27.6319 25.7633 28.1092 25.1737 28.5504 24.556C29.2644 23.5652 29.8541 22.4822 30.3033 21.3431C30.7325 20.2441 31.0213 19.0889 31.1978 17.9256C31.286 17.3681 31.3141 16.8025 31.3622 16.245C31.3703 14.9694 31.2419 13.6859 30.9411 12.4425C30.6402 11.1108 30.1549 9.8232 29.4971 8.62789C29.3767 8.37118 29.2163 8.13853 29.0679 7.89787C28.3058 6.69855 27.4033 5.58747 26.3484 4.64085C25.4539 3.84264 24.4752 3.13267 23.4202 2.55508C23.1996 2.40265 22.9469 2.30639 22.7063 2.19006C21.3986 1.54026 19.9827 1.12712 18.5467 0.87041C17.7927 0.734032 17.0305 0.681888 16.2684 0.637766C15.759 0.621721 15.2536 0.665844 14.7442 0.701944Z" fill="#E8651D"/>
<path d="M13.0397 1.50006C13.9703 1.30753 14.9169 1.22731 15.8676 1.1872C16.3088 1.17516 16.75 1.2233 17.1912 1.25137C19.5538 1.43187 21.8642 2.20201 23.8737 3.45748C25.9154 4.73302 27.6442 6.50993 28.8475 8.59972C29.4572 9.65063 29.9305 10.7778 30.2594 11.949C30.6445 13.3168 30.8129 14.7447 30.8089 16.1607C30.7608 16.8706 30.7127 17.5846 30.5843 18.2865C30.1672 20.7333 29.1002 23.0598 27.5319 24.9811C26.6775 26.032 25.6747 26.9666 24.5677 27.7528C24.3912 27.8811 24.1946 27.9894 24.0342 28.1378C24.4313 28.1298 24.8123 28.0175 25.1934 27.9292C25.5183 27.841 25.8432 27.7407 26.1601 27.6324C26.2563 27.4399 26.3446 27.2474 26.4449 27.0548C26.4689 26.9987 26.5371 26.9826 26.5893 26.9626C26.9182 26.8382 27.3072 26.8182 27.6241 26.9906C27.9651 27.1671 28.1857 27.5041 28.3261 27.853C28.3582 27.9413 28.4143 28.0416 28.3541 28.1298C27.6843 29.3732 27.1107 30.6648 26.513 31.9403C26.3125 32.3535 26.128 32.7706 25.8913 33.1637C25.7148 33.4445 25.5223 33.7453 25.2175 33.8978C24.5115 34.2267 23.7534 34.4513 22.9752 34.5235C22.5541 34.5756 22.1289 34.4754 21.7398 34.3229C21.3548 34.1665 21.0018 33.8617 20.9015 33.4445C20.8654 33.3402 20.8774 33.1918 20.7491 33.1557C19.6099 32.6704 18.3946 32.3495 17.1591 32.2572C15.306 32.1088 13.4409 32.522 11.7482 33.272C11.6278 33.5769 11.4794 33.8857 11.2347 34.1104C10.8497 34.4834 10.2961 34.6077 9.77871 34.6198C9.04468 34.5797 8.32669 34.3791 7.6448 34.1144C7.43221 34.0301 7.27578 33.8617 7.1033 33.7173C6.94286 33.5849 6.85862 33.3924 6.75835 33.2159C5.9842 31.828 5.20605 30.4402 4.43191 29.0483C4.33163 28.8438 4.18723 28.6593 4.11503 28.4427C4.11904 28.1659 4.24338 27.9012 4.38778 27.6685C4.59636 27.3356 4.96538 27.0989 5.36248 27.0829C5.55502 27.0709 5.73953 27.127 5.92003 27.1872C5.97217 27.3597 6.03234 27.5321 6.0925 27.7046C6.58988 27.8811 7.08726 28.0496 7.58464 28.2261C7.70096 28.2662 7.81728 28.3143 7.93761 28.3384C8.01783 28.3223 8.09003 28.2782 8.16223 28.2421C6.13261 26.9706 4.40383 25.2137 3.19649 23.144C2.0814 21.2427 1.40352 19.0848 1.2511 16.8867C1.24308 16.6941 1.22703 16.5056 1.20698 16.3131C1.1789 15.7475 1.21901 15.186 1.26714 14.6244C1.4677 12.1656 2.32206 9.76695 3.7059 7.7253C5.00549 5.79997 6.76637 4.19553 8.79599 3.06841C10.1156 2.33437 11.5556 1.8009 13.0397 1.50006ZM13.9823 1.82095C11.7281 2.13382 9.5581 3.00022 7.70096 4.31185C6.1286 5.41891 4.78488 6.84687 3.77409 8.4834C2.55471 10.4488 1.83672 12.7272 1.70435 15.0375C1.70435 15.4507 1.6482 15.8638 1.68831 16.281C1.73644 17.9095 2.07739 19.53 2.68306 21.0422C3.62968 23.4087 5.23814 25.5025 7.26375 27.0468C7.70497 27.3918 8.17828 27.6846 8.64758 27.9934C8.70774 27.9734 8.77192 27.9533 8.83209 27.9333C8.82808 27.8972 8.82407 27.8651 8.82407 27.829C8.39488 27.5963 8.00179 27.3115 7.60469 27.0227C6.50164 26.2005 5.51892 25.2177 4.70065 24.1107C3.06011 21.9005 2.08942 19.1931 1.99315 16.4374C1.97711 16.1286 1.96107 15.8197 1.98914 15.5109C2.03326 13.5615 2.51059 11.6281 3.36495 9.87926C4.43993 7.66112 6.11657 5.74381 8.16223 4.37202C10.256 2.96011 12.7349 2.1258 15.2579 2.00145C15.6309 1.99343 16.0039 1.94931 16.377 1.98942C17.7408 2.01349 19.1005 2.25014 20.3961 2.67532C23.8537 3.79041 26.8299 6.30537 28.4985 9.5303C29.9867 12.3581 30.4319 15.7114 29.742 18.828C29.4692 20.0915 29.016 21.3109 28.3983 22.4461C27.2551 24.5679 25.5464 26.3769 23.5047 27.6605C23.5488 27.7046 23.593 27.7487 23.6411 27.7929C24.5436 27.2273 25.3859 26.5574 26.14 25.8034C27.8367 24.1227 29.0962 22.0008 29.758 19.7065C30.123 18.4229 30.3075 17.0912 30.3075 15.7595C30.2795 15.2782 30.2835 14.7929 30.2193 14.3155C29.9786 12.1014 29.1965 9.95146 27.9651 8.09833C26.6133 6.05267 24.7241 4.37202 22.542 3.25292C19.9348 1.91321 16.8984 1.4038 13.9823 1.82095ZM12.065 2.61515C9.73058 3.29704 7.58464 4.60867 5.89997 6.36554C4.09497 8.24273 2.82345 10.6334 2.31404 13.1924C1.94101 15.0496 1.94903 16.9869 2.36218 18.8401C2.65499 20.1597 3.13632 21.4313 3.79815 22.6105C4.99747 24.7484 6.77038 26.5534 8.87621 27.8009C8.94841 27.849 9.04067 27.849 9.1249 27.8611C9.13292 27.7688 9.1971 27.6645 9.13292 27.5843C9.04067 27.464 8.89627 27.4078 8.7639 27.3476C8.49516 27.2353 8.26652 27.0508 8.03388 26.8783C7.64079 26.5855 7.23567 26.3047 6.83857 26.02C6.86264 25.9478 6.88269 25.8715 6.90275 25.7953C6.62598 25.6389 6.35323 25.4744 6.10053 25.2779C5.80772 25.0493 5.60716 24.7204 5.47479 24.3794C5.41062 24.215 5.27825 24.0946 5.15792 23.9703C4.88917 23.7015 4.60037 23.4488 4.3557 23.156C4.43592 23.1119 4.51614 23.0598 4.60438 23.0437C4.70466 23.0196 4.82499 23.0317 4.89719 22.9474C4.56828 22.6867 4.28751 22.3698 4.0669 22.0129C3.64974 21.355 3.4171 20.605 3.08417 19.903C3.00395 19.7265 2.89966 19.5661 2.82345 19.3856C2.97587 19.3736 3.13231 19.3776 3.28473 19.3816C3.18445 19.181 3.03604 19.0085 2.93576 18.804C2.80741 18.4911 2.72317 18.1662 2.659 17.8373C2.49053 16.999 2.53866 16.1366 2.53465 15.2862C2.59081 15.3023 2.64295 15.3223 2.69911 15.3384C2.75526 14.8891 2.72719 14.4359 2.70713 13.9866C2.70312 13.8222 2.68707 13.6537 2.73922 13.4973C2.88763 13.0039 3.08016 12.5266 3.20451 12.0252C3.26869 11.8126 3.20451 11.5599 3.37297 11.3874C3.43715 11.4035 3.50534 11.4155 3.56952 11.4316C3.60963 10.9542 3.67381 10.4649 3.87035 10.0197C4.05887 9.59448 4.3557 9.22947 4.65653 8.8805C4.74477 8.78423 4.79692 8.6639 4.86109 8.54758C4.98143 8.55159 5.10176 8.54758 5.22209 8.53554C5.21808 8.47939 5.21407 8.42724 5.21006 8.37109C5.25418 8.34301 5.31435 8.31894 5.31836 8.25878C5.38254 8.0141 5.48282 7.77343 5.62321 7.56084C6.03234 6.9311 6.65406 6.47785 7.05116 5.84008C7.12737 5.84409 7.20358 5.8481 7.27979 5.85211C7.356 6.08075 7.42419 6.30938 7.50441 6.53801C7.68491 6.3896 7.83733 6.2091 8.02185 6.0647C8.30262 5.83206 8.63554 5.6315 9.00858 5.63551C9.06473 5.96041 8.92033 6.27729 8.71176 6.51796C8.57538 6.69445 8.37482 6.83885 8.3307 7.06748C8.56736 7.07149 8.81604 7.06347 9.02462 7.19583C8.85616 7.35227 8.62351 7.42848 8.49115 7.62502C8.09806 8.17053 7.66085 8.68797 7.1755 9.15325C7.03511 9.26557 7.05517 9.46211 6.98698 9.61052C6.82253 10.0197 6.58186 10.3967 6.32916 10.7577C6.04838 11.1508 5.75958 11.5399 5.42265 11.8848C5.43869 11.945 5.45875 12.0052 5.48282 12.0653C5.26221 12.675 5.13786 13.3128 4.99747 13.9425C4.91725 14.3476 4.81697 14.7528 4.75681 15.1619C4.78889 15.1659 4.85708 15.1779 4.88917 15.186C4.76884 15.7194 4.79692 16.273 4.85307 16.8145C4.91725 17.4282 4.97341 18.0459 4.93731 18.6636C4.99346 18.6917 5.08973 18.6796 5.09775 18.7639C5.45875 20.1196 5.96415 21.4593 6.8145 22.5905C6.99901 22.8552 7.23968 23.0798 7.40012 23.3646C7.59266 23.6855 7.78118 24.0184 8.06196 24.2751C8.52724 24.6843 9.10484 24.957 9.52601 25.4143C10.0073 25.8876 10.4044 26.4451 10.6973 27.0548C11.1866 26.9626 11.6399 26.7379 12.1292 26.6256C13.4449 26.3248 14.7886 26.1323 16.1403 26.1283C17.6445 26.1042 19.1406 26.3007 20.6087 26.6096C20.9296 26.0881 21.431 25.7231 21.8 25.2418C21.9805 25.2137 22.173 25.1856 22.3214 25.0693C22.4899 24.949 22.5862 24.7605 22.6784 24.584C22.7827 24.604 22.887 24.6401 22.9953 24.6321C23.264 24.4677 23.3683 24.1428 23.597 23.9342C23.7133 23.8179 23.8657 23.7577 24.0181 23.7176C24.0743 23.2603 24.4874 22.9474 24.5396 22.4862C24.5997 22.4862 24.6599 22.4902 24.7201 22.4942C24.7241 22.5223 24.7321 22.5784 24.7321 22.6065C24.7522 22.6225 24.7883 22.6546 24.8083 22.6667C25.0209 22.43 25.1773 22.1452 25.2415 21.8324C25.3017 21.8043 25.406 21.8203 25.418 21.7361C25.5544 21.347 25.7549 20.982 25.8111 20.5689C25.9074 20.4886 25.9956 20.4004 26.0518 20.2841C26.2122 19.9712 26.3165 19.6303 26.4168 19.2933C26.6213 18.5553 26.7898 17.8052 26.874 17.0431C26.9061 17.0391 26.9783 17.0311 27.0104 17.0271C27.0184 16.7142 26.9462 16.4093 26.8981 16.1005C26.9623 16.0885 27.0225 16.0724 27.0866 16.0604C27.0666 15.6071 26.9342 15.1619 27.0104 14.7086C26.9623 14.123 26.8179 13.5454 26.6053 12.9999C26.6574 12.9798 26.7096 12.9638 26.7617 12.9438C26.7617 12.659 26.5652 12.4384 26.3927 12.2338C26.4689 12.2137 26.5451 12.1937 26.6213 12.1736C26.3366 11.4516 25.8953 10.8098 25.5022 10.148C25.5303 10.0919 25.5624 10.0317 25.5905 9.97553C25.2977 9.7469 25.057 9.46211 24.8364 9.16529C24.8645 9.12919 24.8926 9.09309 24.9206 9.05298C24.6358 8.67994 24.2347 8.42323 23.8577 8.1585C23.8336 8.04619 23.8256 7.91783 23.7414 7.82959C23.609 7.68118 23.4245 7.60096 23.2681 7.48463C23.264 7.39639 23.2921 7.2921 23.2279 7.2199C23.0234 6.92709 22.6945 6.76263 22.3936 6.59417C22.4097 6.57411 22.4378 6.52999 22.4538 6.50592C22.2573 6.27328 21.9725 6.15295 21.6917 6.05267C21.6917 6.01657 21.6917 5.97646 21.6917 5.94036C21.812 5.86415 21.9324 5.78393 22.0487 5.69969C21.9604 5.35875 21.6035 5.17424 21.5353 4.82527C21.8441 4.80923 22.1369 4.91352 22.4337 4.97769C22.3976 4.78917 22.3656 4.60065 22.3495 4.40812C22.6905 4.46828 22.9472 4.71296 23.232 4.88544C23.2881 4.79318 23.3403 4.70093 23.3884 4.60466C23.4887 4.66081 23.5849 4.72499 23.6692 4.80521C24.0903 5.20231 24.4553 5.65156 24.8324 6.08877C24.9046 6.19707 25.041 6.16498 25.1533 6.16899C25.3097 6.52598 25.5424 6.89901 25.9395 7.02336C26.0718 7.38436 26.2764 7.70926 26.4689 8.04218C26.5451 8.05822 26.6213 8.07427 26.6976 8.0863C26.8099 8.45532 26.9061 8.91259 27.3032 9.07704C27.3634 9.45008 27.5038 9.80706 27.6843 10.14C27.7605 10.144 27.8327 10.148 27.9089 10.152C28.0292 10.4769 28.1576 10.7978 28.2258 11.1388C28.298 11.1428 28.3662 11.1468 28.4384 11.1508C28.4384 11.5519 28.4624 11.953 28.5427 12.3461C28.5988 12.3501 28.659 12.3581 28.7151 12.3621C28.7633 12.7673 28.7954 13.1764 28.8234 13.5855C28.8836 13.5895 28.9478 13.5936 29.008 13.5936C29.008 14.0147 29.008 14.4359 29.008 14.853C29.0761 14.8651 29.1483 14.8771 29.2205 14.8891C29.1844 15.3544 29.1042 15.8157 29.0681 16.281C29.1203 16.293 29.1724 16.3051 29.2246 16.3171C29.1483 16.7102 29.0441 17.0952 28.9919 17.4923C29.02 17.5044 29.0721 17.5244 29.1002 17.5325C29.0641 17.6849 29.008 17.8333 28.9598 17.9857C28.8555 18.2825 28.7873 18.5914 28.7151 18.8962C28.7633 18.9123 28.8154 18.9283 28.8676 18.9444C28.7873 19.3294 28.6149 19.6944 28.4103 20.0314C28.298 20.1878 28.3742 20.3884 28.31 20.5608C28.1375 21.0703 27.8287 21.5195 27.5479 21.9727C27.3393 22.2976 27.1147 22.6226 27.0024 22.9996C27.0265 23.0156 27.0746 23.0477 27.0987 23.0678C26.5772 23.7537 26.0478 24.4356 25.426 25.0332C25.3578 25.0854 25.422 25.1696 25.426 25.2338C25.1773 25.5627 24.8284 25.7953 24.4513 25.9518C24.4794 26.024 24.5155 26.0962 24.5436 26.1684C24.2748 26.3609 23.962 26.4772 23.6932 26.6657C23.6411 26.754 23.6652 26.8703 23.6491 26.9706C23.4084 27.135 23.1598 27.2875 22.895 27.4078C22.9391 27.4559 22.9833 27.5081 23.0394 27.5482C23.1798 27.5602 23.3322 27.5001 23.4606 27.5883C25.0089 26.6337 26.3526 25.3541 27.4155 23.882C28.9839 21.708 29.8984 19.0607 29.9867 16.3813C30.0428 14.9012 29.8543 13.409 29.4331 11.9851C28.7071 9.51024 27.2551 7.26001 25.3258 5.55128C23.4044 3.84255 21.0058 2.67933 18.4708 2.2341C16.3529 1.88513 14.1388 2.00145 12.065 2.61515ZM22.5661 4.59664C22.5781 4.82928 22.6142 5.10204 22.8509 5.21435C22.891 5.15819 22.8669 5.00978 22.9592 5.01379C23.0715 5.1261 23.1517 5.26649 23.2801 5.35875C23.26 4.96967 22.9191 4.68488 22.5661 4.59664ZM21.7438 4.97769C21.8561 5.3066 22.1249 5.55529 22.4297 5.71172C22.4899 5.75184 22.5621 5.72777 22.6263 5.72376C22.4498 5.53123 22.2131 5.39886 22.0326 5.21034C22.2853 5.23039 22.51 5.36276 22.7466 5.44699C22.8148 5.47507 22.891 5.47908 22.9672 5.46705C22.6744 5.10204 22.1891 4.96967 21.7438 4.97769ZM23.4566 4.96165C23.4606 5.1983 23.5087 5.43897 23.609 5.65557C23.6291 5.71975 23.6932 5.74381 23.7414 5.77991C23.7093 5.62749 23.6652 5.47908 23.6451 5.32666C23.7895 5.46304 23.8697 5.67161 24.0663 5.75184C24.0623 5.65958 24.0743 5.5593 24.0302 5.47507C23.9098 5.24243 23.6852 5.08599 23.4566 4.96165ZM22.891 5.65156C22.875 6.09679 23.2681 6.40565 23.621 6.60219C23.5288 6.34949 23.3804 6.12086 23.252 5.88019C23.4325 5.97646 23.617 6.09679 23.8296 6.07272C23.7253 5.89624 23.5609 5.75184 23.3643 5.69167C23.2079 5.65958 23.0474 5.65958 22.891 5.65156ZM24.2789 5.78794C24.2708 6.02058 24.2588 6.24921 24.2668 6.48186C24.323 6.48988 24.3831 6.4979 24.4433 6.50592C24.4393 6.37757 24.4353 6.24921 24.4353 6.12086C24.6158 6.2452 24.684 6.48587 24.8845 6.58214C24.8324 6.26125 24.5917 6.02459 24.3952 5.78794C24.3551 5.78392 24.319 5.78392 24.2789 5.78794ZM21.9965 5.92832C21.9965 5.98448 21.9965 6.04465 21.9965 6.1008C22.1409 6.18103 22.2613 6.3535 22.4458 6.32141C22.526 6.3174 22.6022 6.29334 22.6784 6.27328C22.5621 6.19306 22.4217 6.16097 22.2974 6.09679C22.4338 6.04465 22.5701 6.00454 22.7065 5.9564C22.4939 5.80799 22.2131 5.77991 21.9965 5.92832ZM7.99778 6.39762C8.17026 6.32141 8.33872 6.22916 8.51922 6.16899C8.439 6.38559 8.2946 6.5701 8.20636 6.7867C8.5834 6.64631 8.75588 6.2452 8.84412 5.88019C8.53126 5.98849 8.1502 6.06871 7.99778 6.39762ZM6.86264 6.39762C6.46955 6.83483 6.03234 7.23996 5.71947 7.73733C5.59914 7.92586 5.51089 8.13844 5.45875 8.35906C5.47881 8.35906 5.5149 8.36307 5.53496 8.36708C5.55502 8.28284 5.57106 8.19861 5.59112 8.11438C5.66332 8.1224 5.7315 8.12641 5.8037 8.13443C5.97618 7.92586 6.15668 7.72129 6.33317 7.52073C6.60593 7.21589 6.93082 6.96319 7.29584 6.77868C7.28781 6.55406 7.31188 6.29334 7.15946 6.11284C7.03511 6.173 6.9589 6.29735 6.86264 6.39762ZM22.7346 6.4979C22.7225 6.534 22.7025 6.60219 22.6945 6.63829C22.9592 6.86291 23.2039 7.13166 23.5448 7.24397C23.6732 7.2921 23.8136 7.27205 23.9339 7.20787C23.7333 7.02336 23.4726 6.9311 23.24 6.79472C23.3603 6.77467 23.4847 6.76263 23.605 6.73055C23.4726 6.62626 23.3282 6.52598 23.1598 6.48186C23.0194 6.44175 22.875 6.47383 22.7346 6.4979ZM23.8858 6.50191C23.9339 6.64631 23.9941 6.7867 24.0663 6.92308C24.1345 7.05946 24.2267 7.20787 24.3992 7.21589C24.343 7.06347 24.2347 6.94313 24.1425 6.81077C24.331 6.92308 24.4874 7.0755 24.6679 7.20386C24.7401 7.26402 24.8364 7.26402 24.9246 7.28007C24.9126 7.13567 24.8524 6.99127 24.7321 6.89901C24.4914 6.69846 24.1946 6.56208 23.8858 6.50191ZM25.061 7.25199C25.0891 7.3282 25.1773 7.34826 25.2415 7.38837C25.2295 7.24798 25.2054 7.1116 25.1733 6.97923C25.2215 6.98325 25.2656 6.98325 25.3137 6.98726C25.4341 7.19182 25.4902 7.44452 25.6787 7.60096C25.6908 7.28007 25.5424 6.97121 25.3538 6.71851C25.2897 6.62626 25.1894 6.5701 25.0891 6.52197C25.049 6.75862 24.9567 7.01533 25.061 7.25199ZM6.93484 7.19182C6.58186 7.50469 6.24091 7.84563 5.98821 8.24674C5.89997 8.38312 5.8398 8.53554 5.80771 8.69198C5.94008 8.63983 6.07245 8.57967 6.18476 8.49142C6.57384 8.19059 6.7784 7.72129 7.16748 7.42046C7.22765 7.36831 7.31188 7.39238 7.38408 7.38035C7.21561 7.62502 6.98297 7.81354 6.78643 8.03817C6.4896 8.36708 6.17674 8.72808 6.10855 9.18133C6.33317 9.0971 6.53373 8.95671 6.71824 8.8083C6.93082 8.64384 7.04314 8.39114 7.23567 8.20663C7.50842 7.96196 7.65282 7.617 7.78519 7.28408C7.8614 7.0755 7.9336 6.86291 7.93761 6.63829C7.54853 6.69846 7.22765 6.95116 6.93484 7.19182ZM8.01382 7.26001C7.88146 7.5087 7.72502 7.74937 7.5726 7.98602C7.40413 8.25878 7.21962 8.53554 7.15143 8.85242C7.22363 8.8083 7.29182 8.75615 7.356 8.69599C7.7531 8.32697 8.07399 7.88976 8.42296 7.47661C8.47911 7.40842 8.52323 7.33221 8.55532 7.25199C8.37482 7.23996 8.19432 7.24798 8.01382 7.26001ZM23.5167 7.44051C23.6291 7.71728 23.8938 7.89778 24.1706 7.99003C24.2588 8.03015 24.339 7.96998 24.4112 7.92184C24.2548 7.79349 24.0663 7.70926 23.8858 7.62502C24.0703 7.61299 24.2548 7.62502 24.4393 7.62903C24.3751 7.52876 24.2949 7.44452 24.2147 7.35628C23.978 7.37232 23.7494 7.41243 23.5167 7.44051ZM24.7201 7.44452C24.7642 7.80151 24.9808 8.10234 25.2175 8.35906C25.2977 8.11438 25.069 7.93789 24.9808 7.73733C25.1894 7.80151 25.3258 7.96998 25.4621 8.13042C25.5063 8.13042 25.5544 8.13042 25.5985 8.13042C25.5223 7.96998 25.4421 7.80552 25.3017 7.6892C25.1372 7.54881 24.9246 7.50068 24.7201 7.44452ZM25.8833 7.4726C25.8673 7.67717 25.8753 7.88173 25.8993 8.0863C25.9314 8.07828 25.9876 8.06223 26.0197 8.05421C26.1801 8.15449 26.2122 8.35906 26.3325 8.49142C26.3526 8.41521 26.3767 8.33499 26.3526 8.25878C26.3005 8.00608 26.1681 7.77343 26.0317 7.55683C26.0076 7.49667 25.9354 7.49266 25.8833 7.4726ZM24.2508 8.18257C24.3992 8.58368 24.7802 8.81632 25.1132 9.04897C25.1974 9.12117 25.3137 9.09309 25.414 9.09309C25.2215 8.89253 24.9567 8.77621 24.7522 8.5917C24.9728 8.60373 25.1653 8.71604 25.3538 8.8083C25.3578 8.73209 25.418 8.63181 25.3458 8.57164C25.045 8.31092 24.6519 8.15048 24.2508 8.18257ZM25.5624 8.4112C25.5985 8.64384 25.6667 8.8805 25.8151 9.06501C25.8472 9.11314 25.9074 9.12919 25.9555 9.15325C25.9114 8.9888 25.8191 8.84039 25.7509 8.68395C25.9314 8.78022 26.0317 8.98479 26.2403 9.03292C26.2242 8.67994 25.8793 8.47538 25.5624 8.4112ZM26.5532 8.49142C26.4689 8.78824 26.4208 9.12518 26.5852 9.40595C26.6213 9.30167 26.6454 9.19738 26.6615 9.08908C26.6855 9.08908 26.7337 9.08908 26.7617 9.08908C26.7818 9.20941 26.8139 9.32974 26.9142 9.40997C26.9382 9.07704 26.854 8.67994 26.5532 8.49142ZM4.3196 9.55035C4.05887 10.0638 3.85431 10.6093 3.77409 11.1829C3.86233 11.1749 3.95057 11.1708 4.03882 11.1628C4.23536 10.5652 4.65653 10.0798 4.92126 9.51024C5.03758 9.26958 5.07368 9.00083 5.05764 8.7361C4.69664 8.8805 4.49608 9.22947 4.3196 9.55035ZM5.59914 9.14924C5.15391 9.5664 4.76082 10.0477 4.45597 10.5772C4.30355 10.862 4.1391 11.1829 4.19525 11.5158C4.21531 11.576 4.21932 11.6762 4.30355 11.6803C4.72472 11.0706 4.90923 10.3325 5.31836 9.71481C5.35045 9.66668 5.39457 9.63058 5.43869 9.59448C5.49485 9.85921 5.4066 10.1239 5.27424 10.3526C5.04159 10.7577 4.78087 11.1468 4.65252 11.6C4.63647 11.7444 4.65653 11.8928 4.68461 12.0372C4.92126 11.8969 5.0456 11.6482 5.16995 11.4155C5.4788 10.8139 5.69942 10.1681 5.87992 9.51826C5.94008 9.30568 5.98019 9.08507 5.99223 8.86445C5.85585 8.93665 5.71947 9.03292 5.59914 9.14924ZM25.1212 9.23348C25.2295 9.5303 25.4661 9.75091 25.7068 9.93943C25.779 10.0036 25.8793 10.0036 25.9675 10.0076C25.7991 9.80707 25.5664 9.67069 25.398 9.47013C25.6426 9.5303 25.8071 9.76294 26.0678 9.77096C26.0758 9.64261 26.0397 9.51024 25.9314 9.43403C25.7028 9.25353 25.398 9.25353 25.1212 9.23348ZM26.2323 9.30167C26.2202 9.63058 26.3085 9.95949 26.485 10.2363C26.5171 10.2924 26.5732 10.3325 26.6213 10.3726C26.6454 10.136 26.5291 9.92339 26.4328 9.71481C26.6615 9.75893 26.6976 10.0678 26.9101 10.128C26.7898 9.78701 26.5612 9.46612 26.2323 9.30167ZM27.1508 9.49019C27.0987 9.84316 27.1267 10.2042 27.1468 10.5612C27.1829 10.5732 27.2511 10.6013 27.2872 10.6173C27.2832 10.4849 27.2792 10.3526 27.2752 10.2242C27.3233 10.2242 27.3714 10.2242 27.4236 10.2242C27.4396 10.3606 27.4557 10.497 27.4837 10.6293C27.5038 10.5772 27.5359 10.5291 27.5319 10.4689C27.5238 10.2002 27.4035 9.95146 27.3032 9.70679C27.2671 9.62255 27.207 9.55437 27.1508 9.49019ZM6.09652 9.68272C5.90398 9.87926 5.95613 10.1841 5.82777 10.4127C5.66332 10.7096 5.48282 11.0104 5.45073 11.3554C5.5149 11.3754 5.57908 11.3955 5.63925 11.4155C6.0925 10.8459 6.41339 10.1841 6.71021 9.52228C6.50164 9.55838 6.26899 9.55436 6.09652 9.68272ZM25.7549 10.2162C25.8151 10.497 25.9956 10.7336 26.2283 10.9021C26.3807 11.0064 26.5331 11.1388 26.7296 11.1428C26.6414 10.8861 26.3887 10.7537 26.2162 10.5652C26.3486 10.5772 26.485 10.6013 26.6173 10.6173C26.5251 10.4769 26.3887 10.3686 26.2443 10.2844C26.0959 10.1881 25.9194 10.2082 25.7549 10.2162ZM26.9101 10.5331C26.9021 10.862 26.9663 11.2029 27.1428 11.4837C27.1989 11.2631 27.0947 11.0465 27.0706 10.8299C27.1107 10.7978 27.1548 10.7657 27.1949 10.7296C27.1107 10.6534 27.0144 10.5852 26.9101 10.5331ZM27.7445 10.521C27.6883 10.7938 27.6482 11.0746 27.6883 11.3513C27.7605 11.2952 27.8367 11.239 27.9129 11.1829C27.9169 11.3193 27.9169 11.4516 27.925 11.588C27.953 11.572 28.0092 11.5399 28.0373 11.5238C28.1014 11.1869 27.9891 10.85 27.8728 10.5371C27.8407 10.5331 27.7765 10.5251 27.7445 10.521ZM27.207 10.866C27.219 10.9382 27.231 11.0064 27.2471 11.0786C27.3032 11.0625 27.3594 11.0505 27.4155 11.0345C27.3474 10.9743 27.2752 10.9181 27.207 10.866ZM26.3606 11.2029C26.4649 11.6401 26.7176 12.1014 27.1588 12.2699C27.1749 11.937 26.842 11.7645 26.6534 11.5399C26.7657 11.572 26.87 11.6161 26.9743 11.6682C26.9944 11.6602 27.0345 11.6401 27.0545 11.6321C26.9623 11.4917 26.8861 11.3233 26.7256 11.2511C26.6053 11.219 26.481 11.215 26.3606 11.2029ZM3.45721 11.6361C3.36495 12.4263 3.01599 13.1563 2.87961 13.9385C2.8034 14.4158 2.80741 14.9413 3.06011 15.3705C3.11225 14.9012 3.06813 14.4279 3.08417 13.9586C3.08417 13.8142 3.1644 13.6858 3.22456 13.5574C3.44918 13.1002 3.68584 12.6309 3.73397 12.1175C3.76205 11.9129 3.65776 11.7003 3.45721 11.6361ZM28.0052 12.4263C28.0453 12.4103 28.1215 12.3822 28.1576 12.3662C28.2057 12.4343 28.2539 12.4985 28.314 12.5587C28.3541 12.2579 28.302 11.957 28.2097 11.6722C28.0292 11.8808 27.9891 12.1616 28.0052 12.4263ZM27.3794 11.7364C27.3594 12.0693 27.3594 12.4103 27.4476 12.7352C27.4837 12.7352 27.5559 12.7312 27.588 12.7312C27.576 12.5226 27.5439 12.318 27.5319 12.1135C27.588 12.0894 27.6442 12.0693 27.7003 12.0453C27.6562 11.8888 27.5359 11.7765 27.3794 11.7364ZM3.85431 12.4504C3.59359 12.8716 3.44919 13.3529 3.36896 13.8422C3.28874 14.3757 3.24462 14.9252 3.34891 15.4587C3.40105 15.4387 3.44918 15.4186 3.50133 15.3985C3.51336 14.5362 3.77007 13.7018 3.9947 12.8796C3.99871 12.7993 4.08695 12.7873 4.14311 12.7552C4.17921 13.1443 4.07893 13.5254 4.00272 13.9024C3.90244 14.3877 3.79815 14.8811 3.81821 15.3785C4.08294 15.2822 4.18322 14.9934 4.26344 14.7528C4.43993 14.131 4.47202 13.4772 4.49207 12.8314C4.51614 12.5106 4.51614 12.1897 4.52015 11.8688C4.23536 11.9691 4.01475 12.1977 3.85431 12.4504ZM26.6775 12.302C26.7096 12.3822 26.7256 12.4785 26.7978 12.5346C26.9262 12.6269 27.0826 12.679 27.231 12.7312C27.211 12.5908 27.1989 12.4263 27.0746 12.3381C26.9503 12.2779 26.8099 12.306 26.6775 12.302ZM27.7043 12.3301C27.7364 12.4504 27.7445 12.5908 27.8528 12.675C27.8487 12.5587 27.8327 12.4464 27.8126 12.3341C27.7846 12.3341 27.7324 12.3341 27.7043 12.3301ZM4.88115 12.4384C4.80895 12.4865 4.71268 12.5306 4.72071 12.6309C4.66455 13.1563 4.60037 13.6818 4.54021 14.2072C4.51213 14.468 4.47202 14.7287 4.48405 14.9894C4.54823 14.9413 4.61642 14.8891 4.64449 14.8089C4.78087 14.484 4.84906 14.135 4.92527 13.7941C5.02956 13.3048 5.11781 12.8114 5.19402 12.318C5.08572 12.3501 4.97742 12.3782 4.88115 12.4384ZM26.9302 12.8234C26.9503 12.8756 26.9663 12.9317 26.9944 12.9798C27.0305 13.0641 27.1348 13.036 27.207 13.0521C27.1548 12.9799 27.0987 12.9117 27.0465 12.8435C27.0144 12.8395 26.9583 12.8314 26.9302 12.8234ZM28.2819 13.6377C28.3301 13.5735 28.3782 13.5093 28.4263 13.4451C28.4665 13.4532 28.5066 13.4612 28.5467 13.4652C28.5467 13.5735 28.5467 13.6818 28.5587 13.7901C28.5908 13.746 28.6269 13.6978 28.6189 13.6417C28.6229 13.3529 28.6309 13.0601 28.5507 12.7793C28.3662 13.0159 28.1897 13.3248 28.2819 13.6377ZM26.8941 13.1804C26.9061 13.4732 26.9984 13.758 27.1428 14.0107C27.1789 14.0067 27.2551 14.0027 27.2912 13.9987C27.231 13.8342 27.1508 13.6818 27.0586 13.5374C27.0987 13.5374 27.1749 13.5374 27.215 13.5374C27.2671 13.6176 27.3113 13.6978 27.3754 13.77C27.4677 13.742 27.4877 13.6457 27.5118 13.5655C27.3554 13.3729 27.1267 13.2606 26.8941 13.1804ZM27.6763 14.3115C27.7124 14.2754 27.7685 14.2474 27.7725 14.1912C27.8247 13.9586 27.8126 13.7219 27.8207 13.4853C27.8487 13.4973 27.9009 13.5214 27.925 13.5334C28.0092 13.7059 28.0533 13.8984 28.1215 14.0789C28.1456 14.0749 28.1937 14.0669 28.2178 14.0628C28.2218 14.0027 28.2458 13.9425 28.2258 13.8823C28.1576 13.5976 27.9731 13.3529 27.7565 13.1603C27.6522 13.5294 27.564 13.9265 27.6763 14.3115ZM28.3742 14.8691C28.4183 14.8851 28.4665 14.9052 28.5106 14.9212C28.5226 14.8811 28.5387 14.841 28.5507 14.8049C28.5948 14.8169 28.6349 14.833 28.679 14.845C28.675 14.9493 28.675 15.0576 28.679 15.1619C28.9077 14.833 28.8555 14.4198 28.8395 14.0468C28.5146 14.1792 28.4103 14.5562 28.3742 14.8691ZM27.8207 15.3304C27.9611 15.186 28.0212 14.9934 28.0373 14.7969C28.0894 14.7808 28.1416 14.7608 28.1977 14.7447C28.1656 14.5562 28.1295 14.3316 27.933 14.2393C27.8808 14.6043 27.8407 14.9653 27.8207 15.3304ZM27.1709 14.3196C27.1789 14.4279 27.1628 14.5442 27.207 14.6445C27.3514 14.6806 27.4877 14.7447 27.6121 14.825C27.6121 14.7528 27.6121 14.6846 27.6121 14.6124C27.4757 14.5001 27.3353 14.3918 27.1709 14.3196ZM27.227 14.7046C27.2671 14.8651 27.2952 15.0616 27.4516 15.1499C27.4677 14.9734 27.4115 14.7608 27.227 14.7046ZM27.207 15.214C27.227 15.4667 27.2551 15.7194 27.2992 15.9681C27.3072 16.0363 27.3393 16.1005 27.3754 16.1607C27.4155 15.9962 27.3995 15.8237 27.3875 15.6593C27.5439 15.6873 27.572 15.8638 27.6562 15.9721C27.6923 15.936 27.7244 15.8959 27.7605 15.8598C27.7204 15.555 27.4918 15.3103 27.207 15.214ZM28.5026 15.7234C28.4223 15.8398 28.3943 15.9922 28.4745 16.1125C28.5306 16.0283 28.5788 15.94 28.6309 15.8518C28.6831 15.8438 28.7392 15.8398 28.7914 15.8358C28.7673 16.0122 28.7432 16.1927 28.7472 16.3732C28.9358 16.0564 28.9919 15.6713 28.9077 15.3143C28.7312 15.4066 28.6109 15.567 28.5026 15.7234ZM2.68707 15.5229C2.67504 16.0163 2.70312 16.5136 2.72317 17.007C2.7673 17.6889 2.9117 18.3748 3.22055 18.9885C3.24462 18.9925 3.29275 18.9965 3.31682 19.0005C3.26066 18.7518 3.2005 18.5072 3.1644 18.2545C3.06011 17.6127 3.12027 16.9589 3.22456 16.3171C3.2366 16.2288 3.25665 16.1326 3.22055 16.0443C3.1283 15.8117 2.97186 15.5429 2.68707 15.5229ZM3.62968 15.547C3.48127 16.2288 3.25665 16.9027 3.2727 17.6087C3.26467 18.1582 3.44116 18.6917 3.66578 19.185C3.68183 19.2492 3.75403 19.2492 3.80216 19.2733C3.97865 18.3708 3.61765 17.4803 3.6337 16.5778C3.66579 16.5778 3.72595 16.5778 3.75403 16.5778C3.82222 17.1875 3.79414 17.8052 3.87436 18.4149C3.89843 18.5954 3.9586 18.7719 4.05085 18.9283C4.18322 18.7919 4.19926 18.5914 4.23135 18.4149C4.2835 17.8935 4.21531 17.372 4.12305 16.8586C4.04684 16.4134 3.94255 15.9721 3.77007 15.559C3.73798 15.551 3.66578 15.547 3.62968 15.547ZM4.49207 15.6232C4.38377 15.8157 4.30355 16.0243 4.26745 16.2449C4.18322 16.7503 4.19525 17.2757 4.34366 17.7691C4.40383 17.9296 4.44394 18.1261 4.60839 18.2143C4.56828 18.4951 4.53218 18.7799 4.51213 19.0647C4.54021 19.0607 4.59235 19.0527 4.61642 19.0487C4.72071 18.7117 4.77686 18.3628 4.78488 18.0098C4.81296 17.2035 4.63246 16.4093 4.61241 15.6031C4.57229 15.6111 4.53218 15.6192 4.49207 15.6232ZM28.0252 15.5871C27.9811 15.6994 27.945 15.8197 27.933 15.94C28.0012 15.9761 28.0734 16.0122 28.1416 16.0483C28.1696 16.277 28.2057 16.5096 28.2539 16.7342C28.3782 16.658 28.3983 16.5176 28.4143 16.3853C28.3983 16.3732 28.3622 16.3452 28.3421 16.3331C28.29 16.0684 28.2539 15.7676 28.0252 15.5871ZM27.8969 16.1085C27.8528 16.2529 27.8528 16.4053 27.8528 16.5537C27.8728 16.5377 27.9169 16.5096 27.937 16.4976C27.9691 16.3532 27.9651 16.2008 27.9731 16.0524C27.953 16.0684 27.9169 16.0965 27.8969 16.1085ZM27.1388 16.273C27.1669 16.5979 27.203 16.9268 27.2752 17.2437C27.2832 17.3159 27.3353 17.364 27.3875 17.4121C27.3875 17.2356 27.3594 17.0591 27.3433 16.8827C27.3915 16.8867 27.4396 16.8867 27.4837 16.8907C27.5359 17.015 27.584 17.1434 27.6442 17.2637C27.7124 17.1795 27.7966 17.0792 27.7485 16.9669C27.6402 16.6741 27.4075 16.4294 27.1388 16.273ZM28.3301 17.364C28.5146 17.2798 28.6109 17.0952 28.6911 16.9228C28.7232 16.9268 28.7914 16.9308 28.8275 16.9348C28.7553 17.2035 28.5828 17.4322 28.5387 17.713C28.6429 17.6367 28.7392 17.5445 28.7873 17.4201C28.8876 17.1795 28.9398 16.9188 28.9678 16.662C28.6349 16.7302 28.3341 17.003 28.3301 17.364ZM27.8808 17.4402C27.929 17.4603 27.9771 17.4763 28.0252 17.4964C28.0413 17.6849 28.0252 17.8694 28.0453 18.0579C28.1095 17.9817 28.1857 17.9095 28.2057 17.8092C28.2579 17.5204 28.1857 17.2276 28.1496 16.9388C28.1014 16.9268 28.0573 16.9107 28.0092 16.8987C27.9049 17.0591 27.8808 17.2517 27.8808 17.4402ZM27.1669 17.4643C27.0265 17.8213 26.866 18.2103 26.9984 18.5954C27.0184 18.5914 27.0626 18.5874 27.0826 18.5874C27.0947 18.3948 27.0786 18.2063 27.0465 18.0138C27.1107 18.0018 27.1709 17.9897 27.235 17.9777C27.2711 18.1502 27.2792 18.3347 27.3714 18.4911C27.4155 18.443 27.4757 18.4029 27.5038 18.3387C27.5078 18.0178 27.3794 17.7049 27.1669 17.4643ZM28.1656 18.3547C28.1055 18.4189 28.1295 18.5072 28.1335 18.5874C28.2258 18.443 28.3702 18.3427 28.5346 18.2906C28.4945 18.5112 28.4063 18.7238 28.3742 18.9484C28.5908 18.6355 28.7151 18.2705 28.7753 17.8975C28.4825 17.8814 28.31 18.1421 28.1656 18.3547ZM27.8006 18.2103C27.576 18.5433 27.3754 18.9043 27.3072 19.3054C27.5038 19.1529 27.6281 18.9363 27.7485 18.7238C27.8247 18.7238 27.9009 18.7197 27.9731 18.7197C27.945 18.6155 27.9009 18.5152 27.8728 18.4109C27.8929 18.3587 27.925 18.3146 27.953 18.2705C27.9049 18.2464 27.8528 18.2304 27.8006 18.2103ZM26.6855 18.6676C26.6775 19.0607 26.6855 19.4658 26.8219 19.8388C26.9342 19.6263 26.874 19.3816 26.8099 19.161C26.842 19.161 26.9061 19.161 26.9382 19.161C26.9823 19.2492 27.0225 19.3415 27.0666 19.4297C27.1067 19.4016 27.1428 19.3695 27.1829 19.3415C27.1428 19.157 27.1107 18.9564 26.9743 18.816C26.9021 18.7278 26.7898 18.6957 26.6855 18.6676ZM27.7886 18.8561C27.7765 18.9885 27.7605 19.1249 27.7525 19.2572C27.933 19.185 27.9009 18.9604 27.9651 18.812C27.9089 18.828 27.8487 18.8401 27.7886 18.8561ZM4.72873 19.185C4.68461 19.3254 4.70466 19.4778 4.73675 19.6182C4.90522 20.1998 5.2983 20.6812 5.49084 21.2508C5.53897 21.2467 5.58309 21.2387 5.63123 21.2387C5.75958 21.339 5.77162 21.5155 5.85184 21.6479C5.73953 20.7093 5.13385 19.9191 4.96538 18.9925C4.87714 19.0406 4.76483 19.0767 4.72873 19.185ZM27.941 19.522C27.6883 19.5099 27.4316 19.5139 27.1789 19.5099C27.0866 19.5099 26.9984 19.4939 26.9101 19.522C27.2511 19.522 27.592 19.5059 27.933 19.526C27.8287 19.6744 27.7445 19.8388 27.7324 20.0234C27.8327 19.9431 27.9169 19.8469 28.0052 19.7546C28.0573 19.6985 28.1456 19.7225 28.2097 19.7065C28.1456 19.8388 28.0694 19.9632 28.0012 20.0915C28.0212 20.1156 28.0573 20.1637 28.0774 20.1918C28.1536 20.1196 28.2258 20.0434 28.2659 19.9471C28.3822 19.6864 28.4785 19.4177 28.5346 19.1369C28.31 19.2171 28.1095 19.3535 27.941 19.522ZM4.03481 19.3294C4.01475 19.6503 4.02277 19.9752 4.05486 20.2961C4.10701 20.9379 4.29954 21.5957 4.72071 22.0931C4.86511 22.2535 5.01352 22.426 5.21808 22.5183C5.21808 22.434 5.23413 22.3458 5.19 22.2696C4.89719 21.708 4.60037 21.1465 4.43191 20.5368C4.37575 20.3322 4.36773 20.1196 4.39179 19.907C4.48405 20.1236 4.55625 20.3483 4.64449 20.5689C4.86912 21.1545 5.14588 21.72 5.40259 22.2936C5.43468 22.2976 5.49886 22.3097 5.52694 22.3137C5.55903 21.7361 5.35045 21.1826 5.08973 20.6812C4.80895 20.1477 4.47202 19.6503 4.11503 19.165C4.0669 19.2091 4.02678 19.2612 4.03481 19.3294ZM3.1283 19.538C3.1644 19.6864 3.20852 19.8308 3.26467 19.9712C3.54545 20.6852 3.89442 21.3711 4.25141 22.049C4.27948 22.053 4.33163 22.061 4.35971 22.065C4.12305 21.4633 4.10701 20.8055 3.89041 20.1998C3.7781 19.8629 3.47726 19.6062 3.1283 19.538ZM27.3915 19.6583C27.0987 20.0113 26.7858 20.4124 26.8018 20.8978C26.9021 20.8216 26.9904 20.7333 27.0666 20.633C27.0586 20.4886 27.1267 20.3563 27.1949 20.2359C27.2471 20.2279 27.2952 20.2199 27.3474 20.2159C27.3313 20.3803 27.3153 20.5448 27.3233 20.7093C27.6001 20.4365 27.5559 20.0153 27.5559 19.6624C27.4998 19.6543 27.4476 19.6583 27.3915 19.6583ZM26.493 19.7787C26.4007 20.2119 26.2483 20.6411 26.2483 21.0863C26.3205 20.9178 26.3446 20.7373 26.3847 20.5608C26.4649 20.5769 26.5451 20.5929 26.6254 20.601C26.8861 20.4004 26.7537 20.0354 26.6334 19.7907C26.5852 19.7907 26.5411 19.7827 26.493 19.7787ZM27.2511 21.2588C27.3714 21.2307 27.4877 21.1946 27.6041 21.1585C27.5359 21.351 27.4356 21.5275 27.3915 21.7241C27.7525 21.4112 27.9209 20.9459 28.0653 20.5047C27.6843 20.5929 27.3835 20.8938 27.2511 21.2588ZM25.5945 21.9166C25.7068 21.8043 25.8632 21.7682 26.0117 21.7321C26.0437 21.4874 26.0518 21.2387 26.0397 20.994C26.0117 20.986 25.9555 20.966 25.9314 20.9579C25.7991 21.2668 25.6186 21.5676 25.5945 21.9166ZM26.485 21.4914C26.3847 21.6398 26.2283 21.7722 26.2283 21.9647C26.3245 21.9166 26.4208 21.8645 26.489 21.7762C26.5772 21.6759 26.6374 21.5315 26.7858 21.5035C26.7858 21.6238 26.7778 21.7441 26.7858 21.8644C26.8259 21.8243 26.8821 21.7923 26.9021 21.7361C26.9904 21.5115 27.0345 21.2748 27.0545 21.0342C26.8139 21.1144 26.6294 21.2909 26.485 21.4914ZM26.87 22.1131C26.6895 22.2375 26.5532 22.426 26.5211 22.6426C26.6615 22.5383 26.7938 22.418 26.9703 22.3779C26.8781 22.5744 26.7337 22.7469 26.6855 22.9675C26.7818 22.9113 26.8781 22.8472 26.9543 22.7629C27.203 22.4982 27.4075 22.1893 27.5319 21.8444C27.2912 21.8725 27.0626 21.9687 26.87 22.1131ZM6.22487 22.1653C6.21685 22.3979 6.20883 22.6386 6.28103 22.8632C6.34922 23.0999 6.50164 23.2964 6.66208 23.4809C6.88269 23.7336 7.10731 23.9863 7.28781 24.2671C7.31188 24.2671 7.36402 24.2671 7.3921 24.2711C7.34798 24.1748 7.3199 24.0746 7.30386 23.9703C7.3921 24.0585 7.4643 24.1628 7.52848 24.2711C7.26375 23.6494 6.97495 23.0317 6.58186 22.4782C6.49361 22.3458 6.36927 22.2335 6.22487 22.1653ZM25.6627 23.0237C25.7991 22.8311 25.9234 22.6065 26.1601 22.5303C26.0478 22.775 25.9114 23.0116 25.8953 23.2884C26.1922 23.0076 26.3767 22.6145 26.3927 22.2014C26.0357 22.3337 25.6868 22.6185 25.6627 23.0237ZM24.8645 23.136C24.9246 23.136 24.9808 23.132 25.041 23.132C25.061 23.0196 25.0811 22.9073 25.1011 22.795C25.1533 22.787 25.2094 22.779 25.2616 22.775C25.2215 22.9354 25.1814 23.0918 25.1693 23.2563C25.3258 23.2362 25.3699 23.0678 25.41 22.9434C25.4782 22.7268 25.43 22.4862 25.2937 22.3057C25.1533 22.5824 24.9968 22.8552 24.8645 23.136ZM4.69664 22.414C4.79291 22.5062 4.89719 22.5945 5.00148 22.6787C5.03758 22.6506 5.07368 22.6185 5.10978 22.5905C4.97742 22.5263 4.84104 22.4581 4.69664 22.414ZM5.46276 22.6947C5.54699 23.2162 5.69942 23.7416 6.00426 24.1789C6.30509 24.6201 6.72626 24.957 7.14742 25.2819C7.21962 25.3501 7.32391 25.3461 7.42018 25.3541C6.98698 24.8046 6.52169 24.2791 6.0925 23.7256C6.05239 23.6694 6.02833 23.6053 6.00025 23.5411C6.08448 23.5852 6.16872 23.6333 6.2369 23.7015C6.72626 24.1789 7.08325 24.7725 7.58062 25.2338C7.60469 25.1696 7.64079 25.1014 7.62073 25.0292C7.56458 24.8086 7.42419 24.6281 7.29584 24.4476C6.9228 23.9582 6.49361 23.513 6.04036 23.1039C5.85986 22.9555 5.68738 22.783 5.46276 22.6947ZM24.5115 23.1681C24.4273 23.2884 24.4032 23.4368 24.3912 23.5812C24.4393 23.6534 24.4714 23.7336 24.4794 23.8219C24.5476 23.7296 24.6318 23.6454 24.684 23.5451C24.7522 23.3927 24.7401 23.2202 24.7441 23.0557C24.6679 23.0878 24.5596 23.0838 24.5115 23.1681ZM4.58834 23.1921C4.82098 23.5411 5.21407 23.7416 5.46677 24.0706C5.63925 24.3353 5.75156 24.6321 5.92805 24.8928C6.08448 25.1335 6.29306 25.3381 6.53774 25.4865C6.68615 25.5747 6.83857 25.671 7.01506 25.675C6.79846 25.4624 6.53373 25.31 6.33718 25.0773C6.5618 25.1616 6.69417 25.3862 6.91879 25.4785C7.02308 25.5266 7.1394 25.5346 7.25572 25.5386C7.15946 25.3541 6.9589 25.2659 6.79846 25.1455C6.61395 25.0132 6.40537 24.9049 6.25696 24.7244C5.89195 24.2711 5.63524 23.7296 5.20605 23.3325C5.0456 23.1881 4.79692 23.0557 4.58834 23.1921ZM25.6226 23.8419C25.787 23.7697 25.9555 23.7055 26.136 23.6935C25.9836 23.8259 25.791 23.9342 25.7429 24.1468C26.2082 23.9783 26.4689 23.5331 26.7938 23.1921C26.3285 23.1199 25.7349 23.3325 25.6226 23.8419ZM24.7923 23.8499C24.708 23.9141 24.6719 24.0184 24.6439 24.1147C24.7602 24.1067 24.8805 24.0946 24.9808 24.0345C25.2375 23.886 25.4621 23.6574 25.5303 23.3606C25.2616 23.493 25.0129 23.6574 24.7923 23.8499ZM25.2536 23.862C25.1693 23.9903 25.1011 24.1307 25.0731 24.2831C25.2175 24.1829 25.3338 24.0465 25.3899 23.878C25.3538 23.874 25.2856 23.866 25.2536 23.862ZM23.6932 24.1107C23.4084 24.3834 23.1237 24.7204 23.1196 25.1335C23.2801 24.9771 23.3924 24.7805 23.4847 24.58C23.5288 24.5639 23.5729 24.5479 23.613 24.5358C23.5729 24.7043 23.5328 24.8688 23.5127 25.0412C23.5609 25.0212 23.613 25.0011 23.6611 24.9851C23.8376 24.7083 23.9098 24.3794 23.9018 24.0545C23.8336 24.0706 23.7454 24.0505 23.6932 24.1107ZM24.9728 24.5559C24.9728 24.588 24.9688 24.6482 24.9648 24.6802C25.1172 24.6201 25.2776 24.576 25.4421 24.5639C25.2776 24.7484 25.041 24.8768 24.9567 25.1215C25.3538 24.965 25.6226 24.6121 25.9114 24.3112C25.5744 24.2631 25.2576 24.3914 24.9728 24.5559ZM23.974 24.8006C24.0101 24.8246 24.0462 24.8527 24.0823 24.8768C24.1706 24.7645 24.2668 24.6401 24.4313 24.6522C24.347 24.8607 24.2107 25.0453 24.1465 25.2619C24.5155 25.1054 24.7522 24.7404 24.8244 24.3553C24.4955 24.3914 24.2307 24.608 23.974 24.8006ZM8.1502 24.5479C8.17828 24.8888 8.25048 25.2739 8.54329 25.4905C8.82808 25.6991 9.18106 25.7873 9.48991 25.9478C9.59821 26.02 9.71453 25.9478 9.81882 25.9036C9.53002 25.6028 9.21715 25.322 8.90028 25.0493C8.67164 24.8527 8.43499 24.6602 8.1502 24.5479ZM22.1891 25.7472C22.2653 25.663 22.3295 25.5747 22.3856 25.4785C22.4337 25.4704 22.4819 25.4624 22.53 25.4584C22.534 25.5306 22.538 25.6028 22.542 25.675C22.6503 25.6188 22.7586 25.5547 22.8308 25.4544C22.8629 25.302 22.7988 25.1455 22.7586 25.0011C22.3896 25.0332 22.2051 25.4183 22.1891 25.7472ZM24.5677 25.2779C24.3551 25.3381 24.1505 25.4223 23.9299 25.4544C23.9299 25.4785 23.9299 25.5306 23.9299 25.5547C24.1465 25.5386 24.3591 25.4945 24.5757 25.4785C24.3831 25.6108 24.1625 25.6991 23.954 25.8034C23.966 25.8475 23.982 25.8956 23.9941 25.9397C24.2628 25.8715 24.5476 25.8114 24.7722 25.6389C24.9046 25.5306 25.0731 25.4223 25.0931 25.2378C24.9246 25.2298 24.7401 25.2258 24.5677 25.2779ZM22.9472 25.6108C22.879 25.687 22.7747 25.7512 22.7667 25.8635C22.899 25.9076 22.9993 25.7873 23.0916 25.7191C23.1838 25.6349 23.3001 25.5827 23.4205 25.5507C23.3082 25.7632 23.1598 25.9558 23.0515 26.1724C23.1798 26.1323 23.2841 26.048 23.3362 25.9197C23.4405 25.8515 23.5569 25.7953 23.6451 25.6991C23.6812 25.6349 23.6732 25.5547 23.6972 25.4865C23.7374 25.4343 23.7815 25.3902 23.8296 25.3421C23.7253 25.2899 23.609 25.2378 23.4927 25.2699C23.2761 25.326 23.1076 25.4744 22.9472 25.6108ZM7.67689 25.3902C7.79722 25.8475 8.12212 26.2125 8.44702 26.5374C8.04591 26.2927 7.62475 26.0641 7.15545 25.9959C7.15545 26.032 7.15545 26.1002 7.15545 26.1363C7.74107 26.5173 8.28658 26.9666 8.91231 27.2835C9.0527 27.3516 9.1971 27.4479 9.36155 27.4078C9.29738 27.2754 9.20111 27.1631 9.10484 27.0508C9.27732 27.1591 9.4498 27.2714 9.6303 27.3677C9.80679 27.4519 10.0114 27.3918 10.1878 27.3396C10.1638 27.2835 10.1598 27.2113 10.0956 27.1792C9.54206 26.8222 8.98451 26.4612 8.47109 26.044C8.56736 26.0681 8.66763 26.1002 8.74786 26.1563C9.07276 26.3729 9.36958 26.6377 9.69448 26.8543C9.89904 26.9866 10.1277 27.1431 10.3844 27.0749C9.87097 26.5053 9.33348 25.9036 8.60346 25.6188C8.30663 25.5186 7.99778 25.4103 7.67689 25.3902ZM21.3869 26.3769C21.451 26.3047 21.4952 26.2165 21.5353 26.1283C21.6235 26.1283 21.6957 26.1563 21.7198 26.2526C21.8 26.2125 21.8842 26.1644 21.9604 26.1202C21.9845 25.9437 21.9965 25.7632 21.9725 25.5827C21.5994 25.6349 21.4189 26.04 21.3869 26.3769ZM23.2921 26.2005C23.1878 26.2686 23.0555 26.3208 23.0073 26.4491C23.1517 26.4371 23.3042 26.381 23.4405 26.4612C23.3322 26.5093 23.2159 26.5454 23.0996 26.5775C23.0956 26.6056 23.0916 26.6617 23.0876 26.6898C23.5328 26.6497 23.9219 26.393 24.2307 26.0841C24.0542 26.04 23.8697 25.9879 23.6892 26.0159C23.5408 26.036 23.4165 26.1242 23.2921 26.2005ZM21.8441 26.3489C21.6395 26.4491 21.5112 26.6577 21.447 26.8703C21.7158 26.8021 21.8882 26.5534 22.161 26.4933C22.0848 26.6938 21.9163 26.8462 21.8682 27.0588C22.0487 27.0308 22.2452 26.9826 22.3736 26.8382C22.526 26.6577 22.5862 26.4211 22.6303 26.1924C22.3615 26.2125 22.0848 26.2325 21.8441 26.3489ZM21.0098 26.3729C20.9817 26.4291 20.9537 26.4852 20.9256 26.5454C20.8935 26.5454 20.8333 26.5374 20.8052 26.5374C20.8012 26.5775 20.7972 26.6176 20.7932 26.6617C20.8333 26.6457 20.8774 26.6296 20.9216 26.6136C21.0018 26.5173 21.1382 26.4933 21.2023 26.385C21.1341 26.3729 21.07 26.3729 21.0098 26.3729ZM12.783 26.9746C11.4674 27.2835 10.1838 27.7407 8.99654 28.3865C8.59142 28.6192 8.17828 28.8478 7.82129 29.1486C7.84937 29.4735 8.02185 29.7663 8.14619 30.0632C8.72379 31.2585 9.40167 32.3976 10.0635 33.5448C10.252 33.4846 10.4044 33.3523 10.5729 33.26C11.8043 32.554 13.1841 32.1289 14.584 31.9083C16.0842 31.6836 17.6284 31.6876 19.1166 32.0125C20.1354 32.2372 21.1301 32.6262 21.9845 33.2319C22.1008 33.3081 22.2011 33.4084 22.3254 33.4726C22.4458 33.4806 22.5501 33.4004 22.6263 33.3162C22.6744 33.2199 22.6784 33.1076 22.7145 33.0073C22.8108 32.7105 22.9873 32.4538 23.1598 32.1971C23.2279 32.1008 23.256 31.9845 23.2961 31.8762C23.3001 31.804 23.3042 31.7278 23.3483 31.6716C23.4606 31.5071 23.5769 31.3507 23.6571 31.1702C23.6411 31.1381 23.6291 31.106 23.613 31.074C23.8697 30.8614 23.9299 30.5124 24.0984 30.2396C24.0984 30.2116 24.1024 30.1594 24.1024 30.1313C24.1224 30.1273 24.1665 30.1233 24.1866 30.1193C24.323 29.8506 24.3952 29.5497 24.5717 29.301C23.7855 28.4026 22.7506 27.7447 21.6476 27.3075C20.5205 26.8623 19.3171 26.6256 18.1098 26.5294C16.3248 26.397 14.5238 26.5615 12.783 26.9746ZM22.4257 26.9064C22.4257 26.9425 22.4297 27.0147 22.4297 27.0508C22.5621 27.0267 22.6945 27.0107 22.8308 26.9987C22.7426 27.0628 22.6503 27.123 22.5621 27.1832C22.5621 27.2193 22.5581 27.2875 22.5541 27.3236C22.9271 27.2835 23.3523 27.1671 23.5328 26.8061C23.1598 26.7941 22.7907 26.8422 22.4257 26.9064ZM24.8364 32.6704C25.0971 32.7105 25.3057 32.891 25.5584 32.9511C26.3005 31.3307 27.0545 29.7142 27.7966 28.0937C27.8889 27.8972 27.8688 27.6244 27.6803 27.492C27.4316 27.3196 27.1187 27.2995 26.8299 27.2474C26.1681 29.0564 25.4862 30.8574 24.8364 32.6704ZM4.52015 28.3223C4.58834 28.5068 4.70065 28.6713 4.78889 28.8478C5.53496 30.2316 6.273 31.6195 7.02308 32.9993C7.25974 32.8629 7.5004 32.7185 7.77316 32.6664C7.71299 32.4859 7.62475 32.3134 7.54854 32.1409C6.85863 30.6247 6.16069 29.1125 5.47479 27.5923C5.03357 27.5963 4.69263 27.9493 4.52015 28.3223ZM25.6948 28.2782C25.5504 28.4587 25.4742 28.6793 25.3739 28.8839C24.5797 30.6127 23.7654 32.3334 22.9793 34.0702C23.1477 34.1705 23.3443 34.1344 23.5288 34.1144C23.958 34.0542 24.3631 33.8978 24.7722 33.7614C24.7802 33.7333 24.7963 33.6772 24.8043 33.6491C24.5636 33.5207 24.2909 33.3763 24.1946 33.1036C24.1345 32.883 24.2789 32.6784 24.3551 32.4818C24.6719 31.6957 24.9688 30.9015 25.2776 30.1113C25.4621 29.7383 25.5664 29.3291 25.7068 28.94C25.783 28.6914 25.8913 28.4547 25.9314 28.198C25.8512 28.21 25.7469 28.194 25.6948 28.2782ZM6.33718 28.2381C6.40136 28.4507 6.49763 28.6512 6.58186 28.8598C7.15946 30.2116 7.7892 31.5432 8.3668 32.895C8.45906 33.0635 8.3668 33.256 8.27856 33.4084C8.1502 33.613 7.91756 33.7133 7.69695 33.7855C7.74107 33.8416 7.7892 33.8978 7.85739 33.9218C8.21839 34.0662 8.58741 34.1906 8.96847 34.2668C9.18106 34.3109 9.40167 34.2307 9.56612 34.0983C8.6917 32.3254 7.8253 30.5485 6.95489 28.7756C6.83456 28.5149 6.62197 28.2943 6.33718 28.2381ZM7.25572 33.3402C7.25974 33.4204 7.25974 33.5007 7.26375 33.5809C7.47232 33.5568 7.69294 33.5247 7.86942 33.3964C8.00179 33.2881 7.98976 33.1036 7.99778 32.9511C7.70497 32.9672 7.44425 33.1236 7.25572 33.3402ZM24.6358 32.9832C24.6358 33.0514 24.6358 33.1236 24.6358 33.1918C24.7321 33.272 24.8244 33.3603 24.9487 33.3924C25.0971 33.4245 25.2576 33.4004 25.398 33.3402C25.3458 33.2079 25.2816 33.0675 25.1493 32.9993C24.9888 32.9191 24.8003 32.9552 24.6358 32.9832ZM13.6173 7.49266C13.6615 7.39639 13.7778 7.42447 13.858 7.44452C13.8821 7.64107 13.9503 7.84162 14.1027 7.978C14.4436 8.31493 15.0493 8.32697 15.3983 7.99806C15.4905 7.91783 15.5587 7.7975 15.6871 7.76541C15.8756 7.99404 16.1122 8.23471 16.4291 8.23471C16.6698 8.25477 16.8944 8.13042 17.0669 7.97399C17.2554 7.81354 17.3958 7.60898 17.5482 7.42046C17.5964 7.42046 17.6485 7.42046 17.7006 7.42447C17.7929 7.87371 17.7448 8.41922 17.3757 8.73209C17.0348 9.00083 16.5575 8.94067 16.1764 8.79226C16.0039 8.72808 15.9037 8.50747 15.7031 8.52351C15.5467 8.61978 15.4504 8.79627 15.2819 8.8805C14.9731 9.04094 14.588 9.00484 14.2912 8.83237C13.9984 8.67593 13.7056 8.44329 13.6133 8.10636C13.5652 7.90981 13.5612 7.69321 13.6173 7.49266ZM15.5627 9.00083C15.6269 8.96072 15.7031 8.8805 15.7753 8.9527C16.0601 9.15325 16.3369 9.35782 16.6136 9.56239C16.7059 9.61453 16.7219 9.73085 16.7219 9.82712C16.7179 13.0882 16.7099 16.3492 16.7179 19.6102C17.7327 18.6917 18.6272 17.6207 19.2088 16.3732C19.8305 15.0456 20.0632 13.4973 19.6701 12.0693C19.5618 11.6241 19.3131 11.235 19.1206 10.8219C18.8077 10.1881 18.4788 9.5664 18.182 8.92462C19.257 9.83915 20.1354 11.0184 20.5967 12.3581C21.09 13.758 21.1021 15.3223 20.6167 16.7262C20.1835 18.0138 19.3653 19.1529 18.3424 20.0394C18.0336 20.3081 17.7047 20.5528 17.3677 20.7855C17.5282 20.986 17.7969 21.0261 18.0336 21.0743C18.5229 21.1545 19.0203 21.1745 19.5137 21.1946C19.8466 21.2106 20.1835 21.1826 20.5164 21.2267C19.8386 21.5837 19.0684 21.712 18.3103 21.7321C17.7408 21.7722 17.1672 21.708 16.5976 21.688C16.4331 21.9728 16.2647 22.2535 16.1002 22.5383C16.0681 22.6266 15.9237 22.6466 15.8756 22.5664C15.667 22.2736 15.5026 21.9527 15.29 21.6639C15.0934 21.6519 14.9009 21.704 14.7043 21.708C13.9743 21.7802 13.2283 21.7642 12.5143 21.5877C12.1733 21.5035 11.8364 21.3911 11.5115 21.2508C12.2857 21.3069 13.0718 21.3109 13.8339 21.1545C14.0546 21.1104 14.2832 21.0382 14.4557 20.8857C13.8901 20.5689 13.3686 20.1678 12.9074 19.7105C12.8472 19.6503 12.7951 19.5861 12.7429 19.518C13.3687 19.4819 13.9944 19.518 14.6201 19.5019C13.9864 19.5059 13.3526 19.4859 12.7229 19.5139C11.7642 18.467 11.0944 17.1514 10.8256 15.7555C10.5569 14.3757 10.7013 12.9077 11.3029 11.6321C11.7762 10.6173 12.5303 9.7469 13.4208 9.07704C12.7349 10.2242 12.2215 11.4957 12.0851 12.8314C11.9247 14.3276 12.2576 15.8678 12.9956 17.1755C13.5211 18.1221 14.227 18.9564 15.0212 19.6864C15.0292 19.0286 14.9811 18.3748 14.9731 17.717C14.933 17.2236 14.9611 16.7262 14.9209 16.2329C14.9089 15.1338 14.8447 14.0388 14.8327 12.9397C14.7725 11.8247 14.7725 10.7096 14.7164 9.59448C14.9891 9.38991 15.2819 9.2054 15.5627 9.00083ZM18.8077 9.01688C20.1595 9.24952 21.4189 9.9635 22.3094 11.0064C23.0996 11.9289 23.5849 13.1082 23.6812 14.3196C23.7614 15.2381 23.625 16.1687 23.3122 17.0351C23.2039 17.3479 23.0715 17.6608 22.879 17.9336C22.526 18.4711 22.1209 18.9805 21.6395 19.4137C21.3066 19.7065 20.9416 19.9752 20.5245 20.1437C20.5205 20.1116 20.5164 20.0434 20.5124 20.0113C21.3508 18.9524 21.9203 17.6728 22.0928 16.3291C22.3094 14.7728 22.0006 13.1523 21.2545 11.7685C20.6769 10.6735 19.8225 9.73085 18.8077 9.01688ZM12.033 9.2415C12.2375 9.1693 12.4501 9.06501 12.6747 9.11715C12.6226 9.18534 12.5664 9.24952 12.4982 9.30568C11.5797 10.0999 10.7815 11.0545 10.256 12.1576C9.87097 12.9598 9.64233 13.8342 9.58618 14.7207C9.47788 16.3933 9.99932 18.0499 10.8096 19.4979C10.9419 19.7586 11.1746 19.9552 11.2909 20.2279C10.7334 20.0153 10.244 19.6543 9.82684 19.2332C9.30139 18.7077 8.88423 18.078 8.55933 17.4121C8.41894 17.1273 8.28658 16.8385 8.21037 16.5297C8.03388 15.7836 7.97371 15.0055 8.0419 14.2393C8.13817 13.1684 8.53928 12.1215 9.1971 11.2671C9.9191 10.3325 10.9299 9.64662 12.033 9.2415ZM15.7272 28.3023C16.2406 27.9413 16.6939 27.5041 17.1431 27.0709C17.2033 27.0749 17.2674 27.0789 17.3276 27.0829C17.2995 27.2433 17.2995 27.4519 17.1351 27.5442C16.8503 27.7167 16.6176 27.9613 16.373 28.186C15.9237 28.6111 15.4504 29.0243 14.9169 29.3412C14.3032 29.7062 13.6053 29.9468 12.8913 29.9829C12.394 29.999 11.9006 29.9829 11.4032 29.9829C11.331 30.1634 11.2628 30.376 11.0823 30.4763C10.9139 30.5766 10.7133 30.5445 10.5248 30.5565C10.4165 30.5565 10.3282 30.6327 10.244 30.6889C10.2159 30.6608 10.1838 30.6327 10.1558 30.6087C10.228 30.36 10.3282 30.0872 10.5649 29.9549C10.7334 29.8506 10.9379 29.9107 11.1184 29.8666C11.327 29.7744 11.4473 29.5698 11.5476 29.3773C12.3057 29.3933 13.0879 29.4454 13.8219 29.2208C14.4998 29.0082 15.1536 28.7154 15.7272 28.3023ZM20.7732 28.6914C21.2064 28.3785 21.7278 28.1739 22.2653 28.1418C21.8281 28.4748 21.2665 28.5831 20.8253 28.908C20.4763 29.1727 20.352 29.6179 20.2918 30.0311C20.4122 30.0391 20.5325 30.0431 20.6528 30.0471C20.6368 30.2116 20.5726 30.38 20.4322 30.4763C20.3119 30.5766 20.1554 30.5886 20.003 30.5966C19.9188 30.5244 19.7985 30.4482 19.8145 30.3199C19.8305 30.1153 19.9669 29.9468 20.0231 29.7543C19.7222 29.8626 19.4014 29.9268 19.0805 29.9428C18.4708 29.9709 17.8531 29.9388 17.2674 29.7543C16.9867 29.662 16.6778 29.5136 16.5575 29.2288C16.4572 28.9882 16.6056 28.7435 16.734 28.5429C16.7981 28.5429 16.8663 28.5429 16.9345 28.5389C16.9666 28.8478 17.2193 29.0644 17.4881 29.1767C18.1379 29.4535 18.8599 29.4976 19.5538 29.4775C19.7503 29.4615 19.9749 29.4695 20.1274 29.3251C20.348 29.1246 20.5245 28.8719 20.7732 28.6914ZM18.4668 28.4707C18.551 28.3624 18.7034 28.4266 18.8157 28.4427C18.7636 28.567 18.6994 28.6914 18.6392 28.8117C18.4989 28.8317 18.3545 28.8478 18.2101 28.8478C18.2462 28.6954 18.3705 28.5871 18.4668 28.4707ZM20.9376 29.1205C21.078 29.0042 21.2344 28.8398 21.439 28.8839C21.5312 28.9481 21.5393 29.0684 21.5714 29.1687C21.447 29.2529 21.3227 29.3732 21.1582 29.3612C21.066 29.301 21.0018 29.2088 20.9376 29.1205ZM21.7037 29.7463C21.8882 29.4976 22.0968 29.2489 22.3896 29.1286C22.2452 29.4735 21.9805 29.7503 21.8521 30.0993C21.788 30.2557 21.7679 30.4242 21.7639 30.5886C21.8802 30.5886 21.9965 30.5886 22.1169 30.5886C22.0046 30.8413 21.82 31.0739 21.5593 31.1782C21.4591 31.2183 21.3628 31.1381 21.3106 31.0619C21.2264 30.9336 21.2344 30.7691 21.2665 30.6287C21.3387 30.3038 21.5112 30.011 21.7037 29.7463ZM11.5316 30.9255C11.5957 30.8253 11.6519 30.7129 11.7361 30.6287C11.8886 30.6087 12.065 30.6889 12.1092 30.8453C12.0771 30.9737 12.0009 31.086 11.9407 31.2023C11.7963 31.2143 11.6559 31.1863 11.5155 31.1502C11.5115 31.1903 11.5035 31.2304 11.4995 31.2745C11.6359 31.3146 11.7722 31.3467 11.9086 31.3748C11.8966 31.5272 11.8926 31.6836 11.8204 31.824C11.8083 31.8722 11.7762 31.8882 11.7281 31.8802C11.6318 31.8681 11.5396 31.824 11.4473 31.7919C11.4674 31.6957 11.4874 31.5994 11.5115 31.5031C11.343 31.4751 11.1786 31.4309 11.0181 31.3708C11.0382 31.1943 11.1184 31.0338 11.2067 30.8814C11.319 30.8935 11.4233 30.9095 11.5316 30.9255ZM21.0539 31.447C21.1261 31.455 21.1983 31.459 21.2705 31.467C21.3106 31.5874 21.3347 31.7117 21.3387 31.8361C21.2104 31.8962 21.074 31.9524 20.9376 31.9965C20.8413 31.9083 20.7531 31.808 20.713 31.6836C20.8373 31.6195 20.9496 31.5433 21.0539 31.447Z" fill="#4F4F4F"/>
</svg>
