<svg width="32" height="32" viewBox="0 0 32 32" fill="none" xmlns="http://www.w3.org/2000/svg">
<g clip-path="url(#clip0_2843_20519)">
<path d="M22.6273 32H9.37267L0 22.6273V9.37267L9.37267 0H22.6273L32 9.37267V22.6273L22.6273 32ZM11.306 4.66667L4.66667 11.306V20.6947L11.306 27.3333H20.6947L27.3333 20.6947V11.306L20.6947 4.66667H11.306ZM15.9593 27L8.13333 19.172L5 16L8.87467 12.1673H15.1333L11.262 16L19.09 23.8667L15.9567 27H15.9593ZM23.1253 19.8327H16.8667L20.738 16L12.9093 8.13333L16.0427 5L23.8667 12.828L27 16L23.1253 19.832V19.8327Z" fill="#006D08"/>
</g>
<defs>
<clipPath id="clip0_2843_20519">
<rect width="32" height="32" fill="white"/>
</clipPath>
</defs>
</svg>
