<svg width="328" height="140" viewBox="0 0 328 140" fill="none" xmlns="http://www.w3.org/2000/svg">
<ellipse cx="169.325" cy="70.3247" rx="51.3247" ry="51.3247" fill="#467BCC" fill-opacity="0.08"/>
<ellipse cx="218.285" cy="107.817" rx="16.2366" ry="15.6756" fill="url(#paint0_linear_20593_26390)"/>
<path d="M197.797 107.408C197.797 117.727 206.493 126.098 217.137 126.098C227.782 126.098 236.478 117.727 236.478 107.408C236.478 97.0893 227.782 88.7188 217.137 88.7188C206.493 88.7188 197.797 97.0893 197.797 107.408ZM201.554 107.408C201.554 99.147 208.519 92.3806 217.137 92.3806C225.756 92.3806 232.721 99.147 232.721 107.408C232.721 115.67 225.756 122.436 217.137 122.436C208.519 122.436 201.554 115.67 201.554 107.408Z" fill="#AAB4C5" stroke="#AAB4C5"/>
<path d="M235.117 127.342C235.493 127.705 235.97 127.873 236.439 127.873C236.908 127.873 237.385 127.705 237.76 127.342C238.497 126.631 238.497 125.453 237.76 124.741L234.084 121.192C233.357 120.491 232.168 120.491 231.441 121.192C230.705 121.903 230.705 123.082 231.441 123.793L235.117 127.342Z" fill="#AAB4C5" stroke="#AAB4C5"/>
<path d="M184 47.5H154C148.475 47.5 144 51.95 144 57.425V82.575C144 88.05 148.475 92.5 154 92.5H184C189.525 92.5 194 88.05 194 82.575V57.425C194 51.95 189.525 47.5 184 47.5ZM160.25 57.925C163.425 57.925 166.025 60.525 166.025 63.7C166.025 66.875 163.425 69.475 160.25 69.475C157.075 69.475 154.475 66.875 154.475 63.7C154.475 60.525 157.075 57.925 160.25 57.925ZM169.925 81.65C169.7 81.9 169.35 82.05 169 82.05H151.5C151.15 82.05 150.8 81.9 150.575 81.65C150.35 81.4 150.225 81.05 150.25 80.7C150.675 76.5 154.025 73.175 158.225 72.775C159.55 72.65 160.925 72.65 162.25 72.775C166.45 73.175 169.825 76.5 170.225 80.7C170.275 81.05 170.15 81.4 169.925 81.65ZM186.5 81.875H181.5C180.475 81.875 179.625 81.025 179.625 80C179.625 78.975 180.475 78.125 181.5 78.125H186.5C187.525 78.125 188.375 78.975 188.375 80C188.375 81.025 187.525 81.875 186.5 81.875ZM186.5 71.875H176.5C175.475 71.875 174.625 71.025 174.625 70C174.625 68.975 175.475 68.125 176.5 68.125H186.5C187.525 68.125 188.375 68.975 188.375 70C188.375 71.025 187.525 71.875 186.5 71.875ZM186.5 61.875H174C172.975 61.875 172.125 61.025 172.125 60C172.125 58.975 172.975 58.125 174 58.125H186.5C187.525 58.125 188.375 58.975 188.375 60C188.375 61.025 187.525 61.875 186.5 61.875Z" fill="#9098A7"/>
<ellipse cx="115.012" cy="28.8052" rx="10.8052" ry="10.8052" fill="#467BCC" fill-opacity="0.08"/>
<circle cx="103.532" cy="48.3894" r="4.72727" fill="#467BCC" fill-opacity="0.08"/>
<defs>
<linearGradient id="paint0_linear_20593_26390" x1="230.846" y1="116.69" x2="204.536" y2="97.181" gradientUnits="userSpaceOnUse">
<stop stop-color="#EEF1F6"/>
<stop offset="1" stop-color="#FAFBFE"/>
</linearGradient>
</defs>
</svg>
