<svg width="328" height="145" viewBox="0 0 328 145" fill="none" xmlns="http://www.w3.org/2000/svg">
<ellipse cx="168.676" cy="67.2575" rx="47.9948" ry="47.9948" fill="#467BCC" fill-opacity="0.08"/>
<ellipse cx="118.157" cy="28.1042" rx="10.1042" ry="10.1042" fill="#467BCC" fill-opacity="0.08"/>
<circle cx="107.421" cy="46.4179" r="4.42057" fill="#467BCC" fill-opacity="0.08"/>
<g filter="url(#filter0_d_300_4624)">
<path d="M134 42.205C134 39.9958 135.791 38.205 138 38.205H198.203C200.412 38.205 202.203 39.9958 202.203 42.205V92.3039C202.203 94.5131 200.412 96.3039 198.203 96.3039H138C135.791 96.3039 134 94.5131 134 92.3039V42.205Z" fill="url(#paint0_linear_300_4624)"/>
</g>
<path d="M134 42.205C134 39.9958 135.791 38.205 138 38.205H198.203C200.412 38.205 202.203 39.9958 202.203 42.205V45.7831H134V42.205Z" fill="#AAB4C5"/>
<rect x="138.627" y="40.7308" width="2.52604" height="2.52604" rx="1.26302" fill="#798294"/>
<rect x="142.416" y="40.7308" width="2.52604" height="2.52604" rx="1.26302" fill="#9098A7"/>
<rect x="146.205" y="40.7308" width="2.52604" height="2.52604" rx="1.26302" fill="#CFD3D9"/>
<rect x="140" y="58.205" width="8" height="2" rx="1" fill="#D1D7E1"/>
<rect x="156" y="58.205" width="8" height="2" rx="1" fill="#D1D7E1"/>
<rect x="172" y="58.205" width="8" height="2" rx="1" fill="#D1D7E1"/>
<rect x="188" y="58.205" width="8" height="2" rx="1" fill="#D1D7E1"/>
<rect x="140" y="65.205" width="56" height="2" rx="1" fill="#D1D7E1"/>
<rect x="140" y="71.205" width="56" height="2" rx="1" fill="#D1D7E1"/>
<rect x="140" y="77.205" width="56" height="2" rx="1" fill="#D1D7E1"/>
<circle cx="202.489" cy="99.8069" r="16.2702" fill="url(#paint1_linear_300_4624)"/>
<path d="M181.848 99.8069C181.848 110.49 190.544 119.186 201.227 119.186C211.91 119.186 220.607 110.49 220.607 99.8069C220.607 89.124 211.91 80.4274 201.227 80.4274C190.544 80.4274 181.848 89.124 181.848 99.8069ZM185.611 99.8069C185.611 91.2047 192.607 84.1902 201.227 84.1902C209.847 84.1902 216.844 91.2047 216.844 99.8069C216.844 108.409 209.847 115.424 201.227 115.424C192.607 115.424 185.611 108.409 185.611 99.8069Z" fill="#AAB4C5" stroke="#AAB4C5"/>
<path d="M219.237 120.477C219.612 120.852 220.091 121.028 220.566 121.028C221.042 121.028 221.521 120.852 221.896 120.477C222.626 119.747 222.626 118.547 221.896 117.817L218.212 114.133C217.483 113.404 216.282 113.404 215.553 114.133C214.824 114.863 214.824 116.063 215.553 116.793L219.237 120.477Z" fill="#AAB4C5" stroke="#AAB4C5"/>
<defs>
<filter id="filter0_d_300_4624" x="110" y="22.205" width="132.203" height="122.099" filterUnits="userSpaceOnUse" color-interpolation-filters="sRGB">
<feFlood flood-opacity="0" result="BackgroundImageFix"/>
<feColorMatrix in="SourceAlpha" type="matrix" values="0 0 0 0 0 0 0 0 0 0 0 0 0 0 0 0 0 0 127 0" result="hardAlpha"/>
<feOffset dx="8" dy="16"/>
<feGaussianBlur stdDeviation="16"/>
<feComposite in2="hardAlpha" operator="out"/>
<feColorMatrix type="matrix" values="0 0 0 0 0.12549 0 0 0 0 0.172549 0 0 0 0 0.2 0 0 0 0.12 0"/>
<feBlend mode="normal" in2="BackgroundImageFix" result="effect1_dropShadow_300_4624"/>
<feBlend mode="normal" in="SourceGraphic" in2="effect1_dropShadow_300_4624" result="shape"/>
</filter>
<linearGradient id="paint0_linear_300_4624" x1="155.471" y1="16.1021" x2="202.203" y2="104.514" gradientUnits="userSpaceOnUse">
<stop stop-color="#EFF2F7"/>
<stop offset="1" stop-color="white"/>
</linearGradient>
<linearGradient id="paint1_linear_300_4624" x1="215.075" y1="109.016" x2="188.061" y2="89.6764" gradientUnits="userSpaceOnUse">
<stop stop-color="#EEF1F6"/>
<stop offset="1" stop-color="#FAFBFE"/>
</linearGradient>
</defs>
</svg>
