<svg width="24" height="12" viewBox="0 0 24 12" fill="none" xmlns="http://www.w3.org/2000/svg">
<path d="M6.69797 8.40087H2.5284L1.59101 11H0.233618L4.03797 1.04783H5.1884L8.99275 11H7.64753L6.69797 8.40087ZM2.92405 7.32348H6.3084L4.61014 2.66696L2.92405 7.32348ZM9.82904 7.23826C9.82904 6.10609 10.0969 5.19507 10.6325 4.50522C11.1722 3.8113 11.8763 3.46435 12.7447 3.46435C13.6131 3.46435 14.2989 3.76058 14.8021 4.35304V0.5H16.0682V11H14.9056L14.8447 10.2087C14.3374 10.8255 13.6334 11.1339 12.7325 11.1339C11.8763 11.1339 11.1783 10.7849 10.6386 10.087C10.0989 9.38493 9.82904 8.46783 9.82904 7.33565V7.23826ZM11.089 7.38435C11.089 8.22435 11.2615 8.88174 11.6064 9.35652C11.9554 9.82725 12.4363 10.0626 13.049 10.0626C13.8485 10.0626 14.4328 9.70348 14.8021 8.98522V5.5887C14.4247 4.89072 13.8444 4.54174 13.0612 4.54174C12.4403 4.54174 11.9554 4.78116 11.6064 5.26C11.2615 5.73884 11.089 6.44696 11.089 7.38435ZM17.7177 7.23826C17.7177 6.10609 17.9855 5.19507 18.5212 4.50522C19.0609 3.8113 19.765 3.46435 20.6334 3.46435C21.5018 3.46435 22.1876 3.76058 22.6908 4.35304V0.5H23.9568V11H22.7942L22.7334 10.2087C22.2261 10.8255 21.5221 11.1339 20.6212 11.1339C19.765 11.1339 19.067 10.7849 18.5273 10.087C17.9876 9.38493 17.7177 8.46783 17.7177 7.33565V7.23826ZM18.9777 7.38435C18.9777 8.22435 19.1502 8.88174 19.4951 9.35652C19.8441 9.82725 20.325 10.0626 20.9377 10.0626C21.7371 10.0626 22.3215 9.70348 22.6908 8.98522V5.5887C22.3134 4.89072 21.7331 4.54174 20.9499 4.54174C20.329 4.54174 19.8441 4.78116 19.4951 5.26C19.1502 5.73884 18.9777 6.44696 18.9777 7.38435Z" fill="white" fill-opacity="0.72"/>
</svg>
