<svg width="24" height="24" viewBox="0 0 24 24" fill="none" xmlns="http://www.w3.org/2000/svg">
<rect x="4.5" y="5.5" width="15" height="13" rx="1.5" stroke="white" stroke-opacity="0.72"/>
<mask id="path-2-inside-1_1240_60078" fill="white">
<path fill-rule="evenodd" clip-rule="evenodd" d="M12 9C11.7239 9 11.5 9.22386 11.5 9.5V11.5H9.5C9.22386 11.5 9 11.7239 9 12C9 12.2761 9.22386 12.5 9.5 12.5H11.5V14.5C11.5 14.7761 11.7239 15 12 15C12.2761 15 12.5 14.7761 12.5 14.5V12.5H14.5C14.7761 12.5 15 12.2761 15 12C15 11.7239 14.7761 11.5 14.5 11.5H12.5V9.5C12.5 9.22386 12.2761 9 12 9Z"/>
</mask>
<path fill-rule="evenodd" clip-rule="evenodd" d="M12 9C11.7239 9 11.5 9.22386 11.5 9.5V11.5H9.5C9.22386 11.5 9 11.7239 9 12C9 12.2761 9.22386 12.5 9.5 12.5H11.5V14.5C11.5 14.7761 11.7239 15 12 15C12.2761 15 12.5 14.7761 12.5 14.5V12.5H14.5C14.7761 12.5 15 12.2761 15 12C15 11.7239 14.7761 11.5 14.5 11.5H12.5V9.5C12.5 9.22386 12.2761 9 12 9Z" fill="white" fill-opacity="0.72"/>
<path d="M11.5 11.5V12.5H12.5V11.5H11.5ZM11.5 12.5H12.5V11.5H11.5V12.5ZM12.5 12.5V11.5H11.5V12.5H12.5ZM12.5 11.5H11.5V12.5H12.5V11.5ZM12.5 9.5C12.5 9.77614 12.2761 10 12 10V8C11.1716 8 10.5 8.67157 10.5 9.5H12.5ZM12.5 11.5V9.5H10.5V11.5H12.5ZM9.5 12.5H11.5V10.5H9.5V12.5ZM10 12C10 12.2761 9.77614 12.5 9.5 12.5V10.5C8.67157 10.5 8 11.1716 8 12H10ZM9.5 11.5C9.77614 11.5 10 11.7239 10 12H8C8 12.8284 8.67157 13.5 9.5 13.5V11.5ZM11.5 11.5H9.5V13.5H11.5V11.5ZM12.5 14.5V12.5H10.5V14.5H12.5ZM12 14C12.2761 14 12.5 14.2239 12.5 14.5H10.5C10.5 15.3284 11.1716 16 12 16V14ZM11.5 14.5C11.5 14.2239 11.7239 14 12 14V16C12.8284 16 13.5 15.3284 13.5 14.5H11.5ZM11.5 12.5V14.5H13.5V12.5H11.5ZM14.5 11.5H12.5V13.5H14.5V11.5ZM14 12C14 11.7239 14.2239 11.5 14.5 11.5V13.5C15.3284 13.5 16 12.8284 16 12H14ZM14.5 12.5C14.2239 12.5 14 12.2761 14 12H16C16 11.1716 15.3284 10.5 14.5 10.5V12.5ZM12.5 12.5H14.5V10.5H12.5V12.5ZM11.5 9.5V11.5H13.5V9.5H11.5ZM12 10C11.7239 10 11.5 9.77614 11.5 9.5H13.5C13.5 8.67157 12.8284 8 12 8V10Z" fill="white" fill-opacity="0.72" mask="url(#path-2-inside-1_1240_60078)"/>
</svg>
