<svg width="24" height="24" viewBox="0 0 24 24" fill="none" xmlns="http://www.w3.org/2000/svg">
<g clip-path="url(#clip0_3427_53461)">
<path d="M14.5068 24C15.3093 24 16.0091 23.3002 16.0091 22.4978V18.9894H17.0122C17.6141 18.9894 18.0152 18.5881 18.0152 17.9863V7.9658H5.98788V17.9864C5.98788 18.5882 6.38911 18.9894 6.99095 18.9894H7.9941V22.4978C7.9941 23.3003 8.69373 24.0001 9.49635 24.0001C10.2987 24.0001 10.9984 23.3003 10.9984 22.4978V18.9894H13.0047V22.4978C13.0046 23.3002 13.7044 24 14.5068 24ZM20.5206 17.9864C21.3231 17.9864 22.0227 17.2867 22.0227 16.4841V9.46741C22.0227 8.6692 21.3231 7.9658 20.5206 7.9658C19.7181 7.9658 19.0184 8.6692 19.0184 9.46741V16.4841C19.0184 17.2866 19.718 17.9864 20.5206 17.9864ZM3.48256 17.9864C4.28509 17.9864 4.9848 17.2867 4.9848 16.4841V9.46741C4.9848 8.6692 4.28517 7.9658 3.48256 7.9658C2.6801 7.9658 1.98047 8.6692 1.98047 9.46741V16.4841C1.98047 17.2866 2.6801 17.9864 3.48256 17.9864ZM16.8115 0.151362C16.6109 -0.050454 16.3124 -0.050454 16.1118 0.151362L14.7665 1.49224L14.7044 1.55422C13.9067 1.15476 13.0123 0.955262 12.0162 0.95334L12.0017 0.95318L11.9868 0.95334C10.9908 0.955262 10.0964 1.15476 9.29878 1.55422L9.23655 1.49224L7.89127 0.151362C7.69058 -0.050454 7.39218 -0.050454 7.19164 0.151362C6.99095 0.352057 6.99095 0.649895 7.19164 0.85043L8.49304 2.15206C8.07371 2.43204 7.69346 2.77465 7.36279 3.16651C6.57114 4.10487 6.0662 5.3261 5.99677 6.64927C5.99613 6.66305 5.99476 6.67666 5.99412 6.69044C5.98991 6.7809 5.98783 6.87145 5.98788 6.96201H18.0152C18.0152 6.87111 18.0131 6.78054 18.009 6.69044C18.0083 6.67666 18.007 6.66305 18.0062 6.64927C17.9369 5.3261 17.4318 4.10479 16.6402 3.16659C16.3096 2.77473 15.9292 2.43212 15.5099 2.15214L16.8115 0.85051C17.0122 0.649895 17.0122 0.352057 16.8115 0.151362ZM9.49443 5.21062C9.29513 5.21062 9.104 5.13145 8.96308 4.99052C8.82215 4.8496 8.74299 4.65847 8.74299 4.45917C8.74299 4.25988 8.82215 4.06874 8.96308 3.92782C9.104 3.7869 9.29513 3.70773 9.49443 3.70773C9.69372 3.70773 9.88486 3.7869 10.0258 3.92782C10.1667 4.06874 10.2459 4.25988 10.2459 4.45917C10.2459 4.65847 10.1667 4.8496 10.0258 4.99052C9.88486 5.13145 9.69372 5.21062 9.49443 5.21062ZM14.5087 5.21062C14.3094 5.21062 14.1182 5.13145 13.9773 4.99052C13.8364 4.8496 13.7572 4.65847 13.7572 4.45917C13.7572 4.25988 13.8364 4.06874 13.9773 3.92782C14.1182 3.7869 14.3094 3.70773 14.5087 3.70773C14.708 3.70773 14.8991 3.7869 15.04 3.92782C15.181 4.06874 15.2601 4.25988 15.2601 4.45917C15.2601 4.65847 15.181 4.8496 15.04 4.99052C14.8991 5.13145 14.708 5.21062 14.5087 5.21062Z" fill="#2C92F2"/>
</g>
<defs>
<clipPath id="clip0_3427_53461">
<rect width="24" height="24" fill="white"/>
</clipPath>
</defs>
</svg>
