<svg width="24" height="25" viewBox="0 0 24 25" fill="none" xmlns="http://www.w3.org/2000/svg">
<path opacity="0.4" d="M16.19 2.5L7.82 2.5C4.17 2.5 2 4.67 2 8.31L2 16.68C2 20.32 4.17 22.49 7.81 22.49L16.18 22.49C19.82 22.49 21.99 20.32 21.99 16.68L21.99 8.31C22 4.67 19.83 2.5 16.19 2.5Z" fill="#2C92F2"/>
<path d="M11.4704 15.54C11.5404 15.61 11.6204 15.66 11.7104 15.7C11.8004 15.74 11.9004 15.76 12.0004 15.76C12.1004 15.76 12.1904 15.74 12.2904 15.7C12.3804 15.66 12.4604 15.61 12.5304 15.54L15.5304 12.54C15.8204 12.25 15.8204 11.77 15.5304 11.48C15.2404 11.19 14.7604 11.19 14.4704 11.48L12.7504 13.2V7.01001C12.7504 6.60001 12.4104 6.26001 12.0004 6.26001C11.5904 6.26001 11.2504 6.60001 11.2504 7.01001L11.2504 13.2L9.53043 11.48C9.24043 11.19 8.76043 11.19 8.47043 11.48C8.18043 11.77 8.18043 12.25 8.47043 12.54L11.4704 15.54Z" fill="#2C92F2"/>
<path d="M18.7102 16.78C18.5802 16.39 18.1602 16.18 17.7602 16.31C14.0402 17.55 9.95018 17.55 6.23018 16.31C5.84018 16.18 5.41018 16.39 5.28018 16.78C5.15018 17.17 5.36018 17.6 5.75018 17.73C7.76018 18.4 9.87018 18.74 11.9902 18.74C14.1102 18.74 16.2202 18.4 18.2302 17.73C18.6302 17.59 18.8402 17.17 18.7102 16.78Z" fill="#2C92F2"/>
</svg>
