<svg width="24" height="25" viewBox="0 0 24 25" fill="none" xmlns="http://www.w3.org/2000/svg">
<path opacity="0.4" d="M16.1898 2.5L7.81978 2.5C4.17978 2.5 2.00977 4.67 2.00977 8.31L2.00977 16.68C2.00977 20.32 4.17978 22.49 7.81978 22.49L16.1898 22.49C19.8298 22.49 21.9998 20.32 21.9998 16.68L21.9998 8.31C21.9998 4.67 19.8298 2.5 16.1898 2.5Z" fill="#2C92F2"/>
<path fill-rule="evenodd" clip-rule="evenodd" d="M11.4697 6.47968C11.7626 6.18679 12.2374 6.18679 12.5303 6.47968L15.5303 9.47968C15.8232 9.77257 15.8232 10.2474 15.5303 10.5403C15.2374 10.8332 14.7626 10.8332 14.4697 10.5403L12 8.07067L9.53033 10.5403C9.23744 10.8332 8.76256 10.8332 8.46967 10.5403C8.17678 10.2474 8.17678 9.77257 8.46967 9.47968L11.4697 6.47968Z" fill="#2C92F2"/>
<path fill-rule="evenodd" clip-rule="evenodd" d="M12 6.26001C12.4142 6.26001 12.75 6.5958 12.75 7.01001L12.75 15.01C12.75 15.4242 12.4142 15.76 12 15.76C11.5858 15.76 11.25 15.4242 11.25 15.01L11.25 7.01001C11.25 6.5958 11.5858 6.26001 12 6.26001Z" fill="#2C92F2"/>
<path fill-rule="evenodd" clip-rule="evenodd" d="M5.28887 16.7722C5.42016 16.3794 5.84507 16.1674 6.23792 16.2986C9.97364 17.5471 14.0268 17.5471 17.7625 16.2986C18.1553 16.1674 18.5802 16.3794 18.7115 16.7722C18.8428 17.1651 18.6308 17.59 18.2379 17.7213C14.1936 19.0729 9.80677 19.0729 5.76248 17.7213C5.36963 17.59 5.15759 17.1651 5.28887 16.7722Z" fill="#2C92F2"/>
</svg>
