<svg width="41" height="40" viewBox="0 0 41 40" fill="none" xmlns="http://www.w3.org/2000/svg">
<rect x="0.333008" width="40" height="40" rx="20" fill="#ECEDEF"/>
<path d="M20.3333 11.6667C18.15 11.6667 16.375 13.4417 16.375 15.6251C16.375 17.7667 18.05 19.5001 20.2333 19.5751C20.3 19.5667 20.3667 19.5667 20.4167 19.5751C20.4333 19.5751 20.4417 19.5751 20.4583 19.5751C20.4667 19.5751 20.4667 19.5751 20.475 19.5751C22.6083 19.5001 24.2833 17.7667 24.2917 15.6251C24.2917 13.4417 22.5167 11.6667 20.3333 11.6667Z" fill="#232730" fill-opacity="0.6"/>
<path d="M24.5668 21.7917C22.2418 20.2417 18.4501 20.2417 16.1085 21.7917C15.0501 22.5 14.4668 23.4583 14.4668 24.4833C14.4668 25.5083 15.0501 26.4583 16.1001 27.1583C17.2668 27.9417 18.8001 28.3333 20.3335 28.3333C21.8668 28.3333 23.4001 27.9417 24.5668 27.1583C25.6168 26.45 26.2001 25.5 26.2001 24.4667C26.1918 23.4417 25.6168 22.4917 24.5668 21.7917Z" fill="#232730" fill-opacity="0.6"/>
</svg>
