<svg width="24" height="24" viewBox="0 0 24 24" fill="none" xmlns="http://www.w3.org/2000/svg">
  <path opacity="0.4" d="M8 22H16C18.76 22 21 19.76 21 17V7C21 4.24 18.76 2 16 2H8C5.24 2 3 4.24 3 7V17C3 19.76 5.24 22 8 22Z" fill="#232730"/>
  <path d="M15.0001 5.70996H9.00012C7.97012 5.70996 7.12012 6.54996 7.12012 7.58996V8.58996C7.12012 9.61996 7.96012 10.47 9.00012 10.47H15.0001C16.0301 10.47 16.8801 9.62996 16.8801 8.58996V7.58996C16.8801 6.54996 16.0401 5.70996 15.0001 5.70996Z" fill="#232730"/>
  <path d="M8.16012 14.92C8.02012 14.92 7.89012 14.89 7.77012 14.84C7.65012 14.79 7.54012 14.72 7.45012 14.63C7.26012 14.44 7.15012 14.19 7.15012 13.92C7.15012 13.79 7.18012 13.66 7.23012 13.54C7.28012 13.41 7.35012 13.31 7.45012 13.21C7.68012 12.98 8.03012 12.87 8.35012 12.94C8.41012 12.95 8.48012 12.97 8.54012 13C8.60012 13.02 8.66012 13.05 8.71012 13.09C8.77012 13.12 8.82012 13.17 8.86012 13.21C8.95012 13.31 9.03012 13.41 9.08012 13.54C9.13012 13.66 9.15012 13.79 9.15012 13.92C9.15012 14.19 9.05012 14.44 8.86012 14.63C8.67012 14.82 8.42012 14.92 8.16012 14.92Z" fill="#232730"/>
  <path d="M12.1501 14.92C11.8901 14.92 11.6401 14.82 11.4501 14.63C11.2601 14.44 11.1501 14.19 11.1501 13.92C11.1501 13.66 11.2601 13.4 11.4501 13.21C11.8201 12.84 12.4901 12.84 12.8601 13.21C12.9501 13.31 13.0301 13.41 13.0801 13.54C13.1301 13.66 13.1501 13.79 13.1501 13.92C13.1501 14.19 13.0501 14.44 12.8601 14.63C12.6701 14.82 12.4201 14.92 12.1501 14.92Z" fill="#232730"/>
  <path d="M16.1501 14.92C15.8901 14.92 15.6401 14.82 15.4501 14.63C15.2601 14.44 15.1501 14.19 15.1501 13.92C15.1501 13.66 15.2601 13.4 15.4501 13.21C15.8201 12.84 16.4901 12.84 16.8601 13.21C17.0501 13.4 17.1601 13.66 17.1601 13.92C17.1601 14.05 17.1301 14.18 17.0801 14.3C17.0301 14.42 16.9601 14.53 16.8601 14.63C16.6701 14.82 16.4201 14.92 16.1501 14.92Z" fill="#232730"/>
  <path d="M8.16012 18.92C7.89012 18.92 7.64012 18.82 7.45012 18.63C7.26012 18.44 7.15012 18.19 7.15012 17.92C7.15012 17.66 7.26012 17.4 7.45012 17.21C7.54012 17.12 7.65012 17.05 7.77012 17C8.02012 16.9 8.29012 16.9 8.54012 17C8.60012 17.02 8.66012 17.05 8.71012 17.09C8.77012 17.12 8.82012 17.17 8.86012 17.21C9.05012 17.4 9.16012 17.66 9.16012 17.92C9.16012 18.19 9.05012 18.44 8.86012 18.63C8.67012 18.82 8.42012 18.92 8.16012 18.92Z" fill="#232730"/>
  <path d="M12.1501 18.92C11.8901 18.92 11.6401 18.82 11.4501 18.63C11.2601 18.44 11.1501 18.19 11.1501 17.92C11.1501 17.85 11.1601 17.79 11.1701 17.72C11.1901 17.66 11.2101 17.6 11.2301 17.54C11.2601 17.48 11.2901 17.42 11.3201 17.36C11.3601 17.31 11.4001 17.26 11.4501 17.21C11.5401 17.12 11.6501 17.05 11.7701 17C12.1401 16.85 12.5801 16.93 12.8601 17.21C13.0501 17.4 13.1501 17.66 13.1501 17.92C13.1501 18.19 13.0501 18.44 12.8601 18.63C12.7701 18.72 12.6601 18.79 12.5401 18.84C12.4201 18.89 12.2901 18.92 12.1501 18.92Z" fill="#232730"/>
  <path d="M16.1501 18.92C16.0201 18.92 15.8901 18.89 15.7701 18.84C15.6501 18.79 15.5401 18.72 15.4501 18.63C15.2601 18.44 15.1601 18.19 15.1601 17.92C15.1601 17.66 15.2601 17.4 15.4501 17.21C15.7201 16.93 16.1701 16.85 16.5401 17C16.6601 17.05 16.7701 17.12 16.8601 17.21C17.0501 17.4 17.1501 17.66 17.1501 17.92C17.1501 18.19 17.0501 18.44 16.8601 18.63C16.6701 18.82 16.4201 18.92 16.1501 18.92Z" fill="#232730"/>
</svg>
