<svg width="24" height="24" viewBox="0 0 24 24" fill="none" xmlns="http://www.w3.org/2000/svg">
<path d="M14 22.75H10C4.57 22.75 2.25 20.43 2.25 15V9C2.25 3.57 4.57 1.25 10 1.25H14C19.43 1.25 21.75 3.57 21.75 9V15C21.75 20.43 19.43 22.75 14 22.75ZM10 2.75C5.39 2.75 3.75 4.39 3.75 9V15C3.75 19.61 5.39 21.25 10 21.25H14C18.61 21.25 20.25 19.61 20.25 15V9C20.25 4.39 18.61 2.75 14 2.75H10Z" fill="#232730"/>
<path d="M15 10.8301H9C7.76 10.8301 6.75 9.82008 6.75 8.58008V7.58008C6.75 6.34008 7.76 5.33008 9 5.33008H15C16.24 5.33008 17.25 6.34008 17.25 7.58008V8.58008C17.25 9.82008 16.24 10.8301 15 10.8301ZM9 6.83008C8.59 6.83008 8.25 7.17008 8.25 7.58008V8.58008C8.25 8.99008 8.59 9.33008 9 9.33008H15C15.41 9.33008 15.75 8.99008 15.75 8.58008V7.58008C15.75 7.17008 15.41 6.83008 15 6.83008H9Z" fill="#232730"/>
<path d="M8.15016 14.9208C8.02016 14.9208 7.89016 14.8908 7.77016 14.8408C7.65016 14.7908 7.54016 14.7208 7.45016 14.6308C7.26016 14.4408 7.16016 14.1908 7.16016 13.9208C7.16016 13.7908 7.18016 13.6608 7.23016 13.5408C7.28016 13.4108 7.35016 13.3108 7.45016 13.2108C7.49016 13.1708 7.54016 13.1208 7.60016 13.0908C7.65016 13.0508 7.71016 13.0208 7.77016 13.0008C7.83016 12.9708 7.90016 12.9508 7.96016 12.9408C8.28016 12.8708 8.63016 12.9808 8.86016 13.2108C8.95016 13.3008 9.03016 13.4108 9.08016 13.5408C9.13016 13.6608 9.16016 13.7908 9.16016 13.9208C9.16016 14.1908 9.05016 14.4408 8.86016 14.6308C8.67016 14.8208 8.42016 14.9208 8.15016 14.9208Z" fill="#232730"/>
<path d="M12.1602 14.9199C11.8902 14.9199 11.6402 14.8199 11.4502 14.6299C11.2602 14.4399 11.1602 14.1899 11.1602 13.9199C11.1602 13.7899 11.1802 13.6599 11.2302 13.5399C11.2802 13.4099 11.3502 13.3099 11.4502 13.2099C11.4902 13.1699 11.5402 13.1199 11.6002 13.0899C11.6502 13.0499 11.7102 13.0199 11.7702 12.9999C11.8302 12.9699 11.9002 12.9499 11.9602 12.9399C12.1502 12.8999 12.3502 12.9199 12.5402 12.9999C12.6602 13.0499 12.7702 13.1199 12.8602 13.2099C12.9502 13.3099 13.0302 13.4099 13.0802 13.5399C13.1302 13.6599 13.1602 13.7899 13.1602 13.9199C13.1602 14.1899 13.0502 14.4399 12.8602 14.6299C12.6702 14.8199 12.4202 14.9199 12.1602 14.9199Z" fill="#232730"/>
<path d="M16.1502 14.9191C16.0202 14.9191 15.8902 14.8891 15.7702 14.8391C15.6502 14.7891 15.5402 14.7191 15.4502 14.6291C15.3502 14.5291 15.2802 14.4191 15.2302 14.2991C15.1802 14.1791 15.1602 14.0491 15.1602 13.9191C15.1602 13.7891 15.1802 13.6591 15.2302 13.5391C15.2802 13.4091 15.3502 13.3091 15.4502 13.2091C15.8202 12.8391 16.4902 12.8391 16.8602 13.2091C17.0502 13.3991 17.1602 13.6591 17.1602 13.9191C17.1602 14.1891 17.0502 14.4391 16.8602 14.6291C16.6802 14.8091 16.4302 14.9191 16.1502 14.9191Z" fill="#232730"/>
<path d="M8.1599 18.9209C7.8899 18.9209 7.6399 18.8209 7.4499 18.6309C7.2599 18.4409 7.1499 18.1909 7.1499 17.9209C7.1499 17.6609 7.2599 17.4009 7.4499 17.2109C7.4899 17.1709 7.5499 17.1209 7.5999 17.0909C7.6499 17.0509 7.7099 17.0209 7.7699 17.0009C7.8299 16.9709 7.8999 16.9509 7.9599 16.9409C8.2899 16.8809 8.6299 16.9809 8.8599 17.2109C8.9099 17.2609 8.9499 17.3109 8.9899 17.3609C9.0199 17.4209 9.0499 17.4809 9.0799 17.5409C9.0999 17.6009 9.1199 17.6609 9.1399 17.7209C9.1499 17.7909 9.1599 17.8509 9.1599 17.9209C9.1599 18.1909 9.0499 18.4409 8.8599 18.6309C8.6699 18.8209 8.4199 18.9209 8.1599 18.9209Z" fill="#232730"/>
<path d="M12.1599 18.9209C11.8899 18.9209 11.6399 18.8209 11.4499 18.6309C11.2599 18.4409 11.1499 18.1909 11.1499 17.9209C11.1499 17.6609 11.2599 17.4009 11.4499 17.2109C11.6799 16.9809 12.0299 16.8809 12.3499 16.9409C12.4099 16.9509 12.4799 16.9709 12.5399 17.0009C12.5999 17.0209 12.6599 17.0509 12.7099 17.0909C12.7599 17.1209 12.8099 17.1709 12.8599 17.2109C13.0499 17.4009 13.1499 17.6609 13.1499 17.9209C13.1499 18.1909 13.0499 18.4409 12.8599 18.6309C12.6699 18.8209 12.4199 18.9209 12.1599 18.9209Z" fill="#232730"/>
<path d="M16.1502 18.9202C15.8902 18.9202 15.6402 18.8202 15.4502 18.6302C15.2602 18.4402 15.1602 18.1902 15.1602 17.9202C15.1602 17.6602 15.2602 17.4002 15.4502 17.2102C15.5402 17.1202 15.6502 17.0502 15.7702 17.0002C16.1402 16.8502 16.5902 16.9302 16.8602 17.2102C17.0502 17.4002 17.1502 17.6602 17.1502 17.9202C17.1502 18.1902 17.0502 18.4402 16.8602 18.6302C16.7702 18.7202 16.6602 18.7902 16.5402 18.8402C16.4202 18.8902 16.2902 18.9202 16.1502 18.9202Z" fill="#232730"/>
</svg>
