<svg width="24" height="24" viewBox="0 0 24 24" fill="currentColor" xmlns="http://www.w3.org/2000/svg">
<path d="M11.9983 4C10.2525 4 9.26865 4.04971 7.53879 4.13287H7.38008C6.60244 4.16614 5.91983 4.66508 5.60243 5.39696L3.8567 9.4556C3.8567 9.47224 3.84089 9.489 3.84089 9.50563C3.31717 9.45573 2.87293 9.38913 2.53965 9.35587C2.28573 9.3226 2.04755 9.52214 2.01581 9.78827C1.98407 10.0544 2.17445 10.304 2.42837 10.3373C4.06301 10.5535 8.28463 11.0192 11.9983 11.0192C15.7119 11.0192 19.9335 10.5535 21.5682 10.3539C21.838 10.3206 22.0283 10.071 21.9965 9.80484C21.9648 9.53871 21.7266 9.33917 21.4727 9.37244C21.1394 9.4057 20.6952 9.4723 20.1715 9.5222C20.1715 9.50557 20.1557 9.48881 20.1557 9.47217L18.3941 5.43042C18.0767 4.69854 17.3941 4.1996 16.6165 4.16634H16.4578C14.7279 4.0499 13.744 4 11.9983 4ZM11.9983 4.99801C13.7281 4.99801 14.6487 5.04772 16.4103 5.13089L16.569 5.13089C16.9817 5.14752 17.3467 5.41359 17.5213 5.81279L19.1557 9.60537C17.1719 9.80497 14.474 10.0212 11.9983 10.0212C9.52251 10.0212 6.82463 9.80497 4.84084 9.60537L6.47529 5.81279C6.64987 5.41359 7.01488 5.14752 7.42751 5.13089H7.58621C9.34781 5.03108 10.2684 4.99801 11.9983 4.99801ZM4.06314 11.6846C2.92048 11.6846 2 12.6493 2 13.8469L2 16.841C2 17.4897 2.39676 18.0386 2.95222 18.2548L2.95222 20.1677C2.95222 20.4504 3.15853 20.6667 3.42832 20.6667H6.60238C6.87217 20.6667 7.07849 20.4504 7.07849 20.1677V18.338H16.9181V20.1677C16.9181 20.4504 17.1244 20.6667 17.3942 20.6667H20.5682C20.838 20.6667 21.0443 20.4504 21.0443 20.1677V18.2548C21.5998 18.0552 21.9965 17.4897 21.9965 16.841L21.9965 13.8469C21.9965 12.6493 21.0761 11.6846 19.9334 11.6846C18.7907 11.6846 17.8703 12.6493 17.8703 13.8469C17.8703 15.0445 18.7907 16.0093 19.9334 16.0093C20.346 16.0093 20.7269 15.8763 21.0443 15.66V16.841C21.0443 17.1237 20.838 17.34 20.5682 17.34L3.42832 17.34C3.15853 17.34 2.95222 17.1237 2.95222 16.841L2.95222 15.66C3.26962 15.8763 3.65051 16.0093 4.06314 16.0093C5.2058 16.0093 6.12627 15.0445 6.12627 13.8469C6.12627 12.6493 5.2058 11.6846 4.06314 11.6846ZM4.06314 12.6826C4.68208 12.6826 5.17405 13.1982 5.17405 13.8469C5.17405 14.4956 4.68208 15.0113 4.06314 15.0113C3.44419 15.0113 2.95222 14.4956 2.95222 13.8469C2.95222 13.1982 3.44419 12.6826 4.06314 12.6826ZM19.9334 12.6826C20.5523 12.6826 21.0443 13.1982 21.0443 13.8469C21.0443 14.4956 20.5523 15.0113 19.9334 15.0113C19.3145 15.0113 18.8225 14.4956 18.8225 13.8469C18.8225 13.1982 19.3145 12.6826 19.9334 12.6826ZM8.50681 14.6786C8.23702 14.6786 8.0307 14.8948 8.0307 15.1776C8.0307 15.4604 8.23702 15.6766 8.50681 15.6766H15.4897C15.7595 15.6766 15.9658 15.4604 15.9658 15.1776C15.9658 14.8948 15.7595 14.6786 15.4897 14.6786H8.50681ZM3.90443 18.338H6.12627V19.6687H3.90443L3.90443 18.338ZM17.8703 18.338L20.0921 18.338V19.6687L17.8703 19.6687V18.338Z" fill="currentColor"/>
<path d="M19 10C21.7614 10 24 7.76142 24 5C24 2.23858 21.7614 0 19 0C16.2386 0 14 2.23858 14 5C14 7.76142 16.2386 10 19 10Z" fill="#22B364"/>
<path d="M18.2888 6.78492C18.1888 6.78492 18.0938 6.74492 18.0238 6.67492L16.6088 5.25992C16.4638 5.11492 16.4638 4.87492 16.6088 4.72992C16.7538 4.58492 16.9938 4.58492 17.1388 4.72992L18.2888 5.87992L20.8588 3.30992C21.0038 3.16492 21.2438 3.16492 21.3888 3.30992C21.5338 3.45492 21.5338 3.69492 21.3888 3.83992L18.5538 6.67492C18.4838 6.74492 18.3888 6.78492 18.2888 6.78492Z" fill="white"/>
</svg>
