<svg width="24" height="24" viewBox="0 0 24 24" fill="none" xmlns="http://www.w3.org/2000/svg">
<path d="M5.25 4C4.38805 4 3.5614 4.34241 2.9519 4.9519C2.34241 5.5614 2 6.38805 2 7.25V16.75C2 17.612 2.34241 18.4386 2.9519 19.0481C3.5614 19.6576 4.38805 20 5.25 20H18.75C19.1768 20 19.5994 19.9159 19.9937 19.7526C20.388 19.5893 20.7463 19.3499 21.0481 19.0481C21.3499 18.7463 21.5893 18.388 21.7526 17.9937C21.9159 17.5994 22 17.1768 22 16.75V7.25C22 6.8232 21.9159 6.40059 21.7526 6.00628C21.5893 5.61197 21.3499 5.25369 21.0481 4.9519C20.7463 4.65011 20.388 4.41072 19.9937 4.24739C19.5994 4.08406 19.1768 4 18.75 4H5.25ZM3.5 7.25C3.5 6.284 4.284 5.5 5.25 5.5H18.75C19.716 5.5 20.5 6.284 20.5 7.25V16.75C20.5 17.2141 20.3156 17.6592 19.9874 17.9874C19.6592 18.3156 19.2141 18.5 18.75 18.5H5.25C4.78587 18.5 4.34075 18.3156 4.01256 17.9874C3.68437 17.6592 3.5 17.2141 3.5 16.75V7.25ZM5 7.75C5 7.55109 5.07902 7.36032 5.21967 7.21967C5.36032 7.07902 5.55109 7 5.75 7H11.25C11.4489 7 11.6397 7.07902 11.7803 7.21967C11.921 7.36032 12 7.55109 12 7.75C12 7.94891 11.921 8.13968 11.7803 8.28033C11.6397 8.42098 11.4489 8.5 11.25 8.5H5.75C5.55109 8.5 5.36032 8.42098 5.21967 8.28033C5.07902 8.13968 5 7.94891 5 7.75ZM6 13C5.73478 13 5.48043 13.1054 5.29289 13.2929C5.10536 13.4804 5 13.7348 5 14V16C5 16.2652 5.10536 16.5196 5.29289 16.7071C5.48043 16.8946 5.73478 17 6 17H13C13.2652 17 13.5196 16.8946 13.7071 16.7071C13.8946 16.5196 14 16.2652 14 16V14C14 13.7348 13.8946 13.4804 13.7071 13.2929C13.5196 13.1054 13.2652 13 13 13H6ZM5 10.25C5 10.0511 5.07902 9.86032 5.21967 9.71967C5.36032 9.57902 5.55109 9.5 5.75 9.5H16.25C16.4489 9.5 16.6397 9.57902 16.7803 9.71967C16.921 9.86032 17 10.0511 17 10.25C17 10.4489 16.921 10.6397 16.7803 10.7803C16.6397 10.921 16.4489 11 16.25 11H5.75C5.55109 11 5.36032 10.921 5.21967 10.7803C5.07902 10.6397 5 10.4489 5 10.25Z" fill="black"/>
</svg>
