<svg width="24" height="24" viewBox="0 0 24 24" fill="none" xmlns="http://www.w3.org/2000/svg">
<path d="M8.85002 17.4499C8.71668 17.2832 8.64585 17.0999 8.63752 16.8999C8.62918 16.6999 8.70002 16.5249 8.85002 16.3749L13.25 11.9749L8.82502 7.54991C8.69168 7.41658 8.62918 7.23741 8.63752 7.01241C8.64585 6.78741 8.71668 6.60824 8.85002 6.47491C9.01668 6.30824 9.19585 6.22908 9.38752 6.23741C9.57918 6.24574 9.75001 6.32491 9.90001 6.47491L14.875 11.4499C14.9583 11.5332 15.0167 11.6166 15.05 11.6999C15.0833 11.7832 15.1 11.8749 15.1 11.9749C15.1 12.0749 15.0833 12.1666 15.05 12.2499C15.0167 12.3332 14.9583 12.4166 14.875 12.4999L9.92502 17.4499C9.77502 17.5999 9.60001 17.6707 9.40001 17.6624C9.20001 17.6541 9.01668 17.5832 8.85002 17.4499Z" fill="#072756"/>
</svg>
