<svg width="24" height="24" viewBox="0 0 24 24" fill="none" xmlns="http://www.w3.org/2000/svg">
<path d="M6.54999 14.8251C6.39999 14.6751 6.32082 14.5001 6.31249 14.3001C6.30415 14.1001 6.37499 13.9251 6.52499 13.7751L11.475 8.8251C11.5583 8.74176 11.6417 8.68343 11.725 8.6501C11.8083 8.61676 11.9 8.6001 12 8.6001C12.1 8.6001 12.1917 8.61676 12.275 8.6501C12.3583 8.68343 12.4417 8.74176 12.525 8.8251L17.475 13.7501C17.625 13.8834 17.7 14.0543 17.7 14.2626C17.7 14.4709 17.625 14.6501 17.475 14.8001C17.325 14.9501 17.1458 15.0251 16.9375 15.0251C16.7292 15.0251 16.55 14.9501 16.4 14.8001L12 10.4251L7.59999 14.8501C7.46665 15.0001 7.29582 15.0709 7.08749 15.0626C6.87915 15.0543 6.69999 14.9751 6.54999 14.8251Z" fill="#072756"/>
</svg>
