<svg width="24" height="24" viewBox="0 0 24 24" fill="none" xmlns="http://www.w3.org/2000/svg">
<g clip-path="url(#clip0_4395_5887)">
<path d="M12 15.9844C14.2005 15.9844 15.9844 14.2005 15.9844 12C15.9844 9.79949 14.2005 8.01562 12 8.01562C9.79949 8.01562 8.01562 9.79949 8.01562 12C8.01562 14.2005 9.79949 15.9844 12 15.9844Z" fill="#2C92F2"/>
<path d="M6.73396 10.8474C7.26327 8.42705 9.42323 6.60938 12.0001 6.60938H22.728C22.1588 5.47936 21.4061 4.43541 20.4854 3.51469C18.2189 1.24823 15.2054 0 12.0001 0C8.79482 0 5.78137 1.24823 3.51482 3.51469C3.29806 3.73153 3.08952 3.95643 2.88965 4.18894L6.73396 10.8474Z" fill="#2C92F2"/>
<path d="M13.635 17.1366C13.1064 17.3051 12.5548 17.3907 12 17.3904C9.99759 17.3904 8.24681 16.2928 7.31728 14.6678C7.31053 14.6575 7.30405 14.6471 7.29783 14.6366L1.96927 5.40723C0.688172 7.34785 0 9.62082 0 11.9997C0 15.205 1.24823 18.2185 3.51469 20.485C5.25108 22.2214 7.42608 23.3592 9.78966 23.7969L13.635 17.1366Z" fill="#2C92F2"/>
<path d="M15.6267 8.01562C16.7095 9.00225 17.3902 10.4231 17.3902 12C17.3902 12.9918 17.1206 13.9216 16.6514 14.7208C16.6466 14.73 16.6425 14.7393 16.6373 14.7484L11.3076 23.9797C11.5372 23.9927 11.7678 24 11.9995 24C15.2049 24 18.2183 22.7518 20.4849 20.4853C22.7513 18.2188 23.9995 15.2053 23.9995 12C23.9995 10.6216 23.7681 9.27891 23.3247 8.01562H15.6267Z" fill="#2C92F2"/>
</g>
<defs>
<clipPath id="clip0_4395_5887">
<rect width="24" height="24" fill="white"/>
</clipPath>
</defs>
</svg>
