<svg width="24" height="24" viewBox="0 0 24 24" fill="none" xmlns="http://www.w3.org/2000/svg">
<path d="M17.7573 7.41443C18.0809 7.09086 18.0809 6.56625 17.7573 6.24268C17.4338 5.91911 16.9092 5.91911 16.5856 6.24268L12 10.8283L7.41442 6.2427C7.09085 5.91913 6.56624 5.91913 6.24268 6.2427C5.91911 6.56627 5.91911 7.09088 6.24268 7.41445L10.8282 12L6.24277 16.5855C5.9192 16.9091 5.9192 17.4337 6.24277 17.7573C6.56634 18.0809 7.09094 18.0809 7.41451 17.7573L12 13.1718L16.5855 17.7573C16.9091 18.0809 17.4337 18.0809 17.7572 17.7573C18.0808 17.4338 18.0808 16.9091 17.7572 16.5856L13.1717 12L17.7573 7.41443Z" fill="#C11F22"/>
</svg>
