<svg width="40" height="40" viewBox="0 0 40 40" fill="none" xmlns="http://www.w3.org/2000/svg">
<g clip-path="url(#clip0_26173_124364)">
<rect opacity="0.1" width="40" height="40" fill="#2C92F2"/>
<path opacity="0.4" d="M27.5 17.9707V27.0007C27.5 29.0007 27 30.0007 24.5 30.0007H15.5C13 30.0007 12.5 29.0007 12.5 27.0007L12.5 17.9707C12.66 17.9907 12.83 18.0007 13 18.0007L27 18.0007C27.17 18.0007 27.34 17.9907 27.5 17.9707Z" fill="#2C92F2"/>
<path d="M30 13V15C30 16.83 29.17 17.82 27.5 17.97C27.34 17.99 27.17 18 27 18L13 18C12.83 18 12.66 17.99 12.5 17.97C10.83 17.82 10 16.83 10 15V13C10 11 11 10 13 10L27 10C29 10 30 11 30 13Z" fill="#2C92F2"/>
<path d="M21.8197 22.75H18.1797C17.7697 22.75 17.4297 22.41 17.4297 22C17.4297 21.59 17.7697 21.25 18.1797 21.25H21.8197C22.2297 21.25 22.5697 21.59 22.5697 22C22.5697 22.41 22.2297 22.75 21.8197 22.75Z" fill="#2C92F2"/>
</g>
<defs>
<clipPath id="clip0_26173_124364">
<rect width="40" height="40" rx="8" fill="white"/>
</clipPath>
</defs>
</svg>
