<svg width="32" height="32" viewBox="0 0 32 32" fill="none" xmlns="http://www.w3.org/2000/svg">
<path opacity="0.4" d="M14.3329 3.26676C15.2529 2.48009 16.7595 2.48009 17.6929 3.26676L19.7995 5.08009C20.1995 5.42676 20.9462 5.70676 21.4795 5.70676H23.7462C25.1595 5.70676 26.3195 6.86676 26.3195 8.28009V10.5468C26.3195 11.0668 26.5995 11.8268 26.9462 12.2268L28.7595 14.3334C29.5462 15.2534 29.5462 16.7601 28.7595 17.6934L26.9462 19.8001C26.5995 20.2001 26.3195 20.9468 26.3195 21.4801V23.7468C26.3195 25.1601 25.1595 26.3201 23.7462 26.3201H21.4795C20.9595 26.3201 20.1995 26.6001 19.7995 26.9468L17.6929 28.7601C16.7729 29.5468 15.2662 29.5468 14.3329 28.7601L12.2262 26.9468C11.8262 26.6001 11.0795 26.3201 10.5462 26.3201H8.23952C6.82618 26.3201 5.66618 25.1601 5.66618 23.7468V21.4668C5.66618 20.9468 5.38618 20.2001 5.05285 19.8001L3.25285 17.6801C2.47952 16.7601 2.47952 15.2668 3.25285 14.3468L5.05285 12.2268C5.38618 11.8268 5.66618 11.0801 5.66618 10.5601V8.26676C5.66618 6.85342 6.82618 5.69342 8.23952 5.69342H10.5462C11.0662 5.69342 11.8262 5.41342 12.2262 5.06676L14.3329 3.26676Z" fill="#2C92F2"/>
<path d="M14.3864 20.2267C14.1198 20.2267 13.8664 20.12 13.6798 19.9334L10.4531 16.7067C10.0664 16.32 10.0664 15.68 10.4531 15.2934C10.8398 14.9067 11.4798 14.9067 11.8664 15.2934L14.3864 17.8134L20.1198 12.08C20.5064 11.6934 21.1464 11.6934 21.5331 12.08C21.9198 12.4667 21.9198 13.1067 21.5331 13.4934L15.0931 19.9334C14.9064 20.12 14.6531 20.2267 14.3864 20.2267Z" fill="#2C92F2"/>
</svg>
