<svg width="32" height="32" viewBox="0 0 32 32" fill="none" xmlns="http://www.w3.org/2000/svg">
<path d="M16 11.6665C15.8667 11.6665 15.7467 11.6398 15.6133 11.5865C15.24 11.4398 15 11.0665 15 10.6665V2.6665C15 2.11984 15.4533 1.6665 16 1.6665C16.5467 1.6665 17 2.11984 17 2.6665V8.25317L17.96 7.29317C18.3467 6.9065 18.9867 6.9065 19.3733 7.29317C19.76 7.67984 19.76 8.31984 19.3733 8.7065L16.7067 11.3732C16.52 11.5598 16.2533 11.6665 16 11.6665Z" fill="#2C92F2"/>
<path d="M16 11.6668C15.7467 11.6668 15.4933 11.5734 15.2933 11.3734L12.6267 8.70675C12.24 8.32009 12.24 7.68008 12.6267 7.29342C13.0133 6.90675 13.6533 6.90675 14.04 7.29342L16.7067 9.96008C17.0933 10.3468 17.0933 10.9868 16.7067 11.3734C16.5067 11.5734 16.2533 11.6668 16 11.6668Z" fill="#2C92F2"/>
<path d="M21.3333 30.3333H10.6667C3 30.3333 3 26.2667 3 22.6667V21.3333C3 18.36 3 15 9.33333 15C10.92 15 11.5067 15.3867 12.3333 16C12.3733 16.04 12.4267 16.0667 12.4667 16.12L13.8267 17.56C14.9733 18.7733 17.0533 18.7733 18.2 17.56L19.56 16.12C19.6 16.08 19.64 16.04 19.6933 16C20.52 15.3733 21.1067 15 22.6933 15C29.0267 15 29.0267 18.36 29.0267 21.3333V22.6667C29 27.76 26.4267 30.3333 21.3333 30.3333ZM9.33333 17C5 17 5 18.36 5 21.3333V22.6667C5 26.32 5 28.3333 10.6667 28.3333H21.3333C25.3067 28.3333 27 26.64 27 22.6667V21.3333C27 18.36 27 17 22.6667 17C21.7067 17 21.5067 17.12 20.9333 17.5467L19.64 18.92C18.68 19.9333 17.3867 20.4933 16 20.4933C14.6133 20.4933 13.32 19.9333 12.36 18.92L11.0667 17.5467C10.4933 17.12 10.2933 17 9.33333 17Z" fill="#2C92F2"/>
<path d="M6.66675 16.9998C6.12008 16.9998 5.66675 16.5465 5.66675 15.9998V10.6665C5.66675 8.07979 5.66675 4.86645 10.5734 4.39979C11.1201 4.34645 11.6134 4.74645 11.6667 5.30645C11.7201 5.85312 11.3201 6.34645 10.7601 6.39979C7.66675 6.67979 7.66675 7.93312 7.66675 10.6665V15.9998C7.66675 16.5465 7.21341 16.9998 6.66675 16.9998Z" fill="#2C92F2"/>
<path d="M25.3332 17.0001C24.7866 17.0001 24.3332 16.5468 24.3332 16.0001V10.6668C24.3332 7.93346 24.3332 6.68013 21.2399 6.3868C20.6932 6.33346 20.2932 5.84013 20.3466 5.29346C20.3999 4.7468 20.8799 4.33346 21.4399 4.40013C26.3466 4.8668 26.3466 8.08013 26.3466 10.6668V16.0001C26.3332 16.5468 25.8799 17.0001 25.3332 17.0001Z" fill="#2C92F2"/>
</svg>
