<svg width="32" height="32" viewBox="0 0 32 32" fill="none" xmlns="http://www.w3.org/2000/svg">
<path d="M16 11.6665C15.4533 11.6665 15 11.2132 15 10.6665V5.07982L14.04 6.03982C13.6533 6.42649 13.0133 6.42649 12.6267 6.03982C12.24 5.65316 12.24 5.01316 12.6267 4.62649L15.2933 1.95982C15.5733 1.67982 16.0133 1.58649 16.3867 1.74649C16.76 1.89316 17 2.26649 17 2.66649V10.6665C17 11.2132 16.5467 11.6665 16 11.6665Z" fill="#2C92F2"/>
<path d="M18.6668 6.33326C18.4134 6.33326 18.1601 6.23992 17.9601 6.03992L15.2934 3.37326C14.9068 2.98659 14.9068 2.34659 15.2934 1.95992C15.6801 1.57326 16.3201 1.57326 16.7068 1.95992L19.3734 4.62659C19.7601 5.01326 19.7601 5.65326 19.3734 6.03992C19.1734 6.23992 18.9201 6.33326 18.6668 6.33326Z" fill="#2C92F2"/>
<path d="M21.3333 30.3333H10.6667C3 30.3333 3 26.2667 3 22.6667V21.3333C3 18.36 3 15 9.33333 15C10.92 15 11.5067 15.3867 12.3333 16C12.3733 16.04 12.4267 16.0667 12.4667 16.12L13.8267 17.56C14.9733 18.7733 17.0533 18.7733 18.2 17.56L19.56 16.12C19.6 16.08 19.64 16.04 19.6933 16C20.52 15.3733 21.1067 15 22.6933 15C29.0267 15 29.0267 18.36 29.0267 21.3333V22.6667C29 27.76 26.4267 30.3333 21.3333 30.3333ZM9.33333 17C5 17 5 18.36 5 21.3333V22.6667C5 26.32 5 28.3333 10.6667 28.3333H21.3333C25.3067 28.3333 27 26.64 27 22.6667V21.3333C27 18.36 27 17 22.6667 17C21.7067 17 21.5067 17.12 20.9333 17.5467L19.64 18.92C18.68 19.9333 17.3867 20.4933 16 20.4933C14.6133 20.4933 13.32 19.9333 12.36 18.92L11.0667 17.5467C10.4933 17.12 10.2933 17 9.33333 17Z" fill="#2C92F2"/>
<path d="M6.66675 17C6.12008 17 5.66675 16.5466 5.66675 16V13.3333C5.66675 10.7466 5.66675 7.5333 10.5734 7.06663C11.1067 6.99996 11.6134 7.4133 11.6667 7.9733C11.7201 8.51996 11.3201 9.0133 10.7601 9.06663C7.66675 9.34663 7.66675 10.6 7.66675 13.3333V16C7.66675 16.5466 7.21341 17 6.66675 17Z" fill="#2C92F2"/>
<path d="M25.3332 17C24.7866 17 24.3332 16.5466 24.3332 16V13.3333C24.3332 10.6 24.3332 9.34663 21.2399 9.0533C20.6932 8.99997 20.2932 8.50663 20.3466 7.95997C20.3999 7.4133 20.8799 6.99997 21.4399 7.06664C26.3466 7.5333 26.3466 10.7466 26.3466 13.3333V16C26.3332 16.5466 25.8799 17 25.3332 17Z" fill="#2C92F2"/>
</svg>
