<svg width="24" height="24" viewBox="0 0 24 24" fill="none" xmlns="http://www.w3.org/2000/svg">
<path d="M18.8062 8.94401L19.3609 12.1542C19.3935 12.3424 19.3845 12.5354 19.3347 12.7197C19.2849 12.904 19.1954 13.0753 19.0725 13.2214C18.9496 13.3675 18.7962 13.4851 18.6231 13.5657C18.4501 13.6464 18.2615 13.6883 18.0705 13.6885H13.9932C13.8982 13.6886 13.8043 13.7094 13.718 13.7494C13.6318 13.7894 13.5553 13.8477 13.4938 13.9202C13.4324 13.9928 13.3874 14.0778 13.3621 14.1695C13.3368 14.2611 13.3317 14.3571 13.3473 14.4509L13.8689 17.6336C13.9532 18.1504 13.9291 18.6791 13.7981 19.186C13.7415 19.3954 13.633 19.5871 13.4827 19.7435C13.3324 19.8998 13.1451 20.0158 12.9381 20.0806L12.824 20.1176C12.5663 20.1999 12.2868 20.1808 12.0427 20.0641C11.7752 19.9351 11.5801 19.6998 11.5077 19.4205L11.1332 17.9775C11.0141 17.5182 10.8409 17.0747 10.617 16.6564C10.2897 16.045 9.78455 15.5548 9.25974 15.1024L8.12672 14.1268C7.96965 13.991 7.84697 13.82 7.76874 13.6277C7.69051 13.4354 7.65896 13.2273 7.67666 13.0205L8.31635 5.62993C8.34449 5.30321 8.49408 4.99891 8.73558 4.77707C8.97708 4.55523 9.29296 4.43197 9.62089 4.43161H13.2788C16.0177 4.43161 18.3554 6.34043 18.8054 8.94401" fill="#9098A7"/>
<path opacity="0.5" fill-rule="evenodd" clip-rule="evenodd" d="M5.19 14.2787C5.34206 14.2854 5.49081 14.233 5.60517 14.1326C5.71953 14.0321 5.79067 13.8914 5.80371 13.7398L6.56693 4.89908C6.57986 4.76743 6.56581 4.63452 6.52565 4.50848C6.48549 4.38244 6.42006 4.26591 6.33336 4.166C6.24665 4.0661 6.14049 3.98491 6.02135 3.92742C5.90222 3.86992 5.77261 3.83731 5.64045 3.83158C5.50829 3.82585 5.37635 3.84712 5.25269 3.89409C5.12902 3.94106 5.01623 4.01275 4.9212 4.10478C4.82617 4.19681 4.7509 4.30724 4.69999 4.42933C4.64907 4.55142 4.62358 4.68261 4.62506 4.81489V13.6894C4.62513 13.8415 4.68392 13.9877 4.78918 14.0975C4.89444 14.2073 5.03803 14.2722 5.19 14.2787Z" fill="#9098A7"/>
</svg>
