<svg width="17" height="16" viewBox="0 0 17 16" fill="none" xmlns="http://www.w3.org/2000/svg">
<path d="M9.29989 14.7333C9.49323 14.7333 9.68656 14.6999 9.86656 14.6333C10.6999 14.3599 11.2332 13.4399 11.0466 12.5866L10.7199 10.4866C10.7132 10.4399 10.7132 10.3733 10.7599 10.3199C10.7932 10.2866 10.8399 10.2666 10.8932 10.2666H13.5599C14.2132 10.2666 14.7799 9.99327 15.1132 9.51994C15.4399 9.05994 15.5066 8.45327 15.2932 7.8666L13.6999 3.01327C13.4532 2.0466 12.4199 1.2666 11.3532 1.2666H8.81989C8.44656 1.2666 7.63323 1.37993 7.19989 1.81327L5.17989 3.37327L5.79323 4.1666L7.85989 2.5666C8.02656 2.39993 8.44656 2.2666 8.81989 2.2666H11.3532C11.9532 2.2666 12.5999 2.7466 12.7332 3.2866L14.3466 8.1866C14.4532 8.47994 14.4332 8.7466 14.2932 8.93994C14.1466 9.1466 13.8799 9.2666 13.5532 9.2666H10.8866C10.5399 9.2666 10.2199 9.41327 9.99989 9.6666C9.77323 9.9266 9.67323 10.2733 9.72656 10.6333L10.0599 12.7733C10.1399 13.1466 9.88656 13.5666 9.52656 13.6866C9.20656 13.8066 8.77989 13.6333 8.63323 13.4199L5.89989 9.35327L5.07323 9.91327L7.80656 13.9799C8.11989 14.4466 8.71323 14.7333 9.29989 14.7333Z" fill="#232730" fill-opacity="0.38"/>
<path d="M3.41992 12.0667H4.08659C5.31992 12.0667 5.91992 11.4867 5.91992 10.3V3.76667C5.91992 2.58 5.31992 2 4.08659 2H3.41992C2.18659 2 1.58659 2.58 1.58659 3.76667V10.3C1.58659 11.4867 2.18659 12.0667 3.41992 12.0667ZM4.08659 3C4.81325 3 4.91992 3.17333 4.91992 3.76667V10.3C4.91992 10.8933 4.81325 11.0667 4.08659 11.0667H3.41992C2.69325 11.0667 2.58659 10.8933 2.58659 10.3V3.76667C2.58659 3.17333 2.69325 3 3.41992 3H4.08659Z" fill="#232730" fill-opacity="0.6"/>
</svg>
