<svg width="24" height="24" viewBox="0 0 24 24" fill="none" xmlns="http://www.w3.org/2000/svg">
<path fill-rule="evenodd" clip-rule="evenodd" d="M9 22.75H15C20.43 22.75 22.75 20.43 22.75 15V10C22.75 9.87256 22.7172 9.75189 22.6596 9.64609C22.6255 9.58191 22.582 9.52251 22.53 9.47048L14.53 1.47048C14.5138 1.455 14.497 1.44028 14.4798 1.42635C14.3492 1.31658 14.1814 1.25 14 1.25H9C3.57 1.25 1.25 3.57 1.25 9V15C1.25 20.43 3.57 22.75 9 22.75ZM13.25 2.75H9C4.39 2.75 2.75 4.39 2.75 9V15C2.75 19.61 4.39 21.25 9 21.25H15C19.61 21.25 21.25 19.61 21.25 15V10.7505H18C14.58 10.7505 13.25 9.42048 13.25 6.00048V2.75ZM14.75 6.00048V3.81048L20.19 9.25048H18C15.42 9.25048 14.75 8.58048 14.75 6.00048ZM13 13.75H7C6.59 13.75 6.25 13.41 6.25 13C6.25 12.59 6.59 12.25 7 12.25H13C13.41 12.25 13.75 12.59 13.75 13C13.75 13.41 13.41 13.75 13 13.75ZM6.25 17C6.25 17.41 6.59 17.75 7 17.75H11C11.41 17.75 11.75 17.41 11.75 17C11.75 16.59 11.41 16.25 11 16.25H7C6.59 16.25 6.25 16.59 6.25 17Z" fill="#232730" fill-opacity="0.6"/>
</svg>
