<svg width="24" height="24" viewBox="0 0 24 24" fill="none" xmlns="http://www.w3.org/2000/svg">
<path d="M13.9488 20.3165H8.51016C4.34054 20.3165 2.89024 18.8058 2.89024 14.4624V8.79719C2.89024 4.45384 4.34054 2.94311 8.51016 2.94311H12.3172V5.96457C12.3172 9.17487 13.4956 10.4968 16.6681 10.4968H19.5687V12.1963C19.5687 12.574 19.8406 12.9517 20.2938 12.9517C20.7471 12.9517 21.019 12.6684 21.019 12.1963V9.7414C21.019 9.64698 21.019 9.64698 21.019 9.55256C21.019 9.55256 21.019 9.55256 21.019 9.45813C21.019 9.36371 20.9284 9.26929 20.9284 9.26929L13.6769 1.71565C13.5862 1.62122 13.5862 1.62122 13.4956 1.62122C13.4956 1.62122 13.4956 1.62122 13.4049 1.62122C13.3143 1.62122 13.3143 1.62122 13.2236 1.62122H8.51016C3.61539 1.43238 1.43994 3.69848 1.43994 8.79719V14.4624C1.43994 19.5611 3.52475 21.8272 8.51016 21.8272H13.9488C14.3114 21.8272 14.6739 21.544 14.6739 21.0719C14.6739 20.5998 14.3114 20.3165 13.9488 20.3165ZM16.6681 8.98603C14.3114 8.98603 13.7675 8.32509 13.7675 5.96457V3.88732L18.6623 8.98603H16.6681Z" fill="#2C92F2"/>
<path d="M22.288 17.6731C22.1973 17.5787 22.016 17.4843 21.7441 17.4843H19.2061V14.8405C19.2061 14.6517 19.1154 14.4628 19.0248 14.274C18.7529 13.9907 18.2996 13.9907 18.0277 14.274C17.9371 14.3684 17.8464 14.5572 17.8464 14.8405V17.4843H15.3084C15.1271 17.4843 14.9458 17.5787 14.7645 17.6731C14.6739 17.7675 14.5833 17.9564 14.5833 18.2396C14.5833 18.5229 14.6739 18.6173 14.7645 18.8062C14.8552 18.9006 15.0365 18.995 15.3084 18.995H17.8464V21.6388C17.8464 21.8276 17.9371 22.0165 18.0277 22.2053C18.1184 22.2997 18.2996 22.3941 18.5716 22.3941C18.8435 22.3941 18.9342 22.2997 19.1154 22.2053C19.2061 22.1109 19.2967 21.922 19.2967 21.6388V18.995H21.8348C22.016 18.995 22.1973 18.9006 22.3786 18.8062C22.4693 18.7117 22.5599 18.5229 22.5599 18.2396C22.5599 17.9564 22.3786 17.862 22.288 17.6731Z" fill="#2C92F2"/>
<path d="M12.8611 12.5747C12.8611 12.197 12.5892 11.8193 12.1359 11.8193H6.69732C6.33474 11.8193 5.97217 12.1026 5.97217 12.5747C5.97217 13.0468 6.2441 13.3301 6.69732 13.3301H12.1359C12.4985 13.3301 12.8611 12.9524 12.8611 12.5747Z" fill="#2C92F2"/>
<path d="M6.69732 15.5957C6.33474 15.5957 5.97217 15.879 5.97217 16.3511C5.97217 16.8232 6.2441 17.1064 6.69732 17.1064H10.3231C10.6856 17.1064 11.0482 16.8232 11.0482 16.3511C11.0482 15.879 10.7763 15.5957 10.3231 15.5957H6.69732Z" fill="#2C92F2"/>
</svg>
