<svg width="32" height="32" viewBox="0 0 32 32" fill="none" xmlns="http://www.w3.org/2000/svg">
<g clip-path="url(#clip0_4722_120691)">
<path d="M12.0003 29.3333H20.0003C26.667 29.3333 29.3337 26.6667 29.3337 20V12C29.3337 5.33334 26.667 2.66667 20.0003 2.66667H12.0003C5.33366 2.66667 2.66699 5.33334 2.66699 12V20C2.66699 26.6667 5.33366 29.3333 12.0003 29.3333Z" stroke="#0F8BFD" stroke-width="1.5" stroke-linecap="round" stroke-linejoin="round"/>
<path d="M22.6663 3.25333V16.56C22.6663 19.1867 20.7863 20.2133 18.4797 18.8267L16.7197 17.7733C16.3197 17.5333 15.6797 17.5333 15.2797 17.7733L13.5197 18.8267C11.213 20.2 9.33301 19.1867 9.33301 16.56V3.25333" stroke="#0F8BFD" stroke-width="1.5" stroke-linecap="round" stroke-linejoin="round"/>
<path d="M12.0003 29.3333H20.0003C26.667 29.3333 29.3337 26.6667 29.3337 20V12C29.3337 5.33334 26.667 2.66667 20.0003 2.66667H12.0003C5.33366 2.66667 2.66699 5.33334 2.66699 12V20C2.66699 26.6667 5.33366 29.3333 12.0003 29.3333Z" stroke="#0F8BFD" stroke-width="1.5" stroke-linecap="round" stroke-linejoin="round"/>
<path d="M22.6663 3.25333V16.56C22.6663 19.1867 20.7863 20.2133 18.4797 18.8267L16.7197 17.7733C16.3197 17.5333 15.6797 17.5333 15.2797 17.7733L13.5197 18.8267C11.213 20.2 9.33301 19.1867 9.33301 16.56V3.25333" stroke="#0F8BFD" stroke-width="1.5" stroke-linecap="round" stroke-linejoin="round"/>
</g>
<defs>
<clipPath id="clip0_4722_120691">
<rect width="32" height="32" fill="white"/>
</clipPath>
</defs>
</svg>
