<svg width="24" height="25" viewBox="0 0 24 25" fill="none" xmlns="http://www.w3.org/2000/svg">
<path d="M20.5 11.8V7.54001C20.5 3.51001 19.56 2.5 15.78 2.5H8.22C4.44 2.5 3.5 3.51001 3.5 7.54001V18.8C3.5 21.46 4.96001 22.09 6.73001 20.19L6.73999 20.18C7.55999 19.31 8.80999 19.38 9.51999 20.33L10.53 21.68" stroke="#019BFF" stroke-width="1.5" stroke-linecap="round" stroke-linejoin="round"/>
<path d="M8 7.5H16" stroke="#019BFF" stroke-width="1.5" stroke-linecap="round" stroke-linejoin="round"/>
<path d="M9 11.5H15" stroke="#019BFF" stroke-width="1.5" stroke-linecap="round" stroke-linejoin="round"/>
<path d="M18.211 15.2703L14.671 18.8103C14.531 18.9503 14.401 19.2103 14.371 19.4003L14.181 20.7503C14.111 21.2403 14.451 21.5803 14.941 21.5103L16.291 21.3203C16.481 21.2903 16.751 21.1603 16.881 21.0203L20.421 17.4803C21.031 16.8703 21.321 16.1603 20.421 15.2603C19.531 14.3703 18.821 14.6603 18.211 15.2703Z" stroke="#019BFF" stroke-width="1.5" stroke-miterlimit="10" stroke-linecap="round" stroke-linejoin="round"/>
<path d="M17.6992 15.7803C17.9992 16.8603 18.8392 17.7003 19.9192 18.0003" stroke="#019BFF" stroke-width="1.5" stroke-miterlimit="10" stroke-linecap="round" stroke-linejoin="round"/>
</svg>
