<svg width="24" height="25" viewBox="0 0 24 25" fill="none" xmlns="http://www.w3.org/2000/svg">
<path d="M20.5 11.8V7.54001C20.5 3.51001 19.56 2.5 15.78 2.5H8.22C4.44 2.5 3.5 3.51001 3.5 7.54001V18.8C3.5 21.46 4.96001 22.09 6.73001 20.19L6.73999 20.18C7.55999 19.31 8.80999 19.38 9.51999 20.33L10.53 21.68" stroke="#019BFF" stroke-width="1.5" stroke-linecap="round" stroke-linejoin="round"/>
<path d="M8 7.5H16" stroke="#019BFF" stroke-width="1.5" stroke-linecap="round" stroke-linejoin="round"/>
<path d="M9 11.5H15" stroke="#019BFF" stroke-width="1.5" stroke-linecap="round" stroke-linejoin="round"/>
<path d="M22 18.5C22 19.25 21.79 19.96 21.42 20.56C20.73 21.72 19.46 22.5 18 22.5C16.54 22.5 15.27 21.72 14.58 20.56C14.21 19.96 14 19.25 14 18.5C14 16.29 15.79 14.5 18 14.5C20.21 14.5 22 16.29 22 18.5Z" stroke="#019BFF" stroke-width="1.5" stroke-miterlimit="10" stroke-linecap="round" stroke-linejoin="round"/>
<path d="M16.4414 18.4995L17.4314 19.4895L19.5614 17.5195" stroke="#019BFF" stroke-width="1.5" stroke-linecap="round" stroke-linejoin="round"/>
</svg>
