<svg width="24" height="24" viewBox="0 0 24 24" fill="none" xmlns="http://www.w3.org/2000/svg">
<g clip-path="url(#clip0_4395_36536)">
<path d="M11.9622 0.808594C11.9675 0.808594 11.9727 0.808594 11.9787 0.808594C13.0805 0.808594 14.1507 0.942094 15.1745 1.19334L15.083 1.17459C16.1727 1.43034 17.132 1.80084 18.0222 2.28309L17.9607 2.25234C18.899 2.76384 19.706 3.36534 20.4177 4.06284L20.4162 4.06134C21.1475 4.78434 21.7662 5.61834 22.2455 6.53709L22.2717 6.59184C22.553 7.11684 22.796 7.72734 22.97 8.36634L22.9842 8.42859C23.1507 9.00609 23.2467 9.66909 23.2467 10.3546C23.2467 10.3628 23.2467 10.3711 23.2467 10.3793V10.3778C23.2467 10.3853 23.2467 10.3943 23.2467 10.4033C23.2467 10.9613 23.168 11.5013 23.021 12.0121L23.0307 11.9708C22.7217 12.9931 22.1367 13.8541 21.362 14.4946L21.353 14.5013C20.9615 14.8253 20.5137 15.1021 20.03 15.3121L19.994 15.3263C19.697 15.4628 19.3497 15.5791 18.9875 15.6578L18.953 15.6638C18.6267 15.7411 18.2517 15.7853 17.8662 15.7853C17.6037 15.7853 17.3007 15.7761 16.9572 15.7576C16.571 15.7351 16.2162 15.6953 15.8682 15.6368L15.9267 15.6451C15.5487 15.5761 15.218 15.4853 14.9 15.3691L14.9427 15.3826C14.639 15.2708 14.3772 15.1118 14.153 14.9116L14.1552 14.9138C14.0727 14.8493 14.0015 14.7751 13.9415 14.6918L13.9392 14.6888C13.8815 14.6018 13.847 14.4946 13.8455 14.3798C13.859 14.2516 13.9137 14.1383 13.9955 14.0513C14.1027 13.9163 14.2107 13.7633 14.3105 13.6043L14.3232 13.5826C14.4522 13.3988 14.5655 13.1888 14.6532 12.9661L14.6607 12.9458C14.756 12.6976 14.8115 12.4103 14.8115 12.1103C14.8115 12.0908 14.8115 12.0721 14.8107 12.0526V12.0556C14.8107 12.0421 14.8107 12.0271 14.8107 12.0113C14.8107 11.3626 14.6727 10.7461 14.4245 10.1903L14.4357 10.2188C14.174 9.62859 13.8402 9.12084 13.4382 8.67684L13.4427 8.68134C13.031 8.22159 12.5622 7.82484 12.0455 7.49784L12.0185 7.48209C11.537 7.16784 10.9835 6.88659 10.4 6.66759L10.3407 6.64809C9.8832 6.47784 9.3402 6.33459 8.7807 6.24309L8.72895 6.23634C8.2347 6.15309 7.66545 6.10509 7.08495 6.10509C7.0827 6.10509 7.0812 6.10509 7.07895 6.10509C6.05595 6.10584 5.06895 6.25959 4.14045 6.54534L4.21095 6.52659C3.2247 6.82284 2.36745 7.26759 1.61445 7.84359L1.63395 7.82934C2.09145 6.70809 2.66145 5.74059 3.3492 4.87059L3.3297 4.89609C4.0062 4.04784 4.7847 3.31959 5.65545 2.71734L5.69145 2.69409C6.5262 2.11509 7.48995 1.63959 8.52195 1.31784L8.59695 1.29759C9.58395 0.988594 10.7195 0.810094 11.8962 0.810094C11.9157 0.810094 11.936 0.810094 11.9555 0.810094H11.9525L11.9622 0.808594ZM6.7137 16.3013C6.7137 16.3043 6.7137 16.3088 6.7137 16.3126C6.7137 17.0243 6.80595 17.7151 6.9792 18.3728L6.96645 18.3166C7.1532 19.0411 7.4037 19.6741 7.7202 20.2658L7.6977 20.2193C8.03595 20.8501 8.4222 21.3946 8.8662 21.8851L8.8602 21.8783C9.3117 22.3793 9.8232 22.8128 10.3865 23.1728L10.4165 23.1908C9.4377 23.0573 8.5527 22.8151 7.7202 22.4708L7.7922 22.4971C6.9042 22.1273 6.1392 21.6968 5.4327 21.1891L5.4672 21.2131C4.7352 20.6821 4.0962 20.0963 3.5292 19.4461L3.5172 19.4326C2.9667 18.7951 2.4747 18.0788 2.0667 17.3116L2.03595 17.2493C1.6527 16.5346 1.3287 15.7043 1.10595 14.8343L1.08945 14.7563C0.874953 13.9523 0.751953 13.0298 0.751953 12.0788C0.751953 12.0713 0.751953 12.0638 0.751953 12.0563V12.0578C0.751953 12.0473 0.751953 12.0353 0.751953 12.0226C0.751953 11.5283 0.862953 11.0603 1.0602 10.6411L1.05195 10.6606C1.2567 10.2166 1.5177 9.83559 1.8312 9.50634L1.8297 9.50784C2.1582 9.16809 2.5272 8.87034 2.92995 8.62209L2.95395 8.60784C3.31395 8.38434 3.73095 8.17584 4.16745 8.00709L4.2192 7.98909C4.6197 7.83684 5.09295 7.70934 5.58195 7.62909L5.62545 7.62309C6.06195 7.55184 6.5652 7.51134 7.07745 7.51059C7.5477 7.51134 8.0097 7.54509 8.4612 7.61034L8.40945 7.60434C8.9127 7.68909 9.35445 7.80309 9.78045 7.95009L9.7212 7.93209C10.2035 8.09709 10.6122 8.27709 11.0022 8.48784L10.958 8.46609C11.3705 8.69709 11.7267 8.95509 12.05 9.24834L12.0455 9.24384C11.813 9.24384 11.5865 9.26784 11.3675 9.31284L11.3892 9.30909C11.159 9.35934 10.955 9.43359 10.766 9.53109L10.7802 9.52434V9.50559C10.3512 9.70059 9.9807 9.93234 9.64695 10.2061L9.65595 10.1993C9.2922 10.4948 8.9697 10.8143 8.68095 11.1623L8.67195 11.1736C8.38395 11.5201 8.1147 11.9063 7.87845 12.3143L7.8567 12.3548C7.64445 12.7201 7.4397 13.1491 7.2687 13.5946L7.2477 13.6576C7.09845 14.0326 6.9627 14.4848 6.86445 14.9498L6.85395 15.0068C6.76695 15.3946 6.71595 15.8408 6.7137 16.2983V16.3013ZM21.2405 17.4916C21.335 17.4931 21.4182 17.5366 21.4745 17.6033L21.4752 17.6041C21.53 17.6671 21.5645 17.7481 21.569 17.8373C21.557 17.9528 21.5202 18.0586 21.464 18.1508L21.4655 18.1478L21.1655 18.5791L20.7627 19.0756L20.3502 19.5443C20.2192 19.7003 20.1005 19.8316 19.994 19.9381L19.7877 20.1533C19.4127 20.4931 19.0025 20.8141 18.5705 21.1036L18.5322 21.1276C18.1062 21.4178 17.615 21.7021 17.1027 21.9496L17.033 21.9803C16.577 22.2001 16.0355 22.4048 15.4745 22.5631L15.4025 22.5803C14.9345 22.7183 14.3967 22.8001 13.8402 22.8053H13.8372C13.8275 22.8053 13.8155 22.8053 13.8035 22.8053C13.2485 22.8053 12.7152 22.7093 12.2202 22.5323L12.2532 22.5428C11.7237 22.3553 11.2647 22.1078 10.8522 21.8018L10.8665 21.8116C10.4337 21.4906 10.058 21.1298 9.73245 20.7263L9.72345 20.7151C9.4062 20.3221 9.1197 19.8796 8.8812 19.4086L8.8617 19.3658C8.6442 18.9368 8.45745 18.4373 8.32845 17.9153L8.31795 17.8658C8.19945 17.3956 8.13045 16.8563 8.13045 16.3006C8.13045 16.3006 8.13045 16.3006 8.13045 16.2998C8.13045 15.6428 8.23995 15.0113 8.44245 14.4226L8.43045 14.4631C8.6502 13.8188 8.9262 13.2616 9.2637 12.7471L9.24645 12.7756C9.33645 13.3943 9.5172 13.9531 9.77595 14.4661L9.7617 14.4346C10.0325 14.9708 10.3512 15.4328 10.7225 15.8461L10.7172 15.8401C11.0967 16.2668 11.5212 16.6411 11.987 16.9591L12.011 16.9741C12.4542 17.2861 12.9597 17.5681 13.4937 17.7968L13.5485 17.8178C14.015 18.0203 14.5692 18.2011 15.143 18.3301L15.2075 18.3421C15.7137 18.4591 16.2957 18.5273 16.8927 18.5296H16.8942C16.8995 18.5296 16.9062 18.5296 16.9122 18.5296C17.63 18.5296 18.329 18.4478 18.9995 18.2926L18.9372 18.3046C19.6685 18.1426 20.3135 17.9101 20.9165 17.6078L20.8677 17.6296L21.0552 17.5358L21.2405 17.4916Z" fill="#2C92F2"/>
</g>
<defs>
<clipPath id="clip0_4395_36536">
<rect width="24" height="24" fill="white"/>
</clipPath>
</defs>
</svg>
