<svg width="26" height="26" viewBox="0 0 26 26" fill="none" xmlns="http://www.w3.org/2000/svg">
<path fill-rule="evenodd" clip-rule="evenodd" d="M12.79 25.417C15.9726 25.417 19.0249 24.1527 21.2753 21.9023C23.5258 19.6518 24.79 16.5996 24.79 13.417C24.79 10.2344 23.5258 7.18215 21.2753 4.93171C19.0249 2.68127 15.9726 1.41699 12.79 1.41699C9.60744 1.41699 6.55519 2.68127 4.30476 4.93171C2.05432 7.18215 0.790039 10.2344 0.790039 13.417C0.790039 16.5996 2.05432 19.6518 4.30476 21.9023C6.55519 24.1527 9.60744 25.417 12.79 25.417Z" stroke="#232730" stroke-linecap="round" stroke-linejoin="round"/>
<path d="M12.9989 20.8888C14.7126 20.8888 16.3561 20.208 17.5679 18.9962C18.7797 17.7845 19.4604 16.141 19.4604 14.4272H6.53735C6.53735 16.141 7.21812 17.7845 8.42989 18.9962C9.64167 20.208 11.2852 20.8888 12.9989 20.8888Z" stroke="#232730" stroke-linecap="round" stroke-linejoin="round"/>
<path d="M9.57324 9.75266V9.70044M16.2627 9.75266V9.70044" stroke="#232730" stroke-width="3" stroke-linecap="round" stroke-linejoin="round"/>
</svg>
