<svg width="64" height="64" viewBox="0 0 64 64" fill="none" xmlns="http://www.w3.org/2000/svg">
<rect width="64" height="64" rx="32" fill="#F2F4F7"/>
<path d="M32 42.75C26.07 42.75 21.25 37.93 21.25 32C21.25 26.07 26.07 21.25 32 21.25C37.93 21.25 42.75 26.07 42.75 32C42.75 37.93 37.93 42.75 32 42.75ZM32 22.75C26.9 22.75 22.75 26.9 22.75 32C22.75 37.1 26.9 41.25 32 41.25C37.1 41.25 41.25 37.1 41.25 32C41.25 26.9 37.1 22.75 32 22.75Z" fill="#232730" fill-opacity="0.6"/>
<path d="M32 33.75C31.59 33.75 31.25 33.41 31.25 33V28C31.25 27.59 31.59 27.25 32 27.25C32.41 27.25 32.75 27.59 32.75 28V33C32.75 33.41 32.41 33.75 32 33.75Z" fill="#232730" fill-opacity="0.6"/>
<path d="M32 36.9999C31.87 36.9999 31.74 36.9699 31.62 36.9199C31.5 36.8699 31.39 36.7999 31.29 36.7099C31.2 36.6099 31.13 36.5099 31.08 36.3799C31.03 36.2599 31 36.1299 31 35.9999C31 35.8699 31.03 35.7399 31.08 35.6199C31.13 35.4999 31.2 35.3899 31.29 35.2899C31.39 35.1999 31.5 35.1299 31.62 35.0799C31.86 34.9799 32.14 34.9799 32.38 35.0799C32.5 35.1299 32.61 35.1999 32.71 35.2899C32.8 35.3899 32.87 35.4999 32.92 35.6199C32.97 35.7399 33 35.8699 33 35.9999C33 36.1299 32.97 36.2599 32.92 36.3799C32.87 36.5099 32.8 36.6099 32.71 36.7099C32.61 36.7999 32.5 36.8699 32.38 36.9199C32.26 36.9699 32.13 36.9999 32 36.9999Z" fill="#232730" fill-opacity="0.6"/>
</svg>
