<svg width="24" height="24" viewBox="0 0 24 24" fill="none" xmlns="http://www.w3.org/2000/svg">
<path d="M4.87852 4.48316L15.2356 3.00417C15.294 2.99579 15.3536 3.00007 15.4102 3.01672C15.4669 3.03337 15.5193 3.06201 15.5639 3.10069C15.6085 3.13937 15.6443 3.18718 15.6688 3.2409C15.6934 3.29462 15.7061 3.35298 15.706 3.41203V20.5881C15.706 20.6471 15.6934 20.7053 15.6689 20.759C15.6444 20.8126 15.6087 20.8604 15.5642 20.8991C15.5197 20.9377 15.4674 20.9664 15.4108 20.9831C15.3543 20.9998 15.2948 21.0042 15.2364 20.9959L4.87769 19.517C4.68128 19.489 4.50156 19.3911 4.37153 19.2412C4.24151 19.0914 4.16992 18.8996 4.16992 18.7012V5.29887C4.16992 5.10048 4.24151 4.90874 4.37153 4.75889C4.50156 4.60904 4.6821 4.51114 4.87852 4.48316ZM10.9271 12.0001L13.2342 8.70426H11.2567L9.93839 10.5878L8.62007 8.70426H6.6426L8.94965 12.0001L6.6426 15.2959H8.62007L9.93839 13.4123L11.2567 15.2959H13.2342L10.9271 12.0001Z" fill="#2C92F2"/>
<path opacity="0.4" d="M19.0019 4.58459H15.7061V19.4157H19.0019C19.2204 19.4157 19.43 19.3289 19.5845 19.1744C19.739 19.0198 19.8258 18.8103 19.8258 18.5917V5.40854C19.8258 5.19002 19.739 4.98044 19.5845 4.82592C19.43 4.6714 19.2204 4.58459 19.0019 4.58459Z" fill="#2C92F2"/>
</svg>
