<svg width="24" height="24" viewBox="0 0 24 24" fill="none" xmlns="http://www.w3.org/2000/svg">
<path fill-rule="evenodd" clip-rule="evenodd" d="M7.23921 3.23068H7.25496V3.24636H7.27072V3.26205V3.27773H7.25496V3.29341H7.23921L7.22345 3.3091H7.20769L7.49135 3.65412V3.6698H7.50711V3.68549H7.52287V3.70117L7.53863 3.71685V3.73253H7.54651V3.74822H7.55439V3.7639V3.77958V3.79527V3.81095V3.84232V3.858V3.87368V3.88936V3.90505V3.92073V3.93641V3.9521V3.96778V3.98346H7.54651V3.99914H7.53863V4.01483H7.53075V4.03051H7.52287V4.05404H7.49923L7.40468 4.14813L7.38892 4.16382H7.37316V4.1795H7.34164V4.19518H7.31012V4.21086H7.23921V4.22655H7.17617V4.24223V4.25791V4.2736V4.28928V4.30496V4.32064V4.33633L7.16041 4.35985V4.37554V4.39122H7.15253V4.4069V4.42258H7.13677V4.43827H7.12101V4.45395H7.11313L7.07373 4.49316H7.05798V4.50884H7.04222V4.52452H7.01858V4.54021H6.90826V4.55589V4.57157V4.58725V4.60294V4.61862V4.64999V4.66567V4.68135V4.69703V4.71272H6.90038V4.7284H6.88462V4.74408H6.86099V4.75977H6.74279V4.77545V4.79113V4.81466V4.83034V4.86955V4.88523V4.90091V4.9166H6.73491V4.93228H6.71915V4.94796H6.70339V4.96364H6.67188V4.97933H6.5852V4.99501V5.01069V5.02638V5.04206V5.08127V5.09695V5.11263V5.12832V5.144H6.56944V5.15968L6.53004 5.20673H6.51429V5.22241H6.50641V5.2381H6.49853V5.25378H6.48277V5.26946H6.46701V5.28514H6.44337V5.30083H6.41185V5.31651H6.35669V5.33219H6.28578V5.34788V5.36356V5.37924V5.39493V5.41845V5.4655V5.48902V5.5047V5.52039V5.53607V5.55175V5.56744V5.58312V5.5988V5.61449V5.63017V5.64585V5.66153V5.67722V5.6929V5.70858V5.72427V5.73995V5.75563V5.77131V5.787V5.80268H6.2779V5.81836H6.27002V5.83405H6.26214V5.84973H6.25426L6.2385 5.87325H6.23062V5.88894H6.21486V5.91246H6.19122V5.92814H6.17546V5.94383H6.1597V5.95951H6.14395V5.97519H6.12031V5.99088H6.08879L6.06515 6.0144H6.04151V6.03008H5.99423V6.04577H5.95484L5.9312 6.06145H5.813V6.04577V6.03008V6.0144V5.99872V5.98303V5.96735H5.82876V5.94383L5.8524 5.92814L5.86816 5.90462L5.89968 5.84973L5.92332 5.80268H5.91544V5.787H5.88392V5.77131H5.8524V5.75563H5.82088L5.78937 5.73211H5.76573V5.71642H5.73421V5.70074H5.70269V5.68506H5.67117V5.66938H5.64753L5.62389 5.65369H5.59238V5.63801H5.55298L5.53722 5.62233H5.52146L5.48994 5.60664H5.45054L5.43479 5.59096H5.37175V5.57528L5.31659 5.33219V5.31651V5.29299H5.35599L5.61602 5.31651H5.65541V5.33219V5.34788V5.36356V5.37924H5.63177V5.39493H5.65541V5.41061H5.67905V5.42629H5.70269V5.44197H5.72633V5.45766H5.74997V5.47334H5.76573V5.48902H5.78149V5.5047H5.79725L5.813 5.52039L5.83664 5.54391V5.5596H5.8524V5.57528H5.86816L5.88392 5.5988V5.61449H5.89968V5.63017H5.91544V5.64585H5.92332V5.63017V5.60664V5.58312V5.5596V5.53607V5.5047V5.48118V5.45766V5.43413V5.39493V5.37924V5.36356V5.34788V5.32435V5.28514V5.26162V5.24594V5.23025V5.21457V5.19889V5.18321V5.16752V5.15184V5.13616V5.12047V5.10479H5.9312V5.08911H5.93908V5.07342H5.94696V5.05774H5.96272V5.04206H5.97848V5.02638H6.00211V5.01069H6.13607V5.02638H6.1597V5.04206H6.18334V5.05774H6.20698V5.07342H6.22274V5.08911H6.2385V5.10479H6.24638V5.12047H6.25426V5.13616H6.26214V5.15184H6.29366V5.13616H6.30154V5.12047H6.30942L6.33306 5.06558L6.39609 5.10479L6.34881 5.06558L6.38033 5.01853H6.38821V5.00285V4.98717V4.97149V4.94796V4.93228L6.36457 4.88523L6.34094 4.84602V4.83034V4.81466V4.79897V4.78329H6.34881V4.76761H6.37245V4.75192H6.41185L6.45125 4.77545H6.46701L6.48277 4.79113H6.5458L6.56156 4.76761V4.75192V4.73624V4.71272V4.69703V4.68135L6.53792 4.64999L6.51429 4.61862V4.60294V4.58725V4.57157V4.55589H6.52217V4.54021H6.57732L6.60884 4.55589L6.64824 4.57157H6.71127V4.55589H6.71915V4.54021V4.52452V4.501V4.48532V4.46963L6.69552 4.43827V4.42258L6.67188 4.4069V4.39122V4.37554V4.35985V4.34417H6.67976V4.32849H6.73491L6.77431 4.34417H6.79007L6.80583 4.35985H6.86887V4.34417H6.87675L6.90826 4.28928L6.92402 4.30496V4.28928L6.98706 4.21871H6.95554V4.20302H6.93978V4.18734H6.91614V4.17166H6.90826V4.15597H6.8925V4.14029H6.88462V4.12461H6.87675V4.10893H6.86887V4.09324V4.07756H6.86099V4.04619V4.03051V4.01483V3.99914V3.98346V3.95994V3.94425V3.88936V3.87368V3.858V3.84232V3.82663V3.81095V3.79527V3.77958H6.87675V3.7639H6.88462V3.74822H6.90038V3.73253H6.92402V3.71685H6.95554V3.70117H7.06586V3.71685H7.09737V3.73253H7.12101V3.74822H7.13677V3.7639H7.14465V3.77958H7.16041V3.79527H7.17617V3.81095H7.19193V3.82663H7.19981V3.84232H7.20769V3.858H7.21557V3.87368H7.22345V3.88936V3.90505V3.92073V3.93641V3.9521V3.96778L7.29436 3.90505H7.31012V3.88936H7.32588V3.87368H7.34164V3.858H7.3574V3.84232V3.82663V3.80311V3.78743V3.77174V3.75606H7.34952V3.74038H7.33376V3.72469H7.318V3.70901H7.29436V3.68549H7.27072L7.24709 3.65412L7.23133 3.63844L7.21557 3.62275L7.19981 3.60707L7.18405 3.59139L7.16829 3.57571L7.15253 3.56002L7.13677 3.54434L7.12101 3.52866L7.10525 3.51297L7.08949 3.49729L7.07373 3.48161H7.05798L7.04222 3.45808H7.02646L7.0107 3.43456H6.99494L6.97918 3.41104H6.96342L6.94766 3.38751L6.98706 3.14443V3.12874V3.11306H7.03434L7.27072 3.23852L7.23921 3.23068ZM6.08091 5.12047H5.98635V5.13616H5.9706V5.15184H5.96272V5.16752H5.95484V5.18321V5.19889V5.21457V5.23025V5.24594V5.31651V5.34003V5.36356V5.38708V5.41061V5.43413V5.47334L5.9706 5.45766V5.44197L5.98635 5.42629V5.41061L6.00211 5.39493V5.37924L6.01787 5.36356V5.34788L6.03363 5.33219V5.31651L6.04939 5.30083V5.2773H6.06515V5.25378H6.07303V5.2381V5.22241V5.20673V5.19105V5.16752V5.13616V5.12047H6.06515H6.08091ZM6.79795 3.4424H6.80583V3.57571H6.79007V3.59139H6.67188V3.70117H6.65612V3.71685H6.52217V3.70117V3.57571V3.56002H6.64824V3.45024H6.65612V3.43456H6.79007L6.79795 3.4424ZM7.05798 3.87368H7.03434V3.858H6.97918V3.87368H6.96342V3.88936H6.94766V3.90505H6.93978V3.92073H6.9319V3.93641V3.9521V3.96778V3.98346V3.99914H6.93978V4.01483H7.04222V3.9913H7.05798V3.97562V3.95994V3.94425V3.92857V3.90505V3.88936V3.87368ZM14.906 3.19147V3.16011V3.14443V3.12874V3.11306V3.09738H14.8981V3.08169H14.8824V3.06601H14.843V3.05033H14.8115V3.06601H14.8036V3.08169V3.09738H14.8115V3.11306H14.8272V3.12874H14.843V3.14443H14.8666V3.16011H14.8903V3.17579H14.9218L14.906 3.19147ZM15.8988 3.08169H15.891V3.09738H15.757V2.97191H15.6309V2.83861V2.82293H15.7728V2.94839H15.8988V3.08169ZM15.5127 3.35614V3.34046V3.31694V3.30125V3.28557V3.26989V3.25421H15.5049V3.23852H15.4891V3.22284H15.4576V3.20716H15.4182V3.22284V3.23852V3.25421H15.4261V3.26989H15.434V3.28557H15.4418V3.30125H15.4576V3.31694H15.4733V3.33262H15.497V3.3483H15.5049L15.5127 3.35614ZM15.5206 3.59139H15.5127L15.4891 3.6306H15.4812V3.64628H15.4655V3.66196H15.4497V3.67764H15.434V3.69333H15.4182V3.70901H15.3946V3.72469H15.3709V3.74038H15.3394V3.75606H15.2842V3.77174H15.1582V3.75606H15.1188V3.74038H15.0951V3.72469H15.0715V3.70901L15.04 3.69333H15.0321V3.67764H15.0163V3.66196H15.0006V3.64628H14.9848V3.6306L14.8981 3.56002L14.9139 3.54434L14.8824 3.52082H14.8745V3.54434H14.8509V3.56786H14.8272V3.59139H14.8036V3.60707H14.7878V3.62275H14.7642V3.63844H14.7406V3.65412H14.7248V3.6698H14.7012V3.68549H14.6775V3.70117H14.646V3.71685H14.6145V3.73253H14.5593V3.74822H14.5199V3.73253L14.2599 3.52082H14.2441V3.50513H14.2363V3.48945V3.47377V3.45808V3.4424H14.2441V3.42672H14.3623L14.4017 3.4424H14.4805L14.4963 3.45808H14.7642L14.7484 3.43456L14.7248 3.41104H14.7169V3.38751H14.6933V3.37183H14.6775V3.35614H14.6618V3.34046H14.646V3.32478H14.6381V3.3091H14.6302V3.29341V3.27773V3.26205V3.24636V3.22284V3.20716V3.19147V3.17579V3.16011V3.14443V3.12874V3.11306V3.09738H14.6381V3.08169H14.646V3.06601H14.6618V3.05033H14.6775V3.03465H14.6933V3.01896H14.709V3.00328H14.7169V2.9876H14.7406V2.96407H14.7642V2.94839H14.7799V2.93271H14.7957V2.91702H14.8115V2.90134H14.8351V2.88566H14.8666L14.8824 2.86997H14.9218V2.85429H15.0085V2.86997H15.0321V2.88566H15.0479V2.90134H15.0636V2.91702H15.0715V2.93271H15.0794V2.95623H15.0873V2.97191V2.9876V3.00328V3.01896V3.04249V3.05817V3.07385V3.08954V3.10522V3.1209V3.13658V3.15227V3.16795V3.18363V3.19932V3.215V3.23068V3.24636L15.1503 3.30125L15.1345 3.32478L15.1897 3.37967L15.2133 3.40319L15.237 3.41888L15.2527 3.43456H15.2606V3.45024H15.2764V3.46593H15.2921V3.48161H15.3079V3.49729H15.3315V3.51297H15.3473V3.52866H15.3709V3.54434H15.3946V3.56002H15.434V3.54434V3.52866H15.4261V3.51297H15.4024V3.49729H15.3867V3.48161H15.3709V3.46593H15.3473V3.45024H15.3315V3.43456H15.3079V3.41888H15.2921V3.40319H15.2764V3.38751H15.2685V3.37183V3.35614H15.2606V3.34046V3.32478V3.3091V3.29341V3.27773V3.26205V3.24636V3.23068H15.2685V3.215H15.2764V3.19932V3.18363H15.3V3.16795H15.3158V3.15227H15.3315V3.13658H15.3552V3.1209H15.3788V3.10522H15.4024V3.08954H15.434V3.07385H15.4655L15.4812 3.05817H15.6231V3.07385H15.6388V3.08954H15.6546V3.10522H15.6625V3.1209H15.6703V3.13658V3.15227V3.16795V3.18363V3.19932V3.22284V3.25421V3.26989V3.28557V3.30125V3.31694V3.34046V3.36399V3.37967V3.39535V3.41104V3.42672V3.4424V3.47377H15.6546V3.49729H15.6388V3.51297H15.6309V3.52866H15.6231V3.54434H15.6152V3.56002H15.6073V3.57571H15.5994V3.59139H15.5915V3.60707H15.5837V3.62275L15.5206 3.59139ZM14.5751 2.7994L14.5514 2.83077V2.84645H14.5357V2.86213L14.512 2.87782V2.8935H14.4963V2.90918H14.4805V2.92486H14.4648V2.94055H14.449V2.95623H14.4332V2.97191H14.4175V2.9876H14.3939V3.00328H14.3781V3.01896H14.3623V3.03465H14.3387V3.05033H14.2757V3.03465V3.01112V2.99544V2.97975V2.96407V2.94839V2.92486V2.88566L14.2914 2.86997L14.3072 2.83861L14.3229 2.80724L14.3387 2.76804L14.3545 2.72883L14.3781 2.68178L14.4017 2.63473L14.4254 2.57984L14.449 2.52495L14.4726 2.46222L14.5042 2.39949L14.5357 2.32891L14.5672 2.25834L14.8745 2.17993H14.906V2.19561V2.21129V2.22697V2.24266V2.25834V2.27402H14.8981V2.28971H14.8903V2.32107L14.8745 2.3446V2.36028L14.8587 2.3838V2.40733L14.8351 2.43085V2.45438L14.8115 2.4779V2.50143L14.7878 2.52495V2.54063L14.7642 2.56416L14.7484 2.59552L14.7248 2.62689L14.7012 2.6661L14.6775 2.71315L14.646 2.76019L14.6145 2.81508L14.5751 2.7994ZM16.2534 4.34417V4.32849V4.29712V4.28144V4.26575V4.25007V4.23439H16.2455V4.21871H16.2219V4.20302H16.1589V4.21871V4.23439V4.25007V4.26575H16.1668V4.28144H16.1746V4.29712H16.1904V4.3128H16.2061V4.32849H16.2219V4.34417H16.2455H16.2534ZM17.0965 4.26575V4.28144H16.9468V4.26575V4.11677H16.9626V4.10108H17.1123V4.11677V4.26575H17.0965ZM16.7026 4.71272H16.6947V4.7284H16.6789V4.74408H16.6632V4.75977H16.6474V4.77545H16.6316V4.79113H16.608V4.80682H16.5844V4.8225H16.5528V4.83818H16.5135V4.85386H16.3559V4.83818H16.3322V4.8225H16.3086V4.80682H16.2928L16.2771 4.79113V4.77545L16.2534 4.75977V4.74408H16.2377L16.1983 4.68919L16.1668 4.64999H16.1589V4.67351H16.1352V4.68919H16.1116V4.70488H16.088V4.72056H16.0643V4.73624H16.0407V4.75192H16.0092V4.76761H15.9776V4.78329H15.9461V4.79897H15.9067V4.81466H15.8358V4.83034H15.7885V4.81466L15.5521 4.57157H15.5443V4.55589H15.5364V4.54021V4.51668V4.501H15.5443V4.48532H15.6231L15.6388 4.501H15.6782L15.7334 4.52452H15.7728L15.8122 4.54021H15.8673L15.8831 4.55589H15.9619V4.57157H16.0564V4.54805H16.0328V4.52452H16.0092V4.501H15.9934V4.47747H15.9776V4.46179H15.9619V4.44611H15.9461V4.43043V4.41474V4.39906V4.38338V4.36769V4.33633V4.32064V4.30496V4.28928H15.954V4.2736V4.25791H15.9619V4.24223H15.9698V4.22655H15.9776V4.21086H15.9934V4.19518H16.0092V4.1795H16.0249V4.16382H16.0407V4.14813H16.0564V4.13245H16.0722V4.11677H16.088V4.10108H16.1116V4.0854H16.1352V4.06972H16.151L16.1668 4.05404H16.1904V4.03835H16.2377V4.02267H16.348V4.03835H16.3716V4.05404H16.3874V4.06972H16.4031V4.0854H16.411V4.10108H16.4189V4.11677V4.13245V4.14813V4.16382V4.1795V4.21871V4.24223V4.25791V4.2736V4.28928V4.30496V4.32064H16.411V4.33633H16.4031V4.35201V4.36769V4.38338V4.39906V4.41474L16.4583 4.47747L16.5607 4.61078H16.5686V4.62646H16.6159V4.61078V4.58725V4.56373V4.54021V4.51668V4.48532V4.46179V4.41474H16.6238V4.39906H16.6316L16.8602 4.37554H16.8838V4.39122V4.43827H16.8759V4.46179V4.48532V4.50884H16.868V4.53236H16.8602V4.56373H16.8444V4.58725H16.8365V4.60294L16.8208 4.61862V4.6343H16.805V4.64999H16.7892V4.66567H16.7735V4.68135H16.7577L16.742 4.70488H16.7341L16.7026 4.71272ZM15.9776 3.92073V3.93641H15.9619L15.9461 3.95994L15.9304 3.98346H15.9225V3.99914H15.9067V4.01483H15.891L15.8752 4.03835H15.8673L15.8358 4.06972H15.8201V4.0854H15.7964V4.10108H15.7728V4.11677H15.7491V4.13245H15.7176V4.14813H15.6546V4.13245V4.11677V4.10108V4.0854V4.06972V4.05404V4.03835V4.02267H15.6625V3.99914H15.6703V3.97562L15.6861 3.95994L15.7019 3.92857L15.7176 3.89721L15.7413 3.858L15.7649 3.81879L15.7885 3.77958L15.8201 3.73253L15.8516 3.68549L15.8831 3.6306L15.9146 3.57571L15.954 3.51297L15.9934 3.45024L16.0328 3.37967L16.348 3.3483H16.3795V3.36399V3.37967H16.3716V3.39535H16.3637V3.41104H16.3559V3.42672H16.348V3.4424H16.3401V3.45808H16.3322V3.48161L16.3086 3.49729V3.51297L16.2849 3.52866L16.2692 3.54434L16.2534 3.56002L16.2377 3.57571L16.2219 3.59139L16.2061 3.61491L16.1904 3.6306L16.1746 3.64628L16.1589 3.6698L16.1352 3.69333L16.1116 3.72469L16.0801 3.75606L16.0486 3.79527L16.0092 3.84232L15.9698 3.88936L15.9776 3.92073ZM12.9519 1.67807V1.69376L12.8337 1.77217H12.8179L12.747 1.64671V1.63102H12.7549L12.8652 1.55261H12.8889L12.9598 1.67807H12.9519ZM13.4956 2.69746V2.71315L13.3853 2.76804H13.3695L13.3222 2.65826L13.2277 2.7053H13.2119L13.1568 2.58768V2.572H13.1646L13.2671 2.51711H13.2907L13.338 2.62689L13.4325 2.57984H13.4562L13.5113 2.69746H13.4956ZM14.1102 2.44654V2.43085V2.41517V2.39949V2.3838V2.36812V2.32891V2.31323V2.29755V2.28187V2.26618V2.2505H14.0944V2.23482H14.0314V2.2505H14.0235V2.26618V2.28187V2.29755V2.31323V2.32891V2.3446V2.36028V2.40733V2.42301V2.43869V2.45438V2.47006H14.0314V2.48574H14.055V2.50143H14.0944V2.48574H14.1023V2.47006V2.45438L14.1102 2.44654ZM14.189 2.54847V2.572H14.1811V2.58768H14.1653V2.60336H14.1575V2.61905H14.1417V2.63473H14.1259V2.65041H14.1023V2.6661H14.0708V2.68178H14.0078V2.69746H13.929V2.68178H13.8974V2.6661H13.8738V2.65041H13.858V2.63473H13.8423V2.61905H13.8265V2.60336H13.8186V2.58768V2.572V2.55632V2.54063V2.51711V2.50143V2.48574H13.795V2.50143H13.7714V2.51711H13.7477V2.53279H13.6532L13.6138 2.50927H13.5901V2.49358H13.5665V2.4779H13.5507V2.46222L13.535 2.44654V2.43085H13.5271V2.41517H13.5192V2.39949V2.3838V2.36812V2.35244H13.4956V2.36812H13.4641V2.3838H13.3301L13.2671 2.36028L13.2828 2.32107H13.2592V2.30539H13.2434V2.28971H13.2356V2.31323V2.33676H13.2277V2.36028V2.3838H13.2198V2.40733H13.2119V2.42301H13.204V2.43869V2.45438H13.1883V2.47006H13.1804V2.48574H13.1646V2.50143H13.1489V2.51711H13.1331V2.53279H13.1174V2.54847H13.0937V2.56416H13.0622V2.57984H13.0228V2.59552H12.7785L12.7391 2.57984H12.6997V2.56416H12.6682V2.54847H12.6367V2.53279H12.6052V2.51711H12.5815V2.50143H12.5579V2.48574H12.5422V2.47006H12.5264V2.45438H12.5106V2.43869H12.4949V2.42301H12.487V2.40733H12.4791V2.39165V2.37596H12.4712V2.36028V2.3446V2.32891V2.31323V2.29755V2.28187V2.26618V2.20345V2.18777V2.17208V2.1564V2.14072V2.12504V2.10935V2.08583V2.0623H12.4791V2.03878H12.487V2.00741H12.5028V1.98389L12.5185 1.96821V1.95252L12.5343 1.93684V1.92116H12.5422V1.90547H12.55V1.88979H12.5658V1.87411H12.5737V1.85843V1.84274H12.5973V1.82706H12.6603V1.84274V1.85843V1.87411V1.88979V1.91332V1.929V1.94468V1.96037V1.97605H12.6525V1.99173V2.00741V2.0231V2.03878V2.05446V2.07015V2.08583V2.10151V2.11719H12.6603V2.13288H12.6682V2.14856H12.684V2.16424H12.6997V2.17993H12.7234V2.19561H12.747V2.21129H12.7785V2.22697H12.8101V2.24266H12.8495V2.25834H12.8967L12.9125 2.27402H12.9755V2.28971H13.1331V2.27402H13.1568V2.25834H13.1646V2.24266V2.22697V2.21129V2.19561V2.17993V2.16424H13.1568V2.14856V2.13288V2.11719V2.09367H13.141V2.07799H13.1331V2.0623L13.1174 2.04662V2.03094H13.1016V2.01526L13.2592 1.82706H13.2828V1.84274H13.2907V1.85843H13.2986V1.87411H13.3065V1.88979H13.3143V1.90547H13.3222V1.92116H13.3301V1.93684H13.3459V1.95252H13.3616V1.96821H13.3774V1.98389H13.401V1.99957H13.4168L13.4719 2.0231V2.0623H13.4956V2.07799H13.598V2.0623H13.6138V2.04662H13.6217V2.03094H13.6374V2.00741L13.6611 1.99173H13.6689V1.97605H13.7398V1.99173V2.08583V2.10935V2.12504V2.14072V2.1564H13.7477V2.17208H13.7714V2.18777H13.8029V2.20345L13.858 2.21913H13.8738V2.23482H13.9053V2.2505H13.9684V2.23482H13.9762V2.21913V2.20345H13.9841V2.18777H13.992V2.17208H13.9999V2.1564H14.0156V2.14072H14.0314V2.12504H14.0471V2.10935H14.0708V2.09367H14.1023V2.07799H14.2363V2.09367H14.2599V2.10935H14.2835V2.12504H14.2993V2.14072H14.3151V2.1564H14.3229V2.17993H14.3387V2.19561V2.21129V2.22697V2.24266V2.25834V2.27402V2.28971V2.30539V2.32107V2.36028V2.37596V2.39165V2.41517V2.43085V2.44654V2.46222V2.4779V2.49358V2.50927V2.52495V2.54063V2.572H14.3229L14.189 2.54847ZM18.0657 5.48902L17.8609 5.5988H17.8293L17.593 5.40277V5.44197L17.5772 5.45766V5.48902H17.5614V5.51255H17.5536V5.53607H17.5457V5.55175H17.5378V5.56744H17.5299V5.58312V5.5988H17.5142V5.61449H17.5063V5.63017H17.4984V5.64585H17.4905V5.66153H17.4748V5.67722H17.459V5.6929H17.4432V5.70858H17.4196V5.72427H17.396V5.73995H17.3723V5.75563H17.3487V5.77131H17.325V5.787H17.3093L17.2856 5.80268H17.2305V5.81836H17.1123V5.80268H17.0808V5.787H17.0571V5.77131H17.0414V5.75563H17.0256V5.73995H17.0099V5.72427H16.9941V5.70858H16.9783V5.6929H16.9626V5.67722H16.9547V5.65369H16.9389V5.63801H16.9311L16.8838 5.55175L16.8365 5.48902H16.8286L16.8129 5.5047H16.805V5.52039H16.7814V5.53607H16.7577V5.55175H16.7341V5.56744H16.7026V5.58312H16.671V5.5988H16.6238V5.61449H16.5371V5.63017H16.4662V5.61449H16.4504L16.2455 5.34003H16.2377V5.32435V5.30867V5.28514V5.26946V5.25378H16.3243L16.3401 5.2773H16.3559L16.3716 5.29299H16.3874L16.4031 5.30867L16.4425 5.32435H16.4583L16.4741 5.34003H16.4898L16.5056 5.35572H16.5213L16.5371 5.3714H16.5765L16.5922 5.38708H16.6395V5.40277H16.7183V5.37924L16.6947 5.36356V5.34788H16.6789V5.32435H16.6632V5.30083H16.6474V5.28514H16.6395V5.26946H16.6316V5.25378V5.2381V5.22241V5.20673V5.19105V5.16752V5.15184V5.13616V5.12047H16.6395V5.10479H16.6474V5.08911H16.6632V5.07342H16.6789V5.05774H16.6947V5.04206H16.7104V5.02638H16.7262V5.01069H16.742V4.99501H16.7656V4.97933H16.7892V4.96364H16.8129V4.94796H16.8444V4.93228H16.8759L16.8917 4.9166H16.9389V4.90091H17.0571V4.9166H17.0808V4.93228H17.0965V4.94796H17.1044V4.96364H17.1123V4.98717H17.1202V5.00285V5.01853V5.03422V5.0499V5.06558V5.09695V5.11263V5.12832V5.144V5.15968V5.17536H17.1123V5.19105H17.1044V5.20673H17.0965V5.22241H17.0887V5.2381H17.0808V5.26946H17.0571V5.28514H17.0414L17.0808 5.35572L17.1202 5.41061V5.42629L17.1359 5.44197V5.45766L17.1517 5.47334V5.48902H17.1675L17.1832 5.52039L17.199 5.53607V5.55175H17.2147V5.56744H17.2226V5.58312H17.2699V5.56744V5.55175V5.53607V5.52039V5.5047V5.47334V5.44982V5.41061L17.2856 5.32435V5.2381L17.5063 5.144H17.5299L17.9791 5.51255V5.52823H17.9712L18.0657 5.48902ZM16.9389 5.20673H16.9468V5.19105V5.144V5.12832V5.11263V5.09695H16.9389V5.08127H16.9232V5.06558H16.8602V5.08911V5.10479V5.12047V5.13616V5.15184H16.868V5.16752H16.8759V5.18321H16.8917V5.19889H16.9074V5.21457H16.9232L16.9389 5.20673ZM12.2427 1.35657V1.37226V1.39578H12.1639L12.1797 1.74865V1.79569V1.81922V1.84274V1.85843V1.87411V1.88979V1.90547V1.92116V1.93684V1.95252V1.96821V1.98389V1.99957H12.1718V2.01526H12.1561V2.03094H12.1403V2.04662H12.1245V2.0623H12.1088V2.07799H12.0851V2.09367H12.0457V2.10935H11.8724V2.09367H11.8409V2.07799H11.8251V2.0623H11.8094V2.04662H11.7936V2.03094H11.7857V2.01526H11.7778V1.99957H11.77V1.98389H11.7621V1.99957H11.7463V2.01526H11.7306V2.03094H11.7148V2.04662H11.699V2.0623H11.6754V2.07799H11.636V2.09367H11.502V2.07799H11.4784V2.0623H11.4627V2.04662H11.4469V2.03094H11.4311V2.01526H11.4233V1.99957H11.4154V1.97605H11.4075V1.96037H11.3996V1.94468V1.929V1.91332H11.3917V1.929H11.3839V1.94468H11.3681V1.96037H11.3445V1.97605H11.3208V1.99173H11.2263V1.97605H11.1869V1.96037H11.1475V1.94468H11.1238V1.929H11.1002V1.91332H11.0844V1.89763H11.0687V1.88195H11.0608V1.85843H11.0529V1.84274V1.80354V1.78785V1.77217V1.75649V1.7408V1.72512V1.70944V1.69376H11.0608V1.67807H11.0687V1.66239H11.0844V1.64671H11.0923V1.63102H11.116V1.61534H11.1317V1.59966H11.1475L11.1632 1.58398H11.1711L11.1869 1.56829H11.2026V1.55261H11.2263V1.53693H11.2578V1.52124H11.2893L11.2735 1.45851L11.4075 1.31737H11.439V1.33305L11.4863 1.62318V1.63887V1.65455V1.67023V1.68591V1.7016H11.4942V1.71728H11.5099V1.73296H11.6202V1.71728H11.6281V1.7016V1.68591V1.67023V1.62318L11.6124 1.27816V1.26248L11.8015 1.12917H11.8172V1.57613V1.59182V1.6075V1.62318V1.63887V1.65455V1.67023V1.68591V1.7016V1.71728H11.8251V1.73296H11.833V1.74865H11.8488V1.76433H11.9433V1.74865H11.9512V1.73296V1.71728V1.7016V1.66239V1.63887V1.59966V1.49772L11.9354 1.46635V1.41146L11.9197 1.39578V1.34873L11.9039 1.31737V1.27032L11.8881 1.25463V1.23895L12.03 1.08212H12.0379V1.06644H12.0773V1.08212L12.1797 1.34089L12.2427 1.35657ZM11.8645 0.917451V0.940975V0.9645V0.988024V1.00371V1.01939V1.03507V1.05076V1.06644H11.8566V1.08212V1.0978H11.833V1.11349H11.7542V1.0978H11.7384V1.11349V1.12917H11.7306V1.14485H11.7148V1.16054H11.6833V1.17622H11.6202V1.16054H11.6124V1.14485V1.12917V1.11349V1.06644V1.05076V1.03507V1.01155L11.6754 0.988024V1.00371V1.01939V1.03507V1.0586V1.07428H11.7148V1.0586H11.7227V1.04291V1.02723V1.01155V0.995865V0.980183V0.9645L11.7857 0.948817V1.00371V1.01939H11.833V1.00371V0.988024V0.972341V0.948817L11.8881 0.933134L11.8645 0.917451ZM11.7306 0.682207V0.69789V0.713573V0.729256V0.744939V0.760622V0.831195V0.846878V0.862561V0.878244V0.893927V0.909609V0.925292H11.7148V0.940975H11.699V0.909609V0.886085V0.862561V0.839036V0.815512V0.791988V0.768463L11.7621 0.682207H11.7306ZM11.2972 1.75649L11.2657 1.63887H11.2341V1.65455H11.2026V1.67023H11.179V1.68591H11.1553V1.7016H11.1396V1.71728V1.73296H11.1475V1.74865H11.1869V1.76433H11.2972V1.75649ZM9.84734 2.0623V2.04662H9.76855V2.0623H9.76067V2.07799V2.09367V2.10935V2.12504V2.14072V2.1564V2.17208V2.18777L9.8631 2.14072H9.87886V2.12504H9.88674V2.10935V2.09367V2.07799V2.0623V2.04662L9.84734 2.0623ZM10.1389 1.29384V1.27816L10.1862 1.16838H10.2019L10.3122 1.20758V1.22327L10.2728 1.33305H10.2492L10.1389 1.29384ZM10.1152 1.48204V1.46635L10.1625 1.35657H10.1783L10.2807 1.39578L10.328 1.286H10.3438L10.4541 1.32521H10.4619V1.34089L10.4225 1.45067H10.4068L10.2965 1.41146L10.2571 1.5134H10.2413L10.131 1.47419L10.1152 1.48204ZM10.722 1.65455V1.67023V1.68591V1.7016L10.7377 1.75649V1.77217V1.78785V1.80354V1.81922V1.84274V1.85843V1.88979V1.94468V1.96037V1.97605V1.99173V2.00741V2.0231V2.03878V2.05446H10.7299V2.07015H10.722V2.08583H10.6983V2.10151H10.6747V2.11719H10.5565V2.10151H10.525V2.08583H10.5092V2.10151V2.11719V2.13288V2.14856H10.5013V2.16424H10.4935V2.17993H10.4856V2.19561H10.4698V2.21129H10.4383V2.22697H10.3359V2.21129H10.3201V2.19561H10.3044V2.17993H10.2965V2.19561V2.21129V2.22697V2.2505H10.2886V2.26618V2.28187H10.2807V2.29755H10.265V2.31323H10.2413V2.32891H10.2177V2.35244L10.1231 2.40733H10.131L10.1468 2.42301V2.43869H10.1625V2.45438H10.1783V2.47006H10.194V2.48574V2.50143V2.51711V2.53279V2.54847V2.56416V2.58768V2.60336V2.61905V2.63473V2.65041V2.6661H10.1783V2.68178H10.1625V2.69746H10.1389V2.71315H10.1152V2.72883H10.068L10.0522 2.74451H9.94978V2.72883H9.91038V2.71315H9.87886V2.69746H9.87098L9.85522 2.68178H9.83946V2.6661H9.8237V2.65041H9.80794V2.63473H9.79218V2.61121H9.7843V2.59552H9.76855L9.68187 2.63473H9.65823V2.65041H9.62671V2.6661H9.46124V2.65041H9.42972V2.63473H9.40609V2.61905H9.38245V2.71315V2.73667V2.75235V2.76804V2.78372V2.7994V2.81508V2.83077V2.84645V2.86213V2.87782H9.37457V2.8935H9.35881V2.90918H9.34305V2.92486H9.32729V2.94055H9.31153V2.95623H9.28789V2.97191H9.25637L9.23273 2.9876H9.10666V2.97191H9.08302V2.95623H9.06726V2.94055H9.05151V2.92486H9.03575V2.90918H9.01999V2.8935H9.00423V2.87782H8.99635V2.86213H8.98847V2.84645H8.98059V2.83077H8.97271V2.81508V2.7994V2.78372V2.76804V2.75235V2.73667V2.72099V2.7053V2.68962V2.67394V2.64257V2.62689V2.61121H8.99635V2.59552H9.04363V2.61121H9.05938V2.63473H9.08302V2.65041H9.10666V2.6661H9.20122V2.65041H9.21698V2.63473H9.24061V2.61905H9.25637V2.60336H9.27213V2.58768H9.28789V2.572H9.30365V2.55632H9.31941V2.54063H9.32729V2.52495V2.50927V2.49358H9.31941L9.06726 2.30539L9.11454 2.07799V2.0623H9.13818L9.44548 2.30539H9.46124V2.32107H9.48488V2.33676H9.58732L9.63459 2.30539L9.72127 2.26618V2.2505V2.23482V2.21913V2.20345V2.16424V2.14856V2.13288V2.11719V2.09367V2.07799V2.0623V2.04662V2.03094V2.01526V1.99173H9.72915V1.97605V1.96037V1.94468V1.929H9.73703V1.91332H9.75279V1.89763H9.76855V1.88195H9.7843V1.86627H9.80794V1.85058H9.84734V1.8349H9.92614V1.85058H9.9419V1.86627H9.95765V1.88195H9.97341V1.89763H9.98129V1.91332V1.929V1.94468V1.96037V1.97605V1.99173V2.00741V2.05446V2.07015L10.0758 2.03094V2.01526L10.1231 1.99173H10.1468V1.97605H10.1625V1.96037H10.1704V1.94468V1.929V1.81922V1.80354V1.78785H10.2413V1.80354L10.2571 1.81922L10.2728 1.8349V1.85058L10.2965 1.86627H10.3122V1.88195H10.391V1.86627H10.4068V1.85058V1.8349V1.73296H10.391V1.71728V1.7016V1.68591H10.4068V1.67023H10.4619V1.68591H10.4698L10.5013 1.74865V1.76433H10.525V1.78001H10.6195V1.76433H10.6353V1.74865H10.6432V1.73296V1.71728V1.7016V1.68591V1.67023H10.6353V1.65455H10.6274V1.63887H10.6117V1.61534H10.5959V1.59182L10.6353 1.45851V1.44283H10.6511V1.45851H10.6668V1.47419H10.6747V1.48988H10.6826V1.50556H10.6905V1.52124L10.7062 1.53693V1.55261H10.722V1.56829H10.7299V1.58398V1.59966V1.61534L10.722 1.65455ZM10.0365 2.44654V2.43085H10.0207V2.41517H9.96553L9.8631 2.47006H9.87098V2.48574H9.9025V2.50143H9.9419V2.51711H10.0365V2.50143H10.0522V2.48574V2.47006V2.45438L10.0365 2.44654ZM8.69693 2.67394V2.68962V2.7053V2.72099V2.74451V2.76804V2.81508L8.71268 2.83077V2.84645V2.86997V2.90134V2.92486V2.94055V2.95623V2.97191V3.01896V3.03465V3.05033V3.06601V3.08169H8.65753V3.06601H8.64965V3.05033H8.64177V3.03465H8.63389V3.01896H8.62601V3.00328H8.61025V2.97975H8.59449V2.95623L8.56297 2.93271L8.53933 2.90134L8.51569 2.86997L8.49206 2.83077L8.46842 2.79156L8.4369 2.74451L8.40538 2.69746L8.37386 2.64257L8.33446 2.58768L8.29507 2.53279L8.25567 2.47006L8.20839 2.40733L8.29507 2.10151V2.08583V2.07015H8.31871V2.08583H8.32659V2.10151H8.33446V2.11719H8.34234V2.13288H8.35022V2.14856H8.3581V2.16424H8.36598V2.18777L8.38962 2.20345V2.21913L8.41326 2.23482V2.2505L8.4369 2.27402V2.29755L8.46054 2.32107V2.3446L8.48418 2.36812V2.3838L8.50782 2.40733L8.52357 2.43869L8.53933 2.4779L8.56297 2.51711L8.58661 2.56416L8.61025 2.61905L8.64177 2.68178L8.69693 2.67394ZM8.18475 2.94055V2.96407H8.19263V2.9876H8.20051V3.01112H8.20839V3.0268H8.21627V3.05033H8.22415V3.06601V3.08169V3.09738V3.11306V3.12874V3.14443V3.16011V3.17579V3.19147V3.20716V3.22284V3.23852V3.25421V3.26989V3.28557V3.30125V3.31694H8.21627V3.33262H8.20839V3.3483H8.20051V3.36399H8.19263V3.37967H8.17687V3.39535H8.15323V3.41104H8.1296V3.42672H8.10596L8.06656 3.46593L8.02716 3.49729H8.01928V3.51297H7.99564V3.52866H7.972V3.54434H7.94049V3.56002H7.89321V3.57571H7.79077V3.56002H7.76714V3.54434H7.7435V3.52866H7.72774V3.51297H7.71198V3.49729H7.7041V3.48161H7.68834V3.46593H7.68046V3.45024H7.67258V3.43456L7.65682 3.41888V3.40319L7.6253 3.37967L7.60167 3.3483L7.57803 3.31694L7.55439 3.28557L7.53075 3.25421L7.49923 3.22284L7.46771 3.18363L7.45195 3.16011L7.43619 3.14443L7.42043 3.12874L7.40468 3.11306L7.38892 3.09738L7.37316 3.08169V3.06601L7.34952 3.05033V3.03465H7.32588V3.01112L7.30224 2.99544V2.97975H7.28648V2.96407H7.2786V2.94839V2.93271L7.3574 2.67394V2.65826V2.64257H7.38104L7.75138 3.16011H7.75926V3.17579H7.76714V3.19147H7.7829V3.20716H7.88533L7.90109 3.18363L8.03504 3.09738H8.0508V3.08169H8.05868V3.06601V3.05033H8.0508V3.03465H8.03504V3.01896H7.99564V3.00328H7.94837V2.9876H7.88533V2.97191H7.86169V2.95623L7.87745 2.71315V2.69746H7.94049V2.71315H7.96413V2.72883H7.98776V2.74451H8.00352V2.76019H8.01928L8.03504 2.78372H8.04292V2.7994H8.05868V2.81508H8.07444V2.83077H8.0902V2.84645H8.10596V2.86213H8.12172V2.88566H8.13748V2.90918H8.15323V2.93271H8.16899L8.18475 2.94055ZM8.4369 3.48945H8.44478V3.50513L8.41326 3.64628H8.3975L8.26355 3.62275H8.25567V3.59923L8.28719 3.47377H8.29507V3.45808H8.30295L8.4369 3.48945ZM14.1969 7.60622L13.3065 9.04905L12.7707 8.1708L13.1804 6.50057L14.1969 7.60622ZM11.6833 6.9789L11.6124 8.64913L12.5106 8.02966L12.9992 6.40647L11.6754 6.98674L11.6833 6.9789ZM11.5099 6.92401L11.4942 8.67266L10.5565 8.15512L10.0837 6.4692L11.5099 6.92401ZM9.05151 7.60622L9.89462 9.20587L10.3122 8.10807L9.87098 6.57114L9.05151 7.61406V7.60622ZM7.10525 9.69989L8.62601 10.5703L8.4369 9.33918L7.32588 8.31195L7.11313 9.69989H7.10525ZM7.06586 9.80183L8.49206 10.7193L7.60167 11.229L5.9312 10.782L7.06586 9.79398V9.80183ZM6.47489 12.2562L8.22415 12.3425L7.65682 11.4328L5.94696 10.9545L6.47489 12.2484V12.2562ZM6.42761 12.4209L8.12172 12.5071L7.60167 13.3932L5.9312 13.8323L6.41973 12.4209H6.42761ZM7.15253 14.8753L8.71268 14.0911L7.76714 13.5814L6.09667 13.9343L7.14465 14.8753H7.15253ZM7.20769 15.087L8.72844 14.3263V15.3457L7.53863 16.4749L7.20769 15.087ZM9.1303 16.7337L9.91826 15.3693L8.95695 15.4634L7.7435 16.5141L9.12242 16.7415L9.1303 16.7337ZM9.25637 16.8905L10.0837 15.4634L10.7299 16.3416L10.2492 17.9962L9.24849 16.8905H9.25637ZM11.699 17.4002L11.8172 15.7692L10.919 16.3808L10.4462 17.8864L11.7069 17.4002H11.699ZM16.1825 9.48033L14.7563 10.2253L14.6696 9.22156L15.8988 8.01397L16.1825 9.48817V9.48033ZM16.2692 9.59795L14.8193 10.3115L15.7255 10.7899L17.396 10.437L16.2692 9.59795ZM16.9311 11.9896L15.3315 12.0053L15.8043 11.0721L17.3881 10.7193L16.9311 11.9974V11.9896ZM16.9311 12.1935H15.4103L15.8673 13.056L17.4826 13.5971L16.9311 12.1935ZM16.3322 14.6792L14.9533 13.7618L15.8516 13.2678L17.3566 13.6912L16.3243 14.6792H16.3322ZM16.2377 14.8517L14.9297 13.9656L14.9454 14.9615L15.9934 16.1456L16.2298 14.8596L16.2377 14.8517ZM14.4254 16.7023L13.7004 15.1732H14.7878L15.9225 16.3181L14.4254 16.7023ZM14.2599 16.7729L13.535 15.2987L13.0937 16.2553L13.4562 17.8001L14.2599 16.7729ZM11.8409 17.4237L11.9433 15.7849L12.8337 16.2632L13.2513 17.9177L11.8409 17.4237ZM12.2585 9.33918V9.56658C12.2585 9.59011 12.2427 9.63715 12.2427 9.66068C12.2427 9.69989 12.2033 9.7783 12.1639 9.80183L12.0379 9.88808C12.0379 9.88808 11.9512 9.91945 11.9039 9.91161H11.8409L11.7069 9.84103C11.7069 9.84103 11.6596 9.80183 11.6281 9.76262L11.4311 9.91161C11.3839 9.94297 11.2972 9.95866 11.242 9.95081C11.1317 9.93513 11.045 9.88808 11.0056 9.83319C10.9662 9.77046 10.9347 9.6842 10.9347 9.59795C10.9347 9.51169 10.9584 9.49601 10.9584 9.46464C10.9584 9.43328 10.9978 9.40191 11.0214 9.38623H11.1081C11.1081 9.44112 11.1317 9.50385 11.1475 9.52738C11.1711 9.57442 11.242 9.61363 11.3208 9.62931C11.3602 9.62931 11.4311 9.60579 11.4942 9.52738L11.636 9.34702H11.7306C11.7542 9.48033 11.8251 9.55874 11.9354 9.57442C11.9985 9.58226 12.0615 9.55874 12.1088 9.49601L12.1561 9.33918L12.2427 9.3235L12.2585 9.33918ZM10.1389 10.3507C8.33446 10.2409 7.79865 13.4952 10.1074 14.2401C8.87815 12.9227 8.96483 11.0251 10.1389 10.3507ZM13.1568 10.3507C14.9612 10.2409 15.497 13.4952 13.1883 14.2401C14.4175 12.9227 14.3308 11.0251 13.1568 10.3507ZM10.2728 10.5076C9.44548 10.9153 8.96483 13.1266 10.9662 14.2558C10.7614 14.491 10.4698 14.6635 10.1389 14.8047C10.5723 14.8204 11.0056 14.8047 11.4154 14.7184L11.636 15.0321L11.8566 14.7184C12.2427 14.8282 12.6525 14.8517 13.1016 14.8047C12.8179 14.7184 12.4949 14.5224 12.3609 14.2558C14.2993 12.9149 13.7241 10.7585 12.8573 10.5076C13.078 11.4564 13.4798 12.515 12.1324 13.503L12.1009 10.3743L11.6596 9.97434L11.1317 10.3429L11.179 13.5344C10.1704 12.8443 9.83946 12.1621 10.2807 10.5154L10.2728 10.5076ZM12.5264 8.21001L13.204 9.28429L14.4096 9.15883L14.4569 10.4291L15.56 10.9232L14.9691 12.0445L15.6782 13.0168L14.5987 13.6912L14.7248 14.8909L13.4483 14.938L12.9519 16.0358L11.8251 15.4477L10.848 16.1534L10.1704 15.0791L8.96483 15.1967L8.91755 13.9264L7.81441 13.4324L8.40538 12.3111L7.69622 11.3388L8.77572 10.6644L8.64965 9.46464L9.92614 9.41759L10.4225 8.31979L11.5493 8.9079L12.5264 8.20217V8.21001ZM11.8803 17.6982C11.8724 18.2628 11.8803 19.1802 11.8803 19.3841C11.6833 19.3841 11.5966 19.2586 11.5572 19.0234C11.5257 18.8038 11.5336 18.5058 11.5414 18.1373C11.5414 18.051 11.5414 17.9569 11.5414 17.8628H11.4784C11.4784 17.9569 11.4784 18.0432 11.4784 18.1295C11.4705 18.498 11.4627 18.8038 11.4942 19.0312C11.5414 19.3214 11.6439 19.4703 11.9039 19.4547C11.9906 19.5096 12.2506 19.337 12.2348 19.3135C12.2191 19.29 12.2348 17.8785 12.2348 17.8785C12.1403 17.7217 12.0063 17.659 11.8724 17.6982H11.8803ZM14.4569 7.6219L13.4247 9.11178L14.7012 8.9079L15.7334 7.83362L14.449 7.62974L14.4569 7.6219ZM17.4984 18.1373C16.4898 19.2743 14.9375 18.9214 14.3229 18.1373C15.3788 18.1373 16.4425 18.1295 17.4984 18.1373ZM17.5614 17.9883H14.2284V17.7139H14.3072L14.6066 16.5376L14.6696 16.5533L14.3702 17.7139H15.7728V16.2789H15.8358V17.7139H17.325L16.2377 14.4989L16.3007 14.4832L17.396 17.7217H17.5614V17.9962V17.9883ZM6.30154 18.1373C7.31012 19.2743 8.8624 18.9214 9.477 18.1373C8.42114 18.1373 7.3574 18.1295 6.30154 18.1373ZM6.2385 17.9883H9.57156V17.7139H9.49276L9.19334 16.5376L9.1303 16.5533L9.42972 17.7139H8.02716V16.4906H7.96413V17.7139H6.47489L7.30224 15.236L7.23921 15.2203L6.40397 17.7139H6.2385V17.9883ZM11.5099 5.5596C11.5414 5.62233 11.5966 5.67722 11.6518 5.73211C11.7542 5.65369 11.8251 5.56744 11.8566 5.47334C11.8566 5.44982 11.8645 5.43413 11.8724 5.41061C11.8724 5.40277 11.8724 5.38708 11.8724 5.37924L11.6754 5.43413H11.6596L11.4705 5.37924C11.4705 5.44981 11.4863 5.51255 11.5178 5.56744L11.5099 5.5596ZM11.6281 5.79484C11.5572 5.73211 11.5021 5.66938 11.4548 5.59096C11.4154 5.51255 11.3917 5.42629 11.4075 5.33219V5.30083H11.4469L11.6675 5.3714L11.9039 5.30867H11.9433V5.34003C11.9433 5.3714 11.9433 5.40277 11.9433 5.42629C11.9433 5.44981 11.9354 5.47334 11.9275 5.49686C11.8881 5.61449 11.8094 5.71642 11.6833 5.80268L11.6596 5.81836L11.6439 5.80268L11.6281 5.79484ZM11.502 4.99501C11.5336 5.0499 11.573 5.09695 11.6202 5.144C11.7069 5.08127 11.77 5.00285 11.7936 4.9166C11.7936 4.90091 11.8015 4.87739 11.8094 4.86171C11.8094 4.85386 11.8094 4.84602 11.8094 4.83818L11.636 4.88523H11.6202L11.4548 4.83818C11.4548 4.89307 11.4705 4.94796 11.4942 4.99501H11.502ZM11.5966 5.20673C11.5336 5.15184 11.4863 5.08911 11.4469 5.02638C11.4075 4.9558 11.3917 4.88523 11.3996 4.79113V4.75977H11.439L11.6281 4.8225L11.833 4.76761H11.8724V4.79897C11.8724 4.79897 11.8724 4.79897 11.8724 4.80682C11.8724 4.83034 11.8724 4.85386 11.8724 4.87739C11.8724 4.90091 11.8645 4.92444 11.8566 4.94012C11.8251 5.04206 11.7542 5.13616 11.636 5.21457L11.6124 5.23025L11.5966 5.21457V5.20673ZM11.5572 4.50884C11.573 4.54021 11.6045 4.57157 11.636 4.60294C11.6912 4.56373 11.7306 4.50884 11.7463 4.45395C11.7463 4.43827 11.7463 4.43043 11.7542 4.41474L11.6439 4.43827H11.6281L11.5257 4.4069C11.5257 4.43827 11.5336 4.46963 11.5493 4.501L11.5572 4.50884ZM11.6124 4.66567C11.573 4.62646 11.5336 4.58725 11.502 4.54021C11.4705 4.49316 11.4627 4.43827 11.4705 4.37554V4.34417H11.5099L11.6439 4.39122L11.7857 4.35201H11.8251V4.38338C11.8251 4.4069 11.8251 4.42258 11.8251 4.43827C11.8251 4.45395 11.8251 4.46963 11.8172 4.48532C11.7936 4.56373 11.7384 4.62646 11.6596 4.68135L11.636 4.69703L11.6202 4.68135L11.6124 4.66567ZM11.2105 5.49686L11.1947 4.39122C11.1238 4.35985 11.0608 4.29712 11.0214 4.22655C10.9978 4.18734 10.9899 4.14029 10.982 4.10108C10.982 4.05404 10.9899 4.01483 11.0135 3.97562C11.0372 3.94425 11.0844 3.91289 11.1396 3.89721C11.1553 3.858 11.1632 3.81095 11.179 3.75606C11.1947 3.69333 11.2105 3.63844 11.2263 3.59139V3.56786H11.2578C11.376 3.56786 11.4942 3.56786 11.6202 3.56786C11.7384 3.56786 11.8566 3.56786 11.9748 3.56786H11.9985V3.59139C12.0142 3.6306 12.0221 3.67764 12.0221 3.72469C12.0221 3.7639 12.0379 3.81095 12.0379 3.84232C12.1245 3.87368 12.1797 3.92857 12.2112 3.98346C12.2348 4.03051 12.2427 4.09324 12.2427 4.14029C12.2427 4.19518 12.2191 4.24223 12.1955 4.28928C12.1718 4.33633 12.1324 4.36769 12.093 4.38338L12.1167 5.5047C12.1167 5.5047 12.1245 5.5047 12.1324 5.5047C12.3215 5.41845 12.4555 5.41845 12.55 5.4655C12.5973 5.48902 12.6367 5.52823 12.6682 5.57528C12.6919 5.62233 12.7076 5.66938 12.7155 5.71642C12.7313 5.81836 12.6997 5.92814 12.6367 5.96735C12.5264 6.03792 12.424 6.12418 12.3294 6.2026C12.2348 6.28101 12.1403 6.35942 12.0221 6.43V6.7515H11.9906L11.833 6.76718H11.8015V6.4692H11.4705V6.75934H11.2735V6.39079L10.7771 6.0144C10.6353 5.90462 10.588 5.76347 10.6038 5.63801C10.6038 5.59096 10.6274 5.54391 10.6589 5.49686C10.6905 5.45766 10.722 5.42629 10.7692 5.40277C10.8717 5.34788 11.0135 5.35572 11.1711 5.45766C11.1869 5.45766 11.1947 5.47334 11.2105 5.48118V5.49686ZM11.6912 4.03051C11.6045 4.03051 11.5257 4.04619 11.4627 4.06188C11.4154 4.07756 11.3839 4.10108 11.3839 4.11677C11.3839 4.13245 11.4154 4.15597 11.4627 4.17166C11.5178 4.19518 11.6045 4.20302 11.6912 4.20302C11.7778 4.20302 11.8566 4.18734 11.9197 4.17166C11.9669 4.15597 11.9985 4.13245 11.9985 4.11677C11.9985 4.10108 11.9669 4.07756 11.9197 4.06188C11.8645 4.03835 11.7778 4.03051 11.6912 4.03051ZM11.6912 3.96778C11.7857 3.96778 11.8724 3.98346 11.9354 4.00699C12.0063 4.03051 12.0536 4.06972 12.0536 4.11677C12.0536 4.16382 12.0063 4.20302 11.9354 4.22655C11.8724 4.25007 11.7857 4.26575 11.6912 4.26575C11.5966 4.26575 11.5099 4.25007 11.4469 4.22655C11.376 4.20302 11.3287 4.16382 11.3287 4.11677C11.3287 4.06972 11.376 4.03051 11.4469 4.00699C11.5099 3.98346 11.5966 3.96778 11.6912 3.96778ZM12.1324 5.58312C12.1482 5.65369 12.1718 5.70858 12.2112 5.74779C12.2506 5.79484 12.2979 5.82621 12.353 5.84189L12.3373 5.90462C12.2664 5.88894 12.2033 5.84973 12.1639 5.79484C12.1245 5.74779 12.1009 5.6929 12.0851 5.63017C12.0379 5.66153 11.9906 5.70074 11.9512 5.73995C11.8724 5.80268 11.7936 5.87325 11.7069 5.9203L11.6912 5.93599L11.6754 5.9203C11.5887 5.87325 11.5021 5.80268 11.4154 5.72427C11.3917 5.70858 11.376 5.6929 11.3523 5.66938C11.3208 5.77132 11.2657 5.85757 11.1947 5.91246C11.179 5.92814 11.1632 5.93599 11.1396 5.94383C11.1238 5.94383 11.1002 5.95951 11.0844 5.95951V5.89678C11.1002 5.89678 11.1081 5.89678 11.1238 5.88894C11.1396 5.88894 11.1475 5.87325 11.1632 5.86541C11.2263 5.81836 11.2814 5.72427 11.3051 5.63017C11.2578 5.59096 11.2105 5.5596 11.1632 5.53607C11.0293 5.44197 10.9111 5.44197 10.8244 5.48118C10.7929 5.49686 10.7614 5.52823 10.7377 5.5596C10.7141 5.59096 10.6983 5.63017 10.6905 5.66938C10.6747 5.77132 10.7141 5.88894 10.8402 5.98303L11.3523 6.36727H11.3681V6.71229H11.439V6.42216H11.896V6.72013H11.9985V6.40647H12.0142C12.1324 6.32806 12.227 6.2418 12.3215 6.16339C12.4161 6.07713 12.5185 5.99872 12.6367 5.92814C12.6761 5.89678 12.6997 5.81052 12.6919 5.73211C12.6919 5.6929 12.6761 5.64585 12.6525 5.61449C12.6288 5.57528 12.6052 5.55175 12.5658 5.52823C12.487 5.48902 12.3688 5.48902 12.2033 5.56744C12.1876 5.57528 12.1718 5.58312 12.1561 5.5988L12.1324 5.58312ZM11.6833 5.84973L12.0773 5.54391L12.0536 4.36769V4.34417H12.0773C12.1088 4.33633 12.1403 4.30496 12.1639 4.26575C12.1797 4.23439 12.1955 4.18734 12.2033 4.14813C12.2033 4.10108 12.2033 4.06188 12.1797 4.02267C12.1561 3.97562 12.1088 3.92857 12.03 3.90505H12.0142V3.88152C12.0142 3.84232 11.9985 3.79527 11.9906 3.74822C11.9906 3.70901 11.9827 3.6698 11.9748 3.63844C11.8645 3.63844 11.7542 3.63844 11.6439 3.63844C11.5336 3.63844 11.4233 3.63844 11.3051 3.63844C11.2893 3.67764 11.2814 3.72469 11.2657 3.77174C11.2499 3.83447 11.2341 3.89721 11.2184 3.93641V3.9521H11.1947C11.1396 3.96778 11.1081 3.98346 11.0844 4.01483C11.0687 4.03835 11.0608 4.06972 11.0608 4.10108C11.0608 4.13245 11.0766 4.17166 11.0923 4.20302C11.1238 4.26575 11.1869 4.32849 11.2499 4.34417H11.2735V4.37554L11.2893 5.53607L11.6912 5.85757L11.6833 5.84973ZM5.45842 19.2273H9.71339L10.2413 19.7683L10.8638 19.1959L11.8409 20.1133L12.8337 19.1959L13.4956 19.7762L14.0235 19.2037L18.0657 19.2351C18.0263 15.6516 18.0578 11.9661 18.0184 8.39036C17.1753 6.30453 15.1976 4.21871 11.439 2.55632C8.41326 4.16382 6.59308 5.84973 5.41115 8.34331C5.49782 11.9112 5.36387 15.6751 5.45842 19.2351V19.2273ZM20.1696 21.4386H14.252L13.6217 20.8269L13.0307 21.4307L11.9118 20.5133L10.9741 21.4386L10.3044 20.8504L9.77642 21.4229H3.59097L3.60673 22.6069C3.68552 23.1009 4.1189 23.3597 4.36316 23.3362L19.4131 23.3205C19.7441 23.3048 20.0829 23.0147 20.1696 22.505V21.4307V21.4386ZM18.1918 22.7873C18.1524 22.8814 18.0972 22.9284 18.0106 22.9284C17.9239 22.9284 17.9633 22.9284 17.9397 22.9206C17.916 22.9206 17.8924 22.9049 17.8609 22.8892C17.8215 22.8657 17.7899 22.8422 17.7821 22.8186L17.8845 22.7794L17.9318 22.7559H17.9554L17.9869 22.7324C18.0184 22.7167 18.0421 22.701 18.0736 22.6697C18.1051 22.6461 18.1288 22.6148 18.1524 22.5756H17.9712C17.9712 22.5756 17.9554 22.5756 17.9475 22.5756C17.9239 22.5756 17.9081 22.552 17.9003 22.5128L17.8845 22.4501V22.3717C17.8845 22.3168 17.8845 22.2619 17.8924 22.207C17.9003 22.1521 17.916 22.1051 17.9397 22.0737C17.9633 22.0423 17.9948 22.0267 18.05 22.0188C18.0972 22.0188 18.1366 22.0345 18.1682 22.0659C18.1997 22.0894 18.2233 22.1364 18.2391 22.1992C18.2391 22.2149 18.247 22.2541 18.2548 22.3168V22.4658C18.2548 22.5912 18.2391 22.7089 18.2076 22.803L18.1918 22.7873ZM18.1524 22.3246C18.1524 22.2854 18.1366 22.2541 18.113 22.2305C18.0815 22.207 18.05 22.1913 18.0027 22.1913H17.9948C17.9791 22.1913 17.9633 22.1913 17.9554 22.2149C17.9475 22.2305 17.9397 22.2462 17.9397 22.2619C17.9397 22.2776 17.9397 22.2933 17.9554 22.309C17.9633 22.3246 17.979 22.3246 18.0027 22.3246H18.1524ZM17.6875 22.1678L17.6166 22.1521H17.4669C17.4196 22.16 17.396 22.1756 17.396 22.1913C17.396 22.207 17.4117 22.2149 17.4354 22.2305L17.5536 22.2854L17.6402 22.3325C17.656 22.3325 17.6639 22.3403 17.6639 22.3482C17.6639 22.3482 17.6796 22.356 17.6875 22.3638L17.7033 22.3795V22.4031C17.7033 22.4579 17.7033 22.505 17.6875 22.5599C17.6875 22.5834 17.6717 22.6069 17.6639 22.6305C17.656 22.6461 17.6481 22.6697 17.6323 22.6932C17.5851 22.7716 17.522 22.8265 17.4354 22.8579L17.3487 22.8735H17.2463C17.1753 22.8735 17.1202 22.8735 17.065 22.85C17.002 22.8265 16.9547 22.7794 16.9232 22.7167C16.8995 22.6697 16.8917 22.6226 16.8917 22.5677C16.8917 22.4736 16.9232 22.3717 16.9783 22.2619C17.002 22.2149 17.0256 22.1913 17.0493 22.1913C17.0729 22.1913 17.065 22.1992 17.065 22.2149C17.065 22.2305 17.065 22.2541 17.0493 22.2854C17.0335 22.3403 17.0177 22.3874 17.0177 22.4266C17.0177 22.4893 17.0414 22.5364 17.0887 22.5756C17.1123 22.5912 17.1359 22.6069 17.1753 22.6226C17.2147 22.6305 17.2541 22.6383 17.2935 22.6383C17.3329 22.6383 17.3802 22.6383 17.4196 22.6226L17.4826 22.6069C17.4984 22.6069 17.5063 22.6069 17.5142 22.5991C17.522 22.5991 17.5378 22.5912 17.5536 22.5834C17.5614 22.5834 17.5693 22.5756 17.5772 22.5677V22.5442C17.5851 22.5364 17.5772 22.5207 17.5693 22.5128C17.4432 22.4736 17.3644 22.4501 17.3329 22.4266C17.2935 22.4031 17.2699 22.3717 17.2699 22.3325C17.2699 22.2933 17.2699 22.3168 17.2699 22.309C17.2699 22.3011 17.2699 22.2854 17.2856 22.2619C17.2856 22.2384 17.3014 22.2149 17.3172 22.1835L17.3566 22.1129C17.3802 22.0737 17.4038 22.0345 17.4354 22.011C17.459 21.9875 17.4905 21.9718 17.522 21.9718C17.5772 21.9718 17.6402 22.0267 17.7111 22.1286V22.1521C17.719 22.1521 17.7111 22.1521 17.7111 22.16C17.7111 22.16 17.7111 22.16 17.7033 22.1678C17.7033 22.1678 17.6875 22.1678 17.6717 22.1756L17.6875 22.1678ZM16.7656 22.5285C16.7656 22.5442 16.7577 22.5599 16.7498 22.5677C16.742 22.5756 16.7341 22.5834 16.7262 22.5834C16.7183 22.5834 16.7104 22.5834 16.7104 22.5834C16.7104 22.5834 16.7026 22.5677 16.6947 22.5442L16.671 22.3874L16.6553 22.2305L16.6395 22.0267V21.8698C16.6395 21.8542 16.6632 21.8228 16.7104 21.7679L16.7735 21.7052L16.8208 21.666H16.8444C16.8602 21.6581 16.868 21.666 16.868 21.6973V22.011L16.8523 22.1443V22.2384C16.8444 22.2541 16.8444 22.2697 16.8365 22.2776V22.3325C16.8208 22.3717 16.8129 22.4031 16.805 22.4423L16.7735 22.5442L16.7656 22.5285ZM16.3243 21.7444L16.4347 21.6346L16.545 21.7444L16.4347 21.862L16.3243 21.7444ZM15.8437 21.8855L15.954 21.7757L16.0643 21.8855L15.954 21.9953L15.8437 21.8855ZM16.0801 21.8855L16.1904 21.7679L16.3007 21.8855L16.1904 21.9953L16.0801 21.8855ZM15.6625 21.7522L15.7728 21.6424L15.8831 21.7522L15.7728 21.8698L15.6625 21.7522ZM15.4733 22.3168C15.5521 22.3246 15.6231 22.3325 15.6703 22.3325C15.7176 22.3325 15.7807 22.3325 15.8043 22.309C15.8279 22.2933 15.8358 22.2697 15.8358 22.2384C15.8358 22.207 15.8358 22.207 15.8122 22.1913C15.7964 22.1756 15.7728 22.16 15.7413 22.16C15.7019 22.16 15.6546 22.1757 15.5915 22.207C15.5364 22.2384 15.497 22.2697 15.4655 22.3168H15.4733ZM15.1424 22.5756H15.0873C15.0636 22.5756 15.0479 22.5677 15.0321 22.5599C15.0006 22.5442 14.9769 22.5207 14.9533 22.4815L14.9375 22.4501L14.9218 22.4031C14.9218 22.3874 14.9218 22.3717 14.9218 22.356C14.9218 22.3403 14.9218 22.3325 14.9218 22.3168V21.7914C14.9218 21.7914 14.9218 21.7757 14.9375 21.7601L15.0006 21.6973L15.0636 21.6424C15.0636 21.6424 15.0715 21.6581 15.0715 21.6816L15.0557 22.1756V22.2305C15.0557 22.2462 15.0557 22.2619 15.0557 22.2776C15.0557 22.2933 15.0715 22.3011 15.0873 22.3168C15.0951 22.3168 15.1109 22.3246 15.1345 22.3325H15.3158C15.3709 22.3325 15.3946 22.3168 15.3946 22.2933L15.363 22.1051L15.3158 21.8855L15.3867 21.7679C15.4182 21.713 15.4418 21.6895 15.4497 21.6895L15.4733 21.7601L15.5206 21.8934L15.5521 21.9718C15.5521 21.9953 15.5364 22.0031 15.5127 22.0031H15.4812V22.2149C15.5521 22.1521 15.6231 22.0972 15.6861 22.0659C15.7491 22.0345 15.8043 22.011 15.8516 22.011C15.8988 22.011 15.9225 22.0188 15.9382 22.0423L15.954 22.0659L15.9698 22.0816V22.1286C15.9776 22.1443 15.9776 22.1521 15.9698 22.16C15.9698 22.16 15.9698 22.1756 15.9619 22.1992C15.9619 22.2227 15.9461 22.2462 15.9461 22.2619C15.9461 22.2619 15.9461 22.2697 15.9461 22.2776C15.9461 22.2933 15.9382 22.309 15.9304 22.3246C15.9304 22.3325 15.954 22.3403 15.9776 22.3403H16.0092C16.0643 22.3246 16.1037 22.2933 16.1116 22.2619V22.1992L16.1274 22.1521C16.1274 22.1364 16.1274 22.1286 16.1352 22.1208C16.1352 22.1129 16.151 22.1051 16.1589 22.1051C16.1668 22.1051 16.1668 22.1051 16.1746 22.1129C16.1746 22.1129 16.1825 22.1286 16.1904 22.1443C16.1904 22.1913 16.1904 22.2227 16.1904 22.2462C16.1904 22.2697 16.2061 22.2933 16.2298 22.309C16.2534 22.3246 16.2849 22.3325 16.3243 22.3325H16.4031C16.4347 22.3325 16.4662 22.3325 16.4819 22.3325C16.4977 22.3325 16.5056 22.309 16.5056 22.2854C16.5056 22.2619 16.4662 22.2227 16.3953 22.16L16.4977 21.9639C16.5292 22.0188 16.5528 22.0737 16.5686 22.1286C16.5844 22.1835 16.5922 22.2384 16.5922 22.2776C16.5922 22.3168 16.5765 22.3874 16.5607 22.4344C16.5371 22.4815 16.5056 22.5128 16.4583 22.5442C16.4425 22.5442 16.4189 22.5599 16.3874 22.5756C16.3637 22.5756 16.348 22.5756 16.3243 22.5834C16.3243 22.5834 16.3243 22.5834 16.3165 22.5834C16.2928 22.5834 16.2613 22.5677 16.2298 22.5442C16.1983 22.5207 16.1746 22.4893 16.1589 22.4423C16.1431 22.4815 16.1195 22.505 16.0958 22.5285C16.0722 22.5442 16.0486 22.5599 16.0249 22.5677C15.9934 22.5756 15.9698 22.5756 15.9461 22.5756C15.9225 22.5756 15.9067 22.5756 15.8831 22.5599C15.8437 22.5442 15.8122 22.5128 15.7807 22.4736C15.7491 22.505 15.7097 22.5285 15.6782 22.552C15.6388 22.5677 15.6073 22.5756 15.5679 22.5756H15.1424ZM14.6933 22.0816C14.6775 22.0816 14.6696 22.0894 14.6539 22.1129C14.6539 22.1208 14.6539 22.1364 14.6539 22.1443C14.6539 22.16 14.6539 22.1678 14.6539 22.1835C14.6539 22.2305 14.6618 22.2854 14.6854 22.3325C14.7012 22.3795 14.7248 22.4031 14.7484 22.4031C14.7721 22.4031 14.7721 22.3952 14.7799 22.3795C14.7878 22.3638 14.7957 22.3403 14.7957 22.309C14.7957 22.2776 14.7957 22.2541 14.7957 22.2305C14.7957 22.207 14.7878 22.1835 14.7721 22.16C14.7563 22.1129 14.7327 22.0894 14.709 22.0894L14.6933 22.0816ZM14.3151 22.5756H14.2914L14.2284 22.5364L14.1496 22.4893L14.0708 22.4501H14.0471L14.0078 22.4266C13.9841 22.4266 13.9605 22.4187 13.929 22.4187C13.8974 22.4187 13.9053 22.4187 13.8974 22.4266C13.8974 22.4266 13.8896 22.4344 13.8817 22.4423C13.8817 22.4423 13.8817 22.4501 13.8817 22.4579H13.9053C13.9526 22.4579 13.9999 22.4736 14.0471 22.4815C14.0944 22.4893 14.1259 22.505 14.1417 22.5285C14.1575 22.5442 14.1653 22.5677 14.1653 22.5991C14.1653 22.6305 14.1496 22.6853 14.1259 22.7402C14.0944 22.7951 14.055 22.8422 13.9841 22.8814C13.9211 22.9206 13.8423 22.9363 13.7477 22.9363C13.6532 22.9363 13.5429 22.9127 13.4798 22.8657C13.4168 22.8187 13.3853 22.7481 13.3853 22.654C13.3853 22.5599 13.4089 22.4658 13.4641 22.3482C13.4641 22.3403 13.4641 22.3246 13.4798 22.3168C13.4798 22.3168 13.4956 22.309 13.5035 22.309C13.5113 22.309 13.5113 22.309 13.5192 22.3168C13.5192 22.3168 13.5271 22.3325 13.5271 22.3403V22.356C13.5035 22.4266 13.4956 22.4815 13.4956 22.5207C13.4956 22.5599 13.4956 22.5912 13.5192 22.6069C13.535 22.6226 13.5586 22.6383 13.598 22.654C13.598 22.654 13.6138 22.654 13.6374 22.6618C13.6532 22.6618 13.6768 22.6697 13.6926 22.6775H13.8108C13.8502 22.6775 13.8974 22.6775 13.9368 22.6775C13.9841 22.6775 14.0156 22.6618 14.0393 22.654C14.0708 22.6461 14.0787 22.6383 14.0787 22.6305C14.0787 22.6226 14.0471 22.6148 13.9762 22.6069C13.9447 22.6069 13.9211 22.6069 13.8974 22.6069C13.8817 22.6069 13.8659 22.6069 13.858 22.5991L13.7871 22.5756C13.7792 22.5756 13.7635 22.5599 13.7477 22.5364C13.7398 22.5207 13.732 22.4972 13.732 22.4815V22.4501C13.7477 22.3638 13.7871 22.3246 13.858 22.3246H14.2599C14.2835 22.3246 14.2993 22.3246 14.3229 22.3168C14.3466 22.3168 14.3623 22.3011 14.3702 22.2933C14.386 22.2697 14.3938 22.2541 14.4017 22.2462C14.4017 22.2305 14.4096 22.2149 14.4096 22.1992C14.4175 22.1129 14.4411 22.0502 14.4805 22.011C14.512 21.9718 14.5514 21.9482 14.5987 21.9482C14.646 21.9482 14.6854 21.9639 14.7327 22.0031C14.7878 22.0502 14.8193 22.1129 14.843 22.1992L14.8587 22.2776V22.4736C14.843 22.5128 14.8193 22.5442 14.7957 22.5599C14.7642 22.5834 14.7327 22.5991 14.6933 22.5991C14.6539 22.5991 14.6618 22.5991 14.6381 22.5912C14.6224 22.5912 14.5987 22.5756 14.583 22.5599C14.5514 22.5364 14.5199 22.505 14.4963 22.4501L14.449 22.505C14.4332 22.5207 14.4096 22.5364 14.3781 22.552C14.3623 22.552 14.3466 22.5599 14.3308 22.5677H14.2914L14.3151 22.5756ZM12.9204 22.8579L13.0307 22.7402L13.1331 22.8579L13.0228 22.9676L12.9125 22.8579H12.9204ZM12.5264 22.0894C12.5106 22.0894 12.4949 22.0972 12.487 22.1129C12.4791 22.1286 12.4712 22.1521 12.4712 22.1835C12.4712 22.2305 12.4791 22.2776 12.5028 22.3325C12.5185 22.3795 12.5422 22.4109 12.5737 22.4109C12.6052 22.4109 12.5973 22.4031 12.6131 22.3795C12.6209 22.356 12.6288 22.3325 12.6288 22.3011C12.6288 22.2541 12.6209 22.207 12.6052 22.16C12.5894 22.1129 12.5658 22.0894 12.5343 22.0894H12.5264ZM11.77 22.5834C11.7857 22.6383 11.8094 22.6775 11.8409 22.7089L11.8566 22.7246L11.8803 22.7402H11.9118C11.9275 22.7481 11.9433 22.7402 11.9591 22.7324C11.9748 22.7167 11.9748 22.701 11.9748 22.6853C11.9748 22.654 11.9591 22.6305 11.9354 22.6069C11.9118 22.5834 11.8724 22.5756 11.8251 22.5756H11.7621L11.77 22.5834ZM11.7384 22.3325H11.8724C11.896 22.3325 11.9118 22.3246 11.9354 22.309C11.9512 22.3011 11.9669 22.2854 11.9748 22.2776C11.9827 22.2697 11.9906 22.2541 11.9906 22.2384C11.9906 22.2227 11.9906 22.207 11.9748 22.1992C11.9591 22.1913 11.9433 22.1835 11.9275 22.1835C11.896 22.1835 11.8566 22.1992 11.8251 22.2227C11.7936 22.2462 11.7621 22.2854 11.7463 22.3325H11.7384ZM11.636 22.5912H11.4705C11.4705 22.6069 11.4705 22.6226 11.4705 22.6461C11.4705 22.6697 11.4627 22.6932 11.4548 22.7167C11.439 22.7716 11.4311 22.803 11.4233 22.803C11.3839 22.8971 11.3287 22.9441 11.2578 22.9441C11.1869 22.9441 11.2105 22.9363 11.1711 22.9127C11.1396 22.8971 11.1002 22.8814 11.0608 22.8579L11.0056 22.8265L11.1002 22.7873L11.1711 22.7559C11.2184 22.7324 11.2657 22.7089 11.2972 22.6775C11.3287 22.654 11.3523 22.6148 11.3681 22.5834H11.1632C11.1475 22.5834 11.1317 22.5677 11.116 22.5285C11.1002 22.4815 11.1002 22.4266 11.1002 22.3717C11.1002 22.3168 11.1002 22.2619 11.116 22.2149C11.116 22.1678 11.1317 22.1208 11.1553 22.0816C11.1553 22.0816 11.1632 22.0659 11.1711 22.058C11.1711 22.058 11.1869 22.0423 11.1947 22.0345C11.2184 22.0267 11.242 22.0188 11.2657 22.0188C11.3208 22.0188 11.3681 22.0502 11.4154 22.0972C11.4548 22.1521 11.4784 22.2305 11.4784 22.3246H11.6833C11.7148 22.2149 11.77 22.1208 11.833 22.0502C11.8881 21.9875 11.9512 21.9561 12.0142 21.9561C12.0773 21.9561 12.0773 21.9718 12.1009 21.9953C12.1245 22.0188 12.1403 22.0502 12.1403 22.0894C12.1403 22.1286 12.1403 22.16 12.1167 22.1992C12.1009 22.2384 12.0694 22.2854 12.0379 22.3246H12.1403C12.1639 22.3246 12.1797 22.3246 12.2033 22.3168C12.2191 22.3168 12.2348 22.3011 12.2506 22.2933C12.2664 22.2776 12.2821 22.2462 12.29 22.1992C12.29 22.1208 12.3215 22.0502 12.353 22.0031C12.3846 21.9561 12.4318 21.9326 12.487 21.9326C12.5422 21.9326 12.5658 21.9482 12.5973 21.9796C12.6288 22.0031 12.6603 22.0502 12.6919 22.1129L12.7076 22.1443V22.1678L12.747 22.2227L12.7785 22.2697C12.8022 22.309 12.8258 22.3246 12.8416 22.3246H13.0701C13.1095 22.3246 13.141 22.3246 13.1804 22.309C13.1962 22.309 13.204 22.3011 13.2198 22.2933C13.2356 22.2854 13.2513 22.2697 13.2592 22.2541C13.2356 22.2384 13.1962 22.2227 13.1331 22.207H13.0543C13.0149 22.207 12.9913 22.2305 12.9834 22.2854C12.9834 22.2933 12.9834 22.3011 12.9755 22.309H12.9598C12.944 22.309 12.9361 22.309 12.9361 22.2933V22.1286C12.9361 22.1129 12.9519 22.0894 12.9598 22.0816C12.9755 22.0659 12.9913 22.0502 13.007 22.0502H13.1962L13.2986 22.0737L13.4089 22.0972V22.1364L13.3931 22.2227V22.2854C13.3459 22.2854 13.3143 22.3011 13.2907 22.3403L13.2119 22.4579C13.1883 22.4971 13.1568 22.5285 13.1095 22.5599C13.0858 22.5756 13.0622 22.5834 13.0228 22.5912C13.007 22.5912 12.9834 22.5912 12.9676 22.5991C12.9519 22.5991 12.9283 22.5991 12.9046 22.5991H12.8652C12.8416 22.5834 12.8179 22.5677 12.8022 22.552C12.7785 22.5364 12.7628 22.505 12.7391 22.4658C12.7155 22.5599 12.6603 22.6069 12.5894 22.6069C12.5185 22.6069 12.55 22.6069 12.5343 22.5991C12.5185 22.5991 12.5028 22.5912 12.5028 22.5834L12.4712 22.5677C12.4318 22.5442 12.4082 22.5128 12.3846 22.4736C12.3846 22.505 12.353 22.5285 12.3136 22.5599C12.2742 22.5834 12.2191 22.5991 12.1561 22.5991H12.0615C12.093 22.6305 12.1167 22.6618 12.1324 22.701C12.1482 22.7402 12.1561 22.7716 12.1561 22.803C12.1561 22.8343 12.1403 22.8657 12.1245 22.8892C12.1009 22.9127 12.0694 22.9284 12.0221 22.9284C11.9748 22.9284 11.9118 22.9049 11.8645 22.85C11.8094 22.7873 11.77 22.7089 11.7463 22.5991H11.6754L11.636 22.5912ZM11.376 22.3403C11.376 22.3011 11.3523 22.2619 11.3287 22.2384C11.3051 22.2149 11.2735 22.207 11.242 22.207H11.2105C11.2026 22.207 11.1947 22.2227 11.179 22.2384C11.179 22.2541 11.1632 22.2697 11.1632 22.2854C11.1632 22.3011 11.1632 22.3168 11.179 22.3246C11.1869 22.3325 11.2026 22.3403 11.2184 22.3403H11.3681H11.376ZM10.9584 22.5834V22.6697C10.9584 22.7638 10.9426 22.8343 10.9111 22.8814C10.8796 22.9284 10.8165 22.952 10.7299 22.952C10.6432 22.952 10.6038 22.9363 10.5171 22.9127L10.6117 22.8265L10.6905 22.7559L10.785 22.6618L10.8086 22.6305L10.8402 22.5991C10.8559 22.5756 10.8638 22.5677 10.8717 22.552V22.5285C10.8717 22.5128 10.8717 22.505 10.8559 22.4815C10.8559 22.4658 10.8244 22.4423 10.785 22.4031L10.7299 22.3482L10.8244 22.1208C10.8953 22.2305 10.9347 22.3795 10.9505 22.5599L10.9584 22.5834ZM10.4304 22.1756L10.3595 22.16H10.2098C10.1625 22.1678 10.1389 22.1835 10.1389 22.1992C10.1389 22.2149 10.1546 22.2227 10.1783 22.2384L10.3044 22.2933L10.391 22.3403C10.3989 22.3403 10.4147 22.3482 10.4147 22.356C10.4147 22.356 10.4304 22.3638 10.4383 22.3717L10.4541 22.3874V22.4109C10.4541 22.4658 10.4541 22.5128 10.4462 22.5677C10.4462 22.5912 10.4304 22.6148 10.4225 22.6383C10.4147 22.654 10.4068 22.6775 10.391 22.701C10.3438 22.7794 10.2807 22.8343 10.194 22.8657L10.1074 22.8814H10.0049C9.93402 22.8814 9.87886 22.8814 9.8237 22.8579C9.76067 22.8343 9.71339 22.7873 9.68187 22.7246C9.65823 22.6775 9.65035 22.6305 9.65035 22.5756C9.65035 22.4815 9.68187 22.3795 9.73703 22.2697C9.76067 22.2227 9.7843 22.1992 9.80794 22.1992C9.83158 22.1992 9.8237 22.207 9.8237 22.2227C9.8237 22.2384 9.8237 22.2619 9.80794 22.2933C9.79218 22.3482 9.77642 22.3952 9.77642 22.4344C9.77642 22.4972 9.80006 22.5442 9.84734 22.5834C9.87098 22.5991 9.89462 22.6148 9.93402 22.6305C9.97341 22.6383 10.0128 22.6461 10.0522 22.6461C10.0916 22.6461 10.1389 22.6461 10.1783 22.6305L10.2413 22.6148C10.2571 22.6148 10.265 22.6148 10.2807 22.6069C10.2886 22.6069 10.3044 22.5991 10.3201 22.5912C10.328 22.5912 10.3359 22.5834 10.3438 22.5756V22.552C10.3516 22.5442 10.3438 22.5285 10.3359 22.5207C10.2098 22.4815 10.131 22.4579 10.0995 22.4344C10.0601 22.4109 10.0365 22.3795 10.0365 22.3403C10.0365 22.3011 10.0365 22.3246 10.0365 22.3168C10.0365 22.309 10.0365 22.2933 10.0522 22.2697C10.0522 22.2462 10.068 22.2227 10.0837 22.1913L10.1231 22.1208C10.1468 22.0816 10.1704 22.0423 10.2019 22.0188C10.2256 21.9953 10.2571 21.9796 10.2886 21.9796C10.3438 21.9796 10.4068 22.0345 10.4777 22.1364V22.16C10.4856 22.16 10.4777 22.16 10.4777 22.1678C10.4777 22.1678 10.4777 22.1678 10.4698 22.1756C10.4698 22.1756 10.4541 22.1756 10.4383 22.1835L10.4304 22.1756ZM9.50852 22.5364C9.50852 22.552 9.50064 22.5677 9.48488 22.5756C9.477 22.5834 9.46912 22.5912 9.46124 22.5912C9.45336 22.5912 9.44548 22.5912 9.44548 22.5912C9.44548 22.5912 9.4376 22.5756 9.42972 22.552L9.40609 22.3952L9.39033 22.2384L9.37457 22.0345V21.8777C9.37457 21.862 9.39821 21.8306 9.44548 21.7757L9.50852 21.713L9.5558 21.6738H9.57944C9.5952 21.666 9.60307 21.6738 9.60307 21.7052V22.0188L9.58732 22.1521V22.2462C9.57944 22.2619 9.57944 22.2776 9.57156 22.2854V22.3403C9.5558 22.3795 9.54792 22.4109 9.54004 22.4501L9.50852 22.552V22.5364ZM8.57085 22.5834C8.51569 22.5834 8.4763 22.5677 8.4369 22.5364C8.40538 22.505 8.38962 22.4501 8.38962 22.3874C8.30295 22.5285 8.21627 22.5991 8.13748 22.5991C8.05868 22.5991 8.0508 22.5756 8.01928 22.5285C7.98776 22.4815 7.972 22.4187 7.972 22.356C8.02716 22.356 8.05868 22.3403 8.08232 22.3168C8.08232 22.3168 8.09808 22.3011 8.10596 22.2776C8.10596 22.2619 8.11384 22.2384 8.11384 22.2227C8.11384 22.1756 8.09808 22.1286 8.06656 22.0737C8.03504 22.0188 7.99564 21.9718 7.94837 21.9482L8.01928 21.7444C8.01928 21.7365 8.02716 21.7287 8.03504 21.7287H8.0508L8.26355 21.9169V21.9404C8.26355 21.9561 8.26355 21.9639 8.23991 21.9639H8.18475C8.19263 21.9953 8.20051 22.0188 8.20839 22.0423C8.20839 22.0659 8.20839 22.0894 8.20839 22.1129C8.20839 22.1913 8.18475 22.2697 8.13748 22.3403C8.20051 22.3403 8.24779 22.3246 8.28719 22.2854C8.32659 22.2462 8.35022 22.1913 8.35022 22.1208L8.32659 21.8306L8.44478 21.7052C8.45266 21.7052 8.46054 21.6895 8.46842 21.6895H8.4763V22.1364L8.49206 22.2541C8.49206 22.2697 8.50782 22.2854 8.51569 22.309C8.52357 22.3168 8.53933 22.3246 8.54721 22.3325C8.54721 22.3325 8.55509 22.3325 8.56297 22.3325H8.66541C8.72844 22.3325 8.77572 22.309 8.79148 22.2854C8.79936 22.2697 8.80724 22.2227 8.80724 22.16C8.80724 22.0972 8.81512 22.1208 8.83088 22.1208C8.84664 22.1208 8.85452 22.1286 8.85452 22.1521C8.85452 22.207 8.85452 22.2462 8.87815 22.2776C8.89391 22.309 8.90967 22.3246 8.92543 22.3246C8.94119 22.3246 8.96483 22.309 8.98059 22.2776C8.99635 22.2462 9.00423 22.207 9.00423 22.16C9.00423 22.1129 9.01211 22.1208 9.02787 22.1208C9.04363 22.1208 9.05151 22.1364 9.05151 22.16C9.05151 22.2149 9.06726 22.2541 9.07514 22.2776C9.0909 22.3168 9.10666 22.3325 9.13818 22.3325C9.18546 22.3325 9.21698 22.3246 9.21698 22.309C9.21698 22.2933 9.21698 22.2854 9.19334 22.2697C9.17758 22.2541 9.16182 22.2462 9.13818 22.2305L9.2091 22.0894L9.21698 22.0816C9.21698 22.0816 9.21698 22.0816 9.22486 22.0894C9.24061 22.1364 9.25637 22.1756 9.26425 22.2227C9.26425 22.2541 9.26425 22.2697 9.26425 22.2854C9.26425 22.2933 9.26425 22.3011 9.26425 22.3168C9.26425 22.3795 9.25637 22.4344 9.23273 22.4893C9.2091 22.5364 9.18546 22.5756 9.15394 22.5912C9.13818 22.5991 9.12242 22.5991 9.10666 22.5991C9.0909 22.5991 9.06726 22.5991 9.04363 22.5756C9.01999 22.5599 9.00423 22.5442 8.98847 22.5128C8.98059 22.5442 8.96483 22.5599 8.94119 22.5756C8.91755 22.5912 8.89391 22.5912 8.87028 22.5912C8.84664 22.5912 8.83088 22.5912 8.81512 22.5677C8.79936 22.552 8.79148 22.5364 8.7836 22.5128C8.76784 22.5442 8.7442 22.5677 8.72056 22.5756C8.69692 22.5834 8.65753 22.5912 8.61025 22.5912H8.53145L8.57085 22.5834ZM7.72774 22.0894C7.71198 22.0894 7.7041 22.0972 7.68834 22.1208C7.68834 22.1286 7.68834 22.1443 7.68834 22.1521C7.68834 22.1678 7.68834 22.1756 7.68834 22.1913C7.68834 22.2384 7.69622 22.2933 7.71986 22.3403C7.73562 22.3874 7.75926 22.4109 7.7829 22.4109C7.80653 22.4109 7.80653 22.4031 7.81441 22.3874C7.82229 22.3717 7.83017 22.3482 7.83017 22.3168C7.83017 22.2854 7.83017 22.2619 7.83017 22.2384C7.83017 22.2149 7.82229 22.1913 7.80653 22.1678C7.79077 22.1208 7.76714 22.0972 7.7435 22.0972L7.72774 22.0894ZM7.34952 22.5834H7.32588L7.26284 22.5442L7.18405 22.4971L7.10525 22.4579H7.08161L7.04222 22.4344C7.01858 22.4344 6.99494 22.4266 6.96342 22.4266C6.9319 22.4266 6.93978 22.4266 6.9319 22.4344C6.9319 22.4344 6.92402 22.4423 6.92402 22.4501C6.92402 22.4501 6.92402 22.4579 6.92402 22.4658H6.94766C6.99494 22.4658 7.04222 22.4815 7.08949 22.4893C7.13677 22.4972 7.16829 22.5128 7.18405 22.5364C7.19981 22.552 7.20769 22.5756 7.20769 22.6069C7.20769 22.6383 7.19193 22.6932 7.16829 22.7481C7.13677 22.803 7.09737 22.85 7.02646 22.8892C6.96342 22.9284 6.88462 22.9441 6.79007 22.9441C6.69552 22.9441 6.5852 22.9206 6.52217 22.8735C6.45913 22.8265 6.42761 22.7559 6.42761 22.6618C6.42761 22.5677 6.45125 22.4736 6.50641 22.356C6.50641 22.3482 6.50641 22.3325 6.52217 22.3246C6.52217 22.3246 6.53792 22.3168 6.5458 22.3168C6.55368 22.3168 6.55368 22.3168 6.56156 22.3246C6.56156 22.3246 6.56944 22.3403 6.56944 22.3482V22.3638C6.5458 22.4344 6.53792 22.4893 6.53792 22.5285C6.53792 22.5677 6.53792 22.5991 6.56156 22.6148C6.57732 22.6305 6.60096 22.6461 6.64036 22.6618C6.64036 22.6618 6.65612 22.6618 6.67976 22.6697C6.69552 22.6697 6.71915 22.6775 6.73491 22.6853H6.85311C6.8925 22.6853 6.93978 22.6853 6.97918 22.6853C7.02646 22.6853 7.05798 22.6697 7.08161 22.6618C7.11313 22.654 7.12101 22.6461 7.12101 22.6383C7.12101 22.6305 7.08949 22.6226 7.01858 22.6148C6.98706 22.6148 6.96342 22.6148 6.93978 22.6148C6.92402 22.6148 6.90826 22.6148 6.90038 22.6069L6.82947 22.5834C6.82159 22.5834 6.80583 22.5677 6.79795 22.5442C6.79007 22.5285 6.78219 22.505 6.78219 22.4893V22.4579C6.79795 22.3717 6.83735 22.3325 6.90826 22.3325H7.31012C7.33376 22.3325 7.34952 22.3325 7.37316 22.3246C7.3968 22.3246 7.41256 22.309 7.42043 22.3011C7.43619 22.2776 7.44407 22.2619 7.45195 22.2541C7.45195 22.2384 7.45983 22.2227 7.45983 22.207C7.46771 22.1208 7.49135 22.058 7.53075 22.0188C7.56227 21.9796 7.60167 21.9561 7.64894 21.9561C7.69622 21.9561 7.73562 21.9718 7.7829 22.011C7.83805 22.058 7.86957 22.1208 7.89321 22.207L7.90897 22.2854V22.4815C7.89321 22.5207 7.86957 22.552 7.84593 22.5677C7.81441 22.5912 7.7829 22.6069 7.7435 22.6069C7.7041 22.6069 7.71198 22.6069 7.68834 22.5991C7.67258 22.5991 7.64894 22.5834 7.63318 22.5677C7.60167 22.5442 7.57015 22.5128 7.54651 22.4579L7.49923 22.5128C7.48347 22.5285 7.45983 22.5442 7.42832 22.5599C7.41256 22.5599 7.3968 22.5677 7.38104 22.5756H7.34164L7.34952 22.5834ZM6.30942 22.5364C6.30942 22.552 6.30154 22.5677 6.28578 22.5756C6.2779 22.5834 6.27002 22.5912 6.26214 22.5912C6.25426 22.5912 6.24638 22.5912 6.24638 22.5912C6.24638 22.5912 6.2385 22.5756 6.23062 22.552L6.20698 22.3952L6.19122 22.2384L6.17546 22.0345V21.8777C6.17546 21.862 6.1991 21.8306 6.24638 21.7757L6.30942 21.713L6.35669 21.6738H6.38033C6.39609 21.666 6.40397 21.6738 6.40397 21.7052V22.0188L6.38821 22.1521V22.2462C6.38033 22.2619 6.38033 22.2776 6.37245 22.2854V22.3403C6.35669 22.3795 6.34881 22.4109 6.34094 22.4501L6.30942 22.552V22.5364ZM5.76573 22.85L5.87604 22.7402L5.98635 22.85L5.87604 22.9598L5.76573 22.85ZM5.99423 22.85L6.10455 22.7402L6.21486 22.85L6.10455 22.9598L5.99423 22.85ZM5.86816 22.5912H5.72633V22.7716C5.72633 22.7951 5.72633 22.8108 5.71845 22.8343C5.70269 22.8735 5.67905 22.8971 5.64753 22.9206C5.61601 22.9441 5.56874 22.952 5.5057 22.952C5.44266 22.952 5.38751 22.9441 5.30083 22.9206L5.37963 22.85L5.52934 22.7089L5.62389 22.6148C5.64753 22.5834 5.65541 22.5599 5.65541 22.5442C5.65541 22.5285 5.65541 22.5128 5.63965 22.505C5.63965 22.4893 5.61602 22.4658 5.57662 22.4344L5.5057 22.3717L5.60026 22.1443L5.63965 22.2149C5.65541 22.2462 5.67117 22.2697 5.68693 22.2854C5.70269 22.3011 5.71845 22.309 5.74997 22.3246C5.77361 22.3325 5.813 22.3403 5.86028 22.3403H5.94696C5.97848 22.3403 6.00999 22.3403 6.02575 22.3325C6.04151 22.3325 6.04939 22.309 6.04939 22.2854C6.04939 22.2619 6.00999 22.2227 5.93908 22.16L6.04151 21.9639C6.07303 22.0188 6.09667 22.0737 6.11243 22.1286C6.12819 22.1835 6.13607 22.2384 6.13607 22.2776C6.13607 22.3168 6.12819 22.3874 6.10455 22.4344C6.08091 22.4815 6.04939 22.5128 6.00211 22.5442C5.98635 22.5442 5.96272 22.5599 5.9312 22.5756C5.90756 22.5756 5.8918 22.5756 5.86816 22.5834V22.5912ZM5.159 22.5442C5.159 22.5599 5.15112 22.5756 5.13536 22.5834C5.12748 22.5912 5.1196 22.5991 5.11172 22.5991C5.10384 22.5991 5.09596 22.5991 5.09596 22.5991C5.09596 22.5991 5.08808 22.5834 5.0802 22.5599L5.05657 22.4031L5.04081 22.2462L5.02505 22.0423V21.8855C5.02505 21.8698 5.04869 21.8385 5.09596 21.7836L5.159 21.7208L5.20628 21.6816H5.22992C5.24568 21.6738 5.25356 21.6816 5.25356 21.713V22.0267L5.2378 22.16V22.2541C5.22992 22.2697 5.22992 22.2854 5.22204 22.2933V22.3482C5.20628 22.3874 5.1984 22.4187 5.19052 22.4579L5.159 22.5599V22.5442ZM4.85958 22.1835C4.93837 22.2619 4.97777 22.356 4.97777 22.4736C4.97777 22.5912 4.96989 22.5912 4.94625 22.654C4.92261 22.7089 4.8911 22.7638 4.84382 22.803C4.8123 22.8343 4.76502 22.8579 4.71774 22.8814C4.69411 22.8892 4.67047 22.8971 4.64683 22.9049C4.62319 22.9049 4.59955 22.9127 4.57591 22.9127C4.51288 22.9127 4.45772 22.8971 4.41044 22.8735C4.36316 22.85 4.31589 22.8108 4.28437 22.7638C4.25285 22.7167 4.23709 22.654 4.23709 22.5756C4.23709 22.4971 4.23709 22.4893 4.25285 22.4423C4.26073 22.3952 4.28437 22.3403 4.30801 22.2854C4.31589 22.2697 4.33165 22.2619 4.34741 22.2541C4.36316 22.2541 4.37104 22.2697 4.37104 22.2933V22.3246L4.34741 22.3795V22.4423C4.34741 22.505 4.36316 22.552 4.41044 22.5912C4.4262 22.6069 4.45772 22.6148 4.48924 22.6226C4.52076 22.6305 4.56015 22.6383 4.59167 22.6383C4.62319 22.6383 4.67047 22.6383 4.71774 22.6226C4.76502 22.6226 4.8123 22.5991 4.84382 22.5756L4.85958 22.5599L4.88322 22.5364V22.5207L4.86746 22.4971L4.75714 22.3795L4.8517 22.1913L4.85958 22.1835ZM19.1925 21.7601L19.3028 21.6503L19.4131 21.7601L19.3028 21.8777L19.1925 21.7601ZM19.1689 22.5912V22.3403H19.2555C19.2871 22.3403 19.3186 22.3403 19.3343 22.3403C19.3501 22.3403 19.358 22.3168 19.358 22.2933C19.358 22.2697 19.3186 22.2305 19.2477 22.1678L19.3501 21.9718C19.3816 22.0267 19.4053 22.0816 19.421 22.1364C19.4368 22.1913 19.4446 22.2462 19.4446 22.2854C19.4446 22.3246 19.4289 22.3952 19.4131 22.4423C19.3895 22.4893 19.358 22.5207 19.3107 22.552C19.2949 22.552 19.2713 22.5677 19.2398 22.5834C19.224 22.5834 19.2004 22.5834 19.1846 22.5912C19.1846 22.5912 19.1846 22.5912 19.1767 22.5912H19.1689ZM18.7906 22.8108L18.901 22.701L19.0113 22.8108L18.901 22.9284L18.7906 22.8108ZM19.027 22.8108L19.1373 22.701L19.2477 22.8108L19.1373 22.9206L19.027 22.8108ZM18.8064 22.3403C18.8064 22.3403 18.8064 22.3403 18.8143 22.3403H18.8222C18.8773 22.3246 18.9167 22.2933 18.9325 22.2541V22.1913L18.9482 22.1443C18.9482 22.1286 18.9482 22.1208 18.9561 22.1129C18.9561 22.1051 18.9719 22.0972 18.9798 22.0972C18.9876 22.0972 18.9876 22.0972 18.9955 22.1051C18.9955 22.1051 19.0034 22.1208 19.0113 22.1364C19.0113 22.1835 19.0113 22.2149 19.0113 22.2384C19.0113 22.2619 19.027 22.2854 19.0507 22.3011C19.0743 22.3168 19.1058 22.3246 19.1452 22.3246V22.5756C19.1452 22.5756 19.1452 22.5756 19.1373 22.5756C19.1137 22.5756 19.0822 22.5599 19.0507 22.5442C19.0192 22.5207 18.9955 22.4893 18.9798 22.4423C18.964 22.4815 18.9404 22.505 18.9167 22.5285C18.8931 22.5442 18.8694 22.5599 18.8458 22.5677H18.704V22.7559C18.704 22.7794 18.704 22.7951 18.6961 22.8186C18.6803 22.8579 18.6567 22.8814 18.6252 22.9049C18.5937 22.9284 18.5464 22.9363 18.4833 22.9363C18.4203 22.9363 18.3651 22.9284 18.2785 22.9049L18.3573 22.8343L18.507 22.6932L18.6015 22.5991C18.6252 22.5677 18.6331 22.5442 18.6331 22.5285C18.6331 22.5128 18.6331 22.4972 18.6173 22.4893C18.6173 22.4736 18.5937 22.4501 18.5543 22.4187L18.4833 22.356L18.5779 22.1286L18.6173 22.1992C18.6331 22.2305 18.6488 22.2541 18.6646 22.2697C18.6803 22.2854 18.6961 22.2933 18.7276 22.309M18.767 22.309C18.767 22.309 18.767 22.309 18.7749 22.309H18.767ZM4.37892 22.3403L4.51288 22.207L4.64683 22.3403L4.51288 22.4815L4.37892 22.3403ZM19.2477 17.8236C19.4919 18.1451 19.8307 18.1216 19.8701 17.6982C19.6338 17.212 19.3186 16.6553 18.9325 16.3887C18.3809 17.6511 19.7756 19.5644 19.2477 17.8158V17.8236ZM19.3816 15.4555C19.6259 15.777 19.8307 15.73 19.8701 15.3144C19.6338 14.8282 19.3186 14.2715 18.9325 14.0048C18.4518 14.985 19.8938 17.0473 19.3816 15.4555ZM19.2477 13.0482C19.9017 13.7696 20.2956 12.6169 18.9088 11.5426C18.3336 12.4993 19.6416 14.6557 19.2477 13.0482ZM19.2634 10.6252C19.5077 10.9467 19.8229 10.9624 19.8701 10.5389C19.6338 10.0528 19.1295 9.38623 18.7434 9.11962C18.0106 9.8724 19.7756 12.1307 19.2634 10.6252ZM18.8616 8.41389C19.7598 8.66481 19.1689 7.41802 17.9475 6.9789C18.0027 8.31195 19.3107 9.50385 18.8616 8.41389ZM19.9489 17.3453C19.7362 17.2512 19.6495 17.0865 19.7047 16.8513C19.4762 16.9297 19.3343 16.7886 19.2713 16.4357C19.5313 16.0672 19.7914 15.6123 20.1853 15.4163C20.3823 16.0985 20.1381 17.2042 19.9411 17.3453H19.9489ZM19.9489 14.9145C19.7362 14.8204 19.6495 14.6557 19.7047 14.4204C18.7512 14.7576 19.7992 13.0247 20.2405 12.7973C20.4454 13.4795 20.1381 14.7733 19.9411 14.9145H19.9489ZM19.7047 11.9425C19.4762 12.021 19.3343 11.9425 19.2713 11.5818C19.5313 11.2133 19.7914 10.6487 20.1853 10.4527C20.6502 11.9425 19.5077 13.1109 19.7047 11.9504V11.9425ZM19.9805 9.95081C19.752 10.0763 19.5392 9.8724 19.6416 9.33918C18.6882 10.0214 19.4289 7.87283 19.6732 7.64542C20.3114 8.27274 20.1381 9.77046 19.9805 9.95081ZM19.1925 7.24551C19.1689 7.81794 18.6803 7.50428 18.7197 7.12005C18.2627 7.7552 18.3336 6.09281 18.4124 5.86541C18.9719 6.31238 19.2634 7.01811 19.1925 7.24551ZM4.48136 17.8472C4.23709 18.1687 3.89827 18.1451 3.85887 17.7217C4.09526 17.2355 4.41044 16.6788 4.79654 16.4122C5.34811 17.6747 3.95343 19.588 4.48136 17.8393V17.8472ZM4.34741 15.479C4.10314 15.8005 3.89827 15.7535 3.85887 15.3379C4.09526 14.8517 4.41044 14.295 4.79654 14.0284C5.27719 15.0086 3.83523 17.0709 4.34741 15.479ZM4.48136 13.0717C3.82735 13.7931 3.43338 12.6404 4.82018 11.5662C5.39539 12.5228 4.08738 14.6792 4.48136 13.0717ZM4.4656 10.6487C4.22133 10.9702 3.90615 10.9859 3.85887 10.5624C4.09526 10.0763 4.59955 9.40975 4.98565 9.14314C5.71845 9.89592 3.95343 12.1543 4.4656 10.6487ZM4.86746 8.43741C3.96919 8.68834 4.56015 7.44155 5.78149 7.00242C5.72633 8.33547 4.41832 9.52737 4.86746 8.43741ZM3.78008 17.3688C3.99283 17.2747 4.07162 17.1101 4.02434 16.8748C4.25285 16.9532 4.39468 16.8121 4.45772 16.4592C4.19769 16.0907 3.93767 15.6359 3.54369 15.4398C3.3467 16.122 3.59097 17.2277 3.78796 17.3688H3.78008ZM3.78008 14.938C3.99283 14.8439 4.07162 14.6792 4.02434 14.444C4.97777 14.7812 3.92979 13.0482 3.48853 12.8208C3.29154 13.503 3.59097 14.7968 3.78796 14.938H3.78008ZM4.02434 11.9661C4.25285 12.0445 4.39468 11.9661 4.45772 11.6054C4.19769 11.2368 3.93767 10.6722 3.54369 10.4762C3.0788 11.9661 4.22133 13.1344 4.02434 11.9739V11.9661ZM3.74856 9.97434C3.97707 10.0998 4.18193 9.89592 4.08738 9.3627C5.04081 10.0449 4.30013 7.89635 4.05586 7.66895C3.41762 8.29626 3.59097 9.79398 3.74856 9.97434ZM4.53651 7.26903C4.56015 7.84146 5.04869 7.5278 5.00929 7.14357C5.4663 7.77873 5.39539 6.11634 5.31659 5.88894C4.75714 6.3359 4.4656 7.04163 4.53651 7.26903ZM14.7169 20.0663C13.992 20.0898 14.0156 20.6936 14.6224 20.6622C14.6381 20.7015 19.1846 20.7171 19.224 20.7015C19.6338 20.7171 19.5156 20.129 19.358 20.1133C20.0514 19.3292 20.2405 18.7176 20.2326 17.9491C19.4919 18.3961 18.901 19.1881 18.7434 19.9095C18.8931 19.9644 19.2477 19.7762 19.4604 19.6115C19.4683 19.6821 19.3265 19.9957 19.1689 20.0663H14.7169ZM9.05938 20.0663C9.7843 20.0898 9.76067 20.6936 9.15394 20.6622C9.13818 20.7015 4.59167 20.7171 4.55227 20.7015C4.14254 20.7171 4.26073 20.129 4.41832 20.1133C3.72492 19.3292 3.53581 18.7176 3.54369 17.9491C4.28437 18.3961 4.87534 19.1881 5.03293 19.9095C4.88322 19.9644 4.52864 19.7762 4.31589 19.6115C4.30801 19.6821 4.44984 19.9957 4.60743 20.0663H9.05938ZM12.5185 21.6581L12.4161 21.564C12.4161 21.564 12.4161 21.5562 12.4082 21.5405C12.4082 21.5327 12.4082 21.5248 12.4161 21.517L12.5185 21.415C12.5185 21.415 12.5343 21.4072 12.5422 21.4072C12.55 21.4072 12.5579 21.4072 12.5658 21.415L12.6682 21.517C12.6682 21.517 12.6761 21.5327 12.6761 21.5405C12.6761 21.5483 12.6761 21.5562 12.6682 21.564L12.5658 21.666C12.5658 21.666 12.5579 21.666 12.5422 21.6738C12.5343 21.6738 12.5264 21.6738 12.5185 21.666V21.6581ZM12.03 21.1876V21.1719C12.03 21.1719 12.03 21.1719 12.0379 21.1719C12.0379 21.1719 12.0457 21.1719 12.0536 21.1719C12.0851 21.2033 12.1088 21.2347 12.1324 21.2739L12.1639 21.3288C12.1639 21.3366 12.1718 21.3523 12.1797 21.3601C12.1797 21.368 12.1876 21.3837 12.1955 21.3915L12.2348 21.3131C12.2506 21.2896 12.2664 21.266 12.2821 21.2347L12.2979 21.2111L12.3136 21.1955L12.3452 21.1641H12.3609H12.3688V21.2974C12.353 21.3209 12.3215 21.3523 12.2979 21.3915C12.2821 21.4229 12.2585 21.4621 12.2427 21.517C12.2348 21.5483 12.2191 21.5954 12.2112 21.6424C12.2112 21.6503 12.2033 21.6581 12.1955 21.6581C12.1876 21.6581 12.1876 21.6581 12.1797 21.6424C12.1718 21.5719 12.1482 21.5091 12.1167 21.4542C12.0851 21.3915 12.0457 21.3445 12.0063 21.3131L12.03 21.1798V21.1876ZM11.5651 21.3131L11.6281 21.1798H11.6518C11.6754 21.219 11.699 21.2425 11.7227 21.2425C11.7463 21.2425 11.7621 21.2268 11.7857 21.1955C11.7857 21.1876 11.8015 21.1798 11.8094 21.1798C11.8094 21.1798 11.8172 21.1798 11.8251 21.1955C11.8251 21.2111 11.8409 21.219 11.8488 21.2268C11.8566 21.2268 11.8645 21.2347 11.8803 21.2347C11.896 21.2347 11.9039 21.2347 11.9118 21.219C11.9197 21.219 11.9275 21.2033 11.9354 21.1876C11.9354 21.1876 11.9433 21.1798 11.9512 21.1798C11.9591 21.1798 11.9512 21.1798 11.9591 21.1798C11.9591 21.1798 11.9591 21.1798 11.9591 21.1955V21.219C11.9591 21.2582 11.9512 21.2974 11.9275 21.3366C11.9039 21.368 11.8803 21.3915 11.8566 21.3915C11.833 21.3915 11.8409 21.3915 11.8409 21.3915C11.8409 21.3915 11.8409 21.3915 11.833 21.3915C11.8251 21.3915 11.8172 21.3758 11.8094 21.368C11.8094 21.3837 11.7936 21.3915 11.7778 21.3915C11.7621 21.3915 11.7542 21.3993 11.7384 21.3993C11.7384 21.415 11.7463 21.4307 11.7542 21.4542C11.7542 21.4699 11.7542 21.4934 11.7542 21.5091C11.7542 21.5248 11.7542 21.564 11.7463 21.5875L11.7306 21.666C11.7306 21.6816 11.7227 21.6816 11.7148 21.6816C11.7148 21.6816 11.699 21.6816 11.699 21.6581C11.699 21.6346 11.699 21.6032 11.6912 21.5797C11.6912 21.5483 11.6754 21.5248 11.6596 21.4856C11.636 21.4307 11.6124 21.3758 11.573 21.3209L11.5651 21.3131ZM11.376 21.3131L11.4154 21.2425C11.4233 21.219 11.439 21.1955 11.4548 21.1719C11.4863 21.1955 11.5099 21.2347 11.5178 21.2896C11.5336 21.3366 11.5414 21.3915 11.5414 21.4542C11.5414 21.517 11.5414 21.5248 11.5414 21.5562C11.5414 21.5875 11.5257 21.6189 11.5178 21.6424C11.5178 21.6503 11.5099 21.6581 11.502 21.666C11.502 21.666 11.502 21.666 11.4863 21.666C11.4863 21.666 11.4784 21.666 11.4705 21.6581C11.4705 21.6503 11.4705 21.6424 11.4705 21.6346C11.4705 21.5797 11.4627 21.517 11.4469 21.4621C11.4311 21.415 11.4154 21.3601 11.3839 21.3131H11.376ZM3 21.862C3.01576 22.6932 3.94555 23.595 4.69411 23.5714C4.76502 23.5714 18.7355 23.5714 18.7828 23.5714C19.5786 23.6106 20.6739 23.3597 20.5714 21.8463V7.7552C19.0979 5.09695 16.3637 2.33676 11.5572 0C7.58591 1.48988 4.76502 4.47747 3.02364 7.8493L3 21.862ZM8.90179 7.74736L9.68187 9.25292H8.64965L7.41256 8.06102L8.90179 7.74736Z" fill="#2C92F2"/>
<path d="M9.05022 7.60615L9.0527 7.61085L9.8697 6.57108L10.311 8.10801L9.89334 9.20581L9.0527 7.61085L9.05022 7.61399V7.60615Z" fill="#2C92F2"/>
</svg>
