<svg width="24" height="24" viewBox="0 0 24 24" fill="none" xmlns="http://www.w3.org/2000/svg">
<path d="M21.8011 8.80894C21.7658 8.80355 21.7296 8.80987 21.6982 8.82694C21.6667 8.84401 21.6417 8.8709 21.627 8.9035L21.4032 9.39889C21.3182 8.7477 21.1606 7.69962 20.9524 7.01237C20.6351 5.95418 19.9631 5.27008 19.9347 5.24143C19.9096 5.21625 19.8771 5.19988 19.8419 5.1948C19.8068 5.18971 19.7709 5.19618 19.7398 5.21322C19.7086 5.23027 19.6838 5.25697 19.6691 5.28932C19.6545 5.32166 19.6507 5.3579 19.6584 5.39257L19.8323 6.17608C19.4139 5.73898 18.7417 5.1116 18.0766 4.80577C17.9166 4.72781 17.7541 4.65634 17.6117 4.5947C16.1667 3.31108 14.3135 2.60449 12.3905 2.60449C9.68245 2.60449 7.21436 3.96109 5.75304 6.24283C5.61554 6.13175 5.42276 5.93746 5.31228 5.65741C5.11137 5.16484 5.0096 4.61149 5.00855 4.60598C5.00327 4.57682 4.99018 4.54965 4.97069 4.52734C4.95119 4.50502 4.92601 4.48841 4.89782 4.47927C4.86964 4.47013 4.83951 4.4688 4.81063 4.47542C4.78174 4.48204 4.7552 4.49636 4.73381 4.51687C3.52953 5.67164 3.64907 7.47195 3.69399 7.88C3.54475 8.0394 3.12293 8.51204 2.69678 9.19391C2.16763 10.0412 2.00744 11.5223 2.00094 11.5849C1.99727 11.619 2.00439 11.6534 2.02132 11.6832C2.03825 11.7131 2.06413 11.7368 2.09529 11.7512C2.12646 11.7655 2.16134 11.7697 2.19501 11.7632C2.22869 11.7566 2.25945 11.7396 2.28296 11.7147L2.63541 11.3423C2.59218 11.5033 2.55454 11.6656 2.52256 11.8291C2.36381 12.6144 2.41024 13.8323 2.41227 13.8838C2.41372 13.9205 2.42743 13.9556 2.4512 13.9835C2.47498 14.0115 2.50744 14.0307 2.5434 14.038C2.57935 14.0453 2.61672 14.0403 2.64952 14.0239C2.68233 14.0074 2.70866 13.9805 2.72432 13.9473L2.93172 13.5082C3.08463 14.5771 3.67169 16.8515 5.92268 18.9467C7.58988 20.4997 9.90873 21.3904 12.2847 21.3906H12.2853C14.5913 21.3906 16.7686 20.5658 18.5815 19.0056C20.7252 17.1589 21.5238 14.5216 21.8161 12.6344C22.1318 10.5969 21.947 9.01759 21.939 8.95136C21.9347 8.91582 21.919 8.88264 21.8941 8.85692C21.8692 8.8312 21.8365 8.81434 21.8011 8.80894ZM18.141 8.86829C18.1432 8.87117 18.3656 9.16244 18.4141 9.90877C18.4476 10.4673 18.333 11.3605 18.2606 11.8492L17.8239 11.3424C17.8009 11.3158 17.77 11.2973 17.7357 11.2896C17.7015 11.2818 17.6656 11.2853 17.6335 11.2995C17.6013 11.3137 17.5746 11.3379 17.5572 11.3684C17.5399 11.399 17.5328 11.4343 17.537 11.4692C17.5385 11.4817 17.6873 12.7437 17.4369 13.8405C17.3184 14.356 17.1329 14.7265 16.9737 14.971L17.0348 14.1448C17.0376 14.1064 17.0268 14.0683 17.0044 14.037C16.9819 14.0058 16.9491 13.9835 16.9118 13.974C16.8745 13.9644 16.835 13.9683 16.8002 13.985C16.7655 14.0017 16.7378 14.0301 16.7219 14.0652C16.7146 14.0815 15.9575 15.7069 13.8841 16.3505C13.5945 16.4396 13.2896 16.4849 12.9776 16.4849C11.8724 16.4849 10.8683 15.9211 10.2991 15.5249C10.3481 15.5274 10.3968 15.5287 10.4452 15.5287C11.2606 15.5287 11.8877 15.1774 12.3916 14.8951C12.524 14.8209 12.6491 14.7509 12.7694 14.6914C13.4936 14.3273 13.8303 14.2967 14.089 14.2967C14.2257 14.2967 14.331 14.2169 14.3641 14.0885C14.4451 13.7734 14.0662 13.2117 13.5983 12.9541C13.3663 12.828 13.1182 12.7692 12.8177 12.7692C12.3395 12.7692 11.7467 12.92 10.8975 13.1499C10.7416 13.1915 10.5877 13.2126 10.4401 13.2126C9.91968 13.2127 9.57557 12.961 9.37853 12.7498C9.11336 12.4656 8.96235 12.09 8.98457 11.7698C8.99467 11.6238 9.05185 11.4745 9.39931 11.4745C9.70756 11.4745 10.0502 11.6015 10.0535 11.6027C10.0722 11.6098 10.0918 11.6133 10.1113 11.6133H10.1125C10.1363 11.6133 10.1597 11.6081 10.1813 11.5982C10.2028 11.5883 10.2219 11.5737 10.2373 11.5557C10.2527 11.5376 10.264 11.5164 10.2704 11.4936C10.2768 11.4707 10.2782 11.4468 10.2744 11.4233L10.2286 9.98738C10.3942 9.88182 10.7903 9.62497 11.1712 9.34813C12.0925 8.67839 12.2159 8.42227 12.1173 8.22772C11.9867 7.96282 11.6429 7.9198 11.2448 7.86997C11.017 7.84144 10.7589 7.80912 10.5257 7.73194C10.0399 7.57051 9.71989 7.15111 9.64704 7.04804C9.63196 6.96175 9.59589 6.671 9.73851 6.42282C9.89286 6.15155 10.4267 5.73157 10.6194 5.59256C10.6463 5.57318 10.6667 5.54609 10.6779 5.51487C10.6891 5.48364 10.6906 5.44975 10.6821 5.41769C10.6736 5.38562 10.6556 5.35687 10.6304 5.33526C10.6053 5.31365 10.5741 5.30018 10.5412 5.29664C10.5246 5.2948 10.0349 5.24589 9.23486 5.51079C8.58348 5.72901 8.07825 6.0827 7.90416 6.21391C7.82928 6.19922 7.70109 6.17896 7.48871 6.15706C8.73619 4.74833 10.5056 3.9464 12.3908 3.9464C13.7744 3.9464 15.0817 4.36717 16.1947 5.1672L15.0926 5.35152C15.0562 5.35758 15.0229 5.37574 14.9981 5.40305C14.9733 5.43036 14.9585 5.46523 14.956 5.50203C14.9535 5.53882 14.9634 5.57539 14.9843 5.60583C15.0051 5.63626 15.0356 5.65877 15.0708 5.66974C15.0855 5.67433 16.5532 6.13831 17.6484 6.98253C17.8921 7.17328 18.1149 7.42028 18.3109 7.71686C18.492 8.10396 18.635 8.50774 18.738 8.92251L18.3695 8.63617C18.3379 8.61174 18.2985 8.59974 18.2586 8.60243C18.2188 8.60512 18.1814 8.62233 18.1534 8.65079C18.1251 8.67928 18.1082 8.71713 18.106 8.75719C18.1037 8.79725 18.1161 8.83677 18.141 8.86829Z" fill="#232730"/>
</svg>
