<svg width="24" height="24" viewBox="0 0 24 24" fill="none" xmlns="http://www.w3.org/2000/svg">
<path d="M6.80637 21.2993L6.80355 21.2964L2.70356 17.1964L2.43711 17.4629L2.70356 17.1964C2.44581 16.9387 2.20342 16.5564 2.02569 16.1274C1.8479 15.6982 1.75 15.2589 1.75 14.9V9.10001C1.75 8.73544 1.84822 8.29352 2.02569 7.86512C2.20328 7.4364 2.44496 7.05808 2.70072 6.80638L2.70073 6.80639L2.70356 6.80357L6.80355 2.70356C7.0613 2.44581 7.44355 2.20342 7.87261 2.02569C8.30179 1.8479 8.7411 1.75 9.10001 1.75H14.9C15.2646 1.75 15.7065 1.84822 16.1349 2.02569C16.5636 2.20328 16.9419 2.44496 17.1936 2.70072L17.1936 2.70073L17.1964 2.70356L21.2964 6.80357C21.5542 7.06131 21.7966 7.44356 21.9743 7.87262C22.1521 8.30179 22.25 8.7411 22.25 9.10001V14.9C22.25 15.2646 22.1518 15.7065 21.9743 16.1349C21.7967 16.5636 21.555 16.9419 21.2993 17.1936L21.2964 17.1964L17.1964 21.2964C16.6597 21.8332 15.6567 22.25 14.9 22.25H9.10001C8.73544 22.25 8.29351 22.1518 7.86511 21.9743C7.43639 21.7967 7.05807 21.555 6.80637 21.2993ZM3.05645 7.15646L3.05641 7.15642L3.05136 7.16162C2.82287 7.39683 2.62805 7.73286 2.49131 8.05936C2.35508 8.38464 2.25 8.76362 2.25 9.10001V14.9C2.25 15.2334 2.35094 15.6134 2.48658 15.942C2.62126 16.2683 2.81753 16.6103 3.05877 16.8459L7.15644 20.9435L7.1564 20.9436L7.1616 20.9486C7.39682 21.1771 7.73285 21.3719 8.05935 21.5087C8.38464 21.6449 8.76362 21.75 9.10001 21.75H14.9C15.2334 21.75 15.6134 21.6491 15.942 21.5134C16.2683 21.3787 16.6104 21.1825 16.8459 20.9412L20.9436 16.8435L20.9436 16.8436L20.9486 16.8384C21.1771 16.6032 21.3719 16.2671 21.5087 15.9406C21.6449 15.6154 21.75 15.2364 21.75 14.9V9.10001C21.75 8.76657 21.6491 8.38658 21.5134 8.05799C21.3787 7.73171 21.1825 7.38967 20.9412 7.15414L16.8436 3.05645L16.8436 3.05641L16.8384 3.05136C16.6032 2.82286 16.2671 2.62805 15.9406 2.49131C15.6154 2.35508 15.2364 2.25 14.9 2.25H9.10001C8.76657 2.25 8.38658 2.35094 8.05798 2.48658C7.7317 2.62125 7.38965 2.81753 7.15412 3.05877L3.05645 7.15646Z" fill="#2C92F2" stroke="#2C92F2"/>
<path d="M4.93891 19.3299C4.87436 19.3299 4.81375 19.3076 4.76246 19.2563C4.66772 19.1616 4.66772 18.9982 4.76246 18.9034L18.9025 4.76344L18.5535 4.41447L18.9025 4.76344C18.9972 4.6687 19.1606 4.6687 19.2553 4.76344C19.3501 4.85817 19.3501 5.02159 19.2553 5.11633L5.11535 19.2563C5.06406 19.3076 5.00345 19.3299 4.93891 19.3299Z" fill="#2C92F2" stroke="#2C92F2"/>
</svg>
