<svg width="24" height="24" viewBox="0 0 24 24" fill="none" xmlns="http://www.w3.org/2000/svg">
<path opacity="0.4" fill-rule="evenodd" clip-rule="evenodd" d="M14.7716 9.80553C13.0043 9.80553 11.2371 9.80553 9.46975 9.80553C7.94988 7.75091 8.88213 6.53222 9.54045 6.03506C9.55812 6.7302 9.93809 7.60132 10.3048 7.76411C10.0044 6.35183 10.1148 4.4336 11.2768 4.07723C11.1929 4.66678 11.268 5.43231 11.5331 6.07466C11.754 6.60261 12.0942 6.97658 12.346 7.17456C12.0721 6.07906 11.3519 4.12563 12.5625 2.73535C12.9602 5.08035 17.3696 6.761 14.7716 9.80553Z" fill="#232730"/>
<path d="M15.2803 11.2922H8.88269V10.6719H15.2759L15.2803 11.2922Z" fill="#232730"/>
<path d="M10.005 12.6781V12.1986L14.1714 12.2118V12.6737L13.6545 12.6693C12.8901 13.2897 12.2451 14.196 12.0462 15.3003C11.7414 14.2004 11.2289 13.3249 10.3806 12.6693L10.005 12.6781Z" fill="#232730"/>
<path fill-rule="evenodd" clip-rule="evenodd" d="M3.64727 19.1103C3.32032 19.1235 2.98895 19.0927 2.5427 18.9651C2.44108 19.5019 2.89175 20.0122 3.36008 19.999C4.97274 20.0078 5.35713 18.4768 4.90205 17.4605C4.72364 17.059 4.35794 16.7923 4.08186 16.5911C4.01608 16.5431 3.95538 16.4988 3.90352 16.4574C3.88143 11.9346 10.9948 11.2922 11.4013 16.4662C11.874 17.1701 12.36 16.9061 12.6428 16.409C13.1156 11.1118 20.1715 12.2425 20.1715 16.4706C19.0449 16.8093 18.3821 18.7628 19.6104 19.6603C20.2201 20.1706 21.6163 20.307 21.497 18.9387C20.6752 19.3567 19.6369 19.1323 19.5971 18.1116C19.6457 16.1538 23.1582 16.4442 23.0345 19.0531C22.9285 21.4465 19.3188 22.1153 18.3954 19.5767C17.5338 19.8935 16.6413 19.9507 15.7621 19.9023C15.5191 20.1134 15.3335 20.4082 15.3247 20.8614C14.6487 20.6546 14.8519 19.6471 15.4351 19.3479C14.6354 17.7552 15.8107 16.9545 16.3674 17.1481C16.2348 17.6277 16.3188 18.0016 16.5618 18.2392C16.9329 18.6044 17.5294 18.5076 17.8563 18.3888C19.5309 17.0997 18.687 14.6315 17.145 14.2136C15.8902 13.7296 13.6325 14.4115 13.9241 17.0865L13.5795 17.4429C15.1524 19.2951 13.606 21.2001 12.0861 21.2617C10.3542 21.3365 8.82987 19.2159 10.4558 17.4297C10.3733 17.3393 10.313 17.2796 10.2462 17.2134C10.2057 17.1733 10.1629 17.1308 10.1112 17.0777C10.5839 13.1533 4.74299 13.0213 5.29085 17.0205C5.5206 17.8344 6.01986 18.468 6.69144 18.4812C7.39394 18.49 7.84018 18.226 7.68112 17.1481C9.18775 17.1437 8.90498 18.7144 8.60012 19.3743C9.28053 19.7967 9.32913 20.549 8.70616 20.8526C8.68502 20.3054 8.51833 20.1367 8.32598 19.9421C8.31726 19.9333 8.30849 19.9244 8.29968 19.9155L8.26824 19.9155C7.37831 19.9155 6.52662 19.9156 5.66199 19.5503C5.16272 20.5358 4.65463 21.2661 2.905 21.1429C1.36303 20.9626 0.165688 18.7496 1.63255 17.3637C3.88585 15.7358 5.44549 18.4812 3.64727 19.1103ZM13.0051 19.1147C13.0051 18.5648 12.5589 18.116 12.0022 18.116C11.4499 18.116 10.9992 18.5648 10.9992 19.1147C10.9992 19.6691 11.4499 20.1178 12.0022 20.1178C12.5589 20.1178 13.0051 19.6691 13.0051 19.1147Z" fill="#232730"/>
</svg>
