<svg width="24" height="24" viewBox="0 0 24 24" fill="none" xmlns="http://www.w3.org/2000/svg">
<path fill-rule="evenodd" clip-rule="evenodd" d="M2.20001 10.5C2.20001 5.08756 6.58762 0.699951 12 0.699951C17.4124 0.699951 21.8 5.08756 21.8 10.5C21.8 12.7662 21.0308 14.8528 19.7391 16.5128C19.4472 16.8881 18.8961 16.896 18.5599 16.5598C18.2709 16.2708 18.2642 15.8075 18.5128 15.483C19.5129 14.1778 20.1295 12.5633 20.1943 10.8079C19.06 10.9441 17.9231 11.0519 16.7847 11.1314C16.7485 11.8765 16.565 12.7653 16.3684 13.5452C16.2697 13.9367 15.9136 14.2054 15.5098 14.2054C15.0219 14.2054 14.6759 13.73 14.8021 13.2588C14.9828 12.5843 15.1369 11.8514 15.1769 11.2246C13.0601 11.3226 10.9399 11.3226 8.82308 11.2246C8.86314 11.852 9.02793 12.5855 9.21567 13.2604C9.3464 13.7304 9.00146 14.2054 8.51363 14.2054C8.1098 14.2054 7.75379 13.9367 7.65206 13.5459C7.44901 12.7659 7.25152 11.8768 7.21531 11.1314C6.07693 11.0519 4.94004 10.9441 3.80569 10.8079C3.87049 12.5633 4.48714 14.1778 5.48725 15.483C5.73587 15.8075 5.72915 16.2708 5.44012 16.5598C5.10394 16.896 4.55285 16.8881 4.2609 16.5128C2.96926 14.8528 2.20001 12.7662 2.20001 10.5ZM3.90124 9.20778C4.4144 5.96595 6.82729 3.35622 9.96372 2.55477C8.42167 4.50005 7.43319 6.90409 7.2363 9.52887C6.12278 9.44965 5.01075 9.34262 3.90124 9.20778ZM14.0363 2.55477C17.1727 3.35622 19.5856 5.96595 20.0988 9.20778C18.9893 9.34262 17.8772 9.44965 16.7637 9.52887C16.5668 6.90409 15.5784 4.50005 14.0363 2.55477ZM8.83381 9.6234C9.04306 6.92038 10.2119 4.48637 12 2.66158C13.7882 4.48637 14.957 6.92038 15.1662 9.6234C13.0566 9.72301 10.9434 9.72301 8.83381 9.6234Z" fill="#BEBEBE"/>
<path d="M13.5657 19.5656L14.2 18.9313V22.5C14.2 22.9418 14.5582 23.3 15 23.3C15.4418 23.3 15.8 22.9418 15.8 22.5V18.9313L16.4343 19.5656C16.7468 19.8781 17.2533 19.8781 17.5657 19.5656C17.8781 19.2532 17.8781 18.7467 17.5657 18.4343L15.5657 16.4343C15.4157 16.2842 15.2122 16.1999 15 16.1999C14.7878 16.1999 14.5844 16.2842 14.4343 16.4343L12.4343 18.4343C12.1219 18.7467 12.1219 19.2532 12.4343 19.5656C12.7468 19.8781 13.2533 19.8781 13.5657 19.5656Z" fill="#BEBEBE"/>
<path d="M9.80001 20.5686V17C9.80001 16.5581 9.44184 16.1999 9.00001 16.1999C8.55818 16.1999 8.20001 16.5581 8.20001 17V20.5686L7.5657 19.9343C7.25328 19.6218 6.74675 19.6218 6.43433 19.9343C6.12191 20.2467 6.12191 20.7532 6.43433 21.0656L8.43433 23.0656C8.58436 23.2157 8.78785 23.2999 9.00002 23.2999C9.21219 23.2999 9.41567 23.2157 9.5657 23.0656L11.5657 21.0656C11.8781 20.7532 11.8781 20.2467 11.5657 19.9343C11.2533 19.6218 10.7468 19.6218 10.4343 19.9343L9.80001 20.5686Z" fill="#BEBEBE"/>
</svg>
