<svg width="20" height="20" viewBox="0 0 20 20" fill="none" xmlns="http://www.w3.org/2000/svg">
<path d="M18.3333 7.1013V3.31797C18.3333 2.14297 17.8 1.66797 16.475 1.66797H13.1083C11.7833 1.66797 11.25 2.14297 11.25 3.31797V7.09297C11.25 8.2763 11.7833 8.74297 13.1083 8.74297H16.475C17.8 8.7513 18.3333 8.2763 18.3333 7.1013Z" stroke="#019BFF" stroke-width="1.5" stroke-linecap="round" stroke-linejoin="round"/>
<path d="M18.3333 16.475V13.1083C18.3333 11.7833 17.8 11.25 16.475 11.25H13.1083C11.7833 11.25 11.25 11.7833 11.25 13.1083V16.475C11.25 17.8 11.7833 18.3333 13.1083 18.3333H16.475C17.8 18.3333 18.3333 17.8 18.3333 16.475Z" stroke="#019BFF" stroke-width="1.5" stroke-linecap="round" stroke-linejoin="round"/>
<path d="M8.74935 7.1013V3.31797C8.74935 2.14297 8.21602 1.66797 6.89102 1.66797H3.52435C2.19935 1.66797 1.66602 2.14297 1.66602 3.31797V7.09297C1.66602 8.2763 2.19935 8.74297 3.52435 8.74297H6.89102C8.21602 8.7513 8.74935 8.2763 8.74935 7.1013Z" stroke="#019BFF" stroke-width="1.5" stroke-linecap="round" stroke-linejoin="round"/>
<path d="M8.75033 16.475V13.1083C8.75033 11.7833 8.21699 11.25 6.89199 11.25H3.52533C2.20033 11.25 1.66699 11.7833 1.66699 13.1083V16.475C1.66699 17.8 2.20033 18.3333 3.52533 18.3333H6.89199C8.21699 18.3333 8.75033 17.8 8.75033 16.475Z" stroke="#019BFF" stroke-width="1.5" stroke-linecap="round" stroke-linejoin="round"/>
</svg>
