<svg xmlns="http://www.w3.org/2000/svg" viewBox="0 0 20.63 21.31"><defs><style>.cls-1{fill:none;stroke:#019bff;stroke-linecap:round;stroke-linejoin:round;stroke-width:1.5px;}</style></defs><g id="Layer_2" data-name="Layer 2"><g id="Layer_1-2" data-name="Layer 1"><path class="cls-1" d="M7.57,9.62H7.24a4.45,4.45,0,1,1,.33,0Z"/><path class="cls-1" d="M14.82,2.75a3.5,3.5,0,0,1,.13,7h-.26"/><path class="cls-1" d="M2.56,13.31c-2.41,1.62-2.41,4.26,0,5.87a9.78,9.78,0,0,0,10,0c2.42-1.62,2.42-4.26,0-5.87A9.83,9.83,0,0,0,2.56,13.31Z"/><path class="cls-1" d="M16.75,18.75a4.84,4.84,0,0,0,2-.87,2.53,2.53,0,0,0,0-4.27,5,5,0,0,0-1.93-.86"/></g></g></svg>