<svg width="24" height="24" viewBox="0 0 24 24" fill="none" xmlns="http://www.w3.org/2000/svg">
<path fill-rule="evenodd" clip-rule="evenodd" d="M12.0001 9.66694C10.7116 9.66694 9.66702 10.7115 9.66702 12C9.66702 13.2885 10.7116 14.3331 12.0001 14.3331C13.2886 14.3331 14.3331 13.2885 14.3331 12C14.3331 10.7115 13.2886 9.66694 12.0001 9.66694ZM8.06702 12C8.06702 9.82783 9.82791 8.06694 12.0001 8.06694C14.1722 8.06694 15.9331 9.82783 15.9331 12C15.9331 14.1722 14.1722 15.9331 12.0001 15.9331C9.82791 15.9331 8.06702 14.1722 8.06702 12Z" fill="#118DFF"/>
<path fill-rule="evenodd" clip-rule="evenodd" d="M15.3775 6.77824C15.3775 6.33641 15.7357 5.97824 16.1775 5.97824L19.3105 5.97824C19.7524 5.97824 20.1105 6.33641 20.1105 6.77824C20.1105 7.22007 19.7524 7.57824 19.3105 7.57824H16.1775C15.7357 7.57824 15.3775 7.22007 15.3775 6.77824Z" fill="#118DFF"/>
<path fill-rule="evenodd" clip-rule="evenodd" d="M3.88962 17.2218C3.88962 16.7799 4.24779 16.4218 4.68962 16.4218H7.82267C8.2645 16.4218 8.62267 16.7799 8.62267 17.2218C8.62267 17.6636 8.2645 18.0218 7.82267 18.0218H4.68962C4.24779 18.0218 3.88962 17.6636 3.88962 17.2218Z" fill="#118DFF"/>
<path fill-rule="evenodd" clip-rule="evenodd" d="M8.70924 2.2L15.2912 2.2C16.542 2.19999 17.5306 2.19999 18.3264 2.26607C19.1393 2.33358 19.8225 2.47418 20.4434 2.79671C21.4114 3.29955 22.2006 4.08882 22.7035 5.05683C23.026 5.67772 23.1666 6.36087 23.2341 7.17383C23.3002 7.9696 23.3002 8.95815 23.3002 10.209L23.3002 13.7909C23.3002 15.0418 23.3002 16.0304 23.2341 16.8261C23.1666 17.6391 23.026 18.3223 22.7035 18.9431C22.2006 19.9111 21.4114 20.7004 20.4434 21.2033C19.8225 21.5258 19.1393 21.6664 18.3264 21.7339C17.5306 21.8 16.542 21.8 15.2911 21.8L8.70924 21.8C7.45835 21.8 6.4698 21.8 5.67402 21.7339C4.86107 21.6664 4.17792 21.5258 3.55703 21.2033C2.58902 20.7004 1.79974 19.9111 1.2969 18.9431C0.974381 18.3223 0.833782 17.6391 0.76627 16.8261C0.700185 16.0304 0.700189 15.0418 0.700195 13.7909L0.700195 10.209C0.700189 8.95815 0.700185 7.9696 0.76627 7.17383C0.833782 6.36087 0.974381 5.67772 1.2969 5.05683C1.79974 4.08882 2.58902 3.29955 3.55703 2.79671C4.17792 2.47418 4.86107 2.33358 5.67403 2.26607C6.4698 2.19999 7.45834 2.19999 8.70924 2.2ZM5.80644 3.86058C5.09421 3.91973 4.64903 4.03245 4.29459 4.21657C3.61881 4.56761 3.06781 5.11861 2.71677 5.79439C2.53265 6.14883 2.41993 6.59402 2.36078 7.30624C2.30084 8.02805 2.3002 8.95021 2.3002 10.245L2.3002 13.755C2.3002 15.0498 2.30084 15.9719 2.36078 16.6937C2.41993 17.406 2.53265 17.8511 2.71677 18.2056C3.06781 18.8814 3.61881 19.4324 4.29459 19.7834C4.64903 19.9675 5.09421 20.0802 5.80644 20.1394C6.52825 20.1993 7.45041 20.2 8.74519 20.2L15.2552 20.2C16.55 20.2 17.4721 20.1993 18.1939 20.1394C18.9062 20.0802 19.3514 19.9675 19.7058 19.7834C20.3816 19.4324 20.9326 18.8814 21.2836 18.2056C21.4677 17.8511 21.5805 17.406 21.6396 16.6937C21.6996 15.9719 21.7002 15.0498 21.7002 13.755L21.7002 10.245C21.7002 8.95021 21.6996 8.02805 21.6396 7.30624C21.5805 6.59402 21.4677 6.14883 21.2836 5.79439C20.9326 5.11861 20.3816 4.56761 19.7058 4.21657C19.3514 4.03245 18.9062 3.91973 18.1939 3.86058C17.4721 3.80064 16.55 3.8 15.2552 3.8L8.7452 3.8C7.45041 3.8 6.52825 3.80064 5.80644 3.86058Z" fill="#118DFF"/>
</svg>
