<svg width="22" height="22" viewBox="0 0 22 22" fill="none" xmlns="http://www.w3.org/2000/svg">
<path d="M11 0.25C16.93 0.250001 21.75 5.07 21.75 11C21.75 16.93 16.93 21.75 11 21.75C5.07 21.75 0.249999 16.93 0.25 11C0.250001 5.07 5.07 0.249999 11 0.25ZM11 20.25C16.1 20.25 20.25 16.1 20.25 11C20.25 5.9 16.1 1.75 11 1.75C5.9 1.75 1.75 5.9 1.75 11C1.75 16.1 5.9 20.25 11 20.25Z" fill="#2C92F2"/>
<path d="M11 9.25C11.41 9.25 11.75 9.59 11.75 10V15C11.75 15.41 11.41 15.75 11 15.75C10.59 15.75 10.25 15.41 10.25 15V10C10.25 9.59 10.59 9.25 11 9.25Z" fill="#2C92F2"/>
<path d="M11 6C11.13 6 11.26 6.03 11.38 6.08C11.5 6.13 11.61 6.2 11.71 6.29C11.8 6.39 11.87 6.49 11.92 6.62C11.97 6.74 12 6.87 12 7C12 7.13 11.97 7.26 11.92 7.38C11.87 7.5 11.8 7.61 11.71 7.71C11.61 7.8 11.5 7.87 11.38 7.92C11.14 8.02 10.86 8.02 10.62 7.92C10.5 7.87 10.39 7.8 10.29 7.71C10.2 7.61 10.13 7.5 10.08 7.38C10.03 7.26 10 7.13 10 7C10 6.87 10.03 6.74 10.08 6.62C10.13 6.49 10.2 6.39 10.29 6.29C10.39 6.2 10.5 6.13 10.62 6.08C10.74 6.03 10.87 6 11 6Z" fill="#2C92F2"/>
</svg>
