<svg width="22" height="22" viewBox="0 0 22 22" fill="none" xmlns="http://www.w3.org/2000/svg">
<path d="M11 21.75C16.9232 21.75 21.75 16.9233 21.75 11C21.75 5.07675 16.9233 0.250001 11 0.25C5.07675 0.249999 0.250001 5.07675 0.25 11C0.249999 16.9232 5.07675 21.75 11 21.75ZM11.8062 15.3C11.8062 15.7408 11.4408 16.1062 11 16.1062C10.5592 16.1062 10.1937 15.7408 10.1937 15.3V9.925C10.1937 9.48425 10.5592 9.11875 11 9.11875C11.4408 9.11875 11.8062 9.48425 11.8062 9.925V15.3ZM10.011 6.2915C10.0647 6.15175 10.14 6.04425 10.2367 5.93675C10.3442 5.84 10.4625 5.76475 10.5915 5.711C10.7205 5.65725 10.8603 5.625 11 5.625C11.1398 5.625 11.2795 5.65725 11.4085 5.711C11.5375 5.76475 11.6557 5.84 11.7632 5.93675C11.86 6.04425 11.9352 6.15175 11.989 6.2915C12.0427 6.4205 12.075 6.56025 12.075 6.7C12.075 6.83975 12.0427 6.9795 11.989 7.1085C11.9352 7.2375 11.86 7.35575 11.7632 7.46325C11.6557 7.56 11.5375 7.63525 11.4085 7.689C11.1505 7.7965 10.8495 7.7965 10.5915 7.689C10.4625 7.63525 10.3442 7.56 10.2367 7.46325C10.14 7.35575 10.0647 7.2375 10.011 7.1085C9.95725 6.9795 9.925 6.83975 9.925 6.7C9.925 6.56025 9.95725 6.4205 10.011 6.2915Z" fill="#232730" fill-opacity="0.6"/>
</svg>
