<svg width="32" height="32" viewBox="0 0 32 32" fill="none" xmlns="http://www.w3.org/2000/svg">
<path d="M15.9548 20.2206C14.1873 20.2206 12.7548 21.6536 12.7548 23.4211C12.7548 25.1886 14.1878 26.6216 15.9548 26.6216C17.7218 26.6216 19.1548 25.1886 19.1548 23.4211C19.1548 21.6536 17.7648 20.2206 15.9548 20.2206ZM15.9998 12.2206C12.4873 12.2206 9.10482 13.5006 6.47482 15.8221C5.81482 16.4506 5.74982 17.4606 6.33482 18.1256C6.92482 18.7856 7.93482 18.8506 8.59482 18.2656C10.6398 16.4606 13.2698 15.4656 15.9998 15.4656C18.7298 15.4656 21.3648 16.4596 23.4048 18.2656C23.7098 18.5356 24.0898 18.6656 24.4648 18.6656C24.6917 18.6658 24.9161 18.6177 25.123 18.5245C25.3299 18.4313 25.5146 18.2952 25.6648 18.1251C26.2498 17.4606 26.1898 16.4506 25.5248 15.8656C22.8948 13.5456 19.5148 12.2206 15.9998 12.2206V12.2206ZM31.5098 10.5006C27.3148 6.47962 21.8098 4.26562 15.9998 4.26562C10.1898 4.26562 4.68432 6.47962 0.492016 10.5006C-0.145484 11.1131 -0.165984 12.1256 0.445116 12.7631C1.05612 13.4021 2.06862 13.4191 2.70762 12.81C6.25482 9.32062 11.0198 7.46563 15.9998 7.46563C20.9798 7.46563 25.6548 9.36412 29.2898 12.8106C29.6048 13.1056 29.9998 13.2556 30.3998 13.2556C30.8201 13.2556 31.2403 13.0916 31.5543 12.7634C32.1648 12.1256 32.1448 11.0706 31.5098 10.5006V10.5006Z" fill="#0F8BFD"/>
</svg>
