<svg width="24" height="24" viewBox="0 0 24 24" fill="none" xmlns="http://www.w3.org/2000/svg">
<path opacity="0.24" d="M15.3003 2.5H7.7764C4.50435 2.5 2.55371 4.56255 2.55371 8.02225V15.9777C2.55371 19.4375 4.50435 21.5 7.7764 21.5H15.3003C18.5723 21.5 20.5229 19.4375 20.5229 15.9777V8.02225C20.5229 4.56255 18.5723 2.5 15.3003 2.5Z" fill="#232730"/>
<path opacity="0.6" d="M20.5229 10.3064H13.6317C13.6228 10.242 13.6228 10.1685 13.6048 10.1041C13.4161 9.36875 12.8321 8.77125 12.1133 8.57822C10.8196 8.22891 9.64257 9.09298 9.44491 10.3064H2.55371V11.6852H9.66054C9.84023 12.0345 10.0918 12.3287 10.4152 12.5309V14.351C10.4152 14.9852 10.9184 15.5 11.5383 15.5C12.1583 15.5 12.6614 14.9852 12.6614 14.351V12.5309C12.9848 12.3287 13.2364 12.0345 13.4161 11.6852H20.5229V10.3064Z" fill="#232730"/>
<path opacity="0.6" d="M16.7397 21.4716C16.7397 21.4716 18.9073 21.8027 20.401 20.2054C21.6307 18.8905 21.5022 16.5594 21.4184 15.7764C21.4015 15.6186 21.283 15.5021 21.1344 15.5003C20.5055 15.4927 18.8228 15.6018 17.6321 16.8751C17.0333 17.5155 16.7397 18.4916 16.7397 19.6213V21.4716Z" fill="#232730"/>
<path opacity="0.4" d="M14.5741 20.6885C15.3615 21.6928 16.7396 21.4814 16.7396 21.4814V21.1532V19.8403C16.7396 18.8557 16.4488 18.4966 16.225 18.1992C15.6724 17.4654 14.5915 17.4736 14.1284 17.5153C13.9998 17.5269 13.9031 17.6594 13.9024 17.8239C13.8997 18.4382 13.9617 19.9072 14.5741 20.6885Z" fill="#232730"/>
</svg>
