<svg width="32" height="32" viewBox="0 0 32 32" fill="none" xmlns="http://www.w3.org/2000/svg">
<path d="M29.3333 7.99999V11.2267C29.3333 13.3333 28 14.6667 25.8933 14.6667H21.3333V5.34665C21.3333 3.86665 22.5467 2.66666 24.0267 2.66666C25.48 2.67999 26.8133 3.26665 27.7733 4.22665C28.7333 5.19999 29.3333 6.53332 29.3333 7.99999Z" stroke="#118DFF" stroke-width="1.5" stroke-miterlimit="10" stroke-linecap="round" stroke-linejoin="round"/>
<path d="M2.66667 9.33332V28C2.66667 29.1067 3.92 29.7333 4.80001 29.0667L7.08001 27.36C7.61334 26.96 8.36001 27.0133 8.84001 27.4933L11.0533 29.72C11.5733 30.24 12.4267 30.24 12.9467 29.72L15.1867 27.48C15.6533 27.0133 16.4 26.96 16.92 27.36L19.2 29.0667C20.08 29.72 21.3333 29.0933 21.3333 28V5.33332C21.3333 3.86666 22.5333 2.66666 24 2.66666H9.33334H8.00001C4.00001 2.66666 2.66667 5.05332 2.66667 7.99999V9.33332Z" stroke="#118DFF" stroke-width="1.5" stroke-miterlimit="10" stroke-linecap="round" stroke-linejoin="round"/>
<path d="M12 17.3467H16" stroke="#118DFF" stroke-width="1.5" stroke-linecap="round" stroke-linejoin="round"/>
<path d="M12 12.0133H16" stroke="#118DFF" stroke-width="1.5" stroke-linecap="round" stroke-linejoin="round"/>
<path d="M7.99414 17.3333H8.00612" stroke="#118DFF" stroke-width="1.5" stroke-linecap="round" stroke-linejoin="round"/>
<path d="M7.99414 12H8.00612" stroke="#118DFF" stroke-width="1.5" stroke-linecap="round" stroke-linejoin="round"/>
</svg>
