<svg width="24" height="24" viewBox="0 0 24 24" fill="none" xmlns="http://www.w3.org/2000/svg">
<path fill-rule="evenodd" clip-rule="evenodd" d="M4.24406 4.35935C3.35457 5.29773 2.90909 6.80817 2.90909 9.14286V10.4857H8.88352C8.96636 8.80396 10.5019 7.5276 12.1777 7.99708C13.0587 8.24134 13.7676 8.99023 13.9988 9.91592C14.048 10.1072 14.0753 10.2982 14.0835 10.4859H20.0551V9.14286C20.0551 6.80817 19.6097 5.29773 18.7202 4.35935C17.8315 3.42179 16.4018 2.95238 14.1904 2.95238H8.77385C6.56246 2.95238 5.13277 3.42179 4.24406 4.35935ZM20.0551 11.4383V12.9524C20.0551 13.2154 20.2586 13.4286 20.5097 13.4286C20.7607 13.4286 20.9642 13.2154 20.9642 12.9524V9.14286C20.9642 6.71564 20.507 4.89275 19.3652 3.68827C18.2227 2.48297 16.4928 2 14.1904 2H8.77385C6.47144 2 4.74149 2.48297 3.59899 3.68827C2.45728 4.89275 2 6.71564 2 9.14286V14.8571C2 17.2844 2.45728 19.1073 3.59899 20.3117C4.74149 21.517 6.47144 22 8.77385 22H14.1904C14.4414 22 14.6449 21.7868 14.6449 21.5238C14.6449 21.2608 14.4414 21.0476 14.1904 21.0476H8.77385C6.56246 21.0476 5.13277 20.5782 4.24406 19.6407C3.35457 18.7023 2.90909 17.1918 2.90909 14.8571V11.4381H8.99777C9.15787 11.9895 9.48051 12.4613 9.90012 12.8006V14.4382C9.90012 15.3552 10.6062 16.1049 11.4831 16.1049C12.36 16.1049 13.0661 15.3552 13.0661 14.4382V12.8006C13.4857 12.4614 13.8083 11.9896 13.9684 11.4383H20.0551ZM11.9433 8.91727C10.8139 8.60052 9.78909 9.48518 9.78909 10.6287C9.78909 10.7179 9.79623 10.8036 9.80894 10.8774L9.81055 10.8867L9.81179 10.8961C9.88242 11.4251 10.1795 11.8763 10.5956 12.1487L10.8092 12.2886V14.4382C10.8092 14.8355 11.1142 15.1525 11.4831 15.1525C11.852 15.1525 12.157 14.8355 12.157 14.4382V12.2886L12.3706 12.1487C12.7867 11.8763 13.0838 11.4251 13.1544 10.8961L13.1551 10.8914L13.1558 10.8867C13.1914 10.6535 13.184 10.4076 13.1207 10.1627L13.1201 10.1605L13.1196 10.1583C12.9711 9.56147 12.5071 9.07339 11.9447 8.91765L11.9433 8.91727ZM17.7277 15.9258C18.9485 14.6378 20.645 14.5423 21.2463 14.5494C21.6176 14.5539 21.9109 14.8467 21.9514 15.22C21.9919 15.5928 22.0438 16.3364 21.9353 17.1508C21.8276 17.9585 21.5542 18.8953 20.8954 19.5903C20.1239 20.4043 19.1861 20.7185 18.4626 20.8331C18.0993 20.8906 17.7827 20.899 17.5555 20.893C17.4417 20.8899 17.3494 20.8833 17.284 20.8771C17.2643 20.8753 17.2471 20.8735 17.2323 20.8718C17.2241 20.8725 17.2152 20.8733 17.2054 20.8741C17.1552 20.8781 17.0846 20.8826 16.9981 20.8846C16.8257 20.8888 16.5861 20.8838 16.3154 20.8471C15.7854 20.7751 15.0746 20.5729 14.5404 20.0093C14.1154 19.561 13.9055 18.9466 13.7974 18.4182C13.6873 17.8806 13.6704 17.3707 13.6719 17.0737C13.6741 16.6807 13.9594 16.35 14.3421 16.3215C14.6144 16.3013 15.0772 16.288 15.5621 16.3733C16.0377 16.4569 16.6 16.6466 17.0019 17.088C17.0093 17.0961 17.0171 17.1047 17.0251 17.1134C17.0263 17.1147 17.0275 17.116 17.0286 17.1173C17.1829 16.6641 17.4128 16.2579 17.7277 15.9258ZM16.7826 18.9048C16.7826 18.5207 16.7148 18.2925 16.6422 18.1434C16.5684 17.9917 16.4772 17.8915 16.3532 17.7554L16.3441 17.7454C16.1401 17.5214 15.8069 17.382 15.4116 17.3125C15.1109 17.2596 14.8117 17.2536 14.5829 17.2618C14.5893 17.5197 14.6141 17.8659 14.6862 18.2185C14.7792 18.6724 14.939 19.0783 15.1855 19.3383C15.4692 19.6376 15.8624 19.7957 16.2482 19.872L15.5415 19.2756C15.346 19.1106 15.3152 18.8108 15.4727 18.606C15.6302 18.4012 15.9163 18.3689 16.1118 18.5339L16.7826 19.1001V18.9048ZM18.1311 19.9175C18.1941 19.9106 18.2595 19.902 18.3268 19.8914C18.9309 19.7957 19.661 19.541 20.2503 18.9192C20.7119 18.4323 20.9401 17.7305 21.0349 17.0191C21.1143 16.4234 21.0946 15.8625 21.0649 15.5033C20.4418 15.5215 19.234 15.6883 18.3727 16.5968C17.9392 17.0542 17.6917 17.7921 17.6917 18.7298V19.0181L19.1638 17.3871C19.3363 17.196 19.624 17.1876 19.8064 17.3683C19.9888 17.549 19.9968 17.8504 19.8244 18.0414L18.1311 19.9175Z" fill="#118DFF"/>
</svg>
