<svg width="24" height="24" viewBox="0 0 24 24" fill="none" xmlns="http://www.w3.org/2000/svg">
<g id="Jam - Bulk">
<path id="Vector" opacity="0.24" d="M15.3 2.5H7.77615C4.50411 2.5 2.55347 4.56255 2.55347 8.02225V15.9777C2.55347 19.4375 4.50411 21.5 7.77615 21.5H15.3C18.5721 21.5 20.5227 19.4375 20.5227 15.9777V8.02225C20.5227 4.56255 18.5721 2.5 15.3 2.5Z" fill="white"/>
<path id="Vector_2" opacity="0.6" d="M20.5227 10.3064H13.6315C13.6225 10.242 13.6225 10.1685 13.6045 10.1041C13.4159 9.36875 12.8319 8.77125 12.1131 8.57822C10.8193 8.22891 9.64232 9.09298 9.44466 10.3064H2.55347V11.6852H9.66029C9.83998 12.0345 10.0916 12.3287 10.415 12.5309V14.351C10.415 14.9852 10.9181 15.5 11.5381 15.5C12.158 15.5 12.6612 14.9852 12.6612 14.351V12.5309C12.9846 12.3287 13.2362 12.0345 13.4159 11.6852H20.5227V10.3064Z" fill="white"/>
<path id="Vector_3" opacity="0.6" d="M16.7397 21.4716C16.7397 21.4716 18.9073 21.8027 20.401 20.2054C21.6307 18.8905 21.5022 16.5594 21.4184 15.7764C21.4015 15.6186 21.283 15.5021 21.1344 15.5003C20.5055 15.4927 18.8228 15.6018 17.6321 16.8751C17.0333 17.5155 16.7397 18.4916 16.7397 19.6213V21.4716Z" fill="white"/>
<path id="Vector_4" opacity="0.4" d="M14.5742 20.6885C15.3616 21.6928 16.7397 21.4814 16.7397 21.4814V21.1532V19.8403C16.7397 18.8557 16.4489 18.4966 16.2251 18.1992C15.6725 17.4654 14.5917 17.4736 14.1285 17.5153C13.9999 17.5269 13.9033 17.6594 13.9025 17.8239C13.8998 18.4382 13.9618 19.9072 14.5742 20.6885Z" fill="white"/>
</g>
</svg>
