<svg width="24" height="24" viewBox="0 0 24 24" fill="none" xmlns="http://www.w3.org/2000/svg">
<path d="M11.9984 22.7599C10.9084 22.7599 9.82844 22.4399 8.97844 21.8099L4.67844 18.5999C3.53844 17.7499 2.64844 15.9799 2.64844 14.5599V7.11994C2.64844 5.57994 3.77844 3.93994 5.22844 3.39994L10.2184 1.52994C11.2084 1.15994 12.7684 1.15994 13.7584 1.52994L18.7584 3.39994C20.2084 3.93994 21.3384 5.57994 21.3384 7.11994V14.5499C21.3384 15.9699 20.4484 17.7399 19.3084 18.5899L15.0084 21.7999C14.1684 22.4399 13.0884 22.7599 11.9984 22.7599ZM10.7484 2.93994L5.75844 4.80994C4.89844 5.12994 4.14844 6.20994 4.14844 7.12994V14.5599C4.14844 15.5099 4.81844 16.8399 5.56844 17.3999L9.86844 20.6099C11.0184 21.4699 12.9684 21.4699 14.1184 20.6099L18.4184 17.3999C19.1784 16.8299 19.8384 15.4999 19.8384 14.5599V7.11994C19.8384 6.20994 19.0884 5.12994 18.2284 4.79994L13.2384 2.92994C12.5784 2.68994 11.4184 2.68994 10.7484 2.93994Z" fill="#2C92F2"/>
<path d="M12 13.25C10.48 13.25 9.25 12.02 9.25 10.5C9.25 8.98 10.48 7.75 12 7.75C13.52 7.75 14.75 8.98 14.75 10.5C14.75 12.02 13.52 13.25 12 13.25ZM12 9.25C11.31 9.25 10.75 9.81 10.75 10.5C10.75 11.19 11.31 11.75 12 11.75C12.69 11.75 13.25 11.19 13.25 10.5C13.25 9.81 12.69 9.25 12 9.25Z" fill="#2C92F2"/>
<path d="M12 16.25C11.59 16.25 11.25 15.91 11.25 15.5V12.5C11.25 12.09 11.59 11.75 12 11.75C12.41 11.75 12.75 12.09 12.75 12.5V15.5C12.75 15.91 12.41 16.25 12 16.25Z" fill="#2C92F2"/>
</svg>
