<svg width="24" height="24" viewBox="0 0 24 24" fill="none" xmlns="http://www.w3.org/2000/svg">
<path d="M1.89844 10.0303H21.8984" stroke="#2C92F2" stroke-width="1.5" stroke-miterlimit="10" stroke-linecap="round" stroke-linejoin="round"/>
<path d="M12.1251 20.53H6.34839C2.79839 20.53 1.89844 19.65 1.89844 16.14V7.92004C1.89844 4.74004 2.63841 3.72004 5.42841 3.56004C5.70841 3.55004 6.01839 3.54004 6.34839 3.54004H17.4584C21.0084 3.54004 21.9084 4.42004 21.9084 7.93004V13.0067" stroke="#2C92F2" stroke-width="1.5" stroke-linecap="round" stroke-linejoin="round"/>
<path d="M17.6667 20.9998C19.4156 20.9998 20.8333 19.5821 20.8333 17.8332C20.8333 16.0843 19.4156 14.6665 17.6667 14.6665C15.9178 14.6665 14.5 16.0843 14.5 17.8332C14.5 19.5821 15.9178 20.9998 17.6667 20.9998Z" stroke="#2C92F2" stroke-width="1.5" stroke-linecap="round" stroke-linejoin="round"/>
<path d="M21.1667 21.3332L20.5 20.6665" stroke="#2C92F2" stroke-width="1.5" stroke-linecap="round" stroke-linejoin="round"/>
<path d="M5.89844 16.0303H9.89844" stroke="#2C92F2" stroke-width="1.5" stroke-miterlimit="10" stroke-linecap="round" stroke-linejoin="round"/>
</svg>
