<svg width="24" height="24" viewBox="0 0 24 24" fill="none" xmlns="http://www.w3.org/2000/svg">
<path fill-rule="evenodd" clip-rule="evenodd" d="M17.163 6.94439C14.5121 6.94439 12.3631 9.07842 12.3631 11.7109C12.3631 14.3433 14.5121 16.4774 17.163 16.4774C19.8139 16.4774 21.9629 14.3433 21.9629 11.7109C21.9629 9.07842 19.8139 6.94439 17.163 6.94439ZM10.9086 11.7109C10.9086 10.3869 11.3258 9.15962 12.0368 8.1517H2.35899C1.90661 8.1517 1.5385 8.99359 1.5385 9.58533V14.4146C1.5385 15.0063 1.90657 15.8483 2.35899 15.8483H12.4983C11.5097 14.7499 10.9086 13.3001 10.9086 11.7109ZM2.35899 6.5H13.7584C14.7381 5.86746 15.9073 5.5 17.163 5.5C20.6172 5.5 23.4174 8.28071 23.4174 11.7109C23.4174 15.1411 20.6172 17.9218 17.163 17.9218C16.3623 17.9218 15.5966 17.7723 14.8929 17.5H2.35899C1.05826 17.5 0 16.1159 0 14.4146V9.58533C0 7.88407 1.05826 6.5 2.35899 6.5ZM4.38814 11.9428L5.24567 13.2571C5.2754 13.3063 5.29031 13.3506 5.29031 13.3949C5.29031 13.6065 4.9879 13.7739 4.77477 13.7739C4.6955 13.7739 4.62114 13.7493 4.59137 13.6951L3.8677 12.4745L3.14403 13.6951C3.1094 13.7493 3.03994 13.7739 2.96063 13.7739C2.74754 13.7739 2.44514 13.6065 2.44514 13.3949C2.44514 13.3506 2.46 13.3063 2.48977 13.2571L3.3473 11.9428L2.52445 10.6335C2.48973 10.5794 2.47486 10.5302 2.47486 10.4809C2.47486 10.2742 2.75736 10.1167 2.97549 10.1167C3.08458 10.1167 3.15889 10.1561 3.20848 10.2447L3.8677 11.3867L4.52696 10.2447C4.57655 10.156 4.65095 10.1167 4.75995 10.1167C4.97808 10.1167 5.26058 10.2742 5.26058 10.4809C5.26058 10.5301 5.24572 10.5794 5.21099 10.6335L4.38814 11.9428ZM7.48108 10.289C7.53067 10.1955 7.58026 10.1462 7.70412 10.1462C7.9173 10.1462 8.22961 10.2791 8.22965 10.4612C8.22965 10.476 8.22965 10.4957 8.21974 10.5154L7.19858 12.2037C7.18867 12.2185 7.17877 12.2431 7.17877 12.2726V13.5081C7.17877 13.6656 6.98541 13.7443 6.79209 13.7443C6.59882 13.7443 6.40551 13.6656 6.40551 13.5081V12.2726C6.40551 12.2431 6.3956 12.2185 6.38565 12.2037L5.35962 10.5154C5.34967 10.4957 5.34967 10.476 5.34967 10.4612C5.34967 10.2792 5.66198 10.1462 5.87511 10.1462C5.99902 10.1462 6.04365 10.1955 6.09815 10.289L6.79209 11.554L7.48108 10.289ZM9.28531 13.075H10.6336C10.7822 13.075 10.8665 13.2522 10.8666 13.4097C10.8666 13.5672 10.7823 13.7444 10.6336 13.7444H8.52201C8.36342 13.7444 8.29897 13.6608 8.29897 13.5426C8.29897 13.4638 8.32874 13.3654 8.38324 13.2718L9.78103 10.8157H8.63101C8.48228 10.8157 8.39801 10.6581 8.39801 10.4809C8.39801 10.3185 8.46742 10.1462 8.63101 10.1462H10.5443C10.693 10.1462 10.7673 10.2299 10.7673 10.3481C10.7673 10.4269 10.7376 10.5203 10.6831 10.6188L9.28531 13.075ZM12.9419 11.3079C12.9419 10.4612 13.4723 10.1462 14.1564 10.1462C14.8404 10.1462 15.3758 10.4612 15.3757 11.3079V12.6123C15.3757 13.4589 14.8404 13.7739 14.1564 13.7739C13.4723 13.7739 12.9419 13.4589 12.9419 12.6123V11.3079ZM14.1564 13.1045C14.4339 13.1045 14.6025 12.9519 14.6025 12.6123V11.3079C14.6025 10.9682 14.4339 10.8157 14.1564 10.8157C13.8788 10.8157 13.7152 10.9682 13.7152 11.3079V12.6123C13.7152 12.9519 13.8788 13.1045 14.1564 13.1045ZM15.7622 11.3079C15.7622 10.4612 16.2926 10.1462 16.9766 10.1462C17.6606 10.1462 18.196 10.4612 18.196 11.3079V12.6123C18.196 13.4589 17.6606 13.7739 16.9766 13.7739C16.2926 13.7739 15.7622 13.4589 15.7622 12.6123V11.3079ZM16.9766 13.1045C17.2542 13.1045 17.4227 12.9519 17.4227 12.6123V11.3079C17.4227 10.9682 17.2542 10.8157 16.9766 10.8157C16.6991 10.8157 16.5354 10.9682 16.5354 11.3079V12.6123C16.5354 12.9519 16.699 13.1045 16.9766 13.1045ZM18.5824 11.3079C18.5824 10.4612 19.1128 10.1462 19.7969 10.1462C20.4809 10.1462 21.0163 10.4612 21.0163 11.3079V12.6123C21.0163 13.4589 20.4809 13.7739 19.7969 13.7739C19.1128 13.7739 18.5824 13.4589 18.5824 12.6123V11.3079ZM19.7969 13.1045C20.0745 13.1045 20.243 12.9519 20.243 12.6123V11.3079C20.243 10.9682 20.0744 10.8157 19.7969 10.8157C19.5193 10.8157 19.3557 10.9682 19.3557 11.3079V12.6123C19.3557 12.9519 19.5193 13.1045 19.7969 13.1045ZM22.6236 16.1111C22.3396 15.8291 21.8791 15.8291 21.5951 16.1111C21.3111 16.3932 21.3111 16.8504 21.5951 17.1325L22.7587 18.288C23.0427 18.57 23.5032 18.57 23.7872 18.288C24.0712 18.0059 24.0712 17.5487 23.7872 17.2666L22.6236 16.1111Z" fill="#2C92F2"/>
</svg>
