<svg width="24" height="24" viewBox="0 0 24 24" fill="none" xmlns="http://www.w3.org/2000/svg">
<path fill-rule="evenodd" clip-rule="evenodd" d="M7.24688 1.875C6.6172 1.87495 6.00348 2.07304 5.49264 2.44119C4.98181 2.80934 4.59976 3.32889 4.40063 3.92625L3.28275 7.28025L2.70038 6.94425C2.52821 6.84636 2.32431 6.82055 2.13318 6.87244C1.94205 6.92433 1.7792 7.04971 1.68017 7.22123C1.58114 7.39275 1.55398 7.59647 1.6046 7.78794C1.65522 7.97941 1.77952 8.14309 1.95038 8.24325L2.79863 8.733L2.67713 9.09713C2.0928 9.42202 1.60599 9.89726 1.26715 10.4736C0.928301 11.05 0.749751 11.7064 0.750001 12.375V16.875C0.749432 17.6385 1.04 18.3735 1.56251 18.9303C2.08501 19.487 2.80012 19.8235 3.56214 19.8713C4.32416 19.9192 5.07573 19.6746 5.66372 19.1876C6.25172 18.7005 6.63188 18.0076 6.72675 17.25H11.6355C11.6067 16.7483 11.6364 16.2449 11.724 15.75H6C5.80109 15.75 5.61032 15.829 5.46967 15.9697C5.32902 16.1103 5.25 16.3011 5.25 16.5V16.875C5.25 17.2728 5.09197 17.6544 4.81066 17.9357C4.52936 18.217 4.14783 18.375 3.75 18.375C3.35218 18.375 2.97065 18.217 2.68934 17.9357C2.40804 17.6544 2.25 17.2728 2.25 16.875V12.375C2.25 11.7783 2.48705 11.206 2.90901 10.784C3.33097 10.3621 3.90326 10.125 4.5 10.125H19.5C19.9661 10.125 20.4207 10.2697 20.801 10.5391C21.1813 10.8086 21.4686 11.1894 21.6233 11.6291C22.2593 12.0694 22.8105 12.6212 23.25 13.2578V12.375C23.2503 11.7064 23.0717 11.05 22.7329 10.4736C22.394 9.89726 21.9072 9.42202 21.3229 9.09713L21.1894 8.69625L21.9743 8.24325C22.0602 8.19436 22.1357 8.12895 22.1963 8.05078C22.2569 7.97261 22.3014 7.88322 22.3274 7.78777C22.3533 7.69232 22.3601 7.59268 22.3473 7.49459C22.3346 7.39651 22.3025 7.30191 22.2531 7.21625C22.2036 7.1306 22.1377 7.05557 22.0591 6.99549C21.9806 6.9354 21.8909 6.89146 21.7953 6.86618C21.6996 6.8409 21.6 6.83478 21.502 6.84818C21.404 6.86158 21.3096 6.89423 21.2243 6.94425L20.7053 7.24425L19.599 3.92625C19.3999 3.32902 19.018 2.80955 18.5073 2.44141C17.9966 2.07327 17.383 1.87511 16.7535 1.875H7.24688ZM19.5844 8.625L18.1763 4.40062C18.0767 4.10195 17.8857 3.84217 17.6302 3.65809C17.3748 3.47402 17.068 3.37498 16.7531 3.375H7.24688C6.93204 3.37498 6.62518 3.47402 6.36976 3.65809C6.11434 3.84217 5.92332 4.10195 5.82375 4.40062L4.41563 8.625H19.5844Z" fill="#2C92F2"/>
<path d="M7.875 13.125C7.875 13.3239 7.79598 13.5147 7.65533 13.6553C7.51468 13.796 7.32391 13.875 7.125 13.875H5.625C5.42609 13.875 5.23532 13.796 5.09467 13.6553C4.95402 13.5147 4.875 13.3239 4.875 13.125C4.875 12.9261 4.95402 12.7353 5.09467 12.5947C5.23532 12.454 5.42609 12.375 5.625 12.375H7.125C7.32391 12.375 7.51468 12.454 7.65533 12.5947C7.79598 12.7353 7.875 12.9261 7.875 13.125Z" fill="#2C92F2"/>
<path fill-rule="evenodd" clip-rule="evenodd" d="M21.1204 13.6823C19.377 11.9393 16.5506 11.9393 14.8076 13.6823C13.0639 15.426 13.0639 18.252 14.8076 19.9954C16.3699 21.558 18.8029 21.72 20.5459 20.4814L21.9697 21.9053C22.0389 21.9769 22.1217 22.034 22.2132 22.0733C22.3047 22.1126 22.4031 22.1333 22.5027 22.1342C22.6023 22.1351 22.701 22.1161 22.7932 22.0784C22.8854 22.0407 22.9691 21.985 23.0395 21.9145C23.11 21.8441 23.1657 21.7604 23.2034 21.6682C23.2411 21.576 23.2601 21.4773 23.2592 21.3777C23.2583 21.2781 23.2376 21.1797 23.1983 21.0882C23.159 20.9967 23.1019 20.9139 23.0303 20.8447L21.6064 19.4209C22.845 17.6779 22.6826 15.2445 21.1204 13.6823ZM15.8681 14.7431C16.1424 14.4639 16.4694 14.2417 16.83 14.0894C17.1907 13.9372 17.5779 13.8579 17.9693 13.8562C18.3608 13.8544 18.7487 13.9302 19.1107 14.0792C19.4727 14.2282 19.8016 14.4474 20.0785 14.7242C20.3553 15.001 20.5745 15.3299 20.7235 15.6918C20.8725 16.0538 20.9484 16.4417 20.9467 16.8332C20.9449 17.2247 20.8657 17.6119 20.7135 17.9726C20.5613 18.3332 20.3391 18.6602 20.0599 18.9345C19.5024 19.4822 18.7511 19.7875 17.9696 19.7841C17.1881 19.7807 16.4396 19.4687 15.8869 18.9161C15.3343 18.3635 15.0222 17.615 15.0187 16.8335C15.0152 16.052 15.3205 15.3007 15.8681 14.7431Z" fill="#2C92F2"/>
</svg>
