<svg width="17" height="16" viewBox="0 0 17 16" fill="none" xmlns="http://www.w3.org/2000/svg">
<path d="M11.3532 14.7337H8.81991C8.44658 14.7337 7.63324 14.6203 7.19991 14.187L5.17991 12.627L5.79324 11.8337L7.85991 13.4337C8.02658 13.5937 8.44658 13.727 8.81991 13.727H11.3532C11.9532 13.727 12.5999 13.247 12.7332 12.707L14.3466 7.80699C14.4532 7.51365 14.4332 7.24699 14.2932 7.05365C14.1466 6.84699 13.8799 6.72699 13.5532 6.72699H10.8866C10.5399 6.72699 10.2199 6.58032 9.99991 6.32698C9.77324 6.06699 9.67324 5.72032 9.72658 5.36032L10.0599 3.22032C10.1399 2.84699 9.88658 2.42699 9.52658 2.30699C9.19991 2.18699 8.77991 2.36032 8.63324 2.57365L5.89991 6.64032L5.07324 6.08699L7.80658 2.02032C8.22658 1.39365 9.14658 1.09365 9.86658 1.36699C10.6999 1.64032 11.2332 2.56032 11.0466 3.41365L10.7199 5.51365C10.7132 5.56032 10.7132 5.62699 10.7599 5.68032C10.7932 5.71365 10.8399 5.73365 10.8932 5.73365H13.5599C14.2132 5.73365 14.7799 6.00699 15.1132 6.48032C15.4399 6.94032 15.5066 7.54699 15.2932 8.13365L13.6999 12.987C13.4532 13.9537 12.4266 14.7337 11.3532 14.7337Z" fill="#232730" fill-opacity="0.38"/>
<path d="M4.08667 14.0003H3.42C2.18667 14.0003 1.58667 13.4203 1.58667 12.2336V5.70026C1.58667 4.51359 2.18667 3.93359 3.42 3.93359H4.08667C5.32 3.93359 5.92 4.51359 5.92 5.70026V12.2336C5.92 13.4203 5.32 14.0003 4.08667 14.0003ZM3.42 4.93359C2.69334 4.93359 2.58667 5.10693 2.58667 5.70026V12.2336C2.58667 12.8269 2.69334 13.0003 3.42 13.0003H4.08667C4.81334 13.0003 4.92 12.8269 4.92 12.2336V5.70026C4.92 5.10693 4.81334 4.93359 4.08667 4.93359H3.42Z" fill="#232730" fill-opacity="0.6"/>
</svg>
