<svg width="24" height="24" viewBox="0 0 24 24" fill="none" xmlns="http://www.w3.org/2000/svg">
<path d="M17 20.75H12C11.59 20.75 11.25 20.41 11.25 20C11.25 19.59 11.59 19.25 12 19.25H17C19.86 19.25 21.25 17.86 21.25 15V9C21.25 6.14 19.86 4.75 17 4.75H7C4.14 4.75 2.75 6.14 2.75 9V11C2.75 11.41 2.41 11.75 2 11.75C1.59 11.75 1.25 11.41 1.25 11V9C1.25 5.35 3.35 3.25 7 3.25H17C20.65 3.25 22.75 5.35 22.75 9V15C22.75 18.65 20.65 20.75 17 20.75Z" fill="#2C92F2"/>
<path d="M12 15.25C10.21 15.25 8.75 13.79 8.75 12C8.75 10.21 10.21 8.75 12 8.75C13.79 8.75 15.25 10.21 15.25 12C15.25 13.79 13.79 15.25 12 15.25ZM12 10.25C11.04 10.25 10.25 11.04 10.25 12C10.25 12.96 11.04 13.75 12 13.75C12.96 13.75 13.75 12.96 13.75 12C13.75 11.04 12.96 10.25 12 10.25Z" fill="#2C92F2"/>
<path d="M18.5 15.25C18.09 15.25 17.75 14.91 17.75 14.5V9.5C17.75 9.09 18.09 8.75 18.5 8.75C18.91 8.75 19.25 9.09 19.25 9.5V14.5C19.25 14.91 18.91 15.25 18.5 15.25Z" fill="#2C92F2"/>
<path fill-rule="evenodd" clip-rule="evenodd" d="M2.96973 21.5012C2.96973 21.9154 2.63394 22.2512 2.21973 22.2512C1.80551 22.2512 1.46973 21.9154 1.46973 21.5012L1.46949 15.0012C1.46949 14.587 1.80527 14.2512 2.21949 14.2512C2.6337 14.2512 2.96949 14.587 2.96949 15.0012L2.96973 21.5012Z" fill="#2C92F2"/>
<path fill-rule="evenodd" clip-rule="evenodd" d="M0.46967 19.7509C0.762563 19.458 1.23744 19.458 1.53033 19.7509L2.21997 20.4406L2.90961 19.7509C3.2025 19.458 3.67738 19.458 3.97027 19.7509C4.26316 20.0438 4.26316 20.5187 3.97027 20.8116L2.7503 22.0316C2.45741 22.3244 1.98253 22.3244 1.68964 22.0316L0.46967 20.8116C0.176777 20.5187 0.176777 20.0438 0.46967 19.7509Z" fill="#2C92F2"/>
<path fill-rule="evenodd" clip-rule="evenodd" d="M7.49994 22.2512C7.08578 22.2512 6.75006 21.9154 6.75006 21.5012V15.0012C6.75006 14.9031 6.7689 14.8094 6.80316 14.7235C6.83164 14.6521 6.87078 14.5861 6.91861 14.5275C6.92635 14.518 6.93432 14.5087 6.9425 14.4996C7.07979 14.3471 7.27873 14.2512 7.50006 14.2512C7.71178 14.2512 7.90302 14.339 8.03939 14.48C8.16981 14.615 8.25006 14.7987 8.25006 15.0012V21.0969C8.25014 21.1016 8.25018 21.1062 8.25018 21.1108L8.25006 21.5012C8.24993 21.9154 7.91411 22.2513 7.49994 22.2512Z" fill="#2C92F2"/>
<path d="M6.91861 14.5275C6.92635 14.518 6.93432 14.5087 6.9425 14.4996C6.95124 14.4897 6.9604 14.4798 6.96999 14.4697L5.74996 15.6896C5.45706 15.9825 5.45704 16.4574 5.74993 16.7503C6.04282 17.0432 6.45716 17.0432 6.75006 16.7503V15.0012C6.75006 14.9031 6.7689 14.8094 6.80316 14.7235C6.82807 14.6553 6.8641 14.5935 6.91861 14.5275Z" fill="#2C92F2"/>
<path d="M8.03939 14.48C8.16981 14.615 8.25006 14.7987 8.25006 15.0012V16.7503C8.54295 17.0432 8.95771 17.0432 9.25061 16.7503C9.5435 16.4574 9.5435 15.9825 9.25061 15.6896L8.03064 14.4697C8.03359 14.4731 8.0365 14.4766 8.03939 14.48Z" fill="#2C92F2"/>
</svg>
