<svg width="24" height="24" viewBox="0 0 24 24" fill="none" xmlns="http://www.w3.org/2000/svg">
<path d="M14 14.0008V6.00083M14 14.0008L20.102 17.4878C20.1932 17.54 20.2965 17.5673 20.4015 17.5671C20.5066 17.5668 20.6097 17.5389 20.7007 17.4863C20.7916 17.4336 20.8671 17.358 20.9196 17.2671C20.9721 17.1761 20.9999 17.0729 21 16.9678V3.03383C21 2.92868 20.9724 2.82537 20.92 2.73425C20.8675 2.64312 20.792 2.56738 20.7011 2.51462C20.6102 2.46185 20.5069 2.43391 20.4018 2.4336C20.2966 2.43328 20.1933 2.46061 20.102 2.51283L14 6.00083M14 14.0008H7C5.93913 14.0008 4.92172 13.5794 4.17157 12.8293C3.42143 12.0791 3 11.0617 3 10.0008C3 8.93996 3.42143 7.92255 4.17157 7.1724C4.92172 6.42226 5.93913 6.00083 7 6.00083H14M7.757 19.3008L7 14.0008H11L11.677 18.7408C11.7456 19.258 11.6073 19.7813 11.2922 20.197C10.977 20.6128 10.5106 20.8874 9.99419 20.9611C9.47776 21.0349 8.95309 20.9019 8.53419 20.591C8.11528 20.2801 7.83599 19.8165 7.757 19.3008V19.3008Z" stroke="#9098A7" stroke-width="1.5"/>
</svg>
