<svg width="24" height="24" viewBox="0 0 24 24" fill="none" xmlns="http://www.w3.org/2000/svg">
<path d="M20.5838 5.43934C20.3173 5.15804 19.9558 5 19.5789 5H4.42105C4.04417 5 3.68272 5.15804 3.41622 5.43934C3.14972 5.72064 3 6.10218 3 6.5C3 6.89782 3.14972 7.27936 3.41622 7.56066C3.68272 7.84196 4.04417 8 4.42105 8H19.5789C19.9558 8 20.3173 7.84196 20.5838 7.56066C20.8503 7.27936 21 6.89782 21 6.5C21 6.10218 20.8503 5.72064 20.5838 5.43934Z" fill="#232730" fill-opacity="0.6"/>
<path opacity="0.4" d="M20.5838 11.4393C20.3173 11.158 19.9558 11 19.5789 11H4.42105C4.04417 11 3.68272 11.158 3.41622 11.4393C3.14972 11.7206 3 12.1022 3 12.5C3 12.8978 3.14972 13.2794 3.41622 13.5607C3.68272 13.842 4.04417 14 4.42105 14H19.5789C19.9558 14 20.3173 13.842 20.5838 13.5607C20.8503 13.2794 21 12.8978 21 12.5C21 12.1022 20.8503 11.7206 20.5838 11.4393Z" fill="#232730" fill-opacity="0.6"/>
<path d="M20.5838 17.4393C20.3173 17.158 19.9558 17 19.5789 17H4.42105C4.04417 17 3.68272 17.158 3.41622 17.4393C3.14972 17.7206 3 18.1022 3 18.5C3 18.8978 3.14972 19.2794 3.41622 19.5607C3.68272 19.842 4.04417 20 4.42105 20H19.5789C19.9558 20 20.3173 19.842 20.5838 19.5607C20.8503 19.2794 21 18.8978 21 18.5C21 18.1022 20.8503 17.7206 20.5838 17.4393Z" fill="#232730" fill-opacity="0.6"/>
</svg>
