<svg width="24" height="24" viewBox="0 0 24 24" fill="none" xmlns="http://www.w3.org/2000/svg">
<g clip-path="url(#clip0_2189_44828)">
<path d="M8.08149 0.536133H8.12913C8.37926 0.74457 8.57578 1.01851 8.84973 1.19717C9.2666 1.36988 9.73112 1.41157 10.1301 1.62596C10.3505 1.73316 10.5351 1.90586 10.7078 2.08452C11.2021 2.13812 11.7381 2.23936 12.0954 2.6205C12.3932 2.92422 12.5599 3.33514 12.6433 3.74606C12.8458 3.35301 13.1018 2.96591 13.5008 2.75747C13.8582 2.54308 14.281 2.53117 14.68 2.53713C14.8944 2.3406 15.1386 2.16789 15.4185 2.08452C15.8294 1.93564 16.282 1.97732 16.6929 1.8344C17.0026 1.67956 17.2884 1.48899 17.5862 1.31033C17.5802 1.66169 17.5862 2.0071 17.5862 2.35847C17.9137 2.97186 18.3604 3.59717 18.2592 4.32968C18.5748 4.66914 18.8428 5.10983 18.8309 5.58626C18.8606 6.06864 18.6165 6.50933 18.3842 6.9143C18.7713 6.77137 19.1882 6.66417 19.6051 6.74159C20.0696 6.80114 20.4567 7.10487 20.7783 7.42646C21.0522 7.43837 21.3321 7.45028 21.5763 7.58129C21.9812 7.74804 22.285 8.07559 22.6661 8.27211C22.9877 8.36144 23.3152 8.42695 23.6428 8.48651V8.52819C23.4522 8.77832 23.1961 8.9808 23.0175 9.23688C22.8567 9.57633 22.8329 9.96343 22.6959 10.3148C22.5827 10.6423 22.3743 10.9341 22.1123 11.1545C22.1123 11.5356 22.0587 11.9287 21.8443 12.2562C21.5941 12.6791 21.1356 12.9173 20.683 13.0662C21.0463 13.2925 21.3738 13.6021 21.5286 14.0131C21.6597 14.3108 21.6358 14.6443 21.6418 14.96C21.8145 15.1624 21.9872 15.3768 22.0706 15.6329C22.2314 16.0617 22.2314 16.5262 22.3267 16.9669C22.5172 17.2587 22.6899 17.5684 22.8805 17.8602C22.541 17.8602 22.1956 17.8364 21.8562 17.8781C21.6061 17.9555 21.3976 18.1222 21.1654 18.2413C20.7664 18.4676 20.3078 18.5987 19.8492 18.5629C19.6765 18.7059 19.5038 18.8547 19.3013 18.95C18.819 19.2061 18.2294 19.1585 17.741 18.95C17.8185 19.5992 17.4731 20.2006 16.9907 20.6056C16.9788 20.8736 16.9609 21.1475 16.8299 21.3917C16.6572 21.7907 16.3118 22.0885 16.1093 22.4696C15.9902 22.8031 15.9425 23.1545 15.8532 23.4939C15.5971 23.2557 15.353 22.9997 15.0671 22.7912C14.674 22.6185 14.2334 22.5828 13.8463 22.3803C13.5902 22.2671 13.3996 22.0528 13.2031 21.8622C12.5063 21.892 11.8155 21.5168 11.5118 20.8736C11.3391 21.1237 11.1425 21.3619 10.8924 21.5346C10.5172 21.7848 10.0587 21.8562 9.61797 21.8384C9.31425 22.148 8.90333 22.3327 8.4805 22.3982C8.15296 22.4756 7.78968 22.4458 7.49787 22.6304C7.2537 22.7793 7.00953 22.9341 6.77132 23.089C6.75345 22.7436 6.75941 22.3982 6.69985 22.0587C6.61648 21.7788 6.41995 21.5525 6.29489 21.2964C6.08645 20.9332 5.99712 20.5163 6.00904 20.0994C5.80655 19.8552 5.60407 19.5992 5.50283 19.2954C5.34204 18.819 5.44328 18.3009 5.64576 17.8483C5.11573 18.0567 4.49042 18.1341 3.96635 17.8602C3.70432 17.7411 3.50184 17.5327 3.2934 17.3361C2.92417 17.3183 2.5609 17.2289 2.24526 17.0324C1.93559 16.8538 1.68546 16.5917 1.36387 16.4309C1.03633 16.3356 0.696876 16.2761 0.357422 16.2046C0.577769 15.9307 0.845759 15.7044 1.0542 15.4304C1.22095 15.0255 1.25072 14.5788 1.4532 14.1917C1.5604 13.9475 1.74501 13.751 1.92963 13.5664C1.97132 13.1734 2.03087 12.7624 2.25717 12.4289C2.54899 11.9763 3.07305 11.756 3.5733 11.625C3.09688 11.4761 2.62045 11.22 2.34055 10.7912C2.07256 10.4101 2.00705 9.93365 2.00705 9.48105C1.57827 9.07608 1.44129 8.48055 1.38769 7.92075C1.35196 7.4205 0.976777 7.05127 0.756429 6.62844C1.16139 6.5808 1.59018 6.68204 1.97727 6.5272C2.50134 6.17584 3.09688 5.83638 3.75196 5.90784C4.00804 5.66963 4.29985 5.45524 4.64526 5.36591C5.24675 5.16343 5.87206 5.44333 6.37827 5.75896C6.21152 5.33613 6.14601 4.86566 6.2532 4.42497C6.35444 4.03191 6.62839 3.72224 6.90234 3.44829C6.90829 2.85276 7.21797 2.31678 7.5872 1.87013C7.91474 1.50685 7.91474 0.994694 8.04576 0.548043L8.08149 0.536133ZM8.60556 2.14407C8.34948 2.54308 7.89092 2.89445 7.93856 3.41256C7.92665 3.61504 7.83137 3.7937 7.77777 3.98427C7.55147 4.15102 7.32516 4.34755 7.22988 4.62149C7.09291 4.90735 7.25965 5.21107 7.33707 5.49097C7.59911 5.76492 7.98025 5.88402 8.34948 5.89593C8.90928 5.89593 9.47504 5.94953 10.017 6.09842C10.2611 5.70536 10.5887 5.37782 10.952 5.09196C11.2974 4.7942 11.6904 4.45474 11.7262 3.96641C11.6666 3.60909 11.4879 3.21603 11.1128 3.10884C10.9043 3.07311 10.6959 3.06715 10.4874 3.07311C10.3267 2.96591 10.142 2.89445 10.011 2.75747C9.70134 2.29891 9.08794 2.31678 8.61747 2.13812L8.60556 2.14407ZM15.5971 3.03737C15.4304 3.16244 15.2994 3.33514 15.0969 3.4066C14.817 3.57335 14.4894 3.44829 14.1857 3.50189C13.8284 3.59122 13.6021 3.92472 13.477 4.24631C13.4175 4.56789 13.5902 4.86566 13.7688 5.11579C14.1619 5.59817 14.6204 6.03886 14.9003 6.60462C15.4721 6.43192 16.0795 6.54507 16.6572 6.59866C16.9907 6.59866 17.3718 6.55698 17.6279 6.31876C17.8244 6.02695 17.9912 5.65177 17.8185 5.31231C17.6994 5.13365 17.5564 4.97881 17.4135 4.82397C17.2527 4.53812 17.3003 4.19866 17.2825 3.88303C17.1812 3.50189 16.9192 3.18626 16.7584 2.82894C16.3713 2.88253 15.9664 2.88849 15.5971 3.03737ZM10.809 6.64631C10.7137 6.98576 10.3207 7.00958 10.0527 7.13464C9.74303 7.05722 9.44526 6.89048 9.11176 6.90834C8.33162 6.84283 7.45023 6.89048 6.83087 6.32472C7.17032 7.06914 6.96784 7.90288 7.00953 8.69494C7.00358 8.90338 7.07504 9.10586 7.15246 9.29643C7.05122 9.51082 6.97975 9.74904 6.84874 9.94556C6.51524 10.1064 6.17578 10.2791 5.91375 10.5471C5.39564 11.0056 4.8537 11.5892 4.11524 11.5952C4.59167 11.7322 5.04427 11.9882 5.37181 12.3634C5.80655 12.7863 6.15196 13.3341 6.73559 13.5724C6.8666 13.7689 6.92616 14.0071 7.01549 14.2274C6.59861 15.1148 6.9202 16.157 6.47951 17.0443C7.33112 16.681 8.26611 16.9848 9.15345 16.8478C9.24874 16.8061 9.34402 16.7704 9.43931 16.7346C9.65966 16.8359 9.89191 16.9193 10.1004 17.0384C10.3743 17.8542 11.1604 18.3307 11.5654 19.0691C11.9227 18.4498 12.5718 18.1044 13.0244 17.5743C13.1495 17.4314 13.215 17.2408 13.3401 17.092C13.5247 16.9848 13.7391 16.9252 13.9415 16.8597C14.1976 16.9133 14.4418 17.0443 14.7038 17.0801C15.3589 17.1336 16.0259 17.1277 16.6512 17.354C16.6512 16.9312 16.6393 16.5083 16.6929 16.0855C16.7346 15.7401 16.6393 15.4066 16.5678 15.0731C16.6393 14.8647 16.7525 14.6741 16.8358 14.4657C17.8066 14.1619 18.3306 13.1317 19.3252 12.8696C18.5688 12.423 18.1639 11.5416 17.342 11.1962C17.2289 10.9877 17.1634 10.7555 17.0681 10.5411C17.3242 10.0468 17.2944 9.48105 17.342 8.94507C17.3301 8.37335 17.4731 7.76591 17.8602 7.32521C17.1693 7.65276 16.3773 7.54556 15.6448 7.4741C15.347 7.45623 15.0671 7.55747 14.7812 7.61703C14.5669 7.53365 14.3465 7.44432 14.144 7.32521C13.8046 6.31876 12.7028 5.76492 12.5123 4.68105C12.1669 5.52075 11.2616 5.90189 10.8031 6.65822L10.809 6.64631ZM4.32368 6.71181C4.15693 6.82497 3.95444 6.83688 3.76983 6.89047C3.66263 6.86665 3.55544 6.8071 3.44229 6.85474C3.02541 6.95598 2.69787 7.24184 2.31673 7.4205C2.41201 7.88502 2.3465 8.45673 2.7336 8.80214C2.87057 8.94507 2.93608 9.14159 3.04328 9.3143C3.01946 9.52273 2.98372 9.73713 3.04328 9.93961C3.09688 10.3386 3.48993 10.5768 3.84129 10.69C4.18075 10.69 4.49042 10.5292 4.74055 10.3088C5.16933 9.91579 5.59812 9.51082 6.11028 9.21901C6.0805 8.89147 5.99117 8.56392 6.03286 8.23043C6.08645 7.74804 6.14601 7.25375 5.99712 6.78328C5.8542 6.42 5.45519 6.27708 5.09191 6.24134C4.77628 6.27112 4.54402 6.50338 4.32963 6.71181H4.32368ZM18.5391 8.01008C18.3068 8.34358 18.283 8.77236 18.2889 9.16541C18.3008 9.61802 18.2294 10.0706 18.1222 10.5113C18.4438 10.7257 18.7475 10.9639 18.9917 11.2617C19.3252 11.6547 19.6944 12.0954 20.2304 12.1967C20.5817 12.1312 20.9986 11.9763 21.1118 11.5952C21.2368 11.3212 21.076 10.9937 21.2606 10.7436C21.3559 10.5292 21.5405 10.3863 21.6954 10.2195C21.9098 9.85623 21.9336 9.42149 22.0706 9.0344C21.7371 8.82 21.4393 8.55201 21.076 8.38526C20.8736 8.38526 20.6592 8.40313 20.4626 8.32571C20.0636 8.25425 19.9267 7.78378 19.5396 7.68849C19.1882 7.6468 18.7654 7.68849 18.545 8.00412L18.5391 8.01008ZM3.13856 12.8935C2.91822 13.1376 2.96586 13.489 2.94204 13.7927C2.84675 14.0369 2.69191 14.2572 2.48348 14.418C2.18571 14.7694 2.1738 15.2637 2.03087 15.6805C2.44179 15.9426 2.81697 16.4369 3.35891 16.3356C3.53162 16.3952 3.70432 16.4369 3.87107 16.5143C4.04377 16.7108 4.21052 16.9371 4.4666 17.0324C4.74055 17.1813 5.05023 17.0622 5.31822 16.9609C5.62194 16.7942 5.72318 16.425 5.77678 16.1034C5.79464 15.49 5.81846 14.8647 5.98521 14.2691C5.28248 13.888 4.93112 13.1138 4.27008 12.685C3.90085 12.4706 3.43037 12.6195 3.14452 12.9054L3.13856 12.8935ZM18.9857 14.1322C18.5391 14.5133 18.1222 14.9361 17.5862 15.1922C17.8899 16.0855 17.2944 17.092 17.8363 17.9257C18.1043 18.0567 18.3783 18.2354 18.6879 18.1877C18.9678 18.1103 19.1644 17.89 19.3728 17.7054C19.5455 17.6339 19.7361 17.5863 19.9267 17.5803C20.4745 17.6994 20.8974 17.2468 21.3678 17.0622C21.3023 16.6751 21.3083 16.2582 21.1475 15.8949C21.0224 15.7282 20.8557 15.5972 20.7783 15.3947C20.5936 15.1029 20.7783 14.7396 20.6651 14.4299C20.5639 14.0845 20.2244 13.8999 19.9207 13.7748C19.5753 13.7391 19.2477 13.9356 18.9857 14.1441V14.1322ZM6.65817 18.0508C6.52119 18.3128 6.3604 18.5868 6.40209 18.8905C6.44973 19.1823 6.70581 19.3669 6.89042 19.5813C7.03335 19.8731 7.01549 20.2066 7.0274 20.5222C7.14055 20.9034 7.40258 21.219 7.58124 21.5763C7.96238 21.5108 8.34353 21.481 8.71276 21.3619C8.89142 21.1833 9.08199 21.0106 9.3202 20.9212C9.36189 20.9034 9.43335 20.8617 9.47504 20.8438C9.82045 20.9034 10.2314 20.9093 10.5053 20.6473C10.7376 20.3793 10.9639 20.0041 10.7733 19.6468C10.4458 18.9322 9.71921 18.4974 9.38571 17.7768C8.99266 17.8364 8.59961 17.8959 8.2006 17.8423C7.68248 17.7649 7.11673 17.7471 6.66412 18.0448L6.65817 18.0508ZM13.9892 17.8781C13.7748 18.2116 13.5008 18.4974 13.1971 18.7475C12.816 19.0989 12.3336 19.4324 12.2443 19.9803C12.3157 20.3019 12.4408 20.6235 12.7267 20.814C12.9768 20.9093 13.2507 20.9034 13.5128 20.9034C13.6557 21.0165 13.8284 21.088 13.9594 21.2131C14.275 21.6776 14.8944 21.6835 15.3827 21.8503C15.5912 21.5049 15.9187 21.225 16.0378 20.826C16.0319 20.5341 16.1093 20.2602 16.2224 19.9922C16.5321 19.8076 16.7941 19.492 16.818 19.1168C16.7882 18.9083 16.7227 18.7059 16.6631 18.5034C16.4428 18.2771 16.145 18.152 15.8353 18.1103C15.2219 18.0686 14.5907 18.0686 14.0011 17.8662L13.9892 17.8781Z" fill="#2C92F2"/>
<path d="M12.0598 7.11094C12.1432 7.31342 12.1551 7.52781 12.1849 7.7422C12.1849 7.78389 12.167 7.81962 12.1313 7.83153C12.0181 7.87322 11.9407 7.98637 11.9407 8.10548C11.9348 8.87372 12.0539 9.69555 11.6191 10.3685C11.7502 9.74319 11.6787 9.10002 11.6906 8.4628C11.6787 7.98637 11.7263 7.46826 12.0658 7.10498L12.0598 7.11094Z" fill="#2C92F2"/>
<path d="M12.3019 8.62949C12.5401 8.71287 12.7843 8.8022 13.0284 8.87366C13.0165 9.07614 13.2131 9.17738 13.3322 9.3084C13.5823 9.52279 13.7788 9.84438 13.7014 10.1838C13.6001 10.5114 13.3977 10.7972 13.1475 11.0295C12.8021 11.357 12.4389 11.6727 11.9803 11.8394C11.891 11.8751 11.7897 11.899 11.6944 11.8751C11.5634 11.8394 11.3907 11.6429 11.3848 11.494C11.3848 11.2141 11.486 10.9759 11.6528 10.7436C11.5992 11.1903 11.8076 11.2677 11.8255 11.2737C12.1232 11.3928 12.415 11.2498 12.6473 11.0593C12.7962 10.9342 12.9332 10.8032 13.0642 10.6543C13.1773 10.5233 13.35 10.3506 13.3738 10.1719C13.3858 10.0945 13.3619 10.0171 13.3262 9.95158C13.2309 9.77292 13.0582 9.64785 12.8855 9.54066C12.7962 9.48706 12.7069 9.43942 12.6116 9.39177C12.5758 9.37391 12.2959 9.2548 12.2959 9.22502C12.2959 9.02254 12.2959 8.82602 12.2959 8.62354L12.3019 8.62949Z" fill="#2C92F2"/>
<path d="M10.4534 9.10571C10.4534 9.10571 10.4534 9.10571 10.4593 9.10571C10.5784 9.01638 10.7154 8.93301 10.8583 8.89132C10.906 8.87941 11.3883 8.80199 11.3883 8.80794C11.3883 8.98065 11.3824 9.15335 11.3764 9.32606C11.3764 9.32606 11.3705 9.3201 11.3645 9.31415C11.1978 9.16526 10.9715 9.21886 10.7928 9.31415C10.638 9.39752 10.364 9.55831 10.3402 9.74889C10.3343 9.80844 10.3462 9.87395 10.3879 9.92159C10.4653 10.0288 10.6201 10.0645 10.7333 10.1181C10.9417 10.2253 11.0906 10.404 11.0668 10.6481C11.0489 10.8447 10.9357 11.0174 10.8107 11.1663C10.5784 11.4581 10.2509 11.6546 9.89356 11.7499C9.56006 11.8392 9.18487 11.863 8.85733 11.738C8.54765 11.6189 8.35113 11.2913 8.33922 10.9697C8.3273 10.5767 8.39281 10.1419 8.65485 9.83226C8.60721 10.261 8.46428 10.7434 8.74418 11.1246C8.93475 11.3866 9.29207 11.3985 9.58388 11.3509C9.91142 11.3032 10.2568 11.1841 10.5427 11.0174C10.632 10.9638 10.7154 10.8685 10.7094 10.7672C10.7094 10.6898 10.6558 10.6184 10.5963 10.5707C10.4831 10.4814 10.3223 10.4337 10.1854 10.3802C9.97693 10.2908 9.86378 10.0586 9.92929 9.83822C10.0186 9.5464 10.2092 9.29628 10.4474 9.11166L10.4534 9.10571Z" fill="#2C92F2"/>
<path d="M15.3558 9.92778C15.4094 9.86823 15.457 9.80272 15.5166 9.74316C15.7191 10.1064 15.8084 10.565 15.5404 10.9164C15.4153 11.1844 15.064 11.2796 14.8317 11.0831C14.7781 11.095 14.7245 11.1069 14.6709 11.1248C14.5637 11.1546 14.4506 11.1248 14.3791 11.0414C14.3017 10.964 14.2421 10.8687 14.1885 10.7675C14.0754 10.8509 14.0039 10.964 13.9265 11.0772C13.9265 11.0772 14.1647 11.1844 14.1826 11.1963C14.266 11.238 14.3553 11.2796 14.4268 11.3332C14.5935 11.4523 14.7007 11.6429 14.7662 11.8335C14.7841 11.8811 14.79 11.9407 14.7841 11.9943C14.7841 12.0538 14.7483 12.0955 14.7245 12.1432C14.665 12.2801 14.5459 12.3576 14.4148 12.4171C14.3136 12.4648 14.1885 12.4767 14.0813 12.4409C13.8074 12.3576 13.7538 12.2801 13.6704 12.1729C13.0034 12.6791 12.658 13.5486 11.8779 13.9119C11.8957 14.3943 11.8779 14.9243 11.6158 15.3471C11.6933 14.9243 11.6873 14.4836 11.6218 14.0608C11.6099 13.9059 11.4848 13.7987 11.3895 13.6856C11.2585 13.5308 11.2347 13.3045 11.2168 13.1079C11.193 12.9293 11.193 12.7327 11.2764 12.5719C11.2942 12.5362 11.3121 12.5064 11.3359 12.4767C11.3478 12.4588 11.4134 12.4112 11.4134 12.3992C11.3717 12.7923 11.2585 13.2628 11.5682 13.5784C11.598 13.0603 11.4729 12.4648 11.8719 12.0479C11.9493 12.2682 11.9851 12.5005 12.0506 12.7268C11.9672 12.7685 11.8898 12.8042 11.8064 12.8459C11.8064 13.0782 11.8124 13.3045 11.8302 13.5367C12.3781 13.2092 12.8069 12.7268 13.2059 12.2384C13.1106 12.1253 13.1047 11.9705 13.1523 11.8335C13.2655 11.5834 13.4322 11.3451 13.6764 11.2082C13.7657 10.9223 13.855 10.6305 14.0158 10.3744C14.0635 10.303 14.129 10.2494 14.2064 10.2196C14.2124 10.2196 14.2243 10.2196 14.2302 10.2136C14.2719 10.1958 14.3255 10.2136 14.3493 10.2494C14.4327 10.3625 14.5042 10.4935 14.5756 10.6186C14.6114 10.6722 14.7007 10.6722 14.7305 10.6305C14.8019 10.5531 14.8615 10.4399 14.9091 10.3208C15.0044 10.3983 15.058 10.4876 15.1235 10.5769C15.1593 10.6186 15.2188 10.6424 15.2665 10.6246C15.2962 10.6126 15.326 10.5948 15.3439 10.571C15.3677 10.5471 15.3737 10.5114 15.3677 10.4757C15.3439 10.3625 15.3081 10.2494 15.2724 10.1362C15.2486 10.0588 15.2665 9.97542 15.3201 9.91587L15.3558 9.92778ZM13.8312 11.4762C13.6585 11.5953 13.4679 11.7382 13.4739 11.9466C13.4739 11.9883 13.5037 12.0241 13.5454 12.0241C13.6526 12.0241 13.7657 12.0002 13.855 11.9347C13.9027 11.899 13.9325 11.8514 13.9444 11.7918C13.9622 11.7144 13.9801 11.631 13.9801 11.5536C13.9801 11.4762 13.8967 11.4285 13.8312 11.4762ZM14.0873 12.0181V12.03C14.123 12.0955 14.1885 12.1313 14.2541 12.1253C14.3017 12.1193 14.3493 12.1134 14.4029 12.1015C14.5042 12.0777 14.5697 11.9824 14.5637 11.8811C14.5637 11.8573 14.5578 11.8394 14.5399 11.8216C14.5161 11.7918 14.4982 11.768 14.4744 11.7382C14.4268 11.6786 14.3374 11.6608 14.2719 11.7025C14.2362 11.7263 14.1945 11.7501 14.1588 11.7739C14.0813 11.8275 14.0516 11.9288 14.0873 12.0121V12.0181Z" fill="#2C92F2"/>
<path d="M9.0789 13.4773C9.36476 13.3761 9.63275 13.1379 9.82927 12.9413C10.0854 12.6793 10.3117 12.3875 10.5677 12.1314C10.663 12.0361 10.7702 11.9408 10.8774 11.8575C10.931 11.8158 10.9906 11.7741 11.0501 11.7384C11.0739 11.7264 11.2228 11.6609 11.2228 11.6431C11.199 11.7622 11.1752 11.8753 11.1514 11.9944C11.1514 12.0183 10.9489 12.0957 10.9191 12.1195C10.8417 12.1671 10.7702 12.2207 10.6988 12.2803C10.5618 12.3934 10.4308 12.5245 10.3117 12.6614C10.0675 12.9354 9.85309 13.2331 9.5851 13.4833C9.28138 13.7691 8.84069 13.9418 8.42977 13.8168C8.25111 13.7632 8.14391 13.5666 8.11414 13.3999C8.04267 13.0247 8.21538 12.6912 8.40595 12.3815C8.38213 12.4232 8.38213 12.5066 8.37022 12.5542C8.35235 12.6197 8.33448 12.6852 8.31662 12.7567C8.27493 12.9235 8.26302 13.12 8.35831 13.2689C8.45955 13.4297 8.65607 13.5309 8.84069 13.525C8.92406 13.525 9.00148 13.5071 9.0789 13.4773Z" fill="#2C92F2"/>
<path d="M13.9497 12.9113C14.1045 12.8339 14.4202 12.8637 14.5631 12.9173C14.5631 13.0125 14.5631 13.1078 14.569 13.2031C14.3844 13.0721 14.1581 13.0959 13.9735 13.2031C13.8068 13.2984 13.7115 13.4771 13.7115 13.6676C13.7115 13.7034 13.7353 13.7391 13.7651 13.751C14.1462 13.8939 14.5571 14.1679 14.569 14.6086C14.5869 14.7991 14.4618 14.9302 14.3189 15.0254C14.1581 15.1267 13.9675 15.1624 13.7829 15.1088C13.64 15.0671 13.5626 14.9838 13.4375 14.8527C12.9849 15.2339 12.6157 15.7044 12.2048 16.1391C11.9308 16.3952 11.5675 16.6572 11.1685 16.5441C10.8767 16.413 10.7934 16.0676 10.7695 15.7758C10.7695 15.5852 10.7934 15.3649 10.978 15.2637C10.9422 15.5555 10.9244 15.883 11.0852 16.145C11.2638 16.3356 11.5318 16.2106 11.7164 16.1034C12.2345 15.7996 12.6276 15.3351 13.0385 14.9063C12.7884 14.5669 13.11 14.2096 13.378 13.9535C13.4375 13.8939 13.4792 13.8165 13.4911 13.7331C13.5388 13.3818 13.5983 13.0661 13.9556 12.9113H13.9497ZM13.2589 14.5847C13.3303 14.6503 13.4316 14.6741 13.5269 14.6383C13.5507 14.6264 13.5745 14.6205 13.5983 14.6086C13.6579 14.5847 13.7055 14.5371 13.7234 14.4716C13.7472 14.3882 13.7651 14.3048 13.777 14.2215C13.7889 14.1321 13.6876 14.0726 13.6162 14.1262C13.4733 14.2274 13.3601 14.3584 13.247 14.4954C13.2231 14.5252 13.2291 14.5609 13.2529 14.5847H13.2589ZM13.8723 14.6681C13.9259 14.7753 14.0271 14.7872 14.1283 14.7694C14.2832 14.7396 14.3606 14.5728 14.2951 14.4359C14.2534 14.3406 14.1403 14.3108 14.0569 14.3525C13.9259 14.424 13.8008 14.5073 13.8782 14.6681H13.8723Z" fill="#2C92F2"/>
<path d="M10.5801 13.3165C10.8183 13.5726 10.8481 13.9299 10.9255 14.2515C10.9791 14.4421 10.9612 14.6743 10.9255 14.8649C10.8064 15.5736 10.0739 16.05 9.40094 16.1393C9.17463 16.1691 8.97811 16.1096 8.77563 16.0143C8.61483 15.9369 8.43617 15.8297 8.36471 15.651C8.28133 15.4485 8.26347 15.2043 8.25751 14.984C8.2456 14.7339 8.23965 14.4897 8.30515 14.2455C8.32898 14.5195 8.35875 14.7934 8.38257 15.0674C8.39448 15.1746 8.53741 15.7046 9.06148 15.7463C9.37116 15.7701 9.72848 15.6927 10.0084 15.5676C10.2942 15.4366 10.592 15.1984 10.6396 14.8708C10.6932 14.5016 10.4789 14.1502 10.3419 13.8227L10.5801 13.3105V13.3165Z" fill="#2C92F2"/>
<path d="M15.5096 12.4895L15.2695 12.2495L15.0295 12.4895L15.2695 12.7296L15.5096 12.4895Z" fill="#2C92F2"/>
<path d="M15.5096 12.9363L15.2695 12.6963L15.0295 12.9363L15.2695 13.1763L15.5096 12.9363Z" fill="#2C92F2"/>
<path d="M15.1643 9.42655L15.4043 9.18652L15.1643 8.94649L14.9242 9.18652L15.1643 9.42655Z" fill="#2C92F2"/>
<path d="M14.8596 8.96269L15.0996 8.72266L14.8596 8.48263L14.6195 8.72266L14.8596 8.96269Z" fill="#2C92F2"/>
<path d="M14.5608 9.42362L14.8008 9.18359L14.5608 8.94356L14.3207 9.18359L14.5608 9.42362Z" fill="#2C92F2"/>
<path d="M9.66191 14.409L9.42188 14.1689L9.18184 14.409L9.42187 14.649L9.66191 14.409Z" fill="#2C92F2"/>
</g>
<defs>
<clipPath id="clip0_2189_44828">
<rect width="24" height="24" fill="white"/>
</clipPath>
</defs>
</svg>
