
<svg width="24" height="24" viewBox="0 0 24 24" fill="none" xmlns="http://www.w3.org/2000/svg">
  <path d="M20.3507 7.21671C18.1119 5.78819 15.1463 5 12 5C8.85373 5 5.88632 5.78819 3.64876 7.21671C1.29575 8.71848 0 10.7722 0 13C0 15.2278 1.29575 17.2815 3.64876 18.7833C5.88632 20.2118 8.85297 21 12 21C15.147 21 18.1122 20.2132 20.351 18.7846C22.704 17.2815 24 15.2278 24 13C24 10.7722 22.704 8.71848 20.3507 7.21671ZM19.9304 17.6076C17.8201 18.9541 15.004 19.6957 11.9997 19.6957C8.99545 19.6957 6.17886 18.9531 4.06914 17.6076C2.10291 16.3526 0.975158 14.6732 0.975158 13C0.975158 11.3268 2.10291 9.64743 4.06914 8.39241C6.17912 7.04591 8.99545 6.3043 11.9997 6.3043C15.004 6.3043 17.8201 7.04692 19.9304 8.39241C21.8968 9.64743 23.0248 11.3268 23.0248 13C23.0248 14.6732 21.8968 16.3526 19.9304 17.6076Z" fill="#232730"/>
  <path d="M13.614 11.6807C13.614 11.6244 13.6115 11.5441 13.6064 11.4397C13.6014 11.3353 13.5941 11.2201 13.5847 11.094C13.5748 10.9683 13.5642 10.8368 13.5529 10.6998C13.5416 10.5627 13.5293 10.4336 13.516 10.3123L12.7834 10.4753C12.8191 10.8662 12.8443 11.1659 12.8591 11.3745C12.8738 11.5828 12.8811 11.7286 12.8811 11.811C12.8807 11.8387 12.8748 11.8657 12.8639 11.8893C12.8469 11.9215 12.8232 11.9464 12.7957 11.9609C12.7505 11.987 12.7029 12.0056 12.6543 12.0162C12.5761 12.0334 12.497 12.041 12.4178 12.0392H12.2958C12.1363 12.0392 12.0234 12.0012 11.957 11.9251C11.8901 11.8491 11.8559 11.7091 11.8559 11.5048V10.8011H11.1999C11.1999 11.079 11.195 11.2994 11.1852 11.4623C11.1803 11.588 11.1647 11.7126 11.1387 11.8336C11.1175 11.918 11.0882 11.9737 11.0511 11.9997C11.0061 12.0279 10.9567 12.0413 10.9071 12.0389C10.8459 12.0389 10.7851 12.0267 10.7267 12.0027C10.6599 11.9715 10.6008 11.9164 10.5559 11.8434C10.5592 11.7867 10.5617 11.7195 10.5632 11.6409C10.5647 11.5622 10.5658 11.4822 10.5658 11.3999V10.9307H9.90736C9.90884 11.1124 9.90234 11.2941 9.88791 11.4748C9.87938 11.5909 9.85801 11.7046 9.8245 11.8124C9.80242 11.8857 9.76304 11.9475 9.71233 11.9882C9.65925 12.023 9.60061 12.0398 9.54155 12.0372C9.47705 12.0366 9.41296 12.0234 9.35132 11.998C9.28614 11.9719 9.2325 11.9089 9.19039 11.809C9.19367 11.7526 9.19595 11.6875 9.19772 11.6135C9.19949 11.5396 9.20024 11.4626 9.20024 11.382V10.9314H8.54163C8.54337 11.1185 8.53612 11.3057 8.51991 11.4917C8.50525 11.6352 8.47679 11.7471 8.43452 11.8272C8.39319 11.9067 8.33303 11.9652 8.26374 11.9933C8.17169 12.0275 8.0763 12.043 7.98079 12.0392H7.88226C7.81501 12.0403 7.7479 12.0304 7.68243 12.0098C7.62582 11.9916 7.5732 11.9559 7.52883 11.9055C7.48152 11.8496 7.44657 11.7775 7.42778 11.6969C7.40272 11.5861 7.3912 11.4707 7.39367 11.355V8.51953L6.6378 8.61743L6.71081 13.3094C6.70735 13.3858 6.68309 13.4578 6.6426 13.5119C6.58659 13.5914 6.51948 13.6555 6.44504 13.7006C6.34314 13.7641 6.23594 13.8111 6.12572 13.8407C5.98124 13.8799 5.83405 13.8984 5.68664 13.8961C5.56756 13.8994 5.44866 13.8819 5.33296 13.8441C5.24877 13.8166 5.16929 13.7679 5.09877 13.7006C5.04204 13.6457 4.99738 13.5714 4.96942 13.4856C4.94281 13.3988 4.92958 13.3057 4.93052 13.2118C4.93052 13.1556 4.93212 13.0873 4.93532 13.007C4.94011 12.9108 4.94854 12.815 4.96058 12.72C4.97338 12.6093 4.99123 12.479 5.01414 12.3291C5.03704 12.1793 5.06677 12.0066 5.10332 11.811L4.51822 11.5825C4.38483 12.0551 4.29869 12.4428 4.25978 12.7457C4.22087 13.0486 4.20134 13.2797 4.20117 13.439C4.20117 13.9951 4.32151 14.422 4.56218 14.7197C4.80285 15.0174 5.1621 15.1662 5.63991 15.1659C5.87224 15.1683 6.10342 15.1221 6.32504 15.0289C6.52668 14.9455 6.71576 14.8154 6.88361 14.6444C7.04055 14.4831 7.16877 14.2773 7.25902 14.0419C7.35192 13.7943 7.3988 13.5205 7.3957 13.2436V13.0809C7.45013 13.1625 7.5199 13.2232 7.5978 13.2567C7.68997 13.2941 7.78595 13.312 7.88226 13.3097H7.97978C8.18795 13.3097 8.35704 13.2696 8.48706 13.1892C8.61764 13.1083 8.729 12.9809 8.80892 12.821C8.8795 12.9635 8.97178 13.0845 9.07974 13.1761C9.18534 13.2661 9.33077 13.3111 9.51603 13.3111C9.63934 13.311 9.76174 13.2831 9.87805 13.2284C9.99494 13.1739 10.1023 13.049 10.1999 12.8537C10.2401 12.9332 10.2895 13.0036 10.3462 13.0623C10.401 13.1179 10.4603 13.1649 10.5231 13.2024C10.5825 13.2383 10.6447 13.2655 10.7085 13.2837C10.7662 13.3006 10.825 13.3093 10.8841 13.3097C11.0191 13.3141 11.1519 13.2629 11.2645 13.1632C11.3654 13.0735 11.4514 12.957 11.5172 12.821C11.5557 12.919 11.6089 13.0055 11.6733 13.0751C11.7328 13.1387 11.7995 13.1892 11.8709 13.225C11.94 13.2592 12.012 13.2819 12.0853 13.2925C12.1558 13.3031 12.2266 13.3085 12.2975 13.3087H12.3951C12.5533 13.3102 12.7109 13.2817 12.8632 13.224C13.0059 13.1702 13.1382 13.0758 13.251 12.9472C13.3684 12.809 13.4595 12.6355 13.5167 12.4409C13.5816 12.2338 13.614 11.9805 13.614 11.6807Z" fill="#232730"/>
  <path d="M13.1019 9.85649L13.5409 9.27016V9.17227L13.1019 8.58594H13.0289L12.5898 9.17227V9.27016L13.0289 9.85649H13.1019Z" fill="#232730"/>
  <path d="M14.7343 13.2766V8.51953L13.9785 8.61742L14.0517 13.3418L14.7343 13.2766Z" fill="#232730"/>
  <path d="M17.7349 13.791L17.3204 14.3449L16.9058 13.791H16.8325L16.418 14.3449V14.4425L16.8325 14.9964H16.9058L17.3204 14.4425L17.7349 14.9964H17.8079L18.2225 14.4425V14.3449L17.8079 13.791H17.7349Z" fill="#232730"/>
  <path d="M16.6617 13.3093H16.7594C16.9177 13.3108 17.0753 13.2823 17.2276 13.2246C17.3702 13.1707 17.5025 13.0763 17.6153 12.9478C17.7327 12.8095 17.8237 12.636 17.8811 12.4415C17.9461 12.2329 17.9786 11.9787 17.9786 11.679C17.9786 11.6227 17.9762 11.5424 17.9713 11.4379C17.9664 11.3335 17.9591 11.2183 17.9493 11.0923C17.9394 10.9665 17.9289 10.8351 17.9177 10.6981C17.9066 10.561 17.8944 10.4318 17.8811 10.3105L17.1485 10.4736C17.1844 10.8645 17.2096 11.1642 17.2243 11.3728C17.2389 11.5811 17.2462 11.7269 17.2462 11.8093C17.2458 11.8369 17.24 11.8639 17.2293 11.8876C17.2121 11.9197 17.1884 11.9446 17.1609 11.9591C17.1157 11.9852 17.0682 12.0038 17.0196 12.0145C16.9414 12.0316 16.8622 12.0393 16.7829 12.0374H16.6612C16.5709 12.0403 16.4808 12.0282 16.3929 12.0013C16.3227 11.9759 16.2614 11.9183 16.2198 11.8386C16.1632 11.7272 16.1211 11.6038 16.0953 11.4737C16.0597 11.3151 16.0207 11.1013 15.9783 10.8324L15.2457 11.093C15.3204 11.6189 15.3758 12.0544 15.4116 12.3996C15.4475 12.7448 15.4654 12.9827 15.4652 13.1132C15.4563 13.1867 15.4355 13.2567 15.4043 13.3184C15.357 13.4065 15.2969 13.4808 15.2275 13.5368C15.1229 13.6249 15.0117 13.698 14.8958 13.7549C14.7228 13.8403 14.5455 13.9089 14.3652 13.9601L14.536 15.0356C15.0302 15.018 15.4196 14.8453 15.7042 14.5174C15.9888 14.1896 16.1488 13.7084 16.1842 13.0741C16.2386 13.1573 16.3082 13.2202 16.3863 13.2567C16.4738 13.2936 16.5652 13.3112 16.6569 13.3087L16.6617 13.3093Z" fill="#232730"/>
  <path d="M18.4169 13.3418L19.0997 13.2766V8.51953L18.3438 8.61742L18.4169 13.3418Z" fill="#232730"/>
  <path d="M9.75894 17.0806L9.15161 15.9785H8.62109V18.7889H9.14833V17.2129L9.57022 17.9731H9.87086L10.2543 17.2129V18.7889H10.8296V15.9785H10.3023L9.75894 17.0806Z" fill="#232730"/>
  <path d="M11.125 16.6151H11.8155V18.7889H12.4006V16.6151H13.0877V15.9785H11.125V16.6151Z" fill="#232730"/>
  <path d="M14.8512 17.5288L13.9051 15.9785H13.3809V18.7889H13.9084V17.1829L14.8959 18.7889H15.3787V15.9785H14.8512V17.5288Z" fill="#232730"/>
</svg>
