<svg width="24" height="24" viewBox="0 0 24 24" fill="none" xmlns="http://www.w3.org/2000/svg">
<path fill-rule="evenodd" clip-rule="evenodd" d="M2.19995 10.5C2.19995 5.08762 6.58756 0.700012 12 0.700012C17.4123 0.700012 21.7999 5.08762 21.7999 10.5C21.7999 12.7663 21.0307 14.8529 19.7391 16.5129C19.4471 16.8881 18.896 16.8961 18.5598 16.5599C18.2708 16.2709 18.2641 15.8075 18.5127 15.4831C19.5128 14.1779 20.1295 12.5634 20.1943 10.8079C19.0599 10.9441 17.923 11.052 16.7847 11.1314C16.7485 11.8766 16.565 12.7653 16.3683 13.5452C16.2696 13.9368 15.9135 14.2055 15.5097 14.2055C15.0219 14.2055 14.6759 13.7301 14.8021 13.2589C14.9827 12.5843 15.1369 11.8515 15.1769 11.2247C13.0601 11.3227 10.9398 11.3227 8.82302 11.2247C8.86308 11.852 9.02787 12.5855 9.21561 13.2605C9.34634 13.7305 9.0014 14.2055 8.51356 14.2055C8.10974 14.2055 7.75373 13.9368 7.652 13.546C7.44895 12.7659 7.25146 11.8768 7.21525 11.1314C6.07687 11.052 4.93997 10.9441 3.80563 10.8079C3.87043 12.5634 4.48707 14.1779 5.48719 15.4831C5.73581 15.8075 5.72909 16.2709 5.44006 16.5599C5.10388 16.8961 4.55279 16.8881 4.26084 16.5129C2.9692 14.8529 2.19995 12.7663 2.19995 10.5ZM3.90118 9.20784C4.41434 5.96601 6.82723 3.35628 9.96366 2.55483C8.42161 4.50011 7.43313 6.90415 7.23624 9.52893C6.12272 9.44971 5.01069 9.34268 3.90118 9.20784ZM14.0362 2.55483C17.1727 3.35628 19.5856 5.96601 20.0987 9.20784C18.9892 9.34268 17.8772 9.44971 16.7637 9.52893C16.5668 6.90415 15.5783 4.50011 14.0362 2.55483ZM8.83375 9.62346C9.043 6.92044 10.2118 4.48644 11.9999 2.66164C13.7881 4.48644 14.9569 6.92044 15.1662 9.62346C13.0565 9.72307 10.9434 9.72307 8.83375 9.62346Z" fill="#BEBEBE"/>
<path d="M13.5656 19.5657L14.2 18.9314V22.5C14.2 22.9418 14.5581 23.3 15 23.3C15.4418 23.3 15.8 22.9418 15.8 22.5V18.9314L16.4343 19.5657C16.7467 19.8781 17.2532 19.8781 17.5656 19.5657C17.8781 19.2533 17.8781 18.7467 17.5656 18.4343L15.5656 16.4343C15.4156 16.2843 15.2121 16.2 15 16.2C14.7878 16.2 14.5843 16.2843 14.4343 16.4343L12.4343 18.4343C12.1219 18.7467 12.1219 19.2533 12.4343 19.5657C12.7467 19.8781 13.2532 19.8781 13.5656 19.5657Z" fill="#BEBEBE"/>
<path d="M9.79995 20.5686V17C9.79995 16.5582 9.44178 16.2 8.99995 16.2C8.55812 16.2 8.19995 16.5582 8.19995 17V20.5686L7.56564 19.9343C7.25322 19.6219 6.74669 19.6219 6.43427 19.9343C6.12185 20.2467 6.12185 20.7533 6.43427 21.0657L8.43427 23.0657C8.5843 23.2157 8.78778 23.3 8.99996 23.3C9.21213 23.3 9.41561 23.2157 9.56564 23.0657L11.5656 21.0657C11.8781 20.7533 11.8781 20.2467 11.5656 19.9343C11.2532 19.6219 10.7467 19.6219 10.4343 19.9343L9.79995 20.5686Z" fill="#BEBEBE"/>
</svg>
