<svg width="24" height="24" viewBox="0 0 24 24" fill="none" xmlns="http://www.w3.org/2000/svg">
<path d="M6.375 15.6546C6.375 15.3186 6.65482 15.0462 7 15.0462H8.66667C9.01184 15.0462 9.29167 15.3186 9.29167 15.6546C9.29167 15.9907 9.01184 16.2631 8.66667 16.2631H7C6.65482 16.2631 6.375 15.9907 6.375 15.6546Z" fill="#2C92F2"/>
<path d="M10.75 15.0462C10.4048 15.0462 10.125 15.3186 10.125 15.6546C10.125 15.9907 10.4048 16.2631 10.75 16.2631H14.0833C14.4285 16.2631 14.7083 15.9907 14.7083 15.6546C14.7083 15.3186 14.4285 15.0462 14.0833 15.0462H10.75Z" fill="#2C92F2"/>
<path fill-rule="evenodd" clip-rule="evenodd" d="M3.04167 8.6698V12.0001H2.96774C2.43871 12.0001 2 12.2759 2 12.6085C2 12.9411 2.43871 13.2169 2.96774 13.2169H3.04167V15.3382C3.04167 16.7586 3.21154 17.8918 3.96828 18.6188C4.72254 19.3434 5.89374 19.5039 7.36729 19.4999H16.6333C18.1075 19.4999 19.2784 19.3368 20.0321 18.6113C20.7883 17.8834 20.9583 16.7508 20.9583 15.3301V13.2169H21.0323C21.5613 13.2169 22 12.9411 22 12.6085C22 12.2759 21.5613 12.0001 21.0323 12.0001H20.9583V8.6698C20.9583 7.24922 20.7884 6.1162 20.0307 5.38826C19.2759 4.6631 18.103 4.5 16.625 4.5H7.36667C5.8925 4.5 4.72159 4.66316 3.96786 5.38866C3.21166 6.11653 3.04167 7.24917 3.04167 8.6698ZM4.84672 6.25397C4.50204 6.58574 4.30259 7.20829 4.2921 8.55623H19.7079C19.6974 7.20825 19.4979 6.58607 19.1526 6.25437C18.795 5.91072 18.1136 5.71687 16.625 5.71687H7.36667C5.8825 5.71687 5.20341 5.91065 4.84672 6.25397ZM19.7083 12.0001V9.7731H4.29167V12.0001H19.7083ZM4.29167 13.2169V15.3382C4.29167 16.7654 4.49262 17.4129 4.8463 17.7526C5.20227 18.0946 5.88066 18.2871 7.36491 18.2831L7.36667 18.2831L16.6333 18.2831C18.1175 18.2831 18.7966 18.0893 19.1533 17.746C19.5075 17.405 19.7083 16.757 19.7083 15.3301V13.2169H4.29167Z" fill="#2C92F2"/>
</svg>
