<svg width="24" height="24" viewBox="0 0 24 24" fill="none" xmlns="http://www.w3.org/2000/svg">
<path opacity="0.4" d="M13.4004 8.04003V3.12378L18.8801 8.76003H14.1004C13.714 8.76003 13.4004 8.43783 13.4004 8.04003Z" fill="#2C92F2"/>
<path d="M9.40478 15.4661H8.63731V14.4202H9.42274C9.63368 14.4226 9.79974 14.4728 9.92092 14.5706C10.0421 14.6673 10.1027 14.7963 10.1027 14.9578C10.1027 15.1229 10.0428 15.2489 9.92316 15.3358C9.80348 15.4226 9.63069 15.4661 9.40478 15.4661Z" fill="#2C92F2"/>
<path d="M11.9337 14.4202V16.5835H12.3511C12.6847 16.5835 12.9406 16.4985 13.1186 16.3284C13.2981 16.1572 13.3901 15.9113 13.3946 15.5908V15.4239C13.3946 15.0985 13.3078 14.8502 13.1343 14.6789C12.9608 14.5064 12.7094 14.4202 12.3803 14.4202H11.9337Z" fill="#2C92F2"/>
<path fill-rule="evenodd" clip-rule="evenodd" d="M5 6.24C5 4.45044 6.41015 3 8.15 3H12V8.04C12 9.23304 12.9401 10.2 14.1 10.2H19V17.76C19 19.5496 17.5898 21 15.85 21H8.15C6.41015 21 5 19.5496 5 17.76V6.24ZM8.63731 17V15.8844H9.39581C9.82218 15.8844 10.1528 15.8031 10.3877 15.6404C10.6241 15.4765 10.7422 15.2477 10.7422 14.9541C10.7422 14.6667 10.6218 14.4361 10.381 14.2624C10.1401 14.0875 9.8147 14 9.40478 14H8V17H8.63731ZM11.2964 17V14H12.3803C12.7049 14 12.9929 14.0593 13.2443 14.178C13.4956 14.2954 13.6901 14.463 13.8277 14.6807C13.9653 14.8972 14.0342 15.1456 14.0342 15.4257V15.5761C14.0342 15.8599 13.9646 16.1101 13.8255 16.3266C13.6878 16.5419 13.4904 16.7083 13.233 16.8257C12.9772 16.9419 12.684 17 12.3534 17H11.2964ZM16.7823 15.7284H15.3057V17H14.6684V14H17V14.4202H15.3057V15.3119H16.7823V15.7284Z" fill="#2C92F2"/>
</svg>
