<svg width="24" height="24" viewBox="0 0 24 24" fill="none" xmlns="http://www.w3.org/2000/svg">
<path opacity="0.4" d="M20.1596 8.08744V19.4661C20.1596 20.0372 19.6967 20.5 19.1258 20.5H7.62224C7.05116 20.5 6.58838 20.037 6.58838 19.4661V16.9123V4.03386C6.58838 3.46297 7.05116 3 7.62224 3H15.0724C16.6802 3.02625 20.1596 6.11325 20.1596 8.08744Z" fill="#2C92F2"/>
<path d="M6.60303 7.25034H14.4327C15.0584 7.25034 15.5658 7.75764 15.5658 8.38337V11.9497C15.5658 12.5754 15.0584 13.0827 14.4327 13.0827H5.13303C4.50731 13.0827 4 12.5754 4 11.9497V6.11731" fill="#2C92F2"/>
<path d="M4 6.11731C4 6.74304 4.50731 7.25034 5.13303 7.25034H6.60303V5.05176H5.13303C4.50731 5.05176 4 5.55906 4 6.18479" fill="#2C92F2"/>
<path d="M15.0723 3H16.3677C16.9172 3 17.4441 3.21836 17.8326 3.60686L19.5528 5.32711C19.9413 5.71561 20.1597 6.24256 20.1597 6.79206V8.08744C20.1597 7.42264 19.6207 6.88383 18.9561 6.88383H17.4266C16.7912 6.88383 16.2761 6.36875 16.2761 5.73331V4.20381C16.2759 3.539 15.7371 3 15.0723 3Z" fill="#2C92F2"/>
<path d="M7.35629 8.3822H6.28898C6.12779 8.3822 5.99731 8.51267 5.99731 8.67387V10.4433V11.6549C5.99731 11.8161 6.12779 11.9466 6.28898 11.9466C6.45018 11.9466 6.58065 11.8161 6.58065 11.6549V10.735H7.35629C7.79806 10.735 8.15779 10.3755 8.15779 9.93367V9.18351C8.15759 8.74173 7.79806 8.3822 7.35629 8.3822ZM7.57426 9.93367C7.57426 10.0538 7.47645 10.1516 7.35609 10.1516H6.58045V8.96554H7.35609C7.47645 8.96554 7.57426 9.06334 7.57426 9.18351V9.93367Z" fill="#ECEDEF" fill-opacity="0.6"/>
<path d="M10.0489 8.3822H9.03385C8.87266 8.3822 8.74219 8.51267 8.74219 8.67387V11.6551C8.74219 11.8163 8.87266 11.9468 9.03385 11.9468H10.0489C10.5196 11.9468 10.9027 11.5637 10.9027 11.093V9.23601C10.9027 8.76526 10.5198 8.3822 10.0489 8.3822ZM10.3193 11.093C10.3193 11.2421 10.198 11.3634 10.0489 11.3634H9.32552V8.96554H10.0489C10.198 8.96554 10.3193 9.08687 10.3193 9.23601V11.093Z" fill="#ECEDEF" fill-opacity="0.6"/>
<path d="M13.4104 8.3822H11.8334C11.6722 8.3822 11.5417 8.51267 11.5417 8.67387V11.6551C11.5417 11.8163 11.6722 11.9468 11.8334 11.9468C11.9946 11.9468 12.1251 11.8163 12.1251 11.6551V10.4561H12.8663C13.0273 10.4561 13.158 10.3257 13.158 10.1645C13.158 10.0033 13.0273 9.87281 12.8663 9.87281H12.1249V8.96554H13.4102C13.5712 8.96554 13.7018 8.83506 13.7018 8.67387C13.7018 8.51267 13.5714 8.3822 13.4104 8.3822Z" fill="#ECEDEF" fill-opacity="0.6"/>
</svg>
