<svg width="24" height="25" viewBox="0 0 24 25" fill="none" xmlns="http://www.w3.org/2000/svg">
<path opacity="0.4" d="M12 22.5C17.5228 22.5 22 18.0228 22 12.5C22 6.97715 17.5228 2.5 12 2.5C6.47715 2.5 2 6.97715 2 12.5C2 18.0228 6.47715 22.5 12 22.5Z" fill="#2C92F2"/>
<path d="M8.31976 16.52C8.12976 16.52 7.93977 16.45 7.78977 16.3C7.49977 16.01 7.49977 15.53 7.78977 15.24L14.3398 8.69003C14.6298 8.40003 15.1098 8.40003 15.3998 8.69003C15.6898 8.98003 15.6898 9.46003 15.3998 9.75003L8.84976 16.3C8.69976 16.45 8.50976 16.52 8.31976 16.52Z" fill="#2C92F2"/>
<path d="M8.73001 8.16003C7.92001 8.16003 7.25 8.82005 7.25 9.64005C7.25 10.45 7.91001 11.12 8.73001 11.12C9.54001 11.12 10.21 10.46 10.21 9.64005C10.2 8.82005 9.54001 8.16003 8.73001 8.16003Z" fill="#2C92F2"/>
<path d="M15.27 13.89C14.46 13.89 13.79 14.55 13.79 15.37C13.79 16.18 14.45 16.85 15.27 16.85C16.08 16.85 16.75 16.19 16.75 15.37C16.75 14.55 16.09 13.89 15.27 13.89Z" fill="#2C92F2"/>
</svg>
