<svg width="40" height="40" viewBox="0 0 40 40" fill="none" xmlns="http://www.w3.org/2000/svg">
<g clip-path="url(#clip0_26173_124379)">
<rect opacity="0.1" width="40" height="40" fill="#2C92F2"/>
<path opacity="0.4" d="M30 15.81L30 24.19C30 27 28.71 28.93 26.44 29.66C25.78 29.89 25.02 30 24.19 30L15.81 30C14.98 30 14.22 29.89 13.56 29.66C11.29 28.93 10 27 10 24.19V15.81C10 12.17 12.17 10 15.81 10H24.19C27.83 10 30 12.17 30 15.81Z" fill="#2C92F2"/>
<path d="M26.4406 29.6588C25.7806 29.8888 25.0206 29.9988 24.1906 29.9988H15.8105C14.9805 29.9988 14.2205 29.8888 13.5605 29.6588C13.9105 27.0188 16.6705 24.9688 20.0005 24.9688C23.3305 24.9688 26.0906 27.0188 26.4406 29.6588Z" fill="#2C92F2"/>
<path d="M23.5799 19.58C23.5799 21.56 21.9799 23.17 19.9999 23.17C18.0199 23.17 16.4199 21.56 16.4199 19.58C16.4199 17.6 18.0199 16 19.9999 16C21.9799 16 23.5799 17.6 23.5799 19.58Z" fill="#2C92F2"/>
</g>
<defs>
<clipPath id="clip0_26173_124379">
<rect width="40" height="40" rx="8" fill="white"/>
</clipPath>
</defs>
</svg>
