<svg width="24" height="24" viewBox="0 0 24 24" fill="none" xmlns="http://www.w3.org/2000/svg">
<g clip-path="url(#clip0_8303_20725)">
<path d="M10.5 22V20V22ZM14.5 22V20V22Z" fill="#232730" fill-opacity="0.6"/>
<path d="M10.5 22V20M14.5 22V20" stroke="#2C92F2" stroke-width="1.5" stroke-linecap="round"/>
<path d="M11 20V20.75H11.75V20H11ZM14 19.25C13.8011 19.25 13.6103 19.329 13.4697 19.4697C13.329 19.6103 13.25 19.8011 13.25 20C13.25 20.1989 13.329 20.3897 13.4697 20.5303C13.6103 20.671 13.8011 20.75 14 20.75V19.25ZM17.5 5.25C17.3011 5.25 17.1103 5.32902 16.9697 5.46967C16.829 5.61032 16.75 5.80109 16.75 6C16.75 6.19891 16.829 6.38968 16.9697 6.53033C17.1103 6.67098 17.3011 6.75 17.5 6.75V5.25ZM7 5.25C6.80109 5.25 6.61032 5.32902 6.46967 5.46967C6.32902 5.61032 6.25 5.80109 6.25 6C6.25 6.19891 6.32902 6.38968 6.46967 6.53033C6.61032 6.67098 6.80109 6.75 7 6.75V5.25ZM9 19.25C8.80109 19.25 8.61032 19.329 8.46967 19.4697C8.32902 19.6103 8.25 19.8011 8.25 20C8.25 20.1989 8.32902 20.3897 8.46967 20.5303C8.61032 20.671 8.80109 20.75 9 20.75V19.25ZM15 20.75C15.1989 20.75 15.3897 20.671 15.5303 20.5303C15.671 20.3897 15.75 20.1989 15.75 20C15.75 19.8011 15.671 19.6103 15.5303 19.4697C15.3897 19.329 15.1989 19.25 15 19.25V20.75ZM10.25 11.25V20H11.75V11.25H10.25ZM11 19.25H4.233L4.233 20.75H11V19.25ZM2.75 17.395L2.75 11.25H1.25L1.25 17.395H2.75ZM4.233 19.25C3.518 19.25 2.75 18.532 2.75 17.395H1.25C1.25 19.135 2.481 20.75 4.233 20.75L4.233 19.25ZM6.5 6.75C8.467 6.75 10.25 8.652 10.25 11.25H11.75C11.75 8.049 9.504 5.25 6.5 5.25V6.75ZM6.5 5.25C3.496 5.25 1.25 8.049 1.25 11.25H2.75C2.75 8.652 4.533 6.75 6.5 6.75V5.25ZM21.25 11.25L21.25 17.425H22.75L22.75 11.25H21.25ZM19.793 19.25L14 19.25V20.75L19.793 20.75V19.25ZM21.25 17.425C21.25 18.545 20.493 19.25 19.793 19.25V20.75C21.531 20.75 22.75 19.149 22.75 17.425H21.25ZM22.75 11.25C22.75 8.049 20.504 5.25 17.5 5.25V6.75C19.467 6.75 21.25 8.652 21.25 11.25H22.75ZM7 6.75L18 6.75V5.25L7 5.25V6.75ZM9 20.75H15V19.25H9V20.75Z" fill="#2C92F2"/>
<path d="M5 16H8M16 9.88398V5.41098M16 5.41098V2.63498C16 2.39898 16.168 2.19598 16.4 2.15098L16.886 2.05798C17.4741 1.94473 18.0821 1.99878 18.641 2.21398L18.721 2.24398C19.275 2.45798 19.881 2.49798 20.458 2.35898C20.5226 2.34359 20.5898 2.34301 20.6546 2.35728C20.7194 2.37155 20.7802 2.40029 20.8323 2.44137C20.8844 2.48244 20.9266 2.53478 20.9556 2.59446C20.9847 2.65413 20.9998 2.71961 21 2.78598V5.00698C21.0006 5.12234 20.962 5.2345 20.8907 5.32513C20.8193 5.41576 20.7193 5.47952 20.607 5.50598L20.541 5.52198C19.9097 5.67407 19.247 5.63047 18.641 5.39698C18.0821 5.18178 17.4741 5.12773 16.886 5.24098L16 5.41098Z" stroke="#2C92F2" stroke-width="1.5" stroke-linecap="round"/>
</g>
<defs>
<clipPath id="clip0_8303_20725">
<rect width="24" height="24" rx="6" fill="white"/>
</clipPath>
</defs>
</svg>
