<svg width="24" height="24" viewBox="0 0 24 24" fill="none" xmlns="http://www.w3.org/2000/svg">
<path fill-rule="evenodd" clip-rule="evenodd" d="M12.1602 11.62H12.0802C12.0302 11.61 11.9602 11.61 11.9002 11.62C9.00019 11.53 6.81019 9.25 6.81019 6.44C6.80019 5.06 7.34019 3.76 8.32019 2.78C9.30019 1.8 10.6002 1.25 11.9902 1.25C14.8502 1.25 17.1802 3.58 17.1802 6.44C17.1802 9.25 14.9902 11.52 12.1902 11.62H12.1602ZM11.9902 2.75C11.0002 2.75 10.0802 3.14 9.3802 3.83C8.6902 4.53 8.3102 5.45 8.3102 6.43C8.3102 8.43 9.87019 10.05 11.8602 10.11C11.9202 10.1 12.0502 10.1 12.1802 10.11C14.1502 10.02 15.6802 8.41 15.6802 6.43C15.6802 4.41 14.0202 2.75 11.9902 2.75ZM15.75 21.5C15.75 21.91 16.09 22.25 16.5 22.25C16.91 22.25 17.25 21.91 17.25 21.5V20.25H18.5C18.91 20.25 19.25 19.91 19.25 19.5C19.25 19.09 18.91 18.75 18.5 18.75H17.25V17.5C17.25 17.09 16.91 16.75 16.5 16.75C16.09 16.75 15.75 17.09 15.75 17.5V18.75H14.5C14.09 18.75 13.75 19.09 13.75 19.5C13.75 19.91 14.09 20.25 14.5 20.25H15.75V21.5ZM6.56016 21.05C8.02016 22.03 9.95016 22.56 11.9902 22.56C12.4002 22.56 12.7302 22.21 12.7302 21.8C12.7302 21.39 12.3902 21.05 11.9802 21.05C10.2302 21.05 8.60016 20.61 7.39016 19.8C6.43016 19.16 5.91016 18.33 5.91016 17.48C5.91016 16.63 6.43016 15.82 7.39016 15.18C9.88016 13.52 14.0802 13.52 16.5702 15.18C16.9102 15.41 17.3802 15.32 17.6102 14.97C17.8402 14.63 17.7402 14.16 17.4002 13.93C14.4102 11.93 9.55016 11.93 6.56016 13.93C5.18016 14.85 4.41016 16.11 4.41016 17.48C4.41016 18.85 5.17016 20.12 6.56016 21.05Z" fill="#232730" fill-opacity="0.6"/>
</svg>
