<svg width="33" height="32" viewBox="0 0 33 32" fill="none" xmlns="http://www.w3.org/2000/svg">
<path d="M30.6667 17.1989V9.46712C30.6667 7.88106 30.37 7.30376 29.9076 6.98145C29.6312 6.78887 29.1997 6.6174 28.4987 6.50098C27.9745 6.41393 27.3367 6.36335 26.5586 6.34342L25.7331 6.33301H10.9206C9.75811 6.33301 8.85958 6.38499 8.16276 6.50098C7.46402 6.61731 7.03335 6.78782 6.75781 6.98014C6.29641 7.30236 6.00001 7.88096 6 9.46712V17.208C6 18.7946 6.29601 19.3727 6.75651 19.6937C7.03155 19.8854 7.46165 20.0551 8.16016 20.1702C8.85685 20.2851 9.75542 20.3353 10.918 20.333H25.7461C26.9085 20.333 27.8071 20.281 28.5039 20.165C29.2026 20.0487 29.6333 19.8782 29.9089 19.6859C30.3702 19.3637 30.6666 18.785 30.6667 17.1989ZM32.6667 17.1989C32.6666 18.9179 32.3696 20.4067 31.0547 21.3252C30.442 21.753 29.6878 21.9954 28.8333 22.1377C27.9765 22.2804 26.9501 22.333 25.7461 22.333H10.9206C9.71729 22.3354 8.69256 22.2853 7.83594 22.1442C6.98113 22.0033 6.22646 21.7616 5.61328 21.3343C4.29712 20.4169 4 18.9268 4 17.208V9.46712C4.00001 7.74807 4.29706 6.25933 5.61198 5.34082C6.22464 4.91297 6.97885 4.67064 7.83333 4.52832C8.69021 4.38566 9.71655 4.33301 10.9206 4.33301H25.7331L26.6055 4.34342C27.4439 4.36475 28.1829 4.42008 28.8268 4.52702C29.6832 4.66925 30.4384 4.91309 31.0521 5.34082C32.3693 6.25925 32.6667 7.748 32.6667 9.46712V17.1989Z" fill="#2C92F2"/>
<path d="M12.5339 16.1631L12.4323 16.1579C11.9278 16.1069 11.5339 15.681 11.5339 15.1631C11.5339 14.6451 11.9278 14.2193 12.4323 14.1683L12.5339 14.1631L18.3333 14.1631C18.8856 14.1631 19.3333 14.6108 19.3333 15.1631C19.3333 15.7154 18.8856 16.1631 18.3333 16.1631L12.5339 16.1631Z" fill="#2C92F2"/>
<path d="M8.66797 12.1631C8.11568 12.1631 7.66797 11.7154 7.66797 11.1631C7.66797 10.6108 8.11568 10.1631 8.66797 10.1631L18.3333 10.1631C18.8856 10.1631 19.3333 10.6108 19.3333 11.1631C19.3333 11.7154 18.8856 12.1631 18.3333 12.1631L8.66797 12.1631Z" fill="#2C92F2"/>
<path d="M26.7786 14.4958V11.333C26.7786 10.9648 26.4802 10.6663 26.112 10.6663V8.66634C27.5847 8.66634 28.7786 9.86025 28.7786 11.333V14.4958C28.7786 15.9685 27.5847 17.1637 26.112 17.1637H24.3333C22.8608 17.1637 21.667 15.9695 21.6667 14.4971V11.333C21.6667 9.86025 22.8606 8.66634 24.3333 8.66634V10.6663C23.9651 10.6663 23.6667 10.9648 23.6667 11.333V14.4971C23.667 14.819 23.8955 15.0874 24.1992 15.1494L24.3333 15.1637H26.112L26.2461 15.1494C26.55 15.0874 26.7786 14.818 26.7786 14.4958ZM26.112 8.66634V10.6663H24.3333V8.66634H26.112Z" fill="#2C92F2"/>
<path d="M0 20.6663V11.9997C0 11.4474 0.447715 10.9997 1 10.9997C1.55228 10.9997 2 11.4474 2 11.9997V20.6663C2 22.6914 3.64162 24.333 5.66667 24.333H22.3333C22.8856 24.333 23.3333 24.7807 23.3333 25.333C23.3333 25.8853 22.8856 26.333 22.3333 26.333H5.66667C2.53705 26.333 0 23.796 0 20.6663Z" fill="#2C92F2"/>
</svg>
