<svg width="24" height="24" viewBox="0 0 24 24" fill="none" xmlns="http://www.w3.org/2000/svg">
<path fill-rule="evenodd" clip-rule="evenodd" d="M5.47461 14.6533C5.72108 14.6819 5.96302 14.7457 6.19238 14.8428C6.50809 14.9765 6.79462 15.1717 7.03516 15.416C7.27552 15.6602 7.46602 15.9491 7.59473 16.2666C7.68831 16.4976 7.74776 16.7412 7.77246 16.9883C7.83301 17.5958 7.32996 18.0144 6.83008 18.0107L5.36816 17.999C4.84356 17.9949 4.42176 17.5667 4.42578 17.042L4.43652 15.5801C4.44061 15.0801 4.86779 14.5831 5.47461 14.6533ZM5.92969 16.5039H5.99805C5.98729 16.492 5.97711 16.4792 5.96582 16.4678C5.95454 16.4563 5.94143 16.4464 5.92969 16.4355V16.5039Z" fill="#2C92F2"/>
<path fill-rule="evenodd" clip-rule="evenodd" d="M5.17383 12.0488C7.90833 12.0488 10.1258 14.2655 10.126 17C10.126 19.7346 7.90842 21.9521 5.17383 21.9521C2.43935 21.952 0.222656 19.7345 0.222656 17C0.222803 14.2656 2.43944 12.049 5.17383 12.0488ZM5.17383 13.5488C3.26787 13.549 1.7228 15.094 1.72266 17C1.72266 18.9061 3.26778 20.452 5.17383 20.4521C7.07999 20.4521 8.62598 18.9062 8.62598 17C8.62582 15.0939 7.0799 13.5488 5.17383 13.5488Z" fill="#2C92F2"/>
<path d="M19.3164 2.2666L19.3291 2.26758C20.8101 2.33426 21.9969 2.57844 22.7734 3.34668C23.5639 4.12889 23.75 5.27196 23.75 6.60938V13.3828C23.75 14.8598 23.5213 16.0951 22.5205 16.8691C22.0414 17.2396 21.4468 17.4536 20.7676 17.5791C20.089 17.7045 19.2788 17.75 18.3301 17.75H11.9541L11.8779 17.7461C11.4995 17.7079 11.2041 17.3885 11.2041 17C11.2041 16.6115 11.4995 16.2921 11.8779 16.2539L11.9541 16.25H18.3301C19.244 16.25 19.9488 16.2045 20.4951 16.1035C21.0407 16.0027 21.3808 15.8548 21.6035 15.6826C22.0062 15.371 22.25 14.7976 22.25 13.3828V6.60938C22.25 5.32657 22.0474 4.73917 21.7178 4.41309C21.3751 4.07416 20.7128 3.83168 19.2754 3.76562L19.2744 3.7666C18.9815 3.75839 18.6651 3.75 18.3301 3.75H6.66992C5.75601 3.75001 5.05116 3.79554 4.50488 3.89648C3.95933 3.99731 3.61917 4.14515 3.39648 4.31738C2.99377 4.62898 2.75003 5.2024 2.75 6.61719V10.4053C2.7499 10.8194 2.41415 11.1553 2 11.1553C1.58585 11.1553 1.2501 10.8194 1.25 10.4053V6.61719C1.25002 5.1402 1.47875 3.90487 2.47949 3.13086C2.95857 2.7604 3.55324 2.5464 4.23242 2.4209C4.91097 2.29552 5.72122 2.25001 6.66992 2.25H18.3301C18.6875 2.25 19.0217 2.25834 19.3164 2.2666Z" fill="#2C92F2"/>
<path fill-rule="evenodd" clip-rule="evenodd" d="M18.666 5.5C19.7706 5.5 20.666 6.39543 20.666 7.5V9.87305C20.6658 10.9774 19.7704 11.873 18.666 11.873H17.332C16.2276 11.873 15.3323 10.9774 15.332 9.87305V7.5C15.332 6.39543 16.2275 5.5 17.332 5.5H18.666ZM17.332 7C17.0559 7 16.832 7.22386 16.832 7.5V9.87305C16.8323 10.149 17.0561 10.373 17.332 10.373H18.666C18.942 10.373 19.1658 10.149 19.166 9.87305V7.5C19.166 7.22386 18.9422 7 18.666 7H17.332Z" fill="#2C92F2"/>
<path d="M13 9.62305C13.4142 9.62311 13.75 9.95887 13.75 10.373C13.75 10.7872 13.4142 11.123 13 11.123H8.65039C8.23618 11.123 7.90039 10.7873 7.90039 10.373C7.90039 9.95883 8.23618 9.62305 8.65039 9.62305H13Z" fill="#2C92F2"/>
<path d="M13 6.62305C13.4142 6.62305 13.75 6.95883 13.75 7.37305C13.75 7.78726 13.4142 8.12305 13 8.12305H5.75098C5.33676 8.12305 5.00098 7.78726 5.00098 7.37305C5.00098 6.95883 5.33676 6.62305 5.75098 6.62305H13Z" fill="#2C92F2"/>
</svg>
