<svg width="24" height="24" viewBox="0 0 24 24" fill="none" xmlns="http://www.w3.org/2000/svg">
<path d="M5 8C5 6.89543 5.89543 6 7 6H17C18.1046 6 19 6.89543 19 8V20C19 21.1046 18.1046 22 17 22H7C5.89543 22 5 21.1046 5 20V8Z" stroke="#2C92F2" stroke-width="1.5"/>
<rect x="8" y="9" width="8" height="4" rx="1" stroke="#2C92F2" stroke-width="1.5"/>
<path d="M8 15.6C8 15.2686 8.26863 15 8.6 15H9.4C9.73137 15 10 15.2686 10 15.6V16.4C10 16.7314 9.73137 17 9.4 17H8.6C8.26863 17 8 16.7314 8 16.4V15.6Z" fill="#2C92F2"/>
<path d="M8 18.6C8 18.2686 8.26863 18 8.6 18H9.4C9.73137 18 10 18.2686 10 18.6V19.4C10 19.7314 9.73137 20 9.4 20H8.6C8.26863 20 8 19.7314 8 19.4V18.6Z" fill="#2C92F2"/>
<path d="M11 15.6C11 15.2686 11.2686 15 11.6 15H12.4C12.7314 15 13 15.2686 13 15.6V16.4C13 16.7314 12.7314 17 12.4 17H11.6C11.2686 17 11 16.7314 11 16.4V15.6Z" fill="#2C92F2"/>
<path d="M11 18.6C11 18.2686 11.2686 18 11.6 18H12.4C12.7314 18 13 18.2686 13 18.6V19.4C13 19.7314 12.7314 20 12.4 20H11.6C11.2686 20 11 19.7314 11 19.4V18.6Z" fill="#2C92F2"/>
<path d="M14 15.6C14 15.2686 14.2686 15 14.6 15H15.4C15.7314 15 16 15.2686 16 15.6V16.4C16 16.7314 15.7314 17 15.4 17H14.6C14.2686 17 14 16.7314 14 16.4V15.6Z" fill="#2C92F2"/>
<path d="M14 18.6C14 18.2686 14.2686 18 14.6 18H15.4C15.7314 18 16 18.2686 16 18.6V19.4C16 19.7314 15.7314 20 15.4 20H14.6C14.2686 20 14 19.7314 14 19.4V18.6Z" fill="#2C92F2"/>
<path d="M9 6V3C9 2.44772 9.44772 2 10 2L14 2C14.5523 2 15 2.44772 15 3V6H9Z" stroke="#2C92F2" stroke-width="1.5"/>
</svg>
