<svg width="24" height="24" viewBox="0 0 24 24" fill="none" xmlns="http://www.w3.org/2000/svg">
    <path d="m17.672 6.328 2.344-2.344v7.032h-7.032L16.22 7.78C15.03 6.594 13.625 6 12 6c-1.656 0-3.078.594-4.266 1.781C6.578 8.938 6 10.344 6 12c0 1.656.578 3.078 1.734 4.266C8.922 17.422 10.344 18 12 18c1.313 0 2.484-.36 3.516-1.078a5.867 5.867 0 0 0 2.156-2.906h2.062c-.437 1.75-1.375 3.187-2.812 4.312-1.438 1.125-3.078 1.688-4.922 1.688-2.188 0-4.063-.782-5.625-2.344C4.812 16.109 4.031 14.219 4.031 12s.782-4.11 2.344-5.672C7.938 4.766 9.813 3.984 12 3.984c2.219 0 4.11.782 5.672 2.344z" fill="#214A85"/>
</svg>
