<svg width="25" height="24" viewBox="0 0 25 24" fill="none" xmlns="http://www.w3.org/2000/svg">
<path fill-rule="evenodd" clip-rule="evenodd" d="M12.6089 3.39535C7.82393 3.39535 4.00424 7.24861 4.00424 12C4.00424 12.3853 3.69188 12.6977 3.30656 12.6977C2.92125 12.6977 2.60889 12.3853 2.60889 12C2.60889 6.48162 7.04966 2 12.6089 2C15.9184 2 18.3966 3.38233 20.0337 4.74798C20.4908 5.12931 20.884 5.51056 21.2135 5.86234V3.2186C21.2135 2.83329 21.5259 2.52093 21.9112 2.52093C22.2965 2.52093 22.6089 2.83329 22.6089 3.2186V7.86977C22.6089 8.25508 22.2965 8.56744 21.9112 8.56744H17.781C17.3957 8.56744 17.0833 8.25508 17.0833 7.86977C17.0833 7.48445 17.3957 7.17209 17.781 7.17209H20.5152C20.168 6.76967 19.7093 6.29448 19.1399 5.81946C17.6769 4.59907 15.5041 3.39535 12.6089 3.39535ZM21.9112 11.3023C22.2965 11.3023 22.6089 11.6147 22.6089 12C22.6089 17.5202 18.1291 22 12.6089 22C9.79916 22 7.5712 20.5859 6.0797 19.2331C5.6838 18.874 5.33535 18.5153 5.03679 18.1818V20.7814C5.03679 21.1667 4.72443 21.4791 4.33912 21.4791C3.9538 21.4791 3.64144 21.1667 3.64144 20.7814V16.1302C3.64144 15.7449 3.9538 15.4326 4.33912 15.4326H8.54377C8.92909 15.4326 9.24145 15.7449 9.24145 16.1302C9.24145 16.5155 8.92909 16.8279 8.54377 16.8279H5.71317C6.04878 17.2359 6.48649 17.7182 7.01714 18.1995C8.37681 19.4327 10.2837 20.6047 12.6089 20.6047C17.3585 20.6047 21.2135 16.7496 21.2135 12C21.2135 11.6147 21.5259 11.3023 21.9112 11.3023Z" fill="#2C92F2"/>
</svg>
