<svg width="24" height="24" viewBox="0 0 24 24" fill="none" xmlns="http://www.w3.org/2000/svg">
<path d="M9.64797 6.51578C9.6811 6.50119 9.71737 6.49517 9.75344 6.49826C9.78951 6.50135 9.82423 6.51346 9.8544 6.53347C9.88456 6.55349 9.90922 6.58076 9.92609 6.61279C9.94297 6.64482 9.95152 6.68058 9.95097 6.71678V8.44628C9.95097 8.64519 10.03 8.83595 10.1706 8.97661C10.3113 9.11726 10.5021 9.19628 10.701 9.19628C11.7015 9.19628 13.7205 9.20378 15.651 10.4293C17.127 11.3653 18.636 13.0693 19.5435 16.2433C18.0135 14.7688 16.266 13.9693 14.736 13.5448C13.7956 13.2845 12.8291 13.1306 11.8545 13.0858C11.4556 13.067 11.0559 13.071 10.6575 13.0978H10.638L10.6305 13.0993L10.701 13.8463L10.626 13.0993C10.4408 13.1179 10.2692 13.2046 10.1445 13.3427C10.0198 13.4807 9.95078 13.6602 9.95097 13.8463V15.5758C9.95097 15.7378 9.78597 15.8398 9.64797 15.7768L3.67197 11.3773L3.60897 11.3353C3.57635 11.3157 3.54936 11.288 3.53063 11.2549C3.51189 11.2217 3.50204 11.1843 3.50204 11.1463C3.50204 11.1082 3.51189 11.0708 3.53063 11.0377C3.54936 11.0046 3.57635 10.9769 3.60897 10.9573L3.67197 10.9153L9.64797 6.51578ZM11.451 14.5753C11.554 14.5753 11.6655 14.5783 11.7855 14.5843C12.4365 14.6143 13.3365 14.7133 14.3355 14.9908C16.3245 15.5428 18.6795 16.7938 20.2455 19.6108C20.3302 19.7628 20.4651 19.8807 20.6271 19.9442C20.7892 20.0077 20.9683 20.0128 21.1337 19.9587C21.2992 19.9047 21.4407 19.7947 21.5339 19.6478C21.6272 19.5008 21.6665 19.326 21.645 19.1533C20.949 13.5883 18.816 10.6603 16.455 9.16328C14.5875 7.97828 12.6645 7.75028 11.451 7.70678V6.71678C11.4511 6.40788 11.3679 6.10467 11.21 5.83915C11.0522 5.57362 10.8256 5.35563 10.5542 5.20816C10.2827 5.0607 9.97654 4.98924 9.66788 5.00131C9.35922 5.01339 9.05954 5.10856 8.80047 5.27678L2.80947 9.68678C2.56179 9.84138 2.35753 10.0565 2.21591 10.3118C2.0743 10.5671 2 10.8543 2 11.1463C2 11.4382 2.0743 11.7254 2.21591 11.9807C2.35753 12.2361 2.56179 12.4512 2.80947 12.6058L8.80047 17.0158C9.05954 17.184 9.35922 17.2792 9.66788 17.2912C9.97654 17.3033 10.2827 17.2319 10.5542 17.0844C10.8256 16.9369 11.0522 16.7189 11.21 16.4534C11.3679 16.1879 11.4511 15.8847 11.451 15.5758V14.5753Z" fill="#232730" fill-opacity="0.6"/>
</svg>
