<svg width="24" height="24" viewBox="0 0 24 24" fill="none" xmlns="http://www.w3.org/2000/svg">
<g clip-path="url(#clip0_10198_121639)">
<circle opacity="0.2" cx="12" cy="12" r="12" fill="#2C92F2"/>
<path d="M6.25682 17.2709C5.64983 17.2709 5.11492 17.1419 4.65209 16.884C4.18926 16.626 3.82886 16.258 3.57089 15.78C3.3205 15.3096 3.19531 14.7633 3.19531 14.1411C3.19531 13.7618 3.23704 13.3938 3.3205 13.0372L3.75298 11.1024H5.49429L5.06181 13.0144C5.03146 13.1813 5.01628 13.3027 5.01628 13.3786C5.01628 13.7428 5.13768 14.0425 5.38047 14.2777C5.62327 14.5129 5.93435 14.6305 6.31372 14.6305H7.22421H7.46321L7.41768 7.5515L9.46627 6.99383V14.4598C9.46627 15.302 9.22348 15.9811 8.73789 16.497C8.25229 17.013 7.55805 17.2709 6.65515 17.2709H6.25682Z" fill="#2C92F2"/>
<path d="M12.8107 15.0858C12.3479 15.0858 11.9344 14.9795 11.5702 14.7671C11.206 14.5546 10.9214 14.2549 10.7166 13.868C10.5117 13.481 10.4093 13.0372 10.4093 12.5364L10.3752 6.67095L12.4238 6.11328L12.4237 11.8649C12.4237 12.0318 12.4769 12.1722 12.5831 12.286C12.6969 12.3922 12.8373 12.4454 13.0042 12.4454L14.691 12.4453H15.3625L14.691 9.84544L16.6827 8.86666L17.2973 11.1934C17.3731 11.5197 17.4111 11.8383 17.4111 12.1494C17.4111 12.7337 17.2821 13.2496 17.0241 13.6972C16.7737 14.1373 16.4247 14.4787 15.9771 14.7215C15.5294 14.9643 15.0211 15.0857 14.452 15.0857L12.8107 15.0858ZM12.4237 16.0873L16.0112 16.0873V17.8861L12.4237 17.8861V16.0873Z" fill="#2C92F2"/>
<path d="M18.323 14.3004C18.4444 14.2549 18.6265 14.179 18.8693 14.0728V9.20173L20.8041 8.82616V14.0614C20.8041 14.6457 20.6523 15.1692 20.3488 15.632C20.0453 16.0949 19.6356 16.4325 19.1197 16.6449L17.5377 17.2937L16.4337 15.0744L18.323 14.3004Z" fill="#2C92F2"/>
</g>
<defs>
<clipPath id="clip0_10198_121639">
<rect width="24" height="24" fill="white"/>
</clipPath>
</defs>
</svg>
