<svg width="25" height="24" viewBox="0 0 25 24" fill="none" xmlns="http://www.w3.org/2000/svg">
<path d="M15.5 22.75H9.5C4.07 22.75 1.75 20.43 1.75 15V9C1.75 3.57 4.07 1.25 9.5 1.25H15.5C20.93 1.25 23.25 3.57 23.25 9V15C23.25 20.43 20.93 22.75 15.5 22.75ZM9.5 2.75C4.89 2.75 3.25 4.39 3.25 9V15C3.25 19.61 4.89 21.25 9.5 21.25H15.5C20.11 21.25 21.75 19.61 21.75 15V9C21.75 4.39 20.11 2.75 15.5 2.75H9.5Z" fill="white"/>
<path d="M15.4995 10.26C15.3095 10.26 15.1195 10.1899 14.9695 10.0399L12.4995 7.56996L10.0295 10.0399C9.73945 10.3299 9.25945 10.3299 8.96945 10.0399C8.67945 9.74995 8.67945 9.26995 8.96945 8.97995L11.9695 5.97995C12.2595 5.68995 12.7395 5.68995 13.0295 5.97995L16.0295 8.97995C16.3195 9.26995 16.3195 9.74995 16.0295 10.0399C15.8795 10.1899 15.6895 10.26 15.4995 10.26Z" fill="white"/>
<path d="M12.5 15.26C12.09 15.26 11.75 14.92 11.75 14.51V6.51001C11.75 6.10001 12.09 5.76001 12.5 5.76001C12.91 5.76001 13.25 6.10001 13.25 6.51001V14.51C13.25 14.93 12.91 15.26 12.5 15.26Z" fill="white"/>
<path d="M12.5004 18.23C10.3904 18.23 8.27043 17.89 6.26043 17.22C5.87043 17.09 5.66043 16.66 5.79043 16.27C5.92043 15.88 6.35045 15.66 6.74045 15.8C10.4604 17.04 14.5504 17.04 18.2704 15.8C18.6604 15.67 19.0904 15.88 19.2204 16.27C19.3504 16.66 19.1404 17.09 18.7504 17.22C16.7304 17.9 14.6104 18.23 12.5004 18.23Z" fill="white"/>
</svg>
