<svg width="24" height="24" viewBox="0 0 24 24" fill="none" xmlns="http://www.w3.org/2000/svg">
<path d="M14.5 21V16C14.5 15.7348 14.3946 15.4804 14.2071 15.2929C14.0196 15.1054 13.7652 15 13.5 15H10.5C10.2348 15 9.98043 15.1054 9.79289 15.2929C9.60536 15.4804 9.5 15.7348 9.5 16L9.5 21" stroke="#232730" stroke-opacity="0.38" stroke-linecap="round" stroke-linejoin="round"/>
<path d="M5.00004 11V17C5.00004 18.886 5.00004 19.828 5.58604 20.414C6.17204 21 7.11404 21 9.00004 21L15 21C16.886 21 17.828 21 18.414 20.414C19 19.828 19 18.886 19 17V11M4.62104 4.515C4.80304 3.787 4.89404 3.424 5.16504 3.212C5.43704 3 5.81204 3 6.56204 3L17.438 3C18.188 3 18.563 3 18.835 3.212C19.105 3.424 19.197 3.787 19.379 4.515L20.582 9.329C20.679 9.717 20.728 9.91 20.717 10.068C20.7034 10.2673 20.6303 10.4579 20.5073 10.6152C20.3844 10.7726 20.2171 10.8896 20.027 10.951C19.877 11 19.673 11 19.264 11C18.731 11 18.464 11 18.241 10.948C17.9319 10.876 17.6443 10.7314 17.402 10.5262C17.1598 10.321 16.9699 10.0611 16.848 9.768C16.759 9.556 16.716 9.298 16.631 8.785C16.607 8.641 16.595 8.569 16.581 8.55C16.5718 8.53719 16.5596 8.52677 16.5455 8.51958C16.5314 8.51239 16.5158 8.50864 16.5 8.50864C16.4842 8.50864 16.4686 8.51239 16.4546 8.51958C16.4405 8.52677 16.4283 8.53719 16.419 8.55C16.405 8.569 16.393 8.64 16.369 8.785L16.288 9.274C16.223 9.74481 15.9925 10.1771 15.6378 10.4934C15.283 10.8097 14.8272 10.9893 14.352 11H14.148C13.6729 10.9893 13.2171 10.8097 12.8623 10.4934C12.5076 10.1771 12.277 9.74481 12.212 9.274L12.131 8.784C12.107 8.641 12.095 8.569 12.081 8.55C12.0718 8.53719 12.0596 8.52677 12.0455 8.51958C12.0314 8.51239 12.0158 8.50864 12 8.50864C11.9842 8.50864 11.9686 8.51239 11.9546 8.51958C11.9405 8.52677 11.9283 8.53719 11.919 8.55C11.905 8.569 11.893 8.64 11.869 8.785L11.788 9.274C11.723 9.74481 11.4925 10.1771 11.1378 10.4934C10.783 10.8097 10.3272 10.9893 9.85204 11H9.64804C9.19056 10.9893 8.7506 10.822 8.40155 10.5261C8.0525 10.2302 7.81548 9.82355 7.73004 9.374C7.72282 9.3409 7.71681 9.30754 7.71204 9.274L7.63104 8.784C7.60704 8.641 7.59504 8.569 7.58104 8.55C7.57177 8.53719 7.55959 8.52677 7.54551 8.51958C7.53143 8.51239 7.51585 8.50864 7.50004 8.50864C7.48423 8.50864 7.46864 8.51239 7.45456 8.51958C7.44048 8.52677 7.42831 8.53719 7.41904 8.55C7.40504 8.569 7.39304 8.64 7.36904 8.785C7.28404 9.299 7.24104 9.555 7.15204 9.768C7.03026 10.061 6.84051 10.3208 6.59846 10.526C6.35642 10.7312 6.06903 10.8758 5.76004 10.948C5.53604 11 5.27004 11 4.73604 11C4.32704 11 4.12304 11 3.97304 10.951C3.783 10.8896 3.61571 10.7726 3.49273 10.6152C3.36975 10.4579 3.29672 10.2673 3.28304 10.068C3.27304 9.91 3.32104 9.717 3.41804 9.329L4.62104 4.515Z" stroke="#232730" stroke-opacity="0.38" stroke-width="1.5"/>
</svg>
