<svg width="24" height="24" viewBox="0 0 24 24" fill="none" xmlns="http://www.w3.org/2000/svg">
<path d="M17.6601 22.67C17.1301 22.67 16.4501 22.5 15.6001 22L12.6101 20.23C12.3001 20.05 11.7001 20.05 11.4001 20.23L8.40012 22C6.63012 23.05 5.59012 22.63 5.12012 22.29C4.66012 21.95 3.94012 21.08 4.41012 19.08L5.12012 16.01C5.20012 15.69 5.04012 15.14 4.80012 14.9L2.32012 12.42C1.08012 11.18 1.18012 10.12 1.35012 9.60001C1.52012 9.08001 2.06012 8.16001 3.78012 7.87001L6.97012 7.34001C7.27012 7.29001 7.70012 6.97001 7.83012 6.70001L9.60012 3.17001C10.4001 1.56001 11.4501 1.32001 12.0001 1.32001C12.5501 1.32001 13.6001 1.56001 14.4001 3.17001L16.1601 6.69001C16.3001 6.96001 16.7301 7.28001 17.0301 7.33001L20.2201 7.86001C21.9501 8.15001 22.4901 9.07001 22.6501 9.59001C22.8101 10.11 22.9101 11.17 21.6801 12.41L19.2001 14.9C18.9601 15.14 18.8101 15.68 18.8801 16.01L19.5901 19.08C20.0501 21.08 19.3401 21.95 18.8801 22.29C18.6301 22.47 18.2301 22.67 17.6601 22.67Z" fill="#118DFF"/>
</svg>
