<svg width="49" height="48" viewBox="0 0 49 48" fill="none" xmlns="http://www.w3.org/2000/svg">
<rect x="0.5" width="48" height="48" rx="8" fill="#AFB8CA" fill-opacity="0.16"/>
<path d="M8.19749 27.1374C8.19749 26.8684 8.27401 26.6528 8.42705 26.4904C8.58937 26.3188 8.81894 26.233 9.11575 26.233C9.4172 26.233 9.6514 26.3188 9.81836 26.4904C9.97604 26.6528 10.0549 26.8684 10.0549 27.1374C10.0549 27.3878 9.97604 27.5919 9.81836 27.7496C9.64676 27.9165 9.41256 28 9.11575 28C8.81894 28 8.58937 27.9165 8.42705 27.7496C8.27401 27.5965 8.19749 27.3925 8.19749 27.1374ZM16.1513 22.9287C14.8621 22.5577 13.9253 22.1032 13.3409 21.5652C12.7566 21.0272 12.4644 20.3617 12.4644 19.5687C12.4644 18.6736 12.8215 17.9339 13.5357 17.3496C14.2499 16.7606 15.1798 16.4661 16.3253 16.4661C17.109 16.4661 17.807 16.6191 18.4192 16.9252C19.0313 17.2267 19.5044 17.6441 19.8383 18.1774C20.1769 18.7061 20.3461 19.2858 20.3461 19.9165H18.8366C18.8366 19.2255 18.6163 18.6852 18.1757 18.2957C17.7398 17.9014 17.1229 17.7043 16.3253 17.7043C15.5879 17.7043 15.0105 17.8667 14.5931 18.1913C14.1803 18.5159 13.974 18.9681 13.974 19.5478C13.974 20.0116 14.1711 20.4035 14.5653 20.7235C14.9595 21.0435 15.6296 21.3357 16.5757 21.6C17.5218 21.8643 18.2615 22.1588 18.7948 22.4835C19.3282 22.8035 19.7224 23.1768 19.9774 23.6035C20.2371 24.0301 20.367 24.531 20.367 25.1061C20.367 26.029 20.0076 26.7687 19.2887 27.3252C18.5699 27.8771 17.6099 28.153 16.4087 28.153C15.625 28.153 14.8945 28.0046 14.2174 27.7078C13.5403 27.4064 13.0186 26.9959 12.6522 26.4765C12.2858 25.9571 12.1026 25.3658 12.1026 24.7026H13.6122C13.6122 25.389 13.865 25.9316 14.3705 26.3304C14.8806 26.7293 15.56 26.9287 16.4087 26.9287C17.1971 26.9287 17.8024 26.7687 18.2244 26.4487C18.6464 26.1241 18.8574 25.6835 18.8574 25.127C18.8574 24.5704 18.6626 24.1391 18.2731 23.833C17.8835 23.527 17.1763 23.2255 16.1513 22.9287ZM26.0618 26.0104L29.3105 16.6261H30.9522L26.7366 28H25.4079L21.1922 16.6261H22.827L26.0618 26.0104ZM40.8667 26.5043C40.4818 27.0609 39.9438 27.4759 39.2528 27.7496C38.5618 28.0186 37.7595 28.153 36.8458 28.153C35.9183 28.153 35.0951 27.9374 34.3763 27.5061C33.6574 27.0701 33.1009 26.451 32.7067 25.6487C32.3125 24.8464 32.1108 23.9165 32.1015 22.8591V21.8643C32.1015 20.153 32.5003 18.8267 33.298 17.8852C34.1003 16.9391 35.225 16.4661 36.6719 16.4661C37.8592 16.4661 38.8145 16.7699 39.538 17.3774C40.2615 17.9849 40.7044 18.8452 40.8667 19.9583H39.3641C39.0858 18.4557 38.1908 17.7043 36.6789 17.7043C35.6725 17.7043 34.9096 18.0568 34.3902 18.7617C33.8754 19.4667 33.6157 20.4893 33.611 21.8296V22.7548C33.611 24.0348 33.9009 25.0504 34.4806 25.8017C35.065 26.553 35.8557 26.9287 36.8528 26.9287C37.4139 26.9287 37.9055 26.8661 38.3276 26.7409C38.7496 26.6157 39.0997 26.4046 39.378 26.1078V23.5548H36.7415V22.3374H40.8667V26.5043Z" fill="#798294"/>
</svg>
