<svg width="24" height="24" viewBox="0 0 24 24" fill="none" xmlns="http://www.w3.org/2000/svg">
<g clip-path="url(#clip0_2189_45192)">
<path fill-rule="evenodd" clip-rule="evenodd" d="M12.0079 7.31871C14.6139 7.31871 16.7208 9.42564 16.7208 12.0316C16.7208 14.6375 14.6139 16.7444 12.0079 16.7444C9.40198 16.7444 7.29505 14.6375 7.29505 12.0316C7.29505 9.42564 9.40198 7.31871 12.0079 7.31871ZM21.6158 11.4771V12.7761H23.6752L23.7149 19.6039L19.501 19.6276V23.691L12.7366 23.6672V21.6237C12.2376 21.6237 11.7386 21.6237 11.2396 21.6237V23.6672H4.41188V19.5167H0.308911L0.293069 12.7286H2.40792V11.4296H0.316832L0.293069 4.46722L4.50693 4.44346V0.372171H11.2713V2.44742H12.7683V0.403854H19.5644V4.55435H23.6673L23.7149 11.4771H21.6079H21.6158ZM21.9089 11.7702V12.4831H23.9683L24.0158 19.8969L19.802 19.9207V23.9841L12.4436 23.9603V21.9167C12.1426 21.9167 11.8337 21.9167 11.5327 21.9167V23.9603H4.11881V19.8098H0.0158416L0 12.4276H2.10693V11.7147H0.0237624L0 4.16623L4.21386 4.14247V0.0791016H11.5723V2.15435H12.4832V0.110785H19.8733V4.26128H23.9683L24.0238 11.7702H21.9168H21.9089ZM12.0079 11.3742C12.3723 11.3742 12.6653 11.6672 12.6653 12.0316C12.6653 12.3959 12.3723 12.689 12.0079 12.689C11.6436 12.689 11.3505 12.3959 11.3505 12.0316C11.3505 11.6672 11.6436 11.3742 12.0079 11.3742ZM12.0079 10.9623C12.5941 10.9623 13.0772 11.4375 13.0772 12.0316C13.0772 12.6256 12.602 13.1009 12.0079 13.1009C11.4139 13.1009 10.9386 12.6256 10.9386 12.0316C10.9386 11.4375 11.4139 10.9623 12.0079 10.9623ZM13.0376 11.0177L12.9584 10.9464C12.8158 10.8197 12.6495 10.7246 12.4673 10.6613L12.3644 10.6296L12.2614 10.6138C12.1743 10.5979 12.095 10.59 12.0079 10.59C11.9208 10.59 11.802 10.5979 11.699 10.6217L11.604 10.6454L11.5089 10.6771C11.3347 10.7405 11.1683 10.8435 11.0257 10.9702L10.9545 11.0336L10.899 11.1048C10.7802 11.2474 10.6851 11.4217 10.6297 11.6039L10.6059 11.691L10.5901 11.786C10.5743 11.8652 10.5663 11.9444 10.5663 12.0316C10.5663 12.1187 10.5822 12.2454 10.6059 12.3563L10.6218 12.4355L10.6455 12.5068C10.7089 12.689 10.804 12.8553 10.9307 12.99L10.9861 13.0534L11.0495 13.1088C11.1921 13.2355 11.3584 13.3306 11.5327 13.394L11.6198 13.4256L11.7069 13.4415C11.8099 13.4652 11.905 13.4732 12.0079 13.4732C12.1109 13.4732 12.1822 13.4732 12.2693 13.4494L12.3485 13.4336L12.4277 13.4098C12.6099 13.3543 12.7762 13.2593 12.9267 13.1405L12.9901 13.085L13.0455 13.0217C13.1802 12.887 13.2832 12.7207 13.3465 12.5464L13.3861 12.4514L13.4099 12.3484C13.4337 12.2454 13.4416 12.1345 13.4416 12.0316C13.4416 11.9286 13.4416 11.8652 13.4178 11.786L13.402 11.691L13.3703 11.5959C13.3149 11.4138 13.2198 11.2474 13.0931 11.1048L13.0218 11.0256L13.0376 11.0177ZM14.5347 9.52069C14.5584 9.51276 14.5822 9.49692 14.6139 9.489C15.4535 9.17217 16.2297 10.3841 15.6436 11.0336C15.604 11.0811 15.5644 11.1207 15.5168 11.1524C15.5248 11.1524 15.5327 11.1524 15.5406 11.1524C16.4277 11.3029 16.4911 12.7365 15.6436 13.0058C15.5802 13.0296 15.5089 13.0454 15.4376 13.0534C15.4535 13.0692 15.4693 13.0771 15.4851 13.093C15.596 13.188 15.6752 13.3068 15.7228 13.4415C15.9366 14.0831 15.3267 14.9068 14.6297 14.7405C14.598 14.7405 14.5743 14.7246 14.5426 14.7167C14.5743 14.8355 14.5822 14.9543 14.5584 15.0732C14.4317 15.7385 13.497 16.1583 12.9663 15.6751C12.9426 15.6593 12.9267 15.6355 12.903 15.6197C12.7049 16.4435 11.3347 16.4989 11.0653 15.6831C11.0495 15.6435 11.0416 15.6039 11.0337 15.5642C10.9465 15.6672 10.8356 15.7385 10.7168 15.786C10.4475 15.889 10.1386 15.8336 9.88515 15.6989C9.54455 15.5088 9.29901 15.1365 9.37822 14.7326C9.37822 14.7088 9.38614 14.685 9.39406 14.6613C8.58614 14.9068 7.84158 13.7662 8.39604 13.1167C8.41188 13.1009 8.4198 13.085 8.43564 13.0692C7.6198 12.887 7.51683 11.5405 8.31683 11.2395C8.36436 11.2237 8.41188 11.2078 8.45941 11.192C8.34851 11.1048 8.25346 10.994 8.20594 10.8593C8.09505 10.59 8.13465 10.2811 8.26931 10.0276C8.45149 9.6791 8.80792 9.42564 9.21188 9.489C9.25941 9.489 9.29901 9.50484 9.34653 9.52069C9.00594 8.69692 10.1703 7.88108 10.8515 8.42762C10.899 8.46722 10.9386 8.50682 10.9782 8.54643C10.9782 8.54643 10.9782 8.53059 10.9782 8.52267C11.0891 7.62762 12.5149 7.50088 12.8238 8.33257C12.8475 8.40385 12.8713 8.48306 12.8792 8.55435C12.8951 8.53059 12.9109 8.50682 12.9267 8.49098C13.0139 8.38009 13.1327 8.29296 13.2594 8.24544C13.5287 8.14247 13.8376 8.18999 14.0911 8.32465C14.4396 8.51474 14.6851 8.8791 14.6059 9.28306C14.5901 9.36227 14.5663 9.43356 14.5347 9.50484V9.52069ZM12.3168 10.2811C12.4119 9.69494 12.499 9.12465 12.5386 8.76029C12.5465 8.65732 12.5307 8.55435 12.499 8.46722C12.3089 7.96821 11.3663 8.0395 11.303 8.57811C11.295 8.65732 11.303 8.74445 11.3109 8.8395C11.4059 9.32267 11.5089 9.80583 11.6198 10.289C11.7465 10.2652 11.8733 10.2494 12 10.2494C12.1267 10.2494 12.2139 10.2573 12.3089 10.2732L12.3168 10.2811ZM11.3901 10.3603C11.1762 9.80583 10.9624 9.26722 10.8119 8.93455C10.7723 8.8395 10.701 8.76029 10.6297 8.70484C10.2178 8.37217 9.44158 8.91078 9.65545 9.40979C9.68713 9.48108 9.73465 9.56029 9.79802 9.63158C10.1228 9.99593 10.4634 10.3682 10.796 10.7326C10.9624 10.5742 11.1683 10.4474 11.3901 10.3682V10.3603ZM10.6376 10.891C10.1782 10.5187 9.71881 10.1543 9.42574 9.94049C9.33861 9.87712 9.24356 9.84544 9.14851 9.8296C8.61782 9.74247 8.22178 10.6058 8.65743 10.9306C8.72079 10.9781 8.8 11.0177 8.89505 11.0494C9.36238 11.2078 9.83762 11.3583 10.3129 11.5009C10.3842 11.2712 10.495 11.0652 10.6455 10.891H10.6376ZM10.2495 11.7306C9.66337 11.6355 9.08515 11.5563 8.72871 11.5167C8.62574 11.5088 8.52277 11.5246 8.43564 11.5563C7.93663 11.7464 8.02376 12.689 8.56238 12.7524C8.64158 12.7603 8.72871 12.7524 8.82376 12.7365C9.30693 12.6336 9.7901 12.5306 10.2733 12.4197C10.2416 12.293 10.2257 12.1583 10.2257 12.0237C10.2257 11.889 10.2337 11.8256 10.2495 11.7227V11.7306ZM10.3208 12.6098C9.76634 12.8078 9.2198 13.0138 8.88713 13.1563C8.79208 13.1959 8.71287 13.2672 8.6495 13.3385C8.30891 13.7425 8.83168 14.5345 9.33861 14.3286C9.41782 14.2969 9.48911 14.2494 9.5604 14.186C9.93267 13.8692 10.305 13.5365 10.6772 13.2039C10.5267 13.0296 10.4 12.8237 10.3208 12.6019V12.6098ZM10.8119 13.3464C10.4238 13.79 10.0436 14.2336 9.82178 14.5266C9.75842 14.6138 9.71881 14.7088 9.70297 14.7959C9.6 15.3187 10.4396 15.7543 10.7802 15.3266C10.8277 15.2633 10.8752 15.1841 10.9069 15.0969C11.0812 14.6375 11.2475 14.1702 11.4059 13.7029C11.1842 13.6237 10.9782 13.5048 10.804 13.3464H10.8119ZM11.6198 13.7583C11.501 14.3365 11.3901 14.9068 11.3426 15.2712C11.3267 15.3742 11.3426 15.4771 11.3743 15.5642C11.5406 16.0712 12.4911 16.0316 12.5782 15.493C12.5941 15.4138 12.5941 15.3266 12.5782 15.2316C12.499 14.7484 12.4119 14.2573 12.3248 13.7741C12.2218 13.79 12.1109 13.8058 12 13.8058C11.8891 13.8058 11.7465 13.79 11.6277 13.7662L11.6198 13.7583ZM12.5149 13.7187C12.697 14.2811 12.8792 14.8355 13.0139 15.1761C13.0535 15.2712 13.1168 15.3583 13.1881 15.4217C13.5842 15.7781 14.3921 15.2791 14.202 14.7722C14.1703 14.693 14.1307 14.6217 14.0752 14.5425C13.7743 14.1543 13.4574 13.7742 13.1406 13.394C12.9584 13.5444 12.7525 13.6553 12.5307 13.7266L12.5149 13.7187ZM13.2752 13.2435C13.7109 13.6474 14.1386 14.0355 14.4238 14.2732C14.503 14.3365 14.598 14.3761 14.6931 14.3999C15.2158 14.5187 15.6752 13.687 15.2554 13.3385C15.1921 13.2831 15.1208 13.2355 15.0337 13.2039C14.5822 13.0138 14.1149 12.8395 13.6554 12.6573C13.5683 12.8791 13.4416 13.0771 13.2832 13.2435H13.2752ZM13.7267 12.4118C14.3049 12.5385 14.8752 12.6494 15.2396 12.7048C15.3426 12.7207 15.4455 12.7048 15.5327 12.6811C16.0396 12.5147 16.0079 11.5722 15.4772 11.4771C15.398 11.4613 15.3109 11.4613 15.2158 11.4771C14.7327 11.5484 14.2416 11.6355 13.7505 11.7147C13.7663 11.8098 13.7743 11.9128 13.7743 12.0157C13.7743 12.1187 13.7584 12.285 13.7267 12.4118ZM13.6871 11.4771C14.2495 11.2949 14.796 11.1048 15.1366 10.9623C15.2317 10.9227 15.3109 10.8593 15.3743 10.788C15.7307 10.392 15.2238 9.58405 14.7168 9.78207C14.6376 9.81376 14.5663 9.85336 14.4871 9.91673C14.1069 10.2256 13.7188 10.5425 13.3465 10.8672C13.497 11.0415 13.6158 11.2474 13.6871 11.4771ZM13.1644 10.6771C13.5525 10.2256 13.9248 9.78207 14.1465 9.489C14.2099 9.40187 14.2416 9.30682 14.2653 9.2197C14.3604 8.69692 13.5129 8.2692 13.1802 8.69692C13.1327 8.76029 13.0851 8.8395 13.0535 8.92663C12.8871 9.38603 12.7208 9.86128 12.5624 10.3286C12.7842 10.4078 12.9901 10.5266 13.1644 10.6771ZM23.0733 14.8989H19.5089V12.8949H17.4257V11.3504H21.0139V13.3385H23.0733V14.891V14.8989ZM23.1208 9.25138H17.4178V10.8672H23.1208V9.25138ZM0.918812 9.25138H4.49901V11.2553H6.58218V12.7999H2.99406V10.8118H0.934653V9.2593L0.918812 9.25138ZM0.871287 14.8989H6.5901V13.2831H0.887129V14.8989H0.871287ZM6.52673 20.9821H4.97426V18.8989H0.926733V15.3583H6.54257V16.7761H2.50297V17.4969H6.54257V20.9741L6.52673 20.9821ZM8.62574 18.9306H10.6139V17.4811H7.07327V21.592H5.01386V23.0494H8.62574V18.9306ZM12.7129 21.0138V17.4732H11.1208V19.5722H9.15644V23.0494H10.6297V21.0058C11.3188 21.0058 12.0079 21.0058 12.7129 21.0058V21.0138ZM14.8436 23.0177H13.3069V17.4732H14.8436V23.0177ZM20.9822 17.4732V19.0256H18.899V23.089H15.3584V17.4732H16.7762V21.5128H17.497V17.4732H20.9743H20.9822ZM18.8752 15.3583V13.2514H17.4257V16.9108H21.5366V18.9702H23.1129V15.3583H18.8752ZM17.4574 3.0494H19.0099V5.13257H23.0733V8.67316H17.4574V7.25534H21.497V6.53455H17.4574V3.06524V3.0494ZM15.3584 5.10088H13.3703V6.55039H16.9109V2.45534H18.9703V0.997913H15.3584V5.11672V5.10088ZM11.2713 3.01772V6.55831H12.8634V4.4593H14.8277V0.997913H13.3545V3.04148C12.6653 3.04148 11.9762 3.04148 11.2713 3.04148V3.01772ZM9.14059 1.01376H10.6772V6.57415H9.14059V1.0296V1.01376ZM3.01782 6.57415V5.02168H5.10099V0.958309H8.64158V6.57415H7.22376V2.53455H6.50297V6.57415H3.01782ZM5.12475 8.689V10.7959H6.57426V7.13653H2.45545V5.07712H0.879208V8.689H5.11683H5.12475Z" fill="#2C92F2"/>
<g opacity="0.1">
<path fill-rule="evenodd" clip-rule="evenodd" d="M21.9089 11.6911V12.404H23.9683L24.0158 19.8178L19.802 19.8416V23.9049L12.4436 23.8812V21.8376H11.5327V23.8812H4.11881V19.7307H0.0158416L0 12.3485H2.10693V11.6356H0.0237624L0 4.08713L4.21386 4.06337V0H11.5723V2.07525H12.4832V0.0316832H19.8733V4.18218H23.9683L24.0238 11.6911H21.9168H21.9089ZM21.6158 12.697V11.398H23.7149L23.6673 4.47525H19.5644V0.324752H12.7683V2.36832H11.2713V0.293069H4.50693V4.36436L0.293069 4.38812L0.316832 11.3505H2.40792V12.6495H0.293069L0.308911 19.4376H4.41188V23.5881H11.2396V21.5446H12.7366V23.5881L19.501 23.6119V19.5485L23.7149 19.5248L23.6752 12.697H21.6158Z" fill="#2C92F2"/>
<path fill-rule="evenodd" clip-rule="evenodd" d="M21.6158 11.398V12.697H23.6752L23.7149 19.5248L19.501 19.5485V23.6119L12.7366 23.5881V21.5446H11.2396V23.5881H4.41188V19.4376H0.308911L0.293069 12.6495H2.40792V11.3505H0.316832L0.293069 4.38812L4.50693 4.36436V0.293069H11.2713V2.36832H12.7683V0.324752H19.5644V4.47525H23.6673L23.7149 11.398H21.6158ZM19.5089 14.8198H23.0733V14.8119V13.2594H21.0139V11.2713H17.4257V12.8158H19.5089V14.8198ZM17.4178 9.17228H23.1208V10.7881H17.4178V9.17228ZM4.49901 9.17228H0.918812L0.934653 9.1802V10.7327H2.99406V12.7208H6.58218V11.1762H4.49901V9.17228ZM6.5901 14.8198H0.887129V13.204H6.5901V14.8198ZM4.97426 20.903H6.52673L6.54257 20.8951V17.4178H2.50297V16.697H6.54257V15.2792H0.926733V18.8198H4.97426V20.903ZM10.6139 18.8515H8.62574V22.9703H5.01386V21.5129H7.07327V17.402H10.6139V18.8515ZM12.7129 17.3941V20.9267H10.6297V22.9703H9.15643V19.4931H11.1208V17.3941H12.7129ZM13.3069 22.9386H14.8436V17.3941H13.3069V22.9386ZM20.9822 18.9465V17.3941H20.9743H17.497V21.4337H16.7762V17.3941H15.3584V23.0099H18.899V18.9465H20.9822ZM18.8752 13.1723V15.2792H23.1129V18.8911H21.5366V16.8317H17.4257V13.1723H18.8752ZM19.0099 2.9703H17.4574V2.98614V6.45545H21.497V7.17624H17.4574V8.59406H23.0733V5.05347H19.0099V2.9703ZM13.3703 5.02178H15.3584V0.918812H18.9703V2.37624H16.9109V6.47129H13.3703V5.02178ZM11.2713 6.47921V2.96238H13.3545V0.918812H14.8277V4.3802H12.8634V6.47921H11.2713ZM10.6772 0.934653H9.14059V0.950495V6.49505H10.6772V0.934653ZM3.01782 4.94257V6.49505H6.50297V2.45545H7.22376V6.49505H8.64158V0.879208H5.10099V4.94257H3.01782ZM5.12475 10.7168V8.6099H5.11683H0.879208V4.99802H2.45545V7.05743H6.57426V10.7168H5.12475Z" fill="#2C92F2"/>
</g>
</g>
<defs>
<clipPath id="clip0_2189_45192">
<rect width="24" height="24" fill="white"/>
</clipPath>
</defs>
</svg>
