
<svg width="40" height="40" viewBox="0 0 40 40" fill="none" xmlns="http://www.w3.org/2000/svg">
  <path fill-rule="evenodd" clip-rule="evenodd" d="M34.5197 39.6718H6.24058V35.2244L6.79402 34.5753C5.31986 33.2387 4.04914 31.6817 3.03391 29.9567L10.3467 34.1441H11.1547L2.31523 28.62C2.0322 28.041 1.77679 27.4461 1.55073 26.8369L12.0543 34.1441H12.61L1.12418 25.5528C0.913691 24.8371 0.742791 24.1046 0.614105 23.358L13.4314 34.1441H14.0121L0.390009 21.5689C0.348944 21.0514 0.328125 20.5281 0.328125 20C0.328125 19.884 0.329109 19.7682 0.33124 19.6528L14.569 34.1441H14.9722L0.415173 18.1398C0.483943 17.4077 0.592957 16.6872 0.739923 15.9806L15.5062 34.1441H15.8741L1.13779 14.4008C1.32032 13.7857 1.53221 13.1833 1.77179 12.5948L16.2787 34.1441H16.6219L2.49326 11.0249C2.81055 10.4077 3.15956 9.80947 3.53816 9.23218L17.0106 34.1441H17.3248L13.8656 26.9968C13.8287 26.9791 13.792 26.9609 13.7555 26.9423C13.576 26.8467 13.4045 26.7377 13.2575 26.5959C13.1186 26.462 13.0051 26.3047 12.9102 26.1373C12.7889 25.9233 12.6963 25.6943 12.5894 25.4731C12.5561 25.4077 12.5223 25.3432 12.4857 25.2797C12.4647 25.2447 12.4467 25.2182 12.4163 25.1915C12.3686 25.1529 12.3178 25.1185 12.2699 25.0802C12.2242 25.0407 12.1782 24.9984 12.1469 24.946C12.1214 24.9033 12.1058 24.8567 12.0891 24.81L12.088 24.8097C12.0535 24.7901 12.0248 24.7709 12.0022 24.7373C11.981 24.7058 11.9689 24.6686 11.9674 24.6307C11.9662 24.5983 11.9719 24.5989 11.9734 24.5667C11.9737 24.5585 11.9713 24.5504 11.9717 24.5422C11.9734 24.5061 11.9767 24.5033 11.9873 24.4694C11.9944 24.4186 12.0024 24.3682 12.0117 24.3178C12.0221 24.2698 12.0335 24.2253 12.0571 24.1822C12.1248 24.0592 12.255 23.9844 12.3794 23.9257L10.2586 19.5439C10.2412 19.5385 10.2249 19.5333 10.19 19.522C9.97406 19.4474 9.74627 19.3512 9.60308 19.1638C9.56693 19.1164 9.5357 19.0667 9.51029 19.0128C9.48013 18.9489 9.4589 18.8811 9.44456 18.812C9.42759 18.7302 9.42144 18.6469 9.41898 18.5635C9.41652 18.4826 9.42169 18.4006 9.41136 18.32C9.4103 18.3136 9.41095 18.3137 9.40726 18.3084C9.393 18.2892 9.37784 18.2717 9.36218 18.2534C9.2939 18.1783 9.22325 18.1056 9.15579 18.0297C9.10178 17.9656 9.05046 17.8994 9.00948 17.826C8.94579 17.7117 8.9085 17.5836 8.91276 17.4522C8.91473 17.3934 8.92694 17.3367 8.94366 17.2806C8.97448 17.194 9.00694 17.108 9.03784 17.0214L4.5738 7.79761C4.97659 7.28926 5.40387 6.80123 5.85403 6.33534L7.13287 9.34898C7.135 9.25431 7.14033 9.15767 7.15844 9.06489C7.21778 8.75973 7.44581 8.50523 7.7354 8.3976C7.84278 8.35769 7.96728 8.33375 8.08105 8.35851C8.16318 8.37638 8.23974 8.40834 8.31482 8.44596C8.38342 8.48039 8.44891 8.52023 8.51129 8.5644L7.21475 5.05388C7.67884 4.65643 8.16162 4.28028 8.66162 3.92685L10.3934 9.38653C10.4494 9.33841 10.5036 9.28849 10.5579 9.23841C10.7472 9.0585 10.9286 8.87088 11.1167 8.68965C11.2466 8.56842 11.3848 8.43965 11.5452 8.35646L10.0993 3.00104C10.6881 2.65711 11.2963 2.34293 11.9219 2.06048L13.6236 9.9834C13.6371 9.97021 13.6505 9.95693 13.6638 9.9434C13.709 9.8948 13.752 9.84472 13.7886 9.78931C13.8193 9.74283 13.8467 9.69349 13.8666 9.64136C13.9115 9.52365 13.9162 9.39702 13.9136 9.27243C13.9068 9.12423 13.8886 8.97702 13.8793 8.82899C13.8738 8.69596 13.8739 8.55686 13.9282 8.43252C14.0093 8.24638 14.2096 8.14982 14.3942 8.09474C14.4311 8.08367 14.4688 8.07417 14.5065 8.0658C14.5652 8.05277 14.6246 8.04277 14.6842 8.03482L14.6984 8.03294L13.5868 1.39893C14.1548 1.20287 14.7345 1.03213 15.3246 0.888117L16.1802 7.98605C16.2865 7.98146 16.348 7.97941 16.4946 7.97408C16.7099 7.96753 16.9251 7.96163 17.1404 7.95868C17.2903 7.95654 17.4422 7.95991 17.592 7.95491C17.6192 7.95302 17.6463 7.95081 17.6735 7.94843L17.1299 0.536401C17.7593 0.444189 18.3984 0.381895 19.0457 0.350994L19.2707 9.62292C19.2879 9.64046 19.304 9.65939 19.3188 9.67996C19.3568 9.73283 19.3804 9.79717 19.4011 9.85816C19.4525 10.009 19.4747 10.1682 19.4874 10.3264C19.4929 10.3952 19.4965 10.4641 19.499 10.5331C19.5032 10.643 19.5059 10.753 19.5118 10.8629C19.5167 10.932 19.5228 11.0009 19.5295 11.0699C19.5489 11.2504 19.5698 11.4305 19.5872 11.6112C19.591 11.6549 19.5945 11.6985 19.5977 11.7421L19.6018 11.7406C19.6367 11.7253 19.6703 11.7083 19.7035 11.6897C19.842 11.6082 19.966 11.5053 20.0872 11.4003C20.1979 11.3045 20.3068 11.2067 20.4185 11.1122C20.4784 11.0628 20.4782 11.0631 20.5392 11.0147C20.6021 10.9671 20.6663 10.9209 20.7324 10.8784L21.0001 0.353207C21.6318 0.384927 22.2555 0.446402 22.8701 0.536401L22.1358 10.5494C22.4348 10.5211 22.7358 10.502 23.0361 10.52C23.1934 10.5295 23.3528 10.5486 23.5059 10.5895L24.6754 0.888117C25.2656 1.03221 25.8453 1.20295 26.4132 1.39893L24.731 11.4376C24.8608 11.429 24.9907 11.4216 25.1207 11.4152C25.2384 11.4105 25.2891 11.4079 25.4072 11.4055C25.5665 11.4023 25.7265 11.4017 25.8856 11.4131C25.9451 11.4173 26.0056 11.4226 26.0652 11.4324L28.0781 2.06048C28.7036 2.34293 29.3118 2.65711 29.9007 3.00104L27.4044 12.247C27.4243 12.2557 27.4441 12.2649 27.4637 12.2744C27.5573 12.319 27.648 12.3689 27.7362 12.4236C27.9988 12.5863 28.2299 12.8099 28.3769 13.0833C28.3892 13.1061 28.4009 13.1293 28.4119 13.1527L31.3384 3.92685C31.8383 4.28028 32.3211 4.65651 32.7852 5.05388L28.1308 17.6565C28.1759 17.7389 28.2045 17.8296 28.2113 17.9247C28.2156 17.9868 28.2077 18.0462 28.1997 18.1076C28.1936 18.1544 28.1889 18.2015 28.1843 18.2485C28.1762 18.3512 28.1763 18.3507 28.1703 18.4534C28.1468 19.0436 28.1897 19.6327 28.2545 20.2191L34.1459 6.33534C34.596 6.80115 35.0234 7.28918 35.4262 7.79761L29.2506 20.5578C29.4331 20.6354 29.5968 20.7494 29.7103 20.9174C29.7515 20.9784 29.7846 21.0447 29.8083 21.1144C29.834 21.1902 29.8484 21.2696 29.8492 21.3496C29.8497 21.3928 29.8462 21.4358 29.8392 21.4782L36.4618 9.23218C36.8403 9.80939 37.1893 10.4077 37.5067 11.0249L29.3532 24.3668C29.4114 24.4142 29.4728 24.4577 29.5353 24.4996C29.6793 24.5932 29.8284 24.6785 29.9732 24.7708C29.9866 24.7797 30 24.7886 30.0133 24.7976L38.2282 12.5948C38.4678 13.1832 38.6796 13.7857 38.8622 14.4008L30.5962 25.4752C30.6117 25.5191 30.6247 25.5639 30.6354 25.6093C30.6796 25.7962 30.6798 25.9873 30.6967 26.1777C30.7602 26.2083 30.8277 26.2311 30.8928 26.2582L30.9016 26.2622L39.26 15.9806C39.407 16.6872 39.516 17.4078 39.5848 18.1398L29.5251 29.1997C29.5236 29.2335 29.5226 29.2674 29.5221 29.3012C29.5205 29.3981 29.5225 29.4949 29.5289 29.5912L29.5548 29.5887C29.636 29.5822 29.6357 29.5823 29.7171 29.5774C29.8003 29.5743 29.7999 29.5736 29.8828 29.5735C29.8954 29.5735 29.9081 29.574 29.9208 29.5744L39.6687 19.6528L39.6701 19.7394C39.6713 19.8261 39.6718 19.913 39.6718 20C39.6718 20.5281 39.651 21.0514 39.61 21.5689L30.553 29.9298C30.5495 29.9541 30.5454 29.978 30.5419 30.0009C30.5342 30.0658 30.5327 30.2133 30.5302 30.2775C30.5252 30.4087 30.521 30.5398 30.5162 30.6709C30.5121 30.7297 30.5053 30.7816 30.4819 30.8356C30.4775 30.8457 30.4724 30.8551 30.4665 30.8639L39.3859 23.358L39.3612 23.4978C39.2357 24.1962 39.0732 24.8819 38.8758 25.5528L27.39 34.1441H27.9457L38.4492 26.8369L38.4065 26.951C38.1911 27.5204 37.9501 28.0773 37.6847 28.62L28.8453 34.1441H29.6533L36.9661 29.9567L36.9258 30.0247C36.0165 31.5557 34.9054 32.9531 33.6293 34.18L34.5197 35.2244V39.6718ZM34.0279 35.7162H6.73238V39.18H34.0279V35.7162ZM25.7054 38.0949C25.7054 38.2006 25.6591 38.3451 25.5665 38.5284C25.4775 38.7047 25.3864 38.8396 25.2929 38.9329C25.2321 38.9329 25.1507 38.9118 25.0484 38.8695C24.9461 38.8272 24.873 38.7845 24.8289 38.7413C24.9884 38.6681 25.1308 38.5831 25.2559 38.4861C25.4031 38.3724 25.4903 38.2698 25.5177 38.1782C25.478 38.068 25.3965 37.9715 25.2731 37.8887L25.4556 37.5357C25.5207 37.5921 25.5787 37.6776 25.6293 37.7921C25.6801 37.9067 25.7054 38.0076 25.7054 38.0949ZM33.567 38.5774L33.3541 38.7782L33.1453 38.5694L33.3621 38.3711L33.567 38.5774ZM27.5005 38.5588L27.2877 38.7598L27.0788 38.5509L27.2956 38.3526L27.5005 38.5588ZM10.5183 36.4783H10.8054V37.7073C10.8054 37.8679 10.7949 37.9915 10.7742 38.078C10.7463 38.191 10.6958 38.2818 10.6224 38.3502C10.5491 38.4186 10.4525 38.4528 10.3325 38.4528C10.1918 38.4528 10.0834 38.3992 10.0075 38.2919C9.9316 38.1847 9.8934 38.0273 9.89275 37.8198L10.1641 37.7774C10.1674 37.8887 10.1794 37.9673 10.2002 38.0132C10.2313 38.0829 10.2786 38.1178 10.3422 38.1178C10.4064 38.1178 10.4518 38.0929 10.4785 38.0429C10.505 37.9931 10.5183 37.8896 10.5183 37.7324V36.4783ZM12.3981 38.4197H12.0848L11.9603 37.9788H11.3901L11.2724 38.4197H10.9668L11.5224 36.4783H11.827L12.3981 38.4197ZM9.73218 36.8067H8.9626V37.2371H9.67865V37.5643H8.9626V38.0926H9.75939V38.4197H8.67457V36.4783H9.73218V36.8067ZM12.8398 38.4197H12.5518V36.4783H13.1579C13.3104 36.4783 13.4211 36.4957 13.4902 36.5306C13.5593 36.5655 13.6147 36.6275 13.6561 36.7166C13.6976 36.8058 13.7184 36.9078 13.7184 37.0226C13.7184 37.1683 13.687 37.2885 13.624 37.3834C13.5611 37.4784 13.467 37.5382 13.3419 37.5629C13.4042 37.6124 13.4556 37.6666 13.4961 37.7258C13.5366 37.7849 13.5913 37.89 13.66 38.041L13.8342 38.4197H13.4897L13.2816 37.9973C13.2076 37.8463 13.157 37.7511 13.1298 37.7119C13.1025 37.6726 13.0737 37.6456 13.0432 37.6311C13.0127 37.6166 12.9643 37.6093 12.8982 37.6093H12.8398V38.4197ZM15.2761 38.4197H14.9628L14.8383 37.9788H14.2681L14.1504 38.4197H13.8449L14.4005 36.4783H14.705L15.2761 38.4197ZM16.3123 36.8067H15.89V38.4197H15.6021V36.8067H15.1788V36.4783H16.3123V36.8067ZM17.5382 38.4197H17.0527V36.4783H17.6229C17.7358 36.4783 17.8199 36.4847 17.8753 36.4975C17.9308 36.5103 17.9804 36.537 18.0243 36.5776C18.068 36.6182 18.1045 36.6723 18.1337 36.7398C18.1629 36.8074 18.1775 36.8831 18.1775 36.967C18.1775 37.0579 18.1595 37.1413 18.1235 37.2173C18.0875 37.2932 18.0387 37.3502 17.9771 37.3881C18.0639 37.4225 18.1307 37.4812 18.1775 37.5643C18.2242 37.6472 18.2476 37.7447 18.2476 37.8569C18.2476 37.9451 18.2325 38.0311 18.2023 38.1145C18.1721 38.1979 18.1309 38.2646 18.0787 38.3144C18.0265 38.3643 17.9621 38.395 17.8856 38.4065C17.8376 38.4136 17.7218 38.4179 17.5382 38.4197ZM19.777 38.4197H19.4638L19.3392 37.9788H18.769L18.6513 38.4197H18.3458L18.9014 36.4783H19.2059L19.777 38.4197ZM20.2003 38.4197H19.9327V36.4783H20.2129L20.7967 37.7748V36.4783H21.0642V38.4197H20.7753L20.2003 37.1537V38.4197ZM21.6607 38.4197H21.3727V36.4783H21.6607V37.3404L22.2425 36.4783H22.6298L22.0927 37.2345L22.659 38.4197H22.2863L21.8942 37.5086L21.6607 37.833V38.4197ZM8.48875 36.8067H8.06646V38.4197H7.77851V36.8067H7.35524V36.4783H8.48875V36.8067ZM31.6938 38.153H31.6079C31.5102 38.153 31.4172 38.1187 31.329 38.0499C31.2806 38.012 31.218 37.9438 31.1413 37.8451C31.0647 37.7463 31.0034 37.6789 30.9576 37.6428C30.9629 37.6745 30.9655 37.7075 30.9655 37.742C30.9655 37.7869 30.9607 37.8344 30.951 37.8847C30.8725 37.9975 30.7452 38.0742 30.5689 38.1147C30.458 38.1402 30.3055 38.153 30.1116 38.153C29.8481 38.153 29.6705 38.1345 29.5789 38.0975C29.4449 38.0438 29.378 37.9301 29.378 37.7565C29.378 37.6005 29.4321 37.4374 29.5405 37.2674C29.582 37.2638 29.6084 37.2784 29.6199 37.311C29.5687 37.3947 29.5432 37.4753 29.5432 37.5529C29.5432 37.6639 29.6062 37.7349 29.7322 37.7657C29.8036 37.7833 29.9521 37.7921 30.1777 37.7921C30.3857 37.7921 30.5377 37.7842 30.6337 37.7683C30.7201 37.7542 30.7937 37.7256 30.8545 37.6824C30.7523 37.5115 30.5743 37.3683 30.3204 37.2529C30.3257 37.0739 30.3398 36.9237 30.3627 36.802C30.7443 36.5871 31.1105 36.4416 31.4612 36.3658L31.3026 36.7069C31.1793 36.7369 31.0198 36.792 30.8241 36.8721C30.6681 36.9356 30.5553 36.9862 30.4857 37.0242C30.624 37.0761 30.7826 37.1713 30.9616 37.3097C31.0285 37.3616 31.1109 37.4379 31.2088 37.5383C31.2969 37.6291 31.3612 37.689 31.4017 37.7181C31.4687 37.7666 31.5388 37.7908 31.612 37.7908H31.7468C31.938 37.7908 32.0336 37.7622 32.0336 37.7049C32.0336 37.6652 31.9838 37.578 31.8842 37.4432L32.0878 37.1656C32.1883 37.2995 32.2385 37.4397 32.2385 37.586C32.2077 37.7728 32.1653 37.8997 32.1116 37.9666C32.012 38.0909 31.8728 38.153 31.6938 38.153ZM33.0342 38.153H32.9483C32.7801 38.153 32.6703 38.0834 32.6192 37.9442C32.5848 37.8499 32.5619 37.6397 32.5505 37.3136C32.5451 37.1524 32.5386 37.0404 32.5306 36.9779C32.5156 36.8562 32.4874 36.7483 32.446 36.654L32.6879 36.4002C32.7285 36.4645 32.7536 36.5637 32.7633 36.6976C32.7668 36.7461 32.7686 36.8488 32.7686 37.0057V37.3956C32.7686 37.5119 32.7769 37.5965 32.7937 37.6494C32.8237 37.7437 32.8836 37.7908 32.9735 37.7908H33.0872C33.2784 37.7908 33.374 37.7622 33.374 37.7049C33.374 37.6652 33.3242 37.578 33.2246 37.4432L33.4282 37.1656C33.5287 37.2995 33.5789 37.4397 33.5789 37.586C33.5481 37.7728 33.5057 37.8997 33.452 37.9666C33.3524 38.0909 33.2132 38.153 33.0342 38.153ZM24.7285 37.5304C24.7285 37.5719 24.7034 37.6463 24.6531 37.7538C24.603 37.8613 24.562 37.9279 24.5303 37.9534C24.4915 37.9842 24.3703 38.023 24.1667 38.0697C23.9244 38.1252 23.7001 38.153 23.4939 38.153C23.2172 38.153 23.0268 38.0988 22.9228 37.9904C22.8568 37.9217 22.8236 37.8199 22.8236 37.6851C22.8236 37.5018 22.8761 37.3291 22.981 37.1669C22.9854 37.1661 22.9902 37.1656 22.9955 37.1656C23.0343 37.1656 23.0612 37.1806 23.0762 37.2105C23.0224 37.3375 22.9955 37.4343 22.9955 37.5013C22.9955 37.6961 23.2053 37.7935 23.6247 37.7935C24.0054 37.7935 24.3037 37.7481 24.5197 37.6573C24.4826 37.5613 24.4342 37.4731 24.3743 37.3929L24.5752 37.1207C24.6157 37.1709 24.6523 37.2436 24.6848 37.3388C24.7139 37.4234 24.7285 37.4872 24.7285 37.5304ZM26.595 38.153H26.4139C26.2456 38.153 26.1359 38.0834 26.0847 37.9442C26.0504 37.8499 26.0274 37.6397 26.0161 37.3136C26.0107 37.1524 26.0041 37.0404 25.9962 36.9779C25.9812 36.8562 25.953 36.7483 25.9115 36.654L26.1535 36.4002C26.194 36.4645 26.2192 36.5637 26.2288 36.6976C26.2324 36.7461 26.2342 36.8488 26.2342 37.0057V37.3956C26.2342 37.5119 26.2425 37.5965 26.2592 37.6494C26.2892 37.7437 26.3492 37.7908 26.439 37.7908H26.6532C26.7968 37.7908 26.9145 37.7763 27.0061 37.7472C27.0687 37.7279 27.1863 37.6749 27.3591 37.5886C27.0232 37.4564 26.8338 37.3903 26.7906 37.3903C26.7519 37.3903 26.7205 37.4026 26.6968 37.4273C26.6756 37.4484 26.6465 37.4943 26.6096 37.5648C26.5955 37.571 26.5827 37.574 26.5712 37.574C26.5474 37.574 26.5285 37.5621 26.5143 37.5383C26.5743 37.3824 26.6201 37.2748 26.6519 37.2158C26.7109 37.1048 26.7678 37.0493 26.8223 37.0493C26.8576 37.0493 26.9786 37.0955 27.1852 37.188C27.3919 37.2806 27.5423 37.3269 27.6366 37.3269C27.7406 37.3269 27.9027 37.3057 28.1231 37.2634L27.983 37.5833C27.8675 37.5956 27.7723 37.6097 27.6974 37.6256C27.7503 37.7357 27.8526 37.7908 28.0041 37.7908H28.2844C28.4756 37.7908 28.5712 37.7622 28.5712 37.7049C28.5712 37.6652 28.5214 37.578 28.4218 37.4432L28.6254 37.1656C28.7258 37.2995 28.7761 37.4397 28.7761 37.586C28.7453 37.7728 28.703 37.8997 28.6492 37.9666C28.5496 38.0909 28.4104 38.153 28.2315 38.153H28.1218C27.9728 38.153 27.8543 38.1085 27.7662 38.0195C27.6957 37.9481 27.6345 37.8336 27.5824 37.6758C27.3005 37.875 27.1326 37.9896 27.0788 38.0195C26.9193 38.1085 26.758 38.153 26.595 38.153ZM17.5733 37.5735H17.3408V38.0926H17.6073C17.7111 38.0926 17.777 38.0887 17.8049 38.0807C17.8476 38.0701 17.8826 38.0442 17.9094 38.0033C17.9363 37.9622 17.9499 37.9072 17.9499 37.8383C17.9499 37.7801 17.9394 37.7306 17.9187 37.6901C17.8979 37.6494 17.8679 37.6198 17.8287 37.6013C17.7894 37.5828 17.7044 37.5735 17.5733 37.5735ZM19.2468 37.6516L19.0502 36.9312L18.8576 37.6516H19.2468ZM11.8678 37.6516L11.6713 36.9312L11.4786 37.6516H11.8678ZM14.7459 37.6516L14.5493 36.9312L14.3567 37.6516H14.7459ZM13.0646 36.8067H12.8398V37.2993H13.0529C13.1911 37.2993 13.2773 37.2914 13.3117 37.2756C13.3461 37.2597 13.373 37.2323 13.3925 37.1934C13.412 37.1546 13.4216 37.106 13.4216 37.0478C13.4216 36.9824 13.4088 36.9297 13.3832 36.8895C13.3576 36.8493 13.3215 36.8239 13.2747 36.8134C13.2514 36.8089 13.1813 36.8067 13.0646 36.8067ZM17.5062 36.8014H17.3408V37.2504H17.5295C17.6417 37.2504 17.7114 37.2482 17.7387 37.2438C17.788 37.2358 17.8267 37.2126 17.8549 37.1743C17.8831 37.1358 17.8973 37.0852 17.8973 37.0226C17.8973 36.9625 17.8851 36.9138 17.8608 36.8762C17.8365 36.8387 17.8003 36.816 17.7523 36.808C17.7238 36.8036 17.6417 36.8014 17.5062 36.8014ZM23.7503 36.9805L23.5547 37.1656L23.363 36.9712L23.5626 36.7928L23.7503 36.9805ZM24.2341 36.9554L24.0385 37.1392L23.8468 36.9461L24.0477 36.7664L24.2341 36.9554ZM32.2583 36.7743L32.0455 36.9752L31.8366 36.7664L32.0534 36.5681L32.2583 36.7743ZM28.9638 36.7849L28.7814 36.9673L28.5963 36.8047L28.4272 36.9752L28.2328 36.8047L28.4152 36.6183L28.6003 36.7835L28.7695 36.6104L28.9638 36.7849ZM17.9585 34.1441L16.9331 31.3677L16.9094 31.3638L16.8358 31.3499C16.8 31.3399 16.7693 31.3288 16.7405 31.3042C16.676 31.249 16.6522 31.157 16.6817 31.0774C16.6948 31.0419 16.7163 31.0173 16.7427 30.9911L16.7819 30.9584L16.4442 30.0439C16.4117 30.0655 16.3765 30.0829 16.3392 30.0974C16.2906 30.1162 16.24 30.1298 16.1888 30.1394C16.1624 30.1443 16.1362 30.1479 16.1095 30.1504C16.0615 30.155 16.0106 30.1557 15.96 30.1511L17.6544 34.1441H17.9585ZM18.2466 34.1441H18.5075L17.7812 31.4538C17.6486 31.4473 17.5164 31.4384 17.3844 31.4259L18.2466 34.1441ZM18.8128 34.1441H19.0738L18.6259 31.4717L18.5056 31.4709L18.238 31.4683L18.8128 34.1441ZM19.3336 34.1441H19.5946L19.399 31.4775L19.3556 31.4778C19.2411 31.4764 19.1264 31.4753 19.0118 31.4745L19.3336 34.1441ZM20.1406 34.1441L20.2092 31.4488C20.1133 31.5096 20.0065 31.492 19.8997 31.4751C19.8761 31.4725 19.8521 31.4735 19.8283 31.4733L19.801 31.4731L19.8658 34.1441H20.1406ZM20.6664 34.1441L21.1121 30.4467C21.105 30.466 21.0977 30.4853 21.0899 30.5043C21.0712 30.5454 21.0517 30.5857 21.0266 30.6233C20.9423 30.7492 20.8219 30.8501 20.702 30.9402C20.6805 30.9557 20.6588 30.9707 20.637 30.9857L20.4054 34.1441H20.6664ZM21.1872 34.1441L22.1864 29.4918C22.1634 29.5417 22.1404 29.5917 22.1166 29.6415C22.0874 29.6997 22.0875 29.6994 22.057 29.7566C21.9564 29.9307 21.8291 30.1163 21.6232 30.1697C21.6125 30.1724 21.6018 30.1748 21.591 30.1766L20.9262 34.1441H21.1872ZM21.4924 34.1441H21.7534L22.8941 30.5479C22.8758 30.5344 22.8592 30.5191 22.8449 30.5012C22.8167 30.4657 22.7987 30.4221 22.7859 30.3791C22.7568 30.2807 22.7597 30.1768 22.7743 30.0762C22.7778 30.0524 22.7833 30.021 22.788 29.9973C22.7986 29.9439 22.8104 29.8908 22.8201 29.8373C22.8368 29.7268 22.8492 29.6156 22.861 29.5044C22.8745 29.3658 22.8846 29.2268 22.8837 29.0873C22.8835 29.0576 22.8829 29.028 22.8818 28.9983L21.4924 34.1441ZM22.0415 34.1441H22.3456L23.6705 31.0218C23.648 31.0176 23.6258 31.0117 23.6041 31.003C23.5124 30.9666 23.4422 30.8907 23.4126 30.7965C23.3983 30.7507 23.3948 30.7034 23.3932 30.6558L23.3928 30.6409C23.3744 30.6384 23.356 30.6364 23.3376 30.6348L22.0415 34.1441ZM22.6752 34.1441H22.9894L24.5521 31.2544C24.4462 31.2514 24.3404 31.2427 24.2359 31.2225C24.192 31.2141 24.1473 31.2051 24.1048 31.1903L22.6752 34.1441ZM23.7212 34.1441L25.6815 31.2322C25.5054 31.2349 25.3293 31.2352 25.1532 31.2395L23.3781 34.1441H23.7212ZM24.4938 34.1441L26.9048 31.1784L26.8906 31.1793C26.6989 31.1907 26.5072 31.2016 26.3154 31.2106L24.1258 34.1441H24.4938ZM25.431 34.1441L28.4456 31.0758C28.3317 31.0832 28.2177 31.0901 28.1037 31.0978L27.7785 31.12L25.0278 34.1441H25.431ZM26.5686 34.1441L30.3797 30.937C30.3208 30.9661 30.2496 30.9774 30.1889 30.9817C30.1742 30.9828 30.1594 30.9834 30.1444 30.9838C30.1161 30.9845 30.0867 30.9839 30.0583 30.9828C30.0171 30.9811 29.9808 30.9782 29.9386 30.9749C29.8882 30.9709 29.8381 30.966 29.7876 30.9647C29.7048 30.9661 29.622 30.9735 29.5394 30.9796C29.494 30.9834 29.4485 30.9872 29.4031 30.9913L25.9879 34.1441H26.5686ZM16.473 29.5251C16.478 29.5246 16.483 29.5242 16.4881 29.5239C16.5217 29.5243 16.5214 29.5242 16.5551 29.527C16.5647 29.5284 16.5743 29.5299 16.5838 29.5317L16.5865 29.5322C16.5955 29.534 16.6045 29.5359 16.6135 29.538L16.6174 29.5389C16.6261 29.5409 16.6348 29.5431 16.6433 29.5454L16.653 29.5481L16.6624 29.551L16.675 29.5547L16.6848 29.5579L16.6932 29.5608L16.704 29.5644L16.7161 29.5688L16.7327 29.5752L16.7471 29.5809L16.7611 29.5868L16.7776 29.594L16.7891 29.5993L16.8077 29.6081C16.8753 29.6408 16.94 29.6803 17.0024 29.7221C17.1143 29.7971 17.2246 29.8802 17.3094 29.9858C17.4872 30.2071 17.5335 30.4991 17.4556 30.7695C17.4306 30.8561 17.3965 30.9374 17.3433 31.0103L17.3424 31.0114C17.4512 31.0226 17.56 31.0311 17.6689 31.0377L17.6836 31.0386L17.7786 31.0438L17.8051 31.045L17.9037 31.0493L18.0207 31.0533L18.1399 31.0564L18.2286 31.0584C18.3381 31.0597 18.4476 31.0606 18.5572 31.0614L18.9623 31.0643C19.0941 31.0652 19.2258 31.0663 19.3575 31.0679L19.4745 31.067L19.6856 31.0642L19.6939 31.0641C19.7404 31.0636 19.7869 31.0633 19.8333 31.0634C19.8938 31.0648 19.8935 31.0623 19.9533 31.0686L19.9683 31.071C19.9765 31.0445 19.9858 31.0191 19.9964 30.9934C20.0206 30.9448 20.0497 30.9033 20.0913 30.868C20.1356 30.8343 20.1806 30.8016 20.2262 30.7695L20.3433 30.6905L20.4015 30.6506L20.4593 30.61C20.4932 30.5845 20.526 30.5584 20.5583 30.5309L20.5915 30.5004L20.6078 30.485L20.624 30.469L20.6398 30.4526L20.6469 30.4448L20.655 30.4357L20.6618 30.4275L20.6692 30.4182L20.6796 30.4044L20.6858 30.3955C20.707 30.3637 20.7206 30.3265 20.7335 30.2907C20.7494 30.2466 20.7647 30.2025 20.7815 30.1586C20.7976 30.1198 20.7975 30.1202 20.8155 30.0821C20.843 30.0317 20.8724 29.9841 20.9125 29.9426C20.988 29.8643 21.0854 29.8164 21.1905 29.7957L21.2088 29.7923C21.2157 29.7911 21.2228 29.79 21.2298 29.7891C21.3207 29.777 21.4129 29.7881 21.5036 29.7761C21.5164 29.7739 21.5294 29.7716 21.5405 29.7646L21.5543 29.7535L21.5678 29.7414L21.5723 29.7372L21.585 29.7244L21.5971 29.7112L21.6087 29.6974L21.6201 29.683L21.6241 29.6778L21.6348 29.6629L21.6446 29.6485L21.6602 29.6241L21.6715 29.6052L21.683 29.5854L21.6907 29.5717C21.7022 29.5512 21.7131 29.5305 21.7237 29.5106C21.7851 29.3881 21.8395 29.2623 21.8997 29.1394C21.9349 29.0719 21.9743 29.007 22.0098 28.9398C22.0522 28.8596 22.0928 28.7786 22.1366 28.6992C22.1615 28.6568 22.187 28.6152 22.2148 28.5746C22.2459 28.5315 22.2786 28.4899 22.3151 28.4512C22.3466 28.4179 22.3802 28.3868 22.4158 28.358L22.4328 28.3448L22.4447 28.3355L22.4578 28.3259L22.4744 28.3141L22.4833 28.3079L22.5047 28.2936L22.5069 28.2922C22.5164 28.2859 22.526 28.2799 22.5357 28.274C22.669 28.192 22.8329 28.1105 22.99 28.1725C23.0254 28.1865 23.0585 28.2094 23.087 28.2341L23.0878 28.2349C23.1173 28.2605 23.1429 28.2905 23.1644 28.3231C23.197 28.3727 23.2197 28.4284 23.2356 28.4854C23.2657 28.5927 23.2704 28.7044 23.2798 28.8147C23.2893 28.927 23.2948 29.039 23.2933 29.1517C23.292 29.2494 23.2865 29.3468 23.2783 29.4441L23.2781 29.4475L23.2777 29.4506C23.2759 29.4722 23.274 29.4939 23.2719 29.5154C23.2693 29.5419 23.2666 29.5685 23.2637 29.5949L23.2608 29.62L23.2566 29.6584L23.2542 29.678L23.2528 29.6901L23.2507 29.7066L23.2481 29.7285L23.2435 29.764L23.2417 29.7794L23.2299 29.8686C23.2179 29.9584 23.1944 30.046 23.1799 30.1353C23.1767 30.1602 23.1743 30.1845 23.1734 30.2096L23.1735 30.2139C23.2344 30.2195 23.2959 30.2207 23.357 30.2248L23.3886 30.2277L23.4108 30.2301L23.4377 30.2335L23.4518 30.2355L23.4644 30.2375L23.4831 30.2408C23.5124 30.2463 23.5411 30.2537 23.5691 30.264C23.669 30.3007 23.748 30.3753 23.7815 30.4772C23.7967 30.5237 23.8008 30.572 23.8022 30.6206L23.8411 30.6198L23.8487 30.6198L23.868 30.6197L23.8951 30.6201C23.9794 30.6262 24.0552 30.6482 24.1231 30.6998C24.1431 30.715 24.1616 30.732 24.1796 30.7496C24.1974 30.767 24.2144 30.7879 24.2354 30.8019L24.2481 30.8058L24.2609 30.8093L24.2864 30.8151C24.3047 30.8188 24.3232 30.8218 24.3413 30.8251C24.4893 30.8481 24.6389 30.8498 24.7886 30.8451L24.8226 30.844L24.8736 30.842L25.0807 30.8323L25.134 30.8302C25.1513 30.8296 25.1688 30.829 25.1861 30.8286L25.1873 30.8285C25.3447 30.827 25.502 30.8261 25.6595 30.8235C25.7683 30.8207 25.8771 30.8174 25.9859 30.8134L26.1062 30.8088L26.1425 30.8073L26.2956 30.8007L26.3106 30.8L26.4519 30.7933L26.4836 30.7917L26.6646 30.7822C26.8622 30.7705 27.0596 30.758 27.2572 30.745L27.7014 30.7155L28.1756 30.6834L28.5618 30.6575C28.6736 30.6492 28.7852 30.6391 28.8967 30.6284C29.0089 30.6177 29.1209 30.6064 29.233 30.5957L29.2713 30.5921L29.3195 30.5876L29.3517 30.5845L29.3895 30.5812L29.4013 30.5801C29.4368 30.577 29.4723 30.5739 29.5078 30.571C29.59 30.565 29.6721 30.5598 29.7544 30.5554L29.7764 30.5553H29.7838L29.7985 30.5555L29.8132 30.5558L29.8424 30.557L29.8718 30.5586C29.9498 30.5634 30.0276 30.572 30.1057 30.5741H30.1088C30.1113 30.423 30.1203 30.2716 30.1262 30.1205L30.1325 29.9762C30.0938 29.9786 30.0552 29.9816 30.0164 29.9836L29.9777 29.9853C29.9496 29.9852 29.9216 29.9848 29.8935 29.9844L29.8515 29.984C29.8375 29.9839 29.8234 29.9839 29.8094 29.984L29.7682 29.9858L29.7285 29.988L29.6483 29.9933L29.6091 29.9965L29.5636 30.0003L29.5206 30.0043C29.39 30.0166 29.2597 30.0319 29.129 30.0445C29.0486 30.0512 29.049 30.0512 28.9684 30.0565C28.8999 30.0594 28.8316 30.0614 28.763 30.0608L28.7423 30.0603L28.7303 30.06L28.7277 30.0598C28.7204 30.0597 28.7122 30.0593 28.6974 30.0584C28.6195 30.0503 28.5462 30.0286 28.4747 29.9969C28.3922 29.9603 28.3155 29.9122 28.2328 29.876C28.2101 29.8671 28.1885 29.8608 28.1647 29.8547L28.1442 29.8508L28.1236 29.8474L28.1156 29.8462L28.103 29.8444L28.0949 29.8433L28.0825 29.8417L28.067 29.8398L28.0407 29.837L27.9987 29.8331C27.9441 29.8285 27.8895 29.8249 27.8351 29.8188C27.7886 29.8121 27.7891 29.8121 27.7432 29.8037C27.6934 29.792 27.6448 29.779 27.5976 29.7591C27.5476 29.738 27.4997 29.7133 27.4531 29.6864L27.4498 29.6845C27.4368 29.6771 27.4238 29.6694 27.4109 29.6615L27.4094 29.6606L27.3832 29.6444L27.3727 29.6378L27.3687 29.6353L27.3637 29.6321L27.3538 29.6258L27.3427 29.6185L27.3273 29.6087L27.3022 29.5921L27.2955 29.5879L27.2881 29.583L27.286 29.5816L27.2233 29.5402L27.1894 29.5181L27.1687 29.5046L27.1582 29.498L27.1204 29.4744C27.0824 29.4527 27.0443 29.4322 27.0042 29.4145L26.9863 29.4076L26.9816 29.4058L26.9721 29.4026L26.9532 29.3964L26.9462 29.3942C26.8909 29.3776 26.8343 29.3681 26.776 29.3594C26.7115 29.3497 26.6467 29.342 26.5818 29.3358C26.4996 29.328 26.4169 29.3219 26.334 29.3184L26.3274 29.3181L26.2806 29.3166L26.2701 29.3163L26.2329 29.3155L26.2202 29.3153L26.1819 29.3151L26.1723 29.315L26.1246 29.3155L26.117 29.3157L26.0779 29.3166L26.0624 29.3172L26.0306 29.3185L26.0138 29.3193L25.9667 29.3222L25.9201 29.3258L25.8665 29.3311L25.8507 29.3329L25.8109 29.3376L25.7961 29.3394L25.7438 29.3465L25.6644 29.3581C25.5925 29.369 25.5209 29.3803 25.449 29.3897C25.3849 29.3971 25.3852 29.397 25.3207 29.4031C25.1957 29.4117 25.071 29.4143 24.9465 29.3981C24.8484 29.3853 24.758 29.3632 24.6719 29.3129L24.6577 29.3044L24.6541 29.3021L24.6521 29.3008L24.6492 29.299L24.6438 29.2956L24.6399 29.293L24.6325 29.2882L24.6198 29.2794L24.6165 29.2772L24.6152 29.2763C24.6074 29.2707 24.5995 29.2649 24.5917 29.259L24.59 29.2577L24.5861 29.2547L24.5765 29.2474L24.5675 29.2402L24.564 29.2376L24.5618 29.2357L24.5584 29.233L24.5525 29.2281L24.5386 29.2167L24.5274 29.2072L24.5228 29.2034L24.5184 29.1995L24.5135 29.1954L24.5035 29.1867L24.4878 29.1731L24.4639 29.152C24.4371 29.1283 24.4103 29.1046 24.3828 29.0819C24.2739 28.9972 24.1567 28.924 24.0458 28.842C24.0339 28.8326 24.022 28.8231 24.0103 28.8136L24.0006 28.8057L23.9915 28.7981L23.9893 28.7963C23.9812 28.7897 23.9734 28.783 23.9654 28.7762L23.9608 28.7722L23.9436 28.757L23.9412 28.7548L23.9389 28.7526L23.9221 28.7373L23.9173 28.7328L23.9133 28.729L23.9085 28.7244L23.9011 28.7173L23.8937 28.7099L23.8885 28.7048L23.8851 28.7013L23.8805 28.6967L23.8643 28.6797L23.8626 28.6779C23.8552 28.67 23.848 28.6619 23.8408 28.6537C23.8339 28.6458 23.8271 28.6377 23.8203 28.6296L23.8185 28.6275L23.814 28.6218L23.8049 28.6105L23.8004 28.6047L23.7971 28.6007L23.7935 28.5957L23.7877 28.5882L23.7808 28.5788L23.7767 28.5732L23.7743 28.57L23.7712 28.5656L23.7569 28.5452L23.7561 28.544C23.7503 28.5354 23.7444 28.5266 23.7388 28.5178L23.738 28.5167L23.7346 28.5111L23.7249 28.4955L23.7221 28.491L23.72 28.4876L23.7164 28.4813L23.7105 28.4714L23.7061 28.4635L23.7028 28.4579L23.7003 28.4531L23.6968 28.4471L23.6903 28.4347L23.6866 28.4278L23.6852 28.4252L23.6837 28.4223L23.6722 28.3996L23.6711 28.3973L23.67 28.395L23.6591 28.372L23.6579 28.3692L23.6566 28.3663L23.6532 28.3586L23.6478 28.3464L23.6453 28.3404L23.6429 28.335L23.6403 28.3283L23.637 28.3205L23.6333 28.3109L23.6302 28.3032L23.6285 28.2986L23.6268 28.2944L23.6216 28.28L23.6183 28.271L23.6176 28.269L23.6173 28.2681C23.6063 28.2368 23.5967 28.2048 23.5883 28.1726C23.5487 28.0203 23.536 27.8629 23.5108 27.7079C23.5043 27.6727 23.497 27.6382 23.4882 27.6035C23.4735 27.555 23.4568 27.5064 23.424 27.4667C23.3949 27.4314 23.3554 27.4083 23.313 27.3928L23.2934 27.3861L23.2919 27.3857L23.2728 27.3803L23.2694 27.3794L23.2508 27.375L23.2258 27.37C23.192 27.364 23.1577 27.3604 23.1235 27.3596L23.1029 27.3595C23.0891 27.3596 23.0754 27.3602 23.0617 27.3613C22.9219 27.3723 22.7917 27.4287 22.6682 27.4913L22.6102 27.5224C22.4831 27.5918 22.3595 27.6674 22.2325 27.7367C22.1505 27.7793 22.0664 27.817 21.9808 27.8505L21.9798 27.8509L21.9775 27.8518L21.9665 27.856L21.9459 27.864L21.94 27.8661L21.934 27.8684L21.9236 27.8722L21.9107 27.8769L21.8995 27.8809L21.8902 27.8843L21.8829 27.8868L21.8755 27.8895L21.8573 27.8956L21.8462 27.8995L21.8427 27.9007C21.8297 27.905 21.8167 27.9093 21.8037 27.9135L21.8019 27.9141L21.7917 27.9173L21.7686 27.9245L21.7632 27.9262L21.7575 27.928L21.7465 27.9313L21.7327 27.9354L21.7222 27.9386L21.7128 27.9414L21.7047 27.9436L21.6968 27.9459L21.68 27.9506L21.668 27.9541L21.6635 27.9553L21.6606 27.9561L21.6296 27.9645L21.6229 27.9663L21.6094 27.9697L21.5881 27.9753L21.5841 27.9763L21.5778 27.9779L21.5638 27.9813L21.5516 27.9844L21.5471 27.9855C21.5245 27.9909 21.5018 27.9963 21.4792 28.0014L21.4784 28.0016L21.4765 28.002L21.4413 28.0098L21.405 28.0175L21.3955 28.0195C21.2141 28.0571 21.0305 28.0845 20.8481 28.1078C20.8309 28.11 20.8137 28.1123 20.7965 28.1144C20.7354 28.122 20.6742 28.1293 20.613 28.1366C20.5858 28.1398 20.5583 28.143 20.5308 28.1459L20.5289 28.1461L20.5156 28.1475L20.4937 28.1497L20.4904 28.15L20.4865 28.1504L20.4728 28.1516L20.4537 28.1532L20.4492 28.1536L20.4441 28.1541L20.4305 28.155L20.4134 28.1563L20.4078 28.1565L20.4015 28.157L20.3883 28.1576L20.3733 28.1584L20.3665 28.1586L20.3588 28.159L20.3464 28.1593L20.333 28.1597L20.3251 28.1598L20.3162 28.16L20.3046 28.1599L20.2929 28.16C20.1729 28.1593 20.0544 28.1426 19.9424 28.0941C19.8583 28.0577 19.7839 28.0083 19.7156 27.9514L19.7122 27.9486L19.7024 27.9404L19.6921 27.9314L19.6889 27.9287L19.687 27.927C19.671 27.9128 19.6552 27.8983 19.6397 27.8834L19.6374 27.8812L19.6341 27.8779L19.6262 27.8703L19.6155 27.8596L19.6078 27.8519L19.6026 27.8466L19.5877 27.8314L19.5764 27.8195L19.5716 27.8146L19.5682 27.8109C19.5579 27.7999 19.5476 27.7888 19.5375 27.7777L19.5361 27.7764L19.5315 27.7711L19.5156 27.7537L19.5091 27.7464L19.5011 27.7376L19.4715 27.7041L19.4687 27.7009L19.4674 27.6993L19.4666 27.6984L19.4136 27.6381L19.3849 27.6056L19.3679 27.5865L19.3598 27.5775L19.3284 27.543C19.302 27.516 19.2751 27.49 19.2469 27.4649L19.2293 27.4506L19.2232 27.446L19.2113 27.437L19.2037 27.4316L19.193 27.424L19.1844 27.4182L19.1744 27.4115L19.1648 27.4055L19.1555 27.3996L19.1449 27.3933L19.1363 27.3883L19.1244 27.3817L19.1169 27.3775L19.1034 27.3705C18.9419 27.2869 18.7551 27.252 18.578 27.2184L18.4597 27.196L18.4479 27.1937C18.4124 27.1869 18.377 27.18 18.3415 27.1729C18.2729 27.158 18.2048 27.1423 18.137 27.1239C18.1248 27.1204 18.1126 27.1168 18.1006 27.113L18.0977 27.1121L18.089 27.1093L18.0718 27.1038L18.0644 27.1014L18.0589 27.0996L18.051 27.0969L18.0395 27.093L18.0281 27.0889L18.0203 27.0862L18.0147 27.0842L18.0076 27.0816L17.9912 27.0755L17.9821 27.0722L17.9789 27.071L17.9758 27.0698L17.9485 27.0592L17.9442 27.0574L17.9384 27.0551L17.913 27.0446L17.9103 27.0435L17.9067 27.0419L17.8819 27.0313C17.7661 26.9806 17.6551 26.9197 17.5483 26.8498C17.422 26.767 17.3032 26.6741 17.1876 26.5772L17.1845 26.5746L17.1784 26.5696L17.1522 26.5475L17.142 26.5388L17.1391 26.5364L17.134 26.5321L17.0967 26.5001L17.0949 26.4986L17.0268 26.4397L17.0067 26.4221L17.0029 26.4189L17.0022 26.4183L16.9163 26.3434L16.8268 26.2662L16.7529 26.2047L16.7263 26.1827L16.6794 26.1441L16.5237 26.0164L16.4842 25.9838L16.3955 25.911L16.3818 25.8995L16.3721 25.8915L16.3239 25.8515L16.3128 25.8422L16.2966 25.8288L16.2739 25.8096L16.2525 25.7916L16.2215 25.7655C16.086 25.6484 15.9527 25.5291 15.826 25.4025C15.7496 25.3261 15.6723 25.2496 15.6099 25.1611C15.5033 25.0095 15.4341 24.834 15.3834 24.6568C15.3164 24.4224 15.2803 24.1792 15.258 23.9367C15.2503 23.8526 15.2503 23.7681 15.2445 23.684C15.241 23.6487 15.2369 23.6138 15.2297 23.5791C15.2217 23.5463 15.2123 23.5099 15.1873 23.4857C15.1781 23.4781 15.1685 23.4734 15.1571 23.4705C15.1224 23.464 15.0861 23.4704 15.0519 23.4763C14.9993 23.4853 14.9472 23.4962 14.8944 23.5045C14.8751 23.5067 14.856 23.5086 14.8369 23.5099L14.8331 23.5103L14.8241 23.5108L14.8188 23.5112L14.8166 23.5112C14.8089 23.5117 14.8012 23.5121 14.7934 23.5122C14.7542 23.5117 14.7156 23.5093 14.6769 23.5014C14.6259 23.4909 14.5751 23.4715 14.5264 23.4546C14.3986 23.4103 14.2719 23.3488 14.1883 23.2384C14.1364 23.1695 14.1126 23.0847 14.0767 23.0074L14.0715 22.9972C14.0497 22.9884 14.0274 22.981 14.004 22.9779L13.9945 22.977L13.992 22.9768L13.9833 22.9767L13.9742 22.9771L13.962 22.9784L13.95 22.9809L13.9464 22.9818L13.9375 22.9845L13.9345 22.9854L13.9233 22.9898L13.9207 22.9909L13.9121 22.9949L13.9084 22.9968L13.9005 23.0012L13.8974 23.0028L13.8877 23.0089L13.872 23.0197L13.8698 23.0213L13.8548 23.0329C13.8395 23.0453 13.8249 23.0585 13.8108 23.0713C13.7494 23.1326 13.6942 23.1991 13.6349 23.2623C13.5508 23.3475 13.4623 23.4285 13.3807 23.5161C13.3616 23.5376 13.3432 23.5593 13.3255 23.582C13.2973 23.6212 13.2711 23.6617 13.2455 23.7026L13.2325 23.7235L13.2181 23.7467L13.1947 23.7846L13.1825 23.804L13.1754 23.8155L13.1729 23.8195L13.1691 23.8255L13.1552 23.8471L13.1462 23.8612L13.1442 23.8642L13.1429 23.8661L13.1411 23.8689L13.1312 23.8837L13.116 23.9061C13.0934 23.9371 13.0703 23.9671 13.046 23.9967C13.0136 24.0335 12.9813 24.0694 12.9421 24.0991C12.8798 24.1465 12.8082 24.1807 12.7374 24.2134C12.703 24.2292 12.6684 24.2445 12.634 24.2602L12.6135 24.2694L12.5625 24.2932L12.5582 24.2952C12.5387 24.3045 12.5193 24.314 12.5 24.3239C12.4755 24.3376 12.4518 24.3518 12.4295 24.3689C12.4234 24.3742 12.4235 24.3739 12.4177 24.3796C12.4116 24.408 12.4067 24.4364 12.402 24.4651L12.3975 24.4953C12.4125 24.5205 12.4251 24.5464 12.4373 24.573C12.4588 24.6249 12.4744 24.6792 12.4965 24.7307C12.5111 24.7487 12.5296 24.7631 12.5475 24.7775C12.5919 24.8111 12.6373 24.8431 12.6806 24.8781C12.7083 24.9025 12.708 24.9023 12.7346 24.9281C12.7625 24.9587 12.7622 24.9585 12.788 24.991C12.8152 25.0316 12.8399 25.0734 12.8643 25.1159C12.9848 25.3332 13.0805 25.5623 13.1882 25.7859C13.2201 25.8485 13.2524 25.9103 13.2875 25.9711C13.3575 26.087 13.4366 26.1965 13.5327 26.2916L13.5521 26.3103L13.5575 26.3155L13.5768 26.3331C13.7261 26.4666 13.9047 26.5648 14.0857 26.6479L14.1559 26.6796L14.1778 26.6892L14.2188 26.7073L14.3213 26.7516L14.4423 26.8033L14.446 26.805C14.4832 26.8209 14.5204 26.8369 14.5575 26.8532L14.5612 26.8548C14.6085 26.8755 14.6556 26.8964 14.7024 26.9181C14.7554 26.9434 14.8079 26.9695 14.8601 26.9964C14.9405 27.0399 15.0213 27.0837 15.0942 27.1391C15.2483 27.2564 15.3783 27.4062 15.4959 27.5591C15.5163 27.5855 15.5364 27.6123 15.5562 27.6396L15.5679 27.6555L15.5752 27.6659L15.584 27.6781L15.5945 27.6932L15.6028 27.7049L15.6132 27.7201C15.6214 27.7323 15.6295 27.7445 15.6375 27.7568L15.6528 27.7805L15.6651 27.8002C15.6725 27.8122 15.6797 27.8241 15.6868 27.8362L15.6995 27.8581L15.7141 27.8844L15.723 27.901L15.734 27.9222L15.743 27.9402C15.747 27.9484 15.7509 27.9566 15.7549 27.965C15.805 28.0721 15.8408 28.1854 15.8661 28.3008C15.8691 28.3144 15.8718 28.3279 15.8745 28.3415L15.8809 28.375L15.8832 28.3881L15.8873 28.4122L15.8905 28.4321L15.8931 28.4496L15.8968 28.476L15.9027 28.5227L15.9073 28.5643L15.9108 28.5997C15.9234 28.7356 15.9275 28.8722 15.9313 29.0085C15.9346 29.1318 15.9424 29.2548 15.9468 29.378C15.9501 29.4694 15.9461 29.5608 15.9504 29.6521C15.9526 29.6808 15.9543 29.7096 15.9606 29.7376C16.0273 29.7562 16.1057 29.7403 16.17 29.7225C16.1809 29.7189 16.1804 29.719 16.191 29.7152L16.197 29.7128C16.2025 29.6988 16.2086 29.6851 16.2158 29.6718C16.2303 29.649 16.2445 29.6265 16.2652 29.6085C16.2698 29.6044 16.2744 29.6007 16.2791 29.5971L16.2907 29.5884L16.3025 29.5803L16.3154 29.5724L16.3285 29.5652L16.3418 29.5586L16.3554 29.5526L16.3693 29.5473L16.3833 29.5426L16.3977 29.5385L16.4122 29.5348L16.4311 29.5308L16.445 29.5285L16.4592 29.5266L16.473 29.5251ZM17.0258 30.2956L17.0806 30.4681C17.0746 30.4075 17.0565 30.3489 17.0258 30.2956ZM12.9617 10.7587C12.9037 10.7343 12.8403 10.7201 12.7807 10.7104L12.7401 10.7044L12.7268 10.7027L12.6991 10.6995L12.6836 10.698L12.6578 10.6957L12.6418 10.6945L12.6157 10.6928L12.6004 10.692L12.5716 10.6909L12.5591 10.6905L12.5184 10.6899H12.508L12.4773 10.6902L12.4604 10.6905L12.4362 10.6913L12.4174 10.6919L12.3953 10.693L12.3753 10.694L12.3336 10.6968L12.3171 10.6981C12.2844 10.7007 12.2516 10.7038 12.219 10.7074L12.1812 10.7118C12.1464 10.7159 12.1117 10.7205 12.0774 10.7254L12.0424 10.731C12.0559 10.6285 12.068 10.5259 12.0794 10.423L12.0858 10.3584L12.0921 10.2907L12.1 10.2041L12.1051 10.1448L12.1079 10.1113L12.1153 10.0167C12.1212 9.92414 12.1267 9.83168 12.1301 9.73898C12.1323 9.67668 12.1339 9.61365 12.1343 9.55136C12.1347 9.4907 12.1341 9.42898 12.1322 9.36833C12.1301 9.30087 12.1276 9.26259 12.1226 9.19563C12.1128 9.06973 12.0961 8.93587 12.0449 8.81924C12.018 8.75809 11.9776 8.69907 11.9099 8.68227C11.8888 8.67916 11.8703 8.67883 11.8491 8.68063L11.8349 8.68358L11.8303 8.68465L11.8208 8.68703L11.8154 8.68858L11.807 8.69104L11.8014 8.69285L11.7932 8.69563L11.7877 8.6976L11.7795 8.70071L11.7744 8.70276L11.7657 8.70637L11.7612 8.70834L11.7494 8.71375L11.7482 8.71432L11.7263 8.72547L11.7235 8.72703L11.7049 8.73768L11.6887 8.7476L11.6803 8.75284L11.6587 8.76727L11.6566 8.76875L11.6318 8.78645C11.5489 8.84702 11.4736 8.91711 11.3986 8.9871C11.2352 9.14456 11.0767 9.30702 10.914 9.46529C10.8377 9.53792 10.7607 9.60964 10.6815 9.67931C10.6159 9.73709 10.548 9.79258 10.4783 9.84545C10.4238 9.88685 10.3679 9.92652 10.3104 9.96373C10.2684 9.99094 10.2256 10.0168 10.1818 10.041C10.044 10.1169 9.89529 10.1769 9.73906 10.2008C9.70914 10.2054 9.67898 10.2086 9.6489 10.2101L9.61874 10.2109C9.57865 10.2109 9.53857 10.2073 9.49898 10.1981C9.43325 10.1828 9.37161 10.1541 9.31563 10.1167C9.19046 10.0332 9.0935 9.91201 9.00596 9.79168L8.96801 9.73865L8.96407 9.73308L8.96194 9.73004L8.95407 9.71865C8.87145 9.6007 8.79325 9.47947 8.71039 9.36169C8.66481 9.29931 8.61826 9.23841 8.56957 9.17841C8.45351 9.04202 8.32359 8.91702 8.16539 8.83039C8.13113 8.81161 8.09589 8.79473 8.05974 8.77989C8.04113 8.77227 8.02171 8.76309 8.00138 8.76071C7.96007 8.7558 7.91663 8.76752 7.87827 8.78178C7.79507 8.81276 7.71925 8.86645 7.66204 8.93415C7.61753 8.98678 7.58434 9.04874 7.56712 9.11563C7.5568 9.15563 7.55278 9.19694 7.54926 9.238C7.54278 9.31366 7.54106 9.38972 7.54196 9.4657C7.54499 9.71349 7.57442 9.96111 7.61565 10.2052C7.64712 10.3911 7.68597 10.576 7.73343 10.7586L7.73753 10.7739L7.75696 10.8458L7.75966 10.8557L7.78015 10.9275L7.78302 10.9373L7.80106 10.9972L7.80671 11.0156L7.8286 11.0845C7.87483 11.2266 7.92704 11.3672 7.99015 11.5026L8.01179 11.5478L8.01908 11.5624L8.03433 11.5926L8.05277 11.6273L8.05597 11.6331L8.07687 11.67L8.08933 11.691L8.09417 11.6988C8.10458 11.7158 8.1154 11.7327 8.12662 11.7492L8.14236 11.7719L8.15646 11.7912L8.17064 11.81L8.18474 11.8279C8.19334 11.8386 8.20212 11.8491 8.21113 11.8594L8.23449 12.1099L8.24179 12.1858L8.24572 12.2272L8.25752 12.3445C8.29367 12.6544 8.33679 12.9789 8.48146 13.2602C8.51719 13.3295 8.56088 13.3938 8.60711 13.4565C8.67006 13.5419 8.73522 13.6253 8.80202 13.7077L8.88588 13.8102L8.90292 13.8309L8.9467 13.8837L9.07973 14.0438L9.09743 14.065L9.14243 14.1192L9.17251 14.1556C9.2003 14.1892 9.22792 14.2229 9.25546 14.2567C9.33448 14.3559 9.41185 14.4558 9.48783 14.5573C9.53833 14.6268 9.58824 14.6967 9.63595 14.7683C9.68365 14.8397 9.73168 14.9089 9.75832 14.9911C9.79029 15.0901 9.80103 15.1955 9.80422 15.2989C9.80808 15.4211 9.80054 15.5436 9.78718 15.665L9.78636 15.6727L9.78627 15.6739L9.78603 15.6758L9.77972 15.7293C9.73013 16.1262 9.63046 16.5174 9.51087 16.8986C9.47505 17.0127 9.43693 17.1263 9.39628 17.2388C9.37333 17.3023 9.34284 17.3652 9.3271 17.431C9.32505 17.4426 9.32358 17.454 9.32276 17.4658C9.32341 17.5823 9.39366 17.6759 9.46579 17.7616C9.54505 17.8508 9.62939 17.9351 9.70685 18.0259C9.7339 18.06 9.76127 18.0948 9.78054 18.1342C9.81234 18.1992 9.82013 18.272 9.82472 18.3432C9.82857 18.4326 9.82734 18.5221 9.83127 18.6116L9.83373 18.6404L9.83431 18.646L9.83734 18.6734C9.84316 18.7206 9.85267 18.7672 9.87012 18.812C9.89381 18.8729 9.93144 18.9221 9.97742 18.9627C9.9948 18.9781 10.0134 18.9923 10.0329 19.0055L10.0541 19.0191L10.0759 19.032L10.0979 19.044L10.1179 19.0543L10.1234 19.0569L10.148 19.0684L10.1562 19.072L10.185 19.0843L10.2154 19.0963L10.2232 19.0993L10.2379 19.1048L10.2686 19.1158L10.2804 19.1199L10.3196 19.1333C10.3671 19.1491 10.389 19.1552 10.4372 19.1698C10.6162 19.2211 10.7967 19.2669 10.9756 19.3183C10.996 19.3243 11.0164 19.3305 11.0367 19.3368L11.0909 19.3536L11.1047 19.358L11.1483 19.3721L11.1689 19.3789L11.1845 19.3843L11.2054 19.3913L11.2193 19.3961L11.2326 19.4008L11.2463 19.4056L11.2622 19.4113L11.2794 19.4176L11.2962 19.4237L11.3072 19.4279L11.3187 19.4321L11.339 19.44L11.3591 19.4478L11.3766 19.4547C11.4125 19.4691 11.4482 19.4842 11.4836 19.5002C11.5926 19.5492 11.6985 19.6052 11.7986 19.6705C11.8553 19.7074 11.91 19.7471 11.9624 19.7899C12.0045 19.8242 12.0464 19.8595 12.0801 19.9026C12.193 20.0472 12.2139 20.2433 12.2179 20.4204C12.2188 20.4624 12.2185 20.5048 12.2176 20.5468C12.2163 20.6133 12.2135 20.6682 12.2108 20.7375C12.2072 20.8303 12.2068 20.83 12.2047 20.9228C12.2044 20.9804 12.2054 21.0374 12.2085 21.095C12.2187 21.215 12.2412 21.3509 12.3394 21.4325C12.3748 21.4618 12.4176 21.4759 12.4566 21.4991C12.4767 21.5138 12.4764 21.5136 12.4953 21.53C12.5675 21.6037 12.6114 21.6969 12.6444 21.7939C12.6781 21.8931 12.7015 21.9963 12.7184 22.0995C12.7576 22.339 12.7756 22.5814 12.7808 22.8243L12.7821 22.8953L12.7824 22.9181V22.9372L12.7827 22.9753L12.7826 22.9963L12.7827 23.0095L12.7825 23.028L12.7825 23.0552L12.7821 23.1008L12.7818 23.116L12.7816 23.1351L12.7809 23.1707L12.7806 23.1922L12.7803 23.2028L12.7801 23.215L12.7789 23.2617L12.7784 23.2834L12.7781 23.2889C12.7774 23.3174 12.7764 23.346 12.7754 23.3745L12.7717 23.4517L12.8758 23.5237L12.9238 23.4467C12.9399 23.4211 12.9561 23.3956 12.9729 23.3703L12.9916 23.3449L13.0107 23.3199L13.0267 23.2997C13.0343 23.29 13.0422 23.2804 13.0502 23.2709C13.1482 23.1607 13.2593 23.0637 13.3601 22.9563C13.4025 22.9087 13.4444 22.8609 13.488 22.8145C13.5288 22.7738 13.57 22.7338 13.616 22.6989C13.6456 22.6764 13.6767 22.6561 13.7092 22.6386L13.723 22.6313L13.737 22.6243L13.7516 22.6174L13.7656 22.6113L13.7801 22.6054L13.7941 22.6001L13.8147 22.5931L13.8243 22.59L13.8375 22.5862L13.858 22.5809L13.8697 22.5782L13.882 22.5758L13.9024 22.5723L13.9163 22.5704L13.9275 22.5692C13.9343 22.5685 13.9411 22.5679 13.9479 22.5675C13.957 22.5669 13.9661 22.5665 13.9752 22.5664L14.0027 22.5668C14.021 22.5674 14.0392 22.569 14.0574 22.5713C14.1078 22.578 14.1573 22.5911 14.2048 22.609C14.256 22.6283 14.3056 22.651 14.3465 22.6877C14.4044 22.7395 14.4402 22.812 14.4697 22.8824C14.4849 22.9188 14.4969 22.9587 14.5169 22.9931C14.5263 23.0036 14.5379 23.0114 14.5497 23.019C14.5853 23.0396 14.6233 23.0544 14.6621 23.0679C14.6749 23.0722 14.6896 23.0779 14.7049 23.0834L14.7213 23.089L14.7419 23.0954C14.7499 23.0976 14.7579 23.0995 14.7657 23.1008C14.781 23.1026 14.7961 23.1024 14.8115 23.1014C14.8843 23.0933 14.9557 23.0765 15.0281 23.0653C15.0621 23.0616 15.0948 23.0587 15.1289 23.058C15.1789 23.0591 15.2279 23.0639 15.2761 23.0779C15.3082 23.0872 15.3395 23.0998 15.3689 23.1157C15.4019 23.1335 15.4327 23.1549 15.4606 23.1799C15.5819 23.2882 15.626 23.4422 15.6478 23.5976C15.6578 23.6985 15.6586 23.7996 15.6663 23.9005C15.6894 24.1299 15.7208 24.3602 15.7884 24.5812C15.8309 24.7202 15.8878 24.856 15.9795 24.9698C16.0028 24.9961 16.0269 25.0217 16.0514 25.047L16.1158 25.1126L16.1724 25.1675L16.2298 25.2216L16.2529 25.243L16.2877 25.2751L16.3123 25.2973L16.3463 25.3279L16.3713 25.3501L16.4057 25.3804L16.4302 25.4018L16.4657 25.4326L16.4889 25.4525L16.5267 25.4848L16.5472 25.5022L16.5824 25.532L16.6317 25.5731L16.7148 25.6423L16.7356 25.6594C16.854 25.7573 16.9734 25.8545 17.0914 25.9533C17.222 26.0649 17.3506 26.1787 17.4822 26.289C17.5831 26.371 17.687 26.4511 17.7965 26.5215L17.8385 26.5479L17.8809 26.5732L17.924 26.5974L17.9454 26.6089L17.9673 26.6202L17.9894 26.6312L18.0116 26.6419L18.0339 26.6522L18.0565 26.6621L18.0792 26.6717L18.1021 26.681L18.1252 26.6897L18.1485 26.6982L18.1871 26.7112L18.226 26.7233L18.2417 26.7279L18.2651 26.7346L18.2821 26.7392L18.3044 26.745L18.3225 26.7496L18.3434 26.7547L18.363 26.7593L18.3816 26.7636L18.4039 26.7686L18.4455 26.7774C18.5684 26.8028 18.6926 26.8226 18.8148 26.8478C18.8697 26.8603 18.9241 26.8731 18.9785 26.8876C19.0145 26.8979 19.0503 26.9088 19.0859 26.9209L19.1036 26.9269L19.1344 26.9378L19.1651 26.9493L19.1955 26.9614L19.2169 26.9705L19.2417 26.9814L19.2553 26.9877L19.2662 26.9928L19.2847 27.0018L19.2906 27.0047L19.3143 27.0169C19.3231 27.0216 19.3319 27.0264 19.3405 27.0314L19.3618 27.0437L19.3706 27.049L19.3849 27.0578L19.3984 27.0664L19.4077 27.0726L19.4256 27.0848L19.4302 27.088L19.4522 27.1041L19.4694 27.1173L19.4844 27.1293C19.4936 27.1367 19.5026 27.1442 19.5115 27.1519L19.5193 27.1587L19.529 27.1674L19.5434 27.1802L19.5513 27.1875L19.5602 27.196L19.5721 27.2073L19.5825 27.2173L19.5902 27.225L19.6002 27.2351L19.6129 27.2478L19.6278 27.2633L19.6426 27.279L19.6549 27.2922L19.6815 27.3214L19.7007 27.3429C19.7646 27.4145 19.8265 27.4884 19.8921 27.558C19.918 27.584 19.9445 27.6089 19.9724 27.6328C20.0188 27.6702 20.0687 27.7059 20.1255 27.7259C20.1798 27.745 20.2386 27.75 20.2958 27.7505L20.3356 27.7501L20.3681 27.7488L20.4008 27.7468L20.4335 27.7441L20.4664 27.7409L20.4991 27.7373L20.5651 27.7295C20.6252 27.7224 20.6853 27.7152 20.7454 27.7077L20.8174 27.6985L20.8787 27.6902C21.0527 27.6664 21.2261 27.6372 21.3973 27.5984C21.4173 27.5938 21.4373 27.5891 21.4572 27.5843L21.4957 27.5747L21.526 27.5669L21.5619 27.5573L21.5982 27.5472L21.6344 27.5366L21.6696 27.5258L21.7066 27.5139L21.7434 27.5014L21.7598 27.4957L21.7801 27.4884L21.7963 27.4825L21.8166 27.4749L21.8325 27.4687L21.853 27.4606L21.8686 27.4544L21.8893 27.4457L21.9043 27.4394L21.9258 27.43L21.9398 27.4237L21.975 27.4074L22.01 27.3905C22.1695 27.3075 22.3212 27.2106 22.4804 27.127C22.565 27.0841 22.6515 27.0449 22.741 27.0144L22.7592 27.0083L22.7881 26.9992L22.8172 26.9906L22.8466 26.9829L22.8761 26.9759L22.9068 26.9695C22.9164 26.9676 22.9262 26.9658 22.9359 26.9642L22.9604 26.9604L22.9853 26.9571L23.0104 26.9544L23.0254 26.953L23.0356 26.9522L23.0581 26.9508C23.0771 26.9498 23.0961 26.9492 23.1152 26.9492H23.1174L23.138 26.9494L23.1638 26.9502L23.1792 26.951L23.1896 26.9517L23.2121 26.9535C23.2316 26.9552 23.251 26.9575 23.2703 26.9604L23.2924 26.9639L23.3178 26.9686L23.3431 26.974L23.3638 26.9791C23.3835 26.984 23.4031 26.9896 23.4223 26.996C23.5265 27.0302 23.6226 27.0842 23.7002 27.1617C23.7409 27.2023 23.7757 27.2487 23.8042 27.2987C23.839 27.3597 23.8639 27.4242 23.8826 27.4909L23.8868 27.5059L23.8918 27.5252C23.8942 27.5346 23.8964 27.5441 23.8985 27.5536C23.9014 27.5663 23.9041 27.5791 23.9067 27.5918L23.913 27.6241L23.9153 27.6373L23.9187 27.6576L23.9233 27.6864L23.9293 27.7263L23.9384 27.7922L23.9421 27.8199L23.9508 27.8833L23.9557 27.9174L23.9591 27.9403L23.9611 27.9525L23.9678 27.9923C23.9758 28.0307 23.9847 28.0684 23.9953 28.1062L24.0021 28.1265L24.0094 28.1466L24.0172 28.1664L24.0255 28.186L24.0343 28.2054L24.0435 28.2245L24.0532 28.2434L24.0635 28.262L24.0741 28.2803L24.0853 28.2983L24.097 28.316L24.1092 28.3334L24.1219 28.3504L24.1352 28.3671L24.1489 28.3834L24.1638 28.4C24.2035 28.4431 24.2484 28.48 24.2944 28.5161C24.3987 28.5933 24.5075 28.6643 24.6121 28.7411L24.6417 28.7649L24.6707 28.7893L24.6852 28.8018C24.7069 28.8205 24.7282 28.8395 24.7498 28.8583L24.7585 28.8658L24.7872 28.8904L24.8157 28.9138L24.8446 28.9363C24.866 28.9512 24.8874 28.9656 24.9118 28.9752C24.9397 28.9847 24.9702 28.9879 24.9993 28.9917L25.0208 28.9942L25.0424 28.9963L25.0639 28.998L25.0852 28.9992L25.1063 29L25.1251 29.0004L25.1646 29.0006L25.1795 29.0004C25.3945 28.9958 25.6069 28.9505 25.8197 28.924C25.886 28.9173 25.8857 28.9174 25.9524 28.9125C25.9755 28.9113 25.9986 28.9104 26.0217 28.9096L26.0347 28.9091C26.057 28.9084 26.0793 28.9078 26.1016 28.9075L26.1382 28.9069L26.1837 28.9067C26.207 28.9067 26.2306 28.9069 26.2539 28.9073L26.2656 28.9076C26.2885 28.908 26.3114 28.9086 26.3342 28.9093L26.3435 28.9096C26.3919 28.9113 26.4403 28.9138 26.4886 28.9171L26.4942 28.9174C26.5191 28.9191 26.5439 28.921 26.5687 28.9231C26.6106 28.9267 26.6526 28.9308 26.6945 28.9355C26.8425 28.9522 26.994 28.9705 27.1337 29.0248L27.1679 29.0387L27.2014 29.0538L27.2148 29.0603L27.2239 29.0646L27.2345 29.0699L27.255 29.0805L27.2669 29.0868L27.2857 29.0972L27.2991 29.1046L27.316 29.1144L27.3308 29.1231L27.346 29.1322L27.3622 29.1421L27.3758 29.1506L27.4053 29.1693L27.4369 29.1898L27.455 29.2015L27.5168 29.2423L27.5796 29.2834L27.6096 29.3025L27.64 29.3214L27.6696 29.338L27.7008 29.3545C27.7189 29.364 27.7373 29.3729 27.7561 29.3812C27.7983 29.3981 27.8422 29.4058 27.887 29.4122C27.9786 29.4225 28.0705 29.4271 28.162 29.4382C28.2141 29.4463 28.2652 29.4564 28.3151 29.4712L28.3339 29.4769L28.3435 29.48L28.3617 29.4864L28.3638 29.4872C28.3723 29.4903 28.3809 29.4936 28.3893 29.4972C28.476 29.5329 28.556 29.5828 28.641 29.6223C28.6596 29.6302 28.6781 29.6373 28.6973 29.6433C28.7084 29.646 28.7191 29.6486 28.7304 29.6498C28.7545 29.6512 28.7786 29.6515 28.8027 29.6513L28.875 29.6503C28.9575 29.6467 29.0396 29.6405 29.1217 29.6329C29.0953 29.2538 29.1233 28.8709 29.197 28.4981C29.2 28.4827 29.2031 28.4675 29.2063 28.4522L29.2151 28.4114L29.2248 28.3682L29.2294 28.3487C29.2448 28.2833 29.2617 28.2184 29.2805 28.1539C29.3103 28.0518 29.3432 27.9512 29.3911 27.8559C29.4945 27.65 29.6479 27.4747 29.8021 27.3056C29.8523 27.2505 29.903 27.1957 29.9529 27.1402C29.9746 27.116 29.9949 27.0905 30.0188 27.0683C30.0303 27.059 30.0419 27.0514 30.0549 27.0445C30.1294 27.0109 30.2124 27.0233 30.2899 27.0391L30.2955 27.0402C30.3846 27.0607 30.4718 27.0889 30.5611 27.1087C30.5912 27.1146 30.6252 27.1214 30.6581 27.121L30.6691 27.1207C30.6908 27.1193 30.7119 27.1144 30.7307 27.1034C30.7609 27.0858 30.7861 27.0573 30.8057 27.0287C30.8511 26.9628 30.8755 26.8779 30.8685 26.7978C30.8654 26.7625 30.8556 26.726 30.8331 26.6978C30.8196 26.6807 30.803 26.6711 30.7844 26.6601C30.735 26.6352 30.684 26.6155 30.6325 26.5951C30.5973 26.581 30.5625 26.5665 30.5278 26.5512C30.4944 26.5351 30.4625 26.5181 30.4307 26.4987C30.399 26.4769 30.3686 26.4529 30.3466 26.421C30.3118 26.371 30.3012 26.3084 30.2926 26.2494C30.2803 26.1472 30.2771 26.0442 30.2696 25.9416L30.2675 25.9156L30.2648 25.8835L30.2603 25.8392C30.2463 25.7365 30.2253 25.6348 30.1808 25.5406L30.1721 25.5231L30.1692 25.5175L30.163 25.5058L30.1593 25.4993L30.1532 25.4888L30.1493 25.4821L30.143 25.4719L30.1389 25.4656L30.132 25.4549L30.1282 25.4493L30.1191 25.4363L30.1171 25.4335L30.1057 25.418L30.1021 25.4134L30.0938 25.4029L30.089 25.397L30.0815 25.3879L30.0763 25.3818L30.0688 25.3731L30.0635 25.3671L30.0588 25.362L30.0368 25.3386L30.0357 25.3375L30.0128 25.3149L30.0103 25.3125L29.9867 25.2907L29.983 25.2874L29.9687 25.2749L29.9513 25.2602L29.938 25.2492L29.9211 25.2357L29.9068 25.2245L29.8903 25.212L29.8753 25.2008L29.8602 25.1898C29.8353 25.1718 29.8099 25.1544 29.7844 25.1375L29.7775 25.1329C29.7544 25.1176 29.7314 25.1028 29.7085 25.0882C29.5754 25.0061 29.4405 24.9268 29.3094 24.8416C29.2399 24.795 29.1719 24.7463 29.1069 24.6941L29.104 24.6918L29.098 24.6869L29.0843 24.6758L29.0757 24.6686L29.0704 24.6642L29.0656 24.6602L29.0576 24.6534L29.0437 24.6414L29.0373 24.6359L29.0349 24.6337C29.0249 24.6249 29.0149 24.6159 29.005 24.607L29.0041 24.6061L28.9799 24.5833L28.9762 24.5797L28.9733 24.577L28.9672 24.571L28.9549 24.5589L28.9475 24.5513L28.9424 24.5463L28.9376 24.5414L28.9304 24.5339L28.9184 24.5212L28.9122 24.5147L28.9098 24.512C28.9007 24.5022 28.8917 24.4923 28.883 24.4822C28.7948 24.3812 28.7183 24.2691 28.6599 24.1483C28.6544 24.1368 28.649 24.1253 28.6439 24.1138L28.6429 24.1117L28.6425 24.1108C28.6377 24.0997 28.6329 24.0886 28.6284 24.0775L28.6272 24.0748L28.6265 24.0731C28.6221 24.0621 28.6177 24.0511 28.6136 24.04L28.6127 24.0377L28.612 24.0356L28.6095 24.0289L28.6046 24.0149L28.5994 24.0003L28.5977 23.9948L28.5954 23.9885L28.591 23.9741L28.5872 23.9626L28.5855 23.9566L28.5827 23.9478L28.5786 23.9328L28.5763 23.9247L28.5748 23.919L28.5713 23.9068L28.5674 23.8909L28.5663 23.8866L28.5654 23.8826L28.5612 23.8656L28.5574 23.8482L28.5522 23.8241C28.4851 23.4914 28.5286 23.138 28.5832 22.8051C28.5974 22.7183 28.6042 22.6829 28.6221 22.5828C28.6273 22.5577 28.6334 22.5331 28.6406 22.5085C28.6889 22.3643 28.7763 22.2417 28.8761 22.1282C28.984 22.0054 29.104 21.8937 29.2157 21.7746C29.2496 21.7369 29.2494 21.7373 29.2821 21.699C29.3776 21.5791 29.4719 21.434 29.4282 21.2736C29.4184 21.2373 29.4042 21.2027 29.3853 21.1703C29.3619 21.1305 29.332 21.0947 29.298 21.0635C29.2472 21.017 29.1879 20.9805 29.1259 20.9511C29.1159 20.9464 29.1059 20.9418 29.0958 20.9374L29.0717 20.9274L29.0484 20.9181L29.0426 20.9159L29.0215 20.9082L29.013 20.9052L28.9933 20.8985L28.9831 20.8952L28.9643 20.8894L28.953 20.886L28.9349 20.8808L28.9225 20.8774L28.9049 20.8728L28.8754 20.8655L28.8455 20.8587L28.8318 20.8558L28.8145 20.8523L28.8007 20.8496L28.7833 20.8464L28.7695 20.8439L28.7519 20.841L28.7385 20.8387L28.7204 20.836L28.7074 20.834L28.6885 20.8313L28.6763 20.8296L28.6145 20.8221L28.5742 20.8179L28.5609 20.8167L28.5338 20.8142L28.4933 20.8111L28.4763 20.81L28.4527 20.8085L28.4354 20.8075L28.4121 20.8064L28.3945 20.8056L28.3713 20.8048L28.3536 20.8042L28.3305 20.8037L28.3129 20.8033L28.2895 20.803L28.2721 20.8028H28.2327L28.21 20.8031L28.1933 20.8033L28.1536 20.8042L28.1268 20.805L28.1143 20.8054L28.0857 20.8065L28.0758 20.8069L28.0445 20.8085L28.0384 20.8088L28.0034 20.8109L27.9767 20.8126C27.9626 20.8136 27.9484 20.8146 27.9343 20.8157L27.9191 20.8171C27.8694 20.4839 27.8305 20.149 27.8017 19.8133C27.7721 19.4695 27.7526 19.1243 27.7528 18.7792C27.7529 18.7264 27.7535 18.6736 27.7547 18.6208L27.756 18.5666L27.7586 18.4957L27.7595 18.4746L27.7608 18.4449L27.7618 18.4249L27.7627 18.4089L27.7638 18.3868L27.7657 18.3541L27.7673 18.3288L27.7709 18.2779C27.7725 18.2561 27.7742 18.2344 27.776 18.2127C27.7805 18.16 27.7865 18.1074 27.7932 18.0549C27.797 18.0261 27.8016 17.9988 27.8027 17.9699C27.8022 17.9533 27.8005 17.9377 27.7976 17.9213C27.7623 17.7814 27.6272 17.6934 27.5132 17.6205C27.4891 17.6051 27.465 17.59 27.4408 17.5748C27.3928 17.5444 27.3451 17.5143 27.2981 17.4825C27.2648 17.4588 27.2651 17.459 27.2327 17.4344C27.2256 17.4285 27.2185 17.4226 27.2114 17.4164L27.209 17.4144L27.2049 17.4107L27.1951 17.4022L27.19 17.3974L27.1857 17.3936L27.1787 17.387L27.1769 17.3853L27.1762 17.3847C27.1709 17.3795 27.1656 17.3744 27.1605 17.369L27.1593 17.3679L27.158 17.3664C27.151 17.3591 27.1443 17.3517 27.1378 17.344L27.1346 17.3402L27.1339 17.3394L27.132 17.3372L27.1287 17.3329L27.1269 17.3305L27.1256 17.3288L27.1226 17.3249L27.1203 17.3217L27.1196 17.3207L27.118 17.3185C27.1015 17.2954 27.088 17.2704 27.0788 17.2427C27.0568 17.1767 27.0687 17.1066 27.0868 17.0409C27.1306 16.8813 27.2246 16.7367 27.3199 16.6037C27.3619 16.5451 27.4059 16.4879 27.4505 16.4313C27.4981 16.371 27.5427 16.3166 27.5922 16.2558C27.6724 16.1572 27.7528 16.0587 27.8311 15.9586C27.8762 15.8994 27.9202 15.8397 27.9632 15.779C28.0622 15.6319 28.1586 15.4766 28.204 15.3033C28.2518 15.1202 28.2759 14.9319 28.2831 14.7429L28.2849 14.6806L28.2851 14.6603L28.2855 14.6181L28.2854 14.5941L28.2851 14.5554L28.2846 14.5302L28.2836 14.4921L28.2827 14.467L28.2809 14.4279L28.2796 14.4042L28.2768 14.3605L28.2754 14.3416L28.2704 14.28L28.2686 14.2629L28.2641 14.218L28.2611 14.1926L28.2567 14.1561L28.253 14.1283L28.2482 14.0944L28.2439 14.0652L28.2388 14.0331L28.2339 14.0029L28.2284 13.9723L28.2227 13.9411L28.2174 13.9136C28.2116 13.8838 28.2054 13.8541 28.1988 13.8245C28.1887 13.7793 28.1777 13.7342 28.1659 13.6893C28.1186 13.5099 28.0594 13.3301 27.9539 13.1757C27.828 12.9911 27.6513 12.8473 27.4597 12.7352C27.4036 12.7024 27.3459 12.6722 27.2872 12.6442C27.2549 12.6288 27.2226 12.6133 27.1887 12.6019C27.139 12.5852 27.0875 12.5757 27.0358 12.5675C26.9043 12.5505 26.7719 12.5438 26.6401 12.5291C26.5498 12.5162 26.4352 12.5044 26.371 12.4307C26.3369 12.3914 26.3179 12.3419 26.301 12.2934C26.2763 12.2129 26.2564 12.1312 26.2311 12.0508C26.2111 11.9948 26.1877 11.9371 26.1433 11.8958L26.1342 11.8878L26.131 11.8853L26.1246 11.8806L26.1207 11.878L26.1147 11.874L26.1104 11.8716L26.1043 11.8682L26.0999 11.8659L26.0936 11.863L26.0892 11.8609L26.0824 11.8582L26.0782 11.8565L26.0707 11.8539L26.067 11.8526L26.0558 11.8492L26.0529 11.8484L26.0445 11.8462L26.027 11.8423L26.0127 11.8397L26.0031 11.838L25.9888 11.8358L25.9788 11.8344L25.9564 11.8315C25.8651 11.8198 25.7727 11.8162 25.6807 11.8145C25.3873 11.8089 25.0934 11.8231 24.8004 11.8434L24.6614 11.8534L24.5076 11.8651L24.4515 11.8699C24.4344 11.8412 24.4163 11.8135 24.3979 11.7857C24.3625 11.7351 24.3257 11.6862 24.2875 11.6377C24.1453 11.4648 23.9832 11.3089 23.7983 11.1817C23.719 11.1272 23.6358 11.0744 23.5473 11.0358L23.5264 11.0272L23.5199 11.0245L23.5051 11.0188L23.498 11.0162L23.4826 11.0107L23.4769 11.0087L23.4562 11.0018L23.4517 11.0004C23.3803 10.978 23.3066 10.9629 23.2329 10.9517C23.0817 10.9288 22.9281 10.9225 22.7754 10.9231C22.5465 10.924 22.3181 10.9413 22.0904 10.9654L22.0608 10.9686L21.9682 10.979L21.8449 10.9936C21.7303 11.0077 21.6159 11.0232 21.501 11.036C21.4537 11.0413 21.4068 11.0449 21.3598 11.0518C21.3296 11.0574 21.3001 11.0641 21.2705 11.072C21.0699 11.1327 20.8973 11.2513 20.7355 11.382C20.568 11.5173 20.4108 11.6649 20.2458 11.8033C20.1907 11.8481 20.1909 11.848 20.1349 11.8917C19.9902 11.9994 19.8414 12.0947 19.6694 12.152L19.6388 12.1611L19.6089 12.1689L19.6087 12.1761C19.6042 12.2935 19.5923 12.4147 19.5665 12.5321C19.5608 12.5821 19.5549 12.632 19.5489 12.6819C19.5388 12.7555 19.5291 12.829 19.5161 12.9022C19.5074 12.9513 19.4975 13.0002 19.4856 13.0486C19.4749 13.092 19.4626 13.1349 19.4475 13.177C19.4263 13.236 19.3988 13.2952 19.3611 13.3459L19.3547 13.3545L19.3494 13.3609L19.3484 13.3623L19.3467 13.3642L19.3407 13.3716L19.3366 13.3761L19.3348 13.378L19.3316 13.3814L19.3256 13.3879L19.3225 13.391L19.3206 13.393L19.3158 13.3975L19.3098 13.4034L19.3061 13.4066L19.3048 13.4078C19.3002 13.412 19.2954 13.416 19.2904 13.4198L19.2896 13.4206L19.2885 13.4213C19.2837 13.4252 19.2787 13.4288 19.2735 13.4324L19.2659 13.4375L19.265 13.438L19.2641 13.4387L19.2596 13.4415L19.2564 13.4434L19.2552 13.4442L19.2495 13.4474L19.2466 13.4491L19.2365 13.4544C19.2112 13.4672 19.1843 13.4766 19.1567 13.4827C19.1384 13.4869 19.1207 13.4897 19.1034 13.4904L19.0932 13.4906C19.0591 13.4903 19.027 13.4811 18.9962 13.457C18.9624 13.4306 18.9357 13.3945 18.9131 13.3584C18.9025 13.3417 18.8925 13.3247 18.8825 13.3077C18.8004 13.3407 18.7155 13.3665 18.6293 13.3866C18.4238 13.4344 18.213 13.4483 18.0026 13.4538C17.8543 13.4561 17.7061 13.4541 17.5577 13.4528C17.4304 13.4516 17.3031 13.4547 17.1758 13.451C17.0744 13.4464 16.9738 13.4368 16.8729 13.425C16.7987 13.4149 16.7247 13.4036 16.6508 13.3918C16.6401 13.3927 16.6295 13.3935 16.6189 13.3943C16.5851 13.3966 16.5512 13.3984 16.5172 13.3992L16.4834 13.3997C16.348 13.4 16.2139 13.3828 16.0887 13.3252C16.0704 13.3169 16.0526 13.3079 16.035 13.2984C15.9911 13.2936 15.9472 13.29 15.9031 13.2885C15.8004 13.2851 15.6975 13.2929 15.5948 13.2935C15.5496 13.2926 15.5053 13.2903 15.4604 13.2861C15.4051 13.2786 15.3503 13.2675 15.2996 13.2437C15.2542 13.2224 15.214 13.1911 15.1764 13.1584C15.1233 13.1121 15.0746 13.0603 15.0286 13.0071C14.9258 12.8885 14.8292 12.7648 14.7249 12.6475C14.694 12.614 14.6626 12.5814 14.6301 12.5494C14.53 12.4566 14.4187 12.3698 14.2783 12.3584L14.2605 12.3579L14.1682 12.33C14.1448 12.3321 14.1215 12.3341 14.098 12.3359L14.0882 12.3367L14.048 12.3395C14.021 12.3407 13.9939 12.3416 13.9669 12.3419H13.9398C13.9038 12.3416 13.8677 12.3398 13.8318 12.3353C13.7739 12.3282 13.7163 12.3148 13.6633 12.29C13.5859 12.2537 13.5293 12.1946 13.4866 12.1247L13.2143 12.0427C13.1667 11.9308 13.1109 11.8226 13.063 11.7109C13.0448 11.666 13.0275 11.6209 13.014 11.5744C12.9875 11.4827 12.9722 11.3867 12.9583 11.2925C12.9325 11.1192 12.918 10.9316 12.9617 10.7587ZM14.8093 27.4394L15.525 29.1261C15.5237 29.0907 15.5225 29.0553 15.5215 29.0199C15.5191 28.9321 15.5159 28.8445 15.5116 28.7568C15.5068 28.6865 15.5012 28.6168 15.4928 28.5468C15.475 28.4187 15.4491 28.2916 15.3984 28.172C15.3351 28.0224 15.2345 27.8869 15.1334 27.7611C15.0408 27.6457 14.939 27.5259 14.8147 27.4429L14.8093 27.4394ZM14.3328 15.1755C15.3357 15.6094 16.1422 16.3829 16.3519 17.8348C16.5402 17.8451 16.704 17.9101 16.857 18.029C16.7625 18.2242 16.6863 18.4278 16.6295 18.6375H15.9945C15.8573 19.2387 15.8573 19.8631 15.9945 20.4643H16.6295C16.7076 20.7524 16.8222 21.0293 16.9708 21.2882L16.5218 21.7373C16.8499 22.2594 17.2915 22.7009 17.8136 23.0291L18.2626 22.5801C18.5216 22.7286 18.7984 22.8433 19.0866 22.9213V23.5564C19.6878 23.6935 20.3122 23.6935 20.9134 23.5564V22.9213C21.2015 22.8433 21.4784 22.7286 21.7373 22.5801L22.748 23.5908C21.9648 24.1248 21.0186 24.4372 20 24.4372C17.3031 24.4372 15.1137 22.2477 15.1137 19.5509C15.1137 19.1775 15.147 18.7889 15.1649 18.3794C15.1805 18.0213 15.0623 17.4172 14.736 17.0908C14.1639 16.5181 13.584 16.1385 13.584 16.1385L14.3328 15.1755ZM25.6672 23.9262C24.6643 23.4924 23.8578 22.7189 23.648 21.267C23.4598 21.2566 23.296 21.1917 23.143 21.0728C23.2375 20.8776 23.3137 20.674 23.3705 20.4643H24.0055C24.1426 19.8631 24.1426 19.2387 24.0055 18.6375H23.3705C23.2924 18.3494 23.1777 18.0725 23.0292 17.8135L23.4782 17.3645C23.15 16.8424 22.7085 16.4009 22.1863 16.0727L21.7373 16.5217C21.4784 16.3731 21.2015 16.2585 20.9134 16.1804V15.5454C20.3122 15.4082 19.6878 15.4082 19.0866 15.5454V16.1804C18.7984 16.2585 18.5216 16.3731 18.2626 16.5217L17.252 15.511C18.0352 14.9769 18.9814 14.6646 20 14.6646C22.6968 14.6646 24.8863 16.854 24.8863 19.5509C24.8863 19.9242 24.853 20.3129 24.8351 20.7224C24.8194 21.0805 24.9376 21.6846 25.2639 22.011C25.8361 22.5836 26.416 22.9633 26.416 22.9633L25.6672 23.9262ZM29.5436 22.0247C29.4382 22.1427 29.3203 22.2516 29.215 22.3642C29.1855 22.397 29.1568 22.4301 29.1291 22.4645C29.0901 22.5163 29.0525 22.569 29.0317 22.631C29.0157 22.6861 29.0084 22.7503 28.9992 22.8026C28.9904 22.8531 28.9849 22.8884 28.9768 22.9389C28.9679 22.9982 28.959 23.0589 28.9513 23.1201L29.5436 22.0247ZM20.6657 16.2041C20.2262 16.1166 19.7738 16.1166 19.3343 16.2041L19.3506 16.724C19.0353 16.7964 18.7344 16.9211 18.4603 17.0927L18.1042 16.7136C17.7316 16.9626 17.4117 17.2825 17.1626 17.6551L17.5419 18.0112C17.3702 18.2853 17.2455 18.5862 17.1731 18.9015L16.6531 18.8852C16.5658 19.3247 16.5658 19.7771 16.6531 20.2166L17.1731 20.2003C17.2455 20.5156 17.3702 20.8165 17.5419 21.0906L17.1626 21.4467C17.4117 21.8193 17.7316 22.1392 18.1042 22.3882L18.4603 22.009C18.7344 22.1807 19.0353 22.3054 19.3506 22.3778L19.3343 22.8977C19.7738 22.9851 20.2262 22.9851 20.6657 22.8977L20.6494 22.3778C20.9646 22.3054 21.2655 22.1807 21.5397 22.009L21.8958 22.3882C22.2684 22.1392 22.5883 21.8193 22.8373 21.4467L22.4581 21.0906C22.6298 20.8165 22.7545 20.5156 22.8269 20.2003L23.3468 20.2166C23.4342 19.7771 23.4342 19.3247 23.3468 18.8852L22.8269 18.9015C22.7545 18.5862 22.6298 18.2853 22.4581 18.0112L22.8373 17.6551C22.5883 17.2825 22.2684 16.9626 21.8958 16.7136L21.5397 17.0927C21.2655 16.9211 20.9646 16.7964 20.6494 16.724L20.6657 16.2041ZM19.8521 17.6912V17.3829H20.1479V17.6901C20.4884 17.6262 20.6419 17.3636 20.6375 17.3853C20.5816 17.6491 20.4518 17.9347 20.1479 18.0058V18.6388C20.756 18.5698 21.0291 18.1084 21.0217 18.1445C20.9269 18.5854 20.6991 19.0649 20.1479 19.1402V19.7156C20.8955 19.6493 21.2309 19.1187 21.2219 19.1597C21.1069 19.6602 20.8282 20.2052 20.1479 20.2773V20.9726C21.1035 20.9033 21.5317 20.2049 21.5204 20.2581C21.3674 20.9438 20.9814 21.6947 20 21.6984C19.0163 21.7014 18.6308 20.9452 18.4849 20.2551C18.4756 20.2053 18.8971 20.9083 19.8521 20.9733V20.2786C19.167 20.2124 18.888 19.6623 18.778 19.1574C18.7706 19.1189 19.102 19.6552 19.8521 19.7166V19.1416C19.2969 19.0713 19.0689 18.5872 18.9783 18.1424C18.9721 18.1085 19.242 18.5749 19.8521 18.6398V18.0074C19.5458 17.9387 19.4159 17.6503 19.3625 17.384C19.3588 17.3636 19.5106 17.6292 19.8521 17.6912ZM11.6951 20.1003L11.8051 20.3596C11.803 20.3248 11.7993 20.2901 11.7928 20.2558C11.7865 20.2224 11.7781 20.1869 11.7593 20.1581C11.7426 20.1355 11.7181 20.1176 11.6951 20.1003ZM15.4971 12.8773C15.5095 12.8792 15.5219 12.8802 15.5346 12.8815C15.6441 12.8872 15.7538 12.8791 15.8635 12.878C15.9174 12.8789 15.917 12.8789 15.9707 12.8816C16.2651 12.9078 16.5541 12.9638 16.8461 13.0078C16.9237 13.0184 17.0011 13.0274 17.0791 13.0348C17.1414 13.0393 17.2035 13.0422 17.266 13.043C17.5087 13.0418 17.7514 13.0478 17.9941 13.044C18.1594 13.0397 18.3251 13.0306 18.4876 12.998C18.5884 12.9777 18.6877 12.9484 18.7812 12.9053C18.879 12.8602 18.983 12.7994 19.0508 12.7137C19.1031 12.6475 19.1348 12.5671 19.1561 12.4861C19.1897 12.358 19.1993 12.2239 19.2008 12.0919C19.2016 12.0198 19.1996 11.9476 19.1958 11.8756C19.192 11.7998 19.1857 11.7241 19.1791 11.6485C19.157 11.4194 19.1279 11.1912 19.108 10.962C19.0951 10.7819 19.0931 10.6014 19.0832 10.4212C19.0789 10.3607 19.0736 10.3007 19.0668 10.2404C19.0548 10.1557 19.0408 10.0714 19.0132 9.9902C19.0043 9.96422 18.9961 9.92971 18.9777 9.90848C18.9643 9.89504 18.9488 9.88455 18.933 9.87414C18.9144 9.86283 18.8957 9.85226 18.8765 9.84201C18.7808 9.79439 18.6831 9.75111 18.588 9.70226C18.4668 9.63677 18.3516 9.56169 18.2562 9.46095C18.1692 9.36907 18.1052 9.25899 18.0443 9.14882C17.9749 9.0235 17.9158 8.89268 17.8708 8.75653C17.8298 8.6326 17.8018 8.5058 17.7773 8.37785L17.7741 8.35047C17.7598 8.35179 17.7453 8.3531 17.7309 8.35441L17.7035 8.35695L17.6961 8.3576L17.6769 8.35941L17.6694 8.35998L17.6535 8.36129L17.6458 8.36195L17.6132 8.36424C17.5283 8.36711 17.4433 8.36564 17.3583 8.36621C17.1721 8.36752 17.1199 8.36892 16.9336 8.37211L16.8639 8.37383L16.8531 8.37416L16.8456 8.37433L16.7244 8.37785L16.6858 8.37908L16.6695 8.37957L16.6631 8.37982C16.6363 8.38064 16.6095 8.38154 16.5827 8.38244L16.5815 8.38252L16.5746 8.38277L16.5152 8.38482L16.5013 8.38539L16.4936 8.38564L16.4176 8.38851L16.4056 8.38892L16.3954 8.38933L16.3758 8.39006L16.3176 8.39236L16.3156 8.39244C16.2869 8.39359 16.2583 8.39474 16.2296 8.39596C16.0925 8.40154 15.9553 8.40752 15.8181 8.41342C15.5684 8.42023 15.3187 8.41047 15.069 8.41654C14.9685 8.42006 14.8668 8.42482 14.7661 8.43687C14.7451 8.43933 14.7241 8.44219 14.7031 8.44539L14.7016 8.44555L14.7003 8.4458L14.6916 8.44719L14.6856 8.4481L14.6846 8.44826L14.6829 8.44859L14.676 8.44973L14.6696 8.4508L14.6678 8.45113L14.6656 8.45154L14.6596 8.4526L14.6536 8.45367L14.651 8.45416L14.6483 8.45465L14.6431 8.45564L14.6376 8.4567L14.6343 8.45736L14.631 8.45801L14.6217 8.4599L14.6176 8.4608L14.6137 8.46154L14.61 8.46236L14.6058 8.46326L14.6009 8.46441L14.5965 8.46531L14.5934 8.46605L14.5899 8.46687L14.5842 8.46818L14.5794 8.46933L14.5769 8.4699L14.5742 8.47055L14.5674 8.47227L14.5624 8.47351L14.5605 8.474L14.5583 8.47449L14.5506 8.47654L14.5441 8.47826L14.5427 8.47867L14.5332 8.48129L14.5283 8.4826C14.5229 8.48416 14.5169 8.48588 14.5114 8.48752C14.4574 8.50367 14.4038 8.52383 14.3555 8.55309C14.3395 8.56277 14.3177 8.57367 14.3071 8.59006C14.2984 8.60514 14.2955 8.62334 14.2925 8.64031C14.2826 8.70932 14.2869 8.7794 14.2912 8.84875L14.2925 8.86465C14.2966 8.91629 14.3014 8.96792 14.306 9.01956C14.3114 9.07989 14.3166 9.14013 14.3206 9.20063C14.3214 9.21776 14.322 9.23497 14.3224 9.25218C14.328 9.44693 14.3127 9.64193 14.2351 9.82332C14.199 9.90791 14.1518 9.98791 14.0979 10.0624C14.0365 10.1474 13.9651 10.2235 13.8899 10.2963L13.8793 10.3061L13.8757 10.3094L13.8689 10.3156L13.8502 10.3326L13.8478 10.3347L13.8256 10.3544L13.804 10.3732L13.7925 10.3832L13.7826 10.3917L13.7689 10.4035L13.7223 10.4431C13.6578 10.4977 13.5932 10.5522 13.5313 10.6099C13.4699 10.6696 13.4072 10.7352 13.3734 10.8154C13.3322 10.9137 13.3416 11.0364 13.3519 11.1387C13.3582 11.202 13.3681 11.2649 13.3796 11.3275C13.389 11.3792 13.3979 11.4314 13.4143 11.4814C13.4355 11.5461 13.4652 11.6076 13.4939 11.6692L13.5104 11.7039L14.3264 11.9497L14.3006 11.9489C14.3401 11.9522 14.3397 11.9521 14.3789 11.9575C14.4165 11.9645 14.4162 11.9644 14.4533 11.9734C14.5104 11.99 14.5653 12.0101 14.6185 12.0369C14.7942 12.1257 14.9337 12.2618 15.0623 12.4092L15.0826 12.4325L15.1026 12.456L15.1222 12.4793L15.1411 12.5019L15.1573 12.5215C15.1789 12.5475 15.2003 12.5737 15.2218 12.5998L15.2562 12.6415L15.2865 12.6779L15.3052 12.6999L15.3254 12.7235L15.3441 12.7452L15.3617 12.7649C15.3887 12.7942 15.4161 12.8225 15.4456 12.8493C15.4543 12.8566 15.4666 12.8704 15.4782 12.8737C15.4846 12.8752 15.4908 12.8763 15.4971 12.8773ZM19.0477 0.350912C19.3632 0.335748 19.6807 0.328125 20 0.328125C20.3351 0.328125 20.669 0.336568 21.0001 0.353207L19.0477 0.350912Z" fill="#0A3D62"/>
</svg>
