<svg width="24" height="24" viewBox="0 0 24 24" fill="none" xmlns="http://www.w3.org/2000/svg">
<g id="Group">
<g id="Group_2">
<path id="Subtract" fill-rule="evenodd" clip-rule="evenodd" d="M24 12C24 18.6274 18.6274 24 12 24C5.37258 24 0 18.6274 0 12C0 5.37258 5.37258 0 12 0C18.6274 0 24 5.37258 24 12ZM12.4301 8.85894C11.263 9.34438 8.93026 10.3492 5.43203 11.8733C4.86395 12.0992 4.56639 12.3202 4.53929 12.5363C4.49349 12.9015 4.95089 13.0454 5.57372 13.2412C5.65839 13.2678 5.74611 13.2954 5.83604 13.3246C6.44875 13.5238 7.2729 13.7568 7.70139 13.7661C8.09003 13.7744 8.52381 13.6142 9.00273 13.2853C12.2712 11.079 13.9584 9.96383 14.0644 9.93979C14.1391 9.92282 14.2427 9.90154 14.3128 9.96388C14.383 10.0262 14.3761 10.1443 14.3687 10.176C14.3233 10.3692 12.5275 12.0388 11.5986 12.9023C11.3093 13.1713 11.1041 13.3621 11.0621 13.4057C10.9681 13.5034 10.8722 13.5958 10.78 13.6847C10.2108 14.2334 9.78399 14.6449 10.8037 15.3168C11.294 15.6399 11.6863 15.9071 12.0778 16.1737C12.5047 16.4644 12.9307 16.7545 13.4817 17.1157C13.6222 17.2078 13.7563 17.3034 13.887 17.3966C14.3842 17.751 14.8309 18.0694 15.3827 18.0186C15.7033 17.9892 16.0345 17.6876 16.2027 16.7884C16.6003 14.6631 17.3817 10.0585 17.5623 8.16097C17.586 7.91235 17.5847 7.53669 17.3715 7.36363C17.2277 7.24696 17.0057 7.22235 16.9065 7.22408C16.4552 7.23205 15.7627 7.47285 12.4301 8.85894Z" fill="#AFB5C0"/>
</g>
</g>
</svg>
