<svg width="24" height="25" viewBox="0 0 24 25" fill="none" xmlns="http://www.w3.org/2000/svg">
<path opacity="0.4" d="M12 22.5C17.5228 22.5 22 18.0228 22 12.5C22 6.97715 17.5228 2.5 12 2.5C6.47715 2.5 2 6.97715 2 12.5C2 18.0228 6.47715 22.5 12 22.5Z" fill="#22B364"/>
<path d="M10.5814 16.08C10.3814 16.08 10.1914 16 10.0514 15.86L7.22141 13.03C6.93141 12.74 6.93141 12.26 7.22141 11.97C7.51141 11.68 7.99141 11.68 8.28141 11.97L10.5814 14.27L15.7214 9.13001C16.0114 8.84001 16.4914 8.84001 16.7814 9.13001C17.0714 9.42001 17.0714 9.90001 16.7814 10.19L11.1114 15.86C10.9714 16 10.7814 16.08 10.5814 16.08Z" fill="#22B364"/>
</svg>
