<svg width="24" height="25" viewBox="0 0 24 25" fill="none" xmlns="http://www.w3.org/2000/svg">
<path opacity="0.4" d="M18.3514 20.18C17.8014 21.59 16.4614 22.5 14.9514 22.5H9.05145C7.53145 22.5 6.20144 21.59 5.65144 20.18C5.10144 18.76 5.48144 17.19 6.60144 16.17L10.6514 12.5H13.3614L17.4014 16.17C18.5214 17.19 18.8914 18.76 18.3514 20.18Z" fill="#0295DB"/>
<path d="M13.82 18.64H10.18C9.8 18.64 9.5 18.33 9.5 17.96C9.5 17.58 9.81 17.28 10.18 17.28H13.82C14.2 17.28 14.5 17.59 14.5 17.96C14.5 18.33 14.19 18.64 13.82 18.64Z" fill="#0295DB"/>
<path d="M18.3506 4.82C17.8006 3.41 16.4606 2.5 14.9506 2.5H9.05065C7.54065 2.5 6.20065 3.41 5.65065 4.82C5.11065 6.24 5.48065 7.81 6.61065 8.83L10.6506 12.5H13.3606L17.4006 8.83C18.5206 7.81 18.8906 6.24 18.3506 4.82ZM13.8206 7.73H10.1806C9.80065 7.73 9.50065 7.42 9.50065 7.05C9.50065 6.68 9.81065 6.37 10.1806 6.37H13.8206C14.2006 6.37 14.5006 6.68 14.5006 7.05C14.5006 7.42 14.1906 7.73 13.8206 7.73Z" fill="#0295DB"/>
</svg>
