<svg width="24" height="24" viewBox="0 0 24 24" fill="none" xmlns="http://www.w3.org/2000/svg">
<path d="M7.46027 19.3401H5.54022C2.60022 19.1301 1.28027 16.8701 1.28027 14.8601C1.28027 12.8501 2.60023 10.5801 5.49023 10.3801C5.90023 10.3401 6.26022 10.6601 6.29022 11.0801C6.32022 11.4901 6.01027 11.8501 5.59027 11.8801C3.65027 12.0201 2.78027 13.4801 2.78027 14.8701C2.78027 16.2601 3.65027 17.7201 5.59027 17.8601H7.46027C7.87027 17.8601 8.21027 18.2001 8.21027 18.6101C8.21027 19.0201 7.87027 19.3401 7.46027 19.3401Z" fill="#2C92F2"/>
<path d="M16.6699 19.34C16.6499 19.34 16.6399 19.34 16.6199 19.34C16.2099 19.34 15.8299 19 15.8299 18.59C15.8299 18.16 16.1499 17.84 16.5699 17.84C17.7999 17.84 18.8999 17.41 19.7599 16.64C21.3199 15.28 21.4199 13.32 20.9999 11.94C20.5799 10.57 19.4099 9 17.3699 8.75C17.0399 8.71 16.7799 8.46001 16.7199 8.13001C16.3199 5.73001 15.0299 4.07 13.0699 3.47C11.0499 2.84 8.68989 3.46 7.21988 5C5.78988 6.49 5.45989 8.58001 6.28989 10.88C6.42989 11.27 6.22994 11.7 5.83994 11.84C5.44994 11.98 5.01992 11.78 4.87992 11.39C3.86992 8.57 4.32993 5.87 6.13993 3.97C7.98993 2.03 10.9599 1.26 13.5099 2.04C15.8499 2.76 17.4999 4.69 18.0999 7.37C20.1399 7.83 21.7799 9.38001 22.4299 11.52C23.1399 13.85 22.4999 16.25 20.7499 17.77C19.6399 18.77 18.1899 19.34 16.6699 19.34Z" fill="#2C92F2"/>
<path fill-rule="evenodd" clip-rule="evenodd" d="M12 12.2798C9.65421 12.2798 7.75 14.184 7.75 16.5298C7.75 17.1611 7.88635 17.7489 8.13514 18.2631C8.13867 18.2704 8.14209 18.2778 8.14538 18.2852C8.21179 18.4346 8.28544 18.5734 8.36598 18.7023L8.37505 18.7172C9.10546 19.9487 10.4554 20.7798 12 20.7798C13.5446 20.7798 14.8945 19.9487 15.6249 18.7172L15.634 18.7023C15.7146 18.5734 15.7882 18.4346 15.8546 18.2852C15.8579 18.2778 15.8613 18.2704 15.8649 18.2631C16.1137 17.7489 16.25 17.1611 16.25 16.5298C16.25 14.184 14.3458 12.2798 12 12.2798ZM6.25 16.5298C6.25 13.3556 8.82579 10.7798 12 10.7798C15.1742 10.7798 17.75 13.3556 17.75 16.5298C17.75 17.3742 17.5681 18.1825 17.2204 18.9055C17.1292 19.1093 17.0261 19.3043 16.9107 19.4898C15.9201 21.1542 14.0923 22.2798 12 22.2798C9.90772 22.2798 8.07994 21.1542 7.08932 19.4898C6.97386 19.3043 6.87077 19.1093 6.77962 18.9055C6.43185 18.1825 6.25 17.3742 6.25 16.5298Z" fill="#2C92F2"/>
<path fill-rule="evenodd" clip-rule="evenodd" d="M11.8911 14C12.1673 14 12.3911 14.2239 12.3911 14.5V17.1883L12.9285 16.6508C13.1238 16.4556 13.4404 16.4556 13.6356 16.6508C13.8309 16.8461 13.8309 17.1627 13.6356 17.3579L12.2446 18.749C12.1508 18.8428 12.0237 18.8954 11.891 18.8954C11.7584 18.8954 11.6313 18.8428 11.5375 18.749L10.1464 17.3579C9.95118 17.1627 9.95118 16.8461 10.1464 16.6508C10.3417 16.4556 10.6583 16.4556 10.8536 16.6508L11.3911 17.1884V14.5C11.3911 14.2239 11.615 14 11.8911 14Z" fill="#2C92F2"/>
</svg>
