<svg width="24" height="24" viewBox="0 0 24 24" fill="none" xmlns="http://www.w3.org/2000/svg">
<path d="M16.3124 15.5564C17.008 15.5564 17.572 14.9924 17.572 14.2967C17.572 13.6011 17.008 13.0371 16.3124 13.0371C15.6167 13.0371 15.0527 13.6011 15.0527 14.2967C15.0527 14.9924 15.6167 15.5564 16.3124 15.5564Z" stroke="#2C92F2" stroke-width="1.2" stroke-miterlimit="2" stroke-linecap="round" stroke-linejoin="round"/>
<path fill-rule="evenodd" clip-rule="evenodd" d="M9.375 10.875C9.375 9.42638 10.5514 8.25 12 8.25C13.4486 8.25 14.625 9.42638 14.625 10.875C14.625 9.42638 15.8014 8.25 17.25 8.25C18.6986 8.25 19.875 9.42638 19.875 10.875C19.875 6.52875 16.3463 3 12 3C7.65375 3 4.125 6.52875 4.125 10.875C4.125 9.42638 5.30138 8.25 6.75 8.25C8.19862 8.25 9.375 9.42638 9.375 10.875Z" stroke="#2C92F2" stroke-width="1.2" stroke-miterlimit="2" stroke-linecap="round" stroke-linejoin="round"/>
<path d="M12 8.25V12" stroke="#2C92F2" stroke-width="1.2" stroke-miterlimit="2" stroke-linecap="round" stroke-linejoin="round"/>
<path d="M12.0003 16.026C12.8014 16.026 13.4508 15.3766 13.4508 14.5755C13.4508 13.7744 12.8014 13.125 12.0003 13.125C11.1992 13.125 10.5498 13.7744 10.5498 14.5755C10.5498 15.3766 11.1992 16.026 12.0003 16.026Z" stroke="#2C92F2" stroke-width="1.2" stroke-miterlimit="2" stroke-linecap="round" stroke-linejoin="round"/>
<path d="M7.68736 15.5564C8.38303 15.5564 8.94698 14.9924 8.94698 14.2967C8.94698 13.6011 8.38303 13.0371 7.68736 13.0371C6.99169 13.0371 6.42773 13.6011 6.42773 14.2967C6.42773 14.9924 6.99169 15.5564 7.68736 15.5564Z" stroke="#2C92F2" stroke-width="1.2" stroke-miterlimit="2" stroke-linecap="round" stroke-linejoin="round"/>
<path fill-rule="evenodd" clip-rule="evenodd" d="M12 17.0625C14.1731 17.0625 15.9375 18.8269 15.9375 21H8.0625C8.0625 18.8269 9.82687 17.0625 12 17.0625Z" stroke="#2C92F2" stroke-width="1.2" stroke-miterlimit="2" stroke-linecap="round" stroke-linejoin="round"/>
<path d="M15.1309 16.6651C15.4991 16.529 15.8974 16.4551 16.3125 16.4551C18.1999 16.4551 19.7317 17.987 19.7317 19.8743H17.5635" stroke="#2C92F2" stroke-width="1.2" stroke-miterlimit="2" stroke-linecap="round" stroke-linejoin="round"/>
<path d="M6.4368 19.8743H4.26855C4.26855 17.987 5.80043 16.4551 7.6878 16.4551C8.10293 16.4551 8.50118 16.529 8.86943 16.6651" stroke="#2C92F2" stroke-width="1.2" stroke-miterlimit="2" stroke-linecap="round" stroke-linejoin="round"/>
<path d="M9.37501 9.9375C9.37501 9.9375 8.59426 6.40575 12 3" stroke="#2C92F2" stroke-width="1.2" stroke-miterlimit="2" stroke-linecap="round" stroke-linejoin="round"/>
<path d="M14.5864 9.9375C14.5864 9.9375 15.1058 7.58887 13.4502 4.875" stroke="#2C92F2" stroke-width="1.2" stroke-miterlimit="2" stroke-linecap="round" stroke-linejoin="round"/>
</svg>
