<svg width="24" height="24" viewBox="0 0 24 24" fill="none" xmlns="http://www.w3.org/2000/svg">
<g opacity="0.4">
<path fill-rule="evenodd" clip-rule="evenodd" d="M2.96673 3.33369C3.70253 2.46516 4.83105 2 6.34286 2H17.3143C17.693 2 18 2.31294 18 2.69897C18 3.085 17.693 3.39794 17.3143 3.39794C16.6873 3.39794 16.1714 3.92376 16.1714 4.56289V20.4062C16.1714 21.7499 14.666 22.509 13.6141 21.713L13.6119 21.7113L12.0413 20.5129C11.9625 20.4511 11.8364 20.4547 11.7557 20.537L10.2197 22.1027C9.59537 22.7391 8.57606 22.7391 7.9517 22.1027L7.95024 22.1012L6.43398 20.5463V20.5463C6.34326 20.4543 6.2127 20.4498 6.12343 20.518L4.56265 21.7089L4.56077 21.7104C3.50186 22.5258 2 21.7514 2 20.4062V6.42681C2 5.30579 2.24716 4.18306 2.96673 3.33369ZM15.0759 3.39794H6.34286C5.11181 3.39794 4.41175 3.76688 4.0047 4.24736C3.58141 4.74701 3.37143 5.4882 3.37143 6.42681V20.4062C3.37143 20.6073 3.58665 20.7088 3.7345 20.5946L3.73766 20.5922L5.30057 19.3997C5.94256 18.9089 6.8362 18.9793 7.40373 19.5578L7.40519 19.5593L8.92144 21.1142V21.1142C9.01029 21.2042 9.16136 21.2045 9.24998 21.1142L10.786 19.5485C11.3441 18.9796 12.2393 18.9078 12.8734 19.4016L14.4316 20.5906L14.4324 20.5911C14.5872 20.7074 14.8 20.5907 14.8 20.4062V4.56289C14.8 4.14392 14.8996 3.74782 15.0759 3.39794Z" fill="#232730"/>
<path d="M6.34286 3.39794H15.0759C14.8996 3.74782 14.8 4.14392 14.8 4.56289V20.4062C14.8 20.5907 14.5872 20.7074 14.4324 20.5911L14.4316 20.5906L12.8734 19.4016C12.2393 18.9078 11.3441 18.9796 10.786 19.5485L9.24998 21.1142C9.16136 21.2045 9.01029 21.2042 8.92144 21.1142L7.40519 19.5593L7.40373 19.5578C6.8362 18.9793 5.94256 18.9089 5.30057 19.3997L3.73766 20.5922L3.7345 20.5946C3.58665 20.7088 3.37143 20.6073 3.37143 20.4062V6.42681C3.37143 5.4882 3.58141 4.74701 4.0047 4.24736C4.41175 3.76688 5.11181 3.39794 6.34286 3.39794Z" fill="#232730"/>
</g>
<g opacity="0.4">
<path fill-rule="evenodd" clip-rule="evenodd" d="M6.25 9.66003C6.25 8.32586 7.32572 7.25 8.65997 7.25C9.99422 7.25 11.0699 8.32586 11.0699 9.66003C11.0699 10.7129 10.3777 11.2686 9.92466 11.5782C9.73024 11.7126 9.60493 11.8182 9.52376 11.9271C9.45632 12.0175 9.40997 12.1221 9.40997 12.29V12.5C9.40997 12.9142 9.07419 13.25 8.65997 13.25C8.24576 13.25 7.90997 12.9142 7.90997 12.5V12.29C7.90997 11.2132 8.61865 10.6572 9.07386 10.3428L9.07702 10.3407C9.2622 10.2142 9.38336 10.111 9.4611 10.006C9.5262 9.91818 9.56995 9.81776 9.56995 9.66003C9.56995 9.15421 9.16572 8.75 8.65997 8.75C8.15422 8.75 7.75 9.15421 7.75 9.66003C7.75 10.0742 7.41421 10.41 7 10.41C6.58579 10.41 6.25 10.0742 6.25 9.66003Z" fill="#232730"/>
<path fill-rule="evenodd" clip-rule="evenodd" d="M7.90527 14.8901C7.90527 14.4759 8.24106 14.1401 8.65527 14.1401H8.66427C9.07849 14.1401 9.41427 14.4759 9.41427 14.8901C9.41427 15.3044 9.07849 15.6401 8.66427 15.6401H8.65527C8.24106 15.6401 7.90527 15.3044 7.90527 14.8901Z" fill="#232730"/>
</g>
<path d="M22 6.00008V8.42008C22 10.0001 21 11.0001 19.42 11.0001H16V4.01008C16 2.90008 16.91 1.99008 18.02 2.00008C19.11 2.01008 20.11 2.45008 20.83 3.17008C21.55 3.90008 22 4.90008 22 6.00008Z" fill="#232730"/>
</svg>
