<svg width="24" height="24" viewBox="0 0 24 24" fill="none" xmlns="http://www.w3.org/2000/svg">
<g opacity="0.4">
<path d="M2.69767 9.90698C2.31628 9.90698 2 9.5907 2 9.2093L2 6.88372C2 4.18605 4.19535 2 6.88372 2L9.2093 2C9.5907 2 9.90698 2.31628 9.90698 2.69767C9.90698 3.07907 9.5907 3.39535 9.2093 3.39535H6.88372C4.95814 3.39535 3.39535 4.95814 3.39535 6.88372V9.2093C3.39535 9.5907 3.07907 9.90698 2.69767 9.90698Z" fill="#2C92F2"/>
<path d="M21.3023 9.90698C20.9209 9.90698 20.6047 9.5907 20.6047 9.2093V6.88372C20.6047 4.95814 19.0419 3.39535 17.1163 3.39535L14.7907 3.39535C14.4093 3.39535 14.093 3.07907 14.093 2.69767C14.093 2.31628 14.4093 2 14.7907 2L17.1163 2C19.8047 2 22 4.18605 22 6.88372V9.2093C22 9.5907 21.6837 9.90698 21.3023 9.90698Z" fill="#2C92F2"/>
<path d="M17.1163 21.9999H15.7209C15.3395 21.9999 15.0233 21.6837 15.0233 21.3023C15.0233 20.9209 15.3395 20.6046 15.7209 20.6046H17.1163C19.0419 20.6046 20.6046 19.0418 20.6046 17.1162V15.7209C20.6046 15.3395 20.9209 15.0232 21.3023 15.0232C21.6837 15.0232 22 15.3395 22 15.7209V17.1162C22 19.8139 19.8046 21.9999 17.1163 21.9999Z" fill="#2C92F2"/>
<path d="M9.2093 22H6.88372C4.19535 22 2 19.814 2 17.1163V14.7907C2 14.4093 2.31628 14.0931 2.69767 14.0931C3.07907 14.0931 3.39535 14.4093 3.39535 14.7907L3.39535 17.1163C3.39535 19.0419 4.95814 20.6047 6.88372 20.6047H9.2093C9.5907 20.6047 9.90698 20.921 9.90698 21.3024C9.90698 21.6837 9.5907 22 9.2093 22Z" fill="#2C92F2"/>
</g>
<path d="M16.5696 6.47267L13.0744 5.16285C12.4931 4.94572 11.5405 4.94572 10.9591 5.16285L7.46391 6.47267C6.65841 6.77386 6 7.72645 6 8.58099L6 13.7852C6 14.6118 6.54634 15.6974 7.21176 16.1947L10.2236 18.4432C11.2113 19.1856 12.8363 19.1856 13.8239 18.4432L16.8358 16.1947C17.5012 15.6974 18.0475 14.6118 18.0475 13.7852V8.58099C18.0335 7.72645 17.3751 6.77386 16.5696 6.47267ZM11.9677 8.51795C12.7942 8.51795 13.4667 9.19037 13.4667 10.0169C13.4667 10.8294 12.8293 11.4808 12.0238 11.5088H11.9957C11.9817 11.5088 11.9677 11.5088 11.9537 11.5088C11.1132 11.4808 10.4828 10.8294 10.4828 10.0169C10.4758 9.19037 11.1482 8.51795 11.9677 8.51795ZM13.5507 15.053C13.1235 15.3332 12.5701 15.4803 12.0168 15.4803C11.4634 15.4803 10.9031 15.3402 10.4828 15.053C10.0836 14.7869 9.86642 14.4226 9.85941 14.0234C9.85941 13.6311 10.0836 13.2529 10.4828 12.9867C11.3303 12.4264 12.7102 12.4264 13.5577 12.9867C13.957 13.2529 14.1811 13.6171 14.1811 14.0164C14.1741 14.4086 13.95 14.7869 13.5507 15.053Z" fill="#2C92F2"/>
</svg>
