<svg width="20" height="22" viewBox="0 0 20 22" fill="none" xmlns="http://www.w3.org/2000/svg">
  <path fill-rule="evenodd" clip-rule="evenodd" d="M2.4871 2.63534C1.84637 3.32535 1.5 4.36497 1.5 5.75V15.75C1.5 17.135 1.84637 18.1746 2.4871 18.8647C3.11848 19.5446 4.14295 20 5.75 20H13.75C15.357 20 16.3815 19.5446 17.0129 18.8647C17.6536 18.1746 18 17.135 18 15.75V5.75C18 4.36497 17.6536 3.32535 17.0129 2.63534C16.3815 1.95538 15.357 1.5 13.75 1.5H5.75C4.14295 1.5 3.11848 1.95538 2.4871 2.63534ZM1.3879 1.61466C2.38152 0.544615 3.85705 0 5.75 0H13.75C15.643 0 17.1185 0.544615 18.1121 1.61466C19.0964 2.67465 19.5 4.13503 19.5 5.75V15.75C19.5 17.365 19.0964 18.8254 18.1121 19.8853C17.1185 20.9554 15.643 21.5 13.75 21.5H5.75C3.85705 21.5 2.38152 20.9554 1.3879 19.8853C0.403634 18.8254 0 17.365 0 15.75V5.75C0 4.13503 0.403634 2.67465 1.3879 1.61466Z" fill="#2C92F2"/>
  <path d="M11.75 4.25H7.75C7.34 4.25 7 3.91 7 3.5C7 3.09 7.34 2.75 7.75 2.75H11.75C12.16 2.75 12.5 3.09 12.5 3.5C12.5 3.91 12.16 4.25 11.75 4.25Z" fill="#2C92F2"/>
  <path d="M5 7C5 6.58579 5.33579 6.25 5.75 6.25H14.25C14.6642 6.25 15 6.58579 15 7C15 7.41421 14.6642 7.75 14.25 7.75H5.75C5.33579 7.75 5 7.41421 5 7Z" fill="#2C92F2"/>
  <path fill-rule="evenodd" clip-rule="evenodd" d="M8.70677 14.7833H7.70677C7.58405 14.7833 7.47401 14.8247 7.39439 14.9043C7.31478 14.9839 7.27344 15.0939 7.27344 15.2167C7.27344 15.3394 7.31478 15.4494 7.39439 15.529C7.47401 15.6086 7.58405 15.65 7.70677 15.65H8.70677C8.8295 15.65 8.93954 15.6086 9.01915 15.529C9.09876 15.4494 9.14011 15.3394 9.14011 15.2167C9.14011 15.0939 9.09876 14.9839 9.01915 14.9043C8.93954 14.8247 8.8295 14.7833 8.70677 14.7833Z" fill="#2C92F2"/>
  <path fill-rule="evenodd" clip-rule="evenodd" d="M12.0191 14.9043C11.9395 14.8247 11.8295 14.7833 11.7068 14.7833H10.7068C10.584 14.7833 10.474 14.8247 10.3944 14.9043C10.3148 14.9839 10.2734 15.0939 10.2734 15.2167C10.2734 15.3394 10.3148 15.4494 10.3944 15.529C10.474 15.6086 10.584 15.65 10.7068 15.65H11.7068C11.8295 15.65 11.9395 15.6086 12.0191 15.529C12.0988 15.4494 12.1401 15.3394 12.1401 15.2167C12.1401 15.0939 12.0988 14.9839 12.0191 14.9043Z" fill="#2C92F2"/>
  <path fill-rule="evenodd" clip-rule="evenodd" d="M8.63955 17.4745C8.65141 17.4606 8.66706 17.4372 8.67185 17.404L8.73558 17.2152L8.73803 17.203C8.74653 17.1605 8.75164 17.1356 8.75681 17.1184C8.77402 17.1168 8.79847 17.1167 8.83998 17.1167H10.54C10.5922 17.1167 10.6234 17.1168 10.646 17.1192C10.6555 17.1203 10.6608 17.1215 10.6633 17.1222C10.665 17.1246 10.6685 17.1303 10.6736 17.1417C10.6837 17.1643 10.6945 17.1964 10.7118 17.2483L10.7783 17.4484L10.7908 17.4802L10.7918 17.4827C10.8274 17.5744 10.8898 17.7348 11.0319 17.8707C11.1785 18.0109 11.4005 18.1167 11.74 18.1167H12.3733C12.7006 18.1167 13.0273 17.9722 13.2467 17.718C13.4679 17.4953 13.5739 17.2016 13.5739 16.8167L13.3395 14.7399C13.3074 14.3877 13.2427 13.9222 12.8318 13.6558L12.789 13.3774C13.0345 13.3413 13.2066 13.1437 13.2066 12.8834C13.2066 12.5948 12.9952 12.3834 12.7066 12.3834H12.5875L12.5045 11.9959C12.4365 11.6733 12.3233 11.3347 12.0792 11.0771C11.8316 10.8157 11.4615 10.65 10.9066 10.65H8.57331C7.98565 10.65 7.6065 10.8238 7.36258 11.0861C7.12312 11.3436 7.02687 11.6732 6.97559 11.9617L6.86315 12.3834H6.70664C6.41808 12.3834 6.20664 12.5948 6.20664 12.8834C6.20664 13.1551 6.39419 13.3585 6.65707 13.3812L6.61433 13.6591C6.20481 13.9556 6.13942 14.4184 6.10705 14.7743L5.90719 16.7729C5.87066 17.1032 5.98146 17.4329 6.23593 17.6874C6.48441 17.9359 6.80876 18.0834 7.10664 18.0834H7.70664C8.0117 18.0834 8.21893 17.9928 8.3638 17.8673C8.5039 17.7458 8.57801 17.5976 8.62766 17.4983L8.63955 17.4745ZM13.1063 12.8834C13.1063 13.1167 12.9397 13.2834 12.7063 13.2834C12.7294 13.2834 12.7521 13.2817 12.7737 13.2786C12.9713 13.2498 13.1063 13.0936 13.1063 12.8834ZM12.5026 16.9793L12.4911 16.9908L12.4839 17.0053C12.4733 17.0264 12.4505 17.05 12.3733 17.05H11.7551L11.6671 16.8154C11.6002 16.6314 11.5183 16.4349 11.3521 16.2877C11.1826 16.1375 10.9395 16.05 10.5733 16.05H8.83998C8.43508 16.05 8.17807 16.1798 8.01355 16.3502C7.85406 16.5153 7.79125 16.7094 7.7557 16.8193L7.7547 16.8224L7.74492 16.8523L7.67901 17.05H7.03998C6.97718 17.05 6.93937 17.0333 6.92097 17.0209C6.89523 16.9643 6.87474 16.8948 6.87338 16.8542L7.07284 14.8265L7.07485 14.8023C7.08294 14.7045 7.08912 14.632 7.10161 14.5739C7.11375 14.5174 7.12977 14.4856 7.15008 14.4643C7.17012 14.4432 7.20407 14.4222 7.27185 14.4069C7.3407 14.3914 7.43688 14.3834 7.57331 14.3834H11.84C12.1072 14.3834 12.2109 14.4191 12.2628 14.4684C12.2881 14.4925 12.3083 14.5265 12.3261 14.5815C12.3442 14.6371 12.3576 14.7061 12.3742 14.7971L12.5732 16.854C12.572 16.8845 12.556 16.9259 12.5026 16.9793ZM11.5017 12.1426L11.509 12.1719L11.7513 13.3834H7.62862L7.86989 12.177L7.87936 12.1509C7.94458 11.9708 7.9889 11.8546 8.07242 11.7759C8.15008 11.7027 8.27703 11.65 8.53998 11.65H9.20664V11.7167C8.91808 11.7167 8.70664 11.9281 8.70664 12.2167C8.70664 12.5053 8.91808 12.7167 9.20664 12.7167H10.2066C10.4952 12.7167 10.7066 12.5053 10.7066 12.2167C10.7066 11.9281 10.4952 11.7167 10.2066 11.7167V11.65H10.8733C11.1598 11.65 11.2826 11.6978 11.3496 11.7635C11.4218 11.8343 11.4523 11.9439 11.5017 12.1426Z" fill="#2C92F2"/>
</svg>
