<svg width="24" height="24" viewBox="0 0 24 24" fill="none" xmlns="http://www.w3.org/2000/svg">
<g id="Plate Search" clip-path="url(#clip0_9554_67273)">
<path id="Vector" fill-rule="evenodd" clip-rule="evenodd" d="M17.163 6.94439C14.5121 6.94439 12.3631 9.07842 12.3631 11.7109C12.3631 14.3433 14.5121 16.4774 17.163 16.4774C19.8139 16.4774 21.9629 14.3433 21.9629 11.7109C21.9629 9.07842 19.8139 6.94439 17.163 6.94439ZM10.9086 11.7109C10.9086 10.3869 11.3258 9.15962 12.0368 8.1517H2.35899C1.90661 8.1517 1.5385 8.99359 1.5385 9.58533V14.4146C1.5385 15.0063 1.90657 15.8483 2.35899 15.8483H12.4983C11.5097 14.7499 10.9086 13.3001 10.9086 11.7109ZM2.35899 6.5H13.7584C14.7381 5.86746 15.9073 5.5 17.163 5.5C20.6172 5.5 23.4174 8.28071 23.4174 11.7109C23.4174 15.1411 20.6172 17.9218 17.163 17.9218C16.3623 17.9218 15.5966 17.7723 14.8929 17.5H2.35899C1.05826 17.5 0 16.1159 0 14.4146V9.58533C0 7.88407 1.05826 6.5 2.35899 6.5ZM22.6236 16.1111C22.3396 15.8291 21.8791 15.8291 21.5951 16.1111C21.3111 16.3932 21.3111 16.8504 21.5951 17.1325L22.7587 18.288C23.0427 18.57 23.5032 18.57 23.7872 18.288C24.0712 18.0059 24.0712 17.5487 23.7872 17.2666L22.6236 16.1111Z" fill="#2C92F2"/>
</g>
<defs>
<clipPath id="clip0_9554_67273">
<rect width="24" height="24" fill="white"/>
</clipPath>
</defs>
</svg>
