<svg width="32" height="32" viewBox="0 0 32 32" fill="none" xmlns="http://www.w3.org/2000/svg">
<path opacity="0.4" d="M29.3337 10.4137V21.587C29.3337 26.4403 26.4403 29.3337 21.587 29.3337H10.4137C5.56033 29.3337 2.66699 26.4403 2.66699 21.587V10.4137C2.66699 9.73366 2.72033 9.08033 2.84033 8.48033C3.52033 4.81366 6.22699 2.68033 10.3603 2.66699H21.6403C25.7737 2.68033 28.4803 4.81366 29.1603 8.48033C29.2803 9.08033 29.3337 9.73366 29.3337 10.4137Z" fill="#232730" fill-opacity="0.6"/>
<path d="M29.3337 10.4137V10.4803H2.66699V10.4137C2.66699 9.73366 2.72033 9.08033 2.84033 8.48033H10.3603V2.66699H12.3603V8.48033H19.6403V2.66699H21.6403V8.48033H29.1603C29.2803 9.08033 29.3337 9.73366 29.3337 10.4137Z" fill="#232730" fill-opacity="0.6"/>
<path d="M19.2532 16.9604L16.4798 15.3604C15.4532 14.7738 14.4665 14.6938 13.6932 15.1338C12.9198 15.5738 12.4932 16.4804 12.4932 17.6538V20.8538C12.4932 22.0271 12.9198 22.9338 13.6932 23.3738C14.0265 23.5604 14.3998 23.6538 14.7865 23.6538C15.3198 23.6538 15.8932 23.4804 16.4798 23.1471L19.2532 21.5471C20.2798 20.9604 20.8398 20.1338 20.8398 19.2404C20.8398 18.3471 20.2665 17.5604 19.2532 16.9604Z" fill="#232730" fill-opacity="0.6"/>
</svg>
