<svg width="24" height="24" viewBox="0 0 24 24" fill="none" xmlns="http://www.w3.org/2000/svg">
<path fill-rule="evenodd" clip-rule="evenodd" d="M2.75 12C2.75 9.70675 4.06905 8.11698 6.22424 7.8102C6.25217 7.80961 6.27865 7.80756 6.30005 7.80043C6.53005 7.77043 6.76005 7.75044 7.00005 7.75044H17C17.22 7.75044 17.43 7.76045 17.63 7.79045C17.6703 7.79777 17.7109 7.8014 17.7514 7.80154C19.8384 8.08387 21.1516 9.57731 21.2447 11.75H19C17.48 11.75 16.25 12.98 16.25 14.5C16.25 16.02 17.48 17.25 19 17.25H21.2447C21.1399 19.6874 19.4957 21.25 17 21.25H7C4.42 21.25 2.75 19.58 2.75 17V12ZM21.25 15.75H19C18.31 15.75 17.75 15.19 17.75 14.5C17.75 13.81 18.31 13.25 19 13.25H21.25V15.75ZM22.75 12.5V12C22.75 9.08902 21.0591 6.94025 18.4236 6.39834C18.2595 5.5904 17.8528 4.84522 17.26 4.26045L15.51 2.49043C13.85 0.84043 11.15 0.84043 9.49005 2.49043L6.24005 5.75044C6.03492 5.94895 5.86044 6.1606 5.71661 6.37959C2.98641 6.88798 1.25 9.05558 1.25 12V17C1.25 20.44 3.56 22.75 7 22.75H17C20.44 22.75 22.75 20.44 22.75 17V16.5V12.5ZM16.2 5.32045C16.4799 5.60033 16.6899 5.91017 16.8199 6.25H7.86048L10.54 3.54045C11.62 2.48045 13.37 2.48045 14.44 3.54045L16.2 5.32045Z" fill="#232730" fill-opacity="0.6"/>
</svg>
