<svg width="16" height="16" viewBox="0 0 16 16" fill="none" xmlns="http://www.w3.org/2000/svg">
<path d="M8 9.16675C7.72667 9.16675 7.5 8.94008 7.5 8.66675V5.16675C7.5 4.89341 7.72667 4.66675 8 4.66675C8.27333 4.66675 8.5 4.89341 8.5 5.16675V8.66675C8.5 8.94008 8.27333 9.16675 8 9.16675Z" fill="#DE580B"/>
<path d="M8.00065 11.5001C7.82065 11.5001 7.65397 11.4334 7.5273 11.3067C7.4673 11.2401 7.42066 11.1667 7.38066 11.0867C7.34732 11.0067 7.33398 10.9201 7.33398 10.8334C7.33398 10.6601 7.4073 10.4867 7.5273 10.36C7.77397 10.1134 8.22733 10.1134 8.474 10.36C8.594 10.4867 8.66732 10.6601 8.66732 10.8334C8.66732 10.9201 8.64731 11.0067 8.61397 11.0867C8.58064 11.1667 8.534 11.2401 8.474 11.3067C8.34733 11.4334 8.18065 11.5001 8.00065 11.5001Z" fill="#DE580B"/>
<path d="M7.99947 15.1667C7.5528 15.1667 7.09946 15.0534 6.69946 14.8201L2.73946 12.5334C1.93946 12.0667 1.43945 11.2067 1.43945 10.2801V5.72008C1.43945 4.79341 1.93946 3.93341 2.73946 3.46674L6.69946 1.18008C7.49946 0.713411 8.49281 0.713411 9.29948 1.18008L13.2595 3.46674C14.0595 3.93341 14.5595 4.79341 14.5595 5.72008V10.2801C14.5595 11.2067 14.0595 12.0667 13.2595 12.5334L9.29948 14.8201C8.89948 15.0534 8.44614 15.1667 7.99947 15.1667ZM7.99947 1.8334C7.72614 1.8334 7.44613 1.90674 7.19946 2.04674L3.23946 4.3334C2.74613 4.62006 2.43945 5.14674 2.43945 5.72008V10.2801C2.43945 10.8467 2.74613 11.3801 3.23946 11.6667L7.19946 13.9534C7.6928 14.2401 8.30614 14.2401 8.79281 13.9534L12.7528 11.6667C13.2461 11.3801 13.5528 10.8534 13.5528 10.2801V5.72008C13.5528 5.15341 13.2461 4.62006 12.7528 4.3334L8.79281 2.04674C8.55281 1.90674 8.2728 1.8334 7.99947 1.8334Z" fill="#DE580B"/>
</svg>
