<svg width="52" height="57" viewBox="0 0 52 57" fill="none" xmlns="http://www.w3.org/2000/svg">
<rect x="0.5" y="5" width="45" height="52" rx="8" fill="#AFB8CA" fill-opacity="0.16"/>
<path d="M11.9553 34.1374C11.9553 33.8684 12.0318 33.6528 12.1849 33.4904C12.3472 33.3188 12.5767 33.233 12.8736 33.233C13.175 33.233 13.4092 33.3188 13.5762 33.4904C13.7338 33.6528 13.8127 33.8684 13.8127 34.1374C13.8127 34.3878 13.7338 34.5919 13.5762 34.7496C13.4046 34.9165 13.1704 35 12.8736 35C12.5767 35 12.3472 34.9165 12.1849 34.7496C12.0318 34.5965 11.9553 34.3925 11.9553 34.1374ZM19.1648 29.6296L21.0361 26.5478H22.7265L19.9579 30.7287L22.81 35H21.1405L19.1857 31.8348L17.2379 35H15.5544L18.4065 30.7287L15.6379 26.5478H17.3144L19.1648 29.6296ZM25.8362 35H24.3893V23H25.8362V35ZM33.0643 32.76C33.0643 32.3658 32.9159 32.062 32.619 31.8487C32.3269 31.6307 31.8144 31.4452 31.0817 31.2922C30.3489 31.1345 29.7669 30.9467 29.3356 30.7287C28.9089 30.5107 28.5912 30.251 28.3825 29.9496C28.1785 29.6435 28.0764 29.2817 28.0764 28.8643C28.0764 28.1733 28.3686 27.589 28.953 27.1113C29.5419 26.629 30.2909 26.3878 31.1999 26.3878C32.1599 26.3878 32.9367 26.6359 33.5304 27.1322C34.1286 27.6284 34.4277 28.2614 34.4277 29.0313H32.9738C32.9738 28.6371 32.8069 28.2962 32.473 28.0087C32.139 27.7212 31.7147 27.5774 31.1999 27.5774C30.6759 27.5774 30.2654 27.6933 29.9686 27.9252C29.6718 28.1525 29.5234 28.4516 29.5234 28.8226C29.5234 29.1704 29.6602 29.4325 29.9338 29.6087C30.2121 29.7849 30.7106 29.9542 31.4295 30.1165C32.153 30.2788 32.7373 30.4713 33.1825 30.6939C33.6324 30.9165 33.9663 31.1855 34.1843 31.5009C34.4022 31.8162 34.5112 32.2012 34.5112 32.6557C34.5112 33.4116 34.2075 34.0168 33.5999 34.4713C32.997 34.9258 32.2133 35.153 31.2486 35.153C30.5715 35.153 29.9733 35.0348 29.4538 34.7983C28.9344 34.5571 28.5263 34.2232 28.2295 33.7965C27.9373 33.3652 27.7912 32.8991 27.7912 32.3983H29.2312C29.259 32.8806 29.4538 33.2655 29.8156 33.553C30.1773 33.8359 30.655 33.9774 31.2486 33.9774C31.7959 33.9774 32.2341 33.8661 32.5634 33.6435C32.8973 33.4209 33.0643 33.1264 33.0643 32.76Z" fill="#798294"/>
<g clip-path="url(#clip0_12285_48632)">
<mask id="mask0_12285_48632" style="mask-type:luminance" maskUnits="userSpaceOnUse" x="36" y="0" width="16" height="16">
<path d="M43.9987 14.6668C47.6807 14.6668 50.6654 11.6822 50.6654 8.00016C50.6654 4.31816 47.6807 1.3335 43.9987 1.3335C40.3167 1.3335 37.332 4.31816 37.332 8.00016C37.332 11.6822 40.3167 14.6668 43.9987 14.6668Z" fill="white" stroke="white" stroke-linejoin="round"/>
<path d="M45.8846 6.11426L42.1133 9.88559M42.1133 6.11426L45.8846 9.88559" stroke="black" stroke-linecap="round" stroke-linejoin="round"/>
</mask>
<g mask="url(#mask0_12285_48632)">
<path d="M36 0H52V16H36V0Z" fill="#63A9F0"/>
</g>
</g>
<defs>
<clipPath id="clip0_12285_48632">
<rect width="16" height="16" fill="white" transform="translate(36)"/>
</clipPath>
</defs>
</svg>
