<svg width="328" height="140" viewBox="0 0 328 140" fill="none" xmlns="http://www.w3.org/2000/svg">
<g clip-path="url(#clip0_7108_14601)">
<ellipse cx="172" cy="71" rx="51" ry="50" fill="#467BCC" fill-opacity="0.08"/>
<g filter="url(#filter0_d_7108_14601)">
<rect x="141" y="43" width="61" height="60" rx="4" fill="url(#paint0_linear_7108_14601)"/>
</g>
<path d="M141 47C141 44.7909 142.791 43 145 43H198C200.209 43 202 44.7909 202 47V51H141V47Z" fill="#AAB4C5"/>
<rect x="146" y="46" width="2" height="3" rx="1" fill="#798294"/>
<rect x="149" y="46" width="2" height="3" rx="1" fill="#9098A7"/>
<rect x="152" y="46" width="2" height="3" rx="1" fill="#CFD3D9"/>
<circle cx="119.5" cy="30.5" r="10.5" fill="#467BCC" fill-opacity="0.08"/>
<circle cx="109.5" cy="49.5" r="4.5" fill="#467BCC" fill-opacity="0.08"/>
<path fill-rule="evenodd" clip-rule="evenodd" d="M186.102 91.7275C186.102 90.3498 186.574 89.0285 187.415 88.0542C188.256 87.08 189.396 86.5327 190.585 86.5327H208.519C209.708 86.5327 210.849 87.08 211.689 88.0542C212.53 89.0285 213.003 90.3498 213.003 91.7275V103.849C213.003 105.226 212.53 106.548 211.689 107.522C210.849 108.496 209.708 109.044 208.519 109.044H190.585C189.396 109.044 188.256 108.496 187.415 107.522C186.574 106.548 186.102 105.226 186.102 103.849V91.7275ZM201.047 95.1907C201.047 94.7315 200.889 94.291 200.609 93.9663C200.329 93.6416 199.948 93.4591 199.552 93.4591C199.156 93.4591 198.776 93.6416 198.495 93.9663C198.215 94.291 198.058 94.7315 198.058 95.1907V100.386C198.058 100.845 198.215 101.285 198.495 101.61C198.776 101.935 199.156 102.117 199.552 102.117C199.948 102.117 200.329 101.935 200.609 101.61C200.889 101.285 201.047 100.845 201.047 100.386V95.1907Z" fill="#AAB4C5"/>
<path d="M193.574 88.2643V83.0695C193.574 81.2325 194.204 79.4707 195.325 78.1718C196.446 76.8728 197.967 76.1431 199.552 76.1431C201.138 76.1431 202.658 76.8728 203.779 78.1718C204.9 79.4707 205.53 81.2325 205.53 83.0695V88.2643" stroke="#AAB4C5" stroke-width="2" stroke-linecap="round" stroke-linejoin="round"/>
<path d="M171.2 69.0714C171.2 70.1512 170.758 71.1868 169.97 71.9504C169.182 72.7139 168.114 73.1429 167 73.1429C165.886 73.1429 164.818 72.7139 164.03 71.9504C163.242 71.1868 162.8 70.1512 162.8 69.0714C162.8 67.9916 163.242 66.956 164.03 66.1925C164.818 65.429 165.886 65 167 65C168.114 65 169.182 65.429 169.97 66.1925C170.758 66.956 171.2 67.9916 171.2 69.0714ZM167 75.8571C168.857 75.8571 170.637 76.5721 171.95 77.8446C173.263 79.1172 174 80.8432 174 82.6429V84H160V82.6429C160 80.8432 160.737 79.1172 162.05 77.8446C163.363 76.5721 165.143 75.8571 167 75.8571Z" fill="#AAB4C5"/>
<path d="M180.215 70.6295C180.403 70.1355 180.5 69.6061 180.5 69.0714C180.5 67.9916 180.105 66.956 179.402 66.1925C178.698 65.429 177.745 65 176.75 65C175.755 65 174.802 65.429 174.098 66.1925C173.395 66.956 173 67.9916 173 69.0714C173 69.6061 173.097 70.1355 173.285 70.6295C173.474 71.1235 173.75 71.5723 174.098 71.9504C174.447 72.3284 174.86 72.6283 175.315 72.8329C175.77 73.0375 176.258 73.1429 176.75 73.1429C177.242 73.1429 177.73 73.0375 178.185 72.8329C178.64 72.6283 179.053 72.3284 179.402 71.9504C179.75 71.5723 180.026 71.1235 180.215 70.6295Z" fill="#AAB4C5" fill-opacity="0.64"/>
<path d="M175.5 82.6429C175.5 83.1043 175.47 83.5562 175.413 84H183V82.6429C183 81.4517 182.711 80.2816 182.163 79.2501C181.614 78.2185 180.825 77.3619 179.875 76.7664C178.925 76.1708 177.847 75.8573 176.75 75.8573C175.653 75.8573 174.575 76.1709 173.625 76.7664C174.842 78.4398 175.503 80.5106 175.5 82.6429Z" fill="#AAB4C5" fill-opacity="0.64"/>
</g>
<defs>
<filter id="filter0_d_7108_14601" x="117" y="27" width="125" height="124" filterUnits="userSpaceOnUse" color-interpolation-filters="sRGB">
<feFlood flood-opacity="0" result="BackgroundImageFix"/>
<feColorMatrix in="SourceAlpha" type="matrix" values="0 0 0 0 0 0 0 0 0 0 0 0 0 0 0 0 0 0 127 0" result="hardAlpha"/>
<feOffset dx="8" dy="16"/>
<feGaussianBlur stdDeviation="16"/>
<feComposite in2="hardAlpha" operator="out"/>
<feColorMatrix type="matrix" values="0 0 0 0 0.12549 0 0 0 0 0.172549 0 0 0 0 0.2 0 0 0 0.12 0"/>
<feBlend mode="normal" in2="BackgroundImageFix" result="effect1_dropShadow_7108_14601"/>
<feBlend mode="normal" in="SourceGraphic" in2="effect1_dropShadow_7108_14601" result="shape"/>
</filter>
<linearGradient id="paint0_linear_7108_14601" x1="160.204" y1="20.1739" x2="212.149" y2="105.284" gradientUnits="userSpaceOnUse">
<stop stop-color="#EFF2F7"/>
<stop offset="1" stop-color="white"/>
</linearGradient>
<clipPath id="clip0_7108_14601">
<rect width="328" height="140" fill="white"/>
</clipPath>
</defs>
</svg>
