<svg width="100" height="100" viewBox="0 0 100 100" fill="none" xmlns="http://www.w3.org/2000/svg">
<g clip-path="url(#clip0_3320_219704)">
<path fill-rule="evenodd" clip-rule="evenodd" d="M85.3144 8.07211C85.0023 7.90921 84.618 8.03161 84.4561 8.34551C84.2512 8.74281 84.0411 9.11971 83.8262 9.47751C83.6444 9.78021 83.741 10.1738 84.042 10.3566C84.3429 10.5395 84.7343 10.4423 84.9161 10.1396C85.1457 9.75731 85.3692 9.35611 85.5863 8.93531C85.7482 8.62151 85.6265 8.23501 85.3144 8.07211ZM82.3664 11.542C82.5931 11.2717 82.9948 11.2373 83.2635 11.4653C83.5323 11.6933 83.5665 12.0972 83.3398 12.3676C82.7187 13.1085 82.0647 13.7473 81.3817 14.2961C81.107 14.5169 80.7064 14.4718 80.4869 14.1956C80.2674 13.9193 80.3122 13.5164 80.5869 13.2956C81.2026 12.8009 81.7971 12.2211 82.3664 11.542ZM78.4897 14.6368C78.8051 14.4806 79.1868 14.6111 79.3421 14.9284C79.4974 15.2457 79.3675 15.6295 79.0521 15.7857C78.2163 16.1996 77.355 16.5131 76.4758 16.7476C76.136 16.8383 75.7874 16.6347 75.6972 16.2929C75.6071 15.9511 75.8095 15.6005 76.1494 15.5098C76.9555 15.2947 77.7368 15.0096 78.4897 14.6368ZM73.6598 15.962C74.0094 15.9241 74.3233 16.1784 74.361 16.53C74.3986 16.8816 74.1458 17.1974 73.7962 17.2352C72.9094 17.3313 72.0115 17.3726 71.1096 17.3785C70.758 17.3808 70.4711 17.096 70.4688 16.7424C70.4665 16.3888 70.7496 16.1002 71.1012 16.0979C71.9708 16.0922 72.8248 16.0525 73.6598 15.962ZM68.5106 16.0331C68.8618 16.0505 69.1325 16.3509 69.1152 16.7041C69.0979 17.0573 68.7992 17.3295 68.4481 17.3122C67.6176 17.2711 66.7839 17.2159 65.9565 17.161L65.9445 17.1602L65.8136 17.1515C65.4627 17.1283 65.197 16.8234 65.2201 16.4705C65.2432 16.1176 65.5464 15.8504 65.8973 15.8737L66.0256 15.8822C66.8594 15.9375 67.6871 15.9924 68.5106 16.0331ZM47.4221 32.5195L68.41 28.2287C68.2296 27.9878 68.0435 27.7577 67.8523 27.5383C67.6205 27.2723 67.647 26.8678 67.9114 26.6347C68.1758 26.4016 68.578 26.4282 68.8098 26.6941C69.0958 27.0222 69.3701 27.3706 69.6317 27.739C69.6815 27.8091 69.7307 27.879 69.7793 27.9488L70.7452 27.7513C72.5747 27.3773 74.3353 28.644 74.5742 30.5063L75.3799 36.7858L83.4084 35.0045C86.2535 34.3733 88.8001 36.9016 88.2094 39.771L82.2379 68.7839C81.5881 71.9409 79.2903 74.4969 76.2325 75.4641L24.6483 91.7808C22.9286 92.3248 20.3645 92.472 19.9885 90.1468L11.0738 35.0269C10.5857 32.0095 12.5688 29.1477 15.5523 28.5637L27.9636 26.1343C31.5138 25.4394 35.1926 26.6663 37.6501 29.3353C39.3333 31.1634 41.5886 32.3142 43.9824 32.6355C44.0245 32.016 44.1041 31.3771 44.2232 30.7188C44.2861 30.3709 44.6176 30.1401 44.9635 30.2034C45.3094 30.2667 45.5389 30.6001 45.4759 30.948C45.3803 31.4765 45.3125 31.9887 45.2708 32.4847C45.4335 32.4438 45.6119 32.4673 45.7649 32.5644C45.8289 32.6051 45.8833 32.6554 45.9274 32.7122C46.4259 32.6848 46.9254 32.621 47.4221 32.5195ZM29.2966 47.8381C26.9262 48.364 25.1584 50.3596 24.9114 52.7883L21.3124 88.8815C20.9105 91.3067 22.7537 91.5331 24.4068 91.0102L75.9911 74.6935C78.7709 73.8142 80.8597 71.4905 81.4505 68.6206L87.422 39.6077C87.8945 37.3121 85.8573 35.2895 83.5812 35.7945L73.4957 38.0321C73.5265 37.607 73.5284 37.1698 73.5 36.7208C73.4774 36.3638 73.1705 36.0927 72.8146 36.1154C72.4587 36.1381 72.1884 36.4459 72.211 36.8029C72.2447 37.335 72.2293 37.8426 72.1697 38.3263L48.9673 43.4739C48.9687 43.2839 48.8872 43.095 48.7287 42.9659C48.1062 42.4588 47.5407 41.8947 47.044 41.2732C46.8209 40.9941 46.4145 40.9492 46.1362 41.173C45.8579 41.3967 45.8132 41.8044 46.0363 42.0836C46.5258 42.6961 47.0722 43.2556 47.6646 43.763L29.2966 47.8381ZM70.7727 29.3805C70.9657 29.6814 70.879 30.0822 70.5791 30.2758C70.2791 30.4694 69.8795 30.3824 69.6866 30.0815C69.4658 29.7374 69.2292 29.3876 68.9762 29.0323C68.7689 28.7412 68.8361 28.3366 69.1263 28.1286C69.4166 27.9207 69.8199 27.9881 70.0272 28.2793C70.2918 28.6509 70.5402 29.018 70.7727 29.3805ZM72.5782 34.8818C72.9198 34.7789 73.1135 34.4177 73.0109 34.0751C72.7763 33.2917 72.4582 32.4809 72.0512 31.6434C71.8949 31.3219 71.5083 31.1882 71.1877 31.345C70.8671 31.5018 70.734 31.8896 70.8902 32.2112C71.2696 32.9918 71.5613 33.7375 71.7739 34.4478C71.8765 34.7904 72.2366 34.9848 72.5782 34.8818ZM44.7082 33.0017C44.9043 32.7029 45.3048 32.6201 45.6027 32.8168C45.9006 33.0135 45.9831 33.4153 45.787 33.7141C45.5506 34.0744 45.3193 34.4452 45.0937 34.8265C44.9676 35.0396 44.7386 35.1537 44.5079 35.143C44.3997 35.2313 44.2622 35.2852 44.1119 35.2878C43.7553 35.294 43.4612 35.009 43.4551 34.6513C43.4476 34.2155 43.4594 33.7692 43.4913 33.3125C43.5163 32.9557 43.825 32.6867 44.1808 32.7117C44.4004 32.7272 44.5867 32.8511 44.6912 33.0277L44.7082 33.0017ZM45.4788 40.1244C45.8009 39.9707 45.9377 39.5842 45.7845 39.2611C45.4542 38.5648 45.1946 37.8133 45.0173 37.005C44.9407 36.6555 44.5962 36.4346 44.2478 36.5115C44.1086 36.5422 43.9899 36.6158 43.9024 36.7155C43.859 36.5321 43.7366 36.3691 43.5541 36.281C43.2328 36.1257 42.8468 36.2612 42.6921 36.5836C42.3065 37.3868 41.9441 38.225 41.6077 39.0976C41.4791 39.4313 41.6445 39.8064 41.9771 39.9354C42.3098 40.0645 42.6837 39.8986 42.8124 39.5649C43.1105 38.7915 43.4294 38.0473 43.7668 37.3325C43.9647 38.2178 44.2523 39.0463 44.6182 39.8178C44.7715 40.1408 45.1568 40.2781 45.4788 40.1244ZM40.7192 41.6849C40.8231 41.3426 41.1839 41.1496 41.5251 41.2538C41.8663 41.3579 42.0587 41.7199 41.9548 42.0621C41.7053 42.8846 41.478 43.7353 41.275 44.614C41.1946 44.9626 40.8476 45.1797 40.5002 45.0989C40.1527 45.0182 39.9363 44.6702 40.0168 44.3216C40.2262 43.4148 40.461 42.5358 40.7192 41.6849ZM66.9963 25.7865C67.2034 25.5007 67.1411 25.1002 66.8569 24.8919C66.1265 24.3562 65.3504 23.9208 64.5394 23.585C64.2142 23.4503 63.8422 23.6063 63.7083 23.9333C63.5744 24.2603 63.7295 24.6345 64.0546 24.7691C64.7713 25.0659 65.4583 25.4511 66.1068 25.9266C66.3909 26.135 66.7891 26.0722 66.9963 25.7865ZM63.8679 16.3866C63.8838 16.0334 63.612 15.734 63.2608 15.7179C62.3701 15.6772 61.4794 15.6544 60.596 15.6675C60.2444 15.6727 59.9636 15.9636 59.9688 16.3172C59.974 16.6708 60.2632 16.9532 60.6148 16.948C61.4647 16.9354 62.3283 16.9573 63.203 16.9972C63.5543 17.0133 63.8519 16.7399 63.8679 16.3866ZM62.5145 23.6007C62.568 23.2512 62.3296 22.9242 61.9821 22.8704C61.1175 22.7366 60.232 22.7008 59.3367 22.7607C58.9858 22.7841 58.7203 23.0892 58.7436 23.4421C58.767 23.7949 59.0703 24.0619 59.4211 24.0385C60.2274 23.9846 61.0195 24.0171 61.7884 24.1362C62.136 24.19 62.461 23.9502 62.5145 23.6007ZM58.6167 16.399C58.5741 16.048 58.2566 15.7981 57.9076 15.841C57.0024 15.9522 56.1085 16.1238 55.2337 16.3777C54.8959 16.4758 54.7011 16.8307 54.7986 17.1705C54.8961 17.5102 55.249 17.7062 55.5868 17.6081C56.3865 17.376 57.2128 17.2165 58.0619 17.1122C58.4109 17.0693 58.6593 16.75 58.6167 16.399ZM57.517 23.6505C57.4268 23.3086 57.0783 23.105 56.7384 23.1956C55.9162 23.4149 55.0942 23.7111 54.28 24.0826C53.9598 24.2287 53.818 24.6082 53.9632 24.9302C54.1085 25.2523 54.4858 25.3949 54.806 25.2488C55.5586 24.9055 56.3139 24.6337 57.0647 24.4335C57.4046 24.3428 57.6071 23.9923 57.517 23.6505ZM53.5389 17.6741C53.3747 17.3614 52.9895 17.2419 52.6786 17.4071C51.8881 17.8271 51.1253 18.3405 50.3961 18.9643C50.1282 19.1934 50.0958 19.5975 50.3236 19.8669C50.5514 20.1363 50.9532 20.1689 51.221 19.9398C51.8781 19.3777 52.5636 18.9166 53.2734 18.5394C53.5843 18.3742 53.7032 17.9868 53.5389 17.6741ZM52.8703 25.5315C52.6802 25.234 52.2863 25.1478 51.9905 25.339C51.2826 25.7966 50.5863 26.313 49.9068 26.8871C49.6376 27.1146 49.6027 27.5185 49.8289 27.7892C50.0551 28.06 50.4566 28.0951 50.7259 27.8676C51.3652 27.3273 52.018 26.8435 52.6789 26.4164C52.9747 26.2252 53.0604 25.829 52.8703 25.5315ZM49.3905 20.8463C49.1153 20.6262 48.7148 20.672 48.4959 20.9487C47.9595 21.6267 47.4503 22.385 46.9704 23.2316C46.7963 23.5389 46.9027 23.9299 47.2082 24.105C47.5137 24.2802 47.9024 24.1731 48.0766 23.8659C48.5265 23.0721 48.9995 22.3689 49.4922 21.7461C49.7112 21.4694 49.6656 21.0665 49.3905 20.8463ZM48.9275 28.6495C48.6722 28.4063 48.2693 28.4174 48.0275 28.6741C47.4527 29.2845 46.8952 29.9405 46.3588 30.6414C46.1443 30.9216 46.1963 31.3236 46.4749 31.5393C46.7535 31.7551 47.1532 31.7028 47.3677 31.4226C47.8784 30.7555 48.4077 30.1327 48.952 29.5547C49.1938 29.2979 49.1828 28.8927 48.9275 28.6495ZM46.6217 25.3116C46.2983 25.1727 45.9242 25.3238 45.7862 25.6491C45.6122 26.059 45.4433 26.4849 45.2796 26.9272C45.1215 27.3545 44.9783 27.7751 44.8495 28.1889C44.7445 28.5264 44.9313 28.8856 45.2669 28.9913C45.6024 29.0969 45.9596 28.9089 46.0646 28.5714C46.1865 28.1799 46.3224 27.7807 46.473 27.3738C46.6299 26.9496 46.7914 26.5425 46.9572 26.1519C47.0953 25.8267 46.945 25.4505 46.6217 25.3116Z" fill="#CFD3D9"/>
<path d="M95.1104 83.1293L86.6672 75.6557C88.9323 72.6291 89.9661 68.8564 89.5601 65.0979C89.1542 61.3394 87.3387 57.8744 84.4796 55.4012C81.6204 52.9281 77.9301 51.6306 74.1523 51.7702C70.3745 51.9098 66.79 53.4761 64.1212 56.1536C61.4524 58.831 59.8976 62.4205 59.7702 66.1988C59.6428 69.977 60.9522 73.6631 63.4346 76.5142C65.9169 79.3654 69.3877 81.1697 73.1475 81.5635C76.9073 81.9573 80.6767 80.9114 83.696 78.6365L91.1552 87.0845C91.4077 87.3739 91.7171 87.6083 92.0641 87.7732C92.411 87.938 92.7882 88.0298 93.1721 88.0429C93.556 88.0559 93.9385 87.9899 94.2958 87.8489C94.6531 87.708 94.9777 87.4951 95.2493 87.2234C95.5209 86.9518 95.7338 86.6273 95.8748 86.2699C96.0158 85.9126 96.0818 85.5301 96.0687 85.1462C96.0557 84.7623 95.9639 84.3852 95.7991 84.0382C95.6342 83.6912 95.3998 83.3819 95.1104 83.1293ZM65.6864 75.7325C63.8962 73.9421 62.6772 71.661 62.1834 69.1778C61.6896 66.6946 61.9432 64.1207 62.9122 61.7817C63.8812 59.4426 65.522 57.4434 67.6272 56.0368C69.7323 54.6302 72.2073 53.8795 74.7392 53.8795C77.271 53.8795 79.746 54.6302 81.8511 56.0368C83.9563 57.4434 85.5971 59.4426 86.5661 61.7817C87.5351 64.1207 87.7887 66.6946 87.2949 69.1778C86.8011 71.661 85.5821 73.9421 83.792 75.7325C81.3893 78.1302 78.1335 79.4767 74.7392 79.4767C71.3448 79.4767 68.089 78.1302 65.6864 75.7325Z" fill="#2C92F2"/>
<circle cx="74.5" cy="66.5" r="13.5" fill="#47A2F4" fill-opacity="0.29"/>
</g>
<defs>
<clipPath id="clip0_3320_219704">
<rect width="100" height="100" fill="white"/>
</clipPath>
</defs>
</svg>
