<svg width="328" height="140" viewBox="0 0 328 140" fill="none" xmlns="http://www.w3.org/2000/svg">
<g clip-path="url(#clip0_15475_280838)">
<ellipse cx="168.542" cy="67.4578" rx="47.8958" ry="46.241" fill="#467BCC" fill-opacity="0.08"/>
<g filter="url(#filter0_d_15475_280838)">
<rect x="134.51" y="41.9036" width="68.0625" height="55.9759" rx="4" fill="url(#paint0_linear_15475_280838)"/>
</g>
<path d="M134.51 45.9036C134.51 43.6945 136.301 41.9036 138.51 41.9036H198.572C200.781 41.9036 202.572 43.6945 202.572 45.9036V49.2048H134.51V45.9036Z" fill="#AAB4C5"/>
<rect x="139.553" y="44.3373" width="2.52083" height="2.43373" rx="1.21687" fill="#798294"/>
<rect x="143.334" y="44.3373" width="2.52083" height="2.43373" rx="1.21687" fill="#9098A7"/>
<rect x="147.115" y="44.3373" width="2.52083" height="2.43373" rx="1.21687" fill="#CFD3D9"/>
<ellipse cx="118.124" cy="29.7349" rx="10.0833" ry="9.73494" fill="#467BCC" fill-opacity="0.08"/>
<ellipse cx="107.411" cy="47.3795" rx="4.41146" ry="4.25904" fill="#467BCC" fill-opacity="0.08"/>
<ellipse cx="202.285" cy="98.8172" rx="16.2366" ry="15.6756" fill="url(#paint1_linear_15475_280838)"/>
<path d="M181.685 98.8175C181.685 109.137 190.38 117.507 201.025 117.507C211.67 117.507 220.366 109.137 220.366 98.8175C220.366 88.4985 211.67 80.1279 201.025 80.1279C190.38 80.1279 181.685 88.4985 181.685 98.8175ZM185.442 98.8175C185.442 90.5562 192.407 83.7898 201.025 83.7898C209.643 83.7898 216.609 90.5562 216.609 98.8175C216.609 107.079 209.643 113.845 201.025 113.845C192.407 113.845 185.442 107.079 185.442 98.8175Z" fill="#AAB4C5" stroke="#AAB4C5"/>
<path d="M219.003 118.751C219.379 119.114 219.855 119.282 220.325 119.282C220.794 119.282 221.271 119.114 221.646 118.751C222.383 118.04 222.383 116.862 221.646 116.151L217.97 112.601C217.243 111.9 216.054 111.9 215.327 112.601C214.59 113.313 214.59 114.491 215.327 115.202L219.003 118.751Z" fill="#AAB4C5" stroke="#AAB4C5"/>
<path d="M194.166 92.4363C193.633 92.2096 193.406 91.5496 193.726 91.0696C194.373 90.1096 195.453 89.4096 196.88 89.4096C198.446 89.4096 199.52 90.123 200.066 91.0163C200.533 91.783 200.806 93.2163 200.086 94.283C199.286 95.463 198.52 95.823 198.106 96.583C198.006 96.763 197.946 96.9096 197.906 97.2096C197.846 97.6963 197.446 98.0763 196.953 98.0763C196.373 98.0763 195.9 97.5763 195.966 96.9963C196.006 96.6563 196.086 96.303 196.273 95.9696C196.786 95.043 197.773 94.4963 198.346 93.6763C198.953 92.8163 198.613 91.2096 196.893 91.2096C196.113 91.2096 195.606 91.6163 195.293 92.103C195.06 92.483 194.573 92.603 194.166 92.4363ZM198.22 100.743C198.22 101.476 197.62 102.076 196.886 102.076C196.153 102.076 195.553 101.476 195.553 100.743C195.553 100.01 196.153 99.4096 196.886 99.4096C197.62 99.4096 198.22 100.01 198.22 100.743Z" fill="#AAB4C5"/>
<path d="M146.754 71.7248L152.034 64.7048C152.234 64.6382 152.467 64.5848 152.734 64.5448C153.014 64.4915 153.254 64.4648 153.454 64.4648C153.787 64.4648 154.1 64.5115 154.394 64.6048C154.687 64.6982 154.92 64.8582 155.094 65.0848C155.28 65.2982 155.374 65.6115 155.374 66.0248V72.2648H157.194C157.26 72.3715 157.327 72.5248 157.394 72.7248C157.46 72.9248 157.494 73.1315 157.494 73.3448C157.494 73.7315 157.4 74.0182 157.214 74.2048C157.04 74.3915 156.807 74.4848 156.514 74.4848H155.374V77.2048C155.267 77.2315 155.094 77.2648 154.854 77.3048C154.627 77.3448 154.4 77.3648 154.174 77.3648C153.707 77.3648 153.34 77.2982 153.074 77.1648C152.82 77.0182 152.694 76.6982 152.694 76.2048V74.4848H147.354C147.1 74.3648 146.887 74.1782 146.714 73.9248C146.54 73.6582 146.454 73.3382 146.454 72.9648C146.454 72.7515 146.474 72.5382 146.514 72.3248C146.567 72.0982 146.647 71.8982 146.754 71.7248ZM152.814 72.2648L152.834 67.2648H152.774L149.354 72.2648H152.814ZM166.622 70.9048C166.622 69.9182 166.509 69.1048 166.282 68.4648C166.069 67.8248 165.775 67.3448 165.402 67.0248C165.029 66.7048 164.589 66.5448 164.082 66.5448C163.602 66.5448 163.169 66.7115 162.782 67.0448C162.409 67.3648 162.115 67.8448 161.902 68.4848C161.689 69.1248 161.582 69.9315 161.582 70.9048C161.582 72.3582 161.802 73.4515 162.242 74.1848C162.682 74.9182 163.295 75.2848 164.082 75.2848C164.895 75.2848 165.522 74.9182 165.962 74.1848C166.402 73.4515 166.622 72.3582 166.622 70.9048ZM164.102 77.5048C163.062 77.5048 162.142 77.2648 161.342 76.7848C160.555 76.2915 159.935 75.5582 159.482 74.5848C159.042 73.5982 158.822 72.3715 158.822 70.9048C158.822 69.4248 159.055 68.1982 159.522 67.2248C159.989 66.2515 160.622 65.5248 161.422 65.0448C162.222 64.5648 163.115 64.3248 164.102 64.3248C165.089 64.3248 165.982 64.5648 166.782 65.0448C167.582 65.5248 168.215 66.2515 168.682 67.2248C169.149 68.1982 169.382 69.4248 169.382 70.9048C169.382 72.3715 169.155 73.5982 168.702 74.5848C168.262 75.5582 167.642 76.2915 166.842 76.7848C166.055 77.2648 165.142 77.5048 164.102 77.5048ZM171.207 71.7248L176.487 64.7048C176.687 64.6382 176.92 64.5848 177.187 64.5448C177.467 64.4915 177.707 64.4648 177.907 64.4648C178.24 64.4648 178.553 64.5115 178.847 64.6048C179.14 64.6982 179.373 64.8582 179.547 65.0848C179.733 65.2982 179.827 65.6115 179.827 66.0248V72.2648H181.647C181.713 72.3715 181.78 72.5248 181.847 72.7248C181.913 72.9248 181.947 73.1315 181.947 73.3448C181.947 73.7315 181.853 74.0182 181.667 74.2048C181.493 74.3915 181.26 74.4848 180.967 74.4848H179.827V77.2048C179.72 77.2315 179.547 77.2648 179.307 77.3048C179.08 77.3448 178.853 77.3648 178.627 77.3648C178.16 77.3648 177.793 77.2982 177.527 77.1648C177.273 77.0182 177.147 76.6982 177.147 76.2048V74.4848H171.807C171.553 74.3648 171.34 74.1782 171.167 73.9248C170.993 73.6582 170.907 73.3382 170.907 72.9648C170.907 72.7515 170.927 72.5382 170.967 72.3248C171.02 72.0982 171.1 71.8982 171.207 71.7248ZM177.267 72.2648L177.287 67.2648H177.227L173.807 72.2648H177.267Z" fill="#AAB4C5"/>
</g>
<defs>
<filter id="filter0_d_15475_280838" x="110.51" y="25.9036" width="132.062" height="119.976" filterUnits="userSpaceOnUse" color-interpolation-filters="sRGB">
<feFlood flood-opacity="0" result="BackgroundImageFix"/>
<feColorMatrix in="SourceAlpha" type="matrix" values="0 0 0 0 0 0 0 0 0 0 0 0 0 0 0 0 0 0 127 0" result="hardAlpha"/>
<feOffset dx="8" dy="16"/>
<feGaussianBlur stdDeviation="16"/>
<feComposite in2="hardAlpha" operator="out"/>
<feColorMatrix type="matrix" values="0 0 0 0 0.12549 0 0 0 0 0.172549 0 0 0 0 0.2 0 0 0 0.12 0"/>
<feBlend mode="normal" in2="BackgroundImageFix" result="effect1_dropShadow_15475_280838"/>
<feBlend mode="normal" in="SourceGraphic" in2="effect1_dropShadow_15475_280838" result="shape"/>
</filter>
<linearGradient id="paint0_linear_15475_280838" x1="155.937" y1="20.6084" x2="200.06" y2="107.071" gradientUnits="userSpaceOnUse">
<stop stop-color="#EFF2F7"/>
<stop offset="1" stop-color="white"/>
</linearGradient>
<linearGradient id="paint1_linear_15475_280838" x1="214.846" y1="107.69" x2="188.536" y2="88.181" gradientUnits="userSpaceOnUse">
<stop stop-color="#EEF1F6"/>
<stop offset="1" stop-color="#FAFBFE"/>
</linearGradient>
<clipPath id="clip0_15475_280838">
<rect width="328" height="140" fill="white"/>
</clipPath>
</defs>
</svg>
