<?xml version="1.0" encoding="utf-8"?>
<!-- Generator: Adobe Illustrator 23.1.0, SVG Export Plug-In . SVG Version: 6.00 Build 0)  -->
<svg version="1.1" id="Capa_1" xmlns="http://www.w3.org/2000/svg" xmlns:xlink="http://www.w3.org/1999/xlink" x="0px"
     y="0px"
     viewBox="0 0 512 512" style="enable-background:new 0 0 512 512;" xml:space="preserve">
<style type="text/css">
	.st0 {
    opacity: 0.3;
    enable-background: new;
  }
</style>
  <path class="st0" d="M364.1,282.4c-14.6-14.6-32.1-25.5-51.1-32.1c20.4-14,33.8-37.5,33.8-64.1c0-42.9-34.9-77.8-77.8-77.8
	s-77.8,34.9-77.8,77.8c0,26.6,13.4,50,33.8,64.1c-19,6.6-36.5,17.4-51.1,32.1c-25.4,25.4-39.4,59.2-39.4,95.1h21
	c0-62.6,50.9-113.5,113.5-113.5s113.5,50.9,113.5,113.5h21C403.5,341.6,389.5,307.8,364.1,282.4z M269,243
	c-31.3,0-56.7-25.5-56.7-56.7s25.5-56.7,56.7-56.7s56.7,25.5,56.7,56.7S300.3,243,269,243z"/>
</svg>
