<svg width="48" height="48" viewBox="0 0 48 48" fill="none" xmlns="http://www.w3.org/2000/svg">
<path opacity="0.4" d="M24 44C35.0457 44 44 35.0457 44 24C44 12.9543 35.0457 4 24 4C12.9543 4 4 12.9543 4 24C4 35.0457 12.9543 44 24 44Z" fill="#B30000"/>
<path d="M26.1197 24.0002L30.7197 19.4002C31.2997 18.8202 31.2997 17.8602 30.7197 17.2802C30.1397 16.7002 29.1797 16.7002 28.5997 17.2802L23.9997 21.8802L19.3997 17.2802C18.8197 16.7002 17.8597 16.7002 17.2797 17.2802C16.6997 17.8602 16.6997 18.8202 17.2797 19.4002L21.8797 24.0002L17.2797 28.6002C16.6997 29.1802 16.6997 30.1402 17.2797 30.7202C17.5797 31.0202 17.9597 31.1602 18.3397 31.1602C18.7197 31.1602 19.0997 31.0202 19.3997 30.7202L23.9997 26.1202L28.5997 30.7202C28.8997 31.0202 29.2797 31.1602 29.6597 31.1602C30.0397 31.1602 30.4197 31.0202 30.7197 30.7202C31.2997 30.1402 31.2997 29.1802 30.7197 28.6002L26.1197 24.0002Z" fill="#B30000"/>
</svg>
