<svg width="64" height="65" viewBox="0 0 64 65" fill="none" xmlns="http://www.w3.org/2000/svg">
<rect y="0.5" width="64" height="64" rx="32" fill="#F2F4F7"/>
<path d="M31.25 42C25.6 42 21 37.4 21 31.75C21 26.1 25.6 21.5 31.25 21.5C36.9 21.5 41.5 26.1 41.5 31.75C41.5 37.4 36.9 42 31.25 42ZM31.25 23C26.42 23 22.5 26.93 22.5 31.75C22.5 36.57 26.42 40.5 31.25 40.5C36.08 40.5 40 36.57 40 31.75C40 26.93 36.08 23 31.25 23Z" fill="#232730" fill-opacity="0.38"/>
<path d="M41.9995 43.2495C41.8095 43.2495 41.6195 43.1795 41.4695 43.0295L39.4695 41.0295C39.1795 40.7395 39.1795 40.2595 39.4695 39.9695C39.7595 39.6795 40.2395 39.6795 40.5295 39.9695L42.5295 41.9695C42.8195 42.2595 42.8195 42.7395 42.5295 43.0295C42.3795 43.1795 42.1895 43.2495 41.9995 43.2495Z" fill="#232730" fill-opacity="0.38"/>
<path d="M31 33C30.4533 33 30 32.6862 30 32.3077V27.6923C30 27.3138 30.4533 27 31 27C31.5467 27 32 27.3138 32 27.6923V32.3077C32 32.6862 31.5467 33 31 33Z" fill="#232730" fill-opacity="0.38"/>
<path d="M31 36.2509C30.87 36.2509 30.74 36.2209 30.62 36.1709C30.5 36.1209 30.39 36.0509 30.29 35.9609C30.2 35.8609 30.13 35.7609 30.08 35.6309C30.03 35.5109 30 35.3809 30 35.2509C30 35.1209 30.03 34.9909 30.08 34.8709C30.13 34.7509 30.2 34.6409 30.29 34.5409C30.39 34.4509 30.5 34.3809 30.62 34.3309C30.86 34.2309 31.14 34.2309 31.38 34.3309C31.5 34.3809 31.61 34.4509 31.71 34.5409C31.8 34.6409 31.87 34.7509 31.92 34.8709C31.97 34.9909 32 35.1209 32 35.2509C32 35.3809 31.97 35.5109 31.92 35.6309C31.87 35.7609 31.8 35.8609 31.71 35.9609C31.61 36.0509 31.5 36.1209 31.38 36.1709C31.26 36.2209 31.13 36.2509 31 36.2509Z" fill="#232730" fill-opacity="0.38"/>
</svg>
