<svg width="80" height="81" viewBox="0 0 80 81" fill="none" xmlns="http://www.w3.org/2000/svg">
<path d="M36.1539 39.6411C35.3042 39.6411 34.6154 40.3299 34.6154 41.1795C34.6154 42.0292 35.3042 42.718 36.1539 42.718H40.7693C41.619 42.718 42.3077 42.0292 42.3077 41.1795C42.3077 40.3299 41.619 39.6411 40.7693 39.6411H36.1539Z" fill="#E02C1D"/>
<path fill-rule="evenodd" clip-rule="evenodd" d="M49.8864 15.7679C49.9145 16.018 49.9357 16.2834 49.9517 16.5642L53.1603 16.5642C54.5315 16.5641 55.6832 16.5641 56.614 16.6649C57.5924 16.7709 58.5074 17.003 59.3189 17.5925C59.776 17.9246 60.178 18.3266 60.5101 18.7838C61.0997 19.5953 61.3317 20.5103 61.4378 21.4886C61.5386 22.4195 61.5386 23.5712 61.5385 24.9424V62.718H67.6924C68.542 62.718 69.2308 63.4068 69.2308 64.2565C69.2308 65.1061 68.542 65.7949 67.6924 65.7949H49.7158C49.5464 66.5226 49.2619 67.2018 48.765 67.8026C48.3689 68.2817 47.8927 68.6885 47.3578 69.0051C46.394 69.5754 45.3389 69.6879 44.2351 69.6407C43.1772 69.5954 41.8732 69.3895 40.3082 69.1423L19.1078 65.7949H12.3077C11.4581 65.7949 10.7693 65.1061 10.7693 64.2565C10.7693 63.4068 11.4581 62.718 12.3077 62.718H17.6924L17.6924 21.1806C17.6923 19.9367 17.6923 18.8868 17.7808 18.031C17.8743 17.1281 18.0784 16.2819 18.5918 15.5091C18.8835 15.07 19.2381 14.6761 19.6443 14.34C20.3592 13.7485 21.1793 13.4569 22.0675 13.2695C22.9093 13.0918 23.9535 12.9819 25.1905 12.8518L40.7406 11.2149C42.2428 11.0567 43.4977 10.9246 44.5146 10.9319C45.5785 10.9396 46.5878 11.0958 47.5002 11.6747C48.0093 11.9978 48.4606 12.404 48.8351 12.8765C49.5064 13.7233 49.7674 14.7107 49.8864 15.7679ZM40.9748 14.2842C42.5878 14.1144 43.6693 14.0028 44.4925 14.0088C45.2884 14.0145 45.6332 14.1341 45.8518 14.2728C46.07 14.4113 46.2634 14.5854 46.4239 14.7879C46.5847 14.9907 46.7398 15.3211 46.8288 16.1121C46.9191 16.9149 46.923 17.977 46.9231 19.5493V60.8627C46.923 62.5105 46.919 63.6269 46.8228 64.4677C46.7278 65.2984 46.5623 65.638 46.3938 65.8418C46.2241 66.0471 46.02 66.2214 45.7907 66.3571C45.5632 66.4918 45.2019 66.6023 44.3665 66.5665C43.5054 66.5297 42.3765 66.3539 40.6987 66.089L20.7693 62.9422V21.2586C20.7693 19.9159 20.7712 19.0263 20.8414 18.3478C20.9086 17.6985 21.0257 17.4059 21.1548 17.2117C21.2798 17.0235 21.4318 16.8547 21.6058 16.7106C21.7855 16.5619 22.0643 16.4148 22.7029 16.2801C23.3704 16.1392 24.2549 16.0442 25.5902 15.9036L40.9748 14.2842ZM50.0001 19.6411H53.077C54.5535 19.6411 55.5372 19.6432 56.2826 19.7239C56.9992 19.8016 57.3108 19.9368 57.5103 20.0818C57.7062 20.2241 57.8785 20.3964 58.0209 20.5923C58.1658 20.7919 58.3011 21.1035 58.3787 21.8201C58.4595 22.5654 58.4616 23.5492 58.4616 25.0257V62.718H50.0001V19.6411Z" fill="#E02C1D"/>
<path opacity="0.2" d="M53.0769 19.6411H50V62.718H58.4615V25.0257C58.4615 23.5493 58.4594 22.5655 58.3787 21.8201C58.301 21.1035 58.1658 20.7919 58.0208 20.5924C57.8785 20.3965 57.7062 20.2242 57.5103 20.0818C57.3107 19.9369 56.9991 19.8016 56.2825 19.724C55.5372 19.6432 54.5534 19.6411 53.0769 19.6411Z" fill="#E02C1D"/>
</svg>
