<svg width="328" height="140" viewBox="0 0 328 140" fill="none" xmlns="http://www.w3.org/2000/svg">
<g clip-path="url(#clip0_341_1637)">
<ellipse cx="172" cy="71" rx="51" ry="50" fill="#467BCC" fill-opacity="0.08"/>
<circle cx="119.5" cy="30.5" r="10.5" fill="#467BCC" fill-opacity="0.08"/>
<g filter="url(#filter0_d_341_1637)">
<rect x="142" y="40" width="61" height="60" rx="4" fill="url(#paint0_linear_341_1637)"/>
</g>
<path d="M142 44C142 41.7909 143.791 40 146 40H199C201.209 40 203 41.7909 203 44V48H142V44Z" fill="#AAB4C5"/>
<rect x="147" y="43" width="2" height="3" rx="1" fill="#798294"/>
<rect x="150" y="43" width="2" height="3" rx="1" fill="#9098A7"/>
<rect x="153" y="43" width="2" height="3" rx="1" fill="#CFD3D9"/>
<circle cx="109.5" cy="49.5" r="4.5" fill="#467BCC" fill-opacity="0.08"/>
<circle cx="206.835" cy="94.9105" r="14.5833" fill="url(#paint1_linear_341_1637)"/>
<path d="M205.703 77.4883C215.307 77.4883 223.126 85.3063 223.126 94.9102C223.126 104.514 215.307 112.333 205.703 112.333C196.099 112.333 188.281 104.514 188.281 94.9102C188.281 85.3064 196.099 77.4884 205.703 77.4883ZM205.703 80.9648C198.006 80.965 191.758 87.2286 191.758 94.9102C191.758 102.592 198.006 108.856 205.703 108.856C213.401 108.856 219.649 102.592 219.649 94.9102C219.649 87.2285 213.401 80.9648 205.703 80.9648Z" fill="#AAB4C5" stroke="#AAB4C5"/>
<path d="M218.639 107.596C219.318 107.043 220.333 107.083 220.965 107.715L224.267 111.017L224.385 111.148C224.938 111.827 224.899 112.842 224.267 113.474C223.92 113.82 223.477 113.984 223.038 113.984C222.654 113.984 222.266 113.858 221.943 113.595L221.81 113.474L218.508 110.172C217.834 109.498 217.834 108.389 218.508 107.715L218.639 107.596Z" fill="#AAB4C5" stroke="#AAB4C5"/>
<path fill-rule="evenodd" clip-rule="evenodd" d="M172.498 58.6318C171.66 58.6318 170.856 58.9647 170.263 59.5574C169.671 60.15 169.338 60.9539 169.338 61.792C169.338 62.6301 169.671 63.434 170.263 64.0266C170.856 64.6193 171.66 64.9522 172.498 64.9522C173.336 64.9522 174.14 64.6193 174.733 64.0266C175.325 63.434 175.658 62.6301 175.658 61.792C175.658 60.9539 175.325 60.15 174.733 59.5574C174.14 58.9647 173.336 58.6318 172.498 58.6318ZM170.495 59.7891C171.026 59.2579 171.747 58.9595 172.498 58.9595C173.249 58.9595 173.97 59.2579 174.501 59.7891C175.032 60.3203 175.331 61.0408 175.331 61.792C175.331 62.5432 175.032 63.2637 174.501 63.7949C173.97 64.3261 173.249 64.6245 172.498 64.6245C171.747 64.6245 171.026 64.3261 170.495 63.7949C169.964 63.2637 169.666 62.5432 169.666 61.792C169.666 61.0408 169.964 60.3203 170.495 59.7891Z" fill="#AAB4C5"/>
<path fill-rule="evenodd" clip-rule="evenodd" d="M172.498 58.9595C171.747 58.9595 171.026 59.2579 170.495 59.7891C169.964 60.3203 169.666 61.0408 169.666 61.792C169.666 62.5432 169.964 63.2637 170.495 63.7949C171.026 64.3261 171.747 64.6245 172.498 64.6245C173.249 64.6245 173.97 64.3261 174.501 63.7949C175.032 63.2637 175.331 62.5432 175.331 61.792C175.331 61.0408 175.032 60.3203 174.501 59.7891C173.97 59.2579 173.249 58.9595 172.498 58.9595ZM171.936 60.8555C171.936 61.0624 171.768 61.2301 171.561 61.2301C171.354 61.2301 171.186 61.0624 171.186 60.8555C171.186 60.6487 171.354 60.481 171.561 60.481C171.768 60.481 171.936 60.6487 171.936 60.8555ZM173.435 61.2301C173.642 61.2301 173.81 61.0624 173.81 60.8555C173.81 60.6487 173.642 60.481 173.435 60.481C173.228 60.481 173.061 60.6487 173.061 60.8555C173.061 61.0624 173.228 61.2301 173.435 61.2301ZM171.373 62.752C171.283 62.752 171.21 62.8254 171.21 62.9159C171.21 63.0064 171.283 63.0798 171.373 63.0798C172.111 63.0799 172.15 63.0799 172.229 63.0798L173.621 63.0798C173.711 63.0798 173.785 63.0064 173.785 62.9159C173.785 62.8254 173.711 62.752 173.621 62.752L172.229 62.7521C172.15 62.7521 172.111 62.7521 171.373 62.752Z" fill="#AAB4C5"/>
<g clip-path="url(#clip1_341_1637)">
<path fill-rule="evenodd" clip-rule="evenodd" d="M162.147 58.6318C161.308 58.6318 160.505 58.9647 159.912 59.5574C159.319 60.15 158.986 60.9539 158.986 61.792C158.986 62.6301 159.319 63.434 159.912 64.0266C160.505 64.6193 161.308 64.9522 162.147 64.9522C162.985 64.9522 163.789 64.6193 164.381 64.0266C164.974 63.434 165.307 62.6301 165.307 61.792C165.307 60.9539 164.974 60.15 164.381 59.5574C163.789 58.9647 162.985 58.6318 162.147 58.6318ZM160.144 59.7891C160.675 59.2579 161.395 58.9595 162.147 58.9595C162.898 58.9595 163.618 59.2579 164.149 59.7891C164.681 60.3203 164.979 61.0408 164.979 61.792C164.979 62.5432 164.681 63.2637 164.149 63.7949C163.618 64.3261 162.898 64.6245 162.147 64.6245C161.395 64.6245 160.675 64.3261 160.144 63.7949C159.612 63.2637 159.314 62.5432 159.314 61.792C159.314 61.0408 159.612 60.3203 160.144 59.7891Z" fill="#AAB4C5"/>
<path fill-rule="evenodd" clip-rule="evenodd" d="M162.147 58.9595C161.395 58.9595 160.675 59.2579 160.144 59.7891C159.612 60.3203 159.314 61.0408 159.314 61.792C159.314 62.5432 159.612 63.2637 160.144 63.7949C160.675 64.3261 161.395 64.6245 162.147 64.6245C162.898 64.6245 163.618 64.3261 164.149 63.7949C164.681 63.2637 164.979 62.5432 164.979 61.792C164.979 61.0408 164.681 60.3203 164.149 59.7891C163.618 59.2579 162.898 58.9595 162.147 58.9595ZM161.584 60.8555C161.584 61.0624 161.416 61.2301 161.209 61.2301C161.003 61.2301 160.835 61.0624 160.835 60.8555C160.835 60.6487 161.003 60.481 161.209 60.481C161.416 60.481 161.584 60.6487 161.584 60.8555ZM163.084 61.2301C163.291 61.2301 163.458 61.0624 163.458 60.8555C163.458 60.6487 163.291 60.481 163.084 60.481C162.877 60.481 162.709 60.6487 162.709 60.8555C162.709 61.0624 162.877 61.2301 163.084 61.2301ZM161.171 62.9829C161.274 62.7551 161.406 62.5944 161.563 62.49C161.719 62.3858 161.911 62.3302 162.145 62.3302C162.525 62.3302 162.703 62.3917 162.814 62.4811C162.932 62.5766 163.002 62.7228 163.12 62.983C163.157 63.0654 163.254 63.102 163.337 63.0647C163.419 63.0274 163.456 62.9304 163.418 62.8479L163.409 62.8261C163.304 62.5949 163.205 62.3758 163.02 62.2262C162.822 62.0659 162.551 62.0025 162.145 62.0025C161.857 62.0025 161.6 62.0717 161.381 62.2173C161.163 62.3625 160.995 62.5764 160.873 62.848C160.835 62.9304 160.872 63.0275 160.954 63.0648C161.037 63.102 161.134 63.0654 161.171 62.9829Z" fill="#AAB4C5"/>
</g>
<path fill-rule="evenodd" clip-rule="evenodd" d="M151.792 58.6318C150.954 58.6318 150.15 58.9647 149.557 59.5574C148.965 60.15 148.632 60.9539 148.632 61.792C148.632 62.6301 148.965 63.434 149.557 64.0266C150.15 64.6193 150.954 64.9522 151.792 64.9522C152.63 64.9522 153.434 64.6193 154.027 64.0266C154.619 63.434 154.952 62.6301 154.952 61.792C154.952 60.9539 154.619 60.15 154.027 59.5574C153.434 58.9647 152.63 58.6318 151.792 58.6318ZM149.789 59.7891C150.32 59.2579 151.041 58.9595 151.792 58.9595C152.543 58.9595 153.264 59.2579 153.795 59.7891C154.326 60.3203 154.625 61.0408 154.625 61.792C154.625 62.5432 154.326 63.2637 153.795 63.7949C153.264 64.3261 152.543 64.6245 151.792 64.6245C151.041 64.6245 150.32 64.3261 149.789 63.7949C149.258 63.2637 148.96 62.5432 148.96 61.792C148.96 61.0408 149.258 60.3203 149.789 59.7891Z" fill="#AAB4C5"/>
<path fill-rule="evenodd" clip-rule="evenodd" d="M151.792 58.9595C151.041 58.9595 150.32 59.2579 149.789 59.7891C149.258 60.3203 148.96 61.0408 148.96 61.792C148.96 62.5432 149.258 63.2637 149.789 63.7949C150.32 64.3261 151.041 64.6245 151.792 64.6245C152.543 64.6245 153.264 64.3261 153.795 63.7949C154.326 63.2637 154.625 62.5432 154.625 61.792C154.625 61.0408 154.326 60.3203 153.795 59.7891C153.264 59.2579 152.543 58.9595 151.792 58.9595ZM152.509 60.7622C152.532 60.7611 152.586 60.7662 152.656 60.7848L152.859 60.8663L153.031 61.001L153.124 61.117C153.165 61.1976 153.264 61.2296 153.344 61.1884C153.425 61.1472 153.457 61.0485 153.416 60.9679C153.384 60.9055 153.327 60.8344 153.263 60.77C153.198 60.704 153.115 60.6355 153.023 60.5825C152.931 60.5293 152.83 60.4918 152.74 60.468C152.652 60.4448 152.563 60.4314 152.493 60.4349C152.403 60.4394 152.333 60.5163 152.338 60.6067C152.342 60.6971 152.419 60.7667 152.509 60.7622ZM150.728 60.8666C150.789 60.831 150.861 60.8035 150.93 60.7856C151 60.767 151.054 60.762 151.077 60.7631C151.167 60.7676 151.244 60.698 151.249 60.6076C151.253 60.5172 151.184 60.4403 151.093 60.4358C151.024 60.4323 150.934 60.4455 150.846 60.4686C150.756 60.4923 150.655 60.5297 150.563 60.5831C150.471 60.6363 150.389 60.7048 150.323 60.7708C150.259 60.8351 150.203 60.906 150.171 60.968C150.13 61.0485 150.161 61.1473 150.242 61.1887C150.322 61.23 150.421 61.1983 150.462 61.1178C150.473 61.0973 150.504 61.0537 150.556 61.0018C150.605 60.9516 150.666 60.9024 150.728 60.8666ZM152.147 62.2253C151.431 62.0587 150.743 62.4316 150.567 62.9926C150.539 63.0789 150.448 63.127 150.361 63.0999C150.275 63.0728 150.227 62.9808 150.254 62.8945C150.491 62.1392 151.372 61.7081 152.222 61.9062L152.224 61.9066C152.474 61.9673 152.705 62.0883 152.898 62.259C153.091 62.4297 153.239 62.6449 153.33 62.8859C153.361 62.9706 153.318 63.0651 153.234 63.0969C153.149 63.1288 153.055 63.0859 153.023 63.0012C152.951 62.8102 152.834 62.6396 152.681 62.5043C152.528 62.3692 152.345 62.2734 152.147 62.2253Z" fill="#AAB4C5"/>
<path fill-rule="evenodd" clip-rule="evenodd" d="M190.973 59.5574C191.566 58.9647 192.37 58.6318 193.208 58.6318C194.046 58.6318 194.85 58.9647 195.443 59.5574C196.035 60.15 196.368 60.9539 196.368 61.792C196.368 62.6301 196.035 63.434 195.443 64.0266C194.85 64.6193 194.046 64.9522 193.208 64.9522C192.37 64.9522 191.566 64.6193 190.973 64.0266C190.381 63.434 190.048 62.6301 190.048 61.792C190.048 60.9539 190.381 60.15 190.973 59.5574ZM193.208 58.9595C192.457 58.9595 191.736 59.2579 191.205 59.7891C190.674 60.3203 190.376 61.0408 190.376 61.792C190.376 62.5432 190.674 63.2637 191.205 63.7949C191.736 64.3261 192.457 64.6245 193.208 64.6245C193.959 64.6245 194.68 64.3261 195.211 63.7949C195.742 63.2637 196.041 62.5432 196.041 61.792C196.041 61.0408 195.742 60.3203 195.211 59.7891C194.68 59.2579 193.959 58.9595 193.208 58.9595Z" fill="#AAB4C5"/>
<path fill-rule="evenodd" clip-rule="evenodd" d="M191.205 59.7891C191.736 59.2579 192.457 58.9595 193.208 58.9595C193.959 58.9595 194.68 59.2579 195.211 59.7891C195.742 60.3203 196.041 61.0408 196.041 61.792C196.041 62.5432 195.742 63.2637 195.211 63.7949C194.68 64.3261 193.959 64.6245 193.208 64.6245C192.457 64.6245 191.736 64.3261 191.205 63.7949C190.674 63.2637 190.376 62.5432 190.376 61.792C190.376 61.0408 190.674 60.3203 191.205 59.7891ZM191.478 61.9072C191.509 61.8765 191.551 61.8592 191.594 61.8592H194.821C194.912 61.8592 194.985 61.9326 194.985 62.0231C194.985 62.4945 194.798 62.9465 194.465 63.2798C194.131 63.6131 193.679 63.8004 193.208 63.8004C192.736 63.8004 192.284 63.6131 191.951 63.2798C191.618 62.9465 191.431 62.4945 191.431 62.0231C191.431 61.9796 191.448 61.938 191.478 61.9072ZM192.271 61.0567C192.478 61.0567 192.646 60.889 192.646 60.6822C192.646 60.4753 192.478 60.3076 192.271 60.3076C192.064 60.3076 191.897 60.4753 191.897 60.6822C191.897 60.889 192.064 61.0567 192.271 61.0567ZM194.143 61.0567C194.35 61.0567 194.517 60.889 194.517 60.6822C194.517 60.4753 194.35 60.3076 194.143 60.3076C193.936 60.3076 193.768 60.4753 193.768 60.6822C193.768 60.889 193.936 61.0567 194.143 61.0567Z" fill="#AAB4C5"/>
<path d="M192.183 63.0481C191.95 62.8152 191.804 62.5111 191.768 62.187H194.648C194.611 62.5111 194.466 62.8152 194.233 63.0481C193.961 63.3199 193.592 63.4727 193.208 63.4727C192.823 63.4727 192.455 63.3199 192.183 63.0481Z" fill="#AAB4C5"/>
<g clip-path="url(#clip2_341_1637)">
<path fill-rule="evenodd" clip-rule="evenodd" d="M182.854 58.6318C182.015 58.6318 181.212 58.9647 180.619 59.5574C180.026 60.15 179.693 60.9539 179.693 61.792C179.693 62.6301 180.026 63.434 180.619 64.0266C181.212 64.6193 182.015 64.9522 182.854 64.9522C183.692 64.9522 184.496 64.6193 185.088 64.0266C185.681 63.434 186.014 62.6301 186.014 61.792C186.014 60.9539 185.681 60.15 185.088 59.5574C184.496 58.9647 183.692 58.6318 182.854 58.6318ZM180.851 59.7891C181.382 59.2579 182.102 58.9595 182.854 58.9595C183.605 58.9595 184.325 59.2579 184.856 59.7891C185.388 60.3203 185.686 61.0408 185.686 61.792C185.686 62.5432 185.388 63.2637 184.856 63.7949C184.325 64.3261 183.605 64.6245 182.854 64.6245C182.102 64.6245 181.382 64.3261 180.851 63.7949C180.32 63.2637 180.021 62.5432 180.021 61.792C180.021 61.0408 180.32 60.3203 180.851 59.7891Z" fill="#AAB4C5"/>
<path fill-rule="evenodd" clip-rule="evenodd" d="M182.854 58.9595C182.102 58.9595 181.382 59.2579 180.851 59.7891C180.32 60.3203 180.021 61.0408 180.021 61.792C180.021 62.5432 180.32 63.2637 180.851 63.7949C181.382 64.3261 182.102 64.6245 182.854 64.6245C183.605 64.6245 184.325 64.3261 184.856 63.7949C185.388 63.2637 185.686 62.5432 185.686 61.792C185.686 61.0408 185.388 60.3203 184.856 59.7891C184.325 59.2579 183.605 58.9595 182.854 58.9595ZM182.291 60.8555C182.291 61.0624 182.123 61.2301 181.916 61.2301C181.71 61.2301 181.542 61.0624 181.542 60.8555C181.542 60.6487 181.71 60.481 181.916 60.481C182.123 60.481 182.291 60.6487 182.291 60.8555ZM183.791 61.2301C183.998 61.2301 184.165 61.0624 184.165 60.8555C184.165 60.6487 183.998 60.481 183.791 60.481C183.584 60.481 183.416 60.6487 183.416 60.8555C183.416 61.0624 183.584 61.2301 183.791 61.2301ZM181.878 62.0993C181.981 62.3272 182.113 62.4878 182.27 62.5923C182.426 62.6964 182.618 62.752 182.853 62.752C183.232 62.752 183.41 62.6906 183.521 62.6011C183.639 62.5056 183.709 62.3594 183.827 62.0993C183.864 62.0168 183.961 61.9802 184.044 62.0175C184.126 62.0548 184.163 62.1519 184.125 62.2344L184.116 62.2562C184.011 62.4873 183.912 62.7065 183.727 62.856C183.529 63.0163 183.258 63.0798 182.853 63.0798C182.564 63.0798 182.307 63.0105 182.088 62.865C181.87 62.7197 181.702 62.5059 181.58 62.2343C181.542 62.1518 181.579 62.0548 181.661 62.0175C181.744 61.9802 181.841 62.0169 181.878 62.0993Z" fill="#AAB4C5"/>
</g>
<rect x="155" y="74" width="35" height="2" rx="1" fill="#AAB4C5"/>
<rect x="160" y="78" width="25" height="2" rx="1" fill="#AAB4C5"/>
<rect x="165" y="82" width="15" height="2" rx="1" fill="#AAB4C5"/>
</g>
<defs>
<filter id="filter0_d_341_1637" x="118" y="24" width="125" height="124" filterUnits="userSpaceOnUse" color-interpolation-filters="sRGB">
<feFlood flood-opacity="0" result="BackgroundImageFix"/>
<feColorMatrix in="SourceAlpha" type="matrix" values="0 0 0 0 0 0 0 0 0 0 0 0 0 0 0 0 0 0 127 0" result="hardAlpha"/>
<feOffset dx="8" dy="16"/>
<feGaussianBlur stdDeviation="16"/>
<feComposite in2="hardAlpha" operator="out"/>
<feColorMatrix type="matrix" values="0 0 0 0 0.12549 0 0 0 0 0.172549 0 0 0 0 0.2 0 0 0 0.12 0"/>
<feBlend mode="normal" in2="BackgroundImageFix" result="effect1_dropShadow_341_1637"/>
<feBlend mode="normal" in="SourceGraphic" in2="effect1_dropShadow_341_1637" result="shape"/>
</filter>
<linearGradient id="paint0_linear_341_1637" x1="161.204" y1="17.1739" x2="213.149" y2="102.284" gradientUnits="userSpaceOnUse">
<stop stop-color="#EFF2F7"/>
<stop offset="1" stop-color="white"/>
</linearGradient>
<linearGradient id="paint1_linear_341_1637" x1="218.117" y1="103.165" x2="193.903" y2="85.8303" gradientUnits="userSpaceOnUse">
<stop stop-color="#EEF1F6"/>
<stop offset="1" stop-color="#FAFBFE"/>
</linearGradient>
<clipPath id="clip0_341_1637">
<rect width="328" height="140" fill="white"/>
</clipPath>
<clipPath id="clip1_341_1637">
<rect width="7.58454" height="7.58454" fill="white" transform="translate(158.354 58)"/>
</clipPath>
<clipPath id="clip2_341_1637">
<rect width="7.58454" height="7.58454" fill="white" transform="translate(179.062 58)"/>
</clipPath>
</defs>
</svg>
