<svg width="282" height="165" viewBox="0 0 282 165" fill="none" xmlns="http://www.w3.org/2000/svg">
<path opacity="0.8" fill-rule="evenodd" clip-rule="evenodd" d="M60.5082 30.9124C63.2745 22.1948 65.8488 16.7671 68.227 14.6273C74.8129 8.70463 83.919 11.928 85.8549 12.3896C92.6557 14.0159 90.4444 3.31437 96.2794 1.13913C100.168 -0.310329 103.366 1.46147 105.876 6.45453C108.097 1.79628 111.483 -0.337364 116.033 0.0431983C122.859 0.61924 125.248 23.6006 134.627 18.5701C144.008 13.5376 155.509 12.3876 160.422 19.8657C161.484 21.4836 161.891 18.9736 169.113 10.4036C176.335 1.83163 183.537 -1.94488 198.311 3.0461C205.028 5.31284 210.552 11.458 214.889 21.4795C214.889 35.7828 225.445 44.2508 246.553 46.8773C278.218 50.8181 253.639 84.7547 214.889 94.6929C176.137 104.633 86.9188 109.999 38.5036 84.8857C6.22673 68.1472 13.5616 50.1547 60.5062 30.9124H60.5082Z" fill="url(#paint0_linear_11541_65139)"/>
<path opacity="0.675" fill-rule="evenodd" clip-rule="evenodd" d="M238.478 160.646C194.58 171.622 44.738 159.068 28.7894 153.335C21.0269 150.542 14.0299 145.291 7.80071 137.58C7.10352 136.718 6.66529 135.676 6.53667 134.576C6.40804 133.476 6.59427 132.363 7.07383 131.364C7.55339 130.365 8.3067 129.521 9.24673 128.931C10.1868 128.341 11.2751 128.028 12.3861 128.028H274.227C279.661 142.456 267.745 153.328 238.478 160.646Z" fill="url(#paint1_linear_11541_65139)"/>
<rect x="88.7412" y="128.047" width="102.805" height="24.0625" rx="8" fill="url(#paint2_linear_11541_65139)" fill-opacity="0.12"/>
<path d="M180.966 70.194H187.717V72.4688H177.429V70.6009L183.867 62.0861H177.544V59.7905H187.477V61.5957L180.966 70.194Z" fill="#888888" fill-opacity="0.32"/>
<path d="M189.898 56.5304H198.9V59.5635H185.182V57.073L193.766 45.72H185.335V42.6591H198.58V45.0661L189.898 56.5304Z" fill="#888888" fill-opacity="0.32"/>
<path d="M210.244 49.1483H220.933V52.75H204.643V49.7926L214.837 36.3109H204.824V32.6761H220.553V35.5343L210.244 49.1483Z" fill="#888888" fill-opacity="0.32"/>
<path opacity="0.4" d="M130.72 58.4375C121.742 58.4375 114.442 65.7594 114.442 74.7656C114.442 83.6 121.33 90.75 130.309 91.0594C130.583 91.025 130.857 91.025 131.063 91.0594C131.131 91.0594 131.165 91.0594 131.234 91.0594C131.268 91.0594 131.268 91.0594 131.302 91.0594C140.075 90.75 146.963 83.6 146.997 74.7656C146.997 65.7594 139.698 58.4375 130.72 58.4375Z" fill="#5286F3"/>
<path d="M148.128 100.204C138.567 93.8098 122.975 93.8098 113.346 100.204C108.994 103.125 106.595 107.079 106.595 111.307C106.595 115.535 108.994 119.454 113.311 122.341C118.109 125.572 124.414 127.188 130.72 127.188C137.025 127.188 143.33 125.572 148.128 122.341C152.446 119.419 154.844 115.5 154.844 111.238C154.81 107.01 152.446 103.091 148.128 100.204Z" fill="#5286F3"/>
<path opacity="0.4" d="M168.38 76.7937C168.929 83.4625 164.199 89.3062 157.654 90.0969C157.62 90.0969 157.62 90.0969 157.586 90.0969H157.483C157.277 90.0969 157.072 90.0968 156.9 90.1656C153.576 90.3375 150.526 89.2719 148.23 87.3125C151.76 84.15 153.782 79.4062 153.371 74.25C153.131 71.4656 152.171 68.9219 150.732 66.7562C152.034 66.1031 153.542 65.6906 155.084 65.5531C161.801 64.9687 167.798 69.9875 168.38 76.7937Z" fill="#BACFFA"/>
<path d="M175.234 108.591C174.96 111.925 172.835 114.813 169.271 116.772C165.844 118.663 161.527 119.557 157.243 119.454C159.71 117.219 161.15 114.435 161.424 111.479C161.767 107.216 159.745 103.125 155.701 99.8598C153.405 98.0379 150.732 96.5941 147.819 95.5285C155.393 93.3285 164.919 94.8066 170.779 99.5504C173.932 102.094 175.542 105.291 175.234 108.591Z" fill="#BACFFA" fill-opacity="0.64"/>
<defs>
<linearGradient id="paint0_linear_11541_65139" x1="145.604" y1="76.8403" x2="145.604" y2="-18.1619" gradientUnits="userSpaceOnUse">
<stop stop-color="#DEDEDE" stop-opacity="0"/>
<stop offset="1" stop-color="#A9A9A9" stop-opacity="0.3"/>
</linearGradient>
<linearGradient id="paint1_linear_11541_65139" x1="141" y1="165" x2="141" y2="120.754" gradientUnits="userSpaceOnUse">
<stop stop-color="white" stop-opacity="0"/>
<stop offset="1" stop-color="#919191" stop-opacity="0.15"/>
</linearGradient>
<linearGradient id="paint2_linear_11541_65139" x1="140.231" y1="92.717" x2="140.231" y2="149.293" gradientUnits="userSpaceOnUse">
<stop stop-color="#D9DDEA" stop-opacity="0.72"/>
<stop offset="1" stop-color="white" stop-opacity="0"/>
</linearGradient>
</defs>
</svg>
