<svg width="24" height="24" viewBox="0 0 24 24" fill="none" xmlns="http://www.w3.org/2000/svg">
<g id="vuesax/outline/bank">
<g id="bank">
<path id="Union" fill-rule="evenodd" clip-rule="evenodd" d="M3 11.7501C2.04 11.7501 1.25 10.9601 1.25 10.0001V6.68013C1.25 6.00013 1.71998 5.31013 2.34998 5.06013L11.35 1.46016C11.73 1.31016 12.27 1.31016 12.65 1.46016L21.65 5.06013C22.28 5.31013 22.75 6.01013 22.75 6.68013V10.0001C22.75 10.9601 21.96 11.7501 21 11.7501H20.75V17.25H21C21.96 17.25 22.75 18.04 22.75 19V21.25H23C23.41 21.25 23.75 21.59 23.75 22C23.75 22.41 23.41 22.75 23 22.75H22H2H1C0.59 22.75 0.25 22.41 0.25 22C0.25 21.59 0.59 21.25 1 21.25H1.25V19C1.25 18.04 2.04 17.25 3 17.25H3.25V11.7501H3ZM21.25 19V21.25H2.75V19C2.75 18.86 2.86 18.75 3 18.75H4H8H12H16H20H21C21.14 18.75 21.25 18.86 21.25 19ZM19.25 17.25V11.7501H16.75V17.25H19.25ZM20.0141 10.2501L20 10.25L19.9859 10.2501H16.0141L16 10.25L15.9859 10.2501H12.0141L12 10.25L11.9859 10.2501H8.01412L8 10.25L7.98588 10.2501H4.01412L4 10.25L3.98588 10.2501H3C2.86 10.2501 2.75 10.1401 2.75 10.0001V6.68013C2.75 6.61013 2.84997 6.48015 2.90997 6.45015L11.9 2.85011C11.9199 2.84016 11.9596 2.84016 11.9994 2.84016H12H12.0006C12.0403 2.84016 12.0701 2.84016 12.09 2.85011L21.09 6.45015C21.16 6.48015 21.25 6.61013 21.25 6.68013V10.0001C21.25 10.1401 21.14 10.2501 21 10.2501H20.0141ZM15.25 17.25V11.7501H12.75V17.25H15.25ZM11.25 17.25V11.7501H8.75V17.25H11.25ZM7.25 17.25V11.7501H4.75V17.25H7.25ZM9.75 7C9.75 8.24 10.76 9.25 12 9.25C13.24 9.25 14.25 8.24 14.25 7C14.25 5.76 13.24 4.75 12 4.75C10.76 4.75 9.75 5.76 9.75 7ZM11.25 7C11.25 6.59 11.59 6.25 12 6.25C12.41 6.25 12.75 6.59 12.75 7C12.75 7.41 12.41 7.75 12 7.75C11.59 7.75 11.25 7.41 11.25 7Z" fill="#232730" fill-opacity="0.6"/>
</g>
</g>
</svg>
