<svg width="25" height="24" viewBox="0 0 25 24" fill="none" xmlns="http://www.w3.org/2000/svg">
<path opacity="0.4" d="M21.334 22H3.33398C2.92398 22 2.58398 21.66 2.58398 21.25C2.58398 20.84 2.92398 20.5 3.33398 20.5H21.334C21.744 20.5 22.084 20.84 22.084 21.25C22.084 21.66 21.744 22 21.334 22Z" fill="#22B364"/>
<path opacity="0.4" d="M19.3545 3.48016C17.4145 1.54016 15.5145 1.49016 13.5245 3.48016L12.3145 4.69016C12.2145 4.79016 12.1745 4.95016 12.2145 5.09016C12.9745 7.74016 15.0945 9.86016 17.7445 10.6202C17.7845 10.6302 17.8245 10.6402 17.8645 10.6402C17.9745 10.6402 18.0745 10.6002 18.1545 10.5202L19.3545 9.31016C20.3445 8.33016 20.8245 7.38016 20.8245 6.42016C20.8345 5.43016 20.3545 4.47016 19.3545 3.48016Z" fill="#22B364"/>
<path d="M15.9443 11.5298C15.6543 11.3898 15.3743 11.2498 15.1043 11.0898C14.8843 10.9598 14.6743 10.8198 14.4643 10.6698C14.2943 10.5598 14.0943 10.3998 13.9043 10.2398C13.8843 10.2298 13.8143 10.1698 13.7343 10.0898C13.4043 9.8098 13.0343 9.4498 12.7043 9.0498C12.6743 9.0298 12.6243 8.9598 12.5543 8.8698C12.4543 8.7498 12.2843 8.5498 12.1343 8.3198C12.0143 8.1698 11.8743 7.9498 11.7443 7.7298C11.5843 7.4598 11.4443 7.1898 11.3043 6.9098C11.1643 6.6098 11.0543 6.3198 10.9543 6.0498L4.6743 12.3298C4.5443 12.4598 4.4243 12.7098 4.3943 12.8798L3.8543 16.7098C3.7543 17.3898 3.9443 18.0298 4.3643 18.4598C4.7243 18.8098 5.2243 18.9998 5.7643 18.9998C5.8843 18.9998 6.0043 18.9898 6.1243 18.9698L9.9643 18.4298C10.1443 18.3998 10.3943 18.2798 10.5143 18.1498L16.7943 11.8698C16.5143 11.7698 16.2443 11.6598 15.9443 11.5298Z" fill="#22B364"/>
</svg>
