<svg width="24" height="24" viewBox="0 0 24 24" fill="none" xmlns="http://www.w3.org/2000/svg">
<path opacity="0.4" d="M22 9V15C22 18.5 20 20 17 20H9.73999C9.90999 19.53 10 19.03 10 18.5C10 16.02 7.99 14 5.5 14C4.09 14 2.82 14.66 2 15.68V9C2 5.5 4 4 7 4H17C20 4 22 5.5 22 9Z" fill="#232730" fill-opacity="0.6"/>
<path d="M12 14.5C13.3807 14.5 14.5 13.3807 14.5 12C14.5 10.6193 13.3807 9.5 12 9.5C10.6193 9.5 9.5 10.6193 9.5 12C9.5 13.3807 10.6193 14.5 12 14.5Z" fill="#232730" fill-opacity="0.6"/>
<path d="M18.5 14.75C18.09 14.75 17.75 14.41 17.75 14V10C17.75 9.59 18.09 9.25 18.5 9.25C18.91 9.25 19.25 9.59 19.25 10V14C19.25 14.41 18.91 14.75 18.5 14.75Z" fill="#232730" fill-opacity="0.6"/>
<path fill-rule="evenodd" clip-rule="evenodd" d="M5.5 23C7.98528 23 10 20.9853 10 18.5C10 16.0147 7.98528 14 5.5 14C3.01472 14 1 16.0147 1 18.5C1 20.9853 3.01472 23 5.5 23ZM6.04285 17.0597C5.86416 17.2244 5.86415 17.4915 6.04283 17.6563C6.20966 17.8101 6.47327 17.8203 6.65295 17.6869V20.3282C6.65295 20.5611 6.85775 20.75 7.11042 20.75C7.3631 20.75 7.56797 20.5611 7.56805 20.3282L7.56812 20.1086L7.56805 20.1008V17.6867C7.74773 17.8203 8.01155 17.8102 8.17849 17.6563C8.35717 17.4916 8.35717 17.2245 8.17849 17.0597L7.43422 16.3736C7.25554 16.2088 6.96584 16.2088 6.78715 16.3735L6.04285 17.0597ZM4.95712 19.3437C4.79023 19.1898 4.5265 19.1797 4.34683 19.3132L4.34672 16.6722C4.34672 16.4393 4.14187 16.2504 3.88917 16.2504C3.63647 16.2504 3.43162 16.4393 3.43162 16.6722L3.43172 19.3132C3.25205 19.1797 2.98837 19.1899 2.82151 19.3437C2.64283 19.5084 2.64283 19.7755 2.82151 19.9403L3.56493 20.6257L3.5718 20.6319C3.61425 20.6696 3.66266 20.6983 3.71417 20.718C3.76733 20.7383 3.82553 20.7497 3.88657 20.75L3.88931 20.75L3.89206 20.75C3.95263 20.7497 4.01042 20.7385 4.06324 20.7185C4.11766 20.6979 4.16866 20.6672 4.21285 20.6264L4.95712 19.9403C5.13581 19.7755 5.13581 19.5084 4.95712 19.3437Z" fill="#232730" fill-opacity="0.6"/>
</svg>
