<svg width="25" height="24" viewBox="0 0 25 24" fill="none" xmlns="http://www.w3.org/2000/svg">
<path d="M17.25 7.75H7.75C7.34 7.75 7 7.41 7 7V5C7 2.44 8.19 1.25 10.75 1.25H14.25C16.81 1.25 18 2.44 18 5V7C18 7.41 17.66 7.75 17.25 7.75ZM8.5 6.25H16.5V5C16.5 3.3 15.95 2.75 14.25 2.75H10.75C9.05 2.75 8.5 3.3 8.5 5V6.25Z" fill="white"/>
<path d="M13.5 22.75H11.5C9.08 22.75 7.75 21.42 7.75 19V15C7.75 14.59 8.09 14.25 8.5 14.25H16.5C16.91 14.25 17.25 14.59 17.25 15V19C17.25 21.42 15.92 22.75 13.5 22.75ZM9.25 15.75V19C9.25 20.58 9.92 21.25 11.5 21.25H13.5C15.08 21.25 15.75 20.58 15.75 19V15.75H9.25Z" fill="white"/>
<path d="M18.5 18.75H16.5C16.09 18.75 15.75 18.41 15.75 18V15.75H9.25V18C9.25 18.41 8.91 18.75 8.5 18.75H6.5C4.08 18.75 2.75 17.42 2.75 15V10C2.75 7.58 4.08 6.25 6.5 6.25H18.5C20.92 6.25 22.25 7.58 22.25 10V15C22.25 17.42 20.92 18.75 18.5 18.75ZM17.25 17.25H18.5C20.08 17.25 20.75 16.58 20.75 15V10C20.75 8.42 20.08 7.75 18.5 7.75H6.5C4.92 7.75 4.25 8.42 4.25 10V15C4.25 16.58 4.92 17.25 6.5 17.25H7.75V15C7.75 14.59 8.09 14.25 8.5 14.25H16.5C16.91 14.25 17.25 14.59 17.25 15V17.25Z" fill="white"/>
<path d="M17.5 15.75H7.5C7.09 15.75 6.75 15.41 6.75 15C6.75 14.59 7.09 14.25 7.5 14.25H17.5C17.91 14.25 18.25 14.59 18.25 15C18.25 15.41 17.91 15.75 17.5 15.75Z" fill="white"/>
<path d="M10.5 11.75H7.5C7.09 11.75 6.75 11.41 6.75 11C6.75 10.59 7.09 10.25 7.5 10.25H10.5C10.91 10.25 11.25 10.59 11.25 11C11.25 11.41 10.91 11.75 10.5 11.75Z" fill="white"/>
</svg>
