<svg width="24" height="24" viewBox="0 0 24 24" fill="none" xmlns="http://www.w3.org/2000/svg">
<path d="M16.7197 14.1813L17.2975 12.7203H18.9658L18.174 10.5039L19.1643 8L22.0002 15.5301H19.9088L19.424 14.1813H16.7197Z" fill="#232730" fill-opacity="0.6"/>
<path d="M14.9354 15.5301L17.9713 8H15.9588L13.8818 12.866L12.4049 8H10.8576L9.27207 12.866L8.15371 10.6488L7.1416 13.7664L8.16934 15.5301H10.1502L11.583 11.1664L12.9502 15.5301H14.9354Z" fill="#232730" fill-opacity="0.6"/>
<path d="M3.91055 12.9449H5.15039C5.48895 12.9497 5.82654 12.9075 6.15352 12.8195L6.47422 11.8316L7.37031 9.0707C7.30144 8.96174 7.22301 8.85912 7.13594 8.76406C6.67656 8.25469 6.00365 8 5.11719 8H2V15.5301H3.91055V12.9449ZM5.55117 9.73242C5.73086 9.91315 5.8207 10.1552 5.8207 10.4586C5.8207 10.762 5.7418 11.0043 5.58398 11.1855C5.41081 11.3845 5.0918 11.484 4.62695 11.484H3.91055V9.46094H4.63242C5.06497 9.46094 5.37135 9.55143 5.55156 9.73242H5.55117Z" fill="#232730" fill-opacity="0.6"/>
</svg>
