<svg width="24" height="24" viewBox="0 0 24 24" fill="none" xmlns="http://www.w3.org/2000/svg">
<path opacity="0.4" d="M21.0169 7.99175C21.4148 8.55833 20.9405 9.25 20.2482 9.25H3C2.44772 9.25 2 8.80228 2 8.25V6.42C2 3.98 3.98 2 6.42 2H8.74C10.37 2 10.88 2.53 11.53 3.4L12.93 5.26C13.24 5.67 13.28 5.72 13.86 5.72H16.65C18.4546 5.72 20.0516 6.61709 21.0169 7.99175Z" fill="#2C92F2"/>
<path fill-rule="evenodd" clip-rule="evenodd" d="M21.9834 11.9966C21.9815 11.4456 21.5343 11 20.9834 11L2.99999 11.0002C2.44771 11.0002 2 11.448 2 12.0002V16.9003C2 19.8503 4.4 22.2503 7.35 22.2503H16.65C19.6 22.2503 22 19.8503 22 16.9003L21.9834 11.9966ZM12.6783 13.2652C12.2952 12.9116 11.7048 12.9116 11.3217 13.2652L9.32172 15.1113C8.9159 15.4859 8.89059 16.1186 9.2652 16.5244C9.6398 16.9302 10.2725 16.9555 10.6783 16.5809L11 16.284V19C11 19.5523 11.4477 20 12 20C12.5523 20 13 19.5523 13 19V16.284L13.3217 16.5809C13.7275 16.9555 14.3602 16.9302 14.7348 16.5244C15.1094 16.1186 15.0841 15.4859 14.6783 15.1113L12.6783 13.2652Z" fill="#2C92F2"/>
</svg>
