<svg width="328" height="147" viewBox="0 0 328 147" fill="none" xmlns="http://www.w3.org/2000/svg">
<ellipse cx="168.674" cy="67.2565" rx="47.9948" ry="47.9948" fill="#467BCC" fill-opacity="0.08"/>
<g filter="url(#filter0_d_18136_32671)">
<path fill-rule="evenodd" clip-rule="evenodd" d="M134.578 44.7344C134.578 42.5252 136.369 40.7344 138.578 40.7344H198.781C200.99 40.7344 202.781 42.5252 202.781 44.7344V94.8333C202.781 97.0425 200.99 98.8333 198.781 98.8333H138.578C136.369 98.8333 134.578 97.0425 134.578 94.8333V44.7344ZM144.682 62.4167C144.682 60.2075 146.473 58.4167 148.682 58.4167H188.676C190.886 58.4167 192.676 60.2075 192.676 62.4167V69.5729C192.676 71.7821 190.886 73.5729 188.676 73.5729H148.682C146.473 73.5729 144.682 71.7821 144.682 69.5729V62.4167ZM147.839 78.625C146.095 78.625 144.682 80.0387 144.682 81.7826C144.682 83.5264 146.095 84.9401 147.839 84.9401H189.519C191.263 84.9401 192.676 83.5264 192.676 81.7826C192.676 80.0387 191.263 78.625 189.519 78.625H147.839Z" fill="url(#paint0_linear_18136_32671)"/>
</g>
<path d="M134.578 44.7344C134.578 42.5252 136.369 40.7344 138.578 40.7344H198.781C200.99 40.7344 202.781 42.5252 202.781 44.7344V48.3125H134.578V44.7344Z" fill="#AAB4C5"/>
<rect x="139.625" y="43.2617" width="2.52604" height="2.52604" rx="1.26302" fill="#798294"/>
<rect x="143.414" y="43.2617" width="2.52604" height="2.52604" rx="1.26302" fill="#9098A7"/>
<rect x="147.203" y="43.2617" width="2.52604" height="2.52604" rx="1.26302" fill="#CFD3D9"/>
<ellipse cx="118.159" cy="28.1042" rx="10.1042" ry="10.1042" fill="#467BCC" fill-opacity="0.08"/>
<circle cx="107.421" cy="46.4167" r="4.42057" fill="#467BCC" fill-opacity="0.08"/>
<circle cx="206.219" cy="103.535" r="20" fill="url(#paint1_linear_18136_32671)"/>
<path d="M204.719 111.535C204.719 111.933 204.877 112.315 205.158 112.596C205.439 112.877 205.821 113.035 206.219 113.035C206.617 113.035 206.998 112.877 207.279 112.596C207.561 112.315 207.719 111.933 207.719 111.535V105.035H214.219C214.617 105.035 214.998 104.877 215.279 104.596C215.561 104.315 215.719 103.933 215.719 103.535C215.719 103.137 215.561 102.756 215.279 102.474C214.998 102.193 214.617 102.035 214.219 102.035H207.719V95.5352C207.719 95.1373 207.561 94.7558 207.279 94.4745C206.998 94.1932 206.617 94.0352 206.219 94.0352C205.821 94.0352 205.439 94.1932 205.158 94.4745C204.877 94.7558 204.719 95.1373 204.719 95.5352V102.035H198.219C197.821 102.035 197.439 102.193 197.158 102.474C196.877 102.756 196.719 103.137 196.719 103.535C196.719 103.933 196.877 104.315 197.158 104.596C197.439 104.877 197.821 105.035 198.219 105.035H204.719V111.535Z" fill="white"/>
<defs>
<filter id="filter0_d_18136_32671" x="110.578" y="24.7344" width="132.203" height="122.098" filterUnits="userSpaceOnUse" color-interpolation-filters="sRGB">
<feFlood flood-opacity="0" result="BackgroundImageFix"/>
<feColorMatrix in="SourceAlpha" type="matrix" values="0 0 0 0 0 0 0 0 0 0 0 0 0 0 0 0 0 0 127 0" result="hardAlpha"/>
<feOffset dx="8" dy="16"/>
<feGaussianBlur stdDeviation="16"/>
<feComposite in2="hardAlpha" operator="out"/>
<feColorMatrix type="matrix" values="0 0 0 0 0.12549 0 0 0 0 0.172549 0 0 0 0 0.2 0 0 0 0.12 0"/>
<feBlend mode="normal" in2="BackgroundImageFix" result="effect1_dropShadow_18136_32671"/>
<feBlend mode="normal" in="SourceGraphic" in2="effect1_dropShadow_18136_32671" result="shape"/>
</filter>
<linearGradient id="paint0_linear_18136_32671" x1="156.049" y1="18.6315" x2="202.781" y2="107.043" gradientUnits="userSpaceOnUse">
<stop stop-color="#EFF2F7"/>
<stop offset="1" stop-color="white"/>
</linearGradient>
<linearGradient id="paint1_linear_18136_32671" x1="221.69" y1="114.856" x2="188.483" y2="91.0823" gradientUnits="userSpaceOnUse">
<stop stop-color="#AAB4C5"/>
</linearGradient>
</defs>
</svg>
