<svg width="328" height="147" viewBox="0 0 328 147" fill="none" xmlns="http://www.w3.org/2000/svg">
<ellipse cx="168.674" cy="67.2565" rx="47.9948" ry="47.9948" fill="#467BCC" fill-opacity="0.08"/>
<g filter="url(#filter0_d_18136_21021)">
<path fill-rule="evenodd" clip-rule="evenodd" d="M134.578 44.7344C134.578 42.5252 136.369 40.7344 138.578 40.7344H198.781C200.99 40.7344 202.781 42.5252 202.781 44.7344V94.8333C202.781 97.0425 200.99 98.8333 198.781 98.8333H138.578C136.369 98.8333 134.578 97.0425 134.578 94.8333V44.7344ZM144.682 62.4167C144.682 60.2075 146.473 58.4167 148.682 58.4167H188.676C190.886 58.4167 192.676 60.2075 192.676 62.4167V69.5729C192.676 71.7821 190.886 73.5729 188.676 73.5729H148.682C146.473 73.5729 144.682 71.7821 144.682 69.5729V62.4167ZM147.839 78.625C146.095 78.625 144.682 80.0387 144.682 81.7826C144.682 83.5264 146.095 84.9401 147.839 84.9401H189.519C191.263 84.9401 192.676 83.5264 192.676 81.7826C192.676 80.0387 191.263 78.625 189.519 78.625H147.839Z" fill="url(#paint0_linear_18136_21021)"/>
</g>
<path d="M134.578 44.7344C134.578 42.5252 136.369 40.7344 138.578 40.7344H198.781C200.99 40.7344 202.781 42.5252 202.781 44.7344V48.3125H134.578V44.7344Z" fill="#AAB4C5"/>
<rect x="139.625" y="43.2617" width="2.52604" height="2.52604" rx="1.26302" fill="#798294"/>
<rect x="143.414" y="43.2617" width="2.52604" height="2.52604" rx="1.26302" fill="#9098A7"/>
<rect x="147.203" y="43.2617" width="2.52604" height="2.52604" rx="1.26302" fill="#CFD3D9"/>
<ellipse cx="118.159" cy="28.1042" rx="10.1042" ry="10.1042" fill="#467BCC" fill-opacity="0.08"/>
<circle cx="107.421" cy="46.4167" r="4.42057" fill="#467BCC" fill-opacity="0.08"/>
<circle cx="202.489" cy="99.8053" r="16.2702" fill="url(#paint1_linear_18136_21021)"/>
<path d="M181.852 99.8053C181.852 110.488 190.548 119.185 201.231 119.185C211.914 119.185 220.611 110.488 220.611 99.8053C220.611 89.1224 211.914 80.4258 201.231 80.4258C190.548 80.4258 181.852 89.1224 181.852 99.8053ZM185.614 99.8053C185.614 91.2031 192.611 84.1886 201.231 84.1886C209.851 84.1886 216.848 91.2031 216.848 99.8053C216.848 108.408 209.851 115.422 201.231 115.422C192.611 115.422 185.614 108.408 185.614 99.8053Z" fill="#AAB4C5" stroke="#AAB4C5"/>
<path d="M219.239 120.476C219.614 120.851 220.093 121.028 220.568 121.028C221.044 121.028 221.523 120.851 221.898 120.476C222.628 119.747 222.628 118.546 221.898 117.817L218.214 114.133C217.485 113.404 216.284 113.404 215.555 114.133C214.825 114.862 214.825 116.063 215.555 116.793L219.239 120.476Z" fill="#AAB4C5" stroke="#AAB4C5"/>
<path d="M194.329 92.6517C193.796 92.425 193.569 91.765 193.889 91.285C194.536 90.325 195.616 89.625 197.043 89.625C198.609 89.625 199.683 90.3383 200.229 91.2317C200.696 91.9983 200.969 93.4317 200.249 94.4983C199.449 95.6783 198.683 96.0383 198.269 96.7983C198.169 96.9783 198.109 97.125 198.069 97.425C198.009 97.9117 197.609 98.2917 197.116 98.2917C196.536 98.2917 196.063 97.7917 196.129 97.2117C196.169 96.8717 196.249 96.5183 196.436 96.185C196.949 95.2583 197.936 94.7117 198.509 93.8917C199.116 93.0317 198.776 91.425 197.056 91.425C196.276 91.425 195.769 91.8317 195.456 92.3183C195.223 92.6983 194.736 92.8183 194.329 92.6517ZM198.383 100.958C198.383 101.692 197.783 102.292 197.049 102.292C196.316 102.292 195.716 101.692 195.716 100.958C195.716 100.225 196.316 99.625 197.049 99.625C197.783 99.625 198.383 100.225 198.383 100.958Z" fill="#AAB4C5"/>
<defs>
<filter id="filter0_d_18136_21021" x="110.578" y="24.7344" width="132.203" height="122.098" filterUnits="userSpaceOnUse" color-interpolation-filters="sRGB">
<feFlood flood-opacity="0" result="BackgroundImageFix"/>
<feColorMatrix in="SourceAlpha" type="matrix" values="0 0 0 0 0 0 0 0 0 0 0 0 0 0 0 0 0 0 127 0" result="hardAlpha"/>
<feOffset dx="8" dy="16"/>
<feGaussianBlur stdDeviation="16"/>
<feComposite in2="hardAlpha" operator="out"/>
<feColorMatrix type="matrix" values="0 0 0 0 0.12549 0 0 0 0 0.172549 0 0 0 0 0.2 0 0 0 0.12 0"/>
<feBlend mode="normal" in2="BackgroundImageFix" result="effect1_dropShadow_18136_21021"/>
<feBlend mode="normal" in="SourceGraphic" in2="effect1_dropShadow_18136_21021" result="shape"/>
</filter>
<linearGradient id="paint0_linear_18136_21021" x1="156.049" y1="18.6315" x2="202.781" y2="107.043" gradientUnits="userSpaceOnUse">
<stop stop-color="#EFF2F7"/>
<stop offset="1" stop-color="white"/>
</linearGradient>
<linearGradient id="paint1_linear_18136_21021" x1="215.075" y1="109.015" x2="188.061" y2="89.6748" gradientUnits="userSpaceOnUse">
<stop stop-color="#EEF1F6"/>
<stop offset="1" stop-color="#FAFBFE"/>
</linearGradient>
</defs>
</svg>
