<svg width="432" height="152" viewBox="0 0 432 152" fill="none" xmlns="http://www.w3.org/2000/svg">
<ellipse cx="223.533" cy="70.3999" rx="50.0815" ry="50.0815" fill="#467BCC" fill-opacity="0.08"/>
<g filter="url(#filter0_d_14883_47304)">
<path fill-rule="evenodd" clip-rule="evenodd" d="M191.947 42.7227C189.738 42.7227 187.947 44.5135 187.947 46.7227V99.3477C187.947 101.557 189.738 103.348 191.947 103.348H255.116C257.325 103.348 259.116 101.557 259.116 99.3477V46.7227C259.116 44.5135 257.325 42.7227 255.116 42.7227H191.947Z" fill="url(#paint0_linear_14883_47304)"/>
</g>
<rect x="238" y="63.7793" width="8" height="1" rx="0.5" transform="rotate(90 238 63.7793)" fill="#E1E5EC"/>
<rect x="238" y="78.7793" width="8" height="1" rx="0.5" transform="rotate(90 238 78.7793)" fill="#E1E5EC"/>
<rect x="235" y="57.7793" width="5" height="5" rx="2.5" fill="#AAB4C5"/>
<rect x="235" y="72.7793" width="5" height="5" rx="2.5" fill="#AAB4C5"/>
<rect x="235" y="87.7793" width="5" height="5" rx="2.5" fill="#AAB4C5"/>
<path d="M187.949 46.7227C187.949 44.5135 189.74 42.7227 191.949 42.7227H255.118C257.327 42.7227 259.118 44.5135 259.118 46.7227V50.6303H187.949V46.7227Z" fill="#AAB4C5"/>
<rect x="193.221" y="45.3594" width="2.63587" height="2.63587" rx="1.31793" fill="#798294"/>
<rect x="197.174" y="45.3594" width="2.63587" height="2.63587" rx="1.31793" fill="#9098A7"/>
<rect x="201.127" y="45.3594" width="2.63587" height="2.63587" rx="1.31793" fill="#CFD3D9"/>
<circle cx="170.815" cy="29.5435" r="10.5435" fill="#467BCC" fill-opacity="0.08"/>
<ellipse cx="159.613" cy="48.6538" rx="4.61277" ry="4.61277" fill="#467BCC" fill-opacity="0.08"/>
<rect x="217" y="58" width="16" height="2" rx="1" fill="#D2D7E1"/>
<rect x="217" y="72.7793" width="16" height="2" rx="1" fill="#D2D7E1"/>
<rect x="217" y="87.7793" width="16" height="2" rx="1" fill="#D2D7E1"/>
<rect x="209" y="60.7793" width="24" height="2" rx="1" fill="#D1D7E1"/>
<rect x="209" y="75.5586" width="24" height="2" rx="1" fill="#D1D7E1"/>
<rect x="209" y="90.5586" width="24" height="2" rx="1" fill="#D1D7E1"/>
<defs>
<filter id="filter0_d_14883_47304" x="163.947" y="26.7227" width="135.168" height="124.625" filterUnits="userSpaceOnUse" color-interpolation-filters="sRGB">
<feFlood flood-opacity="0" result="BackgroundImageFix"/>
<feColorMatrix in="SourceAlpha" type="matrix" values="0 0 0 0 0 0 0 0 0 0 0 0 0 0 0 0 0 0 127 0" result="hardAlpha"/>
<feOffset dx="8" dy="16"/>
<feGaussianBlur stdDeviation="16"/>
<feComposite in2="hardAlpha" operator="out"/>
<feColorMatrix type="matrix" values="0 0 0 0 0.12549 0 0 0 0 0.172549 0 0 0 0 0.2 0 0 0 0.12 0"/>
<feBlend mode="normal" in2="BackgroundImageFix" result="effect1_dropShadow_14883_47304"/>
<feBlend mode="normal" in="SourceGraphic" in2="effect1_dropShadow_14883_47304" result="shape"/>
</filter>
<linearGradient id="paint0_linear_14883_47304" x1="210.352" y1="19.6588" x2="259.116" y2="111.914" gradientUnits="userSpaceOnUse">
<stop stop-color="#EFF2F7"/>
<stop offset="1" stop-color="white"/>
</linearGradient>
</defs>
</svg>
