<svg width="328" height="140" viewBox="0 0 328 140" fill="none" xmlns="http://www.w3.org/2000/svg">
<ellipse cx="169.04" cy="70.3247" rx="51.3247" ry="51.3247" fill="#467BCC" fill-opacity="0.08"/>
<path fill-rule="evenodd" clip-rule="evenodd" d="M135 45.5C135 43.2457 135.896 41.0837 137.49 39.4896C139.084 37.8955 141.246 37 143.5 37H151.838C152.402 37 152.943 37.2239 153.341 37.6224C153.74 38.0209 153.963 38.5614 153.963 39.125C153.963 39.6886 153.74 40.2291 153.341 40.6276C152.943 41.0261 152.402 41.25 151.838 41.25H143.5C142.373 41.25 141.292 41.6978 140.495 42.4948C139.698 43.2918 139.25 44.3728 139.25 45.5V55.0625C139.25 55.6261 139.026 56.1666 138.628 56.5651C138.229 56.9636 137.689 57.1875 137.125 57.1875C136.561 57.1875 136.021 56.9636 135.622 56.5651C135.224 56.1666 135 55.6261 135 55.0625V45.5ZM182.812 39.125C182.812 38.5614 183.036 38.0209 183.435 37.6224C183.833 37.2239 184.374 37 184.938 37H194.5C196.754 37 198.916 37.8955 200.51 39.4896C202.104 41.0837 203 43.2457 203 45.5V55.0625C203 55.6261 202.776 56.1666 202.378 56.5651C201.979 56.9636 201.439 57.1875 200.875 57.1875C200.311 57.1875 199.771 56.9636 199.372 56.5651C198.974 56.1666 198.75 55.6261 198.75 55.0625V45.5C198.75 44.3728 198.302 43.2918 197.505 42.4948C196.708 41.6978 195.627 41.25 194.5 41.25H184.938C184.374 41.25 183.833 41.0261 183.435 40.6276C183.036 40.2291 182.812 39.6886 182.812 39.125ZM137.125 83.5885C137.689 83.5885 138.229 83.8124 138.628 84.2109C139.026 84.6094 139.25 85.1499 139.25 85.7135V96.5C139.25 97.6272 139.698 98.7082 140.495 99.5052C141.292 100.302 142.373 100.75 143.5 100.75H153.062C153.626 100.75 154.167 100.974 154.565 101.372C154.964 101.771 155.188 102.311 155.188 102.875C155.188 103.439 154.964 103.979 154.565 104.378C154.167 104.776 153.626 105 153.062 105H143.5C141.246 105 139.084 104.104 137.49 102.51C135.896 100.916 135 98.7543 135 96.5V85.7093C135 85.1457 135.224 84.6052 135.622 84.2066C136.021 83.8081 136.561 83.5885 137.125 83.5885ZM200.875 84.8082C201.439 84.8082 201.979 85.0321 202.378 85.4306C202.776 85.8292 203 86.3697 203 86.9332V96.5C203 98.7543 202.104 100.916 200.51 102.51C198.916 104.104 196.754 105 194.5 105H184.938C184.374 105 183.833 104.776 183.435 104.378C183.036 103.979 182.812 103.439 182.812 102.875C182.812 102.311 183.036 101.771 183.435 101.372C183.833 100.974 184.374 100.75 184.938 100.75H194.5C195.627 100.75 196.708 100.302 197.505 99.5052C198.302 98.7082 198.75 97.6272 198.75 96.5V86.9375C198.75 86.3739 198.974 85.8334 199.372 85.4349C199.771 85.0364 200.311 84.8125 200.875 84.8125" fill="#AAB4C5"/>
<ellipse cx="115.012" cy="28.8052" rx="10.8052" ry="10.8052" fill="#467BCC" fill-opacity="0.08"/>
<circle cx="103.532" cy="48.3894" r="4.72727" fill="#467BCC" fill-opacity="0.08"/>
<rect x="147" y="49" width="43.2208" height="43.2208" rx="16" fill="white" fill-opacity="0.5"/>
<path fill-rule="evenodd" clip-rule="evenodd" d="M172.868 63.6442C172.868 66.2091 170.789 68.2883 168.224 68.2883C165.659 68.2883 163.58 66.2091 163.58 63.6442C163.58 61.0793 165.659 59 168.224 59C170.789 59 172.868 61.0793 172.868 63.6442ZM168.224 82.2208C177.512 82.2208 177.512 79.8813 177.512 76.9961C177.512 74.1109 173.353 71.7714 168.224 71.7714C163.094 71.7714 158.936 74.1109 158.936 76.9961C158.936 79.8813 158.936 82.2208 168.224 82.2208Z" fill="#798294"/>
</svg>
