<svg width="328" height="140" viewBox="0 0 328 140" fill="none" xmlns="http://www.w3.org/2000/svg">
<g clip-path="url(#clip0_105_4296)">
<ellipse cx="172" cy="71" rx="51" ry="50" fill="#467BCC" fill-opacity="0.08"/>
<circle cx="119.5" cy="30.5" r="10.5" fill="#467BCC" fill-opacity="0.08"/>
<g filter="url(#filter0_d_105_4296)">
<rect x="142" y="40" width="61" height="60" rx="4" fill="url(#paint0_linear_105_4296)"/>
</g>
<path d="M142 44C142 41.7909 143.791 40 146 40H199C201.209 40 203 41.7909 203 44V48H142V44Z" fill="#AAB4C5"/>
<rect x="147" y="43" width="2" height="3" rx="1" fill="#798294"/>
<rect x="150" y="43" width="2" height="3" rx="1" fill="#9098A7"/>
<rect x="153" y="43" width="2" height="3" rx="1" fill="#CFD3D9"/>
<path d="M184.5 64.98C184.5 65.772 183.852 66.42 183.06 66.42H161.94C161.148 66.42 160.5 65.772 160.5 64.98V64.968C160.5 62.22 162.72 60 165.468 60H179.52C182.268 60 184.5 62.232 184.5 64.98Z" fill="#C6CDD8"/>
<path d="M160.5 69.6601V75.6721C160.5 78.4201 162.72 80.6401 165.468 80.6401H179.52C182.268 80.6401 184.5 78.4081 184.5 75.6601V69.6601C184.5 68.8681 183.852 68.2201 183.06 68.2201H161.94C161.148 68.2201 160.5 68.8681 160.5 69.6601ZM167.7 76.6201H165.3C164.808 76.6201 164.4 76.2121 164.4 75.7201C164.4 75.2281 164.808 74.8201 165.3 74.8201H167.7C168.192 74.8201 168.6 75.2281 168.6 75.7201C168.6 76.2121 168.192 76.6201 167.7 76.6201ZM175.5 76.6201H170.7C170.208 76.6201 169.8 76.2121 169.8 75.7201C169.8 75.2281 170.208 74.8201 170.7 74.8201H175.5C175.992 74.8201 176.4 75.2281 176.4 75.7201C176.4 76.2121 175.992 76.6201 175.5 76.6201Z" fill="#AAB4C5"/>
<circle cx="109.5" cy="49.5" r="4.5" fill="#467BCC" fill-opacity="0.08"/>
<circle cx="206.835" cy="94.9105" r="14.5833" fill="url(#paint1_linear_105_4296)"/>
<path d="M188.281 94.9105C188.281 104.514 196.099 112.333 205.703 112.333C215.307 112.333 223.126 104.514 223.126 94.9105C223.126 85.3065 215.307 77.4883 205.703 77.4883C196.099 77.4883 188.281 85.3065 188.281 94.9105ZM191.758 94.9105C191.758 87.2287 198.006 80.9647 205.703 80.9647C213.401 80.9647 219.649 87.2287 219.649 94.9105C219.649 102.592 213.401 108.856 205.703 108.856C198.006 108.856 191.758 102.592 191.758 94.9105Z" fill="#AAB4C5" stroke="#AAB4C5"/>
<path d="M221.809 113.474C222.156 113.82 222.599 113.983 223.038 113.983C223.477 113.983 223.92 113.82 224.266 113.474C224.941 112.8 224.941 111.691 224.266 111.017L220.965 107.715C220.291 107.041 219.182 107.041 218.507 107.715C217.833 108.389 217.833 109.498 218.507 110.172L221.809 113.474Z" fill="#AAB4C5" stroke="#AAB4C5"/>
</g>
<defs>
<filter id="filter0_d_105_4296" x="118" y="24" width="125" height="124" filterUnits="userSpaceOnUse" color-interpolation-filters="sRGB">
<feFlood flood-opacity="0" result="BackgroundImageFix"/>
<feColorMatrix in="SourceAlpha" type="matrix" values="0 0 0 0 0 0 0 0 0 0 0 0 0 0 0 0 0 0 127 0" result="hardAlpha"/>
<feOffset dx="8" dy="16"/>
<feGaussianBlur stdDeviation="16"/>
<feComposite in2="hardAlpha" operator="out"/>
<feColorMatrix type="matrix" values="0 0 0 0 0.12549 0 0 0 0 0.172549 0 0 0 0 0.2 0 0 0 0.12 0"/>
<feBlend mode="normal" in2="BackgroundImageFix" result="effect1_dropShadow_105_4296"/>
<feBlend mode="normal" in="SourceGraphic" in2="effect1_dropShadow_105_4296" result="shape"/>
</filter>
<linearGradient id="paint0_linear_105_4296" x1="161.204" y1="17.1739" x2="213.149" y2="102.284" gradientUnits="userSpaceOnUse">
<stop stop-color="#EFF2F7"/>
<stop offset="1" stop-color="white"/>
</linearGradient>
<linearGradient id="paint1_linear_105_4296" x1="218.117" y1="103.165" x2="193.903" y2="85.8303" gradientUnits="userSpaceOnUse">
<stop stop-color="#EEF1F6"/>
<stop offset="1" stop-color="#FAFBFE"/>
</linearGradient>
<clipPath id="clip0_105_4296">
<rect width="328" height="140" fill="white"/>
</clipPath>
</defs>
</svg>
