<svg width="328" height="147" viewBox="0 0 328 147" fill="none" xmlns="http://www.w3.org/2000/svg">
<ellipse cx="168.676" cy="67.2575" rx="47.9948" ry="47.9948" fill="#467BCC" fill-opacity="0.08"/>
<g filter="url(#filter0_d_13052_23534)">
<path d="M134.576 44.7344C134.576 42.5252 136.367 40.7344 138.576 40.7344H198.779C200.988 40.7344 202.779 42.5252 202.779 44.7344V94.8333C202.779 97.0425 200.988 98.8333 198.779 98.8333H138.576C136.367 98.8333 134.576 97.0425 134.576 94.8333V44.7344Z" fill="url(#paint0_linear_13052_23534)"/>
</g>
<path d="M190.801 79.9193H156.535C157.203 78.6059 157.88 77.2383 158.546 75.8445C158.83 75.8913 159.118 75.9148 159.406 75.9148C162.251 75.9148 165.621 73.6816 169.467 69.2433C169.667 69.8458 169.907 70.4985 170.203 71.1632C171.581 74.266 173.338 75.8606 175.429 75.9028H175.507C177.268 75.9028 179.047 74.744 180.905 72.3722C182.07 74.031 184.727 75.9028 190.801 75.9028C191.119 75.9028 191.424 75.7758 191.649 75.5498C191.874 75.3239 192 75.0174 192 74.6978C192 74.3782 191.874 74.0717 191.649 73.8457C191.424 73.6198 191.119 73.4928 190.801 73.4928C182.866 73.4928 182.428 70.1571 182.404 69.8659C182.414 69.6068 182.337 69.3519 182.187 69.1411C182.037 68.9303 181.822 68.7756 181.574 68.701C181.32 68.6254 181.048 68.6352 180.8 68.7291C180.551 68.823 180.341 68.9958 180.199 69.2212C177.768 72.9707 176.187 73.5049 175.475 73.4928C173.32 73.4506 171.655 68.7372 171.185 66.4638C171.139 66.2394 171.03 66.0328 170.872 65.8683C170.713 65.7037 170.511 65.588 170.289 65.5346C170.067 65.4813 169.835 65.4926 169.619 65.5672C169.404 65.6418 169.214 65.7765 169.072 65.9557C165.339 70.6531 162.013 73.292 159.65 73.4768C164.412 63.0176 165.857 56.3621 164.058 53.1649C163.5 52.1769 162.344 51 159.995 51C156.997 51 154.598 53.9361 153.434 59.0532C152.073 65.046 152.84 72.2878 156.339 74.8986C155.509 76.6338 154.66 78.3288 153.836 79.9193H149.218C148.9 79.9193 148.595 80.0463 148.37 80.2723C148.145 80.4982 148.019 80.8047 148.019 81.1243C148.019 81.4439 148.145 81.7504 148.37 81.9764C148.595 82.2023 148.9 82.3293 149.218 82.3293H152.569C150.148 86.864 148.218 90.0933 148.19 90.1435C148.104 90.2792 148.045 90.431 148.018 90.5899C147.99 90.7488 147.995 90.9117 148.031 91.0687C148.068 91.2258 148.135 91.3739 148.23 91.5043C148.324 91.6347 148.444 91.7447 148.581 91.8278C148.719 91.9108 148.872 91.9653 149.031 91.988C149.19 92.0107 149.352 92.0011 149.507 91.9598C149.662 91.9185 149.807 91.8463 149.934 91.7475C150.061 91.6487 150.167 91.5253 150.246 91.3847C150.278 91.3324 152.557 87.5147 155.285 82.3293H190.801C191.119 82.3293 191.424 82.2023 191.649 81.9764C191.874 81.7504 192 81.4439 192 81.1243C192 80.8047 191.874 80.4982 191.649 80.2723C191.424 80.0463 191.119 79.9193 190.801 79.9193ZM155.773 59.5894C156.625 55.836 158.282 53.4099 159.995 53.4099C161.275 53.4099 161.723 53.914 161.969 54.3518C162.768 55.7576 163.168 60.0052 157.395 72.6272C155.333 70.5587 154.562 64.9174 155.773 59.5894Z" fill="#D5D9E0"/>
<path d="M134.576 44.7344C134.576 42.5252 136.367 40.7344 138.576 40.7344H198.779C200.988 40.7344 202.779 42.5252 202.779 44.7344V48.3125H134.576V44.7344Z" fill="#AAB4C5"/>
<rect x="139.627" y="43.2607" width="2.52604" height="2.52604" rx="1.26302" fill="#798294"/>
<rect x="143.416" y="43.2607" width="2.52604" height="2.52604" rx="1.26302" fill="#9098A7"/>
<rect x="147.205" y="43.2607" width="2.52604" height="2.52604" rx="1.26302" fill="#CFD3D9"/>
<ellipse cx="118.157" cy="28.1042" rx="10.1042" ry="10.1042" fill="#467BCC" fill-opacity="0.08"/>
<circle cx="107.421" cy="46.4176" r="4.42057" fill="#467BCC" fill-opacity="0.08"/>
<circle cx="202.489" cy="99.8073" r="16.2702" fill="url(#paint1_linear_13052_23534)"/>
<path d="M181.848 99.8073C181.848 110.49 190.544 119.187 201.227 119.187C211.91 119.187 220.607 110.49 220.607 99.8073C220.607 89.1244 211.91 80.4277 201.227 80.4277C190.544 80.4277 181.848 89.1244 181.848 99.8073ZM185.611 99.8073C185.611 91.2051 192.607 84.1906 201.227 84.1906C209.847 84.1906 216.844 91.2051 216.844 99.8073C216.844 108.409 209.847 115.424 201.227 115.424C192.607 115.424 185.611 108.409 185.611 99.8073Z" fill="#AAB4C5" stroke="#AAB4C5"/>
<path d="M219.237 120.476C219.612 120.851 220.091 121.028 220.566 121.028C221.042 121.028 221.521 120.851 221.896 120.476C222.626 119.747 222.626 118.546 221.896 117.817L218.212 114.133C217.483 113.404 216.282 113.404 215.553 114.133C214.824 114.862 214.824 116.063 215.553 116.793L219.237 120.476Z" fill="#AAB4C5" stroke="#AAB4C5"/>
<defs>
<filter id="filter0_d_13052_23534" x="110.576" y="24.7344" width="132.203" height="122.099" filterUnits="userSpaceOnUse" color-interpolation-filters="sRGB">
<feFlood flood-opacity="0" result="BackgroundImageFix"/>
<feColorMatrix in="SourceAlpha" type="matrix" values="0 0 0 0 0 0 0 0 0 0 0 0 0 0 0 0 0 0 127 0" result="hardAlpha"/>
<feOffset dx="8" dy="16"/>
<feGaussianBlur stdDeviation="16"/>
<feComposite in2="hardAlpha" operator="out"/>
<feColorMatrix type="matrix" values="0 0 0 0 0.12549 0 0 0 0 0.172549 0 0 0 0 0.2 0 0 0 0.12 0"/>
<feBlend mode="normal" in2="BackgroundImageFix" result="effect1_dropShadow_13052_23534"/>
<feBlend mode="normal" in="SourceGraphic" in2="effect1_dropShadow_13052_23534" result="shape"/>
</filter>
<linearGradient id="paint0_linear_13052_23534" x1="156.048" y1="18.6315" x2="202.779" y2="107.043" gradientUnits="userSpaceOnUse">
<stop stop-color="#EFF2F7"/>
<stop offset="1" stop-color="white"/>
</linearGradient>
<linearGradient id="paint1_linear_13052_23534" x1="215.075" y1="109.017" x2="188.061" y2="89.6768" gradientUnits="userSpaceOnUse">
<stop stop-color="#EEF1F6"/>
<stop offset="1" stop-color="#FAFBFE"/>
</linearGradient>
</defs>
</svg>
