<svg width="24" height="24" viewBox="0 0 24 24" fill="none" xmlns="http://www.w3.org/2000/svg">
<path d="M16.6025 14.4191C16.1425 14.4192 15.7696 14.0463 15.7695 13.5863C15.7694 13.1263 16.1422 12.7534 16.6022 12.7533C17.0622 12.7532 17.4352 13.126 17.4353 13.586C17.4348 14.0458 17.0623 14.4184 16.6025 14.4191ZM7.39746 14.4191C6.93746 14.4192 6.56453 14.0463 6.56441 13.5863C6.56434 13.1263 6.93715 12.7534 7.39715 12.7533C7.85715 12.7532 8.23008 13.126 8.2302 13.586C8.22973 14.0458 7.85723 14.4185 7.39746 14.4191ZM16.9012 9.40252L18.5655 6.51986C18.6115 6.44034 18.624 6.34582 18.6003 6.25708C18.5766 6.16835 18.5186 6.09267 18.4391 6.0467C18.3595 6.00072 18.265 5.98822 18.1763 6.01194C18.0875 6.03566 18.0119 6.09366 17.9659 6.17318L16.2805 9.09224C14.9917 8.50404 13.5443 8.1765 11.9998 8.1765C10.4554 8.1765 9.00812 8.50451 7.71934 9.09224L6.0341 6.17318C6.01137 6.13379 5.98111 6.09927 5.94503 6.07158C5.90896 6.04389 5.86778 6.02358 5.82386 6.01181C5.77994 6.00003 5.73412 5.99703 5.68904 6.00296C5.64395 6.00889 5.60048 6.02365 5.56109 6.04638C5.52171 6.06911 5.48718 6.09938 5.4595 6.13545C5.43181 6.17153 5.4115 6.2127 5.39972 6.25662C5.38795 6.30055 5.38494 6.34636 5.39087 6.39145C5.39681 6.43653 5.41156 6.48001 5.4343 6.51939L7.09879 9.40252C4.24078 10.957 2.28594 13.8503 2 17.2688H22C21.7138 13.8503 19.7591 10.957 16.9012 9.40252Z" fill="#2C92F2"/>
</svg>
