<svg width="20" height="20" viewBox="0 0 20 20" fill="none" xmlns="http://www.w3.org/2000/svg">
<path d="M12.9081 17.3C12.7497 17.3 12.5914 17.2417 12.4664 17.1167C12.2247 16.875 12.2247 16.475 12.4664 16.2333L16.6414 12.0583C16.8831 11.8167 17.2831 11.8167 17.5247 12.0583C17.7664 12.3 17.7664 12.7 17.5247 12.9417L13.3497 17.1167C13.2247 17.2333 13.0664 17.3 12.9081 17.3Z" fill="#8993A9"/>
<path d="M17.0837 13.1167H2.91699C2.57533 13.1167 2.29199 12.8334 2.29199 12.4917C2.29199 12.15 2.57533 11.8667 2.91699 11.8667H17.0837C17.4253 11.8667 17.7087 12.15 17.7087 12.4917C17.7087 12.8334 17.4253 13.1167 17.0837 13.1167Z" fill="#8993A9"/>
<path d="M2.91686 8.13337C2.75853 8.13337 2.6002 8.07503 2.4752 7.95003C2.23353 7.70837 2.23353 7.30836 2.4752 7.0667L6.6502 2.8917C6.89186 2.65003 7.29186 2.65003 7.53353 2.8917C7.7752 3.13337 7.7752 3.53337 7.53353 3.77503L3.35853 7.95003C3.24186 8.0667 3.0752 8.13337 2.91686 8.13337Z" fill="#8993A9"/>
<path d="M17.0837 8.1333H2.91699C2.57533 8.1333 2.29199 7.84997 2.29199 7.5083C2.29199 7.16663 2.57533 6.8833 2.91699 6.8833H17.0837C17.4253 6.8833 17.7087 7.16663 17.7087 7.5083C17.7087 7.84997 17.4253 8.1333 17.0837 8.1333Z" fill="#8993A9"/>
</svg>
