<svg width="32" height="32" viewBox="0 0 32 32" fill="none" xmlns="http://www.w3.org/2000/svg">
<path d="M29.3337 25.3333V29.3333H2.66699V25.3333C2.66699 24.6 3.26699 24 4.00033 24H28.0003C28.7337 24 29.3337 24.6 29.3337 25.3333Z" fill="#2C92F2" stroke="#2C92F2" stroke-width="1.5" stroke-miterlimit="10" stroke-linecap="round" stroke-linejoin="round"/>
<path opacity="0.6" d="M10.6663 14.667H5.33301V24.0003H10.6663V14.667Z" fill="#2C92F2"/>
<path opacity="0.4" d="M16.0003 14.667H10.667V24.0003H16.0003V14.667Z" fill="#2C92F2"/>
<path opacity="0.6" d="M21.3333 14.667H16V24.0003H21.3333V14.667Z" fill="#2C92F2"/>
<path opacity="0.4" d="M26.6663 14.667H21.333V24.0003H26.6663V14.667Z" fill="#2C92F2"/>
<path d="M30.6663 30.333H1.33301C0.786341 30.333 0.333008 29.8797 0.333008 29.333C0.333008 28.7863 0.786341 28.333 1.33301 28.333H30.6663C31.213 28.333 31.6663 28.7863 31.6663 29.333C31.6663 29.8797 31.213 30.333 30.6663 30.333Z" fill="#2C92F2"/>
<path d="M28.4937 7.66708L16.4937 2.86711C16.227 2.76044 15.7737 2.76044 15.507 2.86711L3.507 7.66708C3.04033 7.85374 2.66699 8.4004 2.66699 8.90707V13.3337C2.66699 14.0671 3.26699 14.6671 4.00033 14.6671H28.0003C28.7337 14.6671 29.3337 14.0671 29.3337 13.3337V8.90707C29.3337 8.4004 28.9603 7.85374 28.4937 7.66708ZM16.0003 11.3337C14.8937 11.3337 14.0003 10.4404 14.0003 9.33374C14.0003 8.22708 14.8937 7.33374 16.0003 7.33374C17.107 7.33374 18.0003 8.22708 18.0003 9.33374C18.0003 10.4404 17.107 11.3337 16.0003 11.3337Z" fill="#2C92F2"/>
</svg>
