<svg width="24" height="24" viewBox="0 0 24 24" fill="none" xmlns="http://www.w3.org/2000/svg">
<path fill-rule="evenodd" clip-rule="evenodd" d="M6.81 1.25C4.60292 1.25 2.86834 3.1524 3.08204 5.35767L3.52698 13.4315C2.49274 13.8279 1.75 14.8306 1.75 16C1.75 16.7506 2.05018 17.4409 2.55964 17.9404C3.05911 18.4498 3.74945 18.75 4.5 18.75H8.75V19.5C8.75 21.2942 10.2058 22.75 12 22.75C13.7942 22.75 15.25 21.2942 15.25 19.5V18.75H19.39C20.7859 18.75 22.1096 17.7332 22.2373 16.2441L22.2376 16.2403C22.3049 15.4059 22.0092 14.6189 21.4412 14.0605C21.1687 13.7816 20.8411 13.5635 20.4734 13.4246L20.918 5.35767C21.1317 3.1524 19.3971 1.25 17.19 1.25L6.81 1.25ZM4.57615 5.22412C4.4412 3.89712 5.48315 2.75 6.81 2.75H7.24L7.24 7C7.24 7.41421 7.57578 7.75 7.99 7.75C8.40421 7.75 8.74 7.41421 8.74 7V2.75L11.25 2.75V4C11.25 4.41421 11.5858 4.75 12 4.75C12.4142 4.75 12.75 4.41421 12.75 4V2.75L17.19 2.75C18.5168 2.75 19.5588 3.89712 19.4238 5.22412C19.4227 5.23563 19.4218 5.24717 19.4211 5.25873L18.9807 13.25L5.01926 13.25L4.57886 5.25873C4.57823 5.24717 4.57732 5.23563 4.57615 5.22412ZM19.5733 14.7509L19.5688 14.7507C19.5633 14.7504 19.5554 14.7502 19.5436 14.7501L19.5 14.75L4.5 14.75L4.45636 14.7501C4.44457 14.7502 4.43675 14.7504 4.43123 14.7507L4.4267 14.7509C4.41248 14.7531 4.39821 14.7549 4.3839 14.7564C3.75032 14.8191 3.25 15.3629 3.25 16C3.25 16.3459 3.38693 16.6525 3.61302 16.8725L3.62754 16.887C3.84752 17.1131 4.15415 17.25 4.5 17.25H9.5C9.91421 17.25 10.25 17.5858 10.25 18V19.5C10.25 20.4658 11.0342 21.25 12 21.25C12.9658 21.25 13.75 20.4658 13.75 19.5V18C13.75 17.5858 14.0858 17.25 14.5 17.25H19.39C20.1133 17.25 20.6891 16.728 20.7426 16.118C20.7744 15.7168 20.6331 15.3676 20.3863 15.1268L20.3716 15.1121C20.1726 14.9069 19.9197 14.7817 19.6277 14.7574C19.6095 14.7559 19.5914 14.7537 19.5733 14.7509Z" fill="#888888"/>
</svg>
