<svg width="28" height="27" viewBox="0 0 28 27" fill="none" xmlns="http://www.w3.org/2000/svg">
<path d="M7 18H21C21.7957 18 22.5587 17.6839 23.1213 17.1213C23.6839 16.5587 24 15.7957 24 15V6.00001C24 5.20436 23.6839 4.4413 23.1213 3.87869C22.5587 3.31608 21.7957 3.00001 21 3.00001H20.07C19.9054 3.00003 19.7434 2.95943 19.5982 2.8818C19.4531 2.80418 19.3294 2.69193 19.238 2.55501L18.426 1.33601C18.1525 0.924637 17.7815 0.58735 17.346 0.354235C16.9104 0.121121 16.424 -0.000573145 15.93 9.46194e-06H12.07C11.5753 -0.00123422 11.0881 0.120144 10.6518 0.353288C10.2155 0.586432 9.84385 0.924072 9.57 1.33601L8.758 2.55501C8.66703 2.69136 8.54393 2.80327 8.39955 2.88086C8.25516 2.95846 8.09392 2.99938 7.93 3.00001H7C6.20435 3.00001 5.44129 3.31608 4.87868 3.87869C4.31607 4.4413 4 5.20436 4 6.00001V15C4 15.7957 4.31607 16.5587 4.87868 17.1213C5.44129 17.6839 6.20435 18 7 18ZM6 6.00001C6 5.73479 6.10536 5.48044 6.29289 5.2929C6.48043 5.10537 6.73478 5.00001 7 5.00001H7.93C8.42466 5.00125 8.91192 4.87988 9.34819 4.64673C9.78446 4.41359 10.1561 4.07595 10.43 3.66401L11.242 2.44501C11.333 2.30866 11.4561 2.19675 11.6005 2.11916C11.7448 2.04156 11.9061 2.00064 12.07 2.00001H15.93C16.0946 1.99998 16.2566 2.04059 16.4018 2.11821C16.5469 2.19584 16.6707 2.30809 16.762 2.44501L17.574 3.66401C17.8475 4.07538 18.2185 4.41267 18.6541 4.64578C19.0896 4.8789 19.576 5.00059 20.07 5.00001H21C21.2652 5.00001 21.5196 5.10537 21.7071 5.2929C21.8946 5.48044 22 5.73479 22 6.00001V15C22 15.2652 21.8946 15.5196 21.7071 15.7071C21.5196 15.8947 21.2652 16 21 16H7C6.73478 16 6.48043 15.8947 6.29289 15.7071C6.10536 15.5196 6 15.2652 6 15V6.00001Z" fill="white"/>
<path d="M12.707 20.293C12.5184 20.1109 12.2658 20.0101 12.0036 20.0123C11.7414 20.0146 11.4906 20.1198 11.3052 20.3052C11.1198 20.4906 11.0146 20.7414 11.0123 21.0036C11.01 21.2658 11.1108 21.5184 11.293 21.707L11.483 21.898C5.555 21.447 2 19.471 2 18C2.02737 17.7687 2.10161 17.5454 2.21818 17.3437C2.33475 17.142 2.49121 16.9662 2.678 16.827C2.87307 16.6472 2.98871 16.3973 2.9995 16.1322C3.01028 15.8671 2.91532 15.6086 2.7355 15.4135C2.55568 15.2184 2.30574 15.1028 2.04066 15.092C1.77558 15.0812 1.51707 15.1762 1.322 15.356C0.92658 15.6776 0.604175 16.0797 0.376232 16.5356C0.148289 16.9915 0.0200347 17.4907 0 18C0 21.453 5.662 23.492 11.673 23.913L11.293 24.293C11.1975 24.3853 11.1213 24.4956 11.0689 24.6176C11.0165 24.7396 10.9889 24.8708 10.9878 25.0036C10.9866 25.1364 11.0119 25.2681 11.0622 25.391C11.1125 25.5139 11.1867 25.6255 11.2806 25.7194C11.3745 25.8133 11.4861 25.8876 11.609 25.9378C11.7319 25.9881 11.8636 26.0134 11.9964 26.0123C12.1292 26.0111 12.2604 25.9835 12.3824 25.9311C12.5044 25.8787 12.6148 25.8025 12.707 25.707L14.707 23.707C14.8945 23.5195 14.9998 23.2652 14.9998 23C14.9998 22.7348 14.8945 22.4805 14.707 22.293L12.707 20.293ZM14 14C14.7911 14 15.5645 13.7654 16.2223 13.3259C16.8801 12.8864 17.3928 12.2616 17.6955 11.5307C17.9983 10.7998 18.0775 9.99557 17.9231 9.21965C17.7688 8.44372 17.3878 7.73099 16.8284 7.17158C16.269 6.61217 15.5563 6.23121 14.7804 6.07687C14.0044 5.92253 13.2002 6.00174 12.4693 6.30449C11.7384 6.60724 11.1136 7.11993 10.6741 7.77773C10.2346 8.43553 10 9.20889 10 10C10 11.0609 10.4214 12.0783 11.1716 12.8284C11.9217 13.5786 12.9391 14 14 14ZM14 8.00001C14.3956 8.00001 14.7822 8.11731 15.1111 8.33707C15.44 8.55683 15.6964 8.86919 15.8478 9.23464C15.9991 9.6001 16.0387 10.0022 15.9616 10.3902C15.8844 10.7782 15.6939 11.1345 15.4142 11.4142C15.1345 11.6939 14.7781 11.8844 14.3902 11.9616C14.0022 12.0388 13.6001 11.9991 13.2346 11.8478C12.8692 11.6964 12.5568 11.44 12.3371 11.1112C12.1173 10.7823 12 10.3956 12 10C12 9.46958 12.2107 8.96087 12.5858 8.5858C12.9609 8.21072 13.4696 8.00001 14 8.00001ZM26.678 15.356C26.4829 15.1762 26.2244 15.0812 25.9593 15.092C25.6943 15.1028 25.4443 15.2184 25.2645 15.4135C25.0847 15.6086 24.9897 15.8671 25.0005 16.1322C25.0113 16.3973 25.1269 16.6472 25.322 16.827C25.5088 16.9662 25.6652 17.142 25.7818 17.3437C25.8984 17.5454 25.9726 17.7687 26 18C26 19.063 24.061 20.6 19.8 21.452C19.5558 21.5003 19.3385 21.6378 19.1903 21.8378C19.0422 22.0378 18.974 22.2859 18.999 22.5335C19.024 22.7811 19.1404 23.0105 19.3255 23.1768C19.5106 23.3432 19.7511 23.4345 20 23.433C20.0672 23.4333 20.1342 23.4266 20.2 23.413C25.086 22.433 28 20.413 28 18C27.98 17.4907 27.8517 16.9915 27.6238 16.5356C27.3958 16.0797 27.0734 15.6776 26.678 15.356Z" fill="white"/>
</svg>
