<svg width="24" height="24" viewBox="0 0 24 24" fill="none" xmlns="http://www.w3.org/2000/svg">
<path fill-rule="evenodd" clip-rule="evenodd" d="M12 22C17.5228 22 22 17.5228 22 12C22 6.47715 17.5228 2 12 2C6.47715 2 2 6.47715 2 12C2 17.5228 6.47715 22 12 22ZM15.2408 8.85389C15.5853 8.48476 16.1638 8.46481 16.533 8.80933C16.902 9.1538 16.9219 9.73236 16.5775 10.1015L11.4602 15.6047C11.291 15.7859 11.0555 15.8907 10.8076 15.895C10.5597 15.8992 10.3207 15.8026 10.1454 15.6273L7.44444 12.9264C7.08741 12.5693 7.08741 11.9905 7.44444 11.6334C7.80147 11.2764 8.38033 11.2764 8.73737 11.6334L10.7688 13.6648L15.2408 8.85389Z" fill="#118DFF"/>
</svg>
