<svg width="24" height="24" viewBox="0 0 24 24" fill="none" xmlns="http://www.w3.org/2000/svg">
<path d="M13.475 17.45L8.52499 12.5C8.44165 12.4167 8.38332 12.3333 8.34999 12.25C8.31665 12.1667 8.29999 12.075 8.29999 11.975C8.29999 11.875 8.31665 11.7833 8.34999 11.7C8.38332 11.6167 8.44165 11.5333 8.52499 11.45L13.5 6.475C13.65 6.325 13.8292 6.25 14.0375 6.25C14.2458 6.25 14.425 6.325 14.575 6.475C14.725 6.625 14.7958 6.80833 14.7875 7.025C14.7792 7.24167 14.7 7.425 14.55 7.575L10.15 11.975L14.575 16.4C14.725 16.55 14.8 16.725 14.8 16.925C14.8 17.125 14.725 17.3 14.575 17.45C14.425 17.6 14.2417 17.675 14.025 17.675C13.8083 17.675 13.625 17.6 13.475 17.45Z" fill="black"/>
</svg>
