<svg width="24" height="24" viewBox="0 0 24 24" fill="none" xmlns="http://www.w3.org/2000/svg">
<path d="M12 15.0751C11.9 15.0751 11.8084 15.0584 11.725 15.0251C11.6417 14.9917 11.5584 14.9334 11.475 14.8501L6.52503 9.90006C6.39169 9.76672 6.32919 9.58756 6.33753 9.36256C6.34586 9.13756 6.41669 8.95839 6.55003 8.82506C6.71669 8.65839 6.89586 8.58756 7.08753 8.61256C7.27919 8.63756 7.45003 8.71672 7.60003 8.85006L12 13.2501L16.4 8.85006C16.5334 8.71672 16.7125 8.64172 16.9375 8.62506C17.1625 8.60839 17.3417 8.68339 17.475 8.85006C17.6417 8.98339 17.7125 9.15839 17.6875 9.37506C17.6625 9.59172 17.5834 9.77506 17.45 9.92506L12.525 14.8501C12.4417 14.9334 12.3584 14.9917 12.275 15.0251C12.1917 15.0584 12.1 15.0751 12 15.0751Z" fill="#072756"/>
</svg>
