<svg width="24" height="25" viewBox="0 0 24 25" fill="none" xmlns="http://www.w3.org/2000/svg">
<path opacity="0.4" d="M12 22.5C17.5228 22.5 22 18.0228 22 12.5C22 6.97715 17.5228 2.5 12 2.5C6.47715 2.5 2 6.97715 2 12.5C2 18.0228 6.47715 22.5 12 22.5Z" fill="#FF473D"/>
<path d="M13.0594 12.5L15.3594 10.2C15.6494 9.90998 15.6494 9.42999 15.3594 9.13999C15.0694 8.84999 14.5894 8.84999 14.2994 9.13999L11.9994 11.44L9.69937 9.13999C9.40937 8.84999 8.92937 8.84999 8.63938 9.13999C8.34938 9.42999 8.34938 9.90998 8.63938 10.2L10.9394 12.5L8.63938 14.8C8.34938 15.09 8.34938 15.57 8.63938 15.86C8.78938 16.01 8.97937 16.08 9.16937 16.08C9.35937 16.08 9.54937 16.01 9.69937 15.86L11.9994 13.56L14.2994 15.86C14.4494 16.01 14.6394 16.08 14.8294 16.08C15.0194 16.08 15.2094 16.01 15.3594 15.86C15.6494 15.57 15.6494 15.09 15.3594 14.8L13.0594 12.5Z" fill="#FF473D"/>
</svg>
