<svg width="48" height="48" viewBox="0 0 48 48" fill="none" xmlns="http://www.w3.org/2000/svg">
<path opacity="0.4" d="M24 44C35.0457 44 44 35.0457 44 24C44 12.9543 35.0457 4 24 4C12.9543 4 4 12.9543 4 24C4 35.0457 12.9543 44 24 44Z" fill="#B30000"/>
<path d="M26.1187 24L30.7187 19.4C31.2987 18.82 31.2987 17.86 30.7187 17.28C30.1387 16.7 29.1787 16.7 28.5987 17.28L23.9987 21.88L19.3987 17.28C18.8187 16.7 17.8587 16.7 17.2787 17.28C16.6988 17.86 16.6988 18.82 17.2787 19.4L21.8787 24L17.2787 28.6C16.6988 29.18 16.6988 30.14 17.2787 30.72C17.5787 31.02 17.9587 31.16 18.3387 31.16C18.7187 31.16 19.0987 31.02 19.3987 30.72L23.9987 26.12L28.5987 30.72C28.8987 31.02 29.2787 31.16 29.6587 31.16C30.0387 31.16 30.4187 31.02 30.7187 30.72C31.2987 30.14 31.2987 29.18 30.7187 28.6L26.1187 24Z" fill="#B30000"/>
</svg>
