<svg width="88" height="88" viewBox="0 0 88 88" fill="none" xmlns="http://www.w3.org/2000/svg">
<g clip-path="url(#clip0_26264_229968)">
<path opacity="0.1" fill-rule="evenodd" clip-rule="evenodd" d="M87.9961 44C87.9961 68.3005 68.2966 88 43.9961 88C28.1 88 14.1728 79.5705 6.44057 66.9377C9.50435 69.4744 13.4318 71.0002 17.7081 71.0002H32.5394C42.3049 71.0002 50.2474 63.0444 50.2474 53.2673V39.5675C50.2474 29.7883 42.3027 21.8324 32.5394 21.8324L21.0191 21.7529V34.8236L32.5394 35.1702C34.9598 35.1702 36.9305 37.1437 36.9305 39.5675V53.2673C36.9305 55.6911 34.9598 57.6647 32.5394 57.6647H17.7081C15.2876 57.6647 13.3169 55.6911 13.3169 53.2673V42.1878H0.0327333C0.134615 39.6729 0.447592 37.2123 0.954424 34.8234H13.3169V12.4597C21.2427 4.74893 32.0648 0 43.9961 0C68.2966 0 87.9961 19.6995 87.9961 44ZM0 43.4076C-0.00260145 43.6048 -0.00390625 43.8022 -0.00390625 44C-0.00390625 44.1978 -0.00260145 44.3952 0 44.5924V43.4076Z" fill="#2C92F2"/>
<path opacity="0.4" d="M41.8994 61.667H26.3327C22.666 61.667 19.666 64.667 19.666 68.3336V88.3333H41.8994V61.667Z" fill="#2C92F2"/>
<path d="M57.4319 48.334H48.5319C44.8652 48.334 41.8652 51.334 41.8652 55.0007V88.3337H64.0985V55.0007C64.0985 51.334 61.1319 48.334 57.4319 48.334Z" fill="#2C92F2"/>
<path opacity="0.4" d="M79.6663 71.667H64.0996V88.3333H86.3329V78.3336C86.3329 74.667 83.3329 71.667 79.6663 71.667Z" fill="#2C92F2"/>
<path d="M63.0336 31.1669C64.067 30.1336 64.467 28.9003 64.1336 27.8336C63.8003 26.7669 62.767 26.0003 61.3003 25.7669L58.1003 25.2336C57.967 25.2003 57.667 25.0002 57.6003 24.8669L55.8336 21.3336C54.5003 18.6336 51.467 18.6336 50.1336 21.3336L48.367 24.8669C48.3003 25.0002 48.0003 25.2003 47.867 25.2336L44.667 25.7669C43.2003 26.0003 42.2003 26.7669 41.8336 27.8336C41.5003 28.9003 41.9003 30.1336 42.9336 31.1669L45.4003 33.6669C45.5003 33.7669 45.6336 34.1669 45.6003 34.3003L44.9003 37.3669C44.367 39.6336 45.2336 40.6669 45.8003 41.1002C46.367 41.5002 47.6003 42.0336 49.6336 40.8336L52.6336 39.0669C52.767 38.9669 53.2003 38.9669 53.3336 39.0669L56.3336 40.8336C57.267 41.4002 58.0336 41.5669 58.6336 41.5669C59.3336 41.5669 59.8336 41.3002 60.1336 41.1002C60.7003 40.7002 61.567 39.6669 61.0336 37.3669L60.3336 34.3003C60.3003 34.1336 60.4003 33.7669 60.5336 33.6669L63.0336 31.1669Z" fill="#2C92F2"/>
</g>
<defs>
<clipPath id="clip0_26264_229968">
<rect width="88" height="88" rx="44" fill="white"/>
</clipPath>
</defs>
</svg>
