<svg width="24" height="24" viewBox="0 0 24 24" fill="none" xmlns="http://www.w3.org/2000/svg">
<path opacity="0.4" d="M20.0383 6.82006L14.2783 2.79006C12.7083 1.69006 10.2983 1.75006 8.78828 2.92006L3.77828 6.83006C2.77828 7.61006 1.98828 9.21006 1.98828 10.4701V17.3701C1.98828 19.9201 4.05828 22.0001 6.60828 22.0001H17.3883C19.9383 22.0001 22.0083 19.9301 22.0083 17.3801V10.6001C22.0083 9.25006 21.1383 7.59006 20.0383 6.82006Z" fill="white"/>
<path d="M12 18.75C11.59 18.75 11.25 18.41 11.25 18V15C11.25 14.59 11.59 14.25 12 14.25C12.41 14.25 12.75 14.59 12.75 15V18C12.75 18.41 12.41 18.75 12 18.75Z" fill="white"/>
</svg>
