<svg width="22" height="22" viewBox="0 0 22 22" fill="none" xmlns="http://www.w3.org/2000/svg">
<path d="M14 21.75H8C2.57 21.75 0.25 19.43 0.25 14V8C0.25 2.57 2.57 0.25 8 0.25H13C13.41 0.25 13.75 0.59 13.75 1C13.75 1.41 13.41 1.75 13 1.75H8C3.39 1.75 1.75 3.39 1.75 8V14C1.75 18.61 3.39 20.25 8 20.25H14C18.61 20.25 20.25 18.61 20.25 14V9C20.25 8.59 20.59 8.25 21 8.25C21.41 8.25 21.75 8.59 21.75 9V14C21.75 19.43 19.43 21.75 14 21.75Z" fill="#2C92F2"/>
<path d="M21 9.75H17C13.58 9.75 12.25 8.42 12.25 5V1C12.25 0.7 12.43 0.42 12.71 0.31C12.99 0.19 13.31 0.26 13.53 0.47L21.53 8.47C21.74 8.68 21.81 9.01 21.69 9.29C21.57 9.57 21.3 9.75 21 9.75ZM13.75 2.81V5C13.75 7.58 14.42 8.25 17 8.25H19.19L13.75 2.81Z" fill="#2C92F2"/>
<path d="M9.74656 17.4575C9.55656 17.4575 9.36656 17.3875 9.21656 17.2375L5.25656 13.2775C4.96656 12.9875 4.96656 12.5075 5.25656 12.2175C5.54656 11.9275 6.02656 11.9275 6.31656 12.2175L10.2766 16.1775C10.5666 16.4675 10.5666 16.9475 10.2766 17.2375C10.1266 17.3775 9.93656 17.4575 9.74656 17.4575Z" fill="#2C92F2"/>
<path d="M5.7475 17.4975C5.5575 17.4975 5.3675 17.4275 5.2175 17.2775C4.9275 16.9875 4.9275 16.5075 5.2175 16.2175L9.1775 12.2575C9.4675 11.9675 9.9475 11.9675 10.2375 12.2575C10.5275 12.5475 10.5275 13.0275 10.2375 13.3175L6.2775 17.2775C6.1275 17.4275 5.9375 17.4975 5.7475 17.4975Z" fill="#2C92F2"/>
</svg>
