<svg width="24" height="24" viewBox="0 0 24 24" fill="none" xmlns="http://www.w3.org/2000/svg">
<path d="M4.2016 16.9276L4.20167 16.9274C3.45775 16.6449 2.8821 16.1745 2.50092 15.5049C2.12562 14.8455 1.9592 14.0292 1.9592 13.08V7.92999C1.9592 6.6271 2.27424 5.56285 3.00814 4.82896C3.74205 4.09506 4.8063 3.78003 6.10919 3.78003H14.8992C15.9846 3.78003 16.9019 3.9963 17.6047 4.49465C18.3181 5.00051 18.7495 5.75359 18.9392 6.70037C18.9393 6.70089 18.9394 6.70141 18.9395 6.70193L18.4492 6.79999C18.5192 7.13999 18.5492 7.50999 18.5492 7.92999V13.08C18.5492 15.54 17.3592 16.73 14.8992 16.73H6.10919C5.69919 16.73 5.32922 16.69 4.94922 16.61L4.2016 16.9276ZM4.2016 16.9276L4.21404 16.932C4.43317 17.0086 4.64749 17.0659 4.85636 17.1014L4.2016 16.9276ZM4.76001 17.5824L4.73713 17.5772L4.71387 17.5742C4.53719 17.5512 4.29749 17.4853 4.02654 17.3825L4.02516 17.382C3.42513 17.1564 2.78932 16.7733 2.3019 16.1169C1.8171 15.464 1.44922 14.5006 1.44922 13.06V7.90997C1.44922 6.36979 1.89025 5.22356 2.65152 4.4623C3.41279 3.70104 4.55903 3.26001 6.09921 3.26001H14.8892C16.1916 3.26001 17.2137 3.57115 17.9565 4.12169C18.6938 4.66813 19.1998 5.48261 19.4189 6.57804L19.4194 6.58018C19.5011 6.98 19.5392 7.41538 19.5392 7.90997V13.06C19.5392 14.6116 19.0999 15.7599 18.3404 16.5204C17.5811 17.2809 16.4355 17.72 14.8892 17.72H6.09921C5.61018 17.72 5.15797 17.6729 4.76001 17.5824Z" stroke="#2C92F2"/>
<path d="M7.02055 20.3833L7.02055 20.3833L7.01627 20.3817C5.7204 19.8968 4.87025 18.8855 4.57145 17.3825L4.57134 17.3819C4.55376 17.294 4.58455 17.2105 4.63438 17.1635L4.63957 17.1586L4.64462 17.1535C4.69745 17.1007 4.77771 17.0754 4.86439 17.0962L4.86434 17.0963L4.87732 17.0991C5.24413 17.1769 5.64907 17.22 6.10107 17.22H14.8911C16.194 17.22 17.2582 16.9049 17.9921 16.171C18.726 15.4371 19.0411 14.3729 19.0411 13.07V7.91997C19.0411 7.47747 19.0096 7.07244 18.9311 6.69052C18.9157 6.61121 18.9384 6.52645 18.9997 6.45852C19.0651 6.39605 19.1381 6.38024 19.2044 6.39615L19.2127 6.39814L19.221 6.39985C20.3173 6.62366 21.1327 7.13242 21.6796 7.86922C22.2303 8.61118 22.5411 9.62844 22.5411 10.92V16.07C22.5411 17.6162 22.1019 18.762 21.3425 19.5214C20.5831 20.2808 19.4373 20.72 17.8911 20.72H9.10107C8.29607 20.72 7.59976 20.6061 7.02055 20.3833ZM5.92107 17.72H5.07416L5.48329 18.4615C5.86332 19.1503 6.4393 19.639 7.2078 19.919C7.7581 20.125 8.40005 20.22 9.11105 20.22H17.9011C19.2039 20.22 20.2682 19.9049 21.0021 19.171C21.736 18.4371 22.051 17.3729 22.051 16.07V10.92C22.051 9.23751 21.5212 7.9712 20.2902 7.30086L19.551 6.89837V7.73997V7.74032V7.74068V7.74103V7.74138V7.74173V7.74208V7.74243V7.74279V7.74314V7.74349V7.74384V7.74419V7.74454V7.74489V7.74525V7.7456V7.74595V7.7463V7.74665V7.747V7.74736V7.74771V7.74806V7.74841V7.74876V7.74911V7.74947V7.74982V7.75017V7.75052V7.75087V7.75122V7.75157V7.75193V7.75228V7.75263V7.75298V7.75333V7.75368V7.75404V7.75439V7.75474V7.75509V7.75544V7.75579V7.75614V7.7565V7.75685V7.7572V7.75755V7.7579V7.75825V7.75861V7.75896V7.75931V7.75966V7.76001V7.76036V7.76071V7.76107V7.76142V7.76177V7.76212V7.76247V7.76282V7.76318V7.76353V7.76388V7.76423V7.76458V7.76493V7.76529V7.76564V7.76599V7.76634V7.76669V7.76704V7.76739V7.76775V7.7681V7.76845V7.7688V7.76915V7.7695V7.76986V7.77021V7.77056V7.77091V7.77126V7.77161V7.77196V7.77232V7.77267V7.77302V7.77337V7.77372V7.77407V7.77443V7.77478V7.77513V7.77548V7.77583V7.77618V7.77653V7.77689V7.77724V7.77759V7.77794V7.77829V7.77864V7.779V7.77935V7.7797V7.78005V7.7804V7.78075V7.7811V7.78146V7.78181V7.78216V7.78251V7.78286V7.78321V7.78357V7.78392V7.78427V7.78462V7.78497V7.78532V7.78567V7.78603V7.78638V7.78673V7.78708V7.78743V7.78778V7.78814V7.78849V7.78884V7.78919V7.78954V7.78989V7.79024V7.7906V7.79095V7.7913V7.79165V7.792V7.79235V7.79271V7.79306V7.79341V7.79376V7.79411V7.79446V7.79482V7.79517V7.79552V7.79587V7.79622V7.79657V7.79692V7.79728V7.79763V7.79798V7.79833V7.79868V7.79903V7.79939V7.79974V7.80009V7.80044V7.80079V7.80114V7.80149V7.80185V7.8022V7.80255V7.8029V7.80325V7.8036V7.80396V7.80431V7.80466V7.80501V7.80536V7.80571V7.80606V7.80642V7.80677V7.80712V7.80747V7.80782V7.80817V7.80853V7.80888V7.80923V7.80958V7.80993V7.81028V7.81063V7.81099V7.81134V7.81169V7.81204V7.81239V7.81274V7.8131V7.81345V7.8138V7.81415V7.8145V7.81485V7.8152V7.81556V7.81591V7.81626V7.81661V7.81696V7.81731V7.81767V7.81802V7.81837V7.81872V7.81907V7.81942V7.81977V7.82013V7.82048V7.82083V7.82118V7.82153V7.82188V7.82224V7.82259V7.82294V7.82329V7.82364V7.82399V7.82434V7.8247V7.82505V7.8254V7.82575V7.8261V7.82645V7.82681V7.82716V7.82751V7.82786V7.82821V7.82856V7.82891V7.82927V7.82962V7.82997V7.83032V7.83067V7.83102V7.83138V7.83173V7.83208V7.83243V7.83278V7.83313V7.83348V7.83384V7.83419V7.83454V7.83489V7.83524V7.83559V7.83595V7.8363V7.83665V7.837V7.83735V7.8377V7.83805V7.83841V7.83876V7.83911V7.83946V7.83981V7.84016V7.84052V7.84087V7.84122V7.84157V7.84192V7.84227V7.84262V7.84298V7.84333V7.84368V7.84403V7.84438V7.84473V7.84509V7.84544V7.84579V7.84614V7.84649V7.84684V7.84719V7.84755V7.8479V7.84825V7.8486V7.84895V7.8493V7.84966V7.85001V7.85036V7.85071V7.85106V7.85141V7.85176V7.85212V7.85247V7.85282V7.85317V7.85352V7.85387V7.85423V7.85458V7.85493V7.85528V7.85563V7.85598V7.85633V7.85669V7.85704V7.85739V7.85774V7.85809V7.85844V7.8588V7.85915V7.8595V7.85985V7.8602V7.86055V7.8609V7.86126V7.86161V7.86196V7.86231V7.86266V7.86301V7.86337V7.86372V7.86407V7.86442V7.86477V7.86512V7.86547V7.86583V7.86618V7.86653V7.86688V7.86723V7.86758V7.86794V7.86829V7.86864V7.86899V7.86934V7.86969V7.87005V7.8704V7.87075V7.8711V7.87145V7.8718V7.87215V7.87251V7.87286V7.87321V7.87356V7.87391V7.87426V7.87462V7.87497V7.87532V7.87567V7.87602V7.87637V7.87672V7.87708V7.87743V7.87778V7.87813V7.87848V7.87883V7.87919V7.87954V7.87989V7.88024V7.88059V7.88094V7.88129V7.88165V7.882V7.88235V7.8827V7.88305V7.8834V7.88376V7.88411V7.88446V7.88481V7.88516V7.88551V7.88586V7.88622V7.88657V7.88692V7.88727V7.88762V7.88797V7.88833V7.88868V7.88903V7.88938V7.88973V7.89008V7.89043V7.89079V7.89114V7.89149V7.89184V7.89219V7.89254V7.8929V7.89325V7.8936V7.89395V7.8943V7.89465V7.895V7.89536V7.89571V7.89606V7.89641V7.89676V7.89711V7.89747V7.89782V7.89817V7.89852V7.89887V7.89922V7.89958V7.89993V7.90028V7.90063V7.90098V7.90133V7.90168V7.90204V7.90239V7.90274V7.90309V7.90344V7.90379V7.90415V7.9045V7.90485V7.9052V7.90555V7.9059V7.90625V7.90661V7.90696V7.90731V7.90766V7.90801V7.90836V7.90872V7.90907V7.90942V7.90977V7.91012V7.91047V7.91083V7.91118V7.91153V7.91188V7.91223V7.91258V7.91293V7.91329V7.91364V7.91399V7.91434V7.91469V7.91504V7.9154V7.91575V7.9161V7.91645V7.9168V7.91715V7.9175V7.91786V7.91821V7.91856V7.91891V7.91926V7.91961V7.91997V13.07C19.551 14.6102 19.11 15.7564 18.3488 16.5177C17.5875 17.2789 16.4412 17.72 14.9011 17.72H6.11105H6.11064H6.11023H6.10982H6.10941H6.109H6.10859H6.10818H6.10777H6.10736H6.10696H6.10655H6.10614H6.10573H6.10533H6.10492H6.10451H6.10411H6.1037H6.10329H6.10289H6.10248H6.10208H6.10167H6.10127H6.10086H6.10046H6.10005H6.09965H6.09925H6.09884H6.09844H6.09804H6.09763H6.09723H6.09683H6.09643H6.09602H6.09562H6.09522H6.09482H6.09442H6.09402H6.09362H6.09322H6.09282H6.09242H6.09202H6.09162H6.09122H6.09082H6.09042H6.09002H6.08962H6.08922H6.08882H6.08842H6.08803H6.08763H6.08723H6.08683H6.08644H6.08604H6.08564H6.08525H6.08485H6.08445H6.08406H6.08366H6.08327H6.08287H6.08248H6.08208H6.08169H6.08129H6.0809H6.0805H6.08011H6.07972H6.07932H6.07893H6.07854H6.07814H6.07775H6.07736H6.07697H6.07657H6.07618H6.07579H6.0754H6.07501H6.07462H6.07423H6.07383H6.07344H6.07305H6.07266H6.07227H6.07188H6.07149H6.0711H6.07071H6.07033H6.06994H6.06955H6.06916H6.06877H6.06838H6.06799H6.06761H6.06722H6.06683H6.06644H6.06606H6.06567H6.06528H6.0649H6.06451H6.06412H6.06374H6.06335H6.06297H6.06258H6.06219H6.06181H6.06142H6.06104H6.06065H6.06027H6.05989H6.0595H6.05912H6.05873H6.05835H6.05797H6.05758H6.0572H6.05682H6.05643H6.05605H6.05567H6.05529H6.0549H6.05452H6.05414H6.05376H6.05338H6.053H6.05261H6.05223H6.05185H6.05147H6.05109H6.05071H6.05033H6.04995H6.04957H6.04919H6.04881H6.04843H6.04805H6.04767H6.04729H6.04692H6.04654H6.04616H6.04578H6.0454H6.04502H6.04465H6.04427H6.04389H6.04351H6.04314H6.04276H6.04238H6.04201H6.04163H6.04125H6.04088H6.0405H6.04012H6.03975H6.03937H6.039H6.03862H6.03825H6.03787H6.0375H6.03712H6.03675H6.03637H6.036H6.03562H6.03525H6.03487H6.0345H6.03413H6.03375H6.03338H6.03301H6.03263H6.03226H6.03189H6.03151H6.03114H6.03077H6.0304H6.03003H6.02965H6.02928H6.02891H6.02854H6.02817H6.02779H6.02742H6.02705H6.02668H6.02631H6.02594H6.02557H6.0252H6.02483H6.02446H6.02409H6.02372H6.02335H6.02298H6.02261H6.02224H6.02187H6.0215H6.02113H6.02076H6.02039H6.02003H6.01966H6.01929H6.01892H6.01855H6.01818H6.01782H6.01745H6.01708H6.01671H6.01635H6.01598H6.01561H6.01524H6.01488H6.01451H6.01414H6.01378H6.01341H6.01304H6.01268H6.01231H6.01194H6.01158H6.01121H6.01085H6.01048H6.01012H6.00975H6.00939H6.00902H6.00866H6.00829H6.00793H6.00756H6.0072H6.00683H6.00647H6.0061H6.00574H6.00537H6.00501H6.00465H6.00428H6.00392H6.00356H6.00319H6.00283H6.00247H6.0021H6.00174H6.00138H6.00101H6.00065H6.00029H5.99993H5.99956H5.9992H5.99884H5.99848H5.99811H5.99775H5.99739H5.99703H5.99667H5.99631H5.99594H5.99558H5.99522H5.99486H5.9945H5.99414H5.99378H5.99342H5.99306H5.99269H5.99233H5.99197H5.99161H5.99125H5.99089H5.99053H5.99017H5.98981H5.98945H5.98909H5.98873H5.98837H5.98801H5.98766H5.9873H5.98694H5.98658H5.98622H5.98586H5.9855H5.98514H5.98478H5.98442H5.98407H5.98371H5.98335H5.98299H5.98263H5.98227H5.98192H5.98156H5.9812H5.98084H5.98048H5.98013H5.97977H5.97941H5.97905H5.9787H5.97834H5.97798H5.97762H5.97727H5.97691H5.97655H5.9762H5.97584H5.97548H5.97512H5.97477H5.97441H5.97405H5.9737H5.97334H5.97299H5.97263H5.97227H5.97192H5.97156H5.9712H5.97085H5.97049H5.97014H5.96978H5.96943H5.96907H5.96871H5.96836H5.968H5.96765H5.96729H5.96694H5.96658H5.96623H5.96587H5.96552H5.96516H5.96481H5.96445H5.9641H5.96374H5.96339H5.96303H5.96268H5.96232H5.96197H5.96161H5.96126H5.96091H5.96055H5.9602H5.95984H5.95949H5.95913H5.95878H5.95843H5.95807H5.95772H5.95736H5.95701H5.95666H5.9563H5.95595H5.9556H5.95524H5.95489H5.95453H5.95418H5.95383H5.95347H5.95312H5.95277H5.95241H5.95206H5.95171H5.95135H5.951H5.95065H5.9503H5.94994H5.94959H5.94924H5.94888H5.94853H5.94818H5.94782H5.94747H5.94712H5.94677H5.94641H5.94606H5.94571H5.94536H5.945H5.94465H5.9443H5.94395H5.94359H5.94324H5.94289H5.94254H5.94218H5.94183H5.94148H5.94113H5.94077H5.94042H5.94007H5.93972H5.93937H5.93901H5.93866H5.93831H5.93796H5.93761H5.93725H5.9369H5.93655H5.9362H5.93585H5.93549H5.93514H5.93479H5.93444H5.93409H5.93373H5.93338H5.93303H5.93268H5.93233H5.93198H5.93162H5.93127H5.93092H5.93057H5.93022H5.92986H5.92951H5.92916H5.92881H5.92846H5.92811H5.92775H5.9274H5.92705H5.9267H5.92635H5.926H5.92565H5.92529H5.92494H5.92459H5.92424H5.92389H5.92354H5.92318H5.92283H5.92248H5.92213H5.92178H5.92143H5.92107Z" stroke="#2C92F2"/>
<path d="M10.4994 13.39C8.90553 13.39 7.60938 12.0939 7.60938 10.5C7.60938 8.90614 8.90553 7.60999 10.4994 7.60999C12.0932 7.60999 13.3894 8.90614 13.3894 10.5C13.3894 12.0939 12.0932 13.39 10.4994 13.39ZM10.4994 8.10999C9.18325 8.10999 8.10938 9.18386 8.10938 10.5C8.10938 11.8161 9.18325 12.89 10.4994 12.89C11.8155 12.89 12.8894 11.8161 12.8894 10.5C12.8894 9.18386 11.8155 8.10999 10.4994 8.10999Z" stroke="#2C92F2"/>
<path d="M4.78125 12.9501C4.64739 12.9501 4.53125 12.8339 4.53125 12.7001V8.30005C4.53125 8.16619 4.64739 8.05005 4.78125 8.05005C4.91511 8.05005 5.03125 8.16619 5.03125 8.30005V12.7001C5.03125 12.8383 4.92077 12.9501 4.78125 12.9501Z" stroke="#2C92F2"/>
<path d="M16.2109 13.4501C15.8009 13.4501 15.4609 13.1101 15.4609 12.7001V8.30005C15.4609 7.89005 15.8009 7.55005 16.2109 7.55005C16.6209 7.55005 16.9609 7.89005 16.9609 8.30005V12.7001C16.9609 13.1101 16.6309 13.4501 16.2109 13.4501Z" fill="#2C92F2"/>
</svg>
