<svg width="25" height="24" viewBox="0 0 25 24" fill="none" xmlns="http://www.w3.org/2000/svg">
<path opacity="0.4" d="M21.668 22H3.66797C3.25797 22 2.91797 21.66 2.91797 21.25C2.91797 20.84 3.25797 20.5 3.66797 20.5H21.668C22.078 20.5 22.418 20.84 22.418 21.25C22.418 21.66 22.078 22 21.668 22Z" fill="#22B364"/>
<path opacity="0.4" d="M19.6866 3.48004C17.7466 1.54004 15.8466 1.49004 13.8566 3.48004L12.6466 4.69004C12.5466 4.79004 12.5066 4.95004 12.5466 5.09004C13.3066 7.74004 15.4266 9.86003 18.0766 10.62C18.1166 10.63 18.1566 10.64 18.1966 10.64C18.3066 10.64 18.4066 10.6 18.4866 10.52L19.6866 9.31004C20.6766 8.33004 21.1566 7.38004 21.1566 6.42004C21.1666 5.43004 20.6866 4.47004 19.6866 3.48004Z" fill="#22B364"/>
<path d="M16.2763 11.53C15.9863 11.39 15.7063 11.25 15.4363 11.09C15.2163 10.96 15.0063 10.82 14.7963 10.67C14.6263 10.56 14.4263 10.4 14.2363 10.24C14.2163 10.23 14.1463 10.17 14.0663 10.09C13.7363 9.81005 13.3663 9.45005 13.0363 9.05005C13.0063 9.03005 12.9563 8.96005 12.8863 8.87005C12.7863 8.75005 12.6163 8.55005 12.4663 8.32005C12.3463 8.17005 12.2063 7.95005 12.0763 7.73005C11.9163 7.46005 11.7763 7.19005 11.6363 6.91005C11.4963 6.61005 11.3863 6.32005 11.2863 6.05005L5.00633 12.33C4.87633 12.46 4.75633 12.71 4.72633 12.88L4.18633 16.71C4.08633 17.39 4.27633 18.03 4.69633 18.46C5.05633 18.81 5.55633 19 6.09633 19C6.21633 19 6.33633 18.99 6.45633 18.97L10.2963 18.43C10.4763 18.4 10.7263 18.28 10.8463 18.15L17.1263 11.87C16.8463 11.77 16.5763 11.66 16.2763 11.53Z" fill="#22B364"/>
</svg>
