<svg width="24" height="24" viewBox="0 0 24 24" fill="none" xmlns="http://www.w3.org/2000/svg">
<path d="M19.09 14.4412V18.8812C19.0898 19.5094 18.8401 20.1118 18.3959 20.5561C17.9516 21.0003 17.3492 21.25 16.721 21.2502H5.12002C4.80777 21.2501 4.49863 21.1883 4.21035 21.0683C3.92208 20.9483 3.66035 20.7726 3.44021 20.5511C3.22007 20.3297 3.04586 20.0669 2.92758 19.7779C2.80931 19.489 2.74931 19.1795 2.75102 18.8672V7.27922C2.74916 6.96747 2.80919 6.65845 2.92764 6.37007C3.04608 6.08169 3.22059 5.81968 3.44103 5.59924C3.66148 5.37879 3.92348 5.20429 4.21186 5.08584C4.50025 4.9674 4.80927 4.90736 5.12102 4.90922H9.56002" stroke="#0A74DA" stroke-width="1.5" stroke-linecap="round" stroke-linejoin="round"/>
<path d="M19.09 8.99521L15.005 4.90921M6.83496 15.8032V13.6382C6.83696 13.2812 6.97896 12.9382 7.22996 12.6852L16.762 3.15321C16.8884 3.02532 17.039 2.92378 17.205 2.85449C17.371 2.78519 17.5491 2.74951 17.729 2.74951C17.9088 2.74951 18.0869 2.78519 18.2529 2.85449C18.4189 2.92378 18.5695 3.02532 18.696 3.15321L20.847 5.30421C20.9749 5.43069 21.0764 5.58128 21.1457 5.74727C21.215 5.91326 21.2507 6.09134 21.2507 6.27121C21.2507 6.45108 21.215 6.62917 21.1457 6.79515C21.0764 6.96114 20.9749 7.11173 20.847 7.23821L11.315 16.7702C11.0615 17.0219 10.7192 17.1638 10.362 17.1652H8.19696C8.01803 17.1655 7.8408 17.1304 7.67544 17.0621C7.51007 16.9937 7.35982 16.8934 7.2333 16.7669C7.10677 16.6404 7.00646 16.4901 6.9381 16.3247C6.86975 16.1594 6.8347 15.9821 6.83496 15.8032Z" stroke="#0A74DA" stroke-width="1.5" stroke-linecap="round" stroke-linejoin="round"/>
</svg>
