<svg width="25" height="24" viewBox="0 0 25 24" fill="none" xmlns="http://www.w3.org/2000/svg">
<path opacity="0.1" d="M12.5023 22.0691C18.0631 22.0691 22.571 17.5611 22.571 12.0003C22.571 6.43956 18.0631 1.93164 12.5023 1.93164C6.94151 1.93164 2.43359 6.43956 2.43359 12.0003C2.43359 17.5611 6.94151 22.0691 12.5023 22.0691Z" fill="#232730"/>
<path opacity="0.4" d="M2.61523 11.2745H12.2188L12.8935 10.5947L13.9924 12.7976L15.7097 8.77518L17.3196 12.7976L19.6503 5.65234L21.6027 16.6206L20.4425 18.2715L19.1954 10.794L17.5036 15.7262L15.6994 11.4329L14.1201 15.0311L12.5408 12.1485H2.62546L2.61523 11.2745Z" fill="#232730"/>
<path d="M12.5004 22.6824C6.6125 22.6824 1.81836 17.8883 1.81836 12.0004C1.81836 6.1125 6.6125 1.31836 12.5004 1.31836C18.3883 1.31836 23.1824 6.1125 23.1824 12.0004C23.1824 17.8883 18.3883 22.6824 12.5004 22.6824ZM12.5004 2.545C7.28715 2.545 3.045 6.78715 3.045 12.0004C3.045 17.2136 7.28715 21.4558 12.5004 21.4558C17.7136 21.4558 21.9558 17.2136 21.9558 12.0004C21.9558 6.78715 17.7136 2.545 12.5004 2.545Z" fill="#232730"/>
<path d="M11.1223 22.0688L7.50885 16.14L4.91757 18.6598L4.50868 18.1487L6.42021 15.0156L3.49159 11.5043H2.67383L4.27358 10.0732L4.8869 10.5843L9.7577 10.6201L10.1308 10.0732L11.4239 11.1466L8.49528 15.082L12.1752 22.0688H11.1223ZM7.42708 13.9934L9.42037 11.5759H5.26L7.26863 13.9934H7.42708Z" fill="#232730"/>
</svg>
