<svg width="26" height="26" viewBox="0 0 26 26" fill="none" xmlns="http://www.w3.org/2000/svg">
<path d="M8.77661 17.4717C9.91382 18.3146 11.2985 18.8096 12.7903 18.8096C14.282 18.8096 15.6667 18.3146 16.804 17.4717" stroke="#232730" stroke-linecap="round" stroke-linejoin="round"/>
<path d="M24.8311 13.458C24.8311 15.0393 24.5196 16.605 23.9145 18.0659C23.3094 19.5268 22.4224 20.8542 21.3043 21.9723C20.1862 23.0904 18.8588 23.9773 17.3979 24.5825C15.9371 25.1876 14.3713 25.499 12.79 25.499C11.2088 25.499 9.64303 25.1876 8.18214 24.5825C6.72126 23.9773 5.39387 23.0904 4.27576 21.9723C3.15764 20.8542 2.27071 19.5268 1.66559 18.0659C1.06047 16.605 0.749023 15.0393 0.749023 13.458C0.749023 10.2645 2.01763 7.20185 4.27576 4.94372C6.53388 2.6856 9.59656 1.41699 12.79 1.41699C15.9835 1.41699 19.0462 2.6856 21.3043 4.94372C23.5625 7.20185 24.8311 10.2645 24.8311 13.458Z" stroke="#232730" stroke-linecap="round" stroke-linejoin="round"/>
<path d="M9.44531 10.8347V10.7825M16.1348 10.8347V10.7825" stroke="#232730" stroke-width="3" stroke-linecap="round" stroke-linejoin="round"/>
</svg>
