<svg width="26" height="26" viewBox="0 0 26 26" fill="none" xmlns="http://www.w3.org/2000/svg">
<path d="M13 25.417C16.1826 25.417 19.2348 24.1527 21.4853 21.9023C23.7357 19.6518 25 16.5996 25 13.417C25 10.2344 23.7357 7.18215 21.4853 4.93171C19.2348 2.68127 16.1826 1.41699 13 1.41699C9.8174 1.41699 6.76516 2.68127 4.51472 4.93171C2.26428 7.18215 1 10.2344 1 13.417C1 16.5996 2.26428 19.6518 4.51472 21.9023C6.76516 24.1527 9.8174 25.417 13 25.417Z" stroke="#232730" stroke-linecap="round" stroke-linejoin="round"/>
<path d="M7.46583 18.029C8.29291 15.3927 11.4351 13.7828 14.5735 14.5139C15.4716 14.7318 16.3027 15.1661 16.9945 15.7787C17.6863 16.3914 18.2178 17.1639 18.5428 18.029M7.09106 10.4173C7.26091 10.0868 7.7926 9.49977 8.40737 9.14346C9.02214 8.78715 9.79753 8.62284 10.1686 8.64131M15.84 8.63761C16.2111 8.61915 16.9846 8.78531 17.6012 9.14161C18.216 9.49608 18.7477 10.0832 18.9175 10.4155" stroke="#232730" stroke-linecap="round" stroke-linejoin="round"/>
</svg>
