<svg width="26" height="26" viewBox="0 0 26 26" fill="none" xmlns="http://www.w3.org/2000/svg">
<path fill-rule="evenodd" clip-rule="evenodd" d="M13.3721 25.417C16.5547 25.417 19.6069 24.1527 21.8574 21.9023C24.1078 19.6518 25.3721 16.5996 25.3721 13.417C25.3721 10.2344 24.1078 7.18215 21.8574 4.93171C19.6069 2.68127 16.5547 1.41699 13.3721 1.41699C10.1895 1.41699 7.13723 2.68127 4.88679 4.93171C2.63635 7.18215 1.37207 10.2344 1.37207 13.417C1.37207 16.5996 2.63635 19.6518 4.88679 21.9023C7.13723 24.1527 10.1895 25.417 13.3721 25.417Z" stroke="#232730" stroke-linecap="round" stroke-linejoin="round"/>
<path d="M8.86768 17.916C9.77168 15.916 11.2717 14.916 13.3677 14.916C16.5117 14.916 16.9632 15.9165 17.8677 17.916" stroke="#232730" stroke-linecap="round" stroke-linejoin="round"/>
<path d="M10.1553 9.75266V9.70044M16.8447 9.75266V9.70044" stroke="#232730" stroke-width="3" stroke-linecap="round" stroke-linejoin="round"/>
</svg>
