<svg width="26" height="26" viewBox="0 0 26 26" fill="none" xmlns="http://www.w3.org/2000/svg">
<path fill-rule="evenodd" clip-rule="evenodd" d="M13.0811 25.417C16.2637 25.417 19.3159 24.1527 21.5663 21.9023C23.8168 19.6518 25.0811 16.5996 25.0811 13.417C25.0811 10.2344 23.8168 7.18215 21.5663 4.93171C19.3159 2.68127 16.2637 1.41699 13.0811 1.41699C9.89846 1.41699 6.84621 2.68127 4.59577 4.93171C2.34534 7.18215 1.08105 10.2344 1.08105 13.417C1.08105 16.5996 2.34534 19.6518 4.59577 21.9023C6.84621 24.1527 9.89846 25.417 13.0811 25.417Z" stroke="#232730" stroke-linecap="round" stroke-linejoin="round"/>
<path d="M8.49561 17.9182C13.0501 17.9186 10.9541 17.9183 13.0501 17.9183C16.1941 17.9183 13.0501 17.9183 17.4956 17.9182" stroke="#232730" stroke-linecap="round" stroke-linejoin="round"/>
<path d="M9.86426 9.75266V9.70044M16.5537 9.75266V9.70044" stroke="#232730" stroke-width="3" stroke-linecap="round" stroke-linejoin="round"/>
</svg>
