<svg width="48" height="48" viewBox="0 0 48 48" fill="none" xmlns="http://www.w3.org/2000/svg">
<rect width="48" height="48" rx="8" fill="#2C92F2" fill-opacity="0.12"/>
<circle cx="13.125" cy="27.875" r="1.125" fill="#2C92F2"/>
<path d="M15.9997 29L18.3097 25.514L15.9997 22.098H18.2677L19.5977 24.268L20.9417 22.098H23.1957L20.8717 25.514L23.1957 29H20.9417L19.5977 26.774L18.2537 29H15.9997ZM25.9233 29.14C25.438 29.14 25.032 28.9953 24.7053 28.706C24.3786 28.4073 24.2153 27.936 24.2153 27.292V19.242H26.1333V26.914C26.1333 27.082 26.1753 27.2033 26.2593 27.278C26.3433 27.3433 26.4506 27.376 26.5813 27.376C26.6653 27.376 26.7446 27.3667 26.8193 27.348C26.894 27.3293 26.9733 27.3107 27.0573 27.292V28.93C26.852 29.0047 26.6513 29.056 26.4553 29.084C26.2593 29.1213 26.082 29.14 25.9233 29.14ZM30.6305 29.14C30.1078 29.14 29.6505 29.0653 29.2585 28.916C28.8665 28.7667 28.5398 28.5847 28.2785 28.37C28.0172 28.146 27.8025 27.9407 27.6345 27.754L28.9505 26.606C29.1092 26.8393 29.3238 27.0633 29.5945 27.278C29.8745 27.4927 30.2245 27.6 30.6445 27.6C30.9525 27.6 31.1905 27.5393 31.3585 27.418C31.5358 27.2967 31.6245 27.1567 31.6245 26.998C31.6245 26.8487 31.5685 26.732 31.4565 26.648C31.3445 26.5547 31.1952 26.4753 31.0085 26.41C30.8218 26.3447 30.6118 26.2793 30.3785 26.214C30.1172 26.1487 29.8465 26.0693 29.5665 25.976C29.2865 25.8733 29.0252 25.7427 28.7825 25.584C28.5398 25.4253 28.3438 25.2247 28.1945 24.982C28.0452 24.73 27.9705 24.4173 27.9705 24.044C27.9705 23.4187 28.2132 22.9147 28.6985 22.532C29.1932 22.1493 29.8372 21.958 30.6305 21.958C31.1905 21.958 31.6992 22.0653 32.1565 22.28C32.6138 22.4947 32.9778 22.8073 33.2485 23.218L32.0585 24.156C31.8905 23.9133 31.6758 23.7267 31.4145 23.596C31.1532 23.456 30.8778 23.386 30.5885 23.386C30.3458 23.386 30.1452 23.4327 29.9865 23.526C29.8372 23.61 29.7625 23.722 29.7625 23.862C29.7625 23.9647 29.7998 24.0533 29.8745 24.128C29.9492 24.1933 30.0705 24.254 30.2385 24.31C30.4065 24.366 30.6352 24.4313 30.9245 24.506C31.1952 24.5713 31.4798 24.6507 31.7785 24.744C32.0772 24.8373 32.3572 24.968 32.6185 25.136C32.8892 25.2947 33.1038 25.5093 33.2625 25.78C33.4305 26.0413 33.5145 26.3727 33.5145 26.774C33.5145 27.2407 33.3932 27.656 33.1505 28.02C32.9172 28.3747 32.5812 28.65 32.1425 28.846C31.7132 29.042 31.2092 29.14 30.6305 29.14Z" fill="#2C92F2"/>
</svg>
