<svg width="24" height="24" viewBox="0 0 24 24" fill="none" xmlns="http://www.w3.org/2000/svg">
<path fill-rule="evenodd" clip-rule="evenodd" d="M5 6.24C5 4.45044 6.41015 3 8.15 3H12V8.04C12 9.23304 12.9401 10.2 14.1 10.2H19V17.76C19 19.5496 17.5898 21 15.85 21H8.15C6.41015 21 5 19.5496 5 17.76V6.24ZM10.1804 14.0405H8.22393C8.07308 14.0405 7.97168 14.1353 7.97168 14.2901C7.97168 14.4453 8.07308 14.5397 8.22393 14.5397H8.89111V16.5999C8.89111 16.8152 8.9993 16.9543 9.196 16.9543C9.39585 16.9543 9.50703 16.8181 9.50703 16.5999V14.5397H10.1804C10.334 14.5397 10.4354 14.4449 10.4354 14.2901C10.4354 14.135 10.334 14.0405 10.1804 14.0405ZM15.7735 14.0405H13.8171C13.6662 14.0405 13.5648 14.1353 13.5648 14.2901C13.5648 14.4453 13.6662 14.5397 13.8171 14.5397H14.4843V16.5999C14.4843 16.8152 14.5925 16.9543 14.7892 16.9543C14.989 16.9543 15.0995 16.8181 15.0995 16.5999V14.5397H15.7735C15.9272 14.5397 16.0285 14.4449 16.0285 14.2901C16.0285 14.135 15.9272 14.0405 15.7735 14.0405ZM11.1005 14.0462C11.2237 14.0462 11.2912 14.0874 11.3773 14.217L11.9714 15.1156H11.9898L12.5675 14.2205C12.6476 14.0909 12.7185 14.0469 12.8354 14.0469C12.9922 14.0469 13.1096 14.1576 13.1096 14.3063C13.1096 14.379 13.0872 14.4389 13.0351 14.5116L12.3125 15.515L13.0296 16.5141C13.0817 16.5836 13.1031 16.6442 13.1034 16.7201C13.1034 16.8749 12.9869 16.9859 12.8238 16.9859C12.7038 16.9859 12.639 16.9413 12.5497 16.8052L11.9529 15.9165H11.9379L11.3377 16.8052C11.2453 16.9445 11.1809 16.9859 11.0608 16.9859C10.9068 16.9859 10.7936 16.8747 10.7936 16.7293C10.7936 16.6537 10.8146 16.5995 10.864 16.5268L11.5899 15.5016L10.9009 14.5334C10.8424 14.4542 10.8209 14.3979 10.8209 14.3154C10.8209 14.1635 10.9437 14.0462 11.1005 14.0462Z" fill="#2C92F2"/>
<path opacity="0.4" d="M13.3984 8.04027V3.12402L18.8781 8.76027H14.0984C13.712 8.76027 13.3984 8.43807 13.3984 8.04027Z" fill="#2C92F2"/>
</svg>
