<svg width="24" height="24" viewBox="0 0 24 24" fill="none" xmlns="http://www.w3.org/2000/svg">
<path d="M12 4C11.9103 4.00054 11.8209 4.01014 11.7331 4.02865L11.7318 4.02734L5.08594 5.35677L5.08464 5.35807C4.77984 5.41594 4.50476 5.57828 4.30678 5.81714C4.1088 6.056 4.00031 6.35643 4 6.66667V17.3333C4.00007 17.644 4.1086 17.9449 4.30687 18.184C4.50513 18.4232 4.78068 18.5856 5.08594 18.6432L11.7318 19.9727C11.82 19.9908 11.9099 20 12 20C12.3536 20 12.6928 19.8595 12.9428 19.6095C13.1929 19.3594 13.3333 19.0203 13.3333 18.6667V5.33333C13.3333 4.97971 13.1929 4.64057 12.9428 4.39052C12.6928 4.14048 12.3536 4 12 4ZM6.1237 8.66667H7.72526L8.55469 10.6602C8.62202 10.8228 8.67586 11.0113 8.72786 11.2253H8.75C8.78 11.0966 8.83902 10.9012 8.92969 10.6445L9.85677 8.66667H11.3151L9.57292 11.9701L11.3672 15.332H9.8112L8.80859 13.1602C8.77059 13.0835 8.72614 12.9288 8.6888 12.7148H8.67448C8.65181 12.8175 8.60706 12.9724 8.53906 13.1784L7.52995 15.3333H5.96615L7.82161 11.9961L6.1237 8.66667Z" fill="#2C92F2"/>
<path opacity="0.4" fill-rule="evenodd" clip-rule="evenodd" d="M14.668 5.33301V7.33301H16.0013V8.66634H14.668V9.99967H16.0013V11.333H14.668V12.6663H16.0013V13.9997H14.668V15.333H16.0013V16.6663H14.668V18.6663H18.668C19.4046 18.6663 20.0013 18.0697 20.0013 17.333V6.66634C20.0013 5.92967 19.4046 5.33301 18.668 5.33301H14.668ZM17.3347 7.33301H18.0014C18.3694 7.33301 18.668 7.63167 18.668 7.99967C18.668 8.36767 18.3694 8.66634 18.0014 8.66634H17.3347V7.33301ZM17.3347 9.99967H18.0014C18.3694 9.99967 18.668 10.2983 18.668 10.6663C18.668 11.0343 18.3694 11.333 18.0014 11.333H17.3347V9.99967ZM18.0014 12.6663H17.3347V13.9997H18.0014C18.3694 13.9997 18.668 13.701 18.668 13.333C18.668 12.965 18.3694 12.6663 18.0014 12.6663ZM17.3347 15.333H18.0014C18.3694 15.333 18.668 15.6317 18.668 15.9997C18.668 16.3677 18.3694 16.6663 18.0014 16.6663H17.3347V15.333Z" fill="#2C92F2"/>
</svg>
