<svg width="32" height="32" viewBox="0 0 32 32" fill="none" xmlns="http://www.w3.org/2000/svg">
<g id="solar:file-left-bold-duotone">
<path id="Vector" opacity="0.5" fill-rule="evenodd" clip-rule="evenodd" d="M13.6 28L18.4 28C22.9252 28 25.1884 28 26.5936 26.5936C28 25.1884 28 22.9252 28 18.4V17.8756C28 16.828 28 16.0408 27.9484 15.4H23.086C21.7696 15.4 20.6056 15.4 19.6684 15.274C18.652 15.1372 17.6356 14.824 16.8064 13.9948C15.976 13.1644 15.6628 12.148 15.526 11.1316C15.4 10.1944 15.4 9.0316 15.4 7.714L15.412 4.3132C15.412 4.2136 15.4204 4.1164 15.436 4.0204C14.9452 4 14.3632 4 13.636 4C9.0868 4 6.8116 4 5.4064 5.4064C4 6.8116 4 9.0748 4 13.6L4 18.4C4 22.9252 4 25.1884 5.4064 26.5936C6.8116 28 9.0748 28 13.6 28Z" fill="#2C92F2"/>
<path id="Vector_2" d="M8.24226 20.1105C8.08662 20.2766 8 20.4958 8 20.7235C8 20.9512 8.08662 21.1704 8.24226 21.3365L10.4811 23.7264C10.6445 23.8957 10.8679 23.9939 11.1031 23.9997C11.3382 24.0055 11.5662 23.9185 11.7378 23.7575C11.9094 23.5965 12.0108 23.3743 12.02 23.1391C12.0293 22.9039 11.9457 22.6745 11.7874 22.5004L10.9635 21.6197H14.8656C15.1031 21.6197 15.3309 21.5253 15.4988 21.3572C15.6668 21.1891 15.7611 20.9612 15.7611 20.7235C15.7611 20.4858 15.6668 20.2578 15.4988 20.0898C15.3309 19.9217 15.1031 19.8273 14.8656 19.8273H10.9623L11.7874 18.9466C11.9457 18.7725 12.0293 18.5431 12.02 18.3079C12.0108 18.0726 11.9094 17.8505 11.7378 17.6895C11.5662 17.5284 11.3382 17.4414 11.1031 17.4472C10.8679 17.4531 10.6445 17.5512 10.4811 17.7205L8.24226 20.1105ZM15.4745 4.30471L15.4626 7.69243C15.4626 9.0033 15.4626 10.1612 15.588 11.0957C15.7241 12.1078 16.0357 13.1199 16.862 13.9457C17.6859 14.7714 18.6984 15.0845 19.7098 15.2207C20.6423 15.3462 21.8006 15.3462 23.1104 15.3462L27.9487 15.3462C27.9642 15.5314 27.9749 15.7297 27.9821 15.9436H28C28 15.6234 28 15.4633 27.9881 15.2745C27.8961 14.1389 27.501 13.049 26.8442 12.1186C26.7319 11.9656 26.6555 11.8748 26.5039 11.692C25.557 10.5591 24.3104 9.1467 23.2238 8.17639C22.2567 7.31124 20.9301 6.36602 19.7731 5.59408C18.7796 4.92968 18.2829 4.59748 17.6011 4.35132C17.4028 4.28029 17.2012 4.21888 16.9969 4.16729C16.5384 4.05377 16.0919 4.01434 15.4626 4L15.4745 4.30471Z" fill="#2C92F2"/>
</g>
</svg>
