<svg width="24" height="24" viewBox="0 0 24 24" fill="none" xmlns="http://www.w3.org/2000/svg">
<path d="M2.07934 14.3202L2.07938 14.3202L2.07879 14.3138C2.00067 13.4719 2.24282 12.6316 2.77977 11.9544C3.42508 11.1714 4.33249 10.75 5.31093 10.75H18.6909C19.6485 10.75 20.5535 11.1704 21.168 11.8996L21.327 12.1147C21.3274 12.1152 21.3277 12.1156 21.328 12.1161C21.7938 12.7551 22.0014 13.5317 21.9234 14.3208L21.9233 14.3208L21.9225 14.33L21.5229 19.3155C21.4452 20.1025 21.3645 20.8006 20.9734 21.3267C20.6136 21.8107 19.9016 22.25 18.2909 22.25H5.71093C4.10031 22.25 3.388 21.8107 3.02818 21.3276C2.63728 20.8027 2.55667 20.1072 2.47896 19.3254L2.07934 14.3202ZM3.15737 12.2864L3.13566 12.3082L3.11677 12.3324C2.71348 12.8491 2.51243 13.5569 2.58289 14.2745L2.98251 19.2798L2.98245 19.2798L2.98321 19.2877L2.98412 19.2972C3.01789 19.6495 3.05034 19.9878 3.11484 20.2784C3.18125 20.5775 3.29142 20.8765 3.51452 21.1259C3.96293 21.6271 4.70289 21.75 5.71093 21.75H18.2909C19.3027 21.75 20.0448 21.6276 20.4925 21.1231C20.7149 20.8723 20.8236 20.5719 20.8889 20.2722C20.9513 19.9855 20.9831 19.6517 21.0162 19.3037L21.0187 19.2774L21.0187 19.2774L21.0193 19.2698L21.4189 14.265C21.4903 13.5489 21.2836 12.8253 20.8038 12.2584C20.8033 12.2578 20.8028 12.2572 20.8023 12.2567L20.705 12.1399L20.694 12.1267L20.6821 12.1142C20.139 11.547 19.4391 11.25 18.6809 11.25H5.31093C4.50224 11.25 3.72657 11.6077 3.20959 12.2342L3.15737 12.2864Z" fill="#2C92F2" stroke="#2C92F2"/>
<path d="M10.8592 3.19915L10.8583 3.19808C10.8455 3.18119 10.8327 3.1642 10.8198 3.14716C10.6347 2.90208 10.4405 2.64493 10.1563 2.48623C9.84058 2.30993 9.47286 2.28027 9.02 2.28027H7.75C6.99779 2.28027 6.36519 2.31239 5.84612 2.41815C5.32164 2.52501 4.87341 2.71475 4.52895 3.05922C4.18448 3.40369 3.99474 3.85191 3.88788 4.37639C3.78212 4.89547 3.75 5.52807 3.75 6.28027V11.4303C3.75 11.5641 3.63386 11.6803 3.5 11.6803C3.36614 11.6803 3.25 11.5641 3.25 11.4303V6.28027C3.25 4.38309 3.54794 3.31694 4.1673 2.69758C4.78667 2.07821 5.85281 1.78027 7.75 1.78027H9.03C9.7471 1.78027 10.1553 1.89682 10.4431 2.06466C10.7389 2.23725 10.9626 2.49368 11.2709 2.90146C11.271 2.90158 11.2711 2.90171 11.2712 2.90183L12.55 4.60027C12.5501 4.60035 12.5501 4.60043 12.5502 4.60051C12.5585 4.61163 12.5671 4.62316 12.5759 4.63504C12.6805 4.77576 12.8207 4.96445 13.0268 5.07018C13.2428 5.18095 13.4875 5.18059 13.6813 5.1803C13.691 5.18029 13.7006 5.18027 13.71 5.18027H16.26C18.1572 5.18027 19.2233 5.47821 19.8427 6.09758C20.4621 6.71694 20.76 7.78309 20.76 9.68027V11.4626C20.754 11.6063 20.6302 11.7203 20.5 11.7203C20.3661 11.7203 20.25 11.6041 20.25 11.4703V9.68027C20.25 8.92807 20.2179 8.29547 20.1121 7.77639C20.0053 7.25191 19.8155 6.80369 19.4711 6.45922C19.1266 6.11475 18.6784 5.92501 18.1539 5.81815C17.6348 5.71239 17.0022 5.68027 16.25 5.68027H13.7C13.1948 5.68027 12.9093 5.59123 12.7151 5.47754C12.5139 5.3597 12.3587 5.18686 12.1492 4.90915L10.8592 3.19915Z" fill="#2C92F2" stroke="#2C92F2"/>
<path d="M14.5697 17.25H9.42969C9.29583 17.25 9.17969 17.1339 9.17969 17C9.17969 16.8661 9.29583 16.75 9.42969 16.75H14.5697C14.7035 16.75 14.8197 16.8661 14.8197 17C14.8197 17.1382 14.7092 17.25 14.5697 17.25Z" fill="#2C92F2" stroke="#2C92F2"/>
</svg>
