<svg width="24" height="24" viewBox="0 0 24 24" fill="none" xmlns="http://www.w3.org/2000/svg">
<path d="M18.6102 6.67982C18.2002 6.67982 17.8602 6.33982 17.8602 5.92982V4.41982C17.8602 3.81982 17.3702 3.31982 16.7602 3.31982H3.83023C3.23023 3.31982 2.73023 3.80982 2.73023 4.41982V5.92982C2.73023 6.33982 2.39023 6.67982 1.98023 6.67982C1.57023 6.67982 1.24023 6.33982 1.24023 5.92982V4.41982C1.24023 2.98982 2.41023 1.81982 3.84023 1.81982H16.7602C18.1902 1.81982 19.3602 2.97982 19.3602 4.41982V5.92982C19.3602 6.33982 19.0202 6.67982 18.6102 6.67982Z" fill="#2C92F2"/>
<path d="M12.4802 18.8498H6.90023C6.49023 18.8498 6.15023 18.5098 6.15023 18.0998C6.15023 17.6898 6.49023 17.3498 6.90023 17.3498H9.55023H11.0502H12.4802C12.8902 17.3498 13.2302 17.6898 13.2302 18.0998C13.2302 18.5098 12.8902 18.8498 12.4802 18.8498Z" fill="#2C92F2"/>
<path d="M22.0102 13.1998C21.6002 13.1998 21.2602 12.8598 21.2602 12.4498V11.6498C21.2602 11.3398 21.0002 11.0798 20.6902 11.0798H16.8302H15.3302H13.6802C13.2702 11.0798 12.9302 10.7398 12.9302 10.3298C12.9302 9.91982 13.2702 9.57982 13.6802 9.57982H20.6902C21.8302 9.57982 22.7602 10.5098 22.7602 11.6498V12.4498C22.7602 12.8698 22.4302 13.1998 22.0102 13.1998Z" fill="#2C92F2"/>
<path d="M11.0502 3.31982H9.55023V17.3498H11.0502V3.31982Z" fill="#2C92F2"/>
<path d="M16.8302 11.0798H15.3302V20.6798H16.8302V11.0798Z" fill="#2C92F2"/>
<path d="M13.1902 21.4298C13.1902 21.8398 13.5302 22.1798 13.9402 22.1798H15.0102H18.2202C18.6302 22.1798 18.9702 21.8398 18.9702 21.4298C18.9702 21.0198 18.6302 20.6798 18.2202 20.6798H16.8302H15.3302H13.9402C13.5302 20.6798 13.1902 21.0198 13.1902 21.4298Z" fill="#2C92F2"/>
</svg>
