<svg width="24" height="24" viewBox="0 0 24 24" fill="none" xmlns="http://www.w3.org/2000/svg">
<path d="M21.5 12V11.5H21H10.0605H8.85265L9.7071 12.3537L11.4274 14.0726C11.4745 14.1196 11.5009 14.1834 11.5009 14.25C11.5009 14.3166 11.4745 14.3804 11.4274 14.4274C11.3804 14.4745 11.3166 14.5009 11.25 14.5009C11.1834 14.5009 11.1196 14.4745 11.0726 14.4274L9.35371 12.7071L8.5 11.8526V13.0605V18V18.5H9H19.5C20.0304 18.5 20.5391 18.2893 20.9142 17.9142C21.2893 17.5391 21.5 17.0304 21.5 16.5V12ZM11.4011 10.3333L11.1654 11H11.8725H21H21.5V10.5V7.5C21.5 6.96957 21.2893 6.46086 20.9142 6.08579C20.5391 5.71071 20.0304 5.5 19.5 5.5H9H8.5V6V7.6275V8.33619L9.16766 8.09855C9.34739 8.03458 9.54081 8.00088 9.75106 8C10.0308 7.99998 10.3065 8.06704 10.555 8.19555C10.8038 8.32419 11.018 8.51065 11.1798 8.73926C11.3415 8.96788 11.446 9.23197 11.4846 9.50935C11.5231 9.78673 11.4944 10.0693 11.4011 10.3333ZM8.5 10.5V11H9H9.75C9.99723 11 10.2389 10.9267 10.4445 10.7893C10.65 10.652 10.8102 10.4568 10.9048 10.2284C10.9995 9.99995 11.0242 9.74861 10.976 9.50614C10.9277 9.26366 10.8087 9.04093 10.6339 8.86612C10.4591 8.6913 10.2363 8.57225 9.99386 8.52402C9.75139 8.47579 9.50005 8.50054 9.27165 8.59515C9.04324 8.68976 8.84801 8.84998 8.71066 9.05554C8.57331 9.2611 8.5 9.50277 8.5 9.75V10.5ZM7.33293 8.09876L8 8.33525V7.6275V6V5.5H7.5H4.5C3.96957 5.5 3.46086 5.71071 3.08579 6.08579C2.71071 6.46086 2.5 6.96957 2.5 7.5V10.5V11H3H4.6275H5.33525L5.09876 10.3329C4.98828 10.0213 4.96834 9.68475 5.04126 9.36226C5.11417 9.03977 5.27695 8.74453 5.51074 8.51074C5.74453 8.27695 6.03977 8.11417 6.36226 8.04126C6.68475 7.96834 7.0213 7.98828 7.33293 8.09876ZM7.5 11H8V10.5V9.75C8 9.50277 7.92669 9.2611 7.78934 9.05554C7.65199 8.84998 7.45676 8.68976 7.22835 8.59515C6.99995 8.50054 6.74861 8.47579 6.50614 8.52402C6.26366 8.57225 6.04093 8.6913 5.86612 8.86612C5.6913 9.04093 5.57225 9.26366 5.52402 9.50614C5.47579 9.74861 5.50054 9.99995 5.59515 10.2284C5.68976 10.4568 5.84998 10.652 6.05554 10.7893C6.2611 10.9267 6.50277 11 6.75 11H7.5ZM6.7929 12.3537L7.64735 11.5H6.4395H3H2.5V12V16.5C2.5 17.0304 2.71071 17.5391 3.08579 17.9142C3.46086 18.2893 3.96957 18.5 4.5 18.5H7.5H8V18V13.0605V11.8526L7.14629 12.7071L5.42745 14.4274C5.40414 14.4508 5.37648 14.4692 5.34604 14.4818L5.53737 14.9438L5.34603 14.4818C5.31559 14.4945 5.28296 14.5009 5.25 14.5009C5.21704 14.5009 5.18441 14.4945 5.15397 14.4818L4.96263 14.9438L5.15396 14.4818C5.12352 14.4692 5.09586 14.4508 5.07255 14.4274C5.04925 14.4041 5.03077 14.3765 5.01816 14.346C5.00554 14.3156 4.99905 14.283 4.99905 14.25C4.99905 14.217 5.00554 14.1844 5.01815 14.154C5.03077 14.1235 5.04925 14.0959 5.07255 14.0726L6.7929 12.3537ZM2 7.5C2 6.83696 2.26339 6.20107 2.73223 5.73223C3.20107 5.26339 3.83696 5 4.5 5H19.5C20.163 5 20.7989 5.26339 21.2678 5.73223C21.7366 6.20107 22 6.83696 22 7.5V16.5C22 17.163 21.7366 17.7989 21.2678 18.2678C20.7989 18.7366 20.163 19 19.5 19H4.5C3.83696 19 3.20107 18.7366 2.73223 18.2678C2.26339 17.7989 2 17.163 2 16.5V7.5Z" fill="#2C92F2" stroke="#2C92F2"/>
</svg>
