<svg width="48" height="48" viewBox="0 0 48 48" fill="none" xmlns="http://www.w3.org/2000/svg">
<path d="M39 1.5H9C4.85786 1.5 1.5 4.85786 1.5 9V39C1.5 43.1421 4.85786 46.5 9 46.5H39C43.1421 46.5 46.5 43.1421 46.5 39V9C46.5 4.85786 43.1421 1.5 39 1.5Z" fill="#0A74DA"/>
<g opacity="0.2">
<path d="M18.5625 7.5V40.5H17.4375V7.5H18.5625Z" fill="#0A74DA"/>
<path d="M30.5625 7.5V40.5H29.4375V7.5H30.5625Z" fill="#0A74DA"/>
<path d="M40.5 17.4375V18.5625H7.5V17.4375H40.5Z" fill="#0A74DA"/>
<path d="M40.5 29.4375V30.5625H7.5V29.4375H40.5Z" fill="#0A74DA"/>
</g>
<path d="M30.75 35.625C31.3713 35.625 31.875 36.1287 31.875 36.75C31.875 37.3713 31.3713 37.875 30.75 37.875H17.25C16.6287 37.875 16.125 37.3713 16.125 36.75C16.125 36.1287 16.6287 35.625 17.25 35.625H30.75ZM28.875 24.75V19.125H25.125V23.6891C25.2423 23.6476 25.3685 23.625 25.5 23.625C26.1213 23.625 26.625 24.1287 26.625 24.75C26.625 25.6451 26.9807 26.5035 27.6136 27.1364C28.2465 27.7693 29.1049 28.125 30 28.125L30.0839 28.1239C30.9486 28.1024 31.7733 27.7496 32.3864 27.1364C33.0193 26.5035 33.375 25.6451 33.375 24.75C33.375 24.1287 33.8787 23.625 34.5 23.625C35.1213 23.625 35.625 24.1287 35.625 24.75C35.625 26.2418 35.0323 27.6725 33.9774 28.7274C32.9555 29.7493 31.5809 30.3376 30.1397 30.3734L30 30.375C28.5082 30.375 27.0775 29.7823 26.0226 28.7274C25.6701 28.3749 25.3694 27.9803 25.125 27.5555V34.5C25.125 35.1213 24.6213 35.625 24 35.625C23.3787 35.625 22.875 35.1213 22.875 34.5V27.5555C22.6306 27.9803 22.3299 28.3749 21.9774 28.7274C20.9555 29.7493 19.5809 30.3376 18.1397 30.3734L18 30.375C16.5082 30.375 15.0775 29.7823 14.0226 28.7274C12.9677 27.6725 12.375 26.2418 12.375 24.75C12.375 24.1287 12.8787 23.625 13.5 23.625C14.1213 23.625 14.625 24.1287 14.625 24.75C14.625 25.6451 14.9807 26.5035 15.6136 27.1364C16.2465 27.7693 17.1049 28.125 18 28.125L18.0839 28.1239C18.9486 28.1024 19.7733 27.7496 20.3864 27.1364C21.0193 26.5035 21.375 25.6451 21.375 24.75C21.375 24.1287 21.8787 23.625 22.5 23.625C22.6315 23.625 22.7577 23.6476 22.875 23.6891V19.125H19.125V24.75C19.125 25.3713 18.6213 25.875 18 25.875C17.3787 25.875 16.875 25.3713 16.875 24.75V19.125H15C14.3787 19.125 13.875 18.6213 13.875 18C13.875 17.3787 14.3787 16.875 15 16.875H22.875V12C22.875 11.3787 23.3787 10.875 24 10.875C24.6213 10.875 25.125 11.3787 25.125 12V16.875H33C33.6213 16.875 34.125 17.3787 34.125 18C34.125 18.6213 33.6213 19.125 33 19.125H31.125V24.75C31.125 25.3713 30.6213 25.875 30 25.875C29.3787 25.875 28.875 25.3713 28.875 24.75Z" fill="white"/>
</svg>
