<svg width="40" height="40" viewBox="0 0 40 40" fill="none" xmlns="http://www.w3.org/2000/svg">
<g clip-path="url(#clip0_26173_124350)">
<rect opacity="0.1" width="40" height="40" fill="#2C92F2"/>
<path d="M20 10C17.38 10 15.25 12.13 15.25 14.75C15.25 17.32 17.26 19.4 19.88 19.49C19.96 19.48 20.04 19.48 20.1 19.49C20.12 19.49 20.13 19.49 20.15 19.49C20.16 19.49 20.16 19.49 20.17 19.49C22.73 19.4 24.74 17.32 24.75 14.75C24.75 12.13 22.62 10 20 10Z" fill="#2C92F2"/>
<path opacity="0.4" d="M25.08 22.1606C22.29 20.3006 17.74 20.3006 14.93 22.1606C13.66 23.0006 12.96 24.1506 12.96 25.3806C12.96 26.6106 13.66 27.7506 14.92 28.5906C16.32 29.5306 18.16 30.0006 20 30.0006C21.84 30.0006 23.68 29.5306 25.08 28.5906C26.34 27.7406 27.04 26.6006 27.04 25.3606C27.03 24.1406 26.34 22.9906 25.08 22.1606Z" fill="#2C92F2"/>
<path d="M19.3702 27.26C19.2102 27.26 19.0502 27.19 18.9302 27.08L17.6702 25.82C17.4302 25.58 17.4302 25.18 17.6702 24.94C17.9102 24.7 18.3102 24.7 18.5502 24.94L19.3702 25.76L21.4502 23.68C21.6902 23.44 22.0902 23.44 22.3302 23.68C22.5702 23.92 22.5702 24.32 22.3302 24.56L19.8102 27.08C19.6902 27.2 19.5302 27.26 19.3702 27.26Z" fill="#2C92F2"/>
</g>
<defs>
<clipPath id="clip0_26173_124350">
<rect width="40" height="40" rx="8" fill="white"/>
</clipPath>
</defs>
</svg>
