<svg width="24" height="24" viewBox="0 0 24 24" fill="none" xmlns="http://www.w3.org/2000/svg">
<path fill-rule="evenodd" clip-rule="evenodd" d="M11.9501 2.7998C6.75222 2.7998 2.64808 7.00279 2.74991 12.2051L2.75005 12.2198L2.75005 18.3798C2.75005 19.907 4.03562 21.1998 5.57005 21.1998C7.10584 21.1998 8.39005 19.9156 8.39005 18.3798V15.5698C8.39005 14.933 7.88543 14.4798 7.30005 14.4798C6.66325 14.4798 6.21005 14.9844 6.21005 15.5698V18.4898C6.21005 18.904 5.87426 19.2398 5.46005 19.2398C5.04584 19.2398 4.71005 18.904 4.71005 18.4898L4.71005 15.5698C4.71005 14.2152 5.77685 12.9798 7.30005 12.9798C8.65467 12.9798 9.89005 14.0466 9.89005 15.5698L9.89005 18.3798C9.89005 20.744 7.93426 22.6998 5.57005 22.6998C3.20448 22.6998 1.25005 20.7327 1.25005 18.3798L1.25005 12.227C1.13595 6.19279 5.91037 1.2998 11.9501 1.2998C17.9906 1.2998 22.75 6.19192 22.75 12.1098L22.75 18.2698C22.75 20.634 20.7943 22.5898 18.43 22.5898C16.0658 22.5898 14.1101 20.634 14.1101 18.2698L14.1101 15.4598C14.1101 14.1052 15.1769 12.8698 16.7001 12.8698C18.0547 12.8698 19.2901 13.9366 19.2901 15.4598V18.4898C19.2901 18.904 18.9543 19.2398 18.5401 19.2398C18.1258 19.2398 17.7901 18.904 17.7901 18.4898V15.4598C17.7901 14.823 17.2854 14.3698 16.7001 14.3698C16.0633 14.3698 15.6101 14.8744 15.6101 15.4598L15.6101 18.2698C15.6101 19.8056 16.8943 21.0898 18.43 21.0898C19.9658 21.0898 21.25 19.8056 21.25 18.2698L21.25 12.1098C21.25 7.00768 17.1495 2.7998 11.9501 2.7998Z" fill="#888888"/>
</svg>
