<svg width="24" height="24" viewBox="0 0 24 24" fill="none" xmlns="http://www.w3.org/2000/svg">
<path d="M12 8.3584C12.7594 8.3584 13.375 7.74279 13.375 6.9834C13.375 6.22401 12.7594 5.6084 12 5.6084C11.2406 5.6084 10.625 6.22401 10.625 6.9834C10.625 7.74279 11.2406 8.3584 12 8.3584Z" fill="#555555"/>
<path fill-rule="evenodd" clip-rule="evenodd" d="M10.9977 1.93137C11.2844 1.81546 11.6268 1.67703 12 1.67703C12.3731 1.67703 12.7156 1.81546 13.0023 1.93137L13.077 1.96148L19.6524 4.5916C20.4168 4.89691 20.9722 5.11875 21.4185 5.47158C22.0491 5.97006 22.5103 6.6512 22.7389 7.42182C22.9007 7.96725 22.9004 8.56531 22.9 9.38836L22.9 9.5393C22.9 9.74441 22.9 9.93968 22.8891 10.1051C22.8772 10.2847 22.8497 10.4918 22.764 10.7058C22.5709 11.1885 22.1885 11.5709 21.7058 11.764C21.4918 11.8497 21.2847 11.8772 21.1051 11.8891C21.0408 11.8933 20.9721 11.8959 20.9 11.8975V17.4478C21.7627 17.9291 22.418 18.7247 22.7195 19.681C22.8478 20.0879 22.8852 20.5413 22.8959 21.1H23C23.4971 21.1 23.9 21.503 23.9 22C23.9 22.4971 23.4971 22.9 23 22.9H1.00001C0.50295 22.9 0.100006 22.4971 0.100006 22C0.100006 21.503 0.50295 21.1 1.00001 21.1H1.10409C1.1148 20.5413 1.15218 20.0879 1.28049 19.681C1.58201 18.7247 2.23729 17.929 3.10001 17.4478V11.8975C3.02792 11.8959 2.95916 11.8933 2.89491 11.8891C2.71534 11.8772 2.50821 11.8497 2.29417 11.764C1.81152 11.5709 1.42908 11.1885 1.23596 10.7058C1.15032 10.4918 1.12278 10.2847 1.1109 10.1051C1.09996 9.93968 1.09998 9.74442 1.09999 9.53932L1.09995 9.3884C1.09955 8.56533 1.09925 7.96726 1.26108 7.42182C1.48971 6.6512 1.95087 5.97006 2.58145 5.47158C3.02779 5.11876 3.58319 4.89691 4.34754 4.59161L10.923 1.96148L10.9977 1.93137ZM11.9658 3.49002C11.8889 3.51438 11.7867 3.55464 11.5915 3.63274L5.13397 6.21574C4.20179 6.58861 3.91226 6.71406 3.6977 6.88367C3.35816 7.15208 3.10984 7.51885 2.98673 7.93379C2.90894 8.19599 2.9 8.51141 2.9 9.51539C2.9 9.75307 2.90045 9.88764 2.90698 9.98628C2.90909 10.0182 2.91147 10.0383 2.91307 10.0494C2.92197 10.0651 2.93492 10.078 2.95055 10.0869C2.9617 10.0885 2.98181 10.0909 3.01372 10.093C3.11235 10.0995 3.24693 10.1 3.48461 10.1H20.5154C20.7531 10.1 20.8876 10.0995 20.9863 10.093C21.0182 10.0909 21.0383 10.0885 21.0494 10.0869C21.0651 10.078 21.078 10.0651 21.0869 10.0494C21.0885 10.0383 21.0909 10.0182 21.093 9.98628C21.0995 9.88764 21.1 9.75307 21.1 9.51539C21.1 8.51141 21.091 8.19599 21.0133 7.93379C20.8902 7.51885 20.6418 7.15208 20.3023 6.88367C20.0877 6.71406 19.7982 6.58861 18.866 6.21574L12.4085 3.63274C12.2133 3.55464 12.1111 3.51438 12.0342 3.49002C12.0194 3.48532 12.0082 3.48211 12 3.47995C11.9918 3.48211 11.9806 3.48532 11.9658 3.49002ZM16.9 11.9H19.1V16.9617C18.8277 16.9399 18.5295 16.9251 18.1982 16.9087L16.9 16.8439V11.9ZM15.1 16.7539V11.9H12.9V16.6439L15.1 16.7539ZM11.1 16.6439V11.9H8.90001V16.7539L11.1 16.6439ZM7.10001 16.8439V11.9H4.90001V16.9617C5.17224 16.9399 5.47039 16.9251 5.80167 16.9087L7.10001 16.8439ZM21.0942 21.1C21.0848 20.6304 21.0609 20.4065 21.0028 20.2223C20.8079 19.6041 20.3384 19.1105 19.7307 18.885C19.4602 18.7846 19.0975 18.756 17.96 18.6991L12 18.4011L6.03994 18.6991C4.90246 18.756 4.53978 18.7846 4.26927 18.885C3.66158 19.1105 3.1921 19.6041 2.99718 20.2223C2.93909 20.4065 2.91522 20.6304 2.90578 21.1H21.0942Z" fill="#555555"/>
</svg>
