<svg width="24" height="24" viewBox="0 0 24 24" fill="none" xmlns="http://www.w3.org/2000/svg">
<path d="M17.7573 7.41441C18.0809 7.09084 18.0809 6.56623 17.7573 6.24266C17.4338 5.91909 16.9092 5.91909 16.5856 6.24266L12 10.8283L7.41442 6.24269C7.09085 5.91912 6.56624 5.91912 6.24268 6.24269C5.91911 6.56626 5.91911 7.09087 6.24268 7.41444L10.8282 12L6.24277 16.5855C5.9192 16.9091 5.9192 17.4337 6.24277 17.7573C6.56634 18.0809 7.09094 18.0809 7.41451 17.7573L12 13.1718L16.5855 17.7573C16.9091 18.0809 17.4337 18.0809 17.7572 17.7573C18.0808 17.4337 18.0808 16.9091 17.7572 16.5856L13.1717 12L17.7573 7.41441Z" fill="#888888"/>
</svg>
