<svg width="25" height="24" viewBox="0 0 25 24" fill="none" xmlns="http://www.w3.org/2000/svg">
<path d="M12.7598 2C7.24977 2 2.75977 6.49 2.75977 12C2.75977 17.51 7.24977 22 12.7598 22C18.2698 22 22.7598 17.51 22.7598 12C22.7598 6.49 18.2698 2 12.7598 2ZM12.0098 8C12.0098 7.59 12.3498 7.25 12.7598 7.25C13.1698 7.25 13.5098 7.59 13.5098 8V13C13.5098 13.41 13.1698 13.75 12.7598 13.75C12.3498 13.75 12.0098 13.41 12.0098 13V8ZM13.6798 16.38C13.6298 16.51 13.5598 16.61 13.4698 16.71C13.3698 16.8 13.2598 16.87 13.1398 16.92C13.0198 16.97 12.8898 17 12.7598 17C12.6298 17 12.4998 16.97 12.3798 16.92C12.2598 16.87 12.1498 16.8 12.0498 16.71C11.9598 16.61 11.8898 16.51 11.8398 16.38C11.7898 16.26 11.7598 16.13 11.7598 16C11.7598 15.87 11.7898 15.74 11.8398 15.62C11.8898 15.5 11.9598 15.39 12.0498 15.29C12.1498 15.2 12.2598 15.13 12.3798 15.08C12.6198 14.98 12.8998 14.98 13.1398 15.08C13.2598 15.13 13.3698 15.2 13.4698 15.29C13.5598 15.39 13.6298 15.5 13.6798 15.62C13.7298 15.74 13.7598 15.87 13.7598 16C13.7598 16.13 13.7298 16.26 13.6798 16.38Z" fill="#646464"/>
</svg>
