<svg width="24" height="24" viewBox="0 0 24 24" fill="none" xmlns="http://www.w3.org/2000/svg">
<g clip-path="url(#clip0_3427_4811)">
<path d="M16.498 0C15.2185 0.0884995 13.723 0.907495 12.8515 1.97399C12.0565 2.94148 11.4025 4.37847 11.6575 5.77497C13.0555 5.81847 14.5 4.97997 15.337 3.89548C16.12 2.88598 16.7125 1.45799 16.498 0Z" fill="#2C92F2"/>
<path d="M21.5553 8.05192C20.3268 6.51143 18.6003 5.61743 16.9698 5.61743C14.8174 5.61743 13.9069 6.64793 12.4114 6.64793C10.8694 6.64793 9.69789 5.62043 7.8364 5.62043C6.00791 5.62043 4.06092 6.73792 2.82643 8.64891C1.09094 11.3399 1.38794 16.3994 4.20042 20.7088C5.20692 22.2508 6.55091 23.9848 8.3089 23.9998C9.87339 24.0148 10.3144 22.9963 12.4339 22.9858C14.5534 22.9738 14.9554 24.0133 16.5169 23.9968C18.2763 23.9833 19.6938 22.0618 20.7003 20.5198C21.4218 19.4144 21.6903 18.8579 22.2498 17.6099C18.1803 16.0604 17.5278 10.2734 21.5553 8.05192Z" fill="#2C92F2"/>
</g>
<defs>
<clipPath id="clip0_3427_4811">
<rect width="24" height="24" fill="white"/>
</clipPath>
</defs>
</svg>
