<svg width="24" height="24" viewBox="0 0 24 24" fill="none" xmlns="http://www.w3.org/2000/svg">
<g clip-path="url(#clip0_3871_19936)">
<path d="M11.9999 0C6.73055 0.00642177 2.46039 4.70355 2.45459 10.4998C2.45459 18.3575 11.3001 23.6869 11.6768 23.9101C11.7763 23.9691 11.8876 24.0001 12.0007 24.0001C12.1137 24.0001 12.225 23.9691 12.3245 23.9101C12.6999 23.6869 21.5452 18.3575 21.5452 10.4998C21.5394 4.70355 17.2692 0.00642177 11.9999 0ZM11.9999 22.3845C10.4437 21.3701 3.8182 16.684 3.8182 10.4998C3.8182 5.52929 7.48122 1.49998 11.9999 1.49998C16.5185 1.49998 20.1816 5.52929 20.1816 10.4998C20.1816 16.6736 13.5544 21.3682 11.9999 22.3845Z" fill="#232730" fill-opacity="0.6"/>
<path d="M9.95451 7.5C9.57798 7.5 9.27271 7.83581 9.27271 8.24999V13.4999C9.27271 13.9141 9.57798 14.2499 9.95451 14.2499C10.331 14.2499 10.6363 13.9141 10.6363 13.4999V8.24999C10.6363 7.83581 10.331 7.5 9.95451 7.5ZM13.3636 7.5H11.9999C11.6234 7.5 11.3181 7.83581 11.3181 8.24999V13.4999C11.3181 13.9141 11.6234 14.2499 11.9999 14.2499C12.3765 14.2499 12.6817 13.9141 12.6817 13.4999V11.9999H13.3636C14.4933 11.9999 15.409 10.9925 15.409 9.74996C15.409 8.50742 14.4933 7.5 13.3636 7.5ZM13.3636 10.5H12.6817V8.99998H13.3636C13.7401 8.99998 14.0454 9.33578 14.0454 9.74996C14.0454 10.1641 13.7401 10.5 13.3636 10.5Z" fill="#232730" fill-opacity="0.6"/>
</g>
<defs>
<clipPath id="clip0_3871_19936">
<rect width="24" height="24" fill="white"/>
</clipPath>
</defs>
</svg>
