<svg width="24" height="25" viewBox="0 0 24 25" fill="none" xmlns="http://www.w3.org/2000/svg">
<path opacity="0.4" d="M16.19 2.5L7.81 2.5C4.17 2.5 2 4.67 2 8.31L2 16.68C2 20.33 4.17 22.5 7.81 22.5L16.18 22.5C19.82 22.5 21.99 20.33 21.99 16.69L21.99 8.31C22 4.67 19.83 2.5 16.19 2.5Z" fill="#2C92F2"/>
<path d="M21.3 12.73L17.82 12.73C16.84 12.73 15.97 13.27 15.53 14.15L14.69 15.81C14.49 16.21 14.09 16.46 13.65 16.46H10.37C10.06 16.46 9.62 16.39 9.33 15.81L8.49 14.16C8.05 13.29 7.17 12.74 6.2 12.74H2.7C2.31 12.74 2 13.05 2 13.44L2 16.7C2 20.33 4.18 22.5 7.82 22.5H16.2C19.63 22.5 21.74 20.62 22 17.28V13.43C22 13.05 21.69 12.73 21.3 12.73Z" fill="#2C92F2"/>
<path d="M13.55 8.30002H10.45C10.06 8.30002 9.75 7.99002 9.75 7.60002C9.75 7.21002 10.06 6.90002 10.45 6.90002L13.55 6.90002C13.94 6.90002 14.25 7.21002 14.25 7.60002C14.25 7.99002 13.93 8.30002 13.55 8.30002Z" fill="#2C92F2"/>
<path d="M14.3302 11.0899H9.67021C9.28021 11.0899 8.97021 10.7799 8.97021 10.3899C8.97021 9.99994 9.28021 9.68994 9.67021 9.68994H14.3202C14.7102 9.68994 15.0202 9.99994 15.0202 10.3899C15.0202 10.7799 14.7102 11.0899 14.3302 11.0899Z" fill="#2C92F2"/>
</svg>
