<svg width="24" height="24" viewBox="0 0 24 24" fill="none" xmlns="http://www.w3.org/2000/svg">
<path d="M15 22.25H9C6.3424 22.25 4.56492 21.6803 3.4423 20.5577C2.31968 19.4351 1.75 17.6576 1.75 15V9C1.75 6.3424 2.31968 4.56492 3.4423 3.4423C4.56492 2.31968 6.3424 1.75 9 1.75H15C17.6576 1.75 19.4351 2.31968 20.5577 3.4423C21.6803 4.56492 22.25 6.3424 22.25 9V15C22.25 17.6576 21.6803 19.4351 20.5577 20.5577C19.4351 21.6803 17.6576 22.25 15 22.25ZM9 2.25C6.65972 2.25 4.92432 2.66107 3.7927 3.7927C2.66107 4.92432 2.25 6.65972 2.25 9V15C2.25 17.3403 2.66107 19.0757 3.7927 20.2073C4.92432 21.3389 6.65972 21.75 9 21.75H15C17.3403 21.75 19.0757 21.3389 20.2073 20.2073C21.3389 19.0757 21.75 17.3403 21.75 15V9C21.75 6.65972 21.3389 4.92432 20.2073 3.7927C19.0757 2.66107 17.3403 2.25 15 2.25H9Z" stroke="#2C92F2"/>
<path d="M12.3535 7.21641L11.9999 6.86286L11.6464 7.21641L9.17639 9.68639L9.52994 10.0399L9.17639 9.6864C9.08165 9.78113 8.91823 9.78113 8.82349 9.6864C8.72876 9.59166 8.72876 9.42824 8.82349 9.3335L11.8235 6.3335C11.9182 6.23877 12.0816 6.23877 12.1764 6.3335L15.1764 9.3335C15.2711 9.42824 15.2711 9.59166 15.1764 9.6864C15.1251 9.73769 15.0645 9.75995 14.9999 9.75995C14.9354 9.75995 14.8748 9.73769 14.8235 9.6864L14.4699 10.0399L14.8235 9.68639L12.3535 7.21641Z" stroke="#2C92F2"/>
<path d="M12 14.76C11.8661 14.76 11.75 14.6439 11.75 14.51V6.51001C11.75 6.37615 11.8661 6.26001 12 6.26001C12.1339 6.26001 12.25 6.37615 12.25 6.51001V14.51C12.25 14.6495 12.1382 14.76 12 14.76Z" stroke="#2C92F2"/>
<path d="M6.07102 16.2706L6.07098 16.2708L6.08184 16.2744C9.90448 17.5486 14.1054 17.5486 17.9281 16.2744C18.0613 16.23 18.2047 16.3053 18.2456 16.4282C18.29 16.5614 18.2147 16.7047 18.0918 16.7457L18.0904 16.7462C16.1241 17.4081 14.0582 17.73 12 17.73C9.94317 17.73 7.87658 17.3985 5.91806 16.7457C5.79521 16.7047 5.71987 16.5614 5.76429 16.4282C5.80902 16.294 5.95536 16.2291 6.07102 16.2706Z" stroke="#2C92F2"/>
</svg>
