<svg width="24" height="24" viewBox="0 0 24 24" fill="none" xmlns="http://www.w3.org/2000/svg">
<path d="M12.0002 8.74999C11.5902 8.74999 11.2502 8.40999 11.2502 7.99999V3.80999L10.5302 4.52999C10.2402 4.81999 9.76019 4.81999 9.47019 4.52999C9.18019 4.23999 9.18019 3.75999 9.47019 3.46999L11.4702 1.46999C11.6802 1.25999 12.0102 1.18999 12.2902 1.30999C12.5702 1.41999 12.7502 1.69999 12.7502 1.99999V7.99999C12.7502 8.40999 12.4102 8.74999 12.0002 8.74999Z" fill="#2C92F2"/>
<path d="M14.0002 4.74994C13.8102 4.74994 13.6202 4.67994 13.4702 4.52994L11.4702 2.52994C11.1802 2.23994 11.1802 1.75994 11.4702 1.46994C11.7602 1.17994 12.2402 1.17994 12.5302 1.46994L14.5302 3.46994C14.8202 3.75994 14.8202 4.23994 14.5302 4.52994C14.3802 4.67994 14.1902 4.74994 14.0002 4.74994Z" fill="#2C92F2"/>
<path d="M16.0002 22.75H8.00024C2.25024 22.75 2.25024 19.7 2.25024 17V16C2.25024 13.77 2.25024 11.25 7.00024 11.25C8.19024 11.25 8.63024 11.54 9.25024 12C9.28024 12.03 9.32024 12.05 9.35024 12.09L10.3702 13.17C11.2302 14.08 12.7902 14.08 13.6502 13.17L14.6702 12.09C14.7002 12.06 14.7302 12.03 14.7702 12C15.3902 11.53 15.8302 11.25 17.0202 11.25C21.7702 11.25 21.7702 13.77 21.7702 16V17C21.7502 20.82 19.8202 22.75 16.0002 22.75ZM7.00024 12.75C3.75024 12.75 3.75024 13.77 3.75024 16V17C3.75024 19.74 3.75024 21.25 8.00024 21.25H16.0002C18.9802 21.25 20.2502 19.98 20.2502 17V16C20.2502 13.77 20.2502 12.75 17.0002 12.75C16.2802 12.75 16.1302 12.84 15.7002 13.16L14.7302 14.19C14.0102 14.95 13.0402 15.37 12.0002 15.37C10.9602 15.37 9.99024 14.95 9.27024 14.19L8.30024 13.16C7.87024 12.84 7.72024 12.75 7.00024 12.75Z" fill="#2C92F2"/>
<path d="M5.00024 12.75C4.59024 12.75 4.25024 12.41 4.25024 12V9.99997C4.25024 8.05997 4.25024 5.64997 7.93024 5.29997C8.33024 5.24997 8.71024 5.55997 8.75024 5.97997C8.79024 6.38997 8.49024 6.75997 8.07024 6.79997C5.75024 7.00997 5.75024 7.94997 5.75024 9.99997V12C5.75024 12.41 5.41024 12.75 5.00024 12.75Z" fill="#2C92F2"/>
<path d="M19.0002 12.75C18.5902 12.75 18.2502 12.41 18.2502 12V9.99998C18.2502 7.94998 18.2502 7.00998 15.9302 6.78998C15.5202 6.74998 15.2202 6.37998 15.2602 5.96998C15.3002 5.55998 15.6602 5.24998 16.0802 5.29998C19.7602 5.64998 19.7602 8.05998 19.7602 9.99998V12C19.7502 12.41 19.4102 12.75 19.0002 12.75Z" fill="#2C92F2"/>
</svg>
