<svg width="24" height="14" viewBox="0 0 24 14" fill="none" xmlns="http://www.w3.org/2000/svg">
<path fill-rule="evenodd" clip-rule="evenodd" d="M17.163 1.94439C14.5121 1.94439 12.3631 4.07842 12.3631 6.7109C12.3631 9.3433 14.5121 11.4774 17.163 11.4774C19.8139 11.4774 21.9629 9.3433 21.9629 6.7109C21.9629 4.07842 19.8139 1.94439 17.163 1.94439ZM10.9086 6.7109C10.9086 5.3869 11.3258 4.15962 12.0368 3.1517H2.35899C1.90661 3.1517 1.5385 3.99359 1.5385 4.58533V9.4146C1.5385 10.0063 1.90657 10.8483 2.35899 10.8483H12.4983C11.5097 9.7499 10.9086 8.3001 10.9086 6.7109ZM2.35899 1.5H13.7584C14.7381 0.86746 15.9073 0.5 17.163 0.5C20.6172 0.5 23.4174 3.28071 23.4174 6.7109C23.4174 10.1411 20.6172 12.9218 17.163 12.9218C16.3623 12.9218 15.5966 12.7723 14.8929 12.5H2.35899C1.05826 12.5 0 11.1159 0 9.4146V4.58533C0 2.88407 1.05826 1.5 2.35899 1.5ZM22.6236 11.1111C22.3396 10.8291 21.8791 10.8291 21.5951 11.1111C21.3111 11.3932 21.3111 11.8504 21.5951 12.1325L22.7587 13.288C23.0427 13.57 23.5032 13.57 23.7872 13.288C24.0712 13.0059 24.0712 12.5487 23.7872 12.2666L22.6236 11.1111Z" fill="#2C92F2"/>
</svg>
