<svg width="24" height="24" viewBox="0 0 24 24" fill="none" xmlns="http://www.w3.org/2000/svg">
<path d="M19.04 22.2203H15.49C12.72 22.2203 11.78 21.2803 11.78 18.5103V12.8003C11.78 10.0303 12.72 9.09027 15.49 9.09027H19.04C21.81 9.09027 22.75 10.0303 22.75 12.8003V18.5103C22.75 21.2903 21.81 22.2203 19.04 22.2203ZM15.49 10.5903C13.53 10.5903 13.28 10.8403 13.28 12.8003V18.5103C13.28 20.4703 13.53 20.7203 15.49 20.7203H19.04C21 20.7203 21.25 20.4703 21.25 18.5103V12.8003C21.25 10.8403 21 10.5903 19.04 10.5903H15.49Z" fill="#2C92F2"/>
<path d="M17.3 18.9703C17.04 18.9703 16.78 18.8703 16.59 18.6803C16.5 18.5903 16.43 18.4803 16.38 18.3603C16.33 18.2303 16.3 18.1003 16.3 17.9703C16.3 17.7103 16.41 17.4503 16.59 17.2703C16.82 17.0403 17.17 16.9303 17.5 16.9903C17.56 17.0103 17.62 17.0303 17.68 17.0503C17.74 17.0803 17.8 17.1103 17.85 17.1403C17.91 17.1803 17.96 17.2203 18.01 17.2703C18.19 17.4503 18.3 17.7103 18.3 17.9703C18.3 18.1003 18.27 18.2303 18.22 18.3603C18.17 18.4803 18.1 18.5903 18.01 18.6803C17.96 18.7303 17.91 18.7703 17.85 18.8003C17.8 18.8403 17.74 18.8703 17.68 18.9003C17.62 18.9203 17.56 18.9403 17.5 18.9503C17.43 18.9703 17.37 18.9703 17.3 18.9703Z" fill="#2C92F2"/>
<path d="M2.75 12.7403C2.75 13.0618 2.75622 13.3544 2.77115 13.6206C2.77179 13.632 2.77244 13.6433 2.77311 13.6546C2.77402 13.6699 2.77496 13.6851 2.77593 13.7003H10C10.41 13.7003 10.75 13.3603 10.75 12.9503C10.75 12.5403 10.41 12.2003 10 12.2003H2.75V12.7403Z" fill="#2C92F2"/>
<path d="M6.74 22.2203H10C10.41 22.2203 10.75 21.8803 10.75 21.4703V16.9503C10.75 16.5403 10.41 16.2003 10 16.2003H6.21C3.62398 16.2003 2.9103 15.798 2.77593 13.7003C2.77496 13.6851 2.77402 13.6699 2.77311 13.6546C2.77244 13.6433 2.77179 13.632 2.77115 13.6206C2.75622 13.3544 2.75 13.0618 2.75 12.7403V12.2003V6.74027C2.75 3.80027 3.27 3.28027 6.21 3.28027H16.74C19.68 3.28027 20.2 3.80027 20.2 6.74027C20.2 7.15027 20.54 7.49027 20.95 7.49027C21.36 7.49027 21.7 7.15027 21.7 6.74027C21.7 2.94027 20.54 1.78027 16.74 1.78027H6.21C2.41 1.78027 1.25 2.94027 1.25 6.74027V12.7403C1.25 16.5403 2.41 17.7003 6.21 17.7003H9.25V20.7203H6.74C6.33 20.7203 5.99 21.0603 5.99 21.4703C5.99 21.8803 6.33 22.2203 6.74 22.2203Z" fill="#2C92F2"/>
</svg>
