<svg width="25" height="24" viewBox="0 0 25 24" fill="none" xmlns="http://www.w3.org/2000/svg">
<path d="M19.3062 15.056L19.8609 11.8458C19.8935 11.6576 19.8845 11.4646 19.8347 11.2803C19.7849 11.096 19.6954 10.9247 19.5725 10.7786C19.4496 10.6325 19.2962 10.5149 19.1231 10.4343C18.9501 10.3536 18.7615 10.3117 18.5705 10.3115H14.4932C14.3982 10.3114 14.3043 10.2906 14.218 10.2506C14.1318 10.2106 14.0553 10.1523 13.9938 10.0798C13.9324 10.0072 13.8874 9.92218 13.8621 9.83054C13.8368 9.7389 13.8317 9.64285 13.8473 9.54906L14.3689 6.36638C14.4532 5.8496 14.4291 5.32095 14.2981 4.81399C14.2415 4.60461 14.133 4.41288 13.9827 4.25652C13.8324 4.10015 13.6451 3.9842 13.4381 3.91938L13.324 3.8824C13.0663 3.80007 12.7868 3.8192 12.5427 3.9359C12.2752 4.06494 12.0801 4.3002 12.0077 4.57952L11.6332 6.02254C11.5141 6.48181 11.3409 6.92529 11.117 7.34361C10.7897 7.95496 10.2845 8.44515 9.75974 8.89757L8.62672 9.87323C8.46965 10.009 8.34697 10.18 8.26874 10.3723C8.19051 10.5646 8.15896 10.7727 8.17666 10.9795L8.81635 18.3701C8.84449 18.6968 8.99408 19.0011 9.23558 19.2229C9.47708 19.4448 9.79296 19.568 10.1209 19.5684H13.7788C16.5177 19.5684 18.8554 17.6596 19.3054 15.056" fill="#9098A7"/>
<path opacity="0.5" fill-rule="evenodd" clip-rule="evenodd" d="M5.69 9.72127C5.84206 9.71462 5.99081 9.76698 6.10517 9.86742C6.21953 9.96785 6.29067 10.1086 6.30371 10.2602L7.06693 19.1009C7.07986 19.2326 7.06581 19.3655 7.02565 19.4915C6.98549 19.6176 6.92006 19.7341 6.83336 19.834C6.74665 19.9339 6.64049 20.0151 6.52135 20.0726C6.40222 20.1301 6.27261 20.1627 6.14045 20.1684C6.00829 20.1742 5.87635 20.1529 5.75269 20.1059C5.62902 20.0589 5.51623 19.9872 5.4212 19.8952C5.32617 19.8032 5.2509 19.6928 5.19999 19.5707C5.14907 19.4486 5.12358 19.3174 5.12506 19.1851V10.3106C5.12513 10.1585 5.18392 10.0123 5.28918 9.90248C5.39444 9.79268 5.53803 9.72776 5.69 9.72127Z" fill="#9098A7"/>
</svg>
