<svg width="24" height="24" viewBox="0 0 24 24" fill="none" xmlns="http://www.w3.org/2000/svg">
<path fill-rule="evenodd" clip-rule="evenodd" d="M6.10055 22.4601L6.10001 22.46C2.79001 21.7 1.25 19.33 1.25 15V9C1.25 3.57 3.57 1.25 9 1.25H15C19.33 1.25 21.7 2.79001 22.46 6.10001C22.4621 6.10879 22.464 6.1176 22.4658 6.12643C22.652 6.96969 22.7499 7.91139 22.7499 9.00001V15C22.7499 17.77 22.1699 19.64 20.9099 20.91L20.9018 20.918C19.6319 22.1724 17.764 22.7499 14.9999 22.7499H8.99989C7.90017 22.7499 6.96037 22.66 6.10055 22.4601ZM13.4779 13.4621L13.4699 13.4699L6.03986 20.9C3.70997 20.2099 2.75 18.4699 2.75 15V9C2.75 4.39 4.39 2.75 9 2.75V2.75999H14.99C18.46 2.75999 20.21 3.71999 20.89 6.04996L13.4779 13.4621ZM15.06 14L20.3199 19.26C20.9499 18.29 21.2499 16.91 21.2499 15V9.00001C21.2499 8.59003 21.2399 8.21006 21.2099 7.85007L15.06 14ZM19.2599 20.3199L14 15.06L7.85003 21.21C8.20999 21.24 8.58994 21.2499 8.99989 21.2499H14.9999C16.9199 21.2499 18.2899 20.9499 19.2599 20.3199ZM9.11994 13.31C8.48994 13.31 7.85993 13.08 7.35993 12.61C5.76993 11.1 5.12996 9.44005 5.50996 7.82005C5.88996 6.16005 7.33994 5.04004 9.11994 5.04004C10.8999 5.04004 12.35 6.16005 12.73 7.82005C13.1 9.45005 12.4599 11.1 10.8699 12.61C10.3799 13.07 9.74994 13.31 9.11994 13.31ZM6.96995 8.15004C6.64995 9.51004 7.56994 10.7301 8.39994 11.5201C8.80994 11.91 9.43994 11.91 9.83994 11.5201C10.6599 10.7401 11.5799 9.52004 11.2699 8.15004C10.9999 6.96004 9.93994 6.53004 9.11994 6.53004C8.29994 6.53004 7.24995 6.96004 6.96995 8.15004ZM8.1499 8.49023C8.1499 9.04023 8.5999 9.49023 9.1499 9.49023C9.6999 9.49023 10.1599 9.04023 10.1599 8.49023C10.1599 7.94023 9.70991 7.49023 9.15991 7.49023H9.1499C8.5899 7.49023 8.1499 7.94023 8.1499 8.49023Z" fill="#2C92F2"/>
</svg>
