
<svg width="21" height="20" viewBox="0 0 21 20" fill="none" xmlns="http://www.w3.org/2000/svg">
  <path d="M10.5004 11.8079C8.72539 11.8079 7.27539 10.3662 7.27539 8.58288C7.27539 6.79954 8.72539 5.36621 10.5004 5.36621C12.2754 5.36621 13.7254 6.80788 13.7254 8.59121C13.7254 10.3745 12.2754 11.8079 10.5004 11.8079ZM10.5004 6.61621C9.41706 6.61621 8.52539 7.49954 8.52539 8.59121C8.52539 9.68288 9.40872 10.5662 10.5004 10.5662C11.5921 10.5662 12.4754 9.68288 12.4754 8.59121C12.4754 7.49954 11.5837 6.61621 10.5004 6.61621Z" fill="#2C92F2"/>
  <path d="M10.4994 18.967C9.26608 18.967 8.02441 18.5003 7.05775 17.5753C4.59941 15.2087 1.88275 11.4337 2.90775 6.94199C3.83275 2.86699 7.39108 1.04199 10.4994 1.04199C10.4994 1.04199 10.4994 1.04199 10.5077 1.04199C13.6161 1.04199 17.1744 2.86699 18.0994 6.95033C19.1161 11.442 16.3994 15.2087 13.9411 17.5753C12.9744 18.5003 11.7327 18.967 10.4994 18.967ZM10.4994 2.29199C8.07441 2.29199 4.95775 3.58366 4.13275 7.21699C3.23275 11.142 5.69941 14.5253 7.93275 16.667C9.37441 18.0587 11.6327 18.0587 13.0744 16.667C15.2994 14.5253 17.7661 11.142 16.8827 7.21699C16.0494 3.58366 12.9244 2.29199 10.4994 2.29199Z" fill="#2C92F2"/>
</svg>
