
<svg width="24" height="24" viewBox="0 0 24 24" fill="none" xmlns="http://www.w3.org/2000/svg">
  <path d="M12.5133 14.4861V16.7873C12.5133 17.6072 12.6954 18.3952 13.0266 19.106H6.43112C5.64066 19.106 5 18.4653 5 17.6749V8.01511C5 7.22465 5.64066 6.58398 6.43112 6.58398H13.5867C14.3768 6.58398 15.0179 7.22465 15.0179 8.01511V13.6512L12.5133 14.4861Z" stroke="#2C92F2" stroke-width="1.24482" stroke-miterlimit="10" stroke-linejoin="round"/>
  <path d="M6.43164 19.1068V20.359M10.0094 9.16602V16.6024M12.5138 9.16602V16.6024M7.50496 9.16602V16.6024M20.0271 14.4868V16.788C20.0271 17.9702 19.6486 19.0864 18.9901 20.0005C18.3312 20.9146 17.3918 21.6262 16.2702 22.0001C14.8046 21.5117 13.6507 20.4461 13.027 19.1067C12.6886 18.3806 12.5134 17.5891 12.5138 16.788V14.4868L15.0183 13.6519L16.2702 13.2345L20.0271 14.4868Z" stroke="#2C92F2" stroke-width="1.24482" stroke-miterlimit="10" stroke-linecap="round" stroke-linejoin="round"/>
  <path d="M8.13867 6.5847V2.6183C8.13867 2.27681 8.41548 2 8.75697 2H11.2614C11.6029 2 11.8797 2.27685 11.8797 2.6183V6.58465" stroke="#2C92F2" stroke-width="1.24482" stroke-miterlimit="10" stroke-linejoin="round"/>
  <path d="M14.8154 17.4005L15.4787 18.3L17.7251 16.9336" stroke="#2C92F2" stroke-width="1.24482" stroke-miterlimit="10" stroke-linecap="round" stroke-linejoin="round"/>
</svg>
