<svg width="24" height="24" viewBox="0 0 24 24" fill="none" xmlns="http://www.w3.org/2000/svg">
<path d="M6.5 21C6.0875 21 5.73438 20.8531 5.44063 20.5594C5.14687 20.2656 5 19.9125 5 19.5V7.75C5 7.26875 5.17135 6.85677 5.51405 6.51405C5.85677 6.17135 6.26875 6 6.75 6H9V3C9 2.72222 9.09723 2.48611 9.29168 2.29167C9.48611 2.09722 9.72222 2 10 2H14C14.2778 2 14.5139 2.09722 14.7083 2.29167C14.9028 2.48611 15 2.72222 15 3V6H17.5C17.9125 6 18.2656 6.14688 18.5594 6.44063C18.8531 6.73438 19 7.0875 19 7.5V19.5C19 19.9125 18.8531 20.2656 18.5594 20.5594C18.2656 20.8531 17.9125 21 17.5 21C17.5 21.2833 17.4042 21.5208 17.2125 21.7125C17.0208 21.9042 16.7833 22 16.5 22C16.2167 22 15.9792 21.9042 15.7875 21.7125C15.5958 21.5208 15.5 21.2833 15.5 21H8.5C8.5 21.2833 8.40417 21.5208 8.2125 21.7125C8.02083 21.9042 7.78333 22 7.5 22C7.21667 22 6.97917 21.9042 6.7875 21.7125C6.59583 21.5208 6.5 21.2833 6.5 21ZM6.5 19.5H17.5V7.5H6.5V19.5ZM8.25 18H9.25V9H8.25V18ZM11.5 18H12.5V9H11.5V18ZM14.75 18H15.75V9H14.75V18ZM10 6H14V3H10V6Z" fill="#019BFF"/>
</svg>
