<svg width="24" height="24" viewBox="0 0 24 24" fill="none" xmlns="http://www.w3.org/2000/svg">
<path opacity="0.4" d="M21.9693 12C21.9693 14.94 20.6893 17.6 18.6493 19.41C16.8893 21.01 14.5593 21.97 11.9993 21.97C6.4993 21.97 2.0293 17.5 2.0293 12C2.0293 6.50003 6.4993 2.03003 11.9993 2.03003C14.5593 2.03003 16.8893 2.99003 18.6493 4.59003C20.6893 6.40003 21.9693 9.06003 21.9693 12Z" fill="#9098A7"/>
<path d="M11.9693 16.39C11.9493 18.04 10.7193 18.44 9.5693 17.98C7.1993 17.03 5.5293 14.71 5.5293 12C5.5293 9.28999 7.1993 6.97 9.5693 6.01C10.7193 5.55 11.9493 5.95999 11.9693 7.59999V16.39Z" fill="#9098A7"/>
</svg>
