<svg width="24" height="24" viewBox="0 0 24 24" fill="none" xmlns="http://www.w3.org/2000/svg">
<path fill-rule="evenodd" clip-rule="evenodd" d="M8.35537 17.7658C8.55755 17.6812 8.75973 17.5965 8.96191 17.5166C8.98072 18.5745 8.97602 19.6372 8.98072 20.6951C8.97131 21.217 8.81145 21.8141 8.30365 22.1009C7.83346 22.3266 7.33976 22.5194 6.85077 22.7216C6.32415 22.9943 5.60947 23.3751 5.05465 22.872C4.72551 22.242 4.91359 21.3016 5.58596 20.9349C6.24892 20.6151 6.9307 20.3236 7.63128 20.0838C7.64538 20.3095 7.64068 20.5446 7.62187 20.775C7.01533 21.1088 6.38058 21.3721 5.76933 21.6872C5.55775 21.7812 5.39788 21.9693 5.35557 22.1903C5.36497 22.7592 6.12197 22.4583 6.39468 22.3313C6.9307 22.0445 7.49022 21.8047 8.02624 21.5226C8.27544 21.4192 8.34126 21.1559 8.35067 20.9349C8.36007 19.8769 8.34596 18.8237 8.35537 17.7658Z" fill="#232730"/>
<path fill-rule="evenodd" clip-rule="evenodd" d="M11.9289 17.7615C12.1264 17.6628 12.3239 17.5735 12.5307 17.5029C12.5543 18.7771 12.5354 20.0513 12.5402 21.3256C12.3427 21.429 12.1405 21.5183 11.9336 21.603C11.9148 20.3241 11.9289 19.0404 11.9289 17.7615Z" fill="#232730"/>
<path fill-rule="evenodd" clip-rule="evenodd" d="M15.685 17.7658C15.8825 17.6765 16.0847 17.5918 16.2916 17.5166C16.3057 18.7579 16.2869 19.9945 16.301 21.2358C16.0988 21.3439 15.8919 21.4286 15.6756 21.4991C15.6709 20.2531 15.6474 19.0071 15.685 17.7658Z" fill="#232730"/>
<path fill-rule="evenodd" clip-rule="evenodd" d="M17.2754 20.0748C17.3412 19.6986 17.6139 19.4118 17.8678 19.1438C17.8913 19.4118 17.8819 19.6798 17.8772 19.9478C17.6892 20.0231 17.4917 20.0842 17.2754 20.0748ZM18.2675 18.8946C18.5026 18.984 18.733 19.0827 18.9493 19.2049C18.7377 19.4165 18.5167 19.614 18.291 19.8068C18.2675 19.5012 18.2675 19.1955 18.2675 18.8946ZM17.9572 17.5264C18.4509 17.8132 18.8176 18.2646 19.2314 18.6501C19.5135 18.8852 19.4759 19.3084 19.3724 19.6234C19.1279 20.0936 18.5261 20.1312 18.1876 20.498C18.3004 20.545 18.4226 20.5497 18.5261 20.4839C18.8881 20.324 19.2314 20.1171 19.5887 19.9478C19.6028 20.2488 19.6122 20.5544 19.584 20.8553C17.8255 21.6593 16.0858 22.5057 14.3273 23.3097C14.3226 23.084 14.3226 22.863 14.332 22.6373C15.5075 22.0731 16.6924 21.5183 17.8772 20.9587C17.8725 20.8271 17.8678 20.6907 17.8725 20.5544C17.5575 20.6531 17.2049 20.686 16.9227 20.5497C16.6971 20.3757 16.7112 20.0607 16.7676 19.8115C16.9321 19.1861 17.3647 18.6689 17.8302 18.2364C17.8537 17.9966 17.8913 17.7568 17.9572 17.5264Z" fill="#232730"/>
<path fill-rule="evenodd" clip-rule="evenodd" d="M9.9259 19.2521C10.4008 19.0875 10.8804 19.3931 11.2095 19.7129C11.628 20.0984 11.8114 20.7238 11.6139 21.2598C11.5057 21.5278 11.2095 21.6265 10.9697 21.7441C10.3209 22.0262 9.6861 22.3506 9.02784 22.6233C9.01374 22.3929 9.01374 22.1672 9.01844 21.9369C9.6626 21.6171 10.3209 21.3209 10.9791 21.02C11.1108 20.9636 11.2283 20.8789 11.3412 20.7943C11.3036 20.7191 11.2659 20.6438 11.2236 20.5686C10.7487 20.6909 10.3397 20.9824 9.86478 21.0905C9.65319 21.1469 9.44631 21.02 9.38518 20.8131C9.20651 20.263 9.35697 19.5154 9.9259 19.2521ZM9.73312 20.4322C9.78955 20.216 9.89769 19.9856 10.1328 19.915C10.3256 19.8116 10.523 19.9338 10.7017 19.9997C10.3867 20.1595 10.0717 20.3194 9.73312 20.4322Z" fill="#232730"/>
<path fill-rule="evenodd" clip-rule="evenodd" d="M12.9218 22.0028C13.1851 21.448 13.707 21.0859 14.1255 20.6533C14.3465 20.8602 14.5675 21.0624 14.7744 21.2834C14.3042 21.5749 13.8105 21.8476 13.2698 22.0075C13.1569 22.0545 13.0347 22.031 12.9218 22.0028ZM13.7729 19.5625C14.2666 19.854 14.6521 20.296 15.0659 20.6815C15.3151 20.879 15.2634 21.2176 15.2351 21.4903C15.1693 21.7865 14.8731 21.937 14.6286 22.0639C14.196 22.2802 13.7682 22.5012 13.3074 22.6375C12.9406 22.7363 12.5033 22.4448 12.5504 22.0592C12.5974 21.3163 13.1522 20.7474 13.6553 20.2396C13.6882 20.0139 13.707 19.7835 13.7729 19.5625Z" fill="#232730"/>
<path opacity="0.4" fill-rule="evenodd" clip-rule="evenodd" d="M11.3179 11.0328C10.3681 11.3854 9.52174 11.8697 8.46852 12.0813C6.1787 12.6973 5.54865 11.7945 7.688 9.31662C10.8101 6.10523 14.6609 3.84363 18.0368 2.38134C20.0351 1.67606 21.1871 1.91586 20.5147 3.44867C19.7201 5.04261 18.2249 6.16636 17.0965 7.36063C17.1294 7.37944 17.1623 7.39355 17.1952 7.41235C18.4694 6.24159 20.1057 5.00499 21.1965 3.35463C22.5789 1.35163 22.1463 -0.0636368 18.3049 1.23408C16.0244 1.98168 13.8287 3.22298 11.4918 4.84513C9.79445 6.0159 8.12058 7.33712 6.57366 9.15205C3.63968 12.5797 5.09256 13.5953 7.57516 12.8571C9.01393 12.4011 10.3728 11.8791 11.3179 11.0328Z" fill="#232730"/>
<path fill-rule="evenodd" clip-rule="evenodd" d="M5.60972 10.4215L5.53449 10.5344C5.16304 10.8212 4.84331 11.0563 4.40134 11.4136C2.95316 12.5609 3.36692 13.5671 6.65354 13.5671C10.636 13.2944 14.5762 11.9496 17.75 10.3886C19.8 9.21312 20.3736 8.36678 19.5226 7.80256C18.7844 7.38879 17.9569 7.44992 17.1952 7.4123C17.2563 7.35588 17.3174 7.29946 17.3785 7.24303C18.1873 7.22423 21.3516 7.21012 21.4974 8.26804C21.582 8.87459 20.952 9.85728 18.4176 11.1221C16.5604 12.039 14.5903 12.8101 12.6155 13.379C10.1517 14.0843 7.68325 14.4745 5.43575 14.4886C0.809099 14.3617 1.83411 12.7348 3.5644 11.4888C4.34491 10.9575 5.01728 10.619 5.60972 10.4215Z" fill="#232730"/>
</svg>
