<svg width="88" height="88" viewBox="0 0 88 88" fill="none" xmlns="http://www.w3.org/2000/svg">
<g clip-path="url(#clip0_26170_124299)">
<rect width="88" height="88" rx="44" fill="#2C92F2" fill-opacity="0.12"/>
<path d="M89.9484 12.7218C88.1197 10.5368 85.7684 9.11183 83.0372 8.49433C82.4197 5.73933 81.3509 3.36433 79.7834 1.39308C79.7359 1.32183 79.6884 1.25058 79.6409 1.20308C74.4159 -5.11442 65.8659 -5.09067 60.0947 -1.81317C55.1547 1.01308 50.9509 6.97433 53.1597 15.4768C48.1009 16.7118 45.7734 21.1293 45.7734 25.1193C45.7734 29.5843 48.6947 34.5956 55.2022 35.0706H79.7597C79.7834 35.0706 79.8309 35.0706 79.8547 35.0706C83.2272 35.0706 86.4572 33.8118 88.9509 31.5318C94.9122 26.2593 94.1284 17.6618 89.9484 12.7218Z" fill="white" fill-opacity="0.8"/>
<path opacity="0.6" d="M92.6803 7.75719C92.6803 9.89469 91.9203 11.9372 90.5428 13.5047C90.3765 13.2434 90.1628 12.9822 89.949 12.7209C88.144 10.5597 85.769 9.08719 83.0378 8.49344C82.444 5.73844 81.3515 3.38719 79.784 1.41594C79.7603 1.34469 79.689 1.27344 79.6415 1.22594C79.404 0.940936 79.1428 0.679687 78.9053 0.418437C80.354 -0.579063 82.0165 -1.10156 83.8215 -1.10156C88.714 -1.10156 92.6803 2.86469 92.6803 7.75719Z" fill="white"/>
<path d="M17.8222 48.1673C23.2137 48.1673 27.5837 43.8487 27.5837 38.5204C27.5837 34.2974 24.8384 30.7082 21.0151 29.4013C20.4719 24.5821 16.3343 20.834 11.3135 20.834C5.92199 20.834 1.55208 25.1527 1.55208 30.4809C1.55208 31.6597 1.76562 32.7872 2.15683 33.8327C1.68965 33.7418 1.21483 33.6961 0.738908 33.696C-3.30472 33.6977 -6.58301 36.9367 -6.58301 40.9325C-6.58301 44.9283 -3.30472 48.1673 0.738908 48.1673H17.8222Z" fill="white"/>
<path d="M60.6202 73.0558H77.8685C76.4202 53.9422 68.191 42.0702 57.6357 35.048L62.4415 24.5586C62.5868 24.2257 62.6472 23.862 62.6173 23.5001C62.5874 23.1381 62.4682 22.7893 62.2702 22.4848C62.0723 22.1803 61.8019 21.9297 61.4833 21.7554C61.1647 21.5811 60.8078 21.4887 60.4446 21.4863H30.3588C29.9956 21.4887 29.6387 21.5811 29.3201 21.7554C29.0014 21.9297 28.731 22.1803 28.5331 22.4848C28.3352 22.7893 28.2159 23.1381 28.186 23.5001C28.1561 23.862 28.2165 24.2257 28.3618 24.5586L30.9952 30.2641H53.2029L51.2279 34.653H47.1682C48.4081 37.9869 49.3194 41.4339 49.8893 44.9449C50.2585 47.1229 50.493 49.3215 50.5915 51.5283L47.1243 53.9641C47.1337 51.1257 46.8988 48.2917 46.4221 45.4935C45.8157 41.7695 44.7697 38.1306 43.306 34.653H41.1115C39.0864 37.2119 37.2666 39.9268 35.6693 42.7724C34.3814 45.2134 33.2881 47.7522 32.3996 50.3652L29.3932 48.3683C30.2708 45.8428 31.3495 43.3918 32.619 41.0388C33.9018 38.8324 35.3085 36.7004 36.8324 34.653H32.9921L33.1677 35.0261C21.5371 42.7724 12.6935 56.378 12.6935 79.0905C12.6638 79.5679 12.7291 80.0465 12.8854 80.4986C13.0418 80.9507 13.2862 81.3673 13.6045 81.7243C13.9228 82.0814 14.3087 82.3719 14.7399 82.5789C15.1712 82.786 15.6391 82.9056 16.1168 82.9308H33.6724C32.9186 82.1462 32.3981 81.1673 32.1692 80.1036C31.9404 79.0399 32.0123 77.9335 32.3768 76.9084C32.7413 75.8833 33.384 74.9799 34.233 74.2994C35.0819 73.619 36.1036 73.1883 37.1835 73.0558C36.6579 72.1645 36.3778 71.1499 36.3715 70.1152C36.3715 68.5438 36.9958 67.0368 38.1069 65.9256C39.2181 64.8145 40.7251 64.1902 42.2965 64.1902H55.4632C57.0346 64.1902 58.5417 64.8145 59.6528 65.9256C60.764 67.0368 61.3882 68.5438 61.3882 70.1152C61.3995 71.1464 61.1343 72.1618 60.6202 73.0558Z" fill="#0085FF"/>
<path d="M53.4003 78.5416C53.4003 77.9596 53.1691 77.4014 52.7575 76.9899C52.346 76.5784 51.7878 76.3472 51.2058 76.3472H38.0392C37.4572 76.3472 36.899 76.5784 36.4875 76.9899C36.0759 77.4014 35.8447 77.9596 35.8447 78.5416C35.8447 79.1236 36.0759 79.6818 36.4875 80.0933C36.899 80.5049 37.4572 80.7361 38.0392 80.7361H51.2058C51.7878 80.7361 52.346 80.5049 52.7575 80.0933C53.1691 79.6818 53.4003 79.1236 53.4003 78.5416Z" fill="#4DA8FB"/>
<path d="M55.4627 67.5693H42.296C41.714 67.5693 41.1558 67.8005 40.7443 68.2121C40.3328 68.6236 40.1016 69.1818 40.1016 69.7638C40.1016 70.3458 40.3328 70.904 40.7443 71.3155C41.1558 71.727 41.714 71.9582 42.296 71.9582H55.4627C56.0447 71.9582 56.6028 71.727 57.0144 71.3155C57.4259 70.904 57.6571 70.3458 57.6571 69.7638C57.6571 69.1818 57.4259 68.6236 57.0144 68.2121C56.6028 67.8005 56.0447 67.5693 55.4627 67.5693Z" fill="#4DA8FB"/>
<path d="M54.2781 85.125H41.1114C40.5294 85.125 39.9713 85.3562 39.5597 85.7677C39.1482 86.1793 38.917 86.7374 38.917 87.3194C38.917 87.9014 39.1482 88.4596 39.5597 88.8712C39.9713 89.2827 40.5294 89.5139 41.1114 89.5139H54.2781C54.8601 89.5139 55.4183 89.2827 55.8298 88.8712C56.2413 88.4596 56.4725 87.9014 56.4725 87.3194C56.4725 86.7374 56.2413 86.1793 55.8298 85.7677C55.4183 85.3562 54.8601 85.125 54.2781 85.125Z" fill="#0085FF"/>
<path d="M77.7587 85.125H62.3976C61.8156 85.125 61.2574 85.3562 60.8459 85.7677C60.4343 86.1793 60.2031 86.7374 60.2031 87.3194C60.2031 87.9014 60.4343 88.4596 60.8459 88.8712C61.2574 89.2827 61.8156 89.5139 62.3976 89.5139H77.7587C78.3407 89.5139 78.8989 89.2827 79.3104 88.8712C79.7219 88.4596 79.9531 87.9014 79.9531 87.3194C79.9531 86.7374 79.7219 86.1793 79.3104 85.7677C78.8989 85.3562 78.3407 85.125 77.7587 85.125Z" fill="#4DA8FB"/>
<path d="M79.953 76.3472H64.5919C64.0099 76.3472 63.4517 76.5784 63.0402 76.9899C62.6287 77.4014 62.3975 77.9596 62.3975 78.5416C62.3975 79.1236 62.6287 79.6818 63.0402 80.0933C63.4517 80.5049 64.0099 80.7361 64.5919 80.7361H79.953C80.535 80.7361 81.0932 80.5049 81.5047 80.0933C81.9163 79.6818 82.1475 79.1236 82.1475 78.5416C82.1475 77.9596 81.9163 77.4014 81.5047 76.9899C81.0932 76.5784 80.535 76.3472 79.953 76.3472Z" fill="#4DA8FB"/>
</g>
<defs>
<clipPath id="clip0_26170_124299">
<rect width="88" height="88" rx="44" fill="white"/>
</clipPath>
</defs>
</svg>
