<svg width="24" height="24" viewBox="0 0 24 24" fill="currentColor" xmlns="http://www.w3.org/2000/svg">
<path fill-rule="evenodd" clip-rule="evenodd" d="M12.9523 7.34108C13.1799 7.23311 13.3897 7.08621 13.5712 6.90464C13.988 6.48796 14.2221 5.9227 14.2221 5.33333C14.2221 4.74396 13.988 4.17873 13.5712 3.76199C13.1545 3.34524 12.5893 3.11111 11.9998 3.11111C11.4105 3.11111 10.8453 3.34524 10.4285 3.76199C10.0117 4.17873 9.77764 4.74396 9.77764 5.33333C9.77764 5.9227 10.0117 6.48796 10.4285 6.90464C10.6101 7.08622 10.8198 7.23312 11.0475 7.34109C11.3612 7.28937 11.6799 7.26318 11.9999 7.26318C12.3199 7.26318 12.6386 7.28936 12.9523 7.34108ZM9.69224 7.73875C9.67562 7.7228 9.65915 7.70667 9.64283 7.69034C9.01775 7.06527 8.6665 6.21739 8.6665 5.33333C8.6665 5.24983 8.66964 5.16665 8.67584 5.08395L6.06467 4.73054C6.03794 4.77246 6.0084 4.81227 5.9762 4.84957C5.80567 5.04698 5.57444 5.15788 5.33333 5.15788H2.90909C2.66798 5.15788 2.43675 5.04698 2.26626 4.84957C2.09577 4.65216 2 4.38442 2 4.10524C2 3.82607 2.09577 3.55833 2.26626 3.36093C2.43675 3.16352 2.66798 3.05261 2.90909 3.05261H5.33333C5.57444 3.05261 5.80567 3.16352 5.9762 3.36093C6.03287 3.42656 6.08128 3.49997 6.12067 3.57899L9.16554 3.57898C9.29979 3.36207 9.45953 3.15962 9.64283 2.97631C10.268 2.35119 11.1158 2 11.9998 2C12.4376 2 12.8711 2.08622 13.2755 2.25374C13.6799 2.42125 14.0474 2.66678 14.3569 2.97631C14.6338 3.25321 14.8594 3.57646 15.0239 3.93106L17.8292 3.69579C17.8744 3.57185 17.9401 3.4579 18.0238 3.36093C18.1944 3.16352 18.4256 3.05261 18.6667 3.05261H21.0909C21.332 3.05261 21.5633 3.16352 21.7337 3.36093C21.9043 3.55833 22 3.82607 22 4.10524C22 4.38442 21.9043 4.65216 21.7337 4.84957C21.5633 5.04698 21.332 5.15788 21.0909 5.15788H18.6667C18.4256 5.15788 18.1944 5.04698 18.0238 4.84957C18.0177 4.8425 18.0117 4.83534 18.0058 4.82809L15.3267 5.12519C15.331 5.19439 15.3332 5.26381 15.3332 5.33333C15.3332 5.77108 15.247 6.20452 15.0795 6.60894C14.9119 7.01339 14.6664 7.3808 14.3569 7.69034C14.3406 7.70665 14.3242 7.72277 14.3076 7.73872C14.9101 7.99936 15.4592 8.36025 15.9283 8.8047C16.4442 9.29341 16.8534 9.87366 17.1326 10.5122C17.4118 11.1507 17.5554 11.8352 17.5554 12.5263V15.4503C17.5554 16.0706 17.2953 16.6656 16.8323 17.1044C16.3693 17.543 15.7412 17.7895 15.0863 17.7895H14.1908C14.2115 17.8947 14.2221 18.0024 14.2221 18.1111V20.3333C14.2221 20.7754 14.0465 21.1993 13.7339 21.5118C13.4214 21.8244 12.9975 22 12.5555 22H11.4443C11.0023 22 10.5783 21.8244 10.2659 21.5118C9.95327 21.1993 9.77764 20.7754 9.77764 20.3333V18.1111C9.77764 18.0024 9.78828 17.8947 9.80897 17.7895H8.91354C8.25869 17.7895 7.63062 17.543 7.16754 17.1044C6.70455 16.6656 6.44434 16.0706 6.44434 15.4503V12.5263C6.44434 11.8352 6.58808 11.1507 6.86725 10.5122C7.14651 9.87366 7.55572 9.29341 8.07159 8.8047C8.54071 8.36027 9.08965 7.99939 9.69224 7.73875ZM11.0587 8.53104C10.8158 8.58242 10.5774 8.65369 10.3463 8.74436C9.82215 8.95009 9.34577 9.25159 8.94449 9.63175C8.54331 10.0118 8.22506 10.4631 8.0079 10.9597C7.79074 11.4564 7.67894 11.9888 7.67894 12.5263V15.4503C7.67894 15.7605 7.80899 16.058 8.04054 16.2773C8.27208 16.4967 8.58606 16.6199 8.91354 16.6199H10.7C10.929 16.5056 11.1835 16.4445 11.4443 16.4445H12.5555C12.8163 16.4445 13.0708 16.5056 13.2998 16.6199H15.0863C15.4138 16.6199 15.7278 16.4967 15.9593 16.2773C16.1909 16.058 16.3209 15.7605 16.3209 15.4503V12.5263C16.3209 11.9888 16.2091 11.4564 15.992 10.9597C15.7748 10.4631 15.4566 10.0118 15.0553 9.63175C14.6541 9.25159 14.1777 8.95009 13.6535 8.74436C13.4224 8.65368 13.184 8.58239 12.9411 8.53102C12.636 8.6208 12.3191 8.66667 11.9998 8.66667C11.6783 8.66667 11.3616 8.62022 11.0587 8.53104ZM10.9913 17.7895C10.925 17.8828 10.8888 17.9951 10.8888 18.1111V20.3333C10.8888 20.4807 10.9473 20.622 11.0515 20.7262C11.1557 20.8304 11.297 20.8889 11.4443 20.8889H12.5555C12.7028 20.8889 12.8441 20.8304 12.9483 20.7262C13.0525 20.622 13.111 20.4807 13.111 20.3333V18.1111C13.111 17.9951 13.0747 17.8828 13.0085 17.7895H10.9913ZM15.3332 13.579C15.3332 13.8581 15.2055 14.1259 14.9782 14.3233C14.7509 14.5207 14.4425 14.6316 14.1211 14.6316C13.7996 14.6316 13.4913 14.5207 13.264 14.3233C13.0366 14.1259 12.9089 13.8581 12.9089 13.579C12.9089 13.2998 13.0366 13.0321 13.264 12.8347C13.4913 12.6373 13.7996 12.5264 14.1211 12.5264C14.4425 12.5264 14.7509 12.6373 14.9782 12.8347C15.2055 13.0321 15.3332 13.2998 15.3332 13.579ZM11.0907 13.579C11.0907 13.8581 10.963 14.1259 10.7357 14.3233C10.5084 14.5207 10.2001 14.6316 9.87857 14.6316C9.55715 14.6316 9.24887 14.5207 9.02153 14.3233C8.7942 14.1259 8.6665 13.8581 8.6665 13.579C8.6665 13.2998 8.7942 13.0321 9.02153 12.8347C9.24887 12.6373 9.55715 12.5264 9.87857 12.5264C10.2001 12.5264 10.5084 12.6373 10.7357 12.8347C10.963 13.0321 11.0907 13.2998 11.0907 13.579Z" fill="currentColor"/>
</svg>
