<svg width="88" height="88" viewBox="0 0 88 88" fill="none" xmlns="http://www.w3.org/2000/svg">
<g clip-path="url(#clip0_26264_229953)">
<path opacity="0.1" fill-rule="evenodd" clip-rule="evenodd" d="M43.9954 88C68.2959 88 87.9954 68.3005 87.9954 44C87.9954 19.6995 68.2959 0 43.9954 0C34.3003 0 25.3377 3.13562 18.0661 8.44804C19.196 8.7839 20.2698 9.30429 21.2418 9.9946C22.5433 10.9228 24.1023 11.4231 25.7019 11.4259C27.3016 11.4286 28.8623 10.9336 30.1669 10.0099L30.7033 9.6275C33.7468 7.45595 37.9733 9.6275 37.9733 13.359V36.4727H48.7006C49.3103 36.4727 49.8949 36.7144 50.326 37.1446C50.7571 37.5748 50.9993 38.1583 50.9993 38.7667V55.5889C50.9993 57.8197 50.1113 59.9591 48.5306 61.5364C46.95 63.1138 44.8061 64 42.5707 64H4.79306C12.0759 78.2467 26.8966 88 43.9954 88ZM2.78115 28.5586C2.87519 28.9814 3.08814 29.3726 3.39984 29.6837C3.83093 30.1139 4.41561 30.3556 5.02529 30.3556H23.4149C24.0245 30.3556 24.6092 30.1139 25.0403 29.6837C25.4714 29.2535 25.7136 28.67 25.7136 28.0616C25.7136 27.4532 25.4714 26.8698 25.0403 26.4396C24.6092 26.0094 24.0245 25.7677 23.4149 25.7677H5.02529C4.57684 25.7677 4.14192 25.8985 3.77169 26.1388C3.41839 26.9333 3.08793 27.7402 2.78115 28.5586ZM38.7396 55.5889V41.0606H46.4019V55.5889C46.4019 56.6029 45.9983 57.5753 45.2798 58.2923C44.5613 59.0093 43.5868 59.4121 42.5707 59.4121C41.5546 59.4121 40.5802 59.0093 39.8617 58.2923C39.1432 57.5753 38.7396 56.6029 38.7396 55.5889ZM21.9754 35.6153C22.4065 36.0455 22.6486 36.629 22.6486 37.2374C22.6486 37.8458 22.4065 38.4292 21.9754 38.8594C21.5443 39.2896 20.9596 39.5313 20.3499 39.5313H5.02529C4.41561 39.5313 3.83093 39.2896 3.39984 38.8594C2.96875 38.4292 2.72656 37.8458 2.72656 37.2374C2.72656 36.629 2.96875 36.0455 3.39984 35.6153C3.83093 35.1851 4.41561 34.9434 5.02529 34.9434H20.3499C20.9596 34.9434 21.5443 35.1851 21.9754 35.6153ZM25.0403 44.7911C24.6092 44.3609 24.0245 44.1192 23.4149 44.1192H5.02529C4.41561 44.1192 3.83093 44.3609 3.39984 44.7911C2.96875 45.2213 2.72656 45.8048 2.72656 46.4131C2.72656 47.0215 2.96875 47.605 3.39984 48.0352C3.83093 48.4654 4.41561 48.7071 5.02529 48.7071H23.4149C24.0245 48.7071 24.6092 48.4654 25.0403 48.0352C25.4714 47.605 25.7136 47.0215 25.7136 46.4131C25.7136 45.8048 25.4714 45.2213 25.0403 44.7911Z" fill="#2C92F2"/>
<path d="M72.9508 36.15V71.85C72.9508 74.4893 70.8091 76.6392 68.1708 76.65C67.5003 76.6527 66.9508 76.1196 66.9508 75.4493V32.5507C66.9508 31.8801 67.5006 31.3472 68.1711 31.35C70.8127 31.361 72.9508 33.5058 72.9508 36.15ZM64.5508 24V84C64.5508 87.309 61.8598 90 58.5508 90H27.0508C23.7418 90 21.0508 87.309 21.0508 84V24C21.0508 20.691 23.7418 18 27.0508 18H58.5508C61.8598 18 64.5508 20.691 64.5508 24ZM32.6008 26.55C32.6008 27.2127 33.1381 27.75 33.8008 27.75H51.8008C52.4635 27.75 53.0008 27.2127 53.0008 26.55C53.0008 25.8873 52.4635 25.35 51.8008 25.35H33.8008C33.1381 25.35 32.6008 25.8873 32.6008 26.55ZM36.5008 78.15C36.5008 77.4873 35.9635 76.95 35.3008 76.95H32.3008C31.6381 76.95 31.1008 77.4873 31.1008 78.15C31.1008 78.8127 31.6381 79.35 32.3008 79.35H35.3008C35.9635 79.35 36.5008 78.8127 36.5008 78.15ZM36.5008 70.65C36.5008 69.9873 35.9635 69.45 35.3008 69.45H32.3008C31.6381 69.45 31.1008 69.9873 31.1008 70.65C31.1008 71.3127 31.6381 71.85 32.3008 71.85H35.3008C35.9635 71.85 36.5008 71.3127 36.5008 70.65ZM36.5008 63.15C36.5008 62.4873 35.9635 61.95 35.3008 61.95H32.3008C31.6381 61.95 31.1008 62.4873 31.1008 63.15C31.1008 63.8127 31.6381 64.35 32.3008 64.35H35.3008C35.9635 64.35 36.5008 63.8127 36.5008 63.15ZM45.5008 78.15C45.5008 77.4873 44.9635 76.95 44.3008 76.95H41.3008C40.6381 76.95 40.1008 77.4873 40.1008 78.15C40.1008 78.8127 40.6381 79.35 41.3008 79.35H44.3008C44.9635 79.35 45.5008 78.8127 45.5008 78.15ZM45.5008 70.65C45.5008 69.9873 44.9635 69.45 44.3008 69.45H41.3008C40.6381 69.45 40.1008 69.9873 40.1008 70.65C40.1008 71.3127 40.6381 71.85 41.3008 71.85H44.3008C44.9635 71.85 45.5008 71.3127 45.5008 70.65ZM45.5008 63.15C45.5008 62.4873 44.9635 61.95 44.3008 61.95H41.3008C40.6381 61.95 40.1008 62.4873 40.1008 63.15C40.1008 63.8127 40.6381 64.35 41.3008 64.35H44.3008C44.9635 64.35 45.5008 63.8127 45.5008 63.15ZM54.5008 78.15C54.5008 77.4873 53.9635 76.95 53.3008 76.95H50.3008C49.6381 76.95 49.1008 77.4873 49.1008 78.15C49.1008 78.8127 49.6381 79.35 50.3008 79.35H53.3008C53.9635 79.35 54.5008 78.8127 54.5008 78.15ZM54.5008 70.65C54.5008 69.9873 53.9635 69.45 53.3008 69.45H50.3008C49.6381 69.45 49.1008 69.9873 49.1008 70.65C49.1008 71.3127 49.6381 71.85 50.3008 71.85H53.3008C53.9635 71.85 54.5008 71.3127 54.5008 70.65ZM54.5008 63.15C54.5008 62.4873 53.9635 61.95 53.3008 61.95H50.3008C49.6381 61.95 49.1008 62.4873 49.1008 63.15C49.1008 63.8127 49.6381 64.35 50.3008 64.35H53.3008C53.9635 64.35 54.5008 63.8127 54.5008 63.15ZM57.2008 35.7C57.2008 33.7151 55.5858 32.1 53.6008 32.1H32.0008C30.0159 32.1 28.4008 33.7151 28.4008 35.7V51.6C28.4008 53.5849 30.0159 55.2 32.0008 55.2H53.6008C55.5858 55.2 57.2008 53.5849 57.2008 51.6V35.7Z" fill="#2C92F2"/>
<path opacity="0.5" d="M32.0008 34.5H53.6008C54.2625 34.5 54.8008 35.0384 54.8008 35.7V51.6C54.8008 52.2617 54.2625 52.8 53.6008 52.8H32.0008C31.3392 52.8 30.8008 52.2617 30.8008 51.6V35.7C30.8008 35.0384 31.3392 34.5 32.0008 34.5Z" fill="#2C92F2"/>
</g>
<defs>
<clipPath id="clip0_26264_229953">
<rect width="88" height="88" rx="44" fill="white"/>
</clipPath>
</defs>
</svg>
