<svg width="24" height="24" viewBox="0 0 24 24" fill="none" xmlns="http://www.w3.org/2000/svg">
<path fill-rule="evenodd" clip-rule="evenodd" d="M11.9999 22.0072C17.5267 22.0072 22.0071 17.5268 22.0071 12C22.0071 6.47318 17.5267 1.9928 11.9999 1.9928C6.47306 1.9928 1.99268 6.47318 1.99268 12C1.99268 17.5268 6.47306 22.0072 11.9999 22.0072ZM10.5703 19.8018C14.8791 19.8018 18.3721 16.3088 18.3721 12C18.3721 7.6912 14.8791 4.19821 10.5703 4.19821C6.26145 4.19821 2.76847 7.6912 2.76847 12C2.76847 16.3088 6.26145 19.8018 10.5703 19.8018Z" fill="#BEBEBE"/>
<path opacity="0.6" fill-rule="evenodd" clip-rule="evenodd" d="M10.5707 19.3534C14.6318 19.3534 17.924 16.0611 17.924 12C17.924 7.93883 14.6318 4.64661 10.5707 4.64661C6.50952 4.64661 3.21729 7.93883 3.21729 12C3.21729 16.0611 6.50952 19.3534 10.5707 19.3534ZM11.6456 17.4903C14.6778 17.4903 17.1358 15.0322 17.1358 12C17.1358 8.96776 14.6778 6.50967 11.6456 6.50967C8.61329 6.50967 6.15523 8.96776 6.15523 12C6.15523 15.0322 8.61329 17.4903 11.6456 17.4903Z" fill="#BEBEBE"/>
</svg>
