
<svg width="24" height="24" viewBox="0 0 24 24" fill="none" xmlns="http://www.w3.org/2000/svg">
  <path fill-rule="evenodd" clip-rule="evenodd" d="M8.35537 17.7648C8.55755 17.6802 8.75973 17.5956 8.96191 17.5156C8.98072 18.5735 8.97602 19.6362 8.98072 20.6941C8.97131 21.216 8.81145 21.8131 8.30365 22.1C7.83346 22.3257 7.33976 22.5184 6.85077 22.7206C6.32415 22.9933 5.60947 23.3742 5.05465 22.8711C4.72551 22.241 4.91359 21.3006 5.58596 20.9339C6.24892 20.6142 6.9307 20.3226 7.63128 20.0829C7.64538 20.3085 7.64068 20.5436 7.62187 20.774C7.01533 21.1079 6.38058 21.3712 5.76933 21.6862C5.55775 21.7802 5.39788 21.9683 5.35557 22.1893C5.36497 22.7582 6.12197 22.4573 6.39468 22.3304C6.9307 22.0435 7.49022 21.8037 8.02624 21.5216C8.27544 21.4182 8.34126 21.1549 8.35067 20.9339C8.36007 19.876 8.34596 18.8227 8.35537 17.7648Z" fill="#2C92F2"/>
  <path fill-rule="evenodd" clip-rule="evenodd" d="M11.9289 17.7606C12.1264 17.6618 12.3239 17.5725 12.5307 17.502C12.5543 18.7762 12.5354 20.0504 12.5402 21.3246C12.3427 21.428 12.1405 21.5174 11.9336 21.602C11.9148 20.3231 11.9289 19.0395 11.9289 17.7606Z" fill="#2C92F2"/>
  <path fill-rule="evenodd" clip-rule="evenodd" d="M15.685 17.7648C15.8825 17.6755 16.0847 17.5909 16.2916 17.5156C16.3057 18.7569 16.2869 19.9935 16.301 21.2348C16.0988 21.343 15.8919 21.4276 15.6756 21.4981C15.6709 20.2521 15.6474 19.0061 15.685 17.7648Z" fill="#2C92F2"/>
  <path fill-rule="evenodd" clip-rule="evenodd" d="M17.2754 20.0738C17.3412 19.6977 17.6139 19.4108 17.8678 19.1428C17.8913 19.4108 17.8819 19.6789 17.8772 19.9469C17.6892 20.0221 17.4917 20.0832 17.2754 20.0738ZM18.2675 18.8936C18.5026 18.983 18.733 19.0817 18.9493 19.204C18.7377 19.4155 18.5167 19.613 18.291 19.8058C18.2675 19.5002 18.2675 19.1946 18.2675 18.8936ZM17.9572 17.5254C18.4509 17.8122 18.8176 18.2636 19.2314 18.6491C19.5135 18.8842 19.4759 19.3074 19.3724 19.6224C19.1279 20.0926 18.5261 20.1302 18.1876 20.497C18.3004 20.544 18.4226 20.5487 18.5261 20.4829C18.8881 20.323 19.2314 20.1161 19.5887 19.9469C19.6028 20.2478 19.6122 20.5534 19.584 20.8543C17.8255 21.6583 16.0858 22.5047 14.3273 23.3087C14.3226 23.083 14.3226 22.862 14.332 22.6363C15.5075 22.0721 16.6924 21.5173 17.8772 20.9578C17.8725 20.8261 17.8678 20.6898 17.8725 20.5534C17.5575 20.6521 17.2049 20.6851 16.9227 20.5487C16.6971 20.3747 16.7112 20.0597 16.7676 19.8105C16.9321 19.1852 17.3647 18.6679 17.8302 18.2354C17.8537 17.9956 17.8913 17.7558 17.9572 17.5254Z" fill="#2C92F2"/>
  <path fill-rule="evenodd" clip-rule="evenodd" d="M9.9259 19.2511C10.4008 19.0865 10.8804 19.3922 11.2095 19.7119C11.628 20.0974 11.8114 20.7228 11.6139 21.2588C11.5057 21.5268 11.2095 21.6255 10.9697 21.7431C10.3209 22.0252 9.6861 22.3496 9.02784 22.6223C9.01374 22.392 9.01374 22.1663 9.01844 21.9359C9.66259 21.6161 10.3209 21.3199 10.9791 21.019C11.1108 20.9626 11.2283 20.8779 11.3412 20.7933C11.3036 20.7181 11.2659 20.6429 11.2236 20.5676C10.7487 20.6899 10.3397 20.9814 9.86478 21.0895C9.65319 21.146 9.44631 21.019 9.38518 20.8121C9.20651 20.262 9.35697 19.5144 9.9259 19.2511ZM9.73312 20.4313C9.78955 20.215 9.89769 19.9846 10.1328 19.9141C10.3256 19.8106 10.523 19.9329 10.7017 19.9987C10.3867 20.1586 10.0717 20.3184 9.73312 20.4313Z" fill="#2C92F2"/>
  <path fill-rule="evenodd" clip-rule="evenodd" d="M12.9218 22.0008C13.1851 21.446 13.707 21.084 14.1255 20.6514C14.3465 20.8583 14.5675 21.0604 14.7744 21.2814C14.3042 21.573 13.8105 21.8457 13.2698 22.0055C13.1569 22.0525 13.0347 22.029 12.9218 22.0008ZM13.7729 19.5605C14.2666 19.8521 14.6521 20.294 15.0659 20.6796C15.3151 20.8771 15.2634 21.2156 15.2351 21.4883C15.1693 21.7845 14.8731 21.935 14.6286 22.0619C14.196 22.2782 13.7682 22.4992 13.3074 22.6356C12.9406 22.7343 12.5033 22.4428 12.5504 22.0572C12.5974 21.3143 13.1522 20.7454 13.6553 20.2376C13.6882 20.0119 13.707 19.7815 13.7729 19.5605Z" fill="#2C92F2"/>
  <path opacity="0.4" fill-rule="evenodd" clip-rule="evenodd" d="M11.3179 11.0328C10.3681 11.3854 9.52174 11.8697 8.46852 12.0813C6.1787 12.6973 5.54865 11.7945 7.688 9.31662C10.8101 6.10523 14.6609 3.84363 18.0368 2.38134C20.0351 1.67606 21.1871 1.91586 20.5147 3.44867C19.7201 5.04261 18.2249 6.16636 17.0965 7.36063C17.1294 7.37944 17.1623 7.39355 17.1952 7.41236C18.4694 6.24159 20.1057 5.00499 21.1965 3.35463C22.5789 1.35163 22.1463 -0.0636368 18.3049 1.23408C16.0244 1.98168 13.8287 3.22298 11.4918 4.84513C9.79445 6.0159 8.12058 7.33712 6.57366 9.15205C3.63968 12.5797 5.09256 13.5953 7.57516 12.8571C9.01393 12.4011 10.3728 11.8791 11.3179 11.0328Z" fill="#2C92F2"/>
  <path fill-rule="evenodd" clip-rule="evenodd" d="M5.60972 10.4215L5.53449 10.5344C5.16304 10.8212 4.84331 11.0563 4.40134 11.4136C2.95316 12.5609 3.36692 13.5671 6.65354 13.5671C10.636 13.2944 14.5762 11.9496 17.75 10.3886C19.8 9.21312 20.3736 8.36678 19.5226 7.80256C18.7844 7.38879 17.9569 7.44992 17.1952 7.4123C17.2563 7.35588 17.3174 7.29946 17.3785 7.24303C18.1873 7.22423 21.3516 7.21012 21.4974 8.26804C21.582 8.87459 20.952 9.85728 18.4176 11.1221C16.5604 12.039 14.5903 12.8101 12.6155 13.379C10.1517 14.0843 7.68325 14.4745 5.43575 14.4886C0.809099 14.3617 1.83411 12.7348 3.5644 11.4888C4.34491 10.9575 5.01728 10.619 5.60972 10.4215Z" fill="#2C92F2"/>
</svg>
