<svg width="24" height="24" viewBox="0 0 24 24" fill="none" xmlns="http://www.w3.org/2000/svg">
<path d="M11.1559 5.19063L10.3759 4.41061C9.90594 3.94061 9.90594 3.18065 10.3759 2.71065L11.1559 1.93062C11.6259 1.46062 12.3859 1.46062 12.8559 1.93062L13.6359 2.71065C14.1059 3.18065 14.1059 3.94061 13.6359 4.41061L12.8559 5.19063C12.3859 5.66063 11.6259 5.66063 11.1559 5.19063Z" fill="#2C92F2"/>
<path d="M12.0037 5.9111C11.6037 5.9111 11.1937 5.76114 10.8937 5.45114L10.1138 4.67111C9.50375 4.06111 9.50375 3.06113 10.1138 2.44113L10.8937 1.6611C11.4837 1.0611 12.5238 1.0711 13.1238 1.6611L13.9038 2.44113C14.5138 3.05113 14.5138 4.05111 13.9038 4.67111L13.1238 5.45114C12.8138 5.76114 12.4037 5.9111 12.0037 5.9111ZM12.0037 1.96115C11.7937 1.96115 11.5837 2.04114 11.4237 2.20114L10.6437 2.98111C10.3237 3.30111 10.3237 3.83115 10.6437 4.15115L11.4237 4.93112C11.7437 5.25112 12.2637 5.25112 12.5937 4.93112L13.3738 4.15115C13.6938 3.83115 13.6938 3.31111 13.3738 2.98111L12.5937 2.20114C12.4237 2.04114 12.2137 1.96115 12.0037 1.96115Z" fill="#2C92F2"/>
<path d="M19.45 9.80859H20.55C21.21 9.80859 21.75 10.3486 21.75 11.0086V12.1086C21.75 12.7686 21.21 13.3086 20.55 13.3086H19.45C18.79 13.3086 18.25 12.7686 18.25 12.1086V11.0086C18.25 10.3486 18.79 9.80859 19.45 9.80859Z" fill="#2C92F2"/>
<path d="M20.5472 13.6897H19.4472C18.5772 13.6897 17.8672 12.9797 17.8672 12.1097V11.0097C17.8672 10.1397 18.5772 9.42969 19.4472 9.42969H20.5472C21.4172 9.42969 22.1272 10.1397 22.1272 11.0097V12.1097C22.1172 12.9797 21.4172 13.6897 20.5472 13.6897ZM19.4472 10.1897C18.9872 10.1897 18.6172 10.5597 18.6172 11.0197V12.1197C18.6172 12.5797 18.9872 12.9497 19.4472 12.9497H20.5472C21.0072 12.9497 21.3772 12.5797 21.3772 12.1197V11.0197C21.3772 10.5597 21.0072 10.1897 20.5472 10.1897H19.4472Z" fill="#2C92F2"/>
<path d="M4.55 9.80859H3.45C2.79 9.80859 2.25 10.3486 2.25 11.0086L2.25 12.1086C2.25 12.7686 2.79 13.3086 3.45 13.3086H4.55C5.21 13.3086 5.75 12.7686 5.75 12.1086V11.0086C5.75 10.3486 5.21 9.80859 4.55 9.80859Z" fill="#2C92F2"/>
<path d="M4.54719 13.6897H3.44718C2.57718 13.6897 1.86719 12.9797 1.86719 12.1097L1.86719 11.0097C1.86719 10.1397 2.57718 9.42969 3.44718 9.42969H4.54719C5.41719 9.42969 6.12718 10.1397 6.12718 11.0097V12.1097C6.11718 12.9797 5.41719 13.6897 4.54719 13.6897ZM3.44718 10.1897C2.98718 10.1897 2.61719 10.5597 2.61719 11.0197L2.61719 12.1197C2.61719 12.5797 2.98718 12.9497 3.44718 12.9497H4.54719C5.00719 12.9497 5.37718 12.5797 5.37718 12.1197V11.0197C5.37718 10.5597 5.00719 10.1897 4.54719 10.1897H3.44718Z" fill="#2C92F2"/>
<path fill-rule="evenodd" clip-rule="evenodd" d="M12.7119 4.27045C13.0047 3.97756 13.4796 3.97756 13.7725 4.27045L19.0725 9.57044C19.3654 9.86333 19.3654 10.3382 19.0725 10.6311C18.7796 10.924 18.3048 10.924 18.0119 10.6311L12.7119 5.33111C12.419 5.03822 12.419 4.56335 12.7119 4.27045Z" fill="#2C92F2"/>
<path fill-rule="evenodd" clip-rule="evenodd" d="M11.2913 4.27045C11.5842 4.56335 11.5842 5.03822 11.2913 5.33111L5.99127 10.6311C5.69837 10.924 5.2235 10.924 4.93061 10.6311C4.63771 10.3382 4.63771 9.86333 4.93061 9.57044L10.2306 4.27045C10.5235 3.97756 10.9984 3.97756 11.2913 4.27045Z" fill="#2C92F2"/>
<path d="M13.2583 22.0072H10.6983C9.77833 22.0072 9.09833 21.2672 9.26833 20.4672L9.68834 18.6172H14.2783L14.6983 20.4672C14.8883 21.3172 14.2383 22.0072 13.2583 22.0072Z" fill="#2C92F2"/>
<path opacity="0.4" d="M16.0386 17.0489L14.2686 18.6189H9.67856L7.90856 17.0489C6.87856 16.2089 6.87856 15.5589 7.65856 14.5689L10.7786 10.6289C10.9986 10.3589 11.2486 10.1689 11.5186 10.0789C11.8086 9.97891 12.1286 9.97891 12.4186 10.0789C12.6886 10.1789 12.9386 10.3589 13.1586 10.6289L16.2786 14.5689C17.0686 15.5589 17.0286 16.1789 16.0386 17.0489Z" fill="#2C92F2"/>
</svg>
