<svg width="25" height="24" viewBox="0 0 25 24" fill="none" xmlns="http://www.w3.org/2000/svg">
<path d="M21.7915 10.0094H22.3782C22.3709 9.97126 22.3709 9.94076 22.3856 9.93313C22.2902 9.35347 22.1436 8.7967 21.9382 8.24755C21.4248 6.88232 20.6401 5.71538 19.6134 4.72387C17.4792 2.66457 14.9711 1.60441 12.0449 1.67306C12.0126 1.67306 11.9804 1.67714 11.9396 1.68233C11.9246 1.68422 11.9085 1.68627 11.8908 1.68831C12.0522 2.08492 12.2062 2.47389 12.3602 2.86287C12.3675 2.88575 12.4116 2.90864 12.4409 2.90864C12.8149 2.9544 13.1889 3.01541 13.541 3.14507C14.2743 3.41965 14.8024 3.9154 15.0077 4.72387C15.0737 4.99081 15.1031 5.25776 15.0811 5.54759H14.619C13.871 5.54759 13.123 5.55521 12.375 5.56284C12.0376 5.56665 11.6983 5.56856 11.3591 5.57047C11.02 5.57237 10.6807 5.57428 10.3434 5.57809C10.2701 5.57809 10.2481 5.55521 10.2334 5.47894C10.2277 5.45153 10.2222 5.42411 10.2166 5.3967L10.1959 5.29444C10.1438 5.03585 10.0918 4.77822 10.0207 4.52557C9.78603 3.68659 9.36801 2.9544 8.7813 2.32898C8.73003 2.27185 8.70436 2.24325 8.67507 2.23843C8.64571 2.23359 8.61271 2.25266 8.54661 2.29085C8.5136 2.30991 8.48244 2.32898 8.45128 2.34805C8.4201 2.36712 8.38893 2.38618 8.35593 2.40525C8.15072 2.51958 7.94553 2.64152 7.74032 2.76347C7.75496 2.78376 7.76268 2.79756 7.77082 2.81109L7.77606 2.81979C7.77803 2.82302 7.78007 2.82633 7.78227 2.82981L7.78389 2.83236C8.11391 3.34338 8.40727 3.87727 8.62728 4.44929C9.00865 5.44844 9.17732 6.48571 9.02331 7.56112C8.8473 8.77382 8.34127 9.81872 7.4832 10.6501C6.08244 12.0077 4.41032 12.4577 2.53286 12.1373C2.41471 12.115 2.30052 12.0886 2.18158 12.0611C2.13823 12.051 2.09386 12.0407 2.04883 12.0306V13.0144C2.04883 13.0869 2.04883 13.1231 2.06624 13.1412C2.08366 13.1594 2.1185 13.1594 2.18817 13.1594H7.25586C7.31453 13.1594 7.34386 13.1441 7.3732 13.0831C7.62255 12.5721 7.87007 12.0611 8.11758 11.5501C8.3651 11.039 8.61262 10.528 8.86197 10.017C8.89131 9.95601 8.92063 9.93313 8.98664 9.93313C9.19932 9.93694 9.41017 9.94266 9.62102 9.94838C9.83187 9.9541 10.0427 9.95982 10.2554 9.96364C10.7248 9.97889 11.1941 9.99414 11.6635 10.0018L13.6656 10.0475C13.6937 10.0475 13.7175 10.052 13.7468 10.0575C13.7558 10.0592 13.7654 10.061 13.7756 10.0628C13.321 11.0848 12.8663 12.0991 12.4116 13.1134C12.441 13.1211 12.4482 13.1212 12.4556 13.1212H15.1837C15.2351 13.1212 15.2497 13.0983 15.2718 13.0602L15.8438 11.8018L15.8445 11.8003C16.1156 11.1982 16.3867 10.5962 16.6652 10.0018C16.6798 9.97126 16.7238 9.93313 16.7532 9.93313C17.0905 9.93313 17.4278 9.94075 17.7652 9.94838C18.1979 9.95601 18.6325 9.96173 19.067 9.96745C19.5015 9.97317 19.9361 9.97889 20.3688 9.98652C20.6071 9.99033 20.8436 9.99414 21.0802 9.99796C21.3167 10.0018 21.5532 10.0056 21.7915 10.0094Z" fill="#232730"/>
<path d="M3.57427 11.3441C3.11958 11.3289 2.6722 11.2679 2.23217 11.1611C2.09284 11.1306 2.0855 11.1077 2.10017 10.9628C2.12217 10.7797 2.14234 10.5967 2.16251 10.4136C2.18268 10.2306 2.20285 10.0475 2.22484 9.86448C2.23952 9.74245 2.25418 9.7272 2.37152 9.76533C2.79689 9.89499 3.22224 9.95601 3.66227 9.93313C4.48367 9.88737 5.19505 9.57466 5.79643 8.995C6.33913 8.46111 6.66182 7.80519 6.76449 7.03486C6.8525 6.37131 6.73516 5.73064 6.47847 5.12047C6.32446 4.75438 6.11911 4.41116 5.88443 4.09845C5.86977 4.07557 5.85509 4.05269 5.8331 4.02981C5.78909 3.97642 5.79643 3.93066 5.85509 3.88489C5.94632 3.81279 6.03573 3.74068 6.12514 3.66858L6.12645 3.66752C6.21629 3.59507 6.30613 3.52261 6.3978 3.45015C6.4528 3.40821 6.50781 3.36435 6.56281 3.32049C6.61782 3.27664 6.67282 3.23278 6.72782 3.19083C6.79383 3.13745 6.8525 3.1527 6.90384 3.21372C7.52721 3.87727 7.96724 4.65522 8.14326 5.57047C8.45861 7.16452 8.09192 8.59077 7.03584 9.79584C6.30246 10.6424 5.37106 11.1306 4.28565 11.2831C4.16831 11.2946 4.04914 11.3041 3.92996 11.3136C3.81079 11.3232 3.69161 11.3327 3.57427 11.3441Z" fill="#232730"/>
<path d="M5.0997 4.57895C4.81368 4.88404 4.53499 5.18149 4.25631 5.48657C4.48366 5.73826 4.65234 6.00521 4.70368 6.3408C4.76235 6.68401 4.71101 7.00435 4.52033 7.28655C4.11697 7.88908 3.57426 7.9501 2.95089 7.6679L2.46685 8.76619C2.48886 8.77191 2.49848 8.77763 2.50812 8.78336C2.51132 8.78526 2.51453 8.78717 2.51819 8.78907C3.41292 9.13992 4.26364 9.07127 5.04103 8.47637C5.64241 8.01874 5.96509 7.39333 5.97977 6.60774C5.9871 6.15012 5.86243 5.72301 5.64974 5.3264C5.50307 5.05183 5.32705 4.80014 5.0997 4.57895Z" fill="#232730"/>
<g opacity="0.4">
<path d="M16.3341 21.1184C16.4423 21.0426 16.5517 20.966 16.6611 20.888C16.6391 20.8499 16.6024 20.7965 16.5511 20.7584C16.4866 20.6554 16.42 20.5532 16.3533 20.4509C16.2074 20.2272 16.0607 20.0022 15.935 19.7668C15.3556 18.6685 15.1063 17.494 15.275 16.2355C15.4143 15.2135 15.7957 14.2906 16.4557 13.5127C17.8565 11.8652 19.6386 11.2932 21.6994 11.5525C21.8412 11.5689 21.9829 11.597 22.1274 11.6257C22.1847 11.637 22.2425 11.6485 22.3008 11.6593C22.3008 11.6212 22.3008 11.583 22.2934 11.5525C22.2818 11.4371 22.2677 11.3216 22.2537 11.2061L22.2536 11.2048C22.2324 11.0309 22.2113 10.857 22.1981 10.683C22.1908 10.5763 22.1541 10.5534 22.0661 10.5534C21.6554 10.5534 21.2447 10.5458 20.834 10.5381C20.4233 10.5381 20.0053 10.5305 19.5946 10.5229L17.0204 10.5C16.9618 10.5 16.9324 10.5153 16.9104 10.5686C16.8517 10.7021 16.7912 10.8337 16.7307 10.9652C16.6702 11.0968 16.6097 11.2284 16.5511 11.3619C16.2137 12.1246 15.8837 12.8873 15.5536 13.65C15.5243 13.7186 15.4803 13.7415 15.407 13.7415C14.812 13.7377 14.2152 13.7358 13.6175 13.7339C13.0216 13.7319 12.4248 13.73 11.8281 13.7262C11.4614 13.7186 11.1021 13.7186 10.7354 13.7186H10.6253C10.86 13.1847 11.0928 12.6527 11.3257 12.1207C11.5585 11.5888 11.7914 11.0568 12.0261 10.5229C12.0018 10.5229 11.9798 10.5206 11.9601 10.5185C11.9439 10.5168 11.9293 10.5153 11.9161 10.5153C11.4678 10.5114 11.0177 10.5095 10.5666 10.5076C10.1174 10.5057 9.66733 10.5038 9.21721 10.5C9.15854 10.5 9.1292 10.5229 9.09987 10.5763C8.86886 11.0835 8.63968 11.5926 8.41049 12.1017C8.18131 12.6108 7.95213 13.1199 7.72111 13.6271C7.68444 13.7034 7.64777 13.7339 7.55976 13.7339H1.83203C1.83936 13.7644 1.83936 13.7796 1.83936 13.7949C1.97871 14.5423 2.22073 15.2593 2.55075 15.9457C3.11545 17.1355 3.87818 18.1804 4.8169 19.0804C6.98038 21.1473 9.5179 22.1541 12.4661 22.0244C12.4815 22.0204 12.4989 22.0185 12.5173 22.0165C12.5339 22.0147 12.5514 22.0128 12.5688 22.0092L12.5659 22.0017L12.5616 21.9902C12.5513 21.9629 12.5442 21.9441 12.5321 21.9253C12.4677 21.7853 12.4021 21.6452 12.3363 21.5047L12.335 21.5019L12.3347 21.5012C12.2362 21.2908 12.1372 21.0793 12.0407 20.8651C12.0114 20.7965 11.9674 20.7812 11.9014 20.766C11.8216 20.7511 11.7418 20.7374 11.6622 20.7237C11.4565 20.6884 11.2516 20.6532 11.0507 20.5982C10.5666 20.4685 10.1413 20.2245 9.83325 19.7973C9.57657 19.4465 9.43722 19.0346 9.36388 18.5999C9.3519 18.5251 9.34209 18.4526 9.33209 18.3787C9.32376 18.3171 9.3152 18.2538 9.30522 18.188H14.2042C14.2116 18.2033 14.2189 18.2186 14.2189 18.2338C14.2189 18.2414 14.2207 18.2491 14.2226 18.2567C14.2244 18.2643 14.2262 18.272 14.2262 18.2796C14.3949 19.4923 14.9523 20.5067 15.7297 21.399C15.781 21.46 15.8323 21.4753 15.9057 21.4219C16.0446 21.3212 16.1883 21.2205 16.3341 21.1184Z" fill="#232730"/>
<path d="M22.1028 12.5593C21.6481 12.4525 21.186 12.3915 20.7167 12.3915C20.7167 12.3839 20.7167 12.3762 20.7093 12.3534C20.5869 12.37 20.4636 12.3826 20.3403 12.3951C20.1238 12.4172 19.9075 12.4393 19.6973 12.483C18.7292 12.6737 17.8931 13.139 17.2404 13.9093C16.3384 14.9771 15.9643 16.2203 16.1184 17.6313C16.2357 18.6838 16.6611 19.5838 17.3431 20.3617C17.4018 20.4304 17.4604 20.438 17.5265 20.3846L17.5272 20.384C17.813 20.163 18.0987 19.9421 18.3845 19.7134C18.5019 19.6219 18.5018 19.6143 18.4065 19.5075C18.4029 19.5019 18.3989 19.4968 18.3946 19.4919C18.3902 19.4868 18.3855 19.4819 18.3808 19.477C18.3717 19.4675 18.3625 19.4579 18.3552 19.4465C17.6585 18.6304 17.3358 17.6847 17.5044 16.6092C17.7171 15.2364 18.4872 14.3135 19.7706 13.8864C20.5113 13.6423 21.2594 13.6881 22.0001 13.8788C22.0808 13.9017 22.1174 13.8864 22.1248 13.8025C22.1688 13.4517 22.2128 13.1008 22.2494 12.75C22.2568 12.6203 22.2348 12.5898 22.1028 12.5593Z" fill="#232730"/>
<path d="M20.9807 14.6415C21.252 14.6491 21.5234 14.7177 21.7947 14.8169C21.8681 14.8474 21.8754 14.8779 21.8461 14.9466C21.8022 15.0493 21.7601 15.1502 21.718 15.251L21.7169 15.2536C21.675 15.354 21.6331 15.4544 21.5894 15.5567C21.5601 15.6215 21.5308 15.6881 21.5015 15.7548C21.4722 15.8215 21.4427 15.8885 21.4134 15.9533C21.3841 16.0296 21.3327 16.0448 21.2594 16.0143C20.9807 15.9228 20.702 15.8771 20.4086 15.9457C19.9833 16.0448 19.6899 16.3957 19.6313 16.8609C19.5653 17.3567 19.6973 17.7991 20.0273 18.1652C20.086 18.2262 20.0566 18.2796 20.02 18.3253C19.9808 18.3711 19.9352 18.4169 19.8896 18.4626C19.8668 18.4855 19.8439 18.5084 19.8219 18.5313C19.6606 18.6991 19.4919 18.8668 19.3306 19.027C19.2866 19.0728 19.2426 19.088 19.1912 19.0346C18.7732 18.6228 18.4578 18.1423 18.3552 17.5321C18.2305 16.7999 18.4212 16.144 18.8832 15.5872C19.3746 14.9923 19.998 14.6644 20.7607 14.6338C20.8193 14.6415 20.8927 14.6415 20.9807 14.6415Z" fill="#232730"/>
</g>
</svg>
