<svg width="24" height="24" viewBox="0 0 24 24" fill="none" xmlns="http://www.w3.org/2000/svg">
<path d="M21.3321 19.0345C21.2065 19.5975 20.8951 20.1019 20.4481 20.4665C19.9597 20.9618 19.3778 21.3551 18.7361 21.6236C18.0944 21.8921 17.4057 22.0304 16.7101 22.0305H16.3851C14.9251 21.9512 13.4956 21.5817 12.1801 20.9435H12.1701C11.8651 20.8015 11.5501 20.6595 11.2451 20.4865C9.70952 19.6255 8.30105 18.5552 7.06011 17.3065C5.44967 15.7938 4.12811 14.0006 3.16011 12.0145C2.64566 10.926 2.30228 9.76466 2.14211 8.57145C1.90657 7.32246 2.04826 6.03162 2.54911 4.86345C2.8653 4.33643 3.25149 3.85471 3.69711 3.43145C3.89762 3.2047 4.14277 3.02177 4.41722 2.89409C4.69166 2.76642 4.98951 2.69675 5.29211 2.68945C5.62121 2.72582 5.93981 2.8272 6.22941 2.98771C6.51901 3.14822 6.77384 3.36465 6.97911 3.62445C7.43611 4.12145 7.99411 4.63945 8.45211 5.11745L9.08211 5.73745C9.45211 6.06545 9.68111 6.52345 9.72211 7.01745C9.72211 7.47045 9.55511 7.90745 9.25411 8.24645C9.05917 8.48354 8.85224 8.71051 8.63411 8.92645L8.43111 9.13945C8.31311 9.24945 8.22311 9.38545 8.16711 9.53645C8.11711 9.68512 8.09711 9.83745 8.10711 9.99345C8.26811 10.4245 8.52111 10.8165 8.84711 11.1415C9.35611 11.8315 9.86411 12.4315 10.3821 13.0815C11.3191 14.1692 12.431 15.0929 13.6721 15.8145C13.7991 15.9075 13.9451 15.9695 14.1001 15.9965C14.2341 16.0065 14.3701 15.9865 14.4961 15.9365C14.8511 15.7275 15.1661 15.4595 15.4301 15.1435C15.7851 14.7087 16.2948 14.4284 16.8521 14.3615C17.3884 14.3688 17.9 14.5881 18.2751 14.9715C18.4781 15.1435 18.7011 15.3775 18.9151 15.6015L19.2191 15.9155L19.5341 16.2205L20.0731 16.7685C20.3944 17.0538 20.6958 17.3588 20.9771 17.6835C21.2591 18.0735 21.3861 18.5565 21.3321 19.0345Z" fill="#353B46"/>
<path d="M17.1467 11.8487C17.2892 11.9911 17.4818 12.0721 17.6833 12.0742C17.7834 12.0744 17.8826 12.0549 17.9752 12.0167C18.0677 11.9785 18.1518 11.9224 18.2227 11.8516C18.2935 11.7808 18.3496 11.6966 18.3878 11.6041C18.426 11.5115 18.4455 11.4123 18.4452 11.3122C18.4464 10.5368 18.2946 9.76876 17.9984 9.05216C17.7022 8.33557 17.2675 7.68446 16.7192 7.13618C16.171 6.58789 15.5198 6.1532 14.8032 5.85701C14.0867 5.56083 13.3186 5.40898 12.5433 5.41016C12.3412 5.41016 12.1473 5.49045 12.0044 5.63335C11.8615 5.77625 11.7812 5.97007 11.7812 6.17216C11.7812 6.37426 11.8615 6.56808 12.0044 6.71098C12.1473 6.85388 12.3412 6.93416 12.5433 6.93416C13.1185 6.93311 13.6882 7.04563 14.2199 7.26527C14.7515 7.48491 15.2346 7.80735 15.6413 8.2141C16.0481 8.62084 16.3705 9.10389 16.5901 9.63553C16.8098 10.1672 16.9223 10.7369 16.9213 11.3122C16.9233 11.5136 17.0043 11.7062 17.1467 11.8487Z" fill="#353B46" fill-opacity="0.4"/>
<path d="M21.2107 11.7203C21.0094 11.7182 20.817 11.6374 20.6746 11.4951C20.5321 11.3529 20.4511 11.1605 20.4487 10.9592C20.4503 9.97915 20.2586 9.00836 19.8846 8.10243C19.5106 7.1965 18.9616 6.3732 18.2691 5.67966C17.5766 4.98611 16.7541 4.43593 15.8487 4.06059C14.9433 3.68525 13.9728 3.49212 12.9927 3.49225C12.8904 3.49596 12.7884 3.47901 12.6928 3.44241C12.5971 3.40581 12.5099 3.35031 12.4362 3.27924C12.3625 3.20816 12.3038 3.12296 12.2638 3.02872C12.2238 2.93448 12.2031 2.83314 12.2031 2.73075C12.2031 2.62836 12.2238 2.52702 12.2638 2.43278C12.3038 2.33854 12.3625 2.25334 12.4362 2.18226C12.5099 2.11119 12.5971 2.05569 12.6928 2.01909C12.7884 1.98249 12.8904 1.96554 12.9927 1.96925C14.1728 1.96925 15.3414 2.20185 16.4315 2.65377C17.5217 3.10568 18.5121 3.76804 19.3461 4.60297C20.1801 5.4379 20.8413 6.42902 21.292 7.51968C21.7427 8.61034 21.974 9.77914 21.9727 10.9592C21.973 11.0594 21.9535 11.1586 21.9153 11.2512C21.8771 11.3437 21.8209 11.4278 21.7501 11.4987C21.6793 11.5695 21.5952 11.6256 21.5026 11.6638C21.4101 11.702 21.3109 11.7205 21.2107 11.7203Z" fill="#353B46"/>
</svg>
