<svg width="38" height="38" viewBox="0 0 38 38" fill="none" xmlns="http://www.w3.org/2000/svg">
<path d="M27.5635 14.9999L9.0171 26.1839C7.92522 26.839 6.52138 26.0591 6.52138 24.78V12.3014C6.52138 6.8576 12.4019 3.45717 17.1282 6.17128L24.2878 10.2892L27.5479 12.161C28.6242 12.8006 28.6398 14.3604 27.5635 14.9999Z" fill="white"/>
<path d="M28.4994 24.1407L22.1821 27.7907L15.8804 31.4251C13.6186 32.7197 11.0605 32.4545 9.20428 31.1443C8.29958 30.5204 8.40877 29.1321 9.36027 28.5706L29.1857 16.6847C30.1216 16.1231 31.3539 16.6535 31.5254 17.7298C31.9154 20.1475 30.9171 22.7524 28.4994 24.1407Z" fill="white"/>
</svg>
