<svg width="32" height="32" viewBox="0 0 32 32" fill="none" xmlns="http://www.w3.org/2000/svg">
<path d="M31.666 20.5107V11.4795C31.666 9.69626 31.4179 8.17218 30.3639 7.12923C29.3285 6.10491 27.7461 5.77934 25.7715 5.69043L25.7546 5.68913C25.3616 5.67811 24.9161 5.667 24.4395 5.66699H8.89258C7.62765 5.667 6.54731 5.72768 5.64258 5.89486C4.737 6.06219 3.94412 6.34753 3.30534 6.84147C1.97101 7.87349 1.66605 9.52059 1.66602 11.4899V16.5407C1.66615 17.0929 2.11381 17.5407 2.66602 17.5407C3.21822 17.5407 3.66589 17.0929 3.66602 16.5407V11.4899C3.66605 9.60352 3.99105 8.83897 4.52799 8.4235C4.8249 8.19386 5.27846 7.99674 6.00586 7.8623C6.73423 7.72771 7.67403 7.667 8.89258 7.66699H24.4395C24.8862 7.667 25.3081 7.67818 25.6986 7.68913L25.6999 7.68783C27.6164 7.7759 28.4995 8.0992 28.9564 8.55111C29.3959 8.98588 29.666 9.76909 29.666 11.4795V20.5107C29.666 22.3971 29.341 23.1617 28.804 23.5771C28.5071 23.8068 28.0536 24.0039 27.3262 24.1383C26.5978 24.2729 25.658 24.3337 24.4395 24.3337H15.9382L15.8366 24.3389C15.3321 24.3898 14.9382 24.8157 14.9382 25.3337C14.9382 25.8516 15.3321 26.2775 15.8366 26.3285L15.9382 26.3337H24.4395C25.7044 26.3337 26.7847 26.273 27.6895 26.1058C28.595 25.9385 29.3879 25.6531 30.0267 25.1592C31.361 24.1272 31.666 22.4801 31.666 20.5107Z" fill="#2C92F2"/>
<path d="M11.5332 17.4971L11.4316 17.4919C10.9271 17.4409 10.5332 17.015 10.5332 16.4971C10.5332 15.9791 10.9271 15.5533 11.4316 15.5023L11.5332 15.4971L17.3327 15.4971C17.885 15.4971 18.3327 15.9448 18.3327 16.4971C18.3327 17.0494 17.885 17.4971 17.3327 17.4971L11.5332 17.4971Z" fill="#2C92F2"/>
<path d="M7.66732 13.4971C7.11503 13.4971 6.66732 13.0494 6.66732 12.4971C6.66732 11.9448 7.11503 11.4971 7.66732 11.4971L17.3327 11.4971C17.885 11.4971 18.3327 11.9448 18.3327 12.4971C18.3327 13.0494 17.885 13.4971 17.3327 13.4971L7.66732 13.4971Z" fill="#2C92F2"/>
<path d="M25.5528 15.8298V12.667C25.5528 12.2988 25.2543 12.0003 24.8862 12.0003V10.0003C26.3589 10.0003 27.5528 11.1942 27.5528 12.667V15.8298C27.5528 17.3025 26.3589 18.4977 24.8862 18.4977H23.1075C21.635 18.4977 20.4412 17.3035 20.4408 15.8311V12.667C20.4408 11.1942 21.6347 10.0003 23.1075 10.0003V12.0003C22.7393 12.0003 22.4408 12.2988 22.4408 12.667V15.8311C22.4411 16.153 22.6697 16.4214 22.9734 16.4834L23.1075 16.4977H24.8862L25.0203 16.4834C25.3242 16.4213 25.5528 16.152 25.5528 15.8298ZM24.8862 10.0003V12.0003H23.1075V10.0003H24.8862Z" fill="#2C92F2"/>
<path d="M3.68424 22.8763C3.6843 22.3701 3.81256 21.8691 4.18294 21.4987C4.55338 21.1283 5.05434 21 5.56055 21H5.63346V20.7422C5.63346 20.4886 5.57009 20.4184 5.55925 20.4076C5.5476 20.396 5.47736 20.3334 5.22591 20.3333H3.07617C2.82262 20.3333 2.75239 20.3967 2.74154 20.4076C2.73069 20.4184 2.66732 20.4886 2.66732 20.7422V26.5911C2.66732 26.8447 2.73069 26.9149 2.74154 26.9258C2.75239 26.9366 2.82262 27 3.07617 27H3.68424V22.8763ZM6.9668 22.3333H5.56055C5.26231 22.3334 5.15906 22.4081 5.12565 22.4414C5.09239 22.4747 5.01764 22.5779 5.01758 22.8763V28.3333H3.07617C2.61473 28.3333 2.14673 28.2164 1.79883 27.8685C1.45092 27.5206 1.33398 27.0526 1.33398 26.5911V20.7422C1.33398 20.2807 1.45092 19.8127 1.79883 19.4648C2.14673 19.1169 2.61473 19 3.07617 19H5.22591C5.68727 19 6.15542 19.117 6.50326 19.4648C6.85086 19.8127 6.9668 20.2809 6.9668 20.7422V22.3333Z" fill="#2C92F2"/>
<path d="M9.01863 22.8763C9.01857 22.5759 8.94427 22.4727 8.91186 22.4401C8.88021 22.4083 8.7794 22.3334 8.48087 22.3333H5.56055C5.26231 22.3334 5.15906 22.4081 5.12565 22.4414C5.09239 22.4747 5.01764 22.5779 5.01758 22.8763L5.01732 28.457C5.01738 28.7555 5.09214 28.8587 5.1254 28.8919C5.15866 28.9252 5.26187 28.9999 5.56029 29H8.48087C8.7794 29 8.88021 28.9251 8.91186 28.8932C8.94427 28.8606 9.01857 28.7574 9.01863 28.457V22.8763ZM10.352 28.457C10.3519 28.961 10.2269 29.4623 9.85847 29.8333C9.48892 30.2052 8.9871 30.3333 8.48087 30.3333H5.56029C5.05411 30.3333 4.55307 30.205 4.18269 29.8346C3.8123 29.4643 3.68405 28.9632 3.68399 28.457L3.68424 22.8763C3.6843 22.3701 3.81256 21.8691 4.18294 21.4987C4.55338 21.1283 5.05434 21 5.56055 21H8.48087C8.9871 21 9.48892 21.1282 9.85847 21.5C10.2269 21.871 10.3519 22.3724 10.352 22.8763V28.457Z" fill="#2C92F2"/>
<path d="M11.3335 20.7422C11.3335 20.4886 11.2701 20.4184 11.2593 20.4076C11.2476 20.396 11.1773 20.3334 10.9259 20.3333H8.77618C8.52263 20.3333 8.45239 20.3967 8.44155 20.4076C8.4307 20.4184 8.36733 20.4886 8.36733 20.7422V21H8.48087C8.9871 21 9.48892 21.1282 9.85847 21.5C10.2269 21.871 10.3519 22.3724 10.352 22.8763L10.3517 27H10.9259C11.1773 27 11.2476 26.9373 11.2593 26.9258C11.2701 26.9149 11.3335 26.8447 11.3335 26.5911V20.7422ZM12.6668 26.5911C12.6668 27.0524 12.5509 27.5206 12.2033 27.8685C11.8554 28.2163 11.3873 28.3333 10.9259 28.3333H9.01837L9.01863 22.8763C9.01857 22.5759 8.94427 22.4727 8.91186 22.4401C8.88021 22.4083 8.7794 22.3334 8.48087 22.3333H7.034V20.7422C7.034 20.2808 7.15095 19.8128 7.49884 19.4648C7.84674 19.1169 8.31475 19 8.77618 19H10.9259C11.3873 19 11.8554 19.117 12.2033 19.4648C12.5509 19.8127 12.6668 20.2809 12.6668 20.7422V26.5911Z" fill="#2C92F2"/>
<path d="M7.37565 28.1667V29.6667H6.62565V28.1667C6.62565 27.9617 6.79565 27.7917 7.00065 27.7917C7.20565 27.7917 7.37565 27.9617 7.37565 28.1667Z" fill="#2C92F2"/>
<path d="M5.83099 24.6208C5.83099 24.3337 6.06366 24.1011 6.35068 24.1011H7.68564C7.97266 24.1011 8.20534 24.3337 8.20534 24.6208C8.20534 24.9078 7.97266 25.1405 7.68564 25.1405H6.35068C6.06366 25.1405 5.83099 24.9078 5.83099 24.6208Z" fill="#2C92F2"/>
<path d="M5.83099 26.0715C5.83099 25.7845 6.06366 25.5518 6.35068 25.5518H7.68564C7.97266 25.5518 8.20534 25.7845 8.20534 26.0715C8.20534 26.3585 7.97266 26.5912 7.68564 26.5912H6.35068C6.06366 26.5912 5.83099 26.3585 5.83099 26.0715Z" fill="#2C92F2"/>
</svg>
