<svg width="32" height="32" viewBox="0 0 32 32" fill="none" xmlns="http://www.w3.org/2000/svg">
<path d="M31.666 20.5107V11.4795C31.666 9.69626 31.4179 8.17218 30.3639 7.12923C29.3285 6.10491 27.7461 5.77934 25.7715 5.69043L25.7546 5.68913C25.3616 5.67811 24.9161 5.667 24.4395 5.66699H8.89258C7.62765 5.667 6.54731 5.72768 5.64258 5.89486C4.737 6.06219 3.94412 6.34753 3.30534 6.84147C1.97101 7.87349 1.66605 9.52059 1.66602 11.4899V16.5407C1.66615 17.0929 2.11381 17.5407 2.66602 17.5407C3.21822 17.5407 3.66589 17.0929 3.66602 16.5407V11.4899C3.66605 9.60352 3.99105 8.83897 4.52799 8.4235C4.8249 8.19386 5.27846 7.99674 6.00586 7.8623C6.73423 7.72771 7.67403 7.667 8.89258 7.66699H24.4395C24.8862 7.667 25.3081 7.67818 25.6986 7.68913L25.6999 7.68783C27.6164 7.7759 28.4995 8.0992 28.9564 8.55111C29.3959 8.98588 29.666 9.76909 29.666 11.4795V20.5107C29.666 22.3971 29.341 23.1617 28.804 23.5771C28.5071 23.8068 28.0536 24.0039 27.3262 24.1383C26.5978 24.2729 25.658 24.3337 24.4395 24.3337H15.9382L15.8366 24.3389C15.3321 24.3898 14.9382 24.8157 14.9382 25.3337C14.9382 25.8516 15.3321 26.2775 15.8366 26.3285L15.9382 26.3337H24.4395C25.7044 26.3337 26.7847 26.273 27.6895 26.1058C28.595 25.9385 29.3879 25.6531 30.0267 25.1592C31.361 24.1272 31.666 22.4801 31.666 20.5107Z" fill="#2C92F2"/>
<path d="M7.44727 27.0753C7.44727 27.2839 7.3721 27.4783 7.2207 27.63C7.06894 27.7817 6.87394 27.857 6.66471 27.8565C6.45668 27.8559 6.26392 27.7807 6.11263 27.63C5.96053 27.4783 5.88477 27.2841 5.88477 27.0753V25.5714H4.38086C4.17202 25.5714 3.9778 25.4956 3.82617 25.3435C3.67541 25.1922 3.60019 24.9994 3.59961 24.7914C3.59912 24.5818 3.67412 24.3871 3.82617 24.2354L3.94727 24.1365C4.07535 24.0515 4.22405 24.0089 4.38086 24.0089H5.88477V22.505C5.88477 22.2961 5.96053 22.1019 6.11263 21.9503L6.23372 21.8513C6.36154 21.7666 6.50874 21.7241 6.66471 21.7237C6.82217 21.7233 6.97108 21.7658 7.09961 21.8513L7.2207 21.9503L7.31966 22.0714C7.40487 22.1996 7.44777 22.3478 7.44727 22.505V24.0089H8.95117C9.15984 24.0089 9.35421 24.084 9.50586 24.2354C9.65762 24.3872 9.73292 24.5822 9.73242 24.7914C9.73185 24.9993 9.65731 25.1922 9.50716 25.3435C9.35545 25.4963 9.16061 25.5707 8.95117 25.5701L7.44727 25.5714V27.0753Z" fill="#2C92F2"/>
<path d="M11.3327 24.7901C11.3327 22.2128 9.24334 20.1234 6.66602 20.1234C4.08869 20.1234 1.99935 22.2128 1.99935 24.7901C1.99935 27.3674 4.08869 29.4568 6.66602 29.4568C9.24334 29.4568 11.3327 27.3674 11.3327 24.7901ZM12.666 24.7901C12.666 28.1038 9.97972 30.7901 6.66602 30.7901C3.35231 30.7901 0.666016 28.1038 0.666016 24.7901C0.666016 21.4764 3.35231 18.7901 6.66602 18.7901C9.97972 18.7901 12.666 21.4764 12.666 24.7901Z" fill="#2C92F2"/>
<path d="M11.5332 17.4971L11.4316 17.4919C10.9271 17.4409 10.5332 17.015 10.5332 16.4971C10.5332 15.9791 10.9271 15.5533 11.4316 15.5023L11.5332 15.4971L17.3327 15.4971C17.885 15.4971 18.3327 15.9448 18.3327 16.4971C18.3327 17.0494 17.885 17.4971 17.3327 17.4971L11.5332 17.4971Z" fill="#2C92F2"/>
<path d="M7.66732 13.4971C7.11503 13.4971 6.66732 13.0494 6.66732 12.4971C6.66732 11.9448 7.11503 11.4971 7.66732 11.4971L17.3327 11.4971C17.885 11.4971 18.3327 11.9448 18.3327 12.4971C18.3327 13.0494 17.885 13.4971 17.3327 13.4971L7.66732 13.4971Z" fill="#2C92F2"/>
<path d="M25.5528 15.8298V12.667C25.5528 12.2988 25.2543 12.0003 24.8862 12.0003V10.0003C26.3589 10.0003 27.5528 11.1942 27.5528 12.667V15.8298C27.5528 17.3025 26.3589 18.4977 24.8862 18.4977H23.1075C21.635 18.4977 20.4412 17.3035 20.4408 15.8311V12.667C20.4408 11.1942 21.6347 10.0003 23.1075 10.0003V12.0003C22.7393 12.0003 22.4408 12.2988 22.4408 12.667V15.8311C22.4411 16.153 22.6697 16.4214 22.9734 16.4834L23.1075 16.4977H24.8862L25.0203 16.4834C25.3242 16.4213 25.5528 16.152 25.5528 15.8298ZM24.8862 10.0003V12.0003H23.1075V10.0003H24.8862Z" fill="#2C92F2"/>
</svg>
