<svg width="32" height="32" viewBox="0 0 32 32" fill="none" xmlns="http://www.w3.org/2000/svg">
<path opacity="0.4" d="M22.667 24.5736H17.3337L11.4003 28.5203C10.5203 29.1069 9.33366 28.4802 9.33366 27.4136V24.5736C5.33366 24.5736 2.66699 21.9069 2.66699 17.9069V9.9069C2.66699 5.9069 5.33366 3.24023 9.33366 3.24023H22.667C26.667 3.24023 29.3337 5.9069 29.3337 9.9069V17.9069C29.3337 21.9069 26.667 24.5736 22.667 24.5736Z" fill="#232730" fill-opacity="0.6"/>
<path d="M16.0004 16.1465C15.4537 16.1465 15.0004 15.6931 15.0004 15.1465V14.8665C15.0004 13.3199 16.1337 12.5599 16.5604 12.2665C17.0537 11.9332 17.2137 11.7065 17.2137 11.3599C17.2137 10.6932 16.6671 10.1465 16.0004 10.1465C15.3337 10.1465 14.7871 10.6932 14.7871 11.3599C14.7871 11.9065 14.3338 12.3599 13.7871 12.3599C13.2404 12.3599 12.7871 11.9065 12.7871 11.3599C12.7871 9.58653 14.2271 8.14648 16.0004 8.14648C17.7737 8.14648 19.2137 9.58653 19.2137 11.3599C19.2137 12.8799 18.0938 13.6398 17.6804 13.9198C17.1604 14.2665 17.0004 14.4932 17.0004 14.8665V15.1465C17.0004 15.7065 16.5471 16.1465 16.0004 16.1465Z" fill="#232730" fill-opacity="0.6"/>
<path d="M16 19.4668C15.44 19.4668 15 19.0135 15 18.4668C15 17.9201 15.4533 17.4668 16 17.4668C16.5467 17.4668 17 17.9201 17 18.4668C17 19.0135 16.56 19.4668 16 19.4668Z" fill="#232730" fill-opacity="0.6"/>
</svg>
