<svg width="24" height="24" viewBox="0 0 24 24" fill="none" xmlns="http://www.w3.org/2000/svg">
<path d="M2.25 21.25V21.75H2.75H7.92H8.42V21.25V14.75V14.25H7.92H4C3.03386 14.25 2.25 15.0339 2.25 16V21.25ZM8.67 22.25H2C1.86614 22.25 1.75 22.1339 1.75 22V16C1.75 14.7561 2.75614 13.75 4 13.75H8.67C8.80386 13.75 8.92 13.8661 8.92 14V22C8.92 22.1339 8.80386 22.25 8.67 22.25Z" fill="#232730" stroke="#2C92F2"/>
<path d="M8.92015 21.25V21.75H9.42015H14.5902H15.0902V21.25V12C15.0902 11.0339 14.3063 10.25 13.3402 10.25H10.6702C9.70401 10.25 8.92015 11.0339 8.92015 12V21.25ZM15.3302 22.25H8.66016C8.5263 22.25 8.41016 22.1339 8.41016 22V12C8.41016 10.7561 9.4163 9.75 10.6602 9.75H13.3302C14.574 9.75 15.5802 10.7561 15.5802 12V22C15.5802 22.1382 15.4697 22.25 15.3302 22.25Z" fill="#232730" stroke="#2C92F2"/>
<path d="M15.5781 21.25V21.75H16.0781H21.2481H21.7481V21.25V19C21.7481 18.0339 20.9643 17.25 19.9981 17.25H16.0781H15.5781V17.75V21.25ZM21.9981 22.25H15.3281C15.1943 22.25 15.0781 22.1339 15.0781 22V17C15.0781 16.8661 15.1943 16.75 15.3281 16.75H19.9981C21.242 16.75 22.2481 17.7561 22.2481 19V22C22.2481 22.1339 22.132 22.25 21.9981 22.25Z" fill="#232730" stroke="#2C92F2"/>
<path d="M12.2554 7.16101L12 7.00839L11.744 7.16008L10.934 7.64008L10.9324 7.64102C10.6067 7.83567 10.3749 7.85523 10.2309 7.83945C10.0798 7.82291 9.97424 7.76163 9.91565 7.72061C9.87495 7.69212 9.78549 7.61439 9.72314 7.47207C9.66373 7.33649 9.61299 7.10681 9.69638 6.7415L9.88631 5.91178L9.94802 5.64221L9.75247 5.44666L9.07247 4.76667C9.07247 4.76666 9.07247 4.76666 9.07247 4.76666C8.7512 4.44539 8.6963 4.13435 8.77428 3.89522C8.85429 3.64985 9.083 3.42895 9.52387 3.35294L10.3939 3.20295L10.643 3.15999L10.7561 2.93382L11.2453 1.95551C11.2454 1.95525 11.2456 1.95499 11.2457 1.95473C11.4385 1.57323 11.7371 1.42773 11.9927 1.42773C12.2477 1.42773 12.5428 1.57254 12.7309 1.95217L12.7317 1.95384L13.2217 2.93382L13.3348 3.15999L13.584 3.20295L14.454 3.35294C14.9026 3.43028 15.1301 3.6542 15.2006 3.88579L15.2005 3.88582L15.2036 3.89522C15.2798 4.12893 15.2218 4.44142 14.9031 4.76892L14.2254 5.44666L14.0298 5.64221L14.0915 5.91178L14.2812 6.74036C14.2812 6.74058 14.2813 6.74081 14.2813 6.74103C14.3651 7.11233 14.3138 7.3421 14.2547 7.47708C14.193 7.61783 14.1031 7.69963 14.0489 7.74024L14.0323 7.75272L14.0167 7.76653C14.0176 7.76574 14.0175 7.76583 14.0163 7.76665C14.011 7.7704 13.9839 7.78943 13.9337 7.80883C13.8767 7.83086 13.7977 7.85023 13.6989 7.85023C13.5582 7.85023 13.3453 7.80947 13.0738 7.65005L12.2554 7.16101ZM12.4217 6.68898L12.4217 6.68899L12.4251 6.69101L12.9851 7.02099L13.9767 7.60531L13.727 6.48175L13.607 5.94175L13.6071 5.94173L13.6053 5.9344C13.5469 5.68903 13.641 5.35521 13.8325 5.16377L13.8325 5.16377L14.3425 4.65376L15.023 3.97319L14.0749 3.80766L13.4451 3.69771C13.445 3.6977 13.445 3.69769 13.4449 3.69768C13.2001 3.65475 12.9447 3.46381 12.8361 3.24662L12.8362 3.24659L12.8325 3.23955L12.4425 2.48955L11.9931 1.62535L11.5529 2.49424L11.1729 3.24424L11.1729 3.24424L11.1717 3.24662C11.0636 3.46288 10.8099 3.65312 10.5661 3.69712L9.94053 3.79641L8.97175 3.9502L9.66537 4.64379L10.1754 5.15376C10.1754 5.15377 10.1754 5.15377 10.1754 5.15377C10.3603 5.33875 10.4555 5.6733 10.4004 5.93386L10.2808 6.47174L10.0311 7.59531L11.0228 7.01098L11.5828 6.681L11.5894 6.67708L11.5959 6.67297C11.6819 6.61863 11.8202 6.58021 11.9989 6.58021C12.1589 6.58021 12.308 6.62079 12.4217 6.68898Z" fill="#232730" stroke="#2C92F2"/>
</svg>
