<svg width="40" height="40" viewBox="0 0 40 40" fill="none" xmlns="http://www.w3.org/2000/svg">
<g clip-path="url(#clip0_26173_124358)">
<rect opacity="0.1" width="40" height="40" fill="#2C92F2"/>
<g opacity="0.4">
<path d="M29.0331 26.1843C28.6843 26.9898 27.8586 27.5103 26.9301 27.5103L13.0701 27.5103C12.1423 27.5103 11.3158 26.9898 10.9678 26.1858C10.0746 24.1091 9.92909 21.8313 10.5478 19.5986C11.5648 15.9401 14.7831 13.1246 18.5593 12.5928C19.0416 12.5231 19.5261 12.4878 20.0001 12.4878C20.4741 12.4878 20.9586 12.5231 21.4438 12.5936C25.2163 13.1246 28.4346 15.9401 29.4523 19.5978C30.0711 21.8313 29.9256 24.1098 29.0331 26.1843Z" fill="#2C92F2"/>
<path fill-rule="evenodd" clip-rule="evenodd" d="M30.7528 19.2371C29.5933 15.0686 25.9281 11.8616 21.6343 11.2571C20.5516 11.0992 19.4516 11.0992 18.3688 11.2571C14.0721 11.8616 10.4068 15.0686 9.24734 19.2378C8.54534 21.7706 8.71109 24.3581 9.72809 26.7213C10.2921 28.0203 11.6038 28.8603 13.0701 28.8603L26.9301 28.8603C28.3963 28.8603 29.7081 28.0203 30.2728 26.7198C31.2891 24.3581 31.4541 21.7706 30.7528 19.2371ZM26.9301 27.5103C27.8586 27.5103 28.6843 26.9898 29.0331 26.1843C29.9256 24.1098 30.0711 21.8313 29.4523 19.5978C28.4346 15.9401 25.2163 13.1246 21.4438 12.5936C20.9586 12.5231 20.4741 12.4878 20.0001 12.4878C19.5261 12.4878 19.0416 12.5231 18.5593 12.5928C14.7831 13.1246 11.5648 15.9401 10.5478 19.5986C9.92909 21.8313 10.0746 24.1091 10.9678 26.1858C11.3158 26.9898 12.1423 27.5103 13.0701 27.5103L26.9301 27.5103Z" fill="#2C92F2"/>
</g>
<path d="M20.0002 16.2406C20.2192 16.2406 20.4374 16.2549 20.6564 16.2751C21.2113 16.3267 21.7545 16.4657 22.2659 16.6869C22.3473 16.7228 22.435 16.7423 22.524 16.7442C22.613 16.7461 22.7014 16.7304 22.7843 16.698C22.8671 16.6656 22.9428 16.6171 23.0068 16.5553C23.0709 16.4936 23.1221 16.4198 23.1576 16.3382C23.193 16.2566 23.212 16.1688 23.2133 16.0798C23.2147 15.9909 23.1985 15.9025 23.1656 15.8198C23.1327 15.7371 23.0838 15.6618 23.0217 15.5981C22.9596 15.5344 22.8855 15.4836 22.8037 15.4486C22.1618 15.1712 21.4802 14.9965 20.7839 14.9311C20.5235 14.9053 20.2619 14.8918 20.0002 14.8906C15.9059 14.8906 12.5752 18.2214 12.5752 22.3156C12.5752 23.1256 12.7034 23.9124 12.9562 24.6556C13.0153 24.8235 13.1382 24.9613 13.2983 25.0391C13.4583 25.1169 13.6426 25.1284 13.8111 25.0711C13.9796 25.0138 14.1187 24.8924 14.1982 24.7331C14.2777 24.5739 14.2912 24.3897 14.2357 24.2206C14.0278 23.6071 13.9229 22.9634 13.9252 22.3156C13.9252 18.9661 16.6499 16.2406 20.0002 16.2406Z" fill="#2C92F2"/>
<path fill-rule="evenodd" clip-rule="evenodd" d="M24.4595 16.9031L21.3095 20.0538C20.3045 19.4741 19.0002 19.6031 18.1422 20.4611C17.6509 20.9542 17.375 21.622 17.375 22.3181C17.375 23.0142 17.6509 23.6819 18.1422 24.1751C18.6552 24.6866 19.3272 24.9423 20 24.9423C20.6727 24.9423 21.3447 24.6866 21.8577 24.1751C22.715 23.3171 22.844 22.0128 22.265 21.0086L25.415 17.8578C25.4776 17.7951 25.5274 17.7206 25.5613 17.6387C25.5952 17.5567 25.6126 17.4689 25.6126 17.3802C25.6126 17.2915 25.595 17.2037 25.5611 17.1218C25.5271 17.0398 25.4773 16.9654 25.4146 16.9027C25.3518 16.84 25.2774 16.7903 25.1954 16.7564C25.1135 16.7225 25.0256 16.705 24.9369 16.7051C24.8483 16.7051 24.7604 16.7226 24.6785 16.7566C24.5966 16.7906 24.5221 16.8403 24.4595 16.9031ZM20 23.5925C20.3382 23.5925 20.6627 23.4584 20.9022 23.2196C21.1411 22.9799 21.2752 22.6553 21.2752 22.317C21.2752 21.9786 21.1411 21.654 20.9022 21.4143C20.654 21.1661 20.3262 21.0416 20 21.0416C19.6737 21.0416 19.346 21.1661 19.0977 21.4151C18.8589 21.6546 18.7248 21.9791 18.7248 22.3173C18.7248 22.6556 18.8589 22.98 19.0977 23.2196C19.3373 23.4584 19.6617 23.5925 20 23.5925Z" fill="#2C92F2"/>
</g>
<defs>
<clipPath id="clip0_26173_124358">
<rect width="40" height="40" rx="8" fill="white"/>
</clipPath>
</defs>
</svg>
