<svg width="24" height="24" viewBox="0 0 24 24" fill="none" xmlns="http://www.w3.org/2000/svg">
<path fill-rule="evenodd" clip-rule="evenodd" d="M3.89481 2.49637C4.84095 1.48504 6.3285 1.25 8.22 1.25H15.78C17.6715 1.25 19.1591 1.48504 20.1052 2.49637C21.0347 3.48991 21.25 5.03645 21.25 7.04001V11.3C21.25 11.7142 20.9142 12.05 20.5 12.05C20.0858 12.05 19.75 11.7142 19.75 11.3V7.04001C19.75 5.01357 19.4953 4.0401 19.0098 3.52114C18.5409 3.01996 17.6685 2.75 15.78 2.75H8.22C6.3315 2.75 5.45906 3.01996 4.99019 3.52114C4.50468 4.0401 4.25 5.01357 4.25 7.04001V18.3C4.25 18.9046 4.33408 19.3385 4.45025 19.6233C4.56542 19.9057 4.68815 19.9904 4.74794 20.0162C4.80225 20.0396 4.92947 20.0686 5.18132 19.9599C5.44052 19.848 5.78163 19.6077 6.18124 19.1788C6.18701 19.1726 6.19289 19.1665 6.19887 19.1605L6.20198 19.1574C7.3393 17.9598 9.1318 18.0578 10.1207 19.381L11.1305 20.7307C11.3787 21.0624 11.311 21.5324 10.9793 21.7805C10.6476 22.0287 10.1776 21.9609 9.92947 21.6293L8.91946 20.2793L8.91923 20.279C8.49043 19.7052 7.78886 19.6606 7.28577 20.1944L7.27113 20.2095L7.26989 20.2108C6.78723 20.7271 6.28513 21.1171 5.77589 21.337C5.25617 21.5614 4.68652 21.6229 4.15457 21.3938C3.62811 21.1671 3.27521 20.7143 3.06131 20.1898C2.84842 19.6677 2.75 19.0254 2.75 18.3V7.04001C2.75 5.03645 2.96532 3.48991 3.89481 2.49637Z" fill="#2C92F2"/>
<path fill-rule="evenodd" clip-rule="evenodd" d="M7.25 7C7.25 6.58579 7.58579 6.25 8 6.25H16C16.4142 6.25 16.75 6.58579 16.75 7C16.75 7.41421 16.4142 7.75 16 7.75H8C7.58579 7.75 7.25 7.41421 7.25 7Z" fill="#2C92F2"/>
<path fill-rule="evenodd" clip-rule="evenodd" d="M8.25 11C8.25 10.5858 8.58579 10.25 9 10.25H15C15.4142 10.25 15.75 10.5858 15.75 11C15.75 11.4142 15.4142 11.75 15 11.75H9C8.58579 11.75 8.25 11.4142 8.25 11Z" fill="#2C92F2"/>
<path fill-rule="evenodd" clip-rule="evenodd" d="M20.6825 14.2691C21.0862 14.6461 21.1078 15.2789 20.7309 15.6825L16.0614 20.6825C15.8722 20.8852 15.6074 21.0001 15.3302 21C15.0529 20.9999 14.7882 20.8847 14.5991 20.6819L12.2685 18.1819C11.892 17.7779 11.9141 17.1451 12.3181 16.7685C12.7221 16.392 13.3549 16.4141 13.7315 16.8181L15.3312 18.5342L19.2691 14.3175C19.6461 13.9138 20.2789 13.8922 20.6825 14.2691Z" fill="#2C92F2"/>
</svg>
