<svg width="24" height="24" viewBox="0 0 24 24" fill="none" xmlns="http://www.w3.org/2000/svg">
<path fill-rule="evenodd" clip-rule="evenodd" d="M3.89481 2.49637C4.84095 1.48504 6.3285 1.25 8.22 1.25H15.78C17.6712 1.25 19.1594 1.48491 20.1044 2.49685C21.0328 3.49101 21.2449 5.03799 21.24 7.04109V18.31C21.24 19.0349 21.1423 19.6769 20.9306 20.1986C20.7178 20.7228 20.3662 21.1764 19.8397 21.4036C19.3078 21.6332 18.7382 21.5712 18.2186 21.3471C17.7063 21.1262 17.2002 20.7332 16.7127 20.2128L16.7113 20.2113C16.4423 19.9226 16.1363 19.8193 15.8683 19.8339C15.6 19.8485 15.3064 19.9848 15.07 20.3L14.0605 21.6493L14.058 21.6527C13.5327 22.3466 12.7933 22.7525 11.995 22.7525C11.1967 22.7525 10.4573 22.3466 9.93202 21.6527L9.92947 21.6493L8.92 20.3C8.6836 19.9848 8.39003 19.8485 8.12172 19.8339C7.85374 19.8193 7.54771 19.9226 7.27871 20.2113L7.27742 20.2127C6.79203 20.731 6.28697 21.1228 5.77494 21.343C5.25572 21.5664 4.68637 21.6279 4.15457 21.3988C3.62795 21.172 3.27503 20.719 3.06116 20.1938C2.84834 19.6711 2.75 19.0276 2.75 18.3V7.04C2.75 5.03644 2.96532 3.4899 3.89481 2.49637ZM4.99019 3.52113C4.50468 4.0401 4.25 5.01356 4.25 7.04V18.3C4.25 18.9074 4.33416 19.3426 4.4504 19.6281C4.56559 19.911 4.6883 19.9955 4.74793 20.0212C4.80238 20.0446 4.9299 20.0736 5.18225 19.9651C5.44178 19.8535 5.78297 19.614 6.18258 19.1873L6.73 19.7L6.18129 19.1887C6.73229 18.5974 7.46126 18.2957 8.20328 18.3361C8.94497 18.3765 9.6364 18.7552 10.12 19.4L11.128 20.7473L11.1291 20.7488C11.4135 21.1237 11.7336 21.2525 11.995 21.2525C12.2564 21.2525 12.5765 21.1237 12.8609 20.7488L12.862 20.7473L13.8695 19.4007C14.3531 18.7559 15.045 18.3765 15.7867 18.3361C16.5283 18.2957 17.2569 18.5971 17.8078 19.1877C18.21 19.617 18.5525 19.8576 18.8126 19.9697C19.0655 20.0788 19.1922 20.0493 19.2453 20.0264C19.3038 20.0011 19.4259 19.9172 19.5407 19.6345C19.6564 19.3494 19.74 18.9151 19.74 18.31V7.04L19.74 7.03814C19.745 5.01161 19.4921 4.03886 19.0081 3.52065C18.5406 3.02009 17.6688 2.75 15.78 2.75H8.22C6.3315 2.75 5.45905 3.01996 4.99019 3.52113Z" fill="#2C92F2"/>
<path fill-rule="evenodd" clip-rule="evenodd" d="M8.25 15C8.25 14.5858 8.58579 14.25 9 14.25H15C15.4142 14.25 15.75 14.5858 15.75 15C15.75 15.4142 15.4142 15.75 15 15.75H9C8.58579 15.75 8.25 15.4142 8.25 15Z" fill="#2C92F2"/>
<path d="M15 9.583L10.2092 9.59919V10.1336C10.2092 10.6194 10.3776 11.0189 10.7143 11.332C11.0612 11.6451 11.4745 11.8016 11.9541 11.8016C12.3724 11.8016 12.7449 11.6883 13.0714 11.4615C13.398 11.2348 13.5969 10.9433 13.6684 10.587L14.8622 10.8462C14.75 11.4723 14.4235 11.9906 13.8827 12.4008C13.3418 12.8003 12.699 13 11.9541 13C11.1582 13 10.4643 12.7517 9.87245 12.2551C9.29082 11.7584 9 11.0675 9 10.1822V7.8664C9 7.03509 9.28061 6.34953 9.84184 5.80972C10.4133 5.26991 11.1122 5 11.9388 5C12.8061 5 13.5306 5.26991 14.1122 5.80972C14.7041 6.33873 15 7.02429 15 7.8664V9.583ZM11.9388 6.21457C11.4796 6.21457 11.0765 6.37652 10.7296 6.70041C10.3827 7.0135 10.2092 7.41835 10.2092 7.91498V8.54656L13.7296 8.53036V7.91498C13.7296 7.40756 13.5561 6.9973 13.2092 6.68421C12.8622 6.37112 12.4388 6.21457 11.9388 6.21457Z" fill="#2C92F2"/>
</svg>
