<svg width="25" height="24" viewBox="0 0 25 24" fill="none" xmlns="http://www.w3.org/2000/svg">
<path d="M15.5 22.75H9.5C4.07 22.75 1.75 20.43 1.75 15V9C1.75 3.57 4.07 1.25 9.5 1.25H15.5C20.93 1.25 23.25 3.57 23.25 9V15C23.25 20.43 20.93 22.75 15.5 22.75ZM9.5 2.75C4.89 2.75 3.25 4.39 3.25 9V15C3.25 19.61 4.89 21.25 9.5 21.25H15.5C20.11 21.25 21.75 19.61 21.75 15V9C21.75 4.39 20.11 2.75 15.5 2.75H9.5Z" fill="white"/>
<path d="M12.4995 15.26C12.3095 15.26 12.1195 15.1899 11.9695 15.0399L8.96945 12.0399C8.67945 11.7499 8.67945 11.27 8.96945 10.98C9.25945 10.69 9.73945 10.69 10.0295 10.98L12.4995 13.45L14.9695 10.98C15.2595 10.69 15.7395 10.69 16.0295 10.98C16.3195 11.27 16.3195 11.7499 16.0295 12.0399L13.0295 15.0399C12.8795 15.1899 12.6895 15.26 12.4995 15.26Z" fill="white"/>
<path d="M12.5 15.2598C12.09 15.2598 11.75 14.9198 11.75 14.5098V6.50977C11.75 6.09977 12.09 5.75977 12.5 5.75977C12.91 5.75977 13.25 6.09977 13.25 6.50977V14.5098C13.25 14.9298 12.91 15.2598 12.5 15.2598Z" fill="white"/>
<path d="M12.5004 18.23C10.3904 18.23 8.27043 17.89 6.26043 17.22C5.87043 17.09 5.66043 16.66 5.79043 16.27C5.92043 15.88 6.34043 15.66 6.74043 15.8C10.4604 17.04 14.5504 17.04 18.2704 15.8C18.6604 15.67 19.0904 15.88 19.2204 16.27C19.3504 16.66 19.1404 17.09 18.7504 17.22C16.7304 17.9 14.6104 18.23 12.5004 18.23Z" fill="white"/>
</svg>
