<svg width="24" height="24" viewBox="0 0 24 24" fill="none" xmlns="http://www.w3.org/2000/svg">
<path d="M22 6V8.42C22 10 21 11 19.42 11H16V4.01C16 2.9 16.91 2 18.02 2C19.11 2.01 20.11 2.45 20.83 3.17C21.55 3.9 22 4.9 22 6Z" stroke="#019BFF" stroke-width="1.5" stroke-miterlimit="10" stroke-linecap="round" stroke-linejoin="round"/>
<path d="M8.28998 22.29L6.63 20.62C6.27 20.26 5.71 20.22 5.31 20.52L3.59998 21.8C2.93998 22.3 2 21.83 2 21V7V6C2 3.79 3 2 6 2H7H18C16.9 2 16 2.9 16 4V13.5" stroke="#019BFF" stroke-width="1.5" stroke-miterlimit="10" stroke-linecap="round" stroke-linejoin="round"/>
<path d="M19.1111 20H12.8889C12.6531 20 12.427 20.1054 12.2603 20.2929C12.0936 20.4804 12 20.7348 12 21C12 21.2652 12.0936 21.5196 12.2603 21.7071C12.427 21.8946 12.6531 22 12.8889 22H19.1111C19.3469 22 19.573 21.8946 19.7397 21.7071C19.9064 21.5196 20 21.2652 20 21C20 20.7348 19.9064 20.4804 19.7397 20.2929C19.573 20.1054 19.3469 20 19.1111 20Z" fill="#019BFF"/>
<path d="M21.1111 16H14.8889C14.6531 16 14.427 16.1054 14.2603 16.2929C14.0936 16.4804 14 16.7348 14 17C14 17.2652 14.0936 17.5196 14.2603 17.7071C14.427 17.8946 14.6531 18 14.8889 18H21.1111C21.3469 18 21.573 17.8946 21.7397 17.7071C21.9064 17.5196 22 17.2652 22 17C22 16.7348 21.9064 16.4804 21.7397 16.2929C21.573 16.1054 21.3469 16 21.1111 16Z" fill="#019BFF"/>
<path d="M6 9H12" stroke="#019BFF" stroke-width="1.5" stroke-linecap="round" stroke-linejoin="round"/>
<path d="M6.75 13H11.25" stroke="#019BFF" stroke-width="1.5" stroke-linecap="round" stroke-linejoin="round"/>
</svg>
