<svg width="24" height="24" viewBox="0 0 24 24" fill="none" xmlns="http://www.w3.org/2000/svg">
<path d="M9.32954 19.99L9.32989 19.9905L10.3395 21.34C10.3396 21.3401 10.3396 21.3401 10.3397 21.3402C10.3909 21.4084 10.4596 21.44 10.5396 21.44C10.5958 21.44 10.6479 21.4268 10.7006 21.3892C10.8128 21.3016 10.8298 21.1459 10.751 21.0419L10.7506 21.0414L9.73061 19.6914L9.72878 19.689C9.3407 19.1688 8.77343 18.8607 8.19256 18.8293C7.60451 18.798 7.02317 19.0386 6.56328 19.5231C6.56297 19.5234 6.56267 19.5237 6.56237 19.524L6.19955 19.18L9.32954 19.99ZM9.32954 19.99C9.04494 19.6105 8.63826 19.3621 8.17282 19.3311C7.68999 19.2989 7.25373 19.5257 6.93884 19.8537L6.93881 19.8537M9.32954 19.99L6.93881 19.8537M6.93881 19.8537L6.93439 19.8584M6.93881 19.8537L6.93439 19.8584M6.93439 19.8584C6.25675 20.5828 5.69768 20.8757 5.28837 20.9824M6.93439 19.8584L5.28837 20.9824M5.28837 20.9824C4.88545 21.0875 4.58552 21.0233 4.39853 20.9531M5.28837 20.9824L4.39853 20.9531M4.39853 20.9531C4.21676 20.882 3.94714 20.7218 3.7171 20.3505C3.48323 19.9729 3.26953 19.3431 3.26953 18.3V7.04001C3.26953 4.83333 3.59619 3.5644 4.29662 2.82349C4.98861 2.09153 6.16691 1.75 8.23953 1.75H15.7896C17.8622 1.75 19.0405 2.09153 19.7325 2.82349C20.4329 3.5644 20.7596 4.83333 20.7596 7.04001V11.3C20.7596 11.4338 20.6434 11.55 20.5096 11.55C20.3757 11.55 20.2596 11.4338 20.2596 11.3V7.04001C20.2596 6.12954 20.2204 5.37116 20.0997 4.75117C19.9783 4.12783 19.7673 3.60492 19.394 3.20162C19.0174 2.79475 18.5224 2.55978 17.9297 2.42509C17.345 2.2922 16.634 2.25 15.7896 2.25H8.23953C7.39505 2.25 6.68412 2.2922 6.09936 2.42509C5.50665 2.55978 5.01167 2.79475 4.63508 3.20162C4.26181 3.60492 4.05073 4.12783 3.92937 4.75117C3.80866 5.37116 3.76953 6.12954 3.76953 7.04001V18.3C3.76953 18.8623 3.83868 19.3255 3.95478 19.6769C4.01268 19.8521 4.08666 20.0129 4.17989 20.1467C4.26824 20.2735 4.40111 20.4149 4.59094 20.487L4.39853 20.9531Z" fill="#2C92F2" stroke="#2C92F2"/>
<path d="M18.2 21.65C16.2961 21.65 14.75 20.1039 14.75 18.2C14.75 16.2962 16.2962 14.75 18.2 14.75C20.1039 14.75 21.65 16.2961 21.65 18.2C21.65 20.1039 20.1039 21.65 18.2 21.65ZM18.2 15.25C16.5739 15.25 15.25 16.5739 15.25 18.2C15.25 19.8262 16.5739 21.15 18.2 21.15C19.8262 21.15 21.15 19.8262 21.15 18.2C21.15 16.5739 19.8262 15.25 18.2 15.25Z" fill="#2C92F2" stroke="#2C92F2"/>
<path d="M21.9995 22.2504C21.9349 22.2504 21.8743 22.2282 21.823 22.1769L20.823 21.1769C20.7283 21.0821 20.7283 20.9187 20.823 20.824C20.9177 20.7292 21.0812 20.7292 21.1759 20.824L22.1759 21.824C22.2706 21.9187 22.2706 22.0821 22.1759 22.1769C22.1246 22.2282 22.064 22.2504 21.9995 22.2504Z" fill="#2C92F2" stroke="#2C92F2"/>
<path d="M16 7.75H8C7.59 7.75 7.25 7.41 7.25 7C7.25 6.59 7.59 6.25 8 6.25H16C16.41 6.25 16.75 6.59 16.75 7C16.75 7.41 16.41 7.75 16 7.75Z" fill="#2C92F2"/>
<path d="M15 11.75H9C8.59 11.75 8.25 11.41 8.25 11C8.25 10.59 8.59 10.25 9 10.25H15C15.41 10.25 15.75 10.59 15.75 11C15.75 11.41 15.41 11.75 15 11.75Z" fill="#2C92F2"/>
</svg>
