<svg width="32" height="32" viewBox="0 0 32 32" fill="none" xmlns="http://www.w3.org/2000/svg">
<path opacity="0.4" d="M8.97366 26.267C10.067 25.0937 11.7337 25.187 12.6937 26.467L14.0403 28.267C15.1203 29.6937 16.867 29.6937 17.947 28.267L19.2937 26.467C20.2537 25.187 21.9203 25.0937 23.0137 26.267C25.387 28.8003 27.3203 27.9603 27.3203 24.4137V9.38699C27.3337 4.01366 26.0803 2.66699 21.0403 2.66699H10.9603C5.92033 2.66699 4.66699 4.01366 4.66699 9.38699V24.4003C4.66699 27.9603 6.61366 28.787 8.97366 26.267Z" fill="#2C92F2"/>
<path d="M21.3337 10.333H10.667C10.1203 10.333 9.66699 9.87967 9.66699 9.33301C9.66699 8.78634 10.1203 8.33301 10.667 8.33301H21.3337C21.8803 8.33301 22.3337 8.78634 22.3337 9.33301C22.3337 9.87967 21.8803 10.333 21.3337 10.333Z" fill="#2C92F2"/>
<path d="M20 15.667H12C11.4533 15.667 11 15.2137 11 14.667C11 14.1203 11.4533 13.667 12 13.667H20C20.5467 13.667 21 14.1203 21 14.667C21 15.2137 20.5467 15.667 20 15.667Z" fill="#2C92F2"/>
</svg>
