<svg width="24" height="24" viewBox="0 0 24 24" fill="none" xmlns="http://www.w3.org/2000/svg">
<g id="XMLID_1_">
<path id="Vector" d="M11.787 16.7335C12.8801 16.1842 13.5913 15.4889 14.0982 14.313L15.1562 12.0123C15.378 11.5177 15.3076 10.6727 14.4802 10.2679C13.9856 10.0267 13.1072 10.1059 12.7129 10.9473C12.5087 11.398 11.6479 13.1653 11.5476 13.3942C11.3592 13.829 11.016 14.1388 10.5776 14.3606C10.0231 14.6422 9.35423 14.5965 8.79973 14.3271C8.58497 14.2303 8.24699 13.9557 8.09385 13.7462C8.09385 13.7462 7.03767 12.7446 7.8298 8.6431C8.4107 5.12073 10.1446 0.00704122 10.1464 0C9.90168 0.543934 9.02505 2.49435 8.00935 4.75282C7.59392 5.67698 5.39002 10.5812 5.37242 10.6182C4.96403 11.5265 4.83024 12.8995 5.28616 14.0824C5.6435 14.9415 6.31594 16.0117 7.59568 16.6613C8.87718 17.3144 10.4896 17.3813 11.787 16.7335Z" fill="#E94F1E"/>
<path id="Vector_2" d="M11.872 7.26696C10.7788 7.81617 10.0677 8.5115 9.56069 9.68738L8.50274 11.9881C8.28094 12.4827 8.35136 13.3277 9.1787 13.7326C9.67335 13.9737 10.5517 13.8945 10.946 13.0531C11.1502 12.6024 12.011 10.8351 12.1114 10.6063C12.2997 10.1715 12.643 9.86165 13.0813 9.63985C13.6358 9.3582 14.3047 9.40397 14.8592 9.6733C15.074 9.77011 15.4119 10.0447 15.5651 10.2542C15.5651 10.2542 16.6213 11.2558 15.8291 15.3573C15.2482 18.8797 13.5143 23.9934 13.5126 24.0004C13.7573 23.4565 14.6339 21.5061 15.6496 19.2476C16.065 18.3234 18.2689 13.4192 18.2865 13.3823C18.6949 12.4739 18.8287 11.1009 18.3728 9.91798C18.0154 9.05895 17.343 7.98868 16.0633 7.33913C14.7818 6.68782 13.1693 6.61917 11.872 7.26696Z" fill="#E94F1E"/>
</g>
</svg>
