<svg width="24" height="24" viewBox="0 0 24 24" fill="none" xmlns="http://www.w3.org/2000/svg">
<path opacity="0.4" d="M20.9138 11.1203C20.9138 16.0103 17.3638 20.5903 12.5138 21.9303C12.1838 22.0203 11.8237 22.0203 11.4937 21.9303C6.64374 20.5903 3.09375 16.0103 3.09375 11.1203L3.09375 6.73031C3.09375 5.91031 3.71376 4.98031 4.48376 4.67031L10.0537 2.39031C11.3037 1.88031 12.7137 1.88031 13.9637 2.39031L19.5338 4.67031C20.2938 4.98031 20.9238 5.91031 20.9238 6.73031L20.9138 11.1203Z" fill="#2C92F2"/>
<path d="M14.5 10.5C14.5 9.12 13.38 8 12 8C10.62 8 9.5 9.12 9.5 10.5C9.5 11.62 10.24 12.55 11.25 12.87L11.25 15.5C11.25 15.91 11.59 16.25 12 16.25C12.41 16.25 12.75 15.91 12.75 15.5L12.75 12.87C13.76 12.55 14.5 11.62 14.5 10.5Z" fill="#2C92F2"/>
</svg>
