<svg width="24" height="24" viewBox="0 0 24 24" fill="none" xmlns="http://www.w3.org/2000/svg">
<path d="M16.999 15.6699C18.119 16.6898 18.4891 18.2598 17.9492 19.6797L17.8369 19.9385C17.231 21.2002 15.9645 22 14.5488 22V21C15.6489 21 16.6181 20.3406 17.0176 19.3164C17.4081 18.28 17.138 17.1494 16.3272 16.4102L12.5732 13H10.6348L6.87011 16.4111C6.05456 17.1554 5.78312 18.2872 6.18065 19.3164C6.58074 20.3421 7.54096 21 8.64941 21V22L8.3662 21.9893C6.96574 21.884 5.7646 21.0015 5.24901 19.6797C4.73349 18.3484 5.0353 16.8853 5.99803 15.8672L6.19921 15.6699L10.249 12H12.959L16.999 15.6699ZM14.5488 21V22H8.64941V21H14.5488Z" fill="#2C92F2"/>
<path d="M8.65054 2H14.55C16.06 2 17.4004 2.91031 17.9504 4.32031C18.4902 5.74025 18.1201 7.31014 17.0002 8.33008L12.9601 12H10.2502L6.2101 8.33008C5.08029 7.31016 4.71035 5.74017 5.25013 4.32031C5.76574 2.99848 6.97591 2.11593 8.36929 2.01074L8.65054 2ZM8.44546 3.00781C7.4313 3.0841 6.55628 3.72351 6.18178 4.68359C5.81592 5.65473 6.03025 6.70769 6.73256 7.44434L6.88002 7.58789L6.88295 7.58984L10.6369 11H12.5744L16.3283 7.58984C17.1392 6.85059 17.4092 5.72007 17.0187 4.68359L16.9377 4.49609C16.5274 3.6406 15.7019 3.07893 14.7551 3.00781L14.55 3H8.65054L8.44546 3.00781Z" fill="#2C92F2"/>
<path d="M14.5488 22C15.9645 22 17.231 21.2002 17.8369 19.9385L17.9492 19.6797C18.4891 18.2598 18.119 16.6898 16.999 15.6699L12.959 12H10.249L6.19921 15.6699L5.99803 15.8672C5.0353 16.8853 4.73349 18.3484 5.24901 19.6797C5.7646 21.0015 6.96574 21.884 8.3662 21.9893L8.64941 22M14.5488 22V21M14.5488 22H8.64941M14.5488 21C15.6489 21 16.6181 20.3406 17.0176 19.3164C17.4081 18.28 17.138 17.1494 16.3272 16.4102L12.5732 13H10.6348L6.87011 16.4111C6.05456 17.1554 5.78312 18.2872 6.18065 19.3164C6.58074 20.3421 7.54096 21 8.64941 21M14.5488 21H8.64941M8.64941 21V22M8.65054 2H14.55C16.06 2 17.4004 2.91031 17.9504 4.32031C18.4902 5.74025 18.1201 7.31014 17.0002 8.33008L12.9601 12H10.2502L6.2101 8.33008C5.08029 7.31016 4.71035 5.74017 5.25013 4.32031C5.76574 2.99848 6.97591 2.11593 8.36929 2.01074L8.65054 2ZM8.44546 3.00781C7.4313 3.0841 6.55628 3.72351 6.18178 4.68359C5.81592 5.65473 6.03025 6.70769 6.73256 7.44434L6.88002 7.58789L6.88295 7.58984L10.6369 11H12.5744L16.3283 7.58984C17.1392 6.85059 17.4092 5.72007 17.0187 4.68359L16.9377 4.49609C16.5274 3.6406 15.7019 3.07893 14.7551 3.00781L14.55 3H8.65054L8.44546 3.00781Z" stroke="#2C92F2" stroke-width="0.5"/>
</svg>
