<svg width="24" height="24" viewBox="0 0 24 24" fill="none" xmlns="http://www.w3.org/2000/svg">
<path opacity="0.4" d="M18 18.8597H17.24C16.44 18.8597 15.68 19.1697 15.12 19.7297L13.41 21.4197C12.63 22.1897 11.36 22.1897 10.58 21.4197L8.87 19.7297C8.31 19.1697 7.54 18.8597 6.75 18.8597H6C4.34 18.8597 3 17.5298 3 15.8898V4.97974C3 3.33974 4.34 2.00977 6 2.00977H18C19.66 2.00977 21 3.33974 21 4.97974V15.8898C21 17.5198 19.66 18.8597 18 18.8597Z" fill="#232730" fill-opacity="0.6"/>
<path d="M11.9997 10.41C13.2865 10.41 14.3297 9.36684 14.3297 8.08002C14.3297 6.79319 13.2865 5.75 11.9997 5.75C10.7129 5.75 9.66968 6.79319 9.66968 8.08002C9.66968 9.36684 10.7129 10.41 11.9997 10.41Z" fill="#232730" fill-opacity="0.6"/>
<path d="M14.6799 15.0598C15.4899 15.0598 15.9599 14.1598 15.5099 13.4898C14.8299 12.4798 13.5099 11.7998 11.9999 11.7998C10.4899 11.7998 9.16991 12.4798 8.48991 13.4898C8.03991 14.1598 8.50993 15.0598 9.31993 15.0598H14.6799Z" fill="#232730" fill-opacity="0.6"/>
</svg>
