<svg width="24" height="24" viewBox="0 0 24 24" fill="none" xmlns="http://www.w3.org/2000/svg">
<path d="M5.86113 8.53694L14.3676 4.27309C20.0952 1.41638 22.4357 3.7569 19.5719 9.47739L18.3062 12.0018L19.5719 14.5261C22.4357 20.2466 20.0881 22.5942 14.3676 19.7304L5.86113 15.4807C2.04983 13.5645 2.04275 10.4461 5.86113 8.53694ZM9.43909 12.5675L14.8272 12.5816C15.0394 12.5816 15.2232 12.4967 15.3576 12.3624C15.4919 12.228 15.5768 12.0442 15.5768 11.8321C15.5768 11.4219 15.2374 11.0825 14.8272 11.0825L9.43909 11.0684C9.02897 11.0684 8.68956 11.4078 8.68956 11.8179C8.68956 12.228 9.02897 12.5675 9.43909 12.5675Z" fill="#2C92F2"/>
</svg>
