<svg width="24" height="24" viewBox="0 0 24 24" fill="none" xmlns="http://www.w3.org/2000/svg">
<path d="M4.00001 4.70001C3.55818 4.70001 3.20001 5.05818 3.20001 5.50001C3.20001 5.94184 3.55818 6.30001 4.00001 6.30001H5.45001L5.45001 17.7H4.00001C3.55818 17.7 3.20001 18.0582 3.20001 18.5C3.20001 18.9418 3.55818 19.3 4.00001 19.3H8.50001C8.94184 19.3 9.30001 18.9418 9.30001 18.5C9.30001 18.0582 8.94184 17.7 8.50001 17.7H7.05001L7.05001 6.30001H8.50001C8.94184 6.30001 9.30001 5.94184 9.30001 5.50001C9.30001 5.05818 8.94184 4.70001 8.50001 4.70001L4.00001 4.70001Z" fill="#019BFF"/>
<path fill-rule="evenodd" clip-rule="evenodd" d="M13.8 18.5V13.3H16.5206L19.4827 18.8396C19.691 19.2292 20.1758 19.3762 20.5654 19.1678C20.955 18.9595 21.102 18.4748 20.8936 18.0851L18.2382 13.1191C20.0095 12.5874 21.3 10.9444 21.3 9.00001C21.3 6.62519 19.3748 4.70001 17 4.70001H13C12.7878 4.70001 12.5844 4.7843 12.4343 4.93433C12.2843 5.08435 12.2 5.28783 12.2 5.5L12.2 18.5C12.2 18.9418 12.5582 19.3 13 19.3C13.4418 19.3 13.8 18.9418 13.8 18.5ZM17.0145 11.7C18.499 11.6922 19.7 10.4863 19.7 9.00001C19.7 7.50884 18.4912 6.30001 17 6.30001H13.8L13.8 11.7H16.9822C16.993 11.6998 17.0038 11.6998 17.0145 11.7Z" fill="#019BFF"/>
</svg>
