<svg width="24" height="24" viewBox="0 0 24 24" fill="none" xmlns="http://www.w3.org/2000/svg">
<g clip-path="url(#clip0_3328_30409)">
<path d="M24.0002 8.0001C24.0002 8.5531 23.5532 9.0001 23.0002 9.0001H10.0002C9.44821 9.0001 9.00021 8.5531 9.00021 8.0001C9.00021 7.4471 9.44821 7.0001 10.0002 7.0001H23.0002C23.5532 7.0001 24.0002 7.4471 24.0002 8.0001ZM20.0002 12.0001H10.0002C9.44821 12.0001 9.00021 12.4471 9.00021 13.0001C9.00021 13.5531 9.44821 14.0001 10.0002 14.0001H20.0002C20.5532 14.0001 21.0002 13.5531 21.0002 13.0001C21.0002 12.4471 20.5532 12.0001 20.0002 12.0001ZM17.0002 17.0001H10.0002C9.44821 17.0001 9.00021 17.4471 9.00021 18.0001C9.00021 18.5531 9.44821 19.0001 10.0002 19.0001H17.0002C17.5532 19.0001 18.0002 18.5531 18.0002 18.0001C18.0002 17.4471 17.5532 17.0001 17.0002 17.0001ZM14.0002 22.0001H10.0002C9.44821 22.0001 9.00021 22.4471 9.00021 23.0001C9.00021 23.5531 9.44821 24.0001 10.0002 24.0001H14.0002C14.5522 24.0001 15.0002 23.5531 15.0002 23.0001C15.0002 22.4471 14.5522 22.0001 14.0002 22.0001ZM9.12121 3.2931L6.41321 0.584102C5.63421 -0.192898 4.36621 -0.193898 3.58521 0.584102L0.878211 3.2931C0.487211 3.6841 0.487211 4.3161 0.878211 4.7071C1.26921 5.0981 1.90221 5.0981 2.29221 4.7071L4.00021 2.9991V23.0001C4.00021 23.5531 4.44821 24.0001 5.00021 24.0001C5.55221 24.0001 6.00021 23.5531 6.00021 23.0001V2.9991L7.70721 4.7071C7.90221 4.9021 8.15821 5.0001 8.41421 5.0001C8.67021 5.0001 8.92621 4.9021 9.12121 4.7071C9.51221 4.3161 9.51221 3.6841 9.12121 3.2931Z" fill="#232730"/>
</g>
<defs>
<clipPath id="clip0_3328_30409">
<rect width="24" height="24" fill="white"/>
</clipPath>
</defs>
</svg>
