<svg width="24" height="25" viewBox="0 0 24 25" fill="none" xmlns="http://www.w3.org/2000/svg">
<path opacity="0.4" d="M16.19 2.5L7.81 2.5C4.17 2.5 2 4.67 2 8.31L2 16.68C2 20.33 4.17 22.5 7.81 22.5L16.18 22.5C19.82 22.5 21.99 20.33 21.99 16.69L21.99 8.31C22 4.67 19.83 2.5 16.19 2.5Z" fill="#2C92F2"/>
<path d="M6.87988 19.4C6.46988 19.4 6.12988 19.06 6.12988 18.65L6.12988 16.58C6.12988 16.17 6.46988 15.83 6.87988 15.83C7.28988 15.83 7.62988 16.17 7.62988 16.58V18.65C7.62988 19.07 7.28988 19.4 6.87988 19.4Z" fill="#2C92F2"/>
<path d="M12 19.4C11.59 19.4 11.25 19.06 11.25 18.65V14.5C11.25 14.09 11.59 13.75 12 13.75C12.41 13.75 12.75 14.09 12.75 14.5V18.65C12.75 19.07 12.41 19.4 12 19.4Z" fill="#2C92F2"/>
<path d="M17.1201 19.4001C16.7101 19.4001 16.3701 19.0601 16.3701 18.6501V12.4301C16.3701 12.0201 16.7101 11.6801 17.1201 11.6801C17.5301 11.6801 17.8701 12.0201 17.8701 12.4301V18.6501C17.8701 19.0701 17.5401 19.4001 17.1201 19.4001Z" fill="#2C92F2"/>
<path d="M17.87 6.31998C17.87 6.26998 17.85 6.20998 17.84 6.15998C17.83 6.11998 17.82 6.06998 17.81 6.02998C17.79 5.98998 17.76 5.95998 17.74 5.91998C17.71 5.87998 17.68 5.82998 17.64 5.79998C17.63 5.78998 17.63 5.77998 17.62 5.77998C17.59 5.75998 17.56 5.74998 17.53 5.72998C17.49 5.69998 17.44 5.66998 17.39 5.64998C17.34 5.62998 17.29 5.62998 17.24 5.61998C17.2 5.60998 17.17 5.59998 17.13 5.59998L14.2 5.59998C13.79 5.59998 13.45 5.93998 13.45 6.34998C13.45 6.75998 13.79 7.09998 14.2 7.09998H15.45C13.07 9.59998 10.07 11.36 6.69998 12.21C6.29998 12.31 6.04998 12.72 6.14998 13.12C6.22998 13.46 6.53998 13.69 6.87998 13.69C6.93998 13.69 6.99998 13.68 7.05998 13.67C10.63 12.78 13.82 10.93 16.37 8.30998V9.27998C16.37 9.68998 16.71 10.03 17.12 10.03C17.53 10.03 17.87 9.68998 17.87 9.27998V6.34998C17.87 6.33998 17.87 6.32998 17.87 6.31998Z" fill="#0085FF"/>
</svg>
