<svg width="24" height="24" viewBox="0 0 24 24" fill="none" xmlns="http://www.w3.org/2000/svg">
<path d="M19 13.2518C18.9987 14.2668 18.5958 15.2398 17.8795 15.9575C17.1633 16.6752 16.1922 17.079 15.1792 17.0803L7.16719 17.0803L7.99486 17.9024C8.05644 17.9625 8.10524 18.0346 8.13832 18.1141C8.1714 18.1937 8.18808 18.2791 8.18734 18.3653C8.18652 18.492 8.14808 18.6157 8.07691 18.7205C8.00574 18.8253 7.90506 18.9065 7.78768 18.9539C7.6703 19.0012 7.54153 19.0124 7.41776 18.9862C7.29398 18.9599 7.1808 18.8974 7.0926 18.8065L5.18463 16.8922C5.06635 16.7726 5 16.611 5 16.4426C5 16.2742 5.06635 16.1126 5.18463 15.993L7.0926 14.0739C7.15185 14.0145 7.22218 13.9675 7.29959 13.9353C7.37699 13.9032 7.45995 13.8867 7.54373 13.8867C7.62752 13.8867 7.71048 13.9032 7.78788 13.9353C7.86529 13.9675 7.93562 14.0145 7.99486 14.0739C8.05411 14.1333 8.1011 14.2037 8.13316 14.2813C8.16522 14.3589 8.18173 14.442 8.18173 14.5259C8.18173 14.6099 8.16522 14.693 8.13316 14.7706C8.1011 14.8481 8.0541 14.9186 7.99486 14.978L7.172 15.8049L15.1792 15.8049C16.5988 15.8049 17.7272 14.6766 17.7272 13.2494L17.7272 5.59966C17.7372 5.43731 17.8086 5.28489 17.9268 5.17346C18.0451 5.06204 18.2013 5 18.3636 5C18.5259 5 18.6821 5.06204 18.8004 5.17346C18.9186 5.28489 18.99 5.43731 19 5.59966L19 13.2518Z" fill="#232730" fill-opacity="0.38"/>
</svg>
