<svg width="24" height="24" viewBox="0 0 24 24" fill="none" xmlns="http://www.w3.org/2000/svg">
<path opacity="0.4" d="M5 8C5 5.79086 6.79086 4 9 4H16C18.2091 4 20 5.79086 20 8V19C20 20.1046 19.1046 21 18 21H7C5.89543 21 5 20.1046 5 19V8Z" fill="#2C92F2"/>
<path d="M11.5 2C10.6716 2 10 2.67157 10 3.5V4.5H10.8333V3.83333C10.8333 3.28105 11.281 2.83333 11.8333 2.83333H13.1667C13.719 2.83333 14.1667 3.28105 14.1667 3.83333V4.5H15V3.5C15 2.67157 14.3284 2 13.5 2H11.5Z" fill="#2C92F2"/>
<rect x="10" y="8" width="5" height="1" rx="0.5" fill="#2C92F2"/>
<path d="M7 16H18V17C18 17.5523 17.5523 18 17 18H8C7.44771 18 7 17.5523 7 17V16Z" fill="#2C92F2"/>
<path d="M7 20H9V21C9 21.5523 8.55228 22 8 22C7.44772 22 7 21.5523 7 21V20Z" fill="#2C92F2"/>
<path d="M15 20H17V21C17 21.5523 16.5523 22 16 22C15.4477 22 15 21.5523 15 21V20Z" fill="#2C92F2"/>
</svg>
