<svg width="24" height="24" viewBox="0 0 24 24" fill="none" xmlns="http://www.w3.org/2000/svg">
<g clip-path="url(#clip0_24210_68388)">
<path d="M5.14118 11.9999V7.49133C5.15457 6.60509 5.3427 5.73021 5.69479 4.91681C6.04688 4.10342 6.55601 3.36748 7.19301 2.75119C7.83001 2.13489 8.58235 1.65035 9.40694 1.32532C10.2315 1.00028 11.1121 0.841151 11.9983 0.85704C12.8845 0.841151 13.7651 1.00028 14.5897 1.32532C15.4143 1.65035 16.1666 2.13489 16.8036 2.75119C17.4406 3.36748 17.9498 4.10342 18.3019 4.91681C18.654 5.73021 18.8421 6.60509 18.8555 7.49133V11.9999M15.4269 20.9999C16.3362 20.9999 17.2083 20.6387 17.8513 19.9957C18.4942 19.3527 18.8555 18.4806 18.8555 17.5713V13.7142M15.4269 20.9999C15.4269 21.5682 15.2011 22.1133 14.7993 22.5151C14.3974 22.917 13.8524 23.1428 13.284 23.1428H10.7126C10.1443 23.1428 9.59925 22.917 9.19738 22.5151C8.79552 22.1133 8.56975 21.5682 8.56975 20.9999C8.56975 20.4316 8.79552 19.8865 9.19738 19.4847C9.59925 19.0828 10.1443 18.857 10.7126 18.857H13.284C13.8524 18.857 14.3974 19.0828 14.7993 19.4847C15.2011 19.8865 15.4269 20.4316 15.4269 20.9999ZM2.56975 9.42847H4.28404C4.51137 9.42847 4.72939 9.51877 4.89013 9.67952C5.05088 9.84026 5.14118 10.0583 5.14118 10.2856V15.4285C5.14118 15.6558 5.05088 15.8738 4.89013 16.0346C4.72939 16.1953 4.51137 16.2856 4.28404 16.2856H2.56975C2.1151 16.2856 1.67906 16.105 1.35757 15.7835C1.03608 15.462 0.855469 15.026 0.855469 14.5713V11.1428C0.855469 10.6881 1.03608 10.2521 1.35757 9.93057C1.67906 9.60908 2.1151 9.42847 2.56975 9.42847ZM21.4269 16.2856H19.7126C19.4853 16.2856 19.2673 16.1953 19.1065 16.0346C18.9458 15.8738 18.8555 15.6558 18.8555 15.4285V10.2856C18.8555 10.0583 18.9458 9.84026 19.1065 9.67952C19.2673 9.51877 19.4853 9.42847 19.7126 9.42847H21.4269C21.8816 9.42847 22.3176 9.60908 22.6391 9.93057C22.9606 10.2521 23.1412 10.6881 23.1412 11.1428V14.5713C23.1412 15.026 22.9606 15.462 22.6391 15.7835C22.3176 16.105 21.8816 16.2856 21.4269 16.2856Z" stroke="#2C92F2" stroke-width="1.5" stroke-linecap="round" stroke-linejoin="round"/>
</g>
<defs>
<clipPath id="clip0_24210_68388">
<rect width="24" height="24" fill="white"/>
</clipPath>
</defs>
</svg>
