<svg width="52" height="60" viewBox="0 0 52 60" fill="none" xmlns="http://www.w3.org/2000/svg">
<g clip-path="url(#clip0_8641_4792)">
<path fill-rule="evenodd" clip-rule="evenodd" d="M25.7762 22.3411C27.3282 22.3411 28.5922 23.6257 28.5922 25.2029C28.5922 26.7802 27.3282 28.0647 25.7762 28.0647C24.2242 28.0647 22.9602 26.7802 22.9602 25.2029C22.9602 23.6257 24.2242 22.3411 25.7762 22.3411ZM32.4162 25.9346C33.7282 25.9346 34.8002 27.0241 34.8002 28.3574C34.8002 29.6907 33.7282 30.7802 32.4162 30.7802C31.1042 30.7802 30.0322 29.6907 30.0322 28.3574C30.0322 27.0241 31.1042 25.9346 32.4162 25.9346ZM25.9842 29.4468H26.5602L26.6882 29.4793H26.8162L26.9282 29.5281L27.0562 29.5606L27.1682 29.5932L27.2802 29.6419L27.3922 29.6907L27.5042 29.7395L27.6162 29.7883L27.7122 29.8533L27.8082 29.9184L27.9042 29.9834L28.0002 30.0484L28.0802 30.1298L28.1602 30.2111L28.2402 30.2924L28.3202 30.3737L28.3842 30.455L28.4482 30.5525L28.5122 30.6501L28.5602 30.7476L28.6082 30.8452L28.6562 30.9428L28.7042 31.0403L28.7362 31.1379L28.7682 31.2517V31.3655L28.8002 31.4793V46.1623C26.9602 46.52 25.1522 46.5688 23.3602 46.2598L23.2962 31.7232V31.4956L23.3282 31.3818V31.268L23.3922 31.1541L23.4402 31.0566L23.4882 30.959L23.5522 30.8615L23.6002 30.7639L23.6642 30.6663L23.7282 30.5688L23.8082 30.4712L23.8882 30.3899L23.9682 30.3086L24.0642 30.2273L24.1602 30.146L24.2562 30.0647L24.3522 29.9997L24.4482 29.9346L24.5602 29.8696L24.6722 29.8045L24.7842 29.7558L24.8962 29.707L25.0082 29.6582L25.1362 29.6094L25.2642 29.5769L25.3922 29.5444H25.5202L25.6482 29.5119H25.7762L25.9042 29.4793H26.0322L25.9842 29.4468ZM17.5362 38.585V34.5363C17.5362 31.6745 22.0642 31.4956 22.1602 34.5363L22.1282 45.9997C13.8242 43.9997 8.68819 36.0322 9.76019 27.0566C11.2002 18.7964 17.3122 13.0078 25.6642 12.7964C34.3202 13.0078 40.6082 19.2517 41.6802 27.8858C42.0482 32.9915 40.7682 37.0241 37.5682 40.894C35.3282 43.3655 33.0402 44.8777 29.8722 45.8208V35.0078C29.9682 32.0484 34.3682 32.0322 34.4802 35.0078V37.9509C37.1682 35.1054 38.2722 31.7883 37.9842 27.8696C37.1842 21.5281 32.5922 17.0891 26.3202 16.6013H25.6802C19.3602 16.7476 14.6082 20.9428 13.4562 27.2354C12.9762 31.2354 13.9362 34.52 16.4482 37.4793C16.7842 37.8696 17.1522 38.2436 17.5362 38.585ZM3.85619 15.3655L22.4642 1.39804C25.0402 -0.471874 26.8962 -0.471874 29.4882 1.39804L48.0962 15.3493L48.8162 15.8858C50.6402 17.268 51.6642 18.5037 51.8722 20.7476C51.8882 20.959 51.9042 21.1704 51.9042 21.3818C51.9682 27.1379 51.9522 32.7639 51.9042 38.52C51.9042 38.7314 51.9042 38.9428 51.8722 39.1541C51.6642 41.4143 50.6402 42.6338 48.8162 44.0159L29.4882 58.52C26.9122 60.3899 25.0402 60.3899 22.4642 58.52L3.13619 44.0322C1.31219 42.6501 0.288194 41.4143 0.0801936 39.1704C0.0641936 38.959 0.0481936 38.7476 0.0481936 38.5363C0.000193591 32.7802 -0.0158064 27.1541 0.0481936 21.398C0.0481936 21.1867 0.0481936 20.9753 0.0801936 20.7639C0.288194 18.5037 1.31219 17.2842 3.13619 15.9021L3.85619 15.3655ZM23.2962 8.11349L7.55219 19.9509C5.24819 21.7395 3.88819 23.4631 2.89619 26.2436C2.54419 27.4306 2.40019 28.2436 2.32019 29.4956C2.32019 29.8208 2.32019 30.1297 2.32019 30.4387C2.40019 31.6745 2.54419 32.4875 2.89619 33.6907C3.88819 36.4712 5.26419 38.1948 7.55219 39.9834L23.2962 51.8208C25.2002 53.2354 26.7682 53.2354 28.6562 51.8208L44.4002 39.9834C46.7042 38.1948 48.0642 36.4712 49.0562 33.6907C49.4082 32.5037 49.5522 31.6907 49.6322 30.4387C49.6322 30.1135 49.6322 29.8045 49.6322 29.4956C49.5522 28.2598 49.4082 27.4468 49.0562 26.2436C48.0642 23.4631 46.6882 21.7395 44.4002 19.9509L28.6562 8.11349C26.7522 6.69886 25.1842 6.69886 23.2962 8.11349ZM19.5842 25.9346C20.8962 25.9346 21.9682 27.0241 21.9682 28.3574C21.9682 29.6907 20.8962 30.7802 19.5842 30.7802C18.2722 30.7802 17.2002 29.6907 17.2002 28.3574C17.2002 27.0241 18.2722 25.9346 19.5842 25.9346Z" fill="#2E3192"/>
</g>
<defs>
<clipPath id="clip0_8641_4792">
<rect width="52" height="60" fill="white"/>
</clipPath>
</defs>
</svg>
