<svg width="24" height="24" viewBox="0 0 24 24" fill="none" xmlns="http://www.w3.org/2000/svg">
<path d="M11.6226 9.12012H6.37256C6.2387 9.12012 6.12256 9.00397 6.12256 8.87012C6.12256 8.73626 6.2387 8.62012 6.37256 8.62012H11.6226C11.7564 8.62012 11.8726 8.73626 11.8726 8.87012C11.8726 9.00833 11.7621 9.12012 11.6226 9.12012Z" fill="#292D32" stroke="#2C92F2"/>
<path d="M15.5165 8.92338L15.8701 9.27693L16.2236 8.92338L17.9436 7.20338C18.0383 7.10864 18.2018 7.10864 18.2965 7.20338C18.3912 7.29812 18.3912 7.46153 18.2965 7.55627L16.0465 9.80627C15.9992 9.85357 15.9359 9.87982 15.8701 9.87982C15.8055 9.87982 15.7449 9.85756 15.6936 9.80627L14.9436 9.05627C14.8489 8.96153 14.8489 8.79812 14.9436 8.70338C15.0383 8.60864 15.2018 8.60864 15.2965 8.70338L15.6501 8.34982L15.2965 8.70338L15.5165 8.92338Z" fill="#292D32" stroke="#2C92F2"/>
<path d="M11.6226 16.1201H6.37256C6.2387 16.1201 6.12256 16.004 6.12256 15.8701C6.12256 15.7363 6.2387 15.6201 6.37256 15.6201H11.6226C11.7564 15.6201 11.8726 15.7363 11.8726 15.8701C11.8726 16.0083 11.7621 16.1201 11.6226 16.1201Z" fill="#292D32" stroke="#2C92F2"/>
<path d="M15.5165 15.9234L15.8701 16.2769L16.2236 15.9234L17.9436 14.2034C18.0383 14.1086 18.2018 14.1086 18.2965 14.2034C18.3912 14.2981 18.3912 14.4615 18.2965 14.5563L16.0465 16.8063C15.9992 16.8536 15.9359 16.8798 15.8701 16.8798C15.8055 16.8798 15.7449 16.8576 15.6936 16.8063L14.9436 16.0563C14.8489 15.9615 14.8489 15.7981 14.9436 15.7034C15.0383 15.6086 15.2018 15.6086 15.2965 15.7034L15.6501 15.3498L15.2965 15.7034L15.5165 15.9234Z" fill="#292D32" stroke="#2C92F2"/>
<path d="M15 22.25H9C6.3424 22.25 4.56492 21.6803 3.4423 20.5577C2.31968 19.4351 1.75 17.6576 1.75 15V9C1.75 6.3424 2.31968 4.56492 3.4423 3.4423C4.56492 2.31968 6.3424 1.75 9 1.75H15C17.6576 1.75 19.4351 2.31968 20.5577 3.4423C21.6803 4.56492 22.25 6.3424 22.25 9V15C22.25 17.6576 21.6803 19.4351 20.5577 20.5577C19.4351 21.6803 17.6576 22.25 15 22.25ZM9 2.25C6.65972 2.25 4.92432 2.66107 3.7927 3.7927C2.66107 4.92432 2.25 6.65972 2.25 9V15C2.25 17.3403 2.66107 19.0757 3.7927 20.2073C4.92432 21.3389 6.65972 21.75 9 21.75H15C17.3403 21.75 19.0757 21.3389 20.2073 20.2073C21.3389 19.0757 21.75 17.3403 21.75 15V9C21.75 6.65972 21.3389 4.92432 20.2073 3.7927C19.0757 2.66107 17.3403 2.25 15 2.25H9Z" fill="#292D32" stroke="#2C92F2"/>
</svg>
