<svg width="24" height="25" viewBox="0 0 24 25" fill="none" xmlns="http://www.w3.org/2000/svg">
<path fill-rule="evenodd" clip-rule="evenodd" d="M14.4403 3H10.4403C9.05955 3 7.94026 4.11929 7.94026 5.5V6.6V10.0764V14.6V18.0764V19.5C7.94026 20.8807 9.05955 22 10.4403 22H14.4403C15.821 22 16.9403 20.8807 16.9403 19.5V18.0764V14.6V10.0764V6.6V5.5C16.9403 4.11929 15.821 3 14.4403 3ZM6.44399 19.6743C6.53521 21.8025 8.28951 23.5 10.4403 23.5H14.4403C16.591 23.5 18.3453 21.8025 18.4365 19.6743C19.0276 19.7179 19.6432 19.4483 19.9713 18.7919L21.7095 15.3155C22.2415 14.2517 21.4679 13 20.2785 13H18.5403C18.5067 13 18.4733 13.001 18.4403 13.0031V11.6745C19.0302 11.7167 19.6438 11.4469 19.9713 10.7919L21.7095 7.31554C22.2415 6.2517 21.4679 5 20.2785 5H18.5403C18.4964 5 18.4529 5.00177 18.41 5.00524C18.1662 3.02955 16.4819 1.5 14.4403 1.5H10.4403C8.39865 1.5 6.71428 3.02954 6.47056 5.00523C6.42758 5.00177 6.38413 5 6.34026 5H4.60206C3.41265 5 2.63906 6.2517 3.17098 7.31554L4.90918 10.7919C5.23668 11.4469 5.85032 11.7167 6.44026 11.6745V13.0031C6.40719 13.001 6.37385 13 6.34026 13H4.60206C3.41265 13 2.63906 14.2517 3.17098 15.3155L4.90918 18.7919C5.23737 19.4483 5.8529 19.7179 6.44399 19.6743ZM6.44026 18.0764V18.0264V16.6767V15.1459V14.6C6.44026 14.5448 6.39549 14.5 6.34026 14.5H6.11731H6.00026H4.80206H4.60206C4.52773 14.5 4.47938 14.5782 4.51262 14.6447L4.60206 14.8236L4.94026 15.5L5.13791 15.8953L5.19026 16L5.62486 16.8692L6.22846 18.0764L6.25082 18.1211C6.29801 18.2155 6.44026 18.1819 6.44026 18.0764ZM18.6297 18.1211C18.5825 18.2155 18.4403 18.1819 18.4403 18.0764V18.0264V16.6767V15.1459V14.6C18.4403 14.5448 18.485 14.5 18.5403 14.5H18.7632H18.8803H20.0785H20.2785C20.3528 14.5 20.4011 14.5782 20.3679 14.6447L20.2785 14.8236L19.9403 15.5L19.7426 15.8953L19.6903 16L19.2557 16.8692L18.6521 18.0764L18.6297 18.1211ZM6.44026 10.0764V10.0264V8.6767V7.1459V6.6C6.44026 6.54477 6.39549 6.5 6.34026 6.5H6.11731H6.00026H4.80206H4.60206C4.52773 6.5 4.47938 6.57823 4.51262 6.64472L4.60206 6.82361L4.94026 7.5L5.13791 7.8953L5.19026 8L5.62486 8.86919L6.22846 10.0764L6.25082 10.1211C6.29801 10.2155 6.44026 10.1819 6.44026 10.0764ZM18.6297 10.1211C18.5825 10.2155 18.4403 10.1819 18.4403 10.0764V10.0264V8.6767V7.1459V6.6C18.4403 6.54477 18.485 6.5 18.5403 6.5H18.7632H18.8803H20.0785H20.2785C20.3528 6.5 20.4011 6.57823 20.3679 6.64472L20.2785 6.82361L19.9403 7.5L19.7426 7.8953L19.6903 8L19.2557 8.86919L18.6521 10.0764L18.6297 10.1211ZM12.5001 10C13.0523 10 13.5001 9.55228 13.5001 9C13.5001 8.44772 13.0523 8 12.5001 8C11.9478 8 11.5001 8.44772 11.5001 9C11.5001 9.55228 11.9478 10 12.5001 10ZM12.5001 11.5C13.8808 11.5 15.0001 10.3807 15.0001 9C15.0001 7.61929 13.8808 6.5 12.5001 6.5C11.1194 6.5 10.0001 7.61929 10.0001 9C10.0001 10.3807 11.1194 11.5 12.5001 11.5ZM13.5001 16C13.5001 16.5523 13.0523 17 12.5001 17C11.9478 17 11.5001 16.5523 11.5001 16C11.5001 15.4477 11.9478 15 12.5001 15C13.0523 15 13.5001 15.4477 13.5001 16ZM15.0001 16C15.0001 17.3807 13.8808 18.5 12.5001 18.5C11.1194 18.5 10.0001 17.3807 10.0001 16C10.0001 14.6193 11.1194 13.5 12.5001 13.5C13.8808 13.5 15.0001 14.6193 15.0001 16Z" fill="#2C92F2"/>
</svg>
