<svg width="24" height="24" viewBox="0 0 24 24" fill="none" xmlns="http://www.w3.org/2000/svg">
<g clip-path="url(#clip0_9679_42027)">
<path d="M3.15055 17.1562C3.15055 17.1896 3.12842 17.234 3.12842 17.2674C4.14611 19.3118 5.8054 20.9896 7.84078 22.0007C7.87397 22.0007 7.91821 21.9785 7.95139 21.9785C7.57529 20.6896 7.28769 19.3674 7.07751 18.0451C5.75009 17.8229 4.43372 17.534 3.15055 17.1562Z" fill="#019BFF"/>
<path d="M22 8.04359C20.9602 5.85469 19.2013 4.08802 17.0332 3.05469C17.4314 4.37691 17.7633 5.73248 17.9845 7.08804C19.3341 7.31027 20.6836 7.63247 22 8.04359Z" fill="#019BFF"/>
<path d="M3.03955 8.04455C4.36697 7.64455 5.71654 7.31123 7.06609 7.08901C7.28732 5.76678 7.56386 4.45567 7.93997 3.16678C7.90678 3.16678 7.86253 3.14453 7.82934 3.14453C5.74971 4.17787 4.05724 5.92232 3.03955 8.04455Z" fill="#019BFF"/>
<path opacity="0.4" d="M16.1923 6.85557C15.9268 5.41112 15.5949 3.96669 15.1193 2.56668C15.0971 2.4889 15.0971 2.42224 15.0861 2.33335C14.2675 2.13335 13.4047 2 12.5197 2C11.6237 2 10.7719 2.12224 9.9423 2.33335C9.93124 2.41113 9.94229 2.47779 9.92017 2.56668C9.45557 3.96669 9.11265 5.41112 8.84717 6.85557C11.2918 6.5889 13.7476 6.5889 16.1923 6.85557Z" fill="#019BFF"/>
<path opacity="0.4" d="M6.83403 8.87695C5.38493 9.14362 3.95794 9.47696 2.56415 9.95474C2.48672 9.97696 2.42034 9.97696 2.33184 9.98807C2.13273 10.8103 2 11.677 2 12.5659C2 13.4659 2.12167 14.3214 2.33184 15.1547C2.40928 15.1659 2.47565 15.1548 2.56415 15.177C3.95794 15.6437 5.38493 15.9881 6.83403 16.2548C6.56854 13.7992 6.56854 11.3325 6.83403 8.87695Z" fill="#019BFF"/>
<path d="M8.59313 8.62109C8.26127 11.2433 8.26127 13.8878 8.59313 16.5211C11.2037 16.8544 13.8365 16.8544 16.4581 16.5211C16.79 13.8989 16.79 11.2544 16.4581 8.62109C13.8365 8.28776 11.2037 8.28776 8.59313 8.62109Z" fill="#019BFF" fill-opacity="0.24"/>
<path d="M21.2996 16.7031L19.2785 13.7288L18.8255 13.071C18.7605 12.9624 18.7568 12.7839 18.8252 12.6766L19.9886 10.8515C20.3536 10.279 20.3636 9.32914 20.0179 8.73975C19.896 8.53623 19.6813 8.39936 19.4454 8.37476C18.7711 8.31403 17.9105 8.72997 17.5455 9.30253L16.3821 11.1276C16.3137 11.2349 16.1503 11.3069 16.0245 11.2938L11.6934 10.588C11.2188 10.5035 10.6143 10.7808 10.3558 11.1863L9.85393 11.9736C9.53076 12.4806 9.75279 12.9744 10.3532 13.072L14.1625 13.6885C14.4597 13.7353 14.5707 13.9822 14.4073 14.2387L13.9852 14.9007L13.3009 15.9743C13.2135 16.1115 13.0105 16.2589 12.8542 16.2934L10.5847 16.8011C10.3503 16.853 10.106 17.0914 10.0423 17.3361L9.79365 18.3183C9.67669 18.7386 9.96984 19.1603 10.4043 19.2024L12.5842 18.9144C12.9168 18.8664 13.2686 19.0907 13.3655 19.4125L14.0246 21.5102C14.25 21.8803 14.7522 21.974 15.0958 21.6982L15.8813 21.0581C16.0723 20.9031 16.1892 20.575 16.1373 20.3406L15.6395 18.0689C15.5989 17.9089 15.6468 17.6626 15.7343 17.5255L16.8406 15.7899C17.0041 15.5334 17.2651 15.532 17.4428 15.7795L19.6096 18.9725C19.9515 19.4757 20.4929 19.4685 20.8161 18.9615L21.3179 18.1743C21.5765 17.7687 21.5726 17.1036 21.2996 16.7031Z" fill="#019BFF"/>
</g>
<defs>
<clipPath id="clip0_9679_42027">
<rect width="24" height="24" fill="white"/>
</clipPath>
</defs>
</svg>
