<svg width="32" height="32" viewBox="0 0 32 32" fill="none" xmlns="http://www.w3.org/2000/svg">
<g id="icons8-txt">
<path id="Subtract" fill-rule="evenodd" clip-rule="evenodd" d="M9 10.24C9 8.45044 10.4101 7 12.15 7H16V12.04C16 13.233 16.9401 14.2 18.1 14.2L23 14.2V21.76C23 23.5496 21.5898 25 19.85 25H12.15C10.4101 25 9 23.5496 9 21.76L9 10.24ZM14.1804 18.0405H12.2239C12.0731 18.0405 11.9717 18.1353 11.9717 18.2901C11.9717 18.4453 12.0731 18.5397 12.2239 18.5397H12.8911V20.5999C12.8911 20.8152 12.9993 20.9543 13.196 20.9543C13.3958 20.9543 13.507 20.8181 13.507 20.5999V18.5397H14.1804C14.334 18.5397 14.4354 18.4449 14.4354 18.2901C14.4354 18.135 14.334 18.0405 14.1804 18.0405ZM19.7735 18.0405H17.8171C17.6662 18.0405 17.5648 18.1353 17.5648 18.2901C17.5648 18.4453 17.6662 18.5397 17.8171 18.5397H18.4843V20.5999C18.4843 20.8152 18.5925 20.9543 18.7892 20.9543C18.989 20.9543 19.0995 20.8181 19.0995 20.5999V18.5397H19.7735C19.9272 18.5397 20.0285 18.4449 20.0285 18.2901C20.0285 18.135 19.9272 18.0405 19.7735 18.0405ZM15.1005 18.0462C15.2237 18.0462 15.2912 18.0874 15.3773 18.217L15.9714 19.1156H15.9898L16.5675 18.2205C16.6476 18.0909 16.7185 18.0469 16.8354 18.0469C16.9922 18.0469 17.1096 18.1576 17.1096 18.3063C17.1096 18.379 17.0872 18.4389 17.0351 18.5116L16.3125 19.515L17.0296 20.5141C17.0817 20.5836 17.1031 20.6442 17.1034 20.7201C17.1034 20.8749 16.9869 20.9859 16.8238 20.9859C16.7038 20.9859 16.639 20.9413 16.5497 20.8052L15.9529 19.9165H15.9379L15.3377 20.8052C15.2453 20.9445 15.1809 20.9859 15.0608 20.9859C14.9068 20.9859 14.7936 20.8747 14.7936 20.7293C14.7936 20.6537 14.8146 20.5995 14.864 20.5268L15.5899 19.5016L14.9009 18.5334C14.8424 18.4542 14.8209 18.3979 14.8209 18.3154C14.8209 18.1635 14.9437 18.0462 15.1005 18.0462Z" fill="#2C92F2"/>
<path id="Vector" opacity="0.4" d="M17.3984 12.0403V7.12402L22.8781 12.7603H18.0984C17.712 12.7603 17.3984 12.4381 17.3984 12.0403Z" fill="#2C92F2"/>
</g>
</svg>
