<svg width="49" height="56" viewBox="0 0 49 56" fill="none" xmlns="http://www.w3.org/2000/svg">
<rect x="0.5" y="4" width="43" height="52" rx="8" fill="#AFB8CA" fill-opacity="0.16"/>
<path d="M11.799 33.1374C11.799 32.8684 11.8756 32.6528 12.0286 32.4904C12.1909 32.3188 12.4205 32.233 12.7173 32.233C13.0188 32.233 13.253 32.3188 13.4199 32.4904C13.5776 32.6528 13.6564 32.8684 13.6564 33.1374C13.6564 33.3878 13.5776 33.5919 13.4199 33.7496C13.2483 33.9165 13.0141 34 12.7173 34C12.4205 34 12.1909 33.9165 12.0286 33.7496C11.8756 33.5965 11.799 33.3925 11.799 33.1374ZM18.132 23.5026V25.5478H19.7112V26.6609H18.132V31.9061C18.132 32.2446 18.2016 32.4997 18.3407 32.6713C18.4845 32.8383 18.7257 32.9217 19.0642 32.9217C19.2312 32.9217 19.4607 32.8916 19.7529 32.8313V34C19.3726 34.102 19.0016 34.153 18.6399 34.153C17.9952 34.153 17.5083 33.9583 17.179 33.5687C16.8497 33.1791 16.6851 32.6249 16.6851 31.9061V26.6609H15.1477V25.5478H16.6851V23.5026H18.132ZM24.2273 28.6296L26.0986 25.5478H27.789L25.0204 29.7287L27.8725 34H26.203L24.2482 30.8348L22.3004 34H20.6169L23.469 29.7287L20.7004 25.5478H22.3769L24.2273 28.6296ZM31.2883 23.5026V25.5478H32.8674V26.6609H31.2883V31.9061C31.2883 32.2446 31.3579 32.4997 31.497 32.6713C31.6408 32.8383 31.8819 32.9217 32.2205 32.9217C32.3874 32.9217 32.617 32.8916 32.9092 32.8313V34C32.5289 34.102 32.1579 34.153 31.7961 34.153C31.1515 34.153 30.6645 33.9583 30.3352 33.5687C30.006 33.1791 29.8413 32.6249 29.8413 31.9061V26.6609H28.3039V25.5478H29.8413V23.5026H31.2883Z" fill="#798294"/>
<g clip-path="url(#clip0_12282_48258)">
<mask id="mask0_12282_48258" style="mask-type:luminance" maskUnits="userSpaceOnUse" x="33" y="0" width="16" height="16">
<path d="M40.9987 14.6663C44.6807 14.6663 47.6654 11.6817 47.6654 7.99967C47.6654 4.31767 44.6807 1.33301 40.9987 1.33301C37.3167 1.33301 34.332 4.31767 34.332 7.99967C34.332 11.6817 37.3167 14.6663 40.9987 14.6663Z" fill="white" stroke="white" stroke-linejoin="round"/>
<path d="M42.8846 6.11426L39.1133 9.88559M39.1133 6.11426L42.8846 9.88559" stroke="black" stroke-linecap="round" stroke-linejoin="round"/>
</mask>
<g mask="url(#mask0_12282_48258)">
<path d="M33 0H49V16H33V0Z" fill="#63A9F0"/>
</g>
</g>
<defs>
<clipPath id="clip0_12282_48258">
<rect width="16" height="16" fill="white" transform="translate(33)"/>
</clipPath>
</defs>
</svg>
