<svg width="24" height="24" viewBox="0 0 24 24" fill="none" xmlns="http://www.w3.org/2000/svg">
<path d="M0 12.5008C0 13.9724 0.531792 15.2449 1.60694 16.296C2.68208 17.3582 3.98844 17.9225 5.53757 17.9889C5.66474 17.9889 5.7341 17.9225 5.7341 17.8008V16.3292C5.7341 16.1964 5.66474 16.119 5.53757 16.119C4.54335 16.0747 3.71098 15.6985 3.01734 14.9904C2.3237 14.2822 1.97688 13.4524 1.97688 12.5008C1.97688 11.5935 2.30058 10.7968 2.94798 10.1108C3.59538 9.43586 4.40462 9.03753 5.37572 8.92688H5.98844C6.13873 8.92688 6.21965 8.86049 6.21965 8.72771L6.28902 8.09702C6.41619 6.90202 6.94798 5.89513 7.88439 5.0874C8.82081 4.27967 9.93064 3.87027 11.1908 3.87027C12.4393 3.87027 13.5376 4.27967 14.4855 5.0874C15.4335 5.89513 15.9653 6.90202 16.0925 8.09702L16.185 8.72771C16.185 8.86049 16.2543 8.92688 16.3931 8.92688H18.2543C19.2832 8.92688 20.1734 9.28095 20.9249 9.9891C21.6763 10.6972 22.0578 11.5382 22.0578 12.4897C22.0578 13.4413 21.711 14.2712 21.0173 14.9793C20.3237 15.6875 19.4798 16.0637 18.4971 16.1079C18.3468 16.1079 18.2659 16.1743 18.2659 16.3182V17.7898C18.2659 17.9115 18.3468 17.9779 18.4971 17.9779C19.5029 17.9557 20.4277 17.6902 21.2717 17.1923C22.1156 16.6944 22.7861 16.0305 23.2717 15.2006C23.7572 14.3708 24 13.4634 24 12.5008C24 11.7595 23.8497 11.0513 23.5491 10.3874C23.2616 9.73813 22.8454 9.14823 22.3237 8.65026C21.7986 8.15412 21.1784 7.75964 20.4971 7.48846C19.7919 7.20077 19.052 7.05693 18.2775 7.05693H17.9075C17.5515 5.61296 16.6909 4.32865 15.4682 3.41662C14.2649 2.48611 12.7608 1.98538 11.2139 2.00033C9.58382 2.00033 8.12717 2.48718 6.86705 3.46088C5.60694 4.43458 4.79769 5.67383 4.43931 7.17864C3.15607 7.46633 2.10405 8.09702 1.28324 9.09285C0.404624 10.0997 0 11.2284 0 12.5008ZM8.02312 13.1979C8.02312 13.4745 8.11561 13.7069 8.30058 13.906C8.47399 14.072 8.7052 14.1605 9.00578 14.1605C9.28324 14.1605 9.52601 14.072 9.72254 13.906L11.0058 12.6446V17.0484C11.0058 17.314 11.0983 17.5353 11.2717 17.7234C11.4566 17.9115 11.6763 18 11.9538 18C12.2197 18 12.4509 17.9115 12.6474 17.7234C12.8439 17.5353 12.9364 17.314 12.9364 17.0484V12.6889L14.2312 13.9171C14.6936 14.2601 15.1676 14.2601 15.6416 13.9171C15.8266 13.7511 15.9191 13.5188 15.9191 13.2311C15.9191 12.9655 15.8266 12.7442 15.6416 12.5451L12.6474 9.70141C12.5568 9.61417 12.4486 9.5456 12.3293 9.49993C12.21 9.45426 12.0822 9.43246 11.9538 9.43586C11.6763 9.43586 11.4451 9.52438 11.2717 9.70141L8.28902 12.5451C8.11561 12.7221 8.02312 12.9323 8.02312 13.1979Z" fill="#232730" fill-opacity="0.6"/>
</svg>
